<?xml version="1.0" standalone="no"?>
<!DOCTYPE svg PUBLIC "-//W3C//DTD SVG 1.1//EN" "http://www.w3.org/Graphics/SVG/1.1/DTD/svg11.dtd" >
<svg xmlns="http://www.w3.org/2000/svg" xmlns:xlink="http://www.w3.org/1999/xlink" version="1.1">
<metadata>
Created by FontForge 20170731 at Mon Nov 15 18:32:06 2021
 By Aleksey,,,
Copyright (c) 2020 by Naipe Foundry. All rights are reserved.	
</metadata>
<defs>
<font id="PacaembuMedium" horiz-adv-x="673" >
  <font-face 
    font-family="Pacaembu Medium"
    font-weight="300"
    font-stretch="normal"
    units-per-em="1000"
    panose-1="0 0 0 0 0 0 0 0 0 0"
    ascent="800"
    descent="-200"
    x-height="537"
    cap-height="737"
    bbox="-349 -258 1129 1114"
    underline-thickness="50"
    underline-position="-175"
    unicode-range="U+0020-1F91E"
  />
<missing-glyph horiz-adv-x="999" 
d="M499 -244q-87 0 -159.5 27.5t-125.5 77.5t-82.5 120.5t-29.5 157.5v521q0 86 29.5 157t82.5 121t125.5 77.5t159.5 27.5t160 -27.5t126 -77.5t82.5 -121t29.5 -157v-521q0 -87 -29.5 -157.5t-82.5 -120.5t-126 -77.5t-160 -27.5zM213 790v-778h573v778h-573zM233 411v359
h119v-120h78q6 -24 25 -38.5t45 -14.5t44.5 14.5t24.5 38.5h78v120h119v-359h-175q-4 38 -28.5 60.5t-62.5 22.5t-63 -22.5t-29 -60.5h-175zM627 670h-255v100h40v-70h175v70h40v-100zM567 720h-135v50h135v-50zM499 616q-16 0 -28.5 9.5t-17.5 24.5h93q-6 -15 -18.5 -24.5
t-28.5 -9.5zM431 411q3 28 22 46t46 18q28 0 47 -18t22 -46h-137zM352 32h-119v359h175q4 -38 29 -60.5t63 -22.5t62.5 22.5t28.5 60.5h175v-359h-119v120h-78q-6 24 -24.5 38.5t-44.5 14.5t-45 -14.5t-25 -38.5h-78v-120zM499 327q-27 0 -46 18t-22 46h137q-3 -28 -22 -46
t-47 -18zM453 152q5 15 17.5 24.5t28.5 9.5q17 0 29 -9.5t18 -24.5h-93zM412 32h-40v100h255v-100h-40v70h-175v-70zM567 32h-135v50h135v-50z" />
    <glyph glyph-name="arrowleft" unicode="&#x3c;&#x2d;" 
d="M200 417h440v-84h-440l184 -168l-61 -62l-290 264v16l290 265l61 -63z" />
    <glyph glyph-name="arrowright" unicode="&#x2d;&#x3e;" 
d="M289 585l60 63l291 -265v-16l-291 -264l-60 62l184 168h-440v84h440z" />
    <glyph glyph-name="fi" unicode="fi" horiz-adv-x="623" 
d="M125 537v98q0 68 38.5 105.5t107.5 37.5h79v-77h-66q-36 0 -52.5 -17t-16.5 -50v-97h114v-77h-114v-460h-90v460h-81v77h81zM490 603q-29 0 -45.5 18t-16.5 44t16.5 44t45.5 18q27 0 44 -18t17 -44t-17 -44t-44 -18zM445 0v544q9 -5 19.5 -8t25.5 -3t25.5 3t19.5 8v-544
h-90z" />
    <glyph glyph-name="fl" unicode="fl" horiz-adv-x="628" 
d="M125 537v98q0 68 38.5 105.5t107.5 37.5h79v-77h-66q-36 0 -52.5 -17t-16.5 -50v-97h114v-77h-114v-460h-90v460h-81v77h81zM447 0v769h90v-769h-90z" />
    <glyph glyph-name=".notdef" horiz-adv-x="999" 
d="M499 -244q-87 0 -159.5 27.5t-125.5 77.5t-82.5 120.5t-29.5 157.5v521q0 86 29.5 157t82.5 121t125.5 77.5t159.5 27.5t160 -27.5t126 -77.5t82.5 -121t29.5 -157v-521q0 -87 -29.5 -157.5t-82.5 -120.5t-126 -77.5t-160 -27.5zM213 790v-778h573v778h-573zM233 411v359
h119v-120h78q6 -24 25 -38.5t45 -14.5t44.5 14.5t24.5 38.5h78v120h119v-359h-175q-4 38 -28.5 60.5t-62.5 22.5t-63 -22.5t-29 -60.5h-175zM627 670h-255v100h40v-70h175v70h40v-100zM567 720h-135v50h135v-50zM499 616q-16 0 -28.5 9.5t-17.5 24.5h93q-6 -15 -18.5 -24.5
t-28.5 -9.5zM431 411q3 28 22 46t46 18q28 0 47 -18t22 -46h-137zM352 32h-119v359h175q4 -38 29 -60.5t63 -22.5t62.5 22.5t28.5 60.5h175v-359h-119v120h-78q-6 24 -24.5 38.5t-44.5 14.5t-45 -14.5t-25 -38.5h-78v-120zM499 327q-27 0 -46 18t-22 46h137q-3 -28 -22 -46
t-47 -18zM453 152q5 15 17.5 24.5t28.5 9.5q17 0 29 -9.5t18 -24.5h-93zM412 32h-40v100h255v-100h-40v70h-175v-70zM567 32h-135v50h135v-50z" />
    <glyph glyph-name=".null" horiz-adv-x="500" 
 />
    <glyph glyph-name="uni000D" horiz-adv-x="500" 
 />
    <glyph glyph-name="space" unicode=" " horiz-adv-x="335" 
 />
    <glyph glyph-name="exclam" unicode="!" horiz-adv-x="312" 
d="M108 737h96v-538q-9 5 -21 8.5t-26 3.5t-26.5 -3.5t-22.5 -8.5v538zM156 -11q-30 0 -51.5 22t-21.5 52t21.5 51.5t51.5 21.5q31 0 52 -21.5t21 -51.5t-21 -52t-52 -22z" />
    <glyph glyph-name="quotedbl" unicode="&#x22;" horiz-adv-x="384" 
d="M161 518h-68l-22 103v172h90v-275zM313 518h-68l-22 103v172h90v-275z" />
    <glyph glyph-name="numbersign" unicode="#" horiz-adv-x="730" 
d="M705 541v-74h-139l-31 -211h132v-74h-143l-28 -196l-78 14l26 182h-210l-28 -195l-78 14l26 181h-129v74h139l30 211h-131v74h142l25 176l80 -14l-24 -162h209l25 175l80 -14l-23 -161h128zM245 256h209l31 211h-209z" />
    <glyph glyph-name="dollar" unicode="$" 
d="M598 190q0 -40 -14 -74.5t-41.5 -60.5t-68.5 -43t-96 -21v-107h-75v108q-110 9 -169 69t-59 151h97q0 -54 34.5 -92.5t96.5 -49.5v258l-20 5q-105 26 -147.5 74t-42.5 121q0 38 14 70.5t41 57.5t66 40.5t89 19.5v107h75v-108q100 -10 152.5 -64.5t52.5 -135.5h-96
q0 46 -28 79.5t-81 43.5v-241l31 -8q96 -26 142.5 -72t46.5 -127zM190 529q0 -43 25 -69t88 -43v223q-54 -8 -83.5 -39.5t-29.5 -71.5zM378 310v-241q61 8 92 41t31 78q0 48 -27 76t-93 45z" />
    <glyph glyph-name="percent" unicode="%" horiz-adv-x="775" 
d="M178 402q-34 0 -63 11.5t-50 32.5t-32.5 50t-11.5 63q0 35 11.5 63.5t32.5 49.5t50 32.5t63 11.5q35 0 64 -11.5t49.5 -32.5t32 -49.5t11.5 -63.5q0 -34 -11.5 -63t-32 -50t-49.5 -32.5t-64 -11.5zM157 0h-98l555 704h98zM178 470q18 0 34.5 7t28.5 19t19 28.5t7 35.5
q0 38 -26 63.5t-63 25.5q-38 0 -63.5 -25.5t-25.5 -63.5q0 -19 7 -35.5t19 -28.5t28 -19t35 -7zM611 -12q-34 0 -63 12t-50 33t-32.5 50t-11.5 63q0 35 11.5 63.5t32.5 49.5t50 32.5t63 11.5q35 0 64 -11.5t49.5 -32.5t32 -49.5t11.5 -63.5q0 -34 -11.5 -63t-32 -50
t-49.5 -33t-64 -12zM611 56q37 0 63 26t26 65q0 38 -26 63.5t-63 25.5q-38 0 -63.5 -25.5t-25.5 -63.5q0 -39 25.5 -65t63.5 -26z" />
    <glyph glyph-name="ampersand" unicode="&#x26;" horiz-adv-x="808" 
d="M791 51l-56 -73l-130 106q-48 -47 -113 -71.5t-144 -24.5q-67 0 -119.5 16.5t-88.5 46t-55 70.5t-19 91q0 60 36 113t110 86q-35 38 -49 72.5t-14 74.5t15.5 75t45 60.5t72 40t97.5 14.5q62 0 107.5 -17.5t76.5 -47.5t46 -70.5t15 -87.5h-99q0 64 -36.5 104t-107.5 40
q-34 0 -59 -9t-41.5 -24.5t-24.5 -36.5t-8 -44q0 -32 18.5 -63t65.5 -69l252 -204q31 73 31 171h99q0 -69 -14 -127t-40 -106zM356 68q54 0 99.5 18.5t79.5 54.5l-246 201q-5 4 -9 7t-8 7q-57 -22 -82 -55.5t-25 -81.5q0 -31 12.5 -58.5t36.5 -48t59.5 -32.5t82.5 -12z" />
    <glyph glyph-name="quotesingle" unicode="'" horiz-adv-x="231" 
d="M161 518h-68l-22 103v172h90v-275z" />
    <glyph glyph-name="parenleft" unicode="(" horiz-adv-x="371" 
d="M290 -214q-106 94 -163.5 218t-57.5 286t57.5 285.5t163.5 217.5l51 -57q-87 -87 -135.5 -195t-48.5 -251t48.5 -251t135.5 -195z" />
    <glyph glyph-name="parenright" unicode=")" horiz-adv-x="371" 
d="M31 -156q86 87 134.5 195t48.5 251t-48.5 251t-134.5 195l50 57q106 -94 163.5 -217.5t57.5 -285.5t-57.5 -286t-163.5 -218z" />
    <glyph glyph-name="asterisk" unicode="*" horiz-adv-x="370" 
d="M185 543l-55 -95l-50 29l55 95h-108v57h108l-55 95l50 28l54 -95l57 95l49 -28l-54 -95h108v-57h-109l55 -95l-50 -29z" />
    <glyph glyph-name="plus" unicode="+" 
d="M378 400h190v-78h-190v-191h-84v191h-190v78h190v191h84v-191z" />
    <glyph glyph-name="comma" unicode="," horiz-adv-x="206" 
d="M107 113q32 0 52 -24t20 -71q0 -54 -24 -90t-74 -52l-17 -6l-18 48l16 6q31 11 46 27.5t19 43.5q-9 -4 -24 -4q-27 0 -43 17t-16 43q0 28 17 45t46 17z" />
    <glyph glyph-name="hyphen" unicode="-" horiz-adv-x="431" 
d="M389 253h-347v72h347v-72z" />
    <glyph glyph-name="period" unicode="." horiz-adv-x="232" 
d="M116 -12q-30 0 -51 21.5t-21 51.5q0 31 21 51.5t51 20.5t51 -20.5t21 -51.5q0 -30 -21 -51.5t-51 -21.5z" />
    <glyph glyph-name="slash" unicode="/" horiz-adv-x="395" 
d="M95 -19h-96l297 775h96z" />
    <glyph glyph-name="zero" unicode="0" 
d="M336 -23q-56 0 -101.5 18t-78 51t-50 80.5t-17.5 106.5v239q0 59 17.5 106t50 80t78 51t101.5 18t101.5 -18t78 -51t50.5 -80t18 -106v-239q0 -59 -18 -106.5t-50.5 -80.5t-78 -51t-101.5 -18zM336 61q34 0 62.5 12.5t49 36t32 56.5t11.5 73v226q0 41 -11.5 73.5t-32 56
t-49 36t-62.5 12.5t-62 -12.5t-48.5 -36t-32 -56t-11.5 -73.5v-226q0 -40 11.5 -73t32 -56.5t48.5 -36t62 -12.5z" />
    <glyph glyph-name="one" unicode="1" 
d="M415 704v-620h174v-84h-478v84h214v537h-208v83h298z" />
    <glyph glyph-name="two" unicode="2" 
d="M239 84h344v-84h-489v77l262 229q35 31 58 56t36.5 47.5t19.5 44t6 44.5q0 27 -9 50.5t-26.5 41.5t-43.5 28.5t-60 10.5q-32 0 -58.5 -10.5t-45.5 -29t-29.5 -44t-10.5 -56.5h-94q0 49 16.5 90.5t47 72t75 47.5t101.5 17q55 0 98 -16.5t72.5 -45.5t45 -68.5t15.5 -86.5
q0 -32 -7.5 -61.5t-26 -60.5t-50 -66t-79.5 -78z" />
    <glyph glyph-name="three" unicode="3" 
d="M561 621l-194 -176q49 -3 89 -20.5t69 -47t45 -69.5t16 -87q0 -55 -19.5 -98.5t-54 -74t-82 -47t-103.5 -16.5q-49 0 -90.5 13t-73.5 37t-55.5 56.5t-36.5 71.5l84 33q20 -60 64.5 -92t107.5 -32q36 0 66 10.5t51.5 30.5t34 48t12.5 63q0 32 -11 58t-31 45.5t-48.5 30
t-63.5 10.5q-22 0 -43 -6t-37 -15l-55 60l237 214h-336v83h458v-83z" />
    <glyph glyph-name="four" unicode="4" 
d="M508 223h111v-84h-111v-139h-90v139h-354v84l354 481h90v-481zM418 554l-243 -331h243v331z" />
    <glyph glyph-name="five" unicode="5" 
d="M360 477q51 0 94.5 -17.5t75.5 -49.5t50 -77.5t18 -101.5q0 -55 -19 -100.5t-53 -77.5t-80.5 -50t-101.5 -18q-100 0 -165 47.5t-96 123.5l85 29q24 -55 68 -84t105 -29q35 0 65 11t52 31.5t34.5 50t12.5 66.5q0 36 -12 65.5t-33.5 50t-51.5 32t-66 11.5
q-47 0 -84.5 -20.5t-60.5 -52.5h-76v387h432v-84h-352v-197q65 54 159 54z" />
    <glyph glyph-name="six" unicode="6" 
d="M363 476q53 0 96.5 -16.5t75 -48.5t49 -77.5t17.5 -104.5q0 -55 -18.5 -100t-52 -77t-80 -49.5t-102.5 -17.5q-57 0 -104.5 18.5t-81 52.5t-52 82.5t-18.5 109.5v130q0 76 19.5 136.5t57.5 102.5t94.5 64.5t130.5 22.5h137v-84h-144q-47 0 -84.5 -16t-63.5 -45t-40 -69
t-14 -88v-4q27 37 71.5 57.5t106.5 20.5zM347 72q74 0 118 43.5t44 116.5q0 72 -44 115t-118 43q-73 0 -117 -43t-44 -115q0 -73 44 -116.5t117 -43.5z" />
    <glyph glyph-name="seven" unicode="7" 
d="M83 704h501v-83h-1l1 -2l-294 -619h-103l297 621h-401v83z" />
    <glyph glyph-name="eight" unicode="8" 
d="M456 401q63 -24 101 -74.5t38 -122.5q0 -48 -18.5 -87.5t-52.5 -68.5t-81.5 -45t-106.5 -16q-58 0 -106 16t-81.5 45t-52 68.5t-18.5 87.5q0 71 38 122t100 75q-44 21 -69.5 58t-25.5 86q0 36 15 67.5t42.5 55t67.5 37t90 13.5q51 0 91 -13.5t67.5 -37t42.5 -55t15 -67.5
q0 -49 -25.5 -86t-70.5 -58zM336 633q-57 0 -90.5 -26.5t-33.5 -71.5t33.5 -72.5t90.5 -27.5t90.5 27.5t33.5 72.5t-33.5 71.5t-90.5 26.5zM336 72q75 0 119.5 37.5t44.5 99.5q0 30 -11.5 56t-33 45t-52 29.5t-67.5 10.5q-76 0 -120 -40t-44 -101q0 -62 44 -99.5t120 -37.5z
" />
    <glyph glyph-name="nine" unicode="9" 
d="M324 719q58 0 105 -18t80.5 -52t52 -82.5t18.5 -109.5v-130q0 -153 -76.5 -240t-225.5 -87h-136v84h144q47 0 84.5 16t63.5 45t40 69.5t14 88.5v4q-26 -37 -70.5 -57.5t-107.5 -20.5q-53 0 -97 16.5t-75.5 48.5t-49 78t-17.5 104q0 55 18.5 99.5t52 76.5t80 49.5
t102.5 17.5zM325 315q73 0 117.5 42.5t44.5 114.5q0 74 -44.5 117.5t-117.5 43.5t-117 -43.5t-44 -117.5q0 -72 44 -114.5t117 -42.5z" />
    <glyph glyph-name="colon" unicode=":" horiz-adv-x="232" 
d="M116 379q-30 0 -51 22t-21 51q0 31 21 51.5t51 20.5t51 -20.5t21 -51.5q0 -29 -21 -51t-51 -22zM116 19q-30 0 -51 21.5t-21 51.5t21 51t51 21t51 -21t21 -51t-21 -51.5t-51 -21.5z" />
    <glyph glyph-name="semicolon" unicode=";" horiz-adv-x="218" 
d="M119 376q-30 0 -51 21.5t-21 51.5t21 51t51 21t51 -21t21 -51t-21 -51.5t-51 -21.5zM108 113q32 0 52 -24t20 -71q0 -54 -24 -90t-74 -52l-17 -6l-18 48l16 6q30 11 45 27.5t19 43.5q-9 -4 -23 -4q-28 0 -43.5 17t-15.5 43q0 28 17 45t46 17z" />
    <glyph glyph-name="less" unicode="&#x3c;" 
d="M523 571l31 -77l-324 -133l324 -133l-31 -78l-405 171v79z" />
    <glyph glyph-name="equal" unicode="=" 
d="M545 436h-417v75h417v-75zM545 211h-417v75h417v-75z" />
    <glyph glyph-name="greater" unicode="&#x3e;" 
d="M118 494l32 77l405 -171v-79l-405 -171l-32 78l324 133z" />
    <glyph glyph-name="question" unicode="?" horiz-adv-x="521" 
d="M80 737h151q119 0 188 -57t69 -162q0 -104 -69 -160t-188 -56h-1v-101q-11 7 -23.5 9t-24.5 2t-24.5 -2t-23.5 -9v178h98q33 0 61.5 8.5t49.5 26t33 43.5t12 61t-12 61.5t-33 44t-49.5 26t-61.5 8.5h-152v79zM189 136q30 0 51.5 -21.5t21.5 -52.5q0 -30 -21.5 -52
t-51.5 -22t-51.5 22t-21.5 52q0 31 21.5 52.5t51.5 21.5z" />
    <glyph glyph-name="at" unicode="@" horiz-adv-x="1000" 
d="M511 720q91 0 168 -29t132.5 -81t87 -125t31.5 -162q0 -61 -14 -110t-38 -83t-57 -52t-71 -18q-54 0 -84 27t-35 74q-23 -43 -72.5 -72t-114.5 -29q-72 0 -112.5 34t-40.5 94q0 53 40 90.5t130 51.5l169 26q-2 57 -34.5 84t-83.5 27q-54 0 -84 -23t-35 -60h-77
q3 31 17 58t38.5 47t59.5 31.5t80 11.5q89 0 142.5 -48.5t53.5 -144.5v-141q0 -28 12 -45t36 -17q41 0 69 46.5t28 137.5q0 76 -26 136.5t-71.5 102.5t-107.5 64.5t-135 22.5q-82 0 -148.5 -26.5t-114 -74.5t-73.5 -114.5t-26 -145.5t26.5 -145t74 -114t112.5 -74.5
t142 -26.5q63 0 113 13.5t95 42.5l34 -66q-52 -30 -111 -47t-132 -17q-98 0 -178 32t-137 90t-88.5 137.5t-31.5 174.5t31.5 174.5t89.5 137.5t139.5 90.5t181.5 32.5zM447 136q35 0 68 11t58 31t40.5 48.5t16.5 63.5v1l-156 -26q-57 -9 -80.5 -26.5t-23.5 -45.5
q0 -25 20.5 -41t56.5 -16z" />
    <glyph glyph-name="A" unicode="A" horiz-adv-x="721" 
d="M700 0h-99l-63 164h-358l-62 -164h-97l287 737h106zM359 635l-145 -381h290z" />
    <glyph glyph-name="B" unicode="B" horiz-adv-x="703" 
d="M505 410q75 -23 111.5 -72t36.5 -121q0 -56 -19.5 -97t-54 -67.5t-83 -39.5t-107.5 -13h-278v737h269q100 0 160 -45.5t60 -132.5q0 -51 -24 -89t-71 -60zM207 653v-204h167q22 0 45.5 4.5t43 16t32 31t12.5 49.5q0 31 -12 51t-30.5 31.5t-42 16t-47.5 4.5h-168zM207 90
h172q34 0 65.5 7t55.5 22.5t38.5 40.5t14.5 62q0 38 -14.5 64t-39 42.5t-56 23.5t-64.5 7h-172v-269z" />
    <glyph glyph-name="C" unicode="C" horiz-adv-x="774" 
d="M403 -10q-73 0 -134 25t-105.5 73t-69.5 118.5t-25 161.5t25 161.5t69 119t105.5 73.5t133.5 25q73 0 130.5 -22.5t97.5 -59t62 -83.5t25 -96h-102q-3 31 -18.5 61.5t-42.5 54.5t-65 39t-87 15q-48 0 -91 -18.5t-74.5 -54.5t-50 -90t-18.5 -125q0 -70 18.5 -124t50 -90.5
t74.5 -55t91 -18.5q49 0 87 15t65 39t42.5 54.5t18.5 61.5h102q-3 -48 -25 -95t-62 -83.5t-97 -59t-130 -22.5z" />
    <glyph glyph-name="D" unicode="D" horiz-adv-x="778" 
d="M308 737q94 0 168.5 -24.5t126 -71.5t79 -115.5t27.5 -157.5q0 -88 -27.5 -157t-79 -115.5t-126 -71t-168.5 -24.5h-197v737h197zM207 88h96q70 0 126.5 18t96.5 53.5t61.5 87.5t21.5 121t-21.5 122t-61.5 88t-96.5 53t-126.5 18h-96v-561z" />
    <glyph glyph-name="E" unicode="E" horiz-adv-x="670" 
d="M207 368v-278h403v-90h-499v737h497v-90h-401v-189h286v-90h-286z" />
    <glyph glyph-name="F" unicode="F" horiz-adv-x="637" 
d="M610 737v-90h-403v-201h288v-90h-288v-356h-96v737h499z" />
    <glyph glyph-name="G" unicode="G" horiz-adv-x="817" 
d="M415 306v83h333v-53q0 -81 -25 -145t-69.5 -108.5t-106 -68.5t-134.5 -24q-74 0 -137 26.5t-109 75.5t-72 119t-26 157q0 88 26 158t71.5 119t108.5 75.5t138 26.5q65 0 117.5 -17t93 -46.5t68 -70.5t42.5 -89h-106q-23 57 -78.5 95t-135.5 38q-52 0 -96.5 -19
t-77.5 -55.5t-52 -90.5t-19 -124t19 -123.5t52.5 -90t78.5 -55.5t97 -19q48 0 90.5 17.5t74.5 48t51 72t22 88.5h-239z" />
    <glyph glyph-name="H" unicode="H" horiz-adv-x="785" 
d="M578 467v270h96v-737h-96v378h-371v-378h-96v737h96v-270h371z" />
    <glyph glyph-name="I" unicode="I" horiz-adv-x="318" 
d="M207 0h-96v737h96v-737z" />
    <glyph glyph-name="J" unicode="J" horiz-adv-x="631" 
d="M283 -18q-118 0 -182 73t-64 202h96q0 -90 39.5 -140.5t110.5 -50.5q72 0 112.5 48.5t40.5 142.5v480h95v-479q0 -134 -65 -205t-183 -71z" />
    <glyph glyph-name="K" unicode="K" horiz-adv-x="694" 
d="M283 391l380 -392h-125l-331 341v-340h-96v737h96v-303l331 302h123z" />
    <glyph glyph-name="L" unicode="L" horiz-adv-x="611" 
d="M207 737v-648h377v-89h-473v737h96z" />
    <glyph glyph-name="M" unicode="M" horiz-adv-x="925" 
d="M462 380l256 357h96v-737h-96v584l-256 -358h-2l-256 358v-584h-93v737h95z" />
    <glyph glyph-name="N" unicode="N" horiz-adv-x="785" 
d="M578 299v438h96v-737h-96v152l-371 421v-573h-96v737h81z" />
    <glyph glyph-name="O" unicode="O" horiz-adv-x="826" 
d="M413 -10q-74 0 -137 25t-109 73t-72 118.5t-26 161.5q0 92 26 162.5t72 118.5t109 73t137 25t137 -25t109 -73t72 -118.5t26 -162.5q0 -91 -26 -161.5t-72 -118.5t-109 -73t-137 -25zM413 79q48 0 92.5 18t78 54t54 90t20.5 127t-20.5 127.5t-54 90.5t-78 54t-92.5 18
t-92.5 -18t-78.5 -54t-54 -90.5t-20 -127.5t20 -127t54 -90t78.5 -54t92.5 -18z" />
    <glyph glyph-name="P" unicode="P" horiz-adv-x="683" 
d="M339 737q70 0 125.5 -17.5t94.5 -51t59.5 -82.5t20.5 -112q0 -62 -20.5 -110.5t-59.5 -81.5t-94.5 -50.5t-125.5 -17.5h-132v-214h-96v737h228zM207 291h133q42 0 78.5 11t63.5 34t42.5 57.5t15.5 80.5q0 47 -15.5 81.5t-42.5 57t-63.5 34t-78.5 11.5h-133v-367z" />
    <glyph glyph-name="Q" unicode="Q" horiz-adv-x="862" 
d="M792 48l-63 -71l-96 87q-45 -37 -100.5 -55.5t-119.5 -18.5q-74 0 -137 25t-109 73t-72 118.5t-26 161.5q0 92 26 162.5t72 118.5t109 73t137 25t137 -25t109 -73t72 -118.5t26 -162.5q0 -72 -16 -130t-45 -103zM413 73q42 0 80.5 13t70.5 39l-143 129l64 71l140 -126
q19 33 29 75.5t10 93.5q0 74 -20.5 128.5t-55 90.5t-79 53.5t-93.5 17.5t-94 -18t-79 -54.5t-54 -91t-20 -128.5q0 -75 20 -130t54 -91t78 -54t92 -18z" />
    <glyph glyph-name="R" unicode="R" horiz-adv-x="719" 
d="M658 0h-113l-133 224q-14 -2 -29.5 -3t-32.5 -1h-143v-220h-96v737h239q66 0 120 -17t92.5 -50t59 -81t20.5 -110q0 -81 -35 -138t-98 -88zM207 309h133q44 0 81 10.5t64 31.5t42.5 53t15.5 75t-15.5 75t-42.5 53t-64 31t-81 10h-133v-339z" />
    <glyph glyph-name="S" unicode="S" horiz-adv-x="700" 
d="M356 -10q-66 0 -117 17t-86.5 47t-53.5 72.5t-18 93.5h100q0 -32 12 -59.5t35 -48t55.5 -32t73.5 -11.5t72 10t52 27t31.5 40t10.5 49q0 49 -28 77t-97 46l-102 25q-109 27 -153.5 78t-44.5 129q0 42 17 78.5t49.5 62.5t80 41t107.5 15q62 0 109.5 -15.5t80 -43.5
t49 -66.5t16.5 -84.5h-100q0 54 -40 89.5t-116 35.5q-72 0 -112 -32.5t-40 -78.5q0 -45 27 -72t95 -45l106 -29q100 -26 148 -74.5t48 -133.5q0 -45 -16.5 -83t-50 -65.5t-83.5 -43t-117 -15.5z" />
    <glyph glyph-name="T" unicode="T" horiz-adv-x="645" 
d="M30 737h585v-89h-245v-648h-96v648h-244v89z" />
    <glyph glyph-name="U" unicode="U" horiz-adv-x="747" 
d="M373 -10q-136 0 -204.5 83t-68.5 230v434h96v-438q0 -57 14 -98.5t38 -68.5t56.5 -40t70.5 -13t70.5 13t56.5 40t37.5 68.5t13.5 98.5v438h93v-434q0 -147 -68 -230t-205 -83z" />
    <glyph glyph-name="V" unicode="V" horiz-adv-x="723" 
d="M363 120l240 617h99l-287 -737h-107l-287 737h101z" />
    <glyph glyph-name="W" unicode="W" horiz-adv-x="1043" 
d="M755 158l172 579h98l-219 -737h-104l-184 599l-191 -599h-98l-211 737h101l165 -580l184 580h109z" />
    <glyph glyph-name="X" unicode="X" horiz-adv-x="700" 
d="M407 370l272 -370h-115l-220 300l-208 -300h-112l263 378l-264 359h114l213 -290l204 290h112z" />
    <glyph glyph-name="Y" unicode="Y" horiz-adv-x="649" 
d="M531 737h100l-259 -472v-265h-95v263l-259 474h103l205 -373z" />
    <glyph glyph-name="Z" unicode="Z" horiz-adv-x="723" 
d="M641 649l-441 -563h453v-86h-572v88l440 562h-424v87h544v-88z" />
    <glyph glyph-name="bracketleft" unicode="[" horiz-adv-x="386" 
d="M369 783v-72h-173v-845h173v-72h-258v989h258z" />
    <glyph glyph-name="backslash" unicode="\" horiz-adv-x="395" 
d="M392 -19h-96l-297 775h96z" />
    <glyph glyph-name="bracketright" unicode="]" horiz-adv-x="386" 
d="M275 783v-989h-258v72h173v845h-173v72h258z" />
    <glyph glyph-name="asciicircum" unicode="^" horiz-adv-x="490" 
d="M264 468l146 -158l-59 -47l-105 117l-106 -117l-60 47l147 158h37z" />
    <glyph glyph-name="underscore" unicode="_" horiz-adv-x="731" 
d="M721 -82h-711v72h711v-72z" />
    <glyph glyph-name="grave" unicode="`" horiz-adv-x="258" 
d="M265 663l-31 -73l-234 101l30 73z" />
    <glyph glyph-name="a" unicode="a" horiz-adv-x="616" 
d="M311 547q111 0 169 -59.5t58 -166.5v-321h-90v89q-29 -45 -81.5 -72t-123.5 -27q-83 0 -131 40.5t-48 107.5q0 32 10.5 59.5t34.5 50t61.5 38.5t91.5 24l186 29q-1 59 -36 91.5t-100 32.5q-63 0 -94.5 -25.5t-38.5 -67.5h-93q3 36 18.5 68t44 56.5t69 38.5t93.5 14z
M257 75q40 0 74.5 12.5t60.5 35t41 54t15 70.5v15l-165 -26q-37 -6 -61.5 -15t-38.5 -20.5t-20 -26t-6 -30.5q0 -30 26 -49.5t74 -19.5z" />
    <glyph glyph-name="b" unicode="b" horiz-adv-x="675" 
d="M377 548q55 0 100.5 -19.5t78 -56t50.5 -88t18 -116.5q0 -64 -18 -116t-50.5 -88.5t-78 -56t-100.5 -19.5q-70 0 -118.5 26.5t-77.5 74.5v-89h-90v769h90v-321q29 47 77.5 73.5t118.5 26.5zM355 67q39 0 71 15t55 41.5t35.5 63.5t12.5 80q0 44 -12.5 81t-35.5 63
t-55 40.5t-71 14.5q-81 0 -127.5 -54t-46.5 -145q0 -45 12 -81.5t34.5 -63t55 -41t72.5 -14.5z" />
    <glyph glyph-name="c" unicode="c" horiz-adv-x="618" 
d="M317 -12q-60 0 -109 19.5t-84 56t-54 88.5t-19 116q0 65 19 117t54 88t84 55.5t109 19.5q52 0 95.5 -16t76 -43.5t52 -63.5t22.5 -77h-96q-3 25 -15.5 47t-32.5 38.5t-46 26t-56 9.5q-37 0 -68.5 -14t-54.5 -40.5t-35.5 -63.5t-12.5 -83t12.5 -83t35.5 -63t54.5 -40
t68.5 -14q30 0 56 9.5t46 26t32.5 38.5t15.5 47h96q-3 -40 -22.5 -76.5t-52 -64.5t-76 -44t-95.5 -16z" />
    <glyph glyph-name="d" unicode="d" 
d="M491 769h90v-769h-90v87q-29 -46 -76.5 -72.5t-115.5 -26.5q-55 0 -100.5 19.5t-78.5 56t-51 88.5t-18 116q0 65 18 116.5t51 88t78.5 56t100.5 19.5q68 0 115.5 -26t76.5 -73v320zM320 71q79 0 125 54t46 145q0 92 -46 145.5t-125 53.5q-39 0 -71 -14.5t-55 -40.5
t-35.5 -63t-12.5 -81t12.5 -80.5t35.5 -63t55 -41t71 -14.5z" />
    <glyph glyph-name="e" unicode="e" horiz-adv-x="635" 
d="M585 241h-437q2 -38 15.5 -69t36 -52.5t53.5 -33.5t68 -12q55 0 93.5 20t57.5 56h98q-26 -72 -91 -116t-158 -44q-60 0 -110 20t-85.5 56.5t-55 88t-19.5 115.5q0 63 19.5 114t55 87.5t84.5 56t108 19.5t108.5 -19t84.5 -54.5t54.5 -85.5t19.5 -113v-34zM318 463
q-33 0 -62 -11.5t-51.5 -31.5t-36.5 -47t-19 -58h340q-8 69 -55.5 108.5t-115.5 39.5z" />
    <glyph glyph-name="f" unicode="f" horiz-adv-x="377" 
d="M350 701h-66q-36 0 -52.5 -17t-16.5 -50v-97h114v-77h-114v-460h-90v460h-81v77h81v98q0 68 38.5 105.5t107.5 37.5h79v-77z" />
    <glyph glyph-name="g" unicode="g" horiz-adv-x="661" 
d="M494 537h90v-582q0 -78 -43.5 -121t-124.5 -43h-263v79h251q90 0 90 86v145q-29 -47 -77.5 -73.5t-117.5 -26.5q-55 0 -100.5 19.5t-78.5 55.5t-51 87.5t-18 114.5q0 62 18 112t51 85t78.5 54t100.5 19q69 0 117.5 -26t77.5 -73v88zM320 83q81 0 127.5 53.5t46.5 143.5
q0 87 -46.5 138t-127.5 51q-39 0 -71 -14t-55 -38.5t-35.5 -59.5t-12.5 -77q0 -43 12.5 -79.5t35.5 -62.5t55 -40.5t71 -14.5z" />
    <glyph glyph-name="h" unicode="h" horiz-adv-x="646" 
d="M359 548q45 0 82.5 -16t65 -47.5t42.5 -78t15 -106.5v-300h-90v284q0 87 -38 132.5t-101 45.5q-31 0 -58 -12.5t-46 -36t-30 -56t-11 -72.5l-1 8v-293h-90v769h90v-316q22 42 65 68.5t105 26.5z" />
    <glyph glyph-name="i" unicode="i" horiz-adv-x="268" 
d="M134 603q-28 0 -45 18t-17 44t17 44t45 18q27 0 44.5 -18t17.5 -44t-17.5 -44t-44.5 -18zM179 0h-90v544q19 -11 45 -11q15 0 25.5 3t19.5 8v-544z" />
    <glyph glyph-name="j" unicode="j" horiz-adv-x="280" 
d="M144 601q-26 0 -45 18.5t-19 45.5t19 45.5t45 18.5q27 0 46 -18.5t19 -45.5t-19 -45.5t-46 -18.5zM-15 -211v85h54q32 0 46.5 15t14.5 44v611q19 -11 45 -11t45 11v-612q0 -70 -38 -106.5t-108 -36.5h-59z" />
    <glyph glyph-name="k" unicode="k" horiz-adv-x="576" 
d="M259 274l287 -274h-110l-255 234v-234h-90v769h90v-463l251 230h109z" />
    <glyph glyph-name="l" unicode="l" horiz-adv-x="273" 
d="M181 0h-90v769h90v-769z" />
    <glyph glyph-name="m" unicode="m" horiz-adv-x="962" 
d="M677 548q44 0 81.5 -16.5t64.5 -48.5t42 -78t15 -105v-300h-90v285q0 89 -35.5 135t-94.5 46q-28 0 -51.5 -13t-41 -36t-27 -56t-9.5 -74v-287h-90v285q0 89 -35.5 135t-94.5 46q-28 0 -51.5 -13t-41 -36t-27 -56t-9.5 -74l-1 8v-295h-90v537h90v-83q20 41 58.5 67.5
t94.5 26.5q57 0 101.5 -27.5t69.5 -81.5q21 46 64.5 77.5t107.5 31.5z" />
    <glyph glyph-name="n" unicode="n" horiz-adv-x="634" 
d="M352 548q45 0 82.5 -16t64.5 -47.5t42.5 -78t15.5 -106.5v-300h-90v284q0 87 -38 132.5t-101 45.5q-31 0 -58 -12.5t-47 -36t-31 -56t-11 -72.5v-285h-90v537h90v-86q21 42 64.5 69.5t106.5 27.5z" />
    <glyph glyph-name="o" unicode="o" horiz-adv-x="643" 
d="M322 -12q-63 0 -113 21t-85.5 58.5t-54 89t-18.5 111.5t18.5 111.5t54 89t85.5 58.5t113 21t113 -21t85 -58.5t53.5 -89t18.5 -111.5t-18.5 -111.5t-53.5 -89t-85 -58.5t-113 -21zM322 74q39 0 71.5 13.5t55.5 39t35.5 61.5t12.5 80t-12.5 80t-35.5 61.5t-55.5 39
t-71.5 13.5q-80 0 -128 -52.5t-48 -141.5t48 -141.5t128 -52.5z" />
    <glyph glyph-name="p" unicode="p" 
d="M375 548q55 0 100 -19.5t77.5 -56t50.5 -88t18 -116.5q0 -64 -18 -116t-50.5 -88.5t-77.5 -56t-100 -19.5q-69 0 -117 26.5t-77 74.5v-279h-90v727h90v-89q29 48 77 74t117 26zM354 67q38 0 70 14.5t54.5 41t35 63.5t12.5 81t-12.5 81t-35 63t-54.5 40.5t-70 14.5
q-80 0 -126.5 -54t-46.5 -145q0 -92 46.5 -146t126.5 -54z" />
    <glyph glyph-name="q" unicode="q" horiz-adv-x="675" 
d="M494 537h90v-727h-90v278q-29 -47 -77.5 -73.5t-117.5 -26.5q-55 0 -100.5 19.5t-78.5 56t-51 88.5t-18 116q0 65 18 116.5t51 88t78.5 56t100.5 19.5q69 0 117.5 -26t77.5 -73v88zM320 71q81 0 127.5 54t46.5 145q0 92 -46.5 145.5t-127.5 53.5q-39 0 -71 -14.5
t-55 -40.5t-35.5 -63t-12.5 -81t12.5 -80.5t35.5 -63t55 -41t71 -14.5z" />
    <glyph glyph-name="r" unicode="r" horiz-adv-x="424" 
d="M181 537v-94q25 48 75 76.5t128 28.5v-96h-34q-81 0 -125 -47t-44 -132v-273h-90v537h90z" />
    <glyph glyph-name="s" unicode="s" horiz-adv-x="539" 
d="M279 -12q-57 0 -99 14t-70 38t-42 56.5t-14 69.5h92q1 -42 34 -69t103 -27q58 0 85 22t27 54t-20 50t-72 29l-91 19q-80 17 -111.5 57.5t-31.5 95.5q0 32 13 59.5t38.5 47.5t63 32t86.5 12q48 0 86.5 -13t65 -36t40.5 -54t14 -67h-93q-1 37 -31 63t-83 26t-79.5 -20.5
t-26.5 -49.5q0 -27 16.5 -44.5t69.5 -29.5l86 -19q43 -9 72 -24t47 -35t26 -44.5t8 -52.5q0 -73 -53.5 -116.5t-155.5 -43.5z" />
    <glyph glyph-name="t" unicode="t" horiz-adv-x="393" 
d="M233 537h124v-77h-124v-460h-90v460h-107v77h107v172h90v-172z" />
    <glyph glyph-name="u" unicode="u" horiz-adv-x="616" 
d="M435 537h90v-537h-90v81q-21 -41 -62 -67t-99 -26q-43 0 -79 16.5t-62 48t-40.5 78t-14.5 106.5v300h90v-284q0 -87 35.5 -132.5t95.5 -45.5q54 0 92 41.5t44 111.5v309z" />
    <glyph glyph-name="v" unicode="v" horiz-adv-x="560" 
d="M281 100l165 437h95l-210 -537h-102l-210 537h96z" />
    <glyph glyph-name="w" unicode="w" horiz-adv-x="834" 
d="M601 120l133 417h87l-170 -537h-87l-148 418l-147 -418h-86l-169 537h88l132 -416l143 416h82z" />
    <glyph glyph-name="x" unicode="x" horiz-adv-x="580" 
d="M346 269l202 -269h-107l-153 204l-151 -204h-105l203 274l-198 263h107l149 -198l148 198h105z" />
    <glyph glyph-name="y" unicode="y" horiz-adv-x="551" 
d="M273 134l170 403h89l-301 -715h-89l84 200l-207 515h91z" />
    <glyph glyph-name="z" unicode="z" horiz-adv-x="545" 
d="M482 460l-324 -383h330v-77h-431v77h1l321 383h-317v77h421v-77h-1z" />
    <glyph glyph-name="braceleft" unicode="{" horiz-adv-x="412" 
d="M268 393q0 -80 -52 -107q52 -27 52 -107v-246q0 -33 13.5 -46.5t46.5 -13.5h58v-79h-83q-61 0 -90.5 32t-29.5 90v271q0 60 -60 60h-63v78h63q60 0 60 60v279q0 58 29.5 89.5t90.5 31.5h83v-77h-58q-33 0 -46.5 -14t-13.5 -46v-255z" />
    <glyph glyph-name="bar" unicode="|" horiz-adv-x="170" 
d="M133 -190h-95v959h95v-959z" />
    <glyph glyph-name="braceright" unicode="}" horiz-adv-x="412" 
d="M352 325v-78h-63q-60 0 -60 -60v-271q0 -58 -29.5 -90t-89.5 -32h-83v79h58q32 0 46 13.5t14 46.5v246q0 80 51 107q-51 27 -51 107v255q0 32 -14 46t-46 14h-58v77h83q60 0 89.5 -31.5t29.5 -89.5v-279q0 -60 60 -60h63z" />
    <glyph glyph-name="asciitilde" unicode="~" horiz-adv-x="510" 
d="M346 280q-10 0 -18.5 1.5t-19 5.5t-24.5 10.5t-35 16.5q-18 9 -29.5 14.5t-19 8.5t-13 4t-10.5 1q-6 0 -13.5 -2t-14.5 -8t-12.5 -16.5t-8.5 -27.5l-67 18q8 59 34.5 85.5t68.5 26.5q9 0 17.5 -1.5t19 -5.5t25 -10.5t35.5 -16.5q18 -9 29.5 -14t19 -8t13 -4t10.5 -1
q12 0 27.5 9.5t20.5 43.5l67 -18q-8 -59 -34.5 -85.5t-67.5 -26.5z" />
    <glyph glyph-name="uni00A0" unicode="&#xa0;" horiz-adv-x="335" 
 />
    <glyph glyph-name="exclamdown" unicode="&#xa1;" horiz-adv-x="312" 
d="M156 401q-30 0 -51.5 21.5t-21.5 52.5q0 30 21.5 52t51.5 22q31 0 52 -22t21 -52q0 -31 -21 -52.5t-52 -21.5zM204 -199h-96v538q20 -12 49 -12t47 12v-538z" />
    <glyph glyph-name="cent" unicode="&#xa2;" 
d="M350 160q29 1 54.5 10.5t45 26t31.5 38.5t15 46h96q-3 -40 -22.5 -76.5t-52 -64t-76 -43.5t-95.5 -16h-10l-21 -119l-92 15l21 121q-76 27 -120 95t-44 168q0 64 18.5 115.5t53 88t82.5 56t107 20.5l20 115l91 -15l-20 -113q69 -22 112 -73t48 -115h-96q-4 34 -25 61.5
t-53 43.5zM175 361q0 -63 23 -108.5t62 -69.5l66 377q-67 -8 -109 -60t-42 -139z" />
    <glyph glyph-name="sterling" unicode="&#xa3;" 
d="M607 85v-85h-495v85q41 32 60.5 74.5t19.5 78.5q0 13 -1 24.5t-4 23.5h-104v85h75q-18 44 -26 75t-8 60q0 44 15.5 83t45 67.5t73 45t98.5 16.5q56 0 101 -17t76.5 -49t48.5 -77.5t17 -101.5h-92q0 41 -11.5 70.5t-32 48.5t-47.5 28t-57 9q-34 0 -60 -10.5t-44 -28
t-27 -41t-9 -49.5t6.5 -53.5t20.5 -66.5q2 -6 4 -9h243v-85h-218q4 -23 4 -48q0 -38 -14.5 -79.5t-42.5 -73.5h385z" />
    <glyph glyph-name="currency" unicode="&#xa4;" 
d="M568 360q0 -85 -43 -142l91 -100l-59 -57l-93 102q-54 -31 -126 -31q-74 0 -128 31l-94 -102l-60 57l92 100q-43 58 -43 142q0 42 11.5 78t32.5 65l-93 102l60 57l95 -104q54 31 127 31q36 0 67 -8t57 -22l95 103l59 -57l-92 -101q44 -58 44 -144zM336 206q66 0 107 42
t41 112q0 72 -41 113.5t-107 41.5t-106.5 -41.5t-40.5 -113.5q0 -70 40.5 -112t106.5 -42z" />
    <glyph glyph-name="yen" unicode="&#xa5;" 
d="M517 704h105l-200 -341h168v-72h-209v-97h209v-71h-209v-123h-91v123h-208v71h208v97h-209v72h168l-200 341h105l182 -333z" />
    <glyph glyph-name="brokenbar" unicode="&#xa6;" horiz-adv-x="170" 
d="M133 401h-95v368h95v-368zM133 -190h-95v400h95v-400z" />
    <glyph glyph-name="section" unicode="&#xa7;" horiz-adv-x="567" 
d="M512 626h-37q-48 0 -68.5 -23t-20.5 -58q0 -12 2 -24t8 -28t17 -37.5t29 -52.5q22 -40 35 -68.5t20 -51t9 -40.5t2 -38q0 -52 -21.5 -93.5t-62 -70.5t-98.5 -45t-131 -16h-140v77h54q48 0 68.5 23.5t20.5 58.5q0 12 -2 23t-8 26t-17 37l-28 56q-21 41 -34 69.5t-20 50.5
t-9.5 40.5t-2.5 37.5q0 52 21.5 93.5t62 71t98.5 45t131 15.5h122v-78zM417 213q0 15 -2 29.5t-8.5 33.5t-19 45.5t-32.5 65.5q-19 36 -30.5 60.5t-18 43t-9 32.5t-2.5 29q0 17 5 34t16 31q-72 -15 -109 -54t-37 -93q0 -15 2 -29t9 -33t19 -45.5t32 -65.5q19 -39 31 -65
t18.5 -44.5t9 -31.5t2.5 -27q0 -16 -4.5 -32t-15.5 -30q71 14 107.5 52.5t36.5 93.5z" />
    <glyph glyph-name="dieresis" unicode="&#xa8;" horiz-adv-x="415" 
d="M122 608q-23 0 -40 17t-17 40t17 39.5t40 16.5t40 -16.5t17 -39.5t-17 -40t-40 -17zM294 608q-24 0 -40.5 17t-16.5 40t16.5 39.5t40.5 16.5q23 0 40 -16.5t17 -39.5t-17 -40t-40 -17z" />
    <glyph glyph-name="copyright" unicode="&#xa9;" horiz-adv-x="951" 
d="M475 -48q-89 0 -163.5 30t-128.5 83.5t-84 127.5t-30 163t30 163t84 127.5t128.5 83t163.5 29.5q90 0 164.5 -29.5t128 -83t83.5 -127.5t30 -163t-30 -163t-83.5 -127.5t-128 -83.5t-164.5 -30zM476 24q73 0 133.5 24.5t104.5 69t68.5 105.5t24.5 133t-24.5 132.5
t-68.5 105t-104.5 69t-133.5 24.5t-133.5 -24.5t-104.5 -68.5t-68.5 -105t-24.5 -133t24.5 -133t68.5 -105.5t104.5 -69t133.5 -24.5zM480 120q-52 0 -94.5 16.5t-72.5 47t-46.5 74t-16.5 97.5t16.5 97.5t46.5 74t72.5 47t94.5 16.5q45 0 83.5 -14t66.5 -37.5t45 -54.5
t20 -65h-87q-2 21 -13 38.5t-28 31t-39 21t-48 7.5q-64 0 -104.5 -43.5t-40.5 -118.5t40.5 -118.5t104.5 -43.5q26 0 48 7.5t39 20.5t28 31t13 38h87q-3 -34 -20 -64.5t-45 -54t-66.5 -37.5t-83.5 -14z" />
    <glyph glyph-name="ordfeminine" unicode="&#xaa;" horiz-adv-x="360" 
d="M186 718q63 0 101.5 -35.5t38.5 -99.5v-193h-62v61q-17 -32 -50 -51.5t-74 -19.5q-51 0 -81 23.5t-30 68.5q0 41 30 65.5t98 35.5l107 18q0 32 -21 51.5t-58 19.5q-33 0 -54 -14.5t-26 -38.5h-60q5 46 39 77.5t102 31.5zM149 433q38 0 71.5 29t43.5 86l-92 -18
q-45 -7 -61.5 -21t-16.5 -34q0 -17 13 -29.5t42 -12.5zM322 271h-277v61h277v-61z" />
    <glyph glyph-name="guillemotleft" unicode="&#xab;" horiz-adv-x="547" 
d="M242 497l52 -50l-184 -178l184 -179l-52 -50l-228 223v10zM481 497l52 -50l-184 -178l184 -179l-52 -50l-228 223v10z" />
    <glyph glyph-name="logicalnot" unicode="&#xac;" 
d="M100 396h458v-262h-82v185h-376v77z" />
    <glyph glyph-name="uni00AD" unicode="&#xad;" horiz-adv-x="431" 
d="M389 253h-347v72h347v-72z" />
    <glyph glyph-name="registered" unicode="&#xae;" horiz-adv-x="951" 
d="M475 759q91 0 165.5 -29.5t128 -82.5t83 -127t29.5 -164t-29.5 -164.5t-83 -127.5t-128 -82.5t-165.5 -29.5q-90 0 -165 29.5t-128.5 82.5t-83 127.5t-29.5 164.5t29.5 164t83 127t128.5 82.5t165 29.5zM476 24q74 0 135 24.5t104.5 68t67.5 105t24 134.5t-24 134
t-67.5 104.5t-104.5 68t-135 24.5q-73 0 -134 -24.5t-105 -68t-68 -104.5t-24 -134t24 -134.5t68 -105t105 -68t134 -24.5zM657 432q0 -48 -21 -84t-59 -56l91 -155h-83l-77 133q-8 -1 -16.5 -1.5t-16.5 -0.5h-79v-135h-70v460h149q41 0 74.5 -11.5t57.5 -32.5t37 -51
t13 -66zM396 329h73q55 0 85 26.5t30 76.5q0 49 -30 75t-85 26h-73v-204z" />
    <glyph glyph-name="macron" unicode="&#xaf;" horiz-adv-x="307" 
d="M307 631h-307v67h307v-67z" />
    <glyph glyph-name="degree" unicode="&#xb0;" horiz-adv-x="262" 
d="M132 516q-23 0 -42.5 8.5t-34 22.5t-23 34t-8.5 42t8.5 41.5t23 34t34 23t42.5 8.5t43 -8.5t34 -23t22 -34t8 -41.5t-8 -42t-22 -34t-34 -22.5t-43 -8.5zM132 570q22 0 37 15t15 38t-15 38t-37 15q-23 0 -38.5 -15t-15.5 -38t15.5 -38t38.5 -15z" />
    <glyph glyph-name="plusminus" unicode="&#xb1;" 
d="M378 665v-182h190v-73h-190v-182h-84v182h-190v73h190v182h84zM568 96h-464v73h464v-73z" />
    <glyph glyph-name="twosuperior" unicode="&#xb2;" horiz-adv-x="379" 
d="M158 457h179v-68h-289v63l145 111q36 29 49 47.5t13 37.5q0 23 -16.5 38.5t-47.5 15.5t-50 -17.5t-19 -44.5h-75q0 57 38.5 94t107.5 37q66 0 102 -34t36 -83q0 -16 -4 -31t-14.5 -31t-29 -34t-47.5 -41z" />
    <glyph glyph-name="threesuperior" unicode="&#xb3;" horiz-adv-x="380" 
d="M320 697l-97 -78q52 -5 82.5 -36t30.5 -79q0 -27 -11 -49t-30.5 -38t-46.5 -25t-59 -9q-60 0 -99 27t-54 71l69 22q10 -25 30.5 -39t49.5 -14q32 0 53 18t21 46q0 26 -19 43t-50 17q-22 0 -40 -10l-31 37l122 96h-185v68h264v-68z" />
    <glyph glyph-name="acute" unicode="&#xb4;" horiz-adv-x="265" 
d="M265 691l-234 -101l-31 73l236 101z" />
    <glyph glyph-name="paragraph" unicode="&#xb6;" horiz-adv-x="687" 
d="M620 704v-718h-85v640h-109v-640h-85v207h-2q-140 0 -217 65.5t-77 190.5t77 190t217 65h281zM341 271v355h-2q-44 0 -81.5 -10.5t-64.5 -32.5t-42 -55.5t-15 -78.5t15 -78.5t42 -55.5t64.5 -33t81.5 -11h2z" />
    <glyph glyph-name="periodcentered" unicode="&#xb7;" horiz-adv-x="232" 
d="M116 323q-30 0 -51 21.5t-21 51.5t21 51t51 21t51 -21t21 -51t-21 -51.5t-51 -21.5z" />
    <glyph glyph-name="cedilla" unicode="&#xb8;" horiz-adv-x="217" 
d="M129 18l-24 -71q57 0 87.5 -24.5t30.5 -72.5t-38 -74t-98 -26h-81v52h68q39 0 56.5 13t17.5 36t-16 35.5t-53 12.5h-56l46 127z" />
    <glyph glyph-name="onesuperior" unicode="&#xb9;" horiz-adv-x="380" 
d="M244 765v-308h95v-68h-284v68h117v240h-111v68h183z" />
    <glyph glyph-name="ordmasculine" unicode="&#xba;" horiz-adv-x="389" 
d="M194 381q-35 0 -65.5 12.5t-52.5 35t-34.5 53.5t-12.5 67t12.5 67t34.5 53.5t52.5 35.5t65.5 13t65.5 -13t52.5 -35.5t34.5 -53.5t12.5 -67t-12.5 -67t-34.5 -53.5t-52.5 -35t-65.5 -12.5zM194 445q44 0 72 29t28 75q0 47 -28 76t-72 29q-43 0 -71 -29t-28 -76
q0 -45 28 -74.5t71 -29.5zM336 271h-284v61h284v-61z" />
    <glyph glyph-name="guillemotright" unicode="&#xbb;" horiz-adv-x="547" 
d="M66 497l228 -224v-10l-228 -223l-52 50l183 179l-183 178zM253 447l52 50l228 -224v-10l-228 -223l-52 50l184 179z" />
    <glyph glyph-name="onequarter" unicode="&#xbc;" horiz-adv-x="877" 
d="M194 29l483 685l55 -39l-482 -685zM339 393v-68h-284v68h117v241h-111v67h183v-308h95zM775 130h61v-57h-61v-73h-70v73h-195v57l195 246h70v-246zM705 275l-115 -145h115v145z" />
    <glyph glyph-name="onehalf" unicode="&#xbd;" horiz-adv-x="925" 
d="M194 29l483 685l55 -39l-482 -685zM339 393v-68h-284v68h117v241h-111v67h183v-308h95zM704 68h179v-68h-289v63l145 111q36 29 49 47t13 37q0 23 -16.5 39t-46.5 16q-32 0 -50.5 -17.5t-18.5 -44.5h-76q0 57 38.5 93.5t107.5 36.5q66 0 102 -33.5t36 -82.5q0 -16 -4 -31
t-14.5 -31t-29 -34t-47.5 -41z" />
    <glyph glyph-name="threequarters" unicode="&#xbe;" horiz-adv-x="884" 
d="M194 29l483 685l55 -39l-482 -685zM336 440q0 -27 -11 -49t-30.5 -38t-46.5 -25t-59 -9q-60 0 -99 27t-54 71l69 22q10 -25 30.5 -38.5t49.5 -13.5q32 0 53 17.5t21 45.5q0 26 -19 43t-50 17q-22 0 -40 -10l-31 37l123 97h-186v67h264v-67l-97 -78q52 -5 82.5 -36.5
t30.5 -79.5zM779 130h61v-57h-61v-73h-70v73h-195v57l195 246h70v-246zM709 275l-115 -145h115v145z" />
    <glyph glyph-name="questiondown" unicode="&#xbf;" horiz-adv-x="523" 
d="M352 426q-30 0 -51.5 21.5t-21.5 52.5q0 30 21.5 52t51.5 22q31 0 52.5 -22t21.5 -52q0 -31 -21.5 -52.5t-52.5 -21.5zM461 -96v-79h-151q-119 0 -187.5 56.5t-68.5 162.5q0 104 68.5 160t187.5 56h1v101q12 -7 24 -9t25 -2q11 0 23.5 2t23.5 9v-178h-98
q-33 0 -61.5 -8.5t-49.5 -25.5t-33 -43.5t-12 -61.5t12 -61.5t33 -44t49.5 -26t61.5 -8.5h152z" />
    <glyph glyph-name="Agrave" unicode="&#xc0;" horiz-adv-x="721" 
d="M239 964l235 -101l-31 -73l-234 101zM700 0h-99l-63 164h-358l-62 -164h-97l287 737h106zM359 635l-145 -381h290z" />
    <glyph glyph-name="Aacute" unicode="&#xc1;" horiz-adv-x="721" 
d="M476 964l30 -73l-234 -101l-31 73zM700 0h-99l-63 164h-358l-62 -164h-97l287 737h106zM359 635l-145 -381h290z" />
    <glyph glyph-name="Acircumflex" unicode="&#xc2;" horiz-adv-x="721" 
d="M479 790l-116 95l-115 -95l-50 48l150 123h31l150 -123zM700 0h-99l-63 164h-358l-62 -164h-97l287 737h106zM359 635l-145 -381h290z" />
    <glyph glyph-name="Atilde" unicode="&#xc3;" horiz-adv-x="721" 
d="M299 865q-36 0 -42 -50l-66 12q7 54 31.5 80.5t65.5 26.5q18 0 35 -6.5t46 -23.5q27 -17 38.5 -21.5t21.5 -4.5q31 0 38 50l66 -12q-7 -54 -31.5 -80.5t-62.5 -26.5q-19 0 -38 6t-46 24q-25 17 -35.5 21.5t-20.5 4.5zM700 0h-99l-63 164h-358l-62 -164h-97l287 737h106z
M359 635l-145 -381h290z" />
    <glyph glyph-name="Adieresis" unicode="&#xc4;" horiz-adv-x="721" 
d="M275 808q-24 0 -41 17t-17 40t17 39.5t41 16.5q23 0 40 -16.5t17 -39.5t-17 -40t-40 -17zM446 808q-23 0 -39.5 17t-16.5 40t16.5 39.5t39.5 16.5t40 -16.5t17 -39.5t-17 -40t-40 -17zM700 0h-99l-63 164h-358l-62 -164h-97l287 737h106zM359 635l-145 -381h290z" />
    <glyph glyph-name="Aring" unicode="&#xc5;" horiz-adv-x="721" 
d="M361 789q-23 0 -43 8.5t-34.5 23.5t-23 35t-8.5 43t8.5 42.5t23 34t34.5 23t43 8.5q24 0 44 -8.5t34.5 -23t22.5 -34t8 -42.5t-8 -43t-22.5 -35t-34.5 -23.5t-44 -8.5zM361 949q-21 0 -35.5 -14.5t-14.5 -35.5t14.5 -36t35.5 -15t35.5 15t14.5 36t-14.5 35.5t-35.5 14.5z
M700 0h-99l-63 164h-358l-62 -164h-97l287 737h106zM359 635l-145 -381h290z" />
    <glyph glyph-name="AE" unicode="&#xc6;" horiz-adv-x="1076" 
d="M594 390l64 -301h376v-89h-461l-31 152h-340l-77 -152h-104l375 737h519v-89h-375l36 -169h264v-89h-246zM446 630l-198 -389h276z" />
    <glyph glyph-name="Ccedilla" unicode="&#xc7;" horiz-adv-x="774" 
d="M402 80q49 0 87 15t65 39t42.5 54.5t18.5 61.5h102q-3 -46 -23 -90.5t-57 -80.5t-89 -60t-119 -28l-15 -44q57 0 87.5 -24.5t30.5 -72.5t-38 -74t-98 -26h-81v52h68q39 0 56.5 13t17.5 36t-16 35.5t-53 12.5h-56l34 93q-66 6 -120.5 33.5t-93.5 75.5t-61 115t-22 152
q0 91 25 161.5t69 119t105.5 73.5t133.5 25q73 0 130.5 -22.5t97.5 -59t62 -83.5t25 -96h-102q-3 31 -18.5 61.5t-42.5 54.5t-65 39t-87 15q-48 0 -91 -18.5t-74.5 -54.5t-50 -90t-18.5 -125q0 -70 18.5 -124t50 -90.5t74.5 -55t91 -18.5z" />
    <glyph glyph-name="Egrave" unicode="&#xc8;" horiz-adv-x="670" 
d="M236 964l236 -101l-31 -73l-234 101zM207 368v-278h403v-90h-499v737h497v-90h-401v-189h286v-90h-286z" />
    <glyph glyph-name="Eacute" unicode="&#xc9;" horiz-adv-x="670" 
d="M474 964l29 -73l-234 -101l-31 73zM207 368v-278h403v-90h-499v737h497v-90h-401v-189h286v-90h-286z" />
    <glyph glyph-name="Ecircumflex" unicode="&#xca;" horiz-adv-x="670" 
d="M476 790l-115 95l-116 -95l-50 48l150 123h31l150 -123zM207 368v-278h403v-90h-499v737h497v-90h-401v-189h286v-90h-286z" />
    <glyph glyph-name="Edieresis" unicode="&#xcb;" horiz-adv-x="670" 
d="M272 808q-23 0 -40 17t-17 40t17 39.5t40 16.5t40 -16.5t17 -39.5t-17 -40t-40 -17zM444 808q-24 0 -40.5 17t-16.5 40t16.5 39.5t40.5 16.5q23 0 40 -16.5t17 -39.5t-17 -40t-40 -17zM207 368v-278h403v-90h-499v737h497v-90h-401v-189h286v-90h-286z" />
    <glyph glyph-name="Igrave" unicode="&#xcc;" horiz-adv-x="318" 
d="M272 863l-31 -73l-234 101l29 73zM207 0h-96v737h96v-737z" />
    <glyph glyph-name="Iacute" unicode="&#xcd;" horiz-adv-x="318" 
d="M303 891l-234 -101l-31 73l236 101zM207 0h-96v737h96v-737z" />
    <glyph glyph-name="Icircumflex" unicode="&#xce;" horiz-adv-x="318" 
d="M145 961h31l150 -123l-50 -48l-115 95l-116 -95l-50 48zM207 0h-96v737h96v-737z" />
    <glyph glyph-name="Idieresis" unicode="&#xcf;" horiz-adv-x="318" 
d="M72 808q-23 0 -40 17t-17 40t17 39.5t40 16.5t40 -16.5t17 -39.5t-17 -40t-40 -17zM244 808q-24 0 -40.5 17t-16.5 40t16.5 39.5t40.5 16.5q23 0 40 -16.5t17 -39.5t-17 -40t-40 -17zM207 0h-96v737h96v-737z" />
    <glyph glyph-name="Eth" unicode="&#xd0;" horiz-adv-x="778" 
d="M308 737q94 0 168.5 -24.5t126 -71.5t79 -115.5t27.5 -157.5q0 -88 -27.5 -157t-79 -115.5t-126 -71t-168.5 -24.5h-197v332h-99v81h99v324h197zM207 88h96q70 0 126.5 18t96.5 53.5t61.5 87.5t21.5 121t-21.5 122t-61.5 88t-96.5 53t-126.5 18h-96v-236h228v-81h-228
v-244z" />
    <glyph glyph-name="Ntilde" unicode="&#xd1;" horiz-adv-x="785" 
d="M330 865q-35 0 -42 -50l-66 12q7 54 32 80.5t66 26.5q17 0 34.5 -6.5t45.5 -23.5q27 -17 39 -21.5t22 -4.5q30 0 37 50l66 -12q-7 -54 -31.5 -80.5t-62.5 -26.5q-19 0 -37.5 6t-46.5 24q-25 17 -35 21.5t-21 4.5zM578 299v438h96v-737h-96v152l-371 421v-573h-96v737h81z
" />
    <glyph glyph-name="Ograve" unicode="&#xd2;" horiz-adv-x="826" 
d="M526 863l-31 -73l-234 101l29 73zM413 -10q-74 0 -137 25t-109 73t-72 118.5t-26 161.5q0 92 26 162.5t72 118.5t109 73t137 25t137 -25t109 -73t72 -118.5t26 -162.5q0 -91 -26 -161.5t-72 -118.5t-109 -73t-137 -25zM413 79q48 0 92.5 18t78 54t54 90t20.5 127
t-20.5 127.5t-54 90.5t-78 54t-92.5 18t-92.5 -18t-78.5 -54t-54 -90.5t-20 -127.5t20 -127t54 -90t78.5 -54t92.5 -18z" />
    <glyph glyph-name="Oacute" unicode="&#xd3;" horiz-adv-x="826" 
d="M557 891l-234 -101l-31 73l236 101zM413 -10q-74 0 -137 25t-109 73t-72 118.5t-26 161.5q0 92 26 162.5t72 118.5t109 73t137 25t137 -25t109 -73t72 -118.5t26 -162.5q0 -91 -26 -161.5t-72 -118.5t-109 -73t-137 -25zM413 79q48 0 92.5 18t78 54t54 90t20.5 127
t-20.5 127.5t-54 90.5t-78 54t-92.5 18t-92.5 -18t-78.5 -54t-54 -90.5t-20 -127.5t20 -127t54 -90t78.5 -54t92.5 -18z" />
    <glyph glyph-name="Ocircumflex" unicode="&#xd4;" horiz-adv-x="826" 
d="M530 790l-115 95l-116 -95l-50 48l150 123h31l150 -123zM413 747q74 0 137 -25t109 -73t72 -118.5t26 -162.5q0 -91 -26 -161.5t-72 -118.5t-109 -73t-137 -25t-137 25t-109 73t-72 118.5t-26 161.5q0 92 26 162.5t72 118.5t109 73t137 25zM413 79q48 0 92.5 18t78 54
t54 90t20.5 127t-20.5 127.5t-54 90.5t-78 54t-92.5 18t-92.5 -18t-78.5 -54t-54 -90.5t-20 -127.5t20 -127t54 -90t78.5 -54t92.5 -18z" />
    <glyph glyph-name="Otilde" unicode="&#xd5;" horiz-adv-x="826" 
d="M491 809q-19 0 -38 6t-47 24q-25 17 -35 21.5t-21 4.5q-35 0 -42 -50l-65 12q6 54 31 80.5t66 26.5q17 0 34.5 -6.5t46.5 -23.5q27 -17 38.5 -21.5t21.5 -4.5q30 0 37 50l66 -12q-6 -54 -31 -80.5t-62 -26.5zM413 -10q-74 0 -137 25t-109 73t-72 118.5t-26 161.5
q0 92 26 162.5t72 118.5t109 73t137 25t137 -25t109 -73t72 -118.5t26 -162.5q0 -91 -26 -161.5t-72 -118.5t-109 -73t-137 -25zM413 79q48 0 92.5 18t78 54t54 90t20.5 127t-20.5 127.5t-54 90.5t-78 54t-92.5 18t-92.5 -18t-78.5 -54t-54 -90.5t-20 -127.5t20 -127t54 -90
t78.5 -54t92.5 -18z" />
    <glyph glyph-name="Odieresis" unicode="&#xd6;" horiz-adv-x="826" 
d="M326 808q-23 0 -40 17t-17 40t17 39.5t40 16.5t40 -16.5t17 -39.5t-17 -40t-40 -17zM498 808q-24 0 -40.5 17t-16.5 40t16.5 39.5t40.5 16.5q23 0 40 -16.5t17 -39.5t-17 -40t-40 -17zM413 -10q-74 0 -137 25t-109 73t-72 118.5t-26 161.5q0 92 26 162.5t72 118.5t109 73
t137 25t137 -25t109 -73t72 -118.5t26 -162.5q0 -91 -26 -161.5t-72 -118.5t-109 -73t-137 -25zM413 79q48 0 92.5 18t78 54t54 90t20.5 127t-20.5 127.5t-54 90.5t-78 54t-92.5 18t-92.5 -18t-78.5 -54t-54 -90.5t-20 -127.5t20 -127t54 -90t78.5 -54t92.5 -18z" />
    <glyph glyph-name="multiply" unicode="&#xd7;" 
d="M476 559l58 -59l-140 -140l140 -140l-57 -57l-140 140l-139 -139l-59 58l140 140l-141 140l57 57l141 -140z" />
    <glyph glyph-name="Oslash" unicode="&#xd8;" horiz-adv-x="814" 
d="M681 747l63 -60l-65 -74q31 -46 48 -107t17 -138q0 -93 -25.5 -164t-70.5 -118.5t-107 -71.5t-134 -24q-62 0 -116 17.5t-98 52.5l-61 -70l-63 60l65 74q-31 46 -48 107t-17 137q0 94 25.5 165t71 118.5t107.5 71.5t134 24q62 0 116 -17.5t97 -52.5zM162 368
q0 -52 10 -94.5t27 -75.5l361 411q-32 28 -71.5 41.5t-81.5 13.5q-49 0 -93 -17.5t-78 -54t-54 -92.5t-20 -132zM652 368q0 53 -10 95.5t-27 76.5l-362 -412q32 -28 71.5 -41.5t82.5 -13.5q48 0 92.5 17.5t78.5 54t54 92t20 131.5z" />
    <glyph glyph-name="Ugrave" unicode="&#xd9;" horiz-adv-x="747" 
d="M488 863l-31 -73l-235 101l30 73zM373 -10q-136 0 -204.5 83t-68.5 230v434h96v-438q0 -57 14 -98.5t38 -68.5t56.5 -40t70.5 -13t70.5 13t56.5 40t37.5 68.5t13.5 98.5v438h93v-434q0 -147 -68 -230t-205 -83z" />
    <glyph glyph-name="Uacute" unicode="&#xda;" horiz-adv-x="747" 
d="M519 891l-234 -101l-31 73l235 101zM373 -10q-136 0 -204.5 83t-68.5 230v434h96v-438q0 -57 14 -98.5t38 -68.5t56.5 -40t70.5 -13t70.5 13t56.5 40t37.5 68.5t13.5 98.5v438h93v-434q0 -147 -68 -230t-205 -83z" />
    <glyph glyph-name="Ucircumflex" unicode="&#xdb;" horiz-adv-x="747" 
d="M492 790l-115 95l-116 -95l-50 48l150 123h31l150 -123zM553 737h93v-434q0 -147 -68 -230t-205 -83q-136 0 -204.5 83t-68.5 230v434h96v-438q0 -57 14 -98.5t38 -68.5t56.5 -40t70.5 -13t70.5 13t56.5 40t37.5 68.5t13.5 98.5v438z" />
    <glyph glyph-name="Udieresis" unicode="&#xdc;" horiz-adv-x="747" 
d="M288 808q-23 0 -40 17t-17 40t17 39.5t40 16.5t40 -16.5t17 -39.5t-17 -40t-40 -17zM460 808q-24 0 -40.5 17t-16.5 40t16.5 39.5t40.5 16.5q23 0 39.5 -16.5t16.5 -39.5t-16.5 -40t-39.5 -17zM373 -10q-136 0 -204.5 83t-68.5 230v434h96v-438q0 -57 14 -98.5t38 -68.5
t56.5 -40t70.5 -13t70.5 13t56.5 40t37.5 68.5t13.5 98.5v438h93v-434q0 -147 -68 -230t-205 -83z" />
    <glyph glyph-name="Yacute" unicode="&#xdd;" horiz-adv-x="649" 
d="M440 964l29 -73l-234 -101l-31 73zM531 737h100l-259 -472v-265h-95v263l-259 474h103l205 -373z" />
    <glyph glyph-name="Thorn" unicode="&#xde;" horiz-adv-x="686" 
d="M207 639h143q66 0 120 -17.5t92.5 -50.5t59 -81.5t20.5 -111.5t-20.5 -112t-59 -83t-92.5 -51.5t-120 -17.5h-143v-114h-96v737h96v-98zM207 197h136q42 0 78.5 11t63.5 33.5t42.5 56.5t15.5 80q0 45 -15.5 79t-42.5 56.5t-63.5 33.5t-78.5 11h-136v-361z" />
    <glyph glyph-name="germandbls" unicode="&#xdf;" horiz-adv-x="712" 
d="M172 0h-90v445q0 81 21.5 143.5t61 105t96.5 64t127 21.5q53 0 94 -12.5t69 -34t42.5 -50t14.5 -60.5q0 -20 -5 -39t-17.5 -38t-34.5 -38.5t-56 -40.5q-23 -14 -37.5 -24.5t-22.5 -18.5t-10.5 -15.5t-2.5 -16.5q0 -19 16 -32t48 -24l65 -23q68 -25 96 -61.5t28 -91.5
q0 -37 -15 -67t-48 -50t-85 -31t-126 -11h-81v77h81q50 0 83.5 5.5t53.5 16.5t29 26.5t9 34.5q0 27 -19 48t-69 39l-60 21q-56 20 -81 47.5t-25 65.5q0 33 20.5 63.5t80.5 67.5q26 16 42.5 29t26 25t13 23.5t3.5 24.5q0 33 -29 59t-92 26q-101 0 -158 -66.5t-57 -190.5v-442
z" />
    <glyph glyph-name="agrave" unicode="&#xe0;" horiz-adv-x="616" 
d="M189 764l236 -101l-31 -73l-235 101zM311 547q111 0 169 -59.5t58 -166.5v-321h-90v89q-29 -45 -81.5 -72t-123.5 -27q-83 0 -131 40.5t-48 107.5q0 32 10.5 59.5t34.5 50t61.5 38.5t91.5 24l186 29q-1 59 -36 91.5t-100 32.5q-63 0 -94.5 -25.5t-38.5 -67.5h-93
q3 36 18.5 68t44 56.5t69 38.5t93.5 14zM257 75q40 0 74.5 12.5t60.5 35t41 54t15 70.5v15l-165 -26q-37 -6 -61.5 -15t-38.5 -20.5t-20 -26t-6 -30.5q0 -30 26 -49.5t74 -19.5z" />
    <glyph glyph-name="aacute" unicode="&#xe1;" horiz-adv-x="616" 
d="M426 764l30 -73l-234 -101l-31 73zM311 547q111 0 169 -59.5t58 -166.5v-321h-90v89q-29 -45 -81.5 -72t-123.5 -27q-83 0 -131 40.5t-48 107.5q0 32 10.5 59.5t34.5 50t61.5 38.5t91.5 24l186 29q-1 59 -36 91.5t-100 32.5q-63 0 -94.5 -25.5t-38.5 -67.5h-93
q3 36 18.5 68t44 56.5t69 38.5t93.5 14zM257 75q40 0 74.5 12.5t60.5 35t41 54t15 70.5v15l-165 -26q-37 -6 -61.5 -15t-38.5 -20.5t-20 -26t-6 -30.5q0 -30 26 -49.5t74 -19.5z" />
    <glyph glyph-name="acircumflex" unicode="&#xe2;" horiz-adv-x="616" 
d="M429 590l-115 95l-116 -95l-50 48l150 123h31l150 -123zM311 547q111 0 169 -59.5t58 -166.5v-321h-90v89q-29 -45 -81.5 -72t-123.5 -27q-83 0 -131 40.5t-48 107.5q0 32 10.5 59.5t34.5 50t61.5 38.5t91.5 24l186 29q-1 59 -36 91.5t-100 32.5q-63 0 -94.5 -25.5
t-38.5 -67.5h-93q3 36 18.5 68t44 56.5t69 38.5t93.5 14zM257 75q40 0 74.5 12.5t60.5 35t41 54t15 70.5v15l-165 -26q-37 -6 -61.5 -15t-38.5 -20.5t-20 -26t-6 -30.5q0 -30 26 -49.5t74 -19.5z" />
    <glyph glyph-name="atilde" unicode="&#xe3;" horiz-adv-x="616" 
d="M249 665q-36 0 -42 -50l-66 12q7 54 32 80.5t66 26.5q17 0 34.5 -6.5t45.5 -23.5q27 -17 39 -21.5t22 -4.5q30 0 37 50l66 -12q-7 -54 -31.5 -80.5t-62.5 -26.5q-19 0 -37.5 6t-46.5 24q-25 17 -35 21.5t-21 4.5zM311 547q111 0 169 -59.5t58 -166.5v-321h-90v89
q-29 -45 -81.5 -72t-123.5 -27q-83 0 -131 40.5t-48 107.5q0 32 10.5 59.5t34.5 50t61.5 38.5t91.5 24l186 29q-1 59 -36 91.5t-100 32.5q-63 0 -94.5 -25.5t-38.5 -67.5h-93q3 36 18.5 68t44 56.5t69 38.5t93.5 14zM257 75q40 0 74.5 12.5t60.5 35t41 54t15 70.5v15
l-165 -26q-37 -6 -61.5 -15t-38.5 -20.5t-20 -26t-6 -30.5q0 -30 26 -49.5t74 -19.5z" />
    <glyph glyph-name="adieresis" unicode="&#xe4;" horiz-adv-x="616" 
d="M225 608q-24 0 -40.5 17t-16.5 40t16.5 39.5t40.5 16.5q23 0 40 -16.5t17 -39.5t-17 -40t-40 -17zM397 608q-24 0 -40.5 17t-16.5 40t16.5 39.5t40.5 16.5q23 0 39.5 -16.5t16.5 -39.5t-16.5 -40t-39.5 -17zM311 547q111 0 169 -59.5t58 -166.5v-321h-90v89
q-29 -45 -81.5 -72t-123.5 -27q-83 0 -131 40.5t-48 107.5q0 32 10.5 59.5t34.5 50t61.5 38.5t91.5 24l186 29q-1 59 -36 91.5t-100 32.5q-63 0 -94.5 -25.5t-38.5 -67.5h-93q3 36 18.5 68t44 56.5t69 38.5t93.5 14zM257 75q40 0 74.5 12.5t60.5 35t41 54t15 70.5v15
l-165 -26q-37 -6 -61.5 -15t-38.5 -20.5t-20 -26t-6 -30.5q0 -30 26 -49.5t74 -19.5z" />
    <glyph glyph-name="aring" unicode="&#xe5;" horiz-adv-x="616" 
d="M311 589q-23 0 -43 8.5t-34.5 23.5t-23 35t-8.5 43t8.5 42.5t23 34t34.5 23t43 8.5q24 0 44 -8.5t34.5 -23t22.5 -34t8 -42.5t-8 -43t-22.5 -35t-34.5 -23.5t-44 -8.5zM311 749q-21 0 -35.5 -14.5t-14.5 -35.5t14.5 -36t35.5 -15t35.5 15t14.5 36t-14.5 35.5t-35.5 14.5z
M311 547q111 0 169 -59.5t58 -166.5v-321h-90v89q-29 -45 -81.5 -72t-123.5 -27q-83 0 -131 40.5t-48 107.5q0 32 10.5 59.5t34.5 50t61.5 38.5t91.5 24l186 29q-1 59 -36 91.5t-100 32.5q-63 0 -94.5 -25.5t-38.5 -67.5h-93q3 36 18.5 68t44 56.5t69 38.5t93.5 14zM257 75
q40 0 74.5 12.5t60.5 35t41 54t15 70.5v15l-165 -26q-37 -6 -61.5 -15t-38.5 -20.5t-20 -26t-6 -30.5q0 -30 26 -49.5t74 -19.5z" />
    <glyph glyph-name="ae" unicode="&#xe6;" horiz-adv-x="1022" 
d="M971 237h-429q6 -74 52 -118.5t120 -44.5q52 0 90 20t55 56h97q-26 -72 -88 -116t-152 -44q-79 0 -138 33t-89 99q-29 -58 -91 -95t-148 -37q-90 0 -138 40.5t-48 110.5q0 63 45.5 104.5t145.5 52.5l200 21v14q0 60 -39 95t-105 35q-64 0 -94.5 -27t-38.5 -66h-92
q3 37 18.5 69t43.5 56t69 38t93 14q74 0 124 -26.5t76 -76.5q33 49 85 76t118 27q57 0 104.5 -19t81.5 -54.5t53 -85.5t19 -113v-38zM711 463q-34 0 -62.5 -11t-50.5 -31t-36 -47t-19 -59h332q-8 69 -53.5 108.5t-110.5 39.5zM256 75q38 0 72 11t61 32.5t44 52t21 69.5
l-166 -18q-75 -8 -103 -27.5t-28 -51.5q0 -29 23 -48.5t76 -19.5z" />
    <glyph glyph-name="ccedilla" unicode="&#xe7;" horiz-adv-x="618" 
d="M317 68q30 0 56 9.5t46 26t32.5 38.5t15.5 47h96q-3 -38 -20.5 -72.5t-46.5 -61.5t-68 -44.5t-86 -21.5l-14 -42q57 0 87.5 -24.5t30.5 -72.5t-38 -74t-98 -26h-81v52h68q38 0 55.5 13t17.5 36t-15.5 35.5t-52.5 12.5h-56l33 91q-52 6 -94 28t-72 58t-46 84.5t-16 107.5
q0 65 19 117t54 88t84 55.5t109 19.5q52 0 95.5 -16t76 -43.5t52 -63.5t22.5 -77h-96q-3 25 -15.5 47t-32.5 38.5t-46 26t-56 9.5q-37 0 -68.5 -14t-54.5 -40.5t-35.5 -63.5t-12.5 -83t12.5 -83t35.5 -63t54.5 -40t68.5 -14z" />
    <glyph glyph-name="egrave" unicode="&#xe8;" horiz-adv-x="635" 
d="M195 764l236 -101l-31 -73l-234 101zM585 241h-437q2 -38 15.5 -69t36 -52.5t53.5 -33.5t68 -12q55 0 93.5 20t57.5 56h98q-26 -72 -91 -116t-158 -44q-60 0 -110 20t-85.5 56.5t-55 88t-19.5 115.5q0 63 19.5 114t55 87.5t84.5 56t108 19.5t108.5 -19t84.5 -54.5
t54.5 -85.5t19.5 -113v-34zM318 463q-33 0 -62 -11.5t-51.5 -31.5t-36.5 -47t-19 -58h340q-8 69 -55.5 108.5t-115.5 39.5z" />
    <glyph glyph-name="eacute" unicode="&#xe9;" horiz-adv-x="635" 
d="M433 764l29 -73l-234 -101l-31 73zM585 241h-437q2 -38 15.5 -69t36 -52.5t53.5 -33.5t68 -12q55 0 93.5 20t57.5 56h98q-26 -72 -91 -116t-158 -44q-60 0 -110 20t-85.5 56.5t-55 88t-19.5 115.5q0 63 19.5 114t55 87.5t84.5 56t108 19.5t108.5 -19t84.5 -54.5
t54.5 -85.5t19.5 -113v-34zM318 463q-33 0 -62 -11.5t-51.5 -31.5t-36.5 -47t-19 -58h340q-8 69 -55.5 108.5t-115.5 39.5z" />
    <glyph glyph-name="ecircumflex" unicode="&#xea;" horiz-adv-x="635" 
d="M435 590l-115 95l-116 -95l-50 48l150 123h31l150 -123zM585 241h-437q2 -38 15.5 -69t36 -52.5t53.5 -33.5t68 -12q55 0 93.5 20t57.5 56h98q-26 -72 -91 -116t-158 -44q-60 0 -110 20t-85.5 56.5t-55 88t-19.5 115.5q0 63 19.5 114t55 87.5t84.5 56t108 19.5t108.5 -19
t84.5 -54.5t54.5 -85.5t19.5 -113v-34zM318 463q-33 0 -62 -11.5t-51.5 -31.5t-36.5 -47t-19 -58h340q-8 69 -55.5 108.5t-115.5 39.5z" />
    <glyph glyph-name="edieresis" unicode="&#xeb;" horiz-adv-x="635" 
d="M231 608q-23 0 -40 17t-17 40t17 39.5t40 16.5t40 -16.5t17 -39.5t-17 -40t-40 -17zM403 608q-24 0 -40.5 17t-16.5 40t16.5 39.5t40.5 16.5q23 0 40 -16.5t17 -39.5t-17 -40t-40 -17zM585 241h-437q2 -38 15.5 -69t36 -52.5t53.5 -33.5t68 -12q55 0 93.5 20t57.5 56h98
q-26 -72 -91 -116t-158 -44q-60 0 -110 20t-85.5 56.5t-55 88t-19.5 115.5q0 63 19.5 114t55 87.5t84.5 56t108 19.5t108.5 -19t84.5 -54.5t54.5 -85.5t19.5 -113v-34zM318 463q-33 0 -62 -11.5t-51.5 -31.5t-36.5 -47t-19 -58h340q-8 69 -55.5 108.5t-115.5 39.5z" />
    <glyph glyph-name="igrave" unicode="&#xec;" horiz-adv-x="273" 
d="M249 663l-31 -73l-234 101l30 73zM181 0h-90v537h90v-537z" />
    <glyph glyph-name="iacute" unicode="&#xed;" horiz-adv-x="273" 
d="M281 691l-235 -101l-31 73l236 101zM181 0h-90v537h90v-537z" />
    <glyph glyph-name="icircumflex" unicode="&#xee;" horiz-adv-x="268" 
d="M115 761h30l117 -124l-49 -47l-83 88l-83 -88l-50 47zM175 0h-90v537h90v-537z" />
    <glyph glyph-name="idieresis" unicode="&#xef;" horiz-adv-x="273" 
d="M50 608q-24 0 -41 17t-17 40t17 39.5t41 16.5q23 0 39.5 -16.5t16.5 -39.5t-16.5 -40t-39.5 -17zM221 608q-24 0 -40.5 17t-16.5 40t16.5 39.5t40.5 16.5q23 0 40 -16.5t17 -39.5t-17 -40t-40 -17zM181 0h-90v537h90v-537z" />
    <glyph glyph-name="eth" unicode="&#xf0;" horiz-adv-x="668" 
d="M562 741l-124 -64q86 -67 130 -160t44 -214q0 -73 -18 -132t-54 -100t-89 -63t-122 -22q-66 0 -117.5 20t-87 57t-54.5 88t-19 113q0 61 19.5 110.5t54.5 85t83.5 55t107.5 19.5q116 0 183 -72q-23 54 -58.5 96.5t-86.5 76.5l-151 -78l-24 48l120 61q-27 14 -57.5 25.5
t-64.5 22.5l40 74q49 -15 91.5 -34t79.5 -42l149 76zM332 73q41 0 75.5 13t59 37.5t38 60t13.5 80.5t-14.5 80.5t-40 60t-59 37t-72.5 12.5q-42 0 -76.5 -13.5t-59 -38.5t-38 -60t-13.5 -78q0 -90 51.5 -140.5t135.5 -50.5z" />
    <glyph glyph-name="ntilde" unicode="&#xf1;" horiz-adv-x="634" 
d="M262 665q-36 0 -42 -50l-66 12q7 54 31.5 80.5t65.5 26.5q18 0 35 -6.5t46 -23.5q27 -17 38.5 -21.5t21.5 -4.5q31 0 38 50l66 -12q-7 -54 -31.5 -80.5t-62.5 -26.5q-19 0 -38 6t-46 24q-25 17 -35.5 21.5t-20.5 4.5zM352 548q45 0 82.5 -16t64.5 -47.5t42.5 -78
t15.5 -106.5v-300h-90v284q0 87 -38 132.5t-101 45.5q-31 0 -58 -12.5t-47 -36t-31 -56t-11 -72.5v-285h-90v537h90v-86q21 42 64.5 69.5t106.5 27.5z" />
    <glyph glyph-name="ograve" unicode="&#xf2;" horiz-adv-x="643" 
d="M435 663l-31 -73l-234 101l30 73zM322 -12q-63 0 -113 21t-85.5 58.5t-54 89t-18.5 111.5t18.5 111.5t54 89t85.5 58.5t113 21t113 -21t85 -58.5t53.5 -89t18.5 -111.5t-18.5 -111.5t-53.5 -89t-85 -58.5t-113 -21zM322 74q39 0 71.5 13.5t55.5 39t35.5 61.5t12.5 80
t-12.5 80t-35.5 61.5t-55.5 39t-71.5 13.5q-80 0 -128 -52.5t-48 -141.5t48 -141.5t128 -52.5z" />
    <glyph glyph-name="oacute" unicode="&#xf3;" horiz-adv-x="643" 
d="M467 691l-234 -101l-31 73l235 101zM322 -12q-63 0 -113 21t-85.5 58.5t-54 89t-18.5 111.5t18.5 111.5t54 89t85.5 58.5t113 21t113 -21t85 -58.5t53.5 -89t18.5 -111.5t-18.5 -111.5t-53.5 -89t-85 -58.5t-113 -21zM322 74q39 0 71.5 13.5t55.5 39t35.5 61.5t12.5 80
t-12.5 80t-35.5 61.5t-55.5 39t-71.5 13.5q-80 0 -128 -52.5t-48 -141.5t48 -141.5t128 -52.5z" />
    <glyph glyph-name="ocircumflex" unicode="&#xf4;" horiz-adv-x="643" 
d="M440 590l-116 95l-115 -95l-50 48l150 123h31l150 -123zM322 548q63 0 113 -21t85 -58.5t53.5 -89t18.5 -111.5t-18.5 -111.5t-53.5 -89t-85 -58.5t-113 -21t-113 21t-85.5 58.5t-54 89t-18.5 111.5t18.5 111.5t54 89t85.5 58.5t113 21zM322 74q39 0 71.5 13.5t55.5 39
t35.5 61.5t12.5 80t-12.5 80t-35.5 61.5t-55.5 39t-71.5 13.5q-80 0 -128 -52.5t-48 -141.5t48 -141.5t128 -52.5z" />
    <glyph glyph-name="otilde" unicode="&#xf5;" horiz-adv-x="643" 
d="M400 609q-19 0 -38 6t-46 24q-25 17 -35.5 21.5t-20.5 4.5q-36 0 -42 -50l-66 12q7 54 31.5 80.5t65.5 26.5q18 0 35 -6.5t46 -23.5q27 -17 38.5 -21.5t21.5 -4.5q31 0 38 50l66 -12q-7 -54 -31.5 -80.5t-62.5 -26.5zM322 -12q-63 0 -113 21t-85.5 58.5t-54 89
t-18.5 111.5t18.5 111.5t54 89t85.5 58.5t113 21t113 -21t85 -58.5t53.5 -89t18.5 -111.5t-18.5 -111.5t-53.5 -89t-85 -58.5t-113 -21zM322 74q39 0 71.5 13.5t55.5 39t35.5 61.5t12.5 80t-12.5 80t-35.5 61.5t-55.5 39t-71.5 13.5q-80 0 -128 -52.5t-48 -141.5t48 -141.5
t128 -52.5z" />
    <glyph glyph-name="odieresis" unicode="&#xf6;" horiz-adv-x="643" 
d="M236 608q-24 0 -41 17t-17 40t17 39.5t41 16.5q23 0 40 -16.5t17 -39.5t-17 -40t-40 -17zM407 608q-23 0 -39.5 17t-16.5 40t16.5 39.5t39.5 16.5t40 -16.5t17 -39.5t-17 -40t-40 -17zM322 -12q-63 0 -113 21t-85.5 58.5t-54 89t-18.5 111.5t18.5 111.5t54 89t85.5 58.5
t113 21t113 -21t85 -58.5t53.5 -89t18.5 -111.5t-18.5 -111.5t-53.5 -89t-85 -58.5t-113 -21zM322 74q39 0 71.5 13.5t55.5 39t35.5 61.5t12.5 80t-12.5 80t-35.5 61.5t-55.5 39t-71.5 13.5q-80 0 -128 -52.5t-48 -141.5t48 -141.5t128 -52.5z" />
    <glyph glyph-name="divide" unicode="&#xf7;" 
d="M336 492q-25 0 -42.5 17.5t-17.5 43.5t17.5 42.5t42.5 16.5t42.5 -16.5t17.5 -42.5t-17.5 -43.5t-42.5 -17.5zM568 322h-463v78h463v-78zM336 109q-25 0 -42.5 17.5t-17.5 43.5t17.5 43t42.5 17t42.5 -17t17.5 -43t-17.5 -43.5t-42.5 -17.5z" />
    <glyph glyph-name="oslash" unicode="&#xf8;" horiz-adv-x="643" 
d="M582 487l-42 -44q52 -72 52 -175q0 -60 -18.5 -111.5t-53.5 -89t-85 -58.5t-113 -21q-51 0 -94 14t-76 40l-41 -43l-52 50l43 45q-25 35 -38 79t-13 95q0 60 18.5 111.5t54 89t85.5 58.5t113 21q51 0 93.5 -14t75.5 -39l40 41zM146 268q0 -61 23 -105l258 266
q-44 33 -105 33q-80 0 -128 -52.5t-48 -141.5zM322 74q39 0 71.5 13.5t55.5 39t35.5 61.5t12.5 80q0 63 -24 106l-257 -267q44 -33 106 -33z" />
    <glyph glyph-name="ugrave" unicode="&#xf9;" horiz-adv-x="616" 
d="M179 764l235 -101l-31 -73l-234 101zM435 537h90v-537h-90v81q-21 -41 -62 -67t-99 -26q-43 0 -79 16.5t-62 48t-40.5 78t-14.5 106.5v300h90v-284q0 -87 35.5 -132.5t95.5 -45.5q54 0 92 41.5t44 111.5v309z" />
    <glyph glyph-name="uacute" unicode="&#xfa;" horiz-adv-x="616" 
d="M416 764l30 -73l-234 -101l-31 73zM435 537h90v-537h-90v81q-21 -41 -62 -67t-99 -26q-43 0 -79 16.5t-62 48t-40.5 78t-14.5 106.5v300h90v-284q0 -87 35.5 -132.5t95.5 -45.5q54 0 92 41.5t44 111.5v309z" />
    <glyph glyph-name="ucircumflex" unicode="&#xfb;" horiz-adv-x="616" 
d="M419 590l-116 95l-115 -95l-50 48l150 123h31l150 -123zM435 537h90v-537h-90v81q-21 -41 -62 -67t-99 -26q-43 0 -79 16.5t-62 48t-40.5 78t-14.5 106.5v300h90v-284q0 -87 35.5 -132.5t95.5 -45.5q54 0 92 41.5t44 111.5v309z" />
    <glyph glyph-name="udieresis" unicode="&#xfc;" horiz-adv-x="616" 
d="M215 608q-24 0 -40.5 17t-16.5 40t16.5 39.5t40.5 16.5q23 0 40 -16.5t17 -39.5t-17 -40t-40 -17zM386 608q-23 0 -39.5 17t-16.5 40t16.5 39.5t39.5 16.5t40 -16.5t17 -39.5t-17 -40t-40 -17zM435 537h90v-537h-90v81q-21 -41 -62 -67t-99 -26q-43 0 -79 16.5t-62 48
t-40.5 78t-14.5 106.5v300h90v-284q0 -87 35.5 -132.5t95.5 -45.5q54 0 92 41.5t44 111.5v309z" />
    <glyph glyph-name="yacute" unicode="&#xfd;" horiz-adv-x="551" 
d="M391 764l29 -73l-234 -101l-31 73zM273 134l170 403h89l-301 -715h-89l84 200l-207 515h91z" />
    <glyph glyph-name="thorn" unicode="&#xfe;" horiz-adv-x="682" 
d="M380 548q57 0 103.5 -19t79 -55t50.5 -88t18 -118q0 -65 -18 -117t-50.5 -88t-79 -55.5t-103.5 -19.5q-70 0 -120 24.5t-79 69.5v-272h-90v959h90v-315q29 45 79 69.5t120 24.5zM359 67q41 0 73.5 14t55.5 40t35.5 63t12.5 83q0 45 -12.5 82t-35.5 63t-55.5 40t-73.5 14
q-83 0 -130.5 -54t-47.5 -145q0 -92 47.5 -146t130.5 -54z" />
    <glyph glyph-name="ydieresis" unicode="&#xff;" horiz-adv-x="551" 
d="M189 608q-23 0 -40 17t-17 40t17 39.5t40 16.5t40 -16.5t17 -39.5t-17 -40t-40 -17zM361 608q-24 0 -40.5 17t-16.5 40t16.5 39.5t40.5 16.5q23 0 40 -16.5t17 -39.5t-17 -40t-40 -17zM273 134l170 403h89l-301 -715h-89l84 200l-207 515h91z" />
    <glyph glyph-name="Amacron" unicode="&#x100;" horiz-adv-x="721" 
d="M208 898h307v-67h-307v67zM700 0h-99l-63 164h-358l-62 -164h-97l287 737h106zM359 635l-145 -381h290z" />
    <glyph glyph-name="amacron" unicode="&#x101;" horiz-adv-x="616" 
d="M158 698h307v-67h-307v67zM311 547q111 0 169 -59.5t58 -166.5v-321h-90v89q-29 -45 -81.5 -72t-123.5 -27q-83 0 -131 40.5t-48 107.5q0 32 10.5 59.5t34.5 50t61.5 38.5t91.5 24l186 29q-1 59 -36 91.5t-100 32.5q-63 0 -94.5 -25.5t-38.5 -67.5h-93q3 36 18.5 68
t44 56.5t69 38.5t93.5 14zM257 75q40 0 74.5 12.5t60.5 35t41 54t15 70.5v15l-165 -26q-37 -6 -61.5 -15t-38.5 -20.5t-20 -26t-6 -30.5q0 -30 26 -49.5t74 -19.5z" />
    <glyph glyph-name="Abreve" unicode="&#x102;" horiz-adv-x="721" 
d="M361 805q-65 0 -98 37t-43 99l60 15q10 -43 30 -62t51 -19q32 0 52 19t29 62l61 -15q-10 -62 -43.5 -99t-98.5 -37zM700 0h-99l-63 164h-358l-62 -164h-97l287 737h106zM359 635l-145 -381h290z" />
    <glyph glyph-name="abreve" unicode="&#x103;" horiz-adv-x="616" 
d="M311 605q-64 0 -97.5 37t-43.5 99l60 15q10 -43 30 -62t51 -19q32 0 52 19t30 62l60 -15q-10 -62 -43.5 -99t-98.5 -37zM311 547q111 0 169 -59.5t58 -166.5v-321h-90v89q-29 -45 -81.5 -72t-123.5 -27q-83 0 -131 40.5t-48 107.5q0 32 10.5 59.5t34.5 50t61.5 38.5
t91.5 24l186 29q-1 59 -36 91.5t-100 32.5q-63 0 -94.5 -25.5t-38.5 -67.5h-93q3 36 18.5 68t44 56.5t69 38.5t93.5 14zM257 75q40 0 74.5 12.5t60.5 35t41 54t15 70.5v15l-165 -26q-37 -6 -61.5 -15t-38.5 -20.5t-20 -26t-6 -30.5q0 -30 26 -49.5t74 -19.5z" />
    <glyph glyph-name="Aogonek" unicode="&#x104;" horiz-adv-x="721" 
d="M589 -87q0 -21 18.5 -33t56.5 -12h36v-69h-55q-66 0 -97.5 25t-31.5 69q0 31 18.5 57.5t66.5 50.5l-63 163h-358l-62 -164h-97l287 737h106l286 -737q-33 -13 -54.5 -24.5t-34 -22t-17.5 -20.5t-5 -20zM359 635l-145 -381h290z" />
    <glyph glyph-name="aogonek" unicode="&#x105;" horiz-adv-x="616" 
d="M538 0q-33 -13 -54.5 -24.5t-34 -22t-17.5 -20.5t-5 -20q0 -21 18.5 -33t56.5 -12h36v-69h-55q-66 0 -97.5 25t-31.5 69q0 32 20.5 59.5t73.5 52.5v84q-29 -45 -81.5 -72t-123.5 -27q-83 0 -131 40.5t-48 107.5q0 32 10.5 59.5t34.5 50t61.5 38.5t91.5 24l186 29
q-1 59 -36 91.5t-100 32.5q-63 0 -94.5 -25.5t-38.5 -67.5h-93q3 36 18.5 68t44 56.5t69 38.5t93.5 14q111 0 169 -59.5t58 -166.5v-321zM257 75q40 0 74.5 12.5t60.5 35t41 54t15 70.5v15l-165 -26q-37 -6 -61.5 -15t-38.5 -20.5t-20 -26t-6 -30.5q0 -30 26 -49.5t74 -19.5
z" />
    <glyph glyph-name="Cacute" unicode="&#x106;" horiz-adv-x="774" 
d="M549 891l-234 -101l-31 73l235 101zM403 -10q-73 0 -134 25t-105.5 73t-69.5 118.5t-25 161.5t25 161.5t69 119t105.5 73.5t133.5 25q73 0 130.5 -22.5t97.5 -59t62 -83.5t25 -96h-102q-3 31 -18.5 61.5t-42.5 54.5t-65 39t-87 15q-48 0 -91 -18.5t-74.5 -54.5t-50 -90
t-18.5 -125q0 -70 18.5 -124t50 -90.5t74.5 -55t91 -18.5q49 0 87 15t65 39t42.5 54.5t18.5 61.5h102q-3 -48 -25 -95t-62 -83.5t-97 -59t-130 -22.5z" />
    <glyph glyph-name="cacute" unicode="&#x107;" horiz-adv-x="618" 
d="M462 691l-234 -101l-31 73l235 101zM317 -12q-60 0 -109 19.5t-84 56t-54 88.5t-19 116q0 65 19 117t54 88t84 55.5t109 19.5q52 0 95.5 -16t76 -43.5t52 -63.5t22.5 -77h-96q-3 25 -15.5 47t-32.5 38.5t-46 26t-56 9.5q-37 0 -68.5 -14t-54.5 -40.5t-35.5 -63.5
t-12.5 -83t12.5 -83t35.5 -63t54.5 -40t68.5 -14q30 0 56 9.5t46 26t32.5 38.5t15.5 47h96q-3 -40 -22.5 -76.5t-52 -64.5t-76 -44t-95.5 -16z" />
    <glyph glyph-name="Ccircumflex" unicode="&#x108;" horiz-adv-x="774" 
d="M522 790l-115 95l-116 -95l-50 48l150 123h31l150 -123zM402 80q49 0 87 15t65 39t42.5 54.5t18.5 61.5h102q-3 -48 -25 -95t-62 -83.5t-97 -59t-130 -22.5t-134 25t-105.5 73t-69.5 118.5t-25 161.5t25 161.5t69 119t105.5 73.5t133.5 25q73 0 130.5 -22.5t97.5 -59
t62 -83.5t25 -96h-102q-3 31 -18.5 61.5t-42.5 54.5t-65 39t-87 15q-48 0 -91 -18.5t-74.5 -54.5t-50 -90t-18.5 -125q0 -70 18.5 -124t50 -90.5t74.5 -55t91 -18.5z" />
    <glyph glyph-name="ccircumflex" unicode="&#x109;" horiz-adv-x="618" 
d="M435 590l-116 95l-115 -95l-50 48l150 123h31l150 -123zM317 68q30 0 56 9.5t46 26t32.5 38.5t15.5 47h96q-3 -40 -22.5 -76.5t-52 -64.5t-76 -44t-95.5 -16q-60 0 -109 19.5t-84 56t-54 88.5t-19 116q0 65 19 117t54 88t84 55.5t109 19.5q52 0 95.5 -16t76 -43.5
t52 -63.5t22.5 -77h-96q-3 25 -15.5 47t-32.5 38.5t-46 26t-56 9.5q-37 0 -68.5 -14t-54.5 -40.5t-35.5 -63.5t-12.5 -83t12.5 -83t35.5 -63t54.5 -40t68.5 -14z" />
    <glyph glyph-name="Cdotaccent" unicode="&#x10a;" horiz-adv-x="774" 
d="M404 809q-26 0 -43.5 18t-17.5 43q0 26 17.5 43t43.5 17t44 -17t18 -43q0 -25 -18 -43t-44 -18zM403 -10q-73 0 -134 25t-105.5 73t-69.5 118.5t-25 161.5t25 161.5t69 119t105.5 73.5t133.5 25q73 0 130.5 -22.5t97.5 -59t62 -83.5t25 -96h-102q-3 31 -18.5 61.5
t-42.5 54.5t-65 39t-87 15q-48 0 -91 -18.5t-74.5 -54.5t-50 -90t-18.5 -125q0 -70 18.5 -124t50 -90.5t74.5 -55t91 -18.5q49 0 87 15t65 39t42.5 54.5t18.5 61.5h102q-3 -48 -25 -95t-62 -83.5t-97 -59t-130 -22.5z" />
    <glyph glyph-name="cdotaccent" unicode="&#x10b;" horiz-adv-x="618" 
d="M317 609q-26 0 -43.5 18t-17.5 43q0 26 17.5 43t43.5 17t43.5 -17t17.5 -43q0 -25 -17.5 -43t-43.5 -18zM317 -12q-60 0 -109 19.5t-84 56t-54 88.5t-19 116q0 65 19 117t54 88t84 55.5t109 19.5q52 0 95.5 -16t76 -43.5t52 -63.5t22.5 -77h-96q-3 25 -15.5 47
t-32.5 38.5t-46 26t-56 9.5q-37 0 -68.5 -14t-54.5 -40.5t-35.5 -63.5t-12.5 -83t12.5 -83t35.5 -63t54.5 -40t68.5 -14q30 0 56 9.5t46 26t32.5 38.5t15.5 47h96q-3 -40 -22.5 -76.5t-52 -64.5t-76 -44t-95.5 -16z" />
    <glyph glyph-name="Ccaron" unicode="&#x10c;" horiz-adv-x="774" 
d="M572 913l-150 -123h-31l-150 123l50 48l115 -95l116 95zM402 80q49 0 87 15t65 39t42.5 54.5t18.5 61.5h102q-3 -48 -25 -95t-62 -83.5t-97 -59t-130 -22.5t-134 25t-105.5 73t-69.5 118.5t-25 161.5t25 161.5t69 119t105.5 73.5t133.5 25q73 0 130.5 -22.5t97.5 -59
t62 -83.5t25 -96h-102q-3 31 -18.5 61.5t-42.5 54.5t-65 39t-87 15q-48 0 -91 -18.5t-74.5 -54.5t-50 -90t-18.5 -125q0 -70 18.5 -124t50 -90.5t74.5 -55t91 -18.5z" />
    <glyph glyph-name="ccaron" unicode="&#x10d;" horiz-adv-x="618" 
d="M484 713l-150 -123h-30l-150 123l49 48l116 -95l116 95zM317 68q30 0 56 9.5t46 26t32.5 38.5t15.5 47h96q-3 -40 -22.5 -76.5t-52 -64.5t-76 -44t-95.5 -16q-60 0 -109 19.5t-84 56t-54 88.5t-19 116q0 65 19 117t54 88t84 55.5t109 19.5q52 0 95.5 -16t76 -43.5
t52 -63.5t22.5 -77h-96q-3 25 -15.5 47t-32.5 38.5t-46 26t-56 9.5q-37 0 -68.5 -14t-54.5 -40.5t-35.5 -63.5t-12.5 -83t12.5 -83t35.5 -63t54.5 -40t68.5 -14z" />
    <glyph glyph-name="Dcaron" unicode="&#x10e;" horiz-adv-x="778" 
d="M524 913l-150 -123h-31l-150 123l50 48l116 -95l115 95zM308 737q94 0 168.5 -24.5t126 -71.5t79 -115.5t27.5 -157.5q0 -88 -27.5 -157t-79 -115.5t-126 -71t-168.5 -24.5h-197v737h197zM207 88h96q70 0 126.5 18t96.5 53.5t61.5 87.5t21.5 121t-21.5 122t-61.5 88
t-96.5 53t-126.5 18h-96v-561z" />
    <glyph glyph-name="dcaron" unicode="&#x10f;" 
d="M491 769h90v-769h-90v87q-29 -46 -76.5 -72.5t-115.5 -26.5q-55 0 -100.5 19.5t-78.5 56t-51 88.5t-18 116q0 65 18 116.5t51 88t78.5 56t100.5 19.5q68 0 115.5 -26t76.5 -73v320zM662 572v176h71l-12 -176h-59zM320 71q79 0 125 54t46 145q0 92 -46 145.5t-125 53.5
q-39 0 -71 -14.5t-55 -40.5t-35.5 -63t-12.5 -81t12.5 -80.5t35.5 -63t55 -41t71 -14.5z" />
    <glyph glyph-name="Dcroat" unicode="&#x110;" horiz-adv-x="778" 
d="M308 737q94 0 168.5 -24.5t126 -71.5t79 -115.5t27.5 -157.5q0 -88 -27.5 -157t-79 -115.5t-126 -71t-168.5 -24.5h-197v332h-93v80h93v325h197zM207 88h96q70 0 126.5 18t96.5 53.5t61.5 87.5t21.5 121t-21.5 122t-61.5 88t-96.5 53t-126.5 18h-96v-237h232v-80h-232
v-244z" />
    <glyph glyph-name="dcroat" unicode="&#x111;" 
d="M581 670h83v-65h-83v-605h-90v87q-29 -46 -76.5 -72.5t-115.5 -26.5q-55 0 -100.5 19.5t-78.5 56t-51 88.5t-18 116q0 65 18 116.5t51 88t78.5 56t100.5 19.5q68 0 115.5 -26t76.5 -73v156h-149v65h149v99h90v-99zM320 71q79 0 125 54t46 145q0 92 -46 145.5t-125 53.5
q-39 0 -71 -14.5t-55 -40.5t-35.5 -63t-12.5 -81t12.5 -80.5t35.5 -63t55 -41t71 -14.5z" />
    <glyph glyph-name="Emacron" unicode="&#x112;" horiz-adv-x="670" 
d="M205 898h308v-67h-308v67zM207 368v-278h403v-90h-499v737h497v-90h-401v-189h286v-90h-286z" />
    <glyph glyph-name="emacron" unicode="&#x113;" horiz-adv-x="635" 
d="M164 698h308v-67h-308v67zM585 241h-437q2 -38 15.5 -69t36 -52.5t53.5 -33.5t68 -12q55 0 93.5 20t57.5 56h98q-26 -72 -91 -116t-158 -44q-60 0 -110 20t-85.5 56.5t-55 88t-19.5 115.5q0 63 19.5 114t55 87.5t84.5 56t108 19.5t108.5 -19t84.5 -54.5t54.5 -85.5
t19.5 -113v-34zM318 463q-33 0 -62 -11.5t-51.5 -31.5t-36.5 -47t-19 -58h340q-8 69 -55.5 108.5t-115.5 39.5z" />
    <glyph glyph-name="Edotaccent" unicode="&#x116;" horiz-adv-x="670" 
d="M359 809q-26 0 -43.5 18t-17.5 43q0 26 17.5 43t43.5 17q25 0 43 -17t18 -43q0 -25 -18 -43t-43 -18zM207 368v-278h403v-90h-499v737h497v-90h-401v-189h286v-90h-286z" />
    <glyph glyph-name="edotaccent" unicode="&#x117;" horiz-adv-x="635" 
d="M318 609q-26 0 -43.5 18t-17.5 43q0 26 17.5 43t43.5 17q25 0 43 -17t18 -43q0 -25 -18 -43t-43 -18zM585 241h-437q2 -38 15.5 -69t36 -52.5t53.5 -33.5t68 -12q55 0 93.5 20t57.5 56h98q-26 -72 -91 -116t-158 -44q-60 0 -110 20t-85.5 56.5t-55 88t-19.5 115.5
q0 63 19.5 114t55 87.5t84.5 56t108 19.5t108.5 -19t84.5 -54.5t54.5 -85.5t19.5 -113v-34zM318 463q-33 0 -62 -11.5t-51.5 -31.5t-36.5 -47t-19 -58h340q-8 69 -55.5 108.5t-115.5 39.5z" />
    <glyph glyph-name="Eogonek" unicode="&#x118;" horiz-adv-x="670" 
d="M610 90v-90q-33 -13 -54.5 -24.5t-34 -22t-17.5 -20.5t-5 -20q0 -21 18.5 -33t56.5 -12h36v-69h-56q-65 0 -96.5 25t-31.5 69q0 31 17.5 57t64.5 50h-397v737h497v-90h-401v-189h286v-90h-286v-278h403z" />
    <glyph glyph-name="eogonek" unicode="&#x119;" horiz-adv-x="635" 
d="M585 241h-437q2 -38 15.5 -69t36 -52.5t53.5 -33.5t68 -12q55 0 93.5 20t57.5 56h98q-20 -56 -64 -95t-107 -56q-33 -13 -54 -24t-33 -21.5t-17 -20.5t-5 -20q0 -21 18.5 -33t56.5 -12h36v-69h-56q-65 0 -96.5 25t-31.5 69q0 28 15 52t53 47q-53 6 -96 28t-74 58
t-47.5 84.5t-16.5 107.5q0 63 19.5 114t55 87.5t84.5 56t108 19.5t108.5 -19t84.5 -54.5t54.5 -85.5t19.5 -113v-34zM318 463q-33 0 -62 -11.5t-51.5 -31.5t-36.5 -47t-19 -58h340q-8 69 -55.5 108.5t-115.5 39.5z" />
    <glyph glyph-name="Ecaron" unicode="&#x11a;" horiz-adv-x="670" 
d="M526 913l-150 -123h-31l-150 123l50 48l116 -95l115 95zM207 368v-278h403v-90h-499v737h497v-90h-401v-189h286v-90h-286z" />
    <glyph glyph-name="ecaron" unicode="&#x11b;" horiz-adv-x="635" 
d="M485 713l-150 -123h-31l-150 123l50 48l116 -95l115 95zM585 241h-437q2 -38 15.5 -69t36 -52.5t53.5 -33.5t68 -12q55 0 93.5 20t57.5 56h98q-26 -72 -91 -116t-158 -44q-60 0 -110 20t-85.5 56.5t-55 88t-19.5 115.5q0 63 19.5 114t55 87.5t84.5 56t108 19.5t108.5 -19
t84.5 -54.5t54.5 -85.5t19.5 -113v-34zM318 463q-33 0 -62 -11.5t-51.5 -31.5t-36.5 -47t-19 -58h340q-8 69 -55.5 108.5t-115.5 39.5z" />
    <glyph glyph-name="Gcircumflex" unicode="&#x11c;" horiz-adv-x="817" 
d="M532 790l-116 95l-115 -95l-50 48l150 123h31l150 -123zM415 306v83h333v-53q0 -81 -25 -145t-69.5 -108.5t-106 -68.5t-134.5 -24q-74 0 -137 26.5t-109 75.5t-72 119t-26 157q0 88 26 158t71.5 119t108.5 75.5t138 26.5q65 0 117.5 -17t93 -46.5t68 -70.5t42.5 -89
h-106q-23 57 -78.5 95t-135.5 38q-52 0 -96.5 -19t-77.5 -55.5t-52 -90.5t-19 -124t19 -123.5t52.5 -90t78.5 -55.5t97 -19q48 0 90.5 17.5t74.5 48t51 72t22 88.5h-239z" />
    <glyph glyph-name="gcircumflex" unicode="&#x11d;" horiz-adv-x="661" 
d="M442 590l-116 95l-115 -95l-50 48l150 123h31l150 -123zM494 537h90v-582q0 -78 -43.5 -121t-124.5 -43h-263v79h251q90 0 90 86v145q-29 -47 -77.5 -73.5t-117.5 -26.5q-55 0 -100.5 19.5t-78.5 55.5t-51 87.5t-18 114.5q0 62 18 112t51 85t78.5 54t100.5 19
q69 0 117.5 -26t77.5 -73v88zM320 83q81 0 127.5 53.5t46.5 143.5q0 87 -46.5 138t-127.5 51q-39 0 -71 -14t-55 -38.5t-35.5 -59.5t-12.5 -77q0 -43 12.5 -79.5t35.5 -62.5t55 -40.5t71 -14.5z" />
    <glyph glyph-name="Gbreve" unicode="&#x11e;" horiz-adv-x="817" 
d="M414 805q-65 0 -98 37t-43 99l60 15q10 -43 30 -62t51 -19q32 0 52 19t29 62l61 -15q-10 -62 -43.5 -99t-98.5 -37zM415 306v83h333v-53q0 -81 -25 -145t-69.5 -108.5t-106 -68.5t-134.5 -24q-74 0 -137 26.5t-109 75.5t-72 119t-26 157q0 88 26 158t71.5 119t108.5 75.5
t138 26.5q65 0 117.5 -17t93 -46.5t68 -70.5t42.5 -89h-106q-23 57 -78.5 95t-135.5 38q-52 0 -96.5 -19t-77.5 -55.5t-52 -90.5t-19 -124t19 -123.5t52.5 -90t78.5 -55.5t97 -19q48 0 90.5 17.5t74.5 48t51 72t22 88.5h-239z" />
    <glyph glyph-name="gbreve" unicode="&#x11f;" horiz-adv-x="661" 
d="M324 605q-65 0 -98 37t-43 99l60 15q10 -43 30 -62t51 -19q32 0 52 19t29 62l61 -15q-10 -62 -43.5 -99t-98.5 -37zM494 537h90v-582q0 -78 -43.5 -121t-124.5 -43h-263v79h251q90 0 90 86v145q-29 -47 -77.5 -73.5t-117.5 -26.5q-55 0 -100.5 19.5t-78.5 55.5t-51 87.5
t-18 114.5q0 62 18 112t51 85t78.5 54t100.5 19q69 0 117.5 -26t77.5 -73v88zM320 83q81 0 127.5 53.5t46.5 143.5q0 87 -46.5 138t-127.5 51q-39 0 -71 -14t-55 -38.5t-35.5 -59.5t-12.5 -77q0 -43 12.5 -79.5t35.5 -62.5t55 -40.5t71 -14.5z" />
    <glyph glyph-name="Gdotaccent" unicode="&#x120;" horiz-adv-x="817" 
d="M414 809q-26 0 -43.5 18t-17.5 43q0 26 17.5 43t43.5 17t43.5 -17t17.5 -43q0 -25 -17.5 -43t-43.5 -18zM415 306v83h333v-53q0 -81 -25 -145t-69.5 -108.5t-106 -68.5t-134.5 -24q-74 0 -137 26.5t-109 75.5t-72 119t-26 157q0 88 26 158t71.5 119t108.5 75.5t138 26.5
q65 0 117.5 -17t93 -46.5t68 -70.5t42.5 -89h-106q-23 57 -78.5 95t-135.5 38q-52 0 -96.5 -19t-77.5 -55.5t-52 -90.5t-19 -124t19 -123.5t52.5 -90t78.5 -55.5t97 -19q48 0 90.5 17.5t74.5 48t51 72t22 88.5h-239z" />
    <glyph glyph-name="gdotaccent" unicode="&#x121;" horiz-adv-x="661" 
d="M324 609q-26 0 -43.5 18t-17.5 43q0 26 17.5 43t43.5 17t43.5 -17t17.5 -43q0 -25 -17.5 -43t-43.5 -18zM494 537h90v-582q0 -78 -43.5 -121t-124.5 -43h-263v79h251q90 0 90 86v145q-29 -47 -77.5 -73.5t-117.5 -26.5q-55 0 -100.5 19.5t-78.5 55.5t-51 87.5t-18 114.5
q0 62 18 112t51 85t78.5 54t100.5 19q69 0 117.5 -26t77.5 -73v88zM320 83q81 0 127.5 53.5t46.5 143.5q0 87 -46.5 138t-127.5 51q-39 0 -71 -14t-55 -38.5t-35.5 -59.5t-12.5 -77q0 -43 12.5 -79.5t35.5 -62.5t55 -40.5t71 -14.5z" />
    <glyph glyph-name="uni0122" unicode="&#x122;" horiz-adv-x="817" 
d="M415 306v83h333v-53q0 -81 -25 -145t-69.5 -108.5t-106 -68.5t-134.5 -24q-74 0 -137 26.5t-109 75.5t-72 119t-26 157q0 88 26 158t71.5 119t108.5 75.5t138 26.5q65 0 117.5 -17t93 -46.5t68 -70.5t42.5 -89h-106q-23 57 -78.5 95t-135.5 38q-52 0 -96.5 -19
t-77.5 -55.5t-52 -90.5t-19 -124t19 -123.5t52.5 -90t78.5 -55.5t97 -19q48 0 90.5 17.5t74.5 48t51 72t22 88.5h-239zM417 -54q29 0 46.5 -20t17.5 -58q0 -82 -87 -111l-14 -5l-16 42l14 5q25 8 38 16.5t18 29.5q-9 -3 -20 -3q-23 0 -38 14t-15 37t15 38t41 15z" />
    <glyph glyph-name="uni0123" unicode="&#x123;" horiz-adv-x="661" 
d="M330 615q-29 0 -46.5 19.5t-17.5 57.5q0 82 86 112l15 5l15 -42l-14 -5q-24 -9 -37 -17.5t-18 -28.5q9 3 20 3q23 0 37.5 -14.5t14.5 -36.5q0 -23 -15 -38t-40 -15zM494 537h90v-582q0 -78 -43.5 -121t-124.5 -43h-263v79h251q90 0 90 86v145q-29 -47 -77.5 -73.5
t-117.5 -26.5q-55 0 -100.5 19.5t-78.5 55.5t-51 87.5t-18 114.5q0 62 18 112t51 85t78.5 54t100.5 19q69 0 117.5 -26t77.5 -73v88zM320 83q81 0 127.5 53.5t46.5 143.5q0 87 -46.5 138t-127.5 51q-39 0 -71 -14t-55 -38.5t-35.5 -59.5t-12.5 -77q0 -43 12.5 -79.5
t35.5 -62.5t55 -40.5t71 -14.5z" />
    <glyph glyph-name="Hcircumflex" unicode="&#x124;" horiz-adv-x="785" 
d="M510 790l-115 95l-116 -95l-50 48l150 123h31l150 -123zM578 467v270h96v-737h-96v378h-371v-378h-96v737h96v-270h371z" />
    <glyph glyph-name="hcircumflex" unicode="&#x125;" horiz-adv-x="646" 
d="M311 871l-50 -49l-115 95l-116 -95l-50 49l150 123h31zM359 548q45 0 82.5 -16t65 -47.5t42.5 -78t15 -106.5v-300h-90v284q0 87 -38 132.5t-101 45.5q-31 0 -58 -12.5t-46 -36t-30 -56t-11 -72.5l-1 8v-293h-90v769h90v-316q22 42 65 68.5t105 26.5z" />
    <glyph glyph-name="Hbar" unicode="&#x126;" horiz-adv-x="783" 
d="M671 654h71v-89h-71v-565h-95v354h-369v-354h-96v565h-70v89h70v83h96v-83h369v83h95v-83zM207 443h369v122h-369v-122z" />
    <glyph glyph-name="hbar" unicode="&#x127;" horiz-adv-x="646" 
d="M359 548q45 0 82.5 -16t65 -47.5t42.5 -78t15 -106.5v-300h-90v284q0 87 -38 132.5t-101 45.5q-31 0 -58 -12.5t-46 -36t-30 -56t-11 -72.5l-1 8v-293h-90v605h-76v65h76v99h90v-99h161v-65h-161v-152q22 42 65 68.5t105 26.5z" />
    <glyph glyph-name="Itilde" unicode="&#x128;" horiz-adv-x="318" 
d="M224 809q-16 0 -31.5 6t-38.5 24q-21 17 -30 21.5t-17 4.5q-29 0 -35 -50l-55 12q5 54 26.5 80.5t55.5 26.5q14 0 28.5 -6.5t38.5 -23.5q22 -17 32 -21.5t18 -4.5q25 0 31 50l56 -12q-5 -54 -26.5 -80.5t-52.5 -26.5zM207 0h-96v737h96v-737z" />
    <glyph glyph-name="itilde" unicode="&#x129;" horiz-adv-x="276" 
d="M191 609q-12 0 -25.5 6t-32.5 24q-18 17 -24.5 21.5t-14.5 4.5q-23 0 -28 -51l-51 14q5 54 23.5 80t48.5 26q12 0 24 -6.5t32 -23.5q19 -17 26 -21t14 -4q22 0 26 49l52 -13q-5 -54 -23.5 -80t-46.5 -26zM182 0h-90v537h90v-537z" />
    <glyph glyph-name="Imacron" unicode="&#x12a;" horiz-adv-x="318" 
d="M269 831h-220v67h220v-67zM207 0h-96v737h96v-737z" />
    <glyph glyph-name="imacron" unicode="&#x12b;" horiz-adv-x="268" 
d="M227 631h-187v67h187v-67zM178 0h-90v537h90v-537z" />
    <glyph glyph-name="Ibreve" unicode="&#x12c;" horiz-adv-x="318" 
d="M159 805q-65 0 -98.5 37t-43.5 99l61 15q9 -43 29 -62t52 -19q31 0 51 19t30 62l60 -15q-10 -62 -43 -99t-98 -37zM207 0h-96v737h96v-737z" />
    <glyph glyph-name="ibreve" unicode="&#x12d;" horiz-adv-x="273" 
d="M136 605q-65 0 -98.5 37t-43.5 99l61 15q9 -43 29 -62t52 -19q31 0 51.5 19t29.5 62l60 -15q-9 -62 -42.5 -99t-98.5 -37zM181 0h-90v537h90v-537z" />
    <glyph glyph-name="Iogonek" unicode="&#x12e;" horiz-adv-x="318" 
d="M207 737v-737q-33 -13 -54.5 -24.5t-34 -22t-17.5 -20.5t-5 -20q0 -21 18.5 -33t56.5 -12h36v-69h-56q-65 0 -97 25t-32 69q0 32 19 58.5t70 51.5v734h96z" />
    <glyph glyph-name="iogonek" unicode="&#x12f;" horiz-adv-x="268" 
d="M134 603q-28 0 -45 18t-17 44t17 44t45 18q27 0 44.5 -18t17.5 -44t-17.5 -44t-44.5 -18zM179 0h2q-33 -13 -54.5 -24.5t-34 -22t-17.5 -20.5t-5 -20q0 -21 18.5 -33t56.5 -12h36v-69h-56q-65 0 -96.5 25t-31.5 69q0 32 20 59t72 52v540q19 -11 45 -11q15 0 25.5 3
t19.5 8v-544z" />
    <glyph glyph-name="Idotaccent" unicode="&#x130;" horiz-adv-x="318" 
d="M159 806q-28 0 -44.5 18.5t-16.5 44.5t16.5 43.5t44.5 17.5t45 -17.5t17 -43.5t-17 -44.5t-45 -18.5zM207 0h-96v744q20 -12 48 -12q17 0 28 3t20 9v-744z" />
    <glyph glyph-name="dotlessi" unicode="&#x131;" horiz-adv-x="273" 
d="M181 0h-90v537h90v-537z" />
    <glyph glyph-name="IJ" unicode="&#x132;" horiz-adv-x="943" 
d="M207 0h-96v737h96v-737zM595 -18q-118 0 -182 73t-64 202h95q0 -90 40 -140.5t111 -50.5q72 0 112.5 48.5t40.5 142.5v480h95v-479q0 -134 -65 -205t-183 -71z" />
    <glyph glyph-name="ij" unicode="&#x133;" horiz-adv-x="520" 
d="M384 601q-26 0 -45 18.5t-19 45.5t19 45.5t45 18.5q27 0 46 -18.5t19 -45.5t-19 -45.5t-46 -18.5zM134 603q-28 0 -45 18t-17 44t17 44t45 18q27 0 44.5 -18t17.5 -44t-17.5 -44t-44.5 -18zM179 0h-90v544q19 -11 45 -11q15 0 25.5 3t19.5 8v-544zM225 -211v85h54
q32 0 46.5 15t14.5 44v611q19 -11 45 -11t45 11v-612q0 -70 -38 -106.5t-108 -36.5h-59z" />
    <glyph glyph-name="Jcircumflex" unicode="&#x134;" horiz-adv-x="631" 
d="M470 961h31l150 -123l-50 -48l-115 95l-116 -95l-50 48zM436 737h95v-479q0 -134 -65 -205t-183 -71t-182 73t-64 202h96q0 -90 39.5 -140.5t110.5 -50.5q72 0 112.5 48.5t40.5 142.5v480z" />
    <glyph glyph-name="jcircumflex" unicode="&#x135;" horiz-adv-x="286" 
d="M133 783h31l150 -123l-50 -49l-115 95l-116 -95l-50 49zM101 537h90v-605q0 -70 -38 -106.5t-108 -36.5h-60v85h56q32 0 46 15t14 44v604z" />
    <glyph glyph-name="uni0136" unicode="&#x136;" horiz-adv-x="694" 
d="M661 736l-378 -345l380 -392h-125l-331 341v-340h-96v737h96v-303l331 302h123zM357 -54q29 0 46.5 -20t17.5 -58q0 -81 -86 -111l-15 -5l-15 42l13 5q25 8 38 16.5t18 29.5q-9 -3 -20 -3q-23 0 -38 14t-15 37t15 38t41 15z" />
    <glyph glyph-name="uni0137" unicode="&#x137;" horiz-adv-x="576" 
d="M541 536l-282 -262l287 -274h-110l-255 234v-234h-90v769h90v-463l251 230h109zM295 -54q29 0 46.5 -20t17.5 -58q0 -82 -87 -111l-14 -5l-16 42l14 5q25 8 38 16.5t18 29.5q-9 -3 -20 -3q-23 0 -38 14t-15 37t15 38t41 15z" />
    <glyph glyph-name="kgreenlandic" unicode="&#x138;" horiz-adv-x="585" 
d="M267 274l288 -274h-110l-264 241v-241h-90v537h90v-238l259 237h109z" />
    <glyph glyph-name="Lacute" unicode="&#x139;" horiz-adv-x="611" 
d="M38 863l236 101l29 -73l-234 -101zM207 737v-648h377v-89h-473v737h96z" />
    <glyph glyph-name="lacute" unicode="&#x13a;" horiz-adv-x="273" 
d="M281 923l-234 -101l-31 74l235 101zM181 0h-90v769h90v-769z" />
    <glyph glyph-name="uni013B" unicode="&#x13b;" horiz-adv-x="611" 
d="M207 737v-648h377v-89h-473v737h96zM347 -54q29 0 46.5 -20t17.5 -58q0 -82 -87 -111l-14 -5l-16 42l14 5q25 8 38 16.5t18 29.5q-9 -3 -20 -3q-23 0 -38 14t-15 37t15 38t41 15z" />
    <glyph glyph-name="uni013C" unicode="&#x13c;" horiz-adv-x="273" 
d="M91 769h90v-769h-90v769zM135 -54q29 0 46.5 -20t17.5 -58q0 -81 -86 -111l-15 -5l-15 42l13 5q25 8 38 16.5t18 29.5q-9 -3 -20 -3q-23 0 -38 14t-15 37t15 38t41 15z" />
    <glyph glyph-name="Lcaron" unicode="&#x13d;" horiz-adv-x="611" 
d="M307 782h71l-12 -176h-59v176zM207 737v-648h377v-89h-473v737h96z" />
    <glyph glyph-name="lcaron" unicode="&#x13e;" horiz-adv-x="273" 
d="M181 0h-90v769h90v-769zM321 572h-59v176h71z" />
    <glyph glyph-name="Ldot" unicode="&#x13f;" horiz-adv-x="611" 
d="M207 737v-648h377v-89h-473v737h96zM470 318q-30 0 -51 21.5t-21 51.5t21 51t51 21t51 -21t21 -51t-21 -51.5t-51 -21.5z" />
    <glyph glyph-name="ldot" unicode="&#x140;" horiz-adv-x="423" 
d="M181 0h-90v769h90v-769zM346 313q-30 0 -51 21.5t-21 51.5t21 51t51 21t51 -21t21 -51t-21 -51.5t-51 -21.5z" />
    <glyph glyph-name="Lslash" unicode="&#x141;" horiz-adv-x="611" 
d="M207 352v-263h377v-89h-473v314l-77 -30v87l77 30v336h96v-298l237 92v-87z" />
    <glyph glyph-name="lslash" unicode="&#x142;" horiz-adv-x="288" 
d="M181 462l100 69v-94l-100 -69v-368h-90v306l-50 -35v95l50 34v369h90v-307z" />
    <glyph glyph-name="Nacute" unicode="&#x143;" horiz-adv-x="785" 
d="M507 964l30 -73l-234 -101l-31 73zM578 299v438h96v-737h-96v152l-371 421v-573h-96v737h81z" />
    <glyph glyph-name="nacute" unicode="&#x144;" horiz-adv-x="634" 
d="M439 764l30 -73l-234 -101l-31 73zM352 548q45 0 82.5 -16t64.5 -47.5t42.5 -78t15.5 -106.5v-300h-90v284q0 87 -38 132.5t-101 45.5q-31 0 -58 -12.5t-47 -36t-31 -56t-11 -72.5v-285h-90v537h90v-86q21 42 64.5 69.5t106.5 27.5z" />
    <glyph glyph-name="uni0145" unicode="&#x145;" horiz-adv-x="785" 
d="M578 299v438h96v-737h-96v152l-371 421v-573h-96v737h81zM391 -54q29 0 46.5 -20t17.5 -58q0 -81 -86 -111l-14 -5l-16 42l14 5q24 8 37 16.5t18 29.5q-9 -3 -20 -3q-23 0 -37.5 14t-14.5 37t15 38t40 15z" />
    <glyph glyph-name="uni0146" unicode="&#x146;" horiz-adv-x="634" 
d="M352 548q45 0 82.5 -16t64.5 -47.5t42.5 -78t15.5 -106.5v-300h-90v284q0 87 -38 132.5t-101 45.5q-31 0 -58 -12.5t-47 -36t-31 -56t-11 -72.5v-285h-90v537h90v-86q21 42 64.5 69.5t106.5 27.5zM323 -54q29 0 46.5 -20t17.5 -58q0 -82 -87 -111l-14 -5l-16 42l14 5
q25 8 38 16.5t18 29.5q-9 -3 -20 -3q-23 0 -38 14t-15 37t15 38t41 15z" />
    <glyph glyph-name="Ncaron" unicode="&#x147;" horiz-adv-x="785" 
d="M560 913l-150 -123h-31l-150 123l50 48l115 -95l116 95zM578 299v438h96v-737h-96v152l-371 421v-573h-96v737h81z" />
    <glyph glyph-name="ncaron" unicode="&#x148;" horiz-adv-x="634" 
d="M491 713l-150 -123h-30l-150 123l49 48l116 -95l116 95zM352 548q45 0 82.5 -16t64.5 -47.5t42.5 -78t15.5 -106.5v-300h-90v284q0 87 -38 132.5t-101 45.5q-31 0 -58 -12.5t-47 -36t-31 -56t-11 -72.5v-285h-90v537h90v-86q21 42 64.5 69.5t106.5 27.5z" />
    <glyph glyph-name="Eng" unicode="&#x14a;" horiz-adv-x="785" 
d="M578 737h96v-737h-1v-65q0 -70 -38 -107t-108 -37h-65v87h55q32 0 46.5 15.5t14.5 44.5v214l-371 421v-573h-96v737h81l386 -438v438z" />
    <glyph glyph-name="eng" unicode="&#x14b;" horiz-adv-x="634" 
d="M352 548q45 0 82.5 -16t64.5 -47.5t42.5 -78t15.5 -106.5v-363q0 -146 -144 -146h-69v85h62q32 0 46.5 15.5t14.5 44.5v348q0 87 -38 132.5t-101 45.5q-31 0 -58 -12.5t-47 -36t-31 -56t-11 -72.5v-285h-90v537h90v-86q21 42 64.5 69.5t106.5 27.5z" />
    <glyph glyph-name="Omacron" unicode="&#x14c;" horiz-adv-x="826" 
d="M567 831h-308v67h308v-67zM413 -10q-74 0 -137 25t-109 73t-72 118.5t-26 161.5q0 92 26 162.5t72 118.5t109 73t137 25t137 -25t109 -73t72 -118.5t26 -162.5q0 -91 -26 -161.5t-72 -118.5t-109 -73t-137 -25zM413 79q48 0 92.5 18t78 54t54 90t20.5 127t-20.5 127.5
t-54 90.5t-78 54t-92.5 18t-92.5 -18t-78.5 -54t-54 -90.5t-20 -127.5t20 -127t54 -90t78.5 -54t92.5 -18z" />
    <glyph glyph-name="omacron" unicode="&#x14d;" horiz-adv-x="643" 
d="M476 631h-307v67h307v-67zM322 -12q-63 0 -113 21t-85.5 58.5t-54 89t-18.5 111.5t18.5 111.5t54 89t85.5 58.5t113 21t113 -21t85 -58.5t53.5 -89t18.5 -111.5t-18.5 -111.5t-53.5 -89t-85 -58.5t-113 -21zM322 74q39 0 71.5 13.5t55.5 39t35.5 61.5t12.5 80t-12.5 80
t-35.5 61.5t-55.5 39t-71.5 13.5q-80 0 -128 -52.5t-48 -141.5t48 -141.5t128 -52.5z" />
    <glyph glyph-name="Obreve" unicode="&#x14e;" horiz-adv-x="826" 
d="M413 805q-65 0 -98.5 37t-43.5 99l61 15q9 -43 29 -62t52 -19q31 0 51 19t30 62l60 -15q-10 -62 -43 -99t-98 -37zM413 -10q-74 0 -137 25t-109 73t-72 118.5t-26 161.5q0 92 26 162.5t72 118.5t109 73t137 25t137 -25t109 -73t72 -118.5t26 -162.5q0 -91 -26 -161.5
t-72 -118.5t-109 -73t-137 -25zM413 79q48 0 92.5 18t78 54t54 90t20.5 127t-20.5 127.5t-54 90.5t-78 54t-92.5 18t-92.5 -18t-78.5 -54t-54 -90.5t-20 -127.5t20 -127t54 -90t78.5 -54t92.5 -18z" />
    <glyph glyph-name="obreve" unicode="&#x14f;" horiz-adv-x="643" 
d="M322 605q-65 0 -98 37t-43 99l60 15q10 -43 30 -62t51 -19q32 0 52 19t29 62l61 -15q-10 -62 -43.5 -99t-98.5 -37zM322 -12q-63 0 -113 21t-85.5 58.5t-54 89t-18.5 111.5t18.5 111.5t54 89t85.5 58.5t113 21t113 -21t85 -58.5t53.5 -89t18.5 -111.5t-18.5 -111.5
t-53.5 -89t-85 -58.5t-113 -21zM322 74q39 0 71.5 13.5t55.5 39t35.5 61.5t12.5 80t-12.5 80t-35.5 61.5t-55.5 39t-71.5 13.5q-80 0 -128 -52.5t-48 -141.5t48 -141.5t128 -52.5z" />
    <glyph glyph-name="Ohungarumlaut" unicode="&#x150;" horiz-adv-x="826" 
d="M445 941l-107 -158l-54 37l104 159zM604 941l-106 -158l-54 37l103 159zM413 -10q-74 0 -137 25t-109 73t-72 118.5t-26 161.5q0 92 26 162.5t72 118.5t109 73t137 25t137 -25t109 -73t72 -118.5t26 -162.5q0 -91 -26 -161.5t-72 -118.5t-109 -73t-137 -25zM413 79
q48 0 92.5 18t78 54t54 90t20.5 127t-20.5 127.5t-54 90.5t-78 54t-92.5 18t-92.5 -18t-78.5 -54t-54 -90.5t-20 -127.5t20 -127t54 -90t78.5 -54t92.5 -18z" />
    <glyph glyph-name="ohungarumlaut" unicode="&#x151;" horiz-adv-x="643" 
d="M354 741l-106 -158l-54 37l103 159zM513 741l-106 -158l-54 37l104 159zM322 -12q-63 0 -113 21t-85.5 58.5t-54 89t-18.5 111.5t18.5 111.5t54 89t85.5 58.5t113 21t113 -21t85 -58.5t53.5 -89t18.5 -111.5t-18.5 -111.5t-53.5 -89t-85 -58.5t-113 -21zM322 74
q39 0 71.5 13.5t55.5 39t35.5 61.5t12.5 80t-12.5 80t-35.5 61.5t-55.5 39t-71.5 13.5q-80 0 -128 -52.5t-48 -141.5t48 -141.5t128 -52.5z" />
    <glyph glyph-name="OE" unicode="&#x152;" horiz-adv-x="1054" 
d="M610 368v-278h384v-90h-523q-91 0 -165.5 25t-127 72.5t-81 116t-28.5 154.5t28.5 154.5t81 116t127 73t165.5 25.5h521v-90h-382v-189h271v-90h-271zM514 88v561h-39q-70 0 -127 -18t-97 -53t-61.5 -88t-21.5 -122t21.5 -121t61.5 -87.5t97 -53.5t127 -18h39z" />
    <glyph glyph-name="oe" unicode="&#x153;" horiz-adv-x="1092" 
d="M1041 241h-437q2 -38 15.5 -69t36 -52.5t54 -33.5t68.5 -12q55 0 93.5 20t56.5 56h99q-27 -72 -91.5 -116t-158.5 -44q-76 0 -134 30.5t-93 87.5q-34 -56 -92 -88t-136 -32q-63 0 -113 21t-85.5 58.5t-54 89t-18.5 111.5t18.5 111.5t54 89t85.5 58.5t113 21
q78 0 135.5 -32t91.5 -87q35 57 92.5 87.5t132.5 30.5q60 0 109 -19t84 -54.5t54.5 -85.5t19.5 -113v-34zM774 463q-33 0 -62 -11.5t-51.5 -31.5t-36.5 -47t-19 -58h340q-8 69 -55.5 108.5t-115.5 39.5zM322 74q39 0 71.5 13.5t55.5 39t35.5 61.5t12.5 80t-12.5 80
t-35.5 61.5t-55.5 39t-71.5 13.5q-80 0 -128 -52.5t-48 -141.5t48 -141.5t128 -52.5z" />
    <glyph glyph-name="Racute" unicode="&#x154;" horiz-adv-x="719" 
d="M445 964l29 -73l-234 -101l-31 73zM658 0h-113l-133 224q-14 -2 -29.5 -3t-32.5 -1h-143v-220h-96v737h239q66 0 120 -17t92.5 -50t59 -81t20.5 -110q0 -81 -35 -138t-98 -88zM207 309h133q44 0 81 10.5t64 31.5t42.5 53t15.5 75t-15.5 75t-42.5 53t-64 31t-81 10h-133
v-339z" />
    <glyph glyph-name="racute" unicode="&#x155;" horiz-adv-x="424" 
d="M343 764l30 -73l-235 -101l-31 73zM181 537v-94q25 48 75 76.5t128 28.5v-96h-34q-81 0 -125 -47t-44 -132v-273h-90v537h90z" />
    <glyph glyph-name="uni0156" unicode="&#x156;" horiz-adv-x="719" 
d="M658 0h-113l-133 224q-14 -2 -29.5 -3t-32.5 -1h-143v-220h-96v737h239q66 0 120 -17t92.5 -50t59 -81t20.5 -110q0 -81 -35 -138t-98 -88zM207 309h133q44 0 81 10.5t64 31.5t42.5 53t15.5 75t-15.5 75t-42.5 53t-64 31t-81 10h-133v-339zM353 -54q29 0 46.5 -20
t17.5 -58q0 -81 -86 -111l-15 -5l-15 42l14 5q24 8 37 16.5t18 29.5q-9 -3 -20 -3q-23 0 -37.5 14t-14.5 37t15 38t40 15z" />
    <glyph glyph-name="uni0157" unicode="&#x157;" horiz-adv-x="424" 
d="M181 537v-94q25 48 75 76.5t128 28.5v-96h-34q-81 0 -125 -47t-44 -132v-273h-90v537h90zM139 -54q29 0 46.5 -20t17.5 -58q0 -81 -86 -111l-15 -5l-15 42l14 5q24 8 37 16.5t18 29.5q-9 -3 -20 -3q-23 0 -37.5 14t-14.5 37t15 38t40 15z" />
    <glyph glyph-name="Rcaron" unicode="&#x158;" horiz-adv-x="719" 
d="M497 913l-150 -123h-31l-150 123l50 48l116 -95l115 95zM658 0h-113l-133 224q-14 -2 -29.5 -3t-32.5 -1h-143v-220h-96v737h239q66 0 120 -17t92.5 -50t59 -81t20.5 -110q0 -81 -35 -138t-98 -88zM207 309h133q44 0 81 10.5t64 31.5t42.5 53t15.5 75t-15.5 75t-42.5 53
t-64 31t-81 10h-133v-339z" />
    <glyph glyph-name="rcaron" unicode="&#x159;" horiz-adv-x="424" 
d="M395 713l-150 -123h-31l-150 123l50 48l116 -95l115 95zM181 537v-94q25 48 75 76.5t128 28.5v-96h-34q-81 0 -125 -47t-44 -132v-273h-90v537h90z" />
    <glyph glyph-name="Sacute" unicode="&#x15a;" horiz-adv-x="700" 
d="M498 891l-234 -101l-31 73l235 101zM356 -10q-66 0 -117 17t-86.5 47t-53.5 72.5t-18 93.5h100q0 -32 12 -59.5t35 -48t55.5 -32t73.5 -11.5t72 10t52 27t31.5 40t10.5 49q0 49 -28 77t-97 46l-102 25q-109 27 -153.5 78t-44.5 129q0 42 17 78.5t49.5 62.5t80 41
t107.5 15q62 0 109.5 -15.5t80 -43.5t49 -66.5t16.5 -84.5h-100q0 54 -40 89.5t-116 35.5q-72 0 -112 -32.5t-40 -78.5q0 -45 27 -72t95 -45l106 -29q100 -26 148 -74.5t48 -133.5q0 -45 -16.5 -83t-50 -65.5t-83.5 -43t-117 -15.5z" />
    <glyph glyph-name="sacute" unicode="&#x15b;" horiz-adv-x="539" 
d="M410 691l-234 -101l-31 73l236 101zM279 -12q-57 0 -99 14t-70 38t-42 56.5t-14 69.5h92q1 -42 34 -69t103 -27q58 0 85 22t27 54t-20 50t-72 29l-91 19q-80 17 -111.5 57.5t-31.5 95.5q0 32 13 59.5t38.5 47.5t63 32t86.5 12q48 0 86.5 -13t65 -36t40.5 -54t14 -67h-93
q-1 37 -31 63t-83 26t-79.5 -20.5t-26.5 -49.5q0 -27 16.5 -44.5t69.5 -29.5l86 -19q43 -9 72 -24t47 -35t26 -44.5t8 -52.5q0 -73 -53.5 -116.5t-155.5 -43.5z" />
    <glyph glyph-name="Scircumflex" unicode="&#x15c;" horiz-adv-x="700" 
d="M471 790l-116 95l-115 -95l-50 48l150 123h31l150 -123zM427 405q100 -26 148 -74.5t48 -133.5q0 -45 -16.5 -83t-50 -65.5t-83.5 -43t-117 -15.5q-66 0 -117 17t-86.5 47t-53.5 72.5t-18 93.5h100q0 -32 12 -59.5t35 -48t55.5 -32t73.5 -11.5t72 10t52 27t31.5 40
t10.5 49q0 49 -28 77t-97 46l-102 25q-109 27 -153.5 78t-44.5 129q0 42 17 78.5t49.5 62.5t80 41t107.5 15q62 0 109.5 -15.5t80 -43.5t49 -66.5t16.5 -84.5h-100q0 54 -40 89.5t-116 35.5q-72 0 -112 -32.5t-40 -78.5q0 -45 27 -72t95 -45z" />
    <glyph glyph-name="scircumflex" unicode="&#x15d;" horiz-adv-x="539" 
d="M383 590l-115 95l-116 -95l-50 48l150 123h31l150 -123zM335 304q43 -9 72 -24t47 -35t26 -44.5t8 -52.5q0 -73 -53.5 -116.5t-155.5 -43.5q-57 0 -99 14t-70 38t-42 56.5t-14 69.5h92q1 -42 34 -69t103 -27q58 0 85 22t27 54t-20 50t-72 29l-91 19q-80 17 -111.5 57.5
t-31.5 95.5q0 32 13 59.5t38.5 47.5t63 32t86.5 12q48 0 86.5 -13t65 -36t40.5 -54t14 -67h-93q-1 37 -31 63t-83 26t-79.5 -20.5t-26.5 -49.5q0 -27 16.5 -44.5t69.5 -29.5z" />
    <glyph glyph-name="Scedilla" unicode="&#x15e;" horiz-adv-x="700" 
d="M623 197q0 -43 -15 -79.5t-45 -63.5t-75 -43.5t-105 -19.5l-15 -44q57 0 87.5 -24.5t30.5 -72.5t-38 -74t-98 -26h-81v52h68q39 0 56.5 13t17.5 36t-16 35.5t-53 12.5h-56l33 92q-115 10 -176.5 72t-61.5 157h100q0 -32 12 -59.5t35 -48t55.5 -32t73.5 -11.5t72 10t52 27
t31.5 40t10.5 49q0 49 -28 77t-97 46l-102 25q-109 27 -153.5 78t-44.5 129q0 42 17 78.5t49.5 62.5t80 41t107.5 15q62 0 109.5 -15.5t80 -43.5t49 -66.5t16.5 -84.5h-100q0 54 -40 89.5t-116 35.5q-72 0 -112 -32.5t-40 -78.5q0 -45 27 -72t95 -45l106 -29
q100 -26 148 -74.5t48 -133.5z" />
    <glyph glyph-name="scedilla" unicode="&#x15f;" horiz-adv-x="539" 
d="M488 148q0 -69 -47 -111.5t-138 -47.5l-14 -42q57 0 88 -24.5t31 -72.5t-38 -74t-98 -26h-82v52h68q39 0 56.5 13t17.5 36t-16 35.5t-53 12.5h-56l34 91q-47 4 -82 19.5t-58.5 39t-35 53.5t-11.5 64h92q1 -42 34 -69t103 -27q58 0 85 22t27 54t-20 50t-72 29l-91 19
q-80 17 -111.5 57.5t-31.5 95.5q0 32 13 59.5t38.5 47.5t63 32t86.5 12q48 0 86.5 -13t65 -36t40.5 -54t14 -67h-93q-1 37 -31 63t-83 26t-79.5 -20.5t-26.5 -49.5q0 -27 16.5 -44.5t69.5 -29.5l86 -19q43 -9 72 -24t47 -35t26 -44.5t8 -52.5z" />
    <glyph glyph-name="Scaron" unicode="&#x160;" horiz-adv-x="700" 
d="M520 913l-150 -123h-30l-150 123l49 48l116 -95l116 95zM427 405q100 -26 148 -74.5t48 -133.5q0 -45 -16.5 -83t-50 -65.5t-83.5 -43t-117 -15.5q-66 0 -117 17t-86.5 47t-53.5 72.5t-18 93.5h100q0 -32 12 -59.5t35 -48t55.5 -32t73.5 -11.5t72 10t52 27t31.5 40
t10.5 49q0 49 -28 77t-97 46l-102 25q-109 27 -153.5 78t-44.5 129q0 42 17 78.5t49.5 62.5t80 41t107.5 15q62 0 109.5 -15.5t80 -43.5t49 -66.5t16.5 -84.5h-100q0 54 -40 89.5t-116 35.5q-72 0 -112 -32.5t-40 -78.5q0 -45 27 -72t95 -45z" />
    <glyph glyph-name="scaron" unicode="&#x161;" horiz-adv-x="539" 
d="M433 713l-150 -123h-31l-150 123l50 48l116 -95l115 95zM335 304q43 -9 72 -24t47 -35t26 -44.5t8 -52.5q0 -73 -53.5 -116.5t-155.5 -43.5q-57 0 -99 14t-70 38t-42 56.5t-14 69.5h92q1 -42 34 -69t103 -27q58 0 85 22t27 54t-20 50t-72 29l-91 19q-80 17 -111.5 57.5
t-31.5 95.5q0 32 13 59.5t38.5 47.5t63 32t86.5 12q48 0 86.5 -13t65 -36t40.5 -54t14 -67h-93q-1 37 -31 63t-83 26t-79.5 -20.5t-26.5 -49.5q0 -27 16.5 -44.5t69.5 -29.5z" />
    <glyph glyph-name="uni0162" unicode="&#x162;" horiz-adv-x="645" 
d="M370 648v-648h-19l-19 -53q57 0 88 -24.5t31 -72.5t-38 -74t-98 -26h-82v52h69q38 0 55.5 13t17.5 36t-16 35.5t-53 12.5h-56l37 101h-13v648h-244v89h585v-89h-245z" />
    <glyph glyph-name="uni0163" unicode="&#x163;" horiz-adv-x="393" 
d="M233 460v-460h-13l-18 -53q57 0 87.5 -24.5t30.5 -72.5t-38 -74t-98 -26h-81v52h68q38 0 55.5 13t17.5 36t-15.5 35.5t-52.5 12.5h-56l37 101h-14v460h-107v77h107v172h90v-172h124v-77h-124z" />
    <glyph glyph-name="Tcaron" unicode="&#x164;" horiz-adv-x="645" 
d="M489 913l-150 -123h-31l-150 123l50 48l115 -95l116 95zM30 737h585v-89h-245v-648h-96v648h-244v89z" />
    <glyph glyph-name="tcaron" unicode="&#x165;" horiz-adv-x="393" 
d="M314 572v176h70l-11 -176h-59zM143 709h90v-172h124v-77h-124v-460h-90v460h-107v77h107v172z" />
    <glyph glyph-name="Tbar" unicode="&#x166;" horiz-adv-x="645" 
d="M615 737v-89h-245v-220h150v-78h-150v-350h-96v350h-150v78h150v220h-244v89h585z" />
    <glyph glyph-name="tbar" unicode="&#x167;" horiz-adv-x="393" 
d="M357 537v-77h-124v-137h116v-77h-116v-246h-90v246h-95v77h95v137h-107v77h107v172h90v-172h124z" />
    <glyph glyph-name="Utilde" unicode="&#x168;" horiz-adv-x="747" 
d="M452 809q-19 0 -37.5 6t-46.5 24q-25 17 -35 21.5t-21 4.5q-35 0 -42 -50l-66 12q7 54 32 80.5t66 26.5q17 0 34.5 -6.5t45.5 -23.5q27 -17 39 -21.5t22 -4.5q30 0 37 50l66 -12q-7 -54 -31.5 -80.5t-62.5 -26.5zM373 -10q-136 0 -204.5 83t-68.5 230v434h96v-438
q0 -57 14 -98.5t38 -68.5t56.5 -40t70.5 -13t70.5 13t56.5 40t37.5 68.5t13.5 98.5v438h93v-434q0 -147 -68 -230t-205 -83z" />
    <glyph glyph-name="utilde" unicode="&#x169;" horiz-adv-x="616" 
d="M239 665q-36 0 -42 -50l-66 12q7 54 32 80.5t66 26.5q17 0 34 -6.5t46 -23.5q27 -17 39 -21.5t22 -4.5q30 0 37 50l66 -12q-7 -54 -31.5 -80.5t-62.5 -26.5q-19 0 -38 6t-46 24q-25 17 -35.5 21.5t-20.5 4.5zM435 537h90v-537h-90v81q-21 -41 -62 -67t-99 -26
q-43 0 -79 16.5t-62 48t-40.5 78t-14.5 106.5v300h90v-284q0 -87 35.5 -132.5t95.5 -45.5q54 0 92 41.5t44 111.5v309z" />
    <glyph glyph-name="Umacron" unicode="&#x16a;" horiz-adv-x="747" 
d="M528 831h-307v67h307v-67zM373 -10q-136 0 -204.5 83t-68.5 230v434h96v-438q0 -57 14 -98.5t38 -68.5t56.5 -40t70.5 -13t70.5 13t56.5 40t37.5 68.5t13.5 98.5v438h93v-434q0 -147 -68 -230t-205 -83z" />
    <glyph glyph-name="umacron" unicode="&#x16b;" horiz-adv-x="616" 
d="M148 698h307v-67h-307v67zM435 537h90v-537h-90v81q-21 -41 -62 -67t-99 -26q-43 0 -79 16.5t-62 48t-40.5 78t-14.5 106.5v300h90v-284q0 -87 35.5 -132.5t95.5 -45.5q54 0 92 41.5t44 111.5v309z" />
    <glyph glyph-name="Ubreve" unicode="&#x16c;" horiz-adv-x="747" 
d="M375 805q-65 0 -98.5 37t-43.5 99l60 15q10 -43 30 -62t52 -19q31 0 51 19t30 62l60 -15q-10 -62 -43.5 -99t-97.5 -37zM373 -10q-136 0 -204.5 83t-68.5 230v434h96v-438q0 -57 14 -98.5t38 -68.5t56.5 -40t70.5 -13t70.5 13t56.5 40t37.5 68.5t13.5 98.5v438h93v-434
q0 -147 -68 -230t-205 -83z" />
    <glyph glyph-name="ubreve" unicode="&#x16d;" horiz-adv-x="616" 
d="M301 605q-64 0 -97.5 37t-43.5 99l60 15q10 -43 30 -62t51 -19q32 0 52 19t30 62l60 -15q-10 -62 -43.5 -99t-98.5 -37zM435 537h90v-537h-90v81q-21 -41 -62 -67t-99 -26q-43 0 -79 16.5t-62 48t-40.5 78t-14.5 106.5v300h90v-284q0 -87 35.5 -132.5t95.5 -45.5
q54 0 92 41.5t44 111.5v309z" />
    <glyph glyph-name="Uring" unicode="&#x16e;" horiz-adv-x="747" 
d="M375 789q-23 0 -43 8.5t-35 23.5t-23.5 35t-8.5 43t8.5 42.5t23.5 34t35 23t43 8.5q24 0 44 -8.5t34.5 -23t22.5 -34t8 -42.5t-8 -43t-22.5 -35t-34.5 -23.5t-44 -8.5zM375 848q20 0 34.5 15t14.5 36t-14.5 35.5t-34.5 14.5q-22 0 -36.5 -14.5t-14.5 -35.5t14.5 -36
t36.5 -15zM373 -10q-136 0 -204.5 83t-68.5 230v434h96v-438q0 -57 14 -98.5t38 -68.5t56.5 -40t70.5 -13t70.5 13t56.5 40t37.5 68.5t13.5 98.5v438h93v-434q0 -147 -68 -230t-205 -83z" />
    <glyph glyph-name="uring" unicode="&#x16f;" horiz-adv-x="616" 
d="M301 589q-23 0 -43 8.5t-34.5 23.5t-23 35t-8.5 43t8.5 42.5t23 34t34.5 23t43 8.5q24 0 44 -8.5t34.5 -23t22.5 -34t8 -42.5t-8 -43t-22.5 -35t-34.5 -23.5t-44 -8.5zM301 749q-21 0 -35.5 -14.5t-14.5 -35.5t14.5 -36t35.5 -15t35.5 15t14.5 36t-14.5 35.5t-35.5 14.5z
M435 537h90v-537h-90v81q-21 -41 -62 -67t-99 -26q-43 0 -79 16.5t-62 48t-40.5 78t-14.5 106.5v300h90v-284q0 -87 35.5 -132.5t95.5 -45.5q54 0 92 41.5t44 111.5v309z" />
    <glyph glyph-name="Uhungarumlaut" unicode="&#x170;" horiz-adv-x="747" 
d="M406 941l-106 -158l-54 37l104 159zM566 941l-106 -158l-55 37l104 159zM373 -10q-136 0 -204.5 83t-68.5 230v434h96v-438q0 -57 14 -98.5t38 -68.5t56.5 -40t70.5 -13t70.5 13t56.5 40t37.5 68.5t13.5 98.5v438h93v-434q0 -147 -68 -230t-205 -83z" />
    <glyph glyph-name="uhungarumlaut" unicode="&#x171;" horiz-adv-x="616" 
d="M276 779l57 -38l-106 -158l-54 37zM492 741l-106 -158l-54 37l104 159zM435 537h90v-537h-90v81q-21 -41 -62 -67t-99 -26q-43 0 -79 16.5t-62 48t-40.5 78t-14.5 106.5v300h90v-284q0 -87 35.5 -132.5t95.5 -45.5q54 0 92 41.5t44 111.5v309z" />
    <glyph glyph-name="Uogonek" unicode="&#x172;" horiz-adv-x="747" 
d="M553 737h93v-434q0 -123 -47 -201t-141 -102q-33 -13 -54.5 -24.5t-34 -22t-17.5 -20.5t-5 -20q0 -21 18.5 -33t56.5 -12h36v-69h-56q-65 0 -97 25t-32 69q0 28 14.5 52t52.5 46q-121 11 -180.5 92t-59.5 220v434h96v-438q0 -57 14 -98.5t38 -68.5t56.5 -40t70.5 -13
t70.5 13t56.5 40t37.5 68.5t13.5 98.5v438z" />
    <glyph glyph-name="uogonek" unicode="&#x173;" horiz-adv-x="616" 
d="M525 537v-537q-33 -13 -55 -24.5t-34.5 -22t-17.5 -20.5t-5 -20q0 -21 19 -33t56 -12h37v-69h-56q-65 0 -97 25t-32 69q0 32 20.5 60t74.5 53v75q-21 -41 -62 -67t-99 -26q-43 0 -79 16.5t-62 48t-40.5 78t-14.5 106.5v300h90v-284q0 -87 35.5 -132.5t95.5 -45.5
q54 0 92 41.5t44 111.5v309h90z" />
    <glyph glyph-name="Wcircumflex" unicode="&#x174;" horiz-adv-x="1043" 
d="M640 790l-115 95l-116 -95l-50 48l150 123h31l150 -123zM755 158l172 579h98l-219 -737h-104l-184 599l-191 -599h-98l-211 737h101l165 -580l184 580h109z" />
    <glyph glyph-name="wcircumflex" unicode="&#x175;" horiz-adv-x="834" 
d="M536 590l-116 95l-115 -95l-50 48l150 123h31l150 -123zM601 120l133 417h87l-170 -537h-87l-148 418l-147 -418h-86l-169 537h88l132 -416l143 416h82z" />
    <glyph glyph-name="Ycircumflex" unicode="&#x176;" horiz-adv-x="649" 
d="M442 790l-115 95l-116 -95l-50 48l150 123h31l150 -123zM531 737h100l-259 -472v-265h-95v263l-259 474h103l205 -373z" />
    <glyph glyph-name="ycircumflex" unicode="&#x177;" horiz-adv-x="551" 
d="M393 590l-115 95l-116 -95l-50 48l150 123h31l150 -123zM273 134l170 403h89l-301 -715h-89l84 200l-207 515h91z" />
    <glyph glyph-name="Ydieresis" unicode="&#x178;" horiz-adv-x="649" 
d="M238 808q-23 0 -40 17t-17 40t17 39.5t40 16.5t40 -16.5t17 -39.5t-17 -40t-40 -17zM410 808q-24 0 -40.5 17t-16.5 40t16.5 39.5t40.5 16.5q23 0 40 -16.5t17 -39.5t-17 -40t-40 -17zM531 737h100l-259 -472v-265h-95v263l-259 474h103l205 -373z" />
    <glyph glyph-name="Zacute" unicode="&#x179;" horiz-adv-x="723" 
d="M484 964l30 -73l-235 -101l-31 73zM641 649l-441 -563h453v-86h-572v88l440 562h-424v87h544v-88z" />
    <glyph glyph-name="zacute" unicode="&#x17a;" horiz-adv-x="545" 
d="M388 764l30 -73l-235 -101l-31 73zM482 460l-324 -383h330v-77h-431v77h1l321 383h-317v77h421v-77h-1z" />
    <glyph glyph-name="Zdotaccent" unicode="&#x17b;" horiz-adv-x="723" 
d="M369 809q-26 0 -43.5 18t-17.5 43q0 26 17.5 43t43.5 17t43.5 -17t17.5 -43q0 -25 -17.5 -43t-43.5 -18zM641 649l-441 -563h453v-86h-572v88l440 562h-424v87h544v-88z" />
    <glyph glyph-name="zdotaccent" unicode="&#x17c;" horiz-adv-x="545" 
d="M273 609q-26 0 -43.5 18t-17.5 43q0 26 17.5 43t43.5 17q25 0 43 -17t18 -43q0 -25 -18 -43t-43 -18zM482 460l-324 -383h330v-77h-431v77h1l321 383h-317v77h421v-77h-1z" />
    <glyph glyph-name="Zcaron" unicode="&#x17d;" horiz-adv-x="723" 
d="M536 913l-150 -123h-31l-150 123l50 48l116 -95l115 95zM641 649l-441 -563h453v-86h-572v88l440 562h-424v87h544v-88z" />
    <glyph glyph-name="zcaron" unicode="&#x17e;" horiz-adv-x="545" 
d="M440 713l-150 -123h-31l-150 123l50 48l116 -95l115 95zM482 460l-324 -383h330v-77h-431v77h1l321 383h-317v77h421v-77h-1z" />
    <glyph glyph-name="uni018F" unicode="&#x18f;" horiz-adv-x="851" 
d="M423 759q80 0 146 -28t113.5 -79.5t73.5 -124t26 -161.5t-26 -161t-73 -122.5t-112.5 -78t-145.5 -27.5q-79 0 -144.5 26.5t-112.5 76t-73 120.5t-26 159v36h608q-1 64 -19.5 115.5t-52 87.5t-80 55.5t-103.5 19.5q-81 0 -140.5 -36.5t-85.5 -102.5h-106q18 50 49 91.5
t73.5 71t95.5 46t115 16.5zM427 64q52 0 96.5 18.5t77.5 51.5t52.5 78t22.5 98h-500q4 -57 24 -103t53.5 -77.5t77.5 -48.5t96 -17z" />
    <glyph glyph-name="uni019D" unicode="&#x19d;" horiz-adv-x="785" 
d="M578 299v438h96v-737h-96v152l-371 421v-638q0 -70 -38 -107t-109 -37h-63v87h54q32 0 46 15.5t14 44.5v799h81z" />
    <glyph glyph-name="Gcaron" unicode="&#x1e6;" horiz-adv-x="817" 
d="M581 913l-150 -123h-30l-150 123l49 48l116 -95l116 95zM415 306v83h333v-53q0 -81 -25 -145t-69.5 -108.5t-106 -68.5t-134.5 -24q-74 0 -137 26.5t-109 75.5t-72 119t-26 157q0 88 26 158t71.5 119t108.5 75.5t138 26.5q65 0 117.5 -17t93 -46.5t68 -70.5t42.5 -89
h-106q-23 57 -78.5 95t-135.5 38q-52 0 -96.5 -19t-77.5 -55.5t-52 -90.5t-19 -124t19 -123.5t52.5 -90t78.5 -55.5t97 -19q48 0 90.5 17.5t74.5 48t51 72t22 88.5h-239z" />
    <glyph glyph-name="gcaron" unicode="&#x1e7;" horiz-adv-x="661" 
d="M491 713l-150 -123h-30l-150 123l49 48l116 -95l116 95zM494 537h90v-582q0 -78 -43.5 -121t-124.5 -43h-263v79h251q90 0 90 86v145q-29 -47 -77.5 -73.5t-117.5 -26.5q-55 0 -100.5 19.5t-78.5 55.5t-51 87.5t-18 114.5q0 62 18 112t51 85t78.5 54t100.5 19
q69 0 117.5 -26t77.5 -73v88zM320 83q81 0 127.5 53.5t46.5 143.5q0 87 -46.5 138t-127.5 51q-39 0 -71 -14t-55 -38.5t-35.5 -59.5t-12.5 -77q0 -43 12.5 -79.5t35.5 -62.5t55 -40.5t71 -14.5z" />
    <glyph glyph-name="uni01EA" unicode="&#x1ea;" horiz-adv-x="826" 
d="M508 1q-32 -13 -53 -24t-33 -21.5t-17 -20.5t-5 -20q0 -20 18.5 -32.5t56.5 -12.5h37v-69h-56q-65 0 -97 25t-32 70q0 26 13.5 49.5t48.5 45.5q-69 4 -128 30.5t-101.5 74.5t-66.5 116.5t-24 155.5q0 92 26 162.5t72 118.5t109 73t137 25t137 -25t109 -73t72 -118.5
t26 -162.5q0 -76 -18 -137.5t-51 -107.5t-79 -77t-101 -45zM168 368q0 -73 20 -127t54 -90t78.5 -54t92.5 -18t92.5 18t78 54t54 90t20.5 127t-20.5 127.5t-54 90.5t-78 54t-92.5 18t-92.5 -18t-78.5 -54t-54 -90.5t-20 -127.5z" />
    <glyph glyph-name="uni01EB" unicode="&#x1eb;" horiz-adv-x="643" 
d="M406 -1q-33 -13 -54 -24t-33 -21.5t-17 -20.5t-5 -20q0 -21 18.5 -33t56.5 -12h36v-69h-56q-65 0 -96.5 25t-31.5 69q0 28 14 51.5t50 45.5q-55 6 -99 29t-75 59.5t-47 85t-16 104.5q0 60 18.5 111.5t54 89t85.5 58.5t113 21t113 -21t85 -58.5t53.5 -89t18.5 -111.5
q0 -49 -12.5 -93t-36.5 -79t-58.5 -60t-78.5 -37zM146 268q0 -89 48 -141.5t128 -52.5q39 0 71.5 13.5t55.5 39t35.5 61.5t12.5 80t-12.5 80t-35.5 61.5t-55.5 39t-71.5 13.5q-80 0 -128 -52.5t-48 -141.5z" />
    <glyph glyph-name="Aringacute" unicode="&#x1fa;" horiz-adv-x="721" 
d="M456 1114l30 -73l-234 -102l-31 74zM700 0h-99l-63 164h-358l-62 -164h-97l282 725q-23 14 -37 39t-14 55q0 22 8.5 41.5t23 34.5t34.5 23.5t43 8.5q24 0 44 -8.5t34.5 -23.5t22.5 -34.5t8 -41.5q0 -30 -14 -55t-37 -39zM361 868q-21 0 -35.5 -14.5t-14.5 -34.5
q0 -21 14.5 -36.5t35.5 -15.5t35.5 15t14.5 37q0 20 -14.5 34.5t-35.5 14.5zM359 635l-145 -381h290z" />
    <glyph glyph-name="aringacute" unicode="&#x1fb;" horiz-adv-x="616" 
d="M406 996l30 -74l-234 -101l-31 74zM202 699q0 23 8.5 42.5t23 34t34.5 23t43 8.5q24 0 44 -8.5t34.5 -23t22.5 -34t8 -42.5t-8 -43t-22.5 -35t-34.5 -23.5t-44 -8.5q-23 0 -43 8.5t-34.5 23.5t-23 35t-8.5 43zM361 699q0 21 -14.5 35.5t-35.5 14.5t-35.5 -14.5
t-14.5 -35.5t14.5 -36t35.5 -15t35.5 15t14.5 36zM311 547q111 0 169 -59.5t58 -166.5v-321h-90v89q-29 -45 -81.5 -72t-123.5 -27q-83 0 -131 40.5t-48 107.5q0 32 10.5 59.5t34.5 50t61.5 38.5t91.5 24l186 29q-1 59 -36 91.5t-100 32.5q-63 0 -94.5 -25.5t-38.5 -67.5
h-93q3 36 18.5 68t44 56.5t69 38.5t93.5 14zM257 75q40 0 74.5 12.5t60.5 35t41 54t15 70.5v15l-165 -26q-37 -6 -61.5 -15t-38.5 -20.5t-20 -26t-6 -30.5q0 -30 26 -49.5t74 -19.5z" />
    <glyph glyph-name="AEacute" unicode="&#x1fc;" horiz-adv-x="1076" 
d="M669 964l29 -73l-234 -101l-31 73zM594 390l64 -301h376v-89h-461l-31 152h-340l-77 -152h-104l375 737h519v-89h-375l36 -169h264v-89h-246zM446 630l-198 -389h276z" />
    <glyph glyph-name="aeacute" unicode="&#x1fd;" horiz-adv-x="1022" 
d="M628 764l29 -73l-234 -101l-31 73zM971 237h-429q6 -74 52 -118.5t120 -44.5q52 0 90 20t55 56h97q-26 -72 -88 -116t-152 -44q-79 0 -138 33t-89 99q-29 -58 -91 -95t-148 -37q-90 0 -138 40.5t-48 110.5q0 63 45.5 104.5t145.5 52.5l200 21v14q0 60 -39 95t-105 35
q-64 0 -94.5 -27t-38.5 -66h-92q3 37 18.5 69t43.5 56t69 38t93 14q74 0 124 -26.5t76 -76.5q33 49 85 76t118 27q57 0 104.5 -19t81.5 -54.5t53 -85.5t19 -113v-38zM711 463q-34 0 -62.5 -11t-50.5 -31t-36 -47t-19 -59h332q-8 69 -53.5 108.5t-110.5 39.5zM256 75
q38 0 72 11t61 32.5t44 52t21 69.5l-166 -18q-75 -8 -103 -27.5t-28 -51.5q0 -29 23 -48.5t76 -19.5z" />
    <glyph glyph-name="Oslashacute" unicode="&#x1fe;" horiz-adv-x="814" 
d="M521 964l30 -73l-234 -101l-31 73zM681 747l63 -60l-65 -74q31 -46 48 -107t17 -138q0 -93 -25.5 -164t-70.5 -118.5t-107 -71.5t-134 -24q-62 0 -116 17.5t-98 52.5l-61 -70l-63 60l65 74q-31 46 -48 107t-17 137q0 94 25.5 165t71 118.5t107.5 71.5t134 24
q62 0 116 -17.5t97 -52.5zM162 368q0 -52 10 -94.5t27 -75.5l361 411q-32 28 -71.5 41.5t-81.5 13.5q-49 0 -93 -17.5t-78 -54t-54 -92.5t-20 -132zM652 368q0 53 -10 95.5t-27 76.5l-362 -412q32 -28 71.5 -41.5t82.5 -13.5q48 0 92.5 17.5t78.5 54t54 92t20 131.5z" />
    <glyph glyph-name="oslashacute" unicode="&#x1ff;" horiz-adv-x="643" 
d="M433 764l30 -73l-234 -101l-31 73zM582 487l-42 -44q52 -72 52 -175q0 -60 -18.5 -111.5t-53.5 -89t-85 -58.5t-113 -21q-51 0 -94 14t-76 40l-41 -43l-52 50l43 45q-25 35 -38 79t-13 95q0 60 18.5 111.5t54 89t85.5 58.5t113 21q51 0 93.5 -14t75.5 -39l40 41zM146 268
q0 -61 23 -105l258 266q-44 33 -105 33q-80 0 -128 -52.5t-48 -141.5zM322 74q39 0 71.5 13.5t55.5 39t35.5 61.5t12.5 80q0 63 -24 106l-257 -267q44 -33 106 -33z" />
    <glyph glyph-name="uni0218" unicode="&#x218;" horiz-adv-x="700" 
d="M427 405q100 -26 148 -74.5t48 -133.5q0 -45 -16.5 -83t-50 -65.5t-83.5 -43t-117 -15.5q-66 0 -117 17t-86.5 47t-53.5 72.5t-18 93.5h100q0 -32 12 -59.5t35 -48t55.5 -32t73.5 -11.5t72 10t52 27t31.5 40t10.5 49q0 49 -28 77t-97 46l-102 25q-109 27 -153.5 78
t-44.5 129q0 42 17 78.5t49.5 62.5t80 41t107.5 15q62 0 109.5 -15.5t80 -43.5t49 -66.5t16.5 -84.5h-100q0 54 -40 89.5t-116 35.5q-72 0 -112 -32.5t-40 -78.5q0 -45 27 -72t95 -45zM356 -54q29 0 46.5 -20t17.5 -58q0 -82 -87 -111l-14 -5l-16 42l14 5q25 8 38 16.5
t18 29.5q-9 -3 -20 -3q-23 0 -38 14t-15 37t15 38t41 15z" />
    <glyph glyph-name="uni0219" unicode="&#x219;" horiz-adv-x="539" 
d="M335 304q43 -9 72 -24t47 -35t26 -44.5t8 -52.5q0 -73 -53.5 -116.5t-155.5 -43.5q-57 0 -99 14t-70 38t-42 56.5t-14 69.5h92q1 -42 34 -69t103 -27q58 0 85 22t27 54t-20 50t-72 29l-91 19q-80 17 -111.5 57.5t-31.5 95.5q0 32 13 59.5t38.5 47.5t63 32t86.5 12
q48 0 86.5 -13t65 -36t40.5 -54t14 -67h-93q-1 37 -31 63t-83 26t-79.5 -20.5t-26.5 -49.5q0 -27 16.5 -44.5t69.5 -29.5zM277 -54q29 0 46.5 -20t17.5 -58q0 -81 -86 -111l-15 -5l-15 42l13 5q25 8 38 16.5t18 29.5q-9 -3 -20 -3q-23 0 -38 14t-15 37t15 38t41 15z" />
    <glyph glyph-name="uni021A" unicode="&#x21a;" horiz-adv-x="645" 
d="M30 648v89h585v-89h-245v-648h-96v648h-244zM320 -54q29 0 46.5 -20t17.5 -58q0 -81 -86 -111l-14 -5l-16 42l14 5q24 8 37 16.5t18 29.5q-9 -3 -20 -3q-23 0 -37.5 14t-14.5 37t15 38t40 15z" />
    <glyph glyph-name="uni021B" unicode="&#x21b;" horiz-adv-x="393" 
d="M233 709v-172h124v-77h-124v-460h-90v460h-107v77h107v172h90zM190 -54q29 0 46 -20t17 -58q0 -81 -86 -111l-14 -5l-16 42l14 5q24 8 37 16.5t18 29.5q-9 -3 -19 -3q-23 0 -38 14t-15 37t15 38t41 15z" />
    <glyph glyph-name="uni0232" unicode="&#x232;" horiz-adv-x="649" 
d="M171 898h308v-67h-308v67zM531 737h100l-259 -472v-265h-95v263l-259 474h103l205 -373z" />
    <glyph glyph-name="uni0233" unicode="&#x233;" horiz-adv-x="551" 
d="M122 698h308v-67h-308v67zM273 134l170 403h89l-301 -715h-89l84 200l-207 515h91z" />
    <glyph glyph-name="uni0237" unicode="&#x237;" horiz-adv-x="286" 
d="M-15 -211v85h56q32 0 46 15t14 44v604h90v-605q0 -70 -38 -106.5t-108 -36.5h-60z" />
    <glyph glyph-name="uni0259" unicode="&#x259;" horiz-adv-x="635" 
d="M315 547q60 0 109.5 -20t85 -56.5t55 -88t19.5 -115.5q0 -63 -19.5 -114t-54.5 -87.5t-84 -56t-108 -19.5q-60 0 -109 19t-84 54.5t-54.5 85.5t-19.5 113v34h437q-2 38 -15.5 69t-36 52.5t-53.5 33.5t-69 12q-55 0 -93.5 -20t-56.5 -56h-99q27 72 91.5 116t158.5 44z
M318 74q33 0 62 11.5t51.5 31.5t37 47t18.5 58h-340q8 -69 55.5 -108.5t115.5 -39.5z" />
    <glyph glyph-name="uni0272" unicode="&#x272;" horiz-adv-x="634" 
d="M352 548q45 0 82.5 -16t64.5 -47.5t42.5 -78t15.5 -106.5v-300h-90v284q0 87 -38 132.5t-101 45.5q-31 0 -58 -12.5t-47 -36t-31 -56t-11 -72.5v-348q0 -146 -144 -146h-35v85h29q32 0 46 15.5t14 44.5v601h90v-86q21 42 64.5 69.5t106.5 27.5z" />
    <glyph glyph-name="circumflex" unicode="&#x2c6;" horiz-adv-x="331" 
d="M181 761l150 -123l-50 -48l-115 95l-116 -95l-50 48l150 123h31z" />
    <glyph glyph-name="caron" unicode="&#x2c7;" horiz-adv-x="331" 
d="M166 666l115 95l50 -48l-150 -123h-31l-150 123l50 48z" />
    <glyph glyph-name="breve" unicode="&#x2d8;" horiz-adv-x="283" 
d="M142 605q-65 0 -98.5 37t-43.5 99l60 15q10 -43 30 -62t52 -19q31 0 51 19t30 62l60 -15q-10 -62 -43.5 -99t-97.5 -37z" />
    <glyph glyph-name="dotaccent" unicode="&#x2d9;" horiz-adv-x="122" 
d="M61 609q-26 0 -43.5 18t-17.5 43q0 26 17.5 43t43.5 17t43.5 -17t17.5 -43q0 -25 -17.5 -43t-43.5 -18z" />
    <glyph glyph-name="ring" unicode="&#x2da;" horiz-adv-x="219" 
d="M110 589q-23 0 -43 8.5t-35 23.5t-23.5 35t-8.5 43t8.5 42.5t23.5 34t35 23t43 8.5q24 0 44 -8.5t34.5 -23t22.5 -34t8 -42.5t-8 -43t-22.5 -35t-34.5 -23.5t-44 -8.5zM110 648q21 0 35 15t14 36t-14 35.5t-35 14.5q-22 0 -36.5 -14.5t-14.5 -35.5t14.5 -36t36.5 -15z
" />
    <glyph glyph-name="ogonek" unicode="&#x2db;" horiz-adv-x="185" 
d="M185 -201h-56q-65 0 -97 25t-32 69q0 36 25.5 66t93.5 57l66 -16q-33 -13 -55 -24.5t-34.5 -22t-17.5 -20.5t-5 -20q0 -21 18.5 -33t56.5 -12h37v-69z" />
    <glyph glyph-name="tilde" unicode="&#x2dc;" horiz-adv-x="342" 
d="M248 609q-19 0 -38 6t-46 24q-25 17 -35.5 21.5t-20.5 4.5q-36 0 -42 -50l-66 12q7 54 31.5 80.5t65.5 26.5q18 0 35 -6.5t46 -23.5q27 -17 38.5 -21.5t21.5 -4.5q31 0 38 50l66 -12q-7 -54 -31.5 -80.5t-62.5 -26.5z" />
    <glyph glyph-name="hungarumlaut" unicode="&#x2dd;" horiz-adv-x="320" 
d="M160 741l-106 -158l-54 37l104 159zM320 741l-106 -158l-55 37l104 159z" />
    <glyph glyph-name="gravecomb" unicode="&#x300;" horiz-adv-x="0" 
d="M0 663l-31 -73l-234 101l30 73z" />
    <glyph glyph-name="acutecomb" unicode="&#x301;" horiz-adv-x="0" 
d="M0 691l-234 -101l-31 73l236 101z" />
    <glyph glyph-name="uni0302" unicode="&#x302;" horiz-adv-x="0" 
d="M-150 761l150 -123l-50 -48l-115 95l-116 -95l-50 48l150 123h31z" />
    <glyph glyph-name="tildecomb" unicode="&#x303;" horiz-adv-x="0" 
d="M-94 609q-19 0 -38 6t-46 24q-13 8 -21.5 13t-14.5 8t-10.5 4t-9.5 1q-36 0 -42 -50l-66 12q7 54 31.5 80.5t65.5 26.5q18 0 35 -6.5t46 -23.5q27 -17 38.5 -21.5t21.5 -4.5q31 0 38 50l67 -12q-8 -54 -32.5 -80.5t-62.5 -26.5z" />
    <glyph glyph-name="uni0304" unicode="&#x304;" horiz-adv-x="0" 
d="M0 631h-307v67h307v-67z" />
    <glyph glyph-name="uni0306" unicode="&#x306;" horiz-adv-x="0" 
d="M-141 605q-65 0 -98.5 37t-43.5 99l60 15q10 -43 30 -62t52 -19q31 0 51 19t30 62l60 -15q-10 -62 -43.5 -99t-97.5 -37z" />
    <glyph glyph-name="uni0307" unicode="&#x307;" horiz-adv-x="0" 
d="M-61 609q-26 0 -43.5 18t-17.5 43q0 26 17.5 43t43.5 17t43.5 -17t17.5 -43q0 -25 -17.5 -43t-43.5 -18z" />
    <glyph glyph-name="uni0308" unicode="&#x308;" horiz-adv-x="0" 
d="M-292 608q-23 0 -40 17t-17 40t17 39.5t40 16.5t40 -16.5t17 -39.5t-17 -40t-40 -17zM-120 608q-24 0 -40.5 17t-16.5 40t16.5 39.5t40.5 16.5q23 0 40 -16.5t17 -39.5t-17 -40t-40 -17z" />
    <glyph glyph-name="uni030A" unicode="&#x30a;" horiz-adv-x="0" 
d="M-109 589q-23 0 -43 8.5t-35 23.5t-23.5 35t-8.5 43t8.5 42.5t23.5 34t35 23t43 8.5q24 0 44 -8.5t34.5 -23t22.5 -34t8 -42.5t-8 -43t-22.5 -35t-34.5 -23.5t-44 -8.5zM-109 648q21 0 35 15t14 36t-14 35.5t-35 14.5q-22 0 -36.5 -14.5t-14.5 -35.5t14.5 -36t36.5 -15z
" />
    <glyph glyph-name="uni030B" unicode="&#x30b;" horiz-adv-x="0" 
d="M-160 741l-106 -158l-54 37l104 159zM0 741l-106 -158l-55 37l104 159z" />
    <glyph glyph-name="uni030C" unicode="&#x30c;" horiz-adv-x="0" 
d="M-165 666l115 95l50 -48l-150 -123h-31l-150 123l50 48z" />
    <glyph glyph-name="uni0312" unicode="&#x312;" horiz-adv-x="0" 
d="M-92 719q23 0 38 -14.5t15 -36.5q0 -23 -15 -38t-41 -15q-29 0 -46.5 19.5t-17.5 57.5q0 83 87 112l14 5l16 -42l-14 -5q-25 -9 -38 -17.5t-18 -28.5q9 3 20 3z" />
    <glyph glyph-name="uni0315" unicode="&#x315;" horiz-adv-x="0" 
d="M-12 572h-59v176h72z" />
    <glyph glyph-name="uni0326" unicode="&#x326;" horiz-adv-x="0" 
d="M-100 -64q29 0 46.5 -19.5t17.5 -57.5q0 -81 -86 -112l-15 -5l-15 42l14 5q24 9 37 17.5t18 28.5q-9 -3 -20 -3q-23 0 -37.5 14.5t-14.5 36.5q0 24 15 38.5t40 14.5z" />
    <glyph glyph-name="uni0327" unicode="&#x327;" horiz-adv-x="0" 
d="M-88 18l-24 -71q57 0 87.5 -24.5t30.5 -72.5t-38 -74t-98 -26h-81v52h68q39 0 56.5 13t17.5 36t-16 35.5t-53 12.5h-56l46 127z" />
    <glyph glyph-name="uni0328" unicode="&#x328;" horiz-adv-x="0" 
d="M1 -201h-57q-65 0 -97 25t-32 69q0 36 25.5 66t93.5 57l67 -16q-34 -13 -56 -24.5t-34.5 -22t-17.5 -20.5t-5 -20q0 -21 18.5 -33t56.5 -12h38v-69z" />
    <glyph glyph-name="uni0394" unicode="&#x394;" horiz-adv-x="672" 
d="M291 704h90l268 -623v-81h-626v81zM541 89l-205 497l-205 -497h410z" />
    <glyph glyph-name="uni03A9" unicode="&#x3a9;" horiz-adv-x="749" 
d="M705 390q0 -94 -39.5 -172.5t-111.5 -132.5h150v-85h-278v93q88 61 129.5 132.5t41.5 154.5q0 53 -15 97t-43.5 76t-70 50t-94.5 18t-94.5 -18t-69.5 -50t-42.5 -76t-14.5 -97q0 -83 41 -154.5t129 -132.5v-93h-278v85h149q-72 54 -111 132.5t-39 172.5q0 71 23.5 129.5
t67 101t104 66t135.5 23.5t136 -23.5t104.5 -66t67 -101t23.5 -129.5z" />
    <glyph glyph-name="uni03BC" unicode="&#x3bc;" horiz-adv-x="648" 
d="M481 537h90v-537h-90v98q-10 -22 -27.5 -42t-40 -35t-50.5 -24t-60 -9q-70 0 -122 37v-215h-90v727h90v-279q0 -91 40 -137t107 -46q33 0 61.5 12.5t48.5 36t31.5 57t11.5 75.5v281z" />
    <glyph glyph-name="pi" unicode="&#x3c0;" horiz-adv-x="677" 
d="M649 537v-85h-126v-300q0 -67 69 -67h57v-85h-78q-66 0 -102 35.5t-36 98.5v318h-187l-35 -452h-90l35 452h-140v85h633z" />
    <glyph glyph-name="Wgrave" unicode="&#x1e80;" horiz-adv-x="1043" 
d="M400 964l236 -101l-31 -73l-234 101zM755 158l172 579h98l-219 -737h-104l-184 599l-191 -599h-98l-211 737h101l165 -580l184 580h109z" />
    <glyph glyph-name="wgrave" unicode="&#x1e81;" horiz-adv-x="834" 
d="M296 764l235 -101l-31 -73l-234 101zM601 120l133 417h87l-170 -537h-87l-148 418l-147 -418h-86l-169 537h88l132 -416l143 416h82z" />
    <glyph glyph-name="Wacute" unicode="&#x1e82;" horiz-adv-x="1043" 
d="M638 964l29 -73l-234 -101l-31 73zM755 158l172 579h98l-219 -737h-104l-184 599l-191 -599h-98l-211 737h101l165 -580l184 580h109z" />
    <glyph glyph-name="wacute" unicode="&#x1e83;" horiz-adv-x="834" 
d="M533 764l30 -73l-234 -101l-31 73zM601 120l133 417h87l-170 -537h-87l-148 418l-147 -418h-86l-169 537h88l132 -416l143 416h82z" />
    <glyph glyph-name="Wdieresis" unicode="&#x1e84;" horiz-adv-x="1043" 
d="M436 808q-23 0 -40 17t-17 40t17 39.5t40 16.5t40 -16.5t17 -39.5t-17 -40t-40 -17zM608 808q-24 0 -40.5 17t-16.5 40t16.5 39.5t40.5 16.5q23 0 40 -16.5t17 -39.5t-17 -40t-40 -17zM755 158l172 579h98l-219 -737h-104l-184 599l-191 -599h-98l-211 737h101l165 -580
l184 580h109z" />
    <glyph glyph-name="wdieresis" unicode="&#x1e85;" horiz-adv-x="834" 
d="M332 608q-24 0 -40.5 17t-16.5 40t16.5 39.5t40.5 16.5q23 0 40 -16.5t17 -39.5t-17 -40t-40 -17zM503 608q-23 0 -39.5 17t-16.5 40t16.5 39.5t39.5 16.5t40 -16.5t17 -39.5t-17 -40t-40 -17zM601 120l133 417h87l-170 -537h-87l-148 418l-147 -418h-86l-169 537h88
l132 -416l143 416h82z" />
    <glyph glyph-name="Germandbls" unicode="&#x1e9e;" horiz-adv-x="792" 
d="M694 704l-148 -263q97 -18 150.5 -76.5t53.5 -141.5q0 -106 -66 -164.5t-199 -58.5h-100v84h95q88 0 130 39.5t42 104.5q0 28 -12.5 53t-37.5 44t-61 30t-83 11h-42v10l152 272q-40 8 -95 8q-146 0 -211.5 -69t-65.5 -192v-395h-96v407q0 166 98.5 253t289.5 87
q25 0 53 -2t56 -6.5t53 -10.5t44 -14v-10z" />
    <glyph glyph-name="uni1EA0" unicode="&#x1ea0;" horiz-adv-x="721" 
d="M414 737l286 -737h-99l-63 164h-358l-62 -164h-97l287 737h106zM359 635l-145 -381h290zM359 -72q26 0 43.5 -17.5t17.5 -42.5q0 -26 -17.5 -43.5t-43.5 -17.5t-43.5 17.5t-17.5 43.5q0 25 17.5 42.5t43.5 17.5z" />
    <glyph glyph-name="uni1EA1" unicode="&#x1ea1;" horiz-adv-x="616" 
d="M311 547q111 0 169 -59.5t58 -166.5v-321h-90v89q-29 -45 -81.5 -72t-123.5 -27q-83 0 -131 40.5t-48 107.5q0 32 10.5 59.5t34.5 50t61.5 38.5t91.5 24l186 29q-1 59 -36 91.5t-100 32.5q-63 0 -94.5 -25.5t-38.5 -67.5h-93q3 36 18.5 68t44 56.5t69 38.5t93.5 14z
M257 75q40 0 74.5 12.5t60.5 35t41 54t15 70.5v15l-165 -26q-37 -6 -61.5 -15t-38.5 -20.5t-20 -26t-6 -30.5q0 -30 26 -49.5t74 -19.5zM324 -72q25 0 43 -17.5t18 -42.5q0 -26 -18 -43.5t-43 -17.5q-26 0 -43.5 17.5t-17.5 43.5q0 25 17.5 42.5t43.5 17.5z" />
    <glyph glyph-name="uni1EB8" unicode="&#x1eb8;" horiz-adv-x="670" 
d="M207 368v-278h403v-90h-499v737h497v-90h-401v-189h286v-90h-286zM361 -72q25 0 43 -17.5t18 -42.5q0 -26 -18 -43.5t-43 -17.5q-26 0 -43.5 17.5t-17.5 43.5q0 25 17.5 42.5t43.5 17.5z" />
    <glyph glyph-name="uni1EB9" unicode="&#x1eb9;" horiz-adv-x="635" 
d="M585 241h-437q2 -38 15.5 -69t36 -52.5t53.5 -33.5t68 -12q55 0 93.5 20t57.5 56h98q-26 -72 -91 -116t-158 -44q-60 0 -110 20t-85.5 56.5t-55 88t-19.5 115.5q0 63 19.5 114t55 87.5t84.5 56t108 19.5t108.5 -19t84.5 -54.5t54.5 -85.5t19.5 -113v-34zM318 463
q-33 0 -62 -11.5t-51.5 -31.5t-36.5 -47t-19 -58h340q-8 69 -55.5 108.5t-115.5 39.5zM319 -72q26 0 43.5 -17.5t17.5 -42.5q0 -26 -17.5 -43.5t-43.5 -17.5t-43.5 17.5t-17.5 43.5q0 25 17.5 42.5t43.5 17.5z" />
    <glyph glyph-name="uni1EBC" unicode="&#x1ebc;" horiz-adv-x="670" 
d="M296 865q-35 0 -42 -50l-65 12q6 54 31 80.5t66 26.5q17 0 34.5 -6.5t46.5 -23.5q27 -17 38.5 -21.5t21.5 -4.5q30 0 37 50l66 -12q-6 -54 -31 -80.5t-62 -26.5q-19 0 -38 6t-47 24q-25 17 -35 21.5t-21 4.5zM207 368v-278h403v-90h-499v737h497v-90h-401v-189h286v-90
h-286z" />
    <glyph glyph-name="uni1EBD" unicode="&#x1ebd;" horiz-adv-x="635" 
d="M255 665q-35 0 -42 -50l-65 12q6 54 31 80.5t66 26.5q17 0 34.5 -6.5t46.5 -23.5q27 -17 38.5 -21.5t21.5 -4.5q30 0 37 50l66 -12q-6 -54 -31 -80.5t-62 -26.5q-19 0 -38 6t-47 24q-25 17 -35 21.5t-21 4.5zM585 241h-437q2 -38 15.5 -69t36 -52.5t53.5 -33.5t68 -12
q55 0 93.5 20t57.5 56h98q-26 -72 -91 -116t-158 -44q-60 0 -110 20t-85.5 56.5t-55 88t-19.5 115.5q0 63 19.5 114t55 87.5t84.5 56t108 19.5t108.5 -19t84.5 -54.5t54.5 -85.5t19.5 -113v-34zM318 463q-33 0 -62 -11.5t-51.5 -31.5t-36.5 -47t-19 -58h340
q-8 69 -55.5 108.5t-115.5 39.5z" />
    <glyph glyph-name="uni1ECA" unicode="&#x1eca;" horiz-adv-x="318" 
d="M207 0h-96v737h96v-737zM159 -193q-26 0 -43.5 17.5t-17.5 43.5q0 25 17.5 42.5t43.5 17.5q25 0 43 -17.5t18 -42.5q0 -26 -18 -43.5t-43 -17.5z" />
    <glyph glyph-name="uni1ECB" unicode="&#x1ecb;" horiz-adv-x="268" 
d="M134 603q-28 0 -45 18t-17 44t17 44t45 18q27 0 44.5 -18t17.5 -44t-17.5 -44t-44.5 -18zM179 0h-90v544q19 -11 45 -11q15 0 25.5 3t19.5 8v-544zM136 -193q-26 0 -43.5 17.5t-17.5 43.5q0 25 17.5 42.5t43.5 17.5t43.5 -17.5t17.5 -42.5q0 -26 -17.5 -43.5t-43.5 -17.5
z" />
    <glyph glyph-name="uni1ECC" unicode="&#x1ecc;" horiz-adv-x="826" 
d="M413 -10q-74 0 -137 25t-109 73t-72 118.5t-26 161.5q0 92 26 162.5t72 118.5t109 73t137 25t137 -25t109 -73t72 -118.5t26 -162.5q0 -91 -26 -161.5t-72 -118.5t-109 -73t-137 -25zM413 79q48 0 92.5 18t78 54t54 90t20.5 127t-20.5 127.5t-54 90.5t-78 54t-92.5 18
t-92.5 -18t-78.5 -54t-54 -90.5t-20 -127.5t20 -127t54 -90t78.5 -54t92.5 -18zM413 -193q-26 0 -43.5 17.5t-17.5 43.5q0 25 17.5 42.5t43.5 17.5q25 0 43 -17.5t18 -42.5q0 -26 -18 -43.5t-43 -17.5z" />
    <glyph glyph-name="uni1ECD" unicode="&#x1ecd;" horiz-adv-x="643" 
d="M322 -12q-63 0 -113 21t-85.5 58.5t-54 89t-18.5 111.5t18.5 111.5t54 89t85.5 58.5t113 21t113 -21t85 -58.5t53.5 -89t18.5 -111.5t-18.5 -111.5t-53.5 -89t-85 -58.5t-113 -21zM322 74q39 0 71.5 13.5t55.5 39t35.5 61.5t12.5 80t-12.5 80t-35.5 61.5t-55.5 39
t-71.5 13.5q-80 0 -128 -52.5t-48 -141.5t48 -141.5t128 -52.5zM322 -193q-26 0 -43.5 17.5t-17.5 43.5q0 25 17.5 42.5t43.5 17.5t43.5 -17.5t17.5 -42.5q0 -26 -17.5 -43.5t-43.5 -17.5z" />
    <glyph glyph-name="uni1EE4" unicode="&#x1ee4;" horiz-adv-x="747" 
d="M373 -10q-136 0 -204.5 83t-68.5 230v434h96v-438q0 -57 14 -98.5t38 -68.5t56.5 -40t70.5 -13t70.5 13t56.5 40t37.5 68.5t13.5 98.5v438h93v-434q0 -147 -68 -230t-205 -83zM373 -193q-26 0 -43.5 17.5t-17.5 43.5q0 25 17.5 42.5t43.5 17.5t43.5 -17.5t17.5 -42.5
q0 -26 -17.5 -43.5t-43.5 -17.5z" />
    <glyph glyph-name="uni1EE5" unicode="&#x1ee5;" horiz-adv-x="616" 
d="M435 537h90v-537h-90v81q-21 -41 -62 -67t-99 -26q-43 0 -79 16.5t-62 48t-40.5 78t-14.5 106.5v300h90v-284q0 -87 35.5 -132.5t95.5 -45.5q54 0 92 41.5t44 111.5v309zM301 -72q26 0 43.5 -17.5t17.5 -42.5q0 -26 -17.5 -43.5t-43.5 -17.5t-43.5 17.5t-17.5 43.5
q0 25 17.5 42.5t43.5 17.5z" />
    <glyph glyph-name="Ygrave" unicode="&#x1ef2;" horiz-adv-x="649" 
d="M202 964l236 -101l-31 -73l-234 101zM531 737h100l-259 -472v-265h-95v263l-259 474h103l205 -373z" />
    <glyph glyph-name="ygrave" unicode="&#x1ef3;" horiz-adv-x="551" 
d="M153 764l236 -101l-31 -73l-234 101zM273 134l170 403h89l-301 -715h-89l84 200l-207 515h91z" />
    <glyph glyph-name="uni1EF8" unicode="&#x1ef8;" horiz-adv-x="649" 
d="M262 865q-35 0 -42 -50l-65 12q6 54 31 80.5t66 26.5q17 0 34.5 -6.5t45.5 -23.5t39.5 -21.5t21.5 -4.5q30 0 37 50l66 -12q-6 -54 -31 -80.5t-63 -26.5q-18 0 -37 6t-47 24q-25 17 -35 21.5t-21 4.5zM531 737h100l-259 -472v-265h-95v263l-259 474h103l205 -373z" />
    <glyph glyph-name="uni1EF9" unicode="&#x1ef9;" horiz-adv-x="551" 
d="M213 665q-35 0 -42 -50l-65 12q6 54 31 80.5t66 26.5q17 0 34.5 -6.5t46.5 -23.5q27 -17 38.5 -21.5t21.5 -4.5q30 0 37 50l66 -12q-6 -54 -31 -80.5t-62 -26.5q-19 0 -38 6t-47 24q-25 17 -35 21.5t-21 4.5zM273 134l170 403h89l-301 -715h-89l84 200l-207 515h91z" />
    <glyph glyph-name="uni2009" unicode="&#x2009;" horiz-adv-x="33" 
 />
    <glyph glyph-name="endash" unicode="&#x2013;" horiz-adv-x="500" 
d="M500 253h-500v72h500v-72z" />
    <glyph glyph-name="emdash" unicode="&#x2014;" horiz-adv-x="1000" 
d="M1000 253h-1000v72h1000v-72z" />
    <glyph glyph-name="quoteleft" unicode="&#x2018;" horiz-adv-x="181" 
d="M100 663q26 0 43 -16.5t17 -41.5q0 -26 -17.5 -43t-46.5 -17q-33 0 -52.5 24.5t-19.5 70.5q0 100 98 134l16 5l18 -48l-16 -5q-30 -11 -45 -26.5t-19 -40.5q9 4 24 4z" />
    <glyph glyph-name="quoteright" unicode="&#x2019;" horiz-adv-x="181" 
d="M85 779q33 0 52.5 -24t19.5 -70q0 -100 -98 -134l-16 -6l-18 48l16 6q30 11 45 26t19 40q-9 -4 -24 -4q-26 0 -42.5 16.5t-16.5 41.5q0 27 17 43.5t46 16.5z" />
    <glyph glyph-name="quotesinglbase" unicode="&#x201a;" horiz-adv-x="181" 
d="M87 109q33 0 53 -24.5t20 -70.5q0 -100 -99 -134l-16 -6l-17 48l15 6q30 11 45 26t19 40q-9 -4 -24 -4q-26 0 -42.5 16.5t-16.5 41.5q0 27 17 44t46 17z" />
    <glyph glyph-name="quotedblleft" unicode="&#x201c;" horiz-adv-x="362" 
d="M100 663q26 0 43 -16.5t17 -41.5q0 -26 -17.5 -43t-46.5 -17q-33 0 -52.5 24.5t-19.5 70.5q0 100 98 134l16 5l18 -48l-16 -5q-30 -11 -45 -26.5t-19 -40.5q9 4 24 4zM281 663q27 0 43.5 -16.5t16.5 -41.5q0 -26 -17 -43t-46 -17q-33 0 -53 24.5t-20 70.5q0 100 98 134
l16 5l18 -48l-16 -5q-30 -11 -45 -26.5t-19 -40.5q9 4 24 4z" />
    <glyph glyph-name="quotedblright" unicode="&#x201d;" horiz-adv-x="362" 
d="M85 779q33 0 52.5 -24t19.5 -70q0 -100 -98 -134l-16 -6l-18 48l16 6q30 11 45 26t19 40q-9 -4 -24 -4q-26 0 -42.5 16.5t-16.5 41.5q0 27 17 43.5t46 16.5zM266 779q33 0 53 -24t20 -70q0 -100 -99 -134l-16 -6l-17 48l15 6q30 11 45 26t19 40q-9 -4 -24 -4
q-26 0 -42.5 16.5t-16.5 41.5q0 27 17 43.5t46 16.5z" />
    <glyph glyph-name="quotedblbase" unicode="&#x201e;" horiz-adv-x="362" 
d="M87 109q33 0 53 -24.5t20 -70.5q0 -100 -99 -134l-16 -6l-17 48l15 6q30 11 45 26t19 40q-9 -4 -24 -4q-26 0 -42.5 16.5t-16.5 41.5q0 27 17 44t46 17zM268 109q33 0 53 -24.5t20 -70.5q0 -100 -98 -134l-17 -6l-17 48l16 6q30 11 45 26t19 40q-9 -4 -24 -4
q-27 0 -43.5 16.5t-16.5 41.5q0 27 17 44t46 17z" />
    <glyph glyph-name="dagger" unicode="&#x2020;" horiz-adv-x="571" 
d="M333 537h213v-81h-213v-646h-95v646h-213v81h213v232h95v-232z" />
    <glyph glyph-name="daggerdbl" unicode="&#x2021;" horiz-adv-x="571" 
d="M546 537v-81h-213v-332h213v-81h-213v-233h-95v233h-213v81h213v332h-213v81h213v232h95v-232h213z" />
    <glyph glyph-name="bullet" unicode="&#x2022;" horiz-adv-x="307" 
d="M154 280q-20 0 -37.5 7.5t-30.5 21t-20.5 31t-7.5 37.5q0 40 28 67.5t68 27.5t67.5 -27.5t27.5 -67.5t-27.5 -68.5t-67.5 -28.5z" />
    <glyph glyph-name="ellipsis" unicode="&#x2026;" horiz-adv-x="755" 
d="M116 -12q-30 0 -51 21.5t-21 51.5q0 31 21 51.5t51 20.5t51 -20.5t21 -51.5q0 -30 -21 -51.5t-51 -21.5zM377 -12q-30 0 -51 21.5t-21 51.5q0 31 21 51.5t51 20.5t51 -20.5t21 -51.5q0 -30 -21 -51.5t-51 -21.5zM639 -12q-29 0 -50.5 21.5t-21.5 51.5q0 31 21.5 51.5
t50.5 20.5q31 0 51.5 -20.5t20.5 -51.5q0 -30 -20.5 -51.5t-51.5 -21.5z" />
    <glyph glyph-name="perthousand" unicode="&#x2030;" horiz-adv-x="1136" 
d="M178 402q-34 0 -63 11.5t-50 32.5t-32.5 50t-11.5 63q0 35 11.5 63.5t32.5 49.5t50 32.5t63 11.5q35 0 64 -11.5t49.5 -32.5t32 -49.5t11.5 -63.5q0 -34 -11.5 -63t-32 -50t-49.5 -32.5t-64 -11.5zM157 0h-98l555 704h98zM178 470q18 0 34.5 7t28.5 19t19 28.5t7 35.5
q0 38 -26 63.5t-63 25.5q-38 0 -63.5 -25.5t-25.5 -63.5q0 -19 7 -35.5t19 -28.5t28 -19t35 -7zM611 -12q-34 0 -63 12t-50 33t-32.5 50t-11.5 63q0 35 11.5 63.5t32.5 49.5t50 32.5t63 11.5q35 0 64 -11.5t49.5 -32.5t32 -49.5t11.5 -63.5q0 -34 -11.5 -63t-32 -50
t-49.5 -33t-64 -12zM972 -12q-34 0 -63 12t-50 33t-33 50t-12 63q0 35 12 63.5t33 49.5t50 32.5t63 11.5q35 0 64 -11.5t49.5 -32.5t32 -49.5t11.5 -63.5q0 -34 -11.5 -63t-32 -50t-49.5 -33t-64 -12zM611 56q37 0 63 26t26 65q0 38 -26 63.5t-63 25.5q-38 0 -63.5 -25.5
t-25.5 -63.5q0 -39 25.5 -65t63.5 -26zM972 56q37 0 63 26t26 65q0 38 -26 63.5t-63 25.5q-19 0 -35.5 -7t-28.5 -19t-19 -28t-7 -35q0 -39 26 -65t64 -26z" />
    <glyph glyph-name="guilsinglleft" unicode="&#x2039;" horiz-adv-x="307" 
d="M242 497l52 -50l-184 -178l184 -179l-52 -50l-228 223v10z" />
    <glyph glyph-name="guilsinglright" unicode="&#x203a;" horiz-adv-x="307" 
d="M14 447l52 50l228 -224v-10l-228 -223l-52 50l183 179z" />
    <glyph glyph-name="fraction" unicode="&#x2044;" horiz-adv-x="166" 
d="M352 675l-483 -685l-55 39l482 685z" />
    <glyph glyph-name="uni2070" unicode="&#x2070;" horiz-adv-x="380" 
d="M190 382q-69 0 -109.5 38.5t-40.5 108.5v102q0 70 40.5 108.5t109.5 38.5t109.5 -38.5t40.5 -108.5v-102q0 -70 -40.5 -108.5t-109.5 -38.5zM190 449q32 0 53 22.5t21 61.5v94q0 38 -21 60.5t-53 22.5t-53 -22t-21 -61v-94q0 -39 21 -61.5t53 -22.5z" />
    <glyph glyph-name="uni2074" unicode="&#x2074;" horiz-adv-x="379" 
d="M296 519h61v-57h-61v-73h-70v73h-195v57l195 246h70v-246zM226 665l-115 -146h115v146z" />
    <glyph glyph-name="uni2075" unicode="&#x2075;" horiz-adv-x="380" 
d="M203 635q60 0 98.5 -33.5t38.5 -90.5t-40 -92.5t-105 -35.5q-59 0 -97 26.5t-55 67.5l69 22q11 -24 32 -36.5t47 -12.5q30 0 52 18t22 47t-21 46.5t-53 17.5q-22 0 -39 -8.5t-28 -22.5h-60v217h251v-68h-188v-81q17 10 36.5 14.5t39.5 4.5z" />
    <glyph glyph-name="uni2076" unicode="&#x2076;" horiz-adv-x="380" 
d="M211 633q60 0 97 -32.5t37 -91.5q0 -57 -41 -91.5t-107 -34.5q-72 0 -112.5 39t-40.5 108v58q0 82 44.5 129.5t129.5 47.5h88v-68h-91q-45 0 -70.5 -25.5t-25.5 -64.5v-9q14 16 37 25.5t55 9.5zM195 444q34 0 54 18.5t20 48.5q0 31 -20 49t-54 18t-54 -18t-20 -49
q0 -30 20 -48.5t54 -18.5z" />
    <glyph glyph-name="uni2077" unicode="&#x2077;" horiz-adv-x="380" 
d="M42 696v69h295v-69l-159 -307h-84l159 307h-211z" />
    <glyph glyph-name="uni2078" unicode="&#x2078;" horiz-adv-x="380" 
d="M274 599q30 -14 49 -39t19 -62q0 -51 -41 -82.5t-111 -31.5t-111 31.5t-41 82.5q0 36 19 61.5t49 39.5q-20 11 -32 30t-12 45q0 40 33 68t95 28q61 0 94 -27.5t33 -68.5q0 -26 -11.5 -45t-31.5 -30zM190 709q-27 0 -43.5 -12.5t-16.5 -33.5q0 -20 17 -32.5t43 -12.5
t43 12.5t17 32.5q0 21 -16.5 33.5t-43.5 12.5zM190 444q34 0 54 17t20 43t-20.5 42.5t-53.5 16.5q-35 0 -54.5 -16.5t-19.5 -42.5q0 -27 20 -43.5t54 -16.5z" />
    <glyph glyph-name="uni2079" unicode="&#x2079;" horiz-adv-x="380" 
d="M184 771q71 0 111.5 -38.5t40.5 -107.5v-59q0 -82 -44 -129.5t-129 -47.5h-88v68h90q45 0 70.5 26t25.5 65v8q-14 -16 -36.5 -25t-54.5 -9q-60 0 -97 32t-37 92q0 57 40.5 91t107.5 34zM186 576q33 0 53.5 18t20.5 48q0 32 -20.5 50t-53.5 18q-34 0 -54.5 -18t-20.5 -50
q0 -30 20.5 -48t54.5 -18z" />
    <glyph glyph-name="uni2080" unicode="&#x2080;" horiz-adv-x="380" 
d="M190 -130q-69 0 -109.5 38.5t-40.5 108.5v102q0 70 40.5 109t109.5 39t109.5 -39t40.5 -109v-102q0 -70 -40.5 -108.5t-109.5 -38.5zM190 -63q32 0 53 22.5t21 61.5v94q0 39 -21 61t-53 22t-53 -22t-21 -61v-94q0 -39 21 -61.5t53 -22.5z" />
    <glyph glyph-name="uni2081" unicode="&#x2081;" horiz-adv-x="380" 
d="M244 256v-308h95v-68h-284v68h117v240h-111v68h183z" />
    <glyph glyph-name="uni2082" unicode="&#x2082;" horiz-adv-x="379" 
d="M158 -52h179v-68h-289v63l145 111q36 29 49 47t13 37q0 23 -16.5 39t-47.5 16t-50 -17.5t-19 -44.5h-75q0 57 38.5 93.5t107.5 36.5q66 0 102 -33.5t36 -82.5q0 -16 -4 -31t-14.5 -31t-29 -34t-47.5 -41z" />
    <glyph glyph-name="uni2083" unicode="&#x2083;" horiz-adv-x="380" 
d="M320 188l-97 -78q52 -5 82.5 -36t30.5 -79q0 -27 -11 -49t-30.5 -38t-46.5 -25t-59 -9q-60 0 -99 27t-54 71l69 21q10 -25 30.5 -38.5t49.5 -13.5q32 0 53 17.5t21 46.5q0 26 -19 43t-50 17q-22 0 -40 -10l-31 37l122 96h-185v68h264v-68z" />
    <glyph glyph-name="uni2084" unicode="&#x2084;" horiz-adv-x="379" 
d="M296 10h61v-57h-61v-73h-70v73h-195v57l195 246h70v-246zM226 155l-115 -145h115v145z" />
    <glyph glyph-name="uni2085" unicode="&#x2085;" horiz-adv-x="380" 
d="M203 126q60 0 98.5 -34t38.5 -91q0 -56 -40 -91.5t-105 -35.5q-59 0 -97 26t-55 68l69 22q11 -24 32 -36.5t47 -12.5q30 0 52 18t22 47t-21 46.5t-53 17.5q-22 0 -39 -8.5t-28 -22.5h-60v217h251v-68h-188v-81q17 10 36.5 14.5t39.5 4.5z" />
    <glyph glyph-name="uni2086" unicode="&#x2086;" horiz-adv-x="380" 
d="M211 124q60 0 97 -32.5t37 -91.5q0 -57 -41 -91.5t-107 -34.5q-72 0 -112.5 39t-40.5 108v58q0 82 44.5 129.5t129.5 47.5h88v-68h-91q-45 0 -70.5 -25.5t-25.5 -64.5v-9q14 16 37 25.5t55 9.5zM195 -66q34 0 54 18.5t20 49.5t-20 49t-54 18t-54 -18t-20 -49t20 -49.5
t54 -18.5z" />
    <glyph glyph-name="uni2087" unicode="&#x2087;" horiz-adv-x="380" 
d="M42 187v69h295v-69l-159 -307h-84l159 307h-211z" />
    <glyph glyph-name="uni2088" unicode="&#x2088;" horiz-adv-x="380" 
d="M273 90q30 -14 49.5 -39t19.5 -62q0 -51 -41 -82.5t-111 -31.5t-111 31.5t-41 82.5q0 37 19.5 62t49.5 39q-20 11 -32.5 30t-12.5 45q0 41 33 68.5t95 27.5q61 0 94 -27.5t33 -68.5q0 -26 -12 -44.5t-32 -30.5zM190 201q-27 0 -43.5 -13t-16.5 -33t17 -32.5t43 -12.5
t43 12.5t17 32.5t-16.5 33t-43.5 13zM190 -65q34 0 54 17t20 43t-20.5 43t-53.5 17q-35 0 -54.5 -17t-19.5 -43t20 -43t54 -17z" />
    <glyph glyph-name="uni2089" unicode="&#x2089;" horiz-adv-x="380" 
d="M184 262q71 0 111.5 -38.5t40.5 -107.5v-60q0 -81 -44 -128.5t-129 -47.5h-88v68h90q45 0 70.5 25.5t25.5 65.5v8q-14 -16 -36.5 -25t-54.5 -9q-60 0 -97 32t-37 92q0 57 40.5 91t107.5 34zM186 67q33 0 53.5 18t20.5 48q0 32 -20.5 50t-53.5 18q-34 0 -54.5 -18
t-20.5 -50q0 -30 20.5 -48t54.5 -18z" />
    <glyph glyph-name="Euro" unicode="&#x20ac;" 
d="M365 68q33 0 60.5 11t47.5 31t31 48t12 61h93q0 -50 -17 -92.5t-48.5 -73.5t-76 -48.5t-100.5 -17.5t-101.5 17.5t-78 49.5t-50 77.5t-17.5 101.5v3h-71v76h71v79h-71v70h71v11q0 56 17.5 101.5t49.5 77.5t77 49.5t100 17.5q56 0 101.5 -17.5t77.5 -48.5t49 -73.5
t17 -92.5h-93q-1 33 -12.5 60.5t-31 47.5t-47 31t-60.5 11q-34 0 -62 -11.5t-48 -33t-31.5 -52.5t-11.5 -70v-8h228v-70h-228v-79h177v-76h-177v-1q0 -38 11 -69t31.5 -52.5t48.5 -33.5t62 -12z" />
    <glyph glyph-name="uni2113" unicode="&#x2113;" horiz-adv-x="429" 
d="M193 174q14 -52 40.5 -70.5t68.5 -18.5h73v-85h-84q-66 0 -110.5 28.5t-67.5 101.5l-59 -32l-38 70l80 43q-4 29 -6 62.5t-2 72.5q0 190 48.5 281t135.5 91q63 0 97 -45t34 -123q0 -58 -16 -113.5t-44.5 -104t-67 -89t-82.5 -69.5zM269 640q-18 0 -34 -15.5t-29 -50.5
t-20.5 -91t-7.5 -137q0 -23 0.5 -43.5t1.5 -38.5q62 50 99.5 123t37.5 161q0 51 -14 71.5t-34 20.5z" />
    <glyph glyph-name="uni2116" unicode="&#x2116;" horiz-adv-x="1127" 
d="M933 382q-36 0 -66 13t-52 35.5t-34.5 53.5t-12.5 67t12.5 67t34.5 53.5t52 35t66 12.5q35 0 65.5 -12.5t52.5 -35t34.5 -53.5t12.5 -67t-12.5 -67t-34.5 -53.5t-52.5 -35.5t-65.5 -13zM192 711l386 -438v438h96v-711h-96v125l-372 421v-546h-95v711h81zM933 655
q-43 0 -71 -29t-28 -75t28 -75.5t71 -29.5t71 29t28 76q0 46 -28 75t-71 29zM1075 272h-284v61h284v-61z" />
    <glyph glyph-name="trademark" unicode="&#x2122;" horiz-adv-x="657" 
d="M126 659h-85v52h231v-52h-85v-224h-61v224zM472 581l97 130h47v-276h-59v174l-84 -110h-2l-84 110v-174h-59v276h47z" />
    <glyph glyph-name="estimated" unicode="&#x212e;" horiz-adv-x="829" 
d="M208 314v-201q49 -48 98 -68.5t109 -20.5q89 0 159 44.5t108 117.5l39 -22q-43 -85 -123 -134.5t-183 -49.5q-73 0 -136.5 28t-110 77.5t-73 116.5t-26.5 146t26.5 147t73 117.5t110 77.5t136.5 28t136 -28.5t109.5 -79t73 -120t26.5 -151.5v-11t-1 -14h-551zM621 357
v225q-49 49 -97.5 70t-108.5 21t-109 -21t-98 -69v-226h413z" />
    <glyph glyph-name="oneeighth" unicode="&#x215b;" horiz-adv-x="908" 
d="M194 29l483 685l55 -39l-482 -685zM339 393v-68h-284v68h117v241h-111v67h183v-308h95zM799 210q30 -14 49 -39t19 -62q0 -51 -40.5 -82.5t-111.5 -31.5q-70 0 -110.5 31.5t-40.5 82.5q0 37 19 62t49 39q-20 11 -32.5 30t-12.5 45q0 41 33.5 68.5t94.5 27.5
q62 0 95 -27.5t33 -68.5q0 -26 -12 -45t-32 -30zM715 321q-27 0 -43 -13t-16 -33t16.5 -32.5t42.5 -12.5q27 0 43.5 12.5t16.5 32.5t-16.5 33t-43.5 13zM715 55q35 0 55 17t20 43t-20.5 43t-54.5 17t-54 -17t-20 -43t20 -43t54 -17z" />
    <glyph glyph-name="threeeighths" unicode="&#x215c;" horiz-adv-x="912" 
d="M194 29l483 685l55 -39l-482 -685zM336 440q0 -27 -11 -49t-30.5 -38t-46.5 -25t-59 -9q-60 0 -99 27t-54 71l69 22q10 -25 30.5 -38.5t49.5 -13.5q32 0 53 17.5t21 45.5q0 26 -19 43t-50 17q-22 0 -40 -10l-31 37l123 97h-186v67h264v-67l-97 -78q52 -5 82.5 -36.5
t30.5 -79.5zM799 210q30 -14 49 -39t19 -62q0 -51 -40.5 -82.5t-111.5 -31.5q-70 0 -110.5 31.5t-40.5 82.5q0 37 19 62t49 39q-20 11 -32.5 30t-12.5 45q0 41 33.5 68.5t94.5 27.5q62 0 95 -27.5t33 -68.5q0 -26 -12 -45t-32 -30zM715 321q-27 0 -43 -13t-16 -33
t16.5 -32.5t42.5 -12.5q27 0 43.5 12.5t16.5 32.5t-16.5 33t-43.5 13zM715 55q35 0 55 17t20 43t-20.5 43t-54.5 17t-54 -17t-20 -43t20 -43t54 -17z" />
    <glyph glyph-name="fiveeighths" unicode="&#x215d;" horiz-adv-x="910" 
d="M194 29l482 685l56 -39l-483 -685zM340 447q0 -57 -40 -92.5t-105 -35.5q-59 0 -97 26.5t-55 67.5l69 22q11 -24 32 -36t47 -12q30 0 52 17.5t22 46.5t-21 47t-53 18q-22 0 -39 -9t-28 -23h-60v217h251v-67h-188v-82q17 10 36.5 14.5t39.5 4.5q60 0 98.5 -33.5
t38.5 -90.5zM802 210q30 -14 49.5 -39t19.5 -62q0 -51 -41 -82.5t-111 -31.5t-111 31.5t-41 82.5q0 36 19 61.5t50 39.5q-21 11 -33.5 30t-12.5 45q0 41 33.5 68.5t95.5 27.5q61 0 94 -27.5t33 -68.5q0 -26 -12 -45t-32 -30zM719 321q-27 0 -43.5 -13t-16.5 -33t17 -32.5
t43 -12.5t43 12.5t17 32.5t-16.5 33t-43.5 13zM719 55q34 0 54 17t20 43t-20.5 43t-53.5 17q-35 0 -54.5 -17t-19.5 -43t20 -43t54 -17z" />
    <glyph glyph-name="seveneighths" unicode="&#x215e;" horiz-adv-x="826" 
d="M106 29l483 685l55 -39l-482 -685zM337 632l-159 -307h-84l159 307h-211v69h295v-69zM714 210q31 -14 50 -39t19 -62q0 -51 -41 -82.5t-111 -31.5t-111 31.5t-41 82.5q0 37 19.5 62t49.5 39q-20 11 -32.5 30t-12.5 45q0 41 33 68.5t95 27.5q61 0 94.5 -27.5t33.5 -68.5
q0 -26 -12 -45t-33 -30zM631 321q-27 0 -43.5 -13t-16.5 -33t17 -32.5t43 -12.5t43 12.5t17 32.5t-16.5 33t-43.5 13zM631 55q34 0 54 17t20 43t-20 43t-54 17q-35 0 -54.5 -17t-19.5 -43t20 -43t54 -17z" />
    <glyph glyph-name="arrowup" unicode="&#x2191;" 
d="M344 678l265 -290l-63 -60l-168 184v-440h-84v440l-168 -184l-62 60l264 290h16z" />
    <glyph glyph-name="arrowdown" unicode="&#x2193;" 
d="M378 239l168 184l63 -61l-265 -290h-16l-264 290l62 61l168 -184v439h84v-439z" />
    <glyph glyph-name="arrowboth" unicode="&#x2194;" horiz-adv-x="884" 
d="M500 585l61 63l290 -265v-16l-290 -264l-61 62l184 168h-484l184 -168l-61 -62l-290 264v16l290 265l61 -63l-184 -168h484z" />
    <glyph glyph-name="arrowupdn" unicode="&#x2195;" 
d="M378 126l168 184l63 -60l-265 -291h-16l-264 291l62 60l168 -184v484l-168 -184l-62 61l264 290h16l265 -290l-63 -61l-168 184v-484z" />
    <glyph glyph-name="uni2196" unicode="&#x2196;" horiz-adv-x="632" 
d="M238 532l324 -323l-62 -63l-319 320v-289l-91 -1v431l11 12h431v-87h-294z" />
    <glyph glyph-name="uni2197" unicode="&#x2197;" horiz-adv-x="632" 
d="M100 619h431l11 -12v-431l-91 1v289l-319 -320l-62 63l324 323h-294v87z" />
    <glyph glyph-name="uni2198" unicode="&#x2198;" horiz-adv-x="632" 
d="M451 311v289h91v-431l-11 -11h-431v87h293l-323 323l62 62z" />
    <glyph glyph-name="uni2199" unicode="&#x2199;" horiz-adv-x="632" 
d="M500 630l62 -62l-323 -323h293v-87h-431l-11 11v431h91v-289z" />
    <glyph glyph-name="partialdiff" unicode="&#x2202;" horiz-adv-x="537" 
d="M146 704h142q107 0 169 -66t62 -201q0 -109 -24.5 -193t-67.5 -141t-99.5 -86.5t-121.5 -29.5q-37 0 -71 12.5t-59.5 37t-40.5 61.5t-15 85q0 58 19 111t54.5 93.5t85.5 64.5t112 24q87 0 132 -51q6 100 -33.5 147t-115.5 47h-128v85zM212 69q36 0 70 18.5t60.5 49
t42.5 69.5t16 80q0 56 -32.5 84.5t-80.5 28.5q-40 0 -73 -18.5t-57 -47.5t-37 -66t-13 -75q0 -63 30.5 -93t73.5 -30z" />
    <glyph glyph-name="product" unicode="&#x220f;" horiz-adv-x="686" 
d="M27 704h633v-85h-108v-619h-90v619h-237v-619h-90v619h-108v85z" />
    <glyph glyph-name="summation" unicode="&#x2211;" horiz-adv-x="589" 
d="M20 704h537v-85h-406l214 -246v-4l-223 -284h415v-85h-537v76l227 290l-227 263v75z" />
    <glyph glyph-name="minus" unicode="&#x2212;" 
d="M568 322h-463v78h463v-78z" />
    <glyph glyph-name="uni2215" unicode="&#x2215;" horiz-adv-x="166" 
d="M352 675l-483 -685l-55 39l482 685z" />
    <glyph glyph-name="uni2219" unicode="&#x2219;" horiz-adv-x="248" 
d="M116 323q-30 0 -51 21.5t-21 51.5t21 51t51 21t51 -21t21 -51t-21 -51.5t-51 -21.5z" />
    <glyph glyph-name="radical" unicode="&#x221a;" horiz-adv-x="627" 
d="M314 133l211 571h99l-263 -704h-90l-149 392h-109v85h177z" />
    <glyph glyph-name="infinity" unicode="&#x221e;" horiz-adv-x="738" 
d="M546 546q36 0 66 -11.5t51.5 -33t34 -53t12.5 -70.5t-12.5 -70.5t-34 -53.5t-51.5 -33.5t-66 -11.5q-45 0 -86 26t-90 86q-50 -60 -90.5 -86t-86.5 -26q-36 0 -66.5 11.5t-52 33.5t-34 53.5t-12.5 70.5t12.5 70.5t34 53t52 33t66.5 11.5q45 0 86 -25.5t90 -86.5
q49 61 90.5 86.5t86.5 25.5zM199 285q29 0 58 20.5t69 72.5q-40 52 -69 72t-58 20q-41 0 -66 -24t-25 -68t25 -68.5t66 -24.5zM540 285q41 0 65.5 24.5t24.5 68.5t-24.5 68t-65.5 24q-29 0 -57.5 -20t-69.5 -73q41 -52 69.5 -72t57.5 -20z" />
    <glyph glyph-name="integral" unicode="&#x222b;" horiz-adv-x="509" 
d="M-20 -190v85h73q34 0 47 16t21 48l146 618q8 33 18.5 56.5t27 39.5t40 23.5t56.5 7.5h100v-85h-87q-34 0 -47 -15.5t-21 -47.5l-146 -619q-7 -33 -18 -56.5t-27.5 -39.5t-40 -23.5t-56.5 -7.5h-86z" />
    <glyph glyph-name="approxequal" unicode="&#x2248;" 
d="M444 410q-33 0 -58.5 7t-49.5 15.5t-48.5 15.5t-55.5 7q-26 0 -52 -8t-52 -25v79q50 33 103 33q32 0 57 -7t48.5 -16t48 -16t55.5 -7q26 0 52.5 8t52.5 25v-79q-24 -15 -50.5 -23.5t-50.5 -8.5zM444 194q-33 0 -58.5 7t-49.5 16t-48.5 16t-55.5 7q-26 0 -52 -8t-52 -25
v79q50 33 103 33q32 0 57 -7t48.5 -16t48 -16t55.5 -7q26 0 52.5 8t52.5 25v-79q-24 -16 -50.5 -24.5t-50.5 -8.5z" />
    <glyph glyph-name="notequal" unicode="&#x2260;" 
d="M545 511v-75h-153l-41 -150h194v-75h-214l-33 -124l-72 18l28 106h-126v75h147l40 150h-187v75h207l34 126l72 -18l-29 -108h133z" />
    <glyph glyph-name="lessequal" unicode="&#x2264;" 
d="M237 437l331 -123l-23 -69l-407 154v76l407 154l23 -69zM128 81v70h450v-70h-450z" />
    <glyph glyph-name="greaterequal" unicode="&#x2265;" 
d="M534 399l-406 -154l-23 69l331 123l-331 123l23 69l406 -154v-76zM95 81v70h449v-70h-449z" />
    <glyph glyph-name="lozenge" unicode="&#x25ca;" horiz-adv-x="634" 
d="M290 704h50l238 -343v-10l-238 -351h-50l-237 351v10zM315 120l158 236l-158 230l-158 -230z" />
    <glyph glyph-name="uni261D" unicode="&#x261d;" horiz-adv-x="546" 
d="M466 241h1v-38l13 -9v-142l-10 -19l-48 -22l-24 15v-18l-14 -19q-6 -2 -38 -10t-80 -8q-27 0 -49 6t-38 14.5t-27 18t-16 16.5l-3 10v144l15 5v32l-119 166l-2 18l39 79l-32 382l16 18l111 11l18 -15l17 -208l98 6l205 -106l10 -18zM153 787l-6 70l-78 -8l6 -69zM155 753
l-77 -7l17 -207l35 71l25 7l12 -7zM276 447l-4 192l-73 -5l3 -45l51 -31l6 -21l-44 -92zM307 629l3 -185l58 -6l20 149zM198 487l24 51l-69 41l-25 -50zM402 435l56 -6l16 114l-53 28zM184 457l-71 42l-53 -108l7 -9l46 31l23 -4l91 -130l-3 -22l-41 -29q20 -15 45 -20
t46 -5q59 0 97.5 15.5t61.5 32.5l20 143l-99 -98l-194 110zM87 353l73 -100l30 21l-71 102zM431 54l18 10v103l-18 -9v-104zM170 41q15 -15 43.5 -23.5t52.5 -8.5q8 0 17 0.5t18 1.5v105q-8 -1 -16 -1h-17q-33 0 -57 7t-41 18v-36q40 -26 93 -26v-35q-25 0 -49 6t-44 18v-26
zM358 124l-10 -2t-12 -2v-105q7 2 12 2.5t10 2.5v104z" />
    <glyph glyph-name="uni261F" unicode="&#x261f;" horiz-adv-x="546" 
d="M517 366l2 -17l-40 -81l32 -381l-15 -18l-111 -11l-18 15l-17 209l-98 -6l-206 106l-9 18l42 310v37l-14 8v143l11 18l48 22l24 -14v18l14 19q6 2 37.5 9.5t79.5 7.5q28 0 50 -6t38 -14.5t26.5 -17.5t15.5 -16l3 -11v-143l-15 -5v-32zM376 709q-15 15 -43.5 23.5
t-53.5 8.5q-9 0 -17.5 -0.5t-17.5 -1.5v-106q8 1 16.5 1h17.5q33 0 57 -7t41 -17v35q-19 14 -42.5 20t-50.5 6v35q25 0 49 -5.5t44 -17.5v26zM188 626l10 2t12 2v104q-7 -1 -12 -2l-10 -2v-104zM115 695l-18 -9v-103l18 9v103zM362 293l71 -43l53 108l-7 10l-46 -32l-23 4
l-92 130l4 23l40 29q-20 15 -44.5 20t-45.5 5q-60 0 -99 -16.5t-61 -33.5l-20 -142l100 99l194 -110zM459 396l-74 101l-30 -21l72 -103zM144 315l-56 6l-16 -115l53 -27zM235 306l-57 6l-20 -150l80 -41zM269 303l4 -193l74 6l-3 44l-51 31l-6 21l44 92zM348 262l-24 -50
l69 -42l25 51zM390 -4l78 7l-17 207l-35 -71l-25 -7l-12 7zM393 -38l5 -69l78 7l-6 70z" />
    <glyph glyph-name="uni26BD" unicode="&#x26bd;" horiz-adv-x="979" 
d="M489 830q87 0 163.5 -33t133.5 -90t90 -133.5t33 -163.5t-33 -163.5t-90 -133.5t-133.5 -90t-163.5 -33t-163.5 33t-133.5 90t-90 133.5t-33 163.5t33 163.5t90 133.5t133.5 90t163.5 33zM109 411q0 -26 4.5 -57t14.5 -62q16 2 21.5 14t9.5 41q5 38 19 62q-13 8 -20 21.5
t-7 28.5q0 41 17 75t43 67q11 14 25.5 20.5t29.5 7.5h5v7q0 19 9 32t25 25q28 21 62 39t64 18q42 0 60 -28q9 6 21 10t35 8q30 5 43.5 10t17.5 22q-29 9 -59.5 14t-56.5 5q-73 0 -142.5 -27.5t-122.5 -77.5t-85.5 -120t-32.5 -155zM644 758q-7 -23 -23.5 -36t-54.5 -18
q-34 -5 -57 -15.5t-23 -32.5q0 -14 12.5 -24t36.5 -21q23 -11 43 -22.5t37 -25.5l129 130q-20 17 -44.5 34.5t-55.5 30.5zM681 244q14 -12 30 -12q15 0 27 13t27 39q15 24 20 43.5t5 29.5q0 8 -3.5 14.5t-11.5 6.5t-15 -5t-26 -5q-29 0 -48.5 23t-33.5 53q-14 28 -26 46.5
t-26 32.5q-19 18 -45 31.5t-50 27.5t-41 31.5t-17 42.5q0 15 6 24.5t6 16.5q0 5 -6 9t-20 4q-15 0 -36 -8t-40.5 -19.5t-33 -24.5t-13.5 -24q0 -8 2 -14t8 -13t22.5 -26.5t39.5 -45.5t50.5 -57t56.5 -60t60 -58t58.5 -53t47.5 -41t26 -22zM838 564q-14 32 -31 56.5t-34 43.5
l-130 -129q14 -17 25 -36.5t22 -42.5q12 -24 22 -36.5t24 -12.5q22 0 32 23t15 57q5 38 18.5 54.5t36.5 22.5zM379 297q19 -18 45 -31.5t50 -27.5t41 -31.5t17 -42.5q0 -15 -6.5 -24.5t-6.5 -15.5q0 -14 26 -14q14 0 35 7.5t42 21.5q18 11 32.5 23.5t14.5 24.5q0 8 -2 14
t-9 12q-4 3 -23.5 20t-47.5 41t-60.5 53.5t-61.5 58.5q-33 33 -62.5 65t-52.5 58.5t-38 45t-19 23.5q-6 6 -11 8.5t-14 2.5q-15 0 -27 -13.5t-27 -39.5q-15 -24 -20 -43.5t-5 -29.5q0 -8 3.5 -14.5t11.5 -6.5t15 5t26 5q29 0 48.5 -23t33.5 -53q14 -28 26 -46.5t26 -32.5z
M487 29q74 0 142.5 27.5t122 77.5t85.5 120t32 155q0 26 -4 57t-14 62q-16 -2 -21.5 -13.5t-9.5 -41.5q-5 -38 -19 -62q12 -8 19.5 -21.5t7.5 -28.5q0 -41 -17 -75t-43 -67q-11 -14 -25.5 -20t-29.5 -7h-6q1 -2 1 -8q-1 -19 -10 -32t-24 -25q-28 -21 -62 -39t-64 -18
q-42 0 -60 28q-9 -6 -21 -10t-35 -8q-30 -5 -44 -9.5t-17 -21.5q29 -10 59.5 -15t56.5 -5zM141 256q13 -32 30.5 -56.5t34.5 -43.5l130 129q-14 17 -25.5 36.5t-22.5 42.5q-11 24 -21 36.5t-24 12.5q-22 0 -32.5 -23t-15.5 -57q-5 -38 -18 -54t-36 -23zM335 62q7 23 23 36
t54 18q35 5 58 15.5t23 32.5q0 14 -12.5 24t-36.5 21q-23 11 -43 22.5t-37 25.5l-129 -130q20 -17 44 -34.5t56 -30.5z" />
    <glyph glyph-name="uni270A" unicode="&#x270a;" horiz-adv-x="542" 
d="M505 558l-38 -318v-37l13 -9v-142l-10 -19l-48 -22l-24 15v-18l-14 -19q-6 -2 -38 -10t-80 -8q-27 0 -49 6t-38 14.5t-27 18t-16 16.5l-3 10v144l15 5v31l-119 166l-2 18l74 150l-6 67l11 18l111 33l106 -6l101 -41l73 -46zM253 558l6 -21l-43 -91l61 -8l23 192l-66 3
l-3 -61zM159 615l38 -23l3 36zM392 598l-59 23l-23 -186l57 -3zM401 434l57 4l14 112l-48 30zM222 538l-69 41l-25 -50l70 -42zM184 457l-71 42l-52 -105l8 -12l44 31l23 -5l91 -130l-3 -22l-41 -28q20 -15 45 -20t46 -5q59 0 98 16t62 33l16 126l-176 -82l-115 108zM89 355
l72 -102l29 20l-71 102zM431 54l18 10v103l-18 -9v-104zM170 41q15 -15 43.5 -23.5t52.5 -8.5q8 0 17 0.5t18 1.5v105q-8 -1 -16 -1h-17q-33 0 -57 7t-41 18v-36q40 -26 93 -26v-35q-25 0 -49 6t-44 18v-26zM358 124l-10 -2t-12 -2v-105q7 2 12 2.5t10 2.5v104z" />
    <glyph glyph-name="uni270B" unicode="&#x270b;" horiz-adv-x="811" 
d="M787 401l-184 -93l-76 -67v-38l13 -9v-142l-10 -19l-48 -22l-24 15v-18l-14 -19q-6 -2 -38 -10t-80 -8q-27 0 -49 6t-38 14.5t-27 18t-16 16.5l-3 10v144l15 5v37l-81 269l-110 223l7 22l92 47l23 -7l49 -91l-42 157l13 21l108 28l21 -12l35 -159l2 181l17 16l112 -5
l16 -17l-4 -164l30 123l20 12l109 -24l13 -20l-84 -331l28 -27l143 68l23 -8l46 -101zM434 810l2 70l-77 4l-1 -72zM274 785l-15 69l-76 -20l17 -68zM601 813l-76 16l-13 -53l75 -19zM355 584l72 1l6 191l-75 2zM209 734l44 -170l66 16l-38 172zM146 689l-30 57l-62 -32
l29 -58zM578 724l-74 19l-41 -169l62 -57zM161 659l-63 -33l60 -121l83 -275q20 -17 45.5 -22t47.5 -5q34 0 61.5 6t48.5 15l-30 34l1 24l128 110l23 -1l42 -43l70 35l-34 74l-58 -27h-1v-1l-248 -69l-112 176zM708 398l49 25l-33 72l-50 -24zM450 268l25 -28l103 92l-24 24
zM491 54l18 10v103l-18 -9v-104zM230 41q15 -15 43.5 -23.5t52.5 -8.5q8 0 17 0.5t18 1.5v105q-8 -1 -16 -1h-17q-33 0 -57 7t-41 18v-36q40 -26 93 -26v-35q-25 0 -49 6t-44 18v-26zM418 124l-10 -2t-12 -2v-105q7 2 12 2.5t10 2.5v104z" />
    <glyph glyph-name="uni270C" unicode="&#x270c;" horiz-adv-x="566" 
d="M486 241h1v-38l13 -9v-142l-10 -19l-48 -22l-24 15v-18l-14 -19q-6 -2 -38 -10t-80 -8q-27 0 -49 6t-38 14.5t-27 18t-16 16.5l-3 10v144l15 5v32l-119 166l-2 18l47 96l-67 343l13 19l108 24l21 -13l42 -204l9 226l18 16l116 -6l16 -18l-9 -228l159 -89l9 -18zM332 797
l3 73l-82 4l-3 -73zM154 777l-14 70l-78 -17l14 -71zM241 578l32 -20l37 -1l16 88l5 118l-82 4zM161 744l-78 -17l35 -181l32 64l25 7l13 -8zM410 590l-54 30l-32 -168l60 -13zM218 487l24 51l-69 41l-25 -50zM418 434l60 -6l16 115l-53 30zM204 457l-71 42l-53 -108l8 -10
l45 32l23 -4l91 -130l-3 -22l-41 -29q20 -15 45 -20t46 -5q59 0 97.5 15.5t61.5 32.5l20 142l-99 -97l-194 110zM107 353l73 -100l30 21l-71 102zM451 54l18 10v103l-18 -9v-104zM190 41q15 -15 43.5 -23.5t52.5 -8.5q8 0 17 0.5t18 1.5v105q-8 -1 -16 -1h-17q-33 0 -57 7
t-41 18v-36q40 -26 93 -26v-35q-25 0 -49 6t-44 18v-26zM378 124l-10 -2t-12 -2v-105q7 2 12 2.5t10 2.5v104z" />
    <glyph glyph-name="uni270D" unicode="&#x270d;" horiz-adv-x="890" 
d="M767 345l106 -211l-8 -22l-51 -26l16 -16l16 -72l-71 19l-16 17l-19 -10l-17 5l-4 -13l-15 -12h-88l-68 1l-1 -2l-17 -5l-52 24l-15 -6l-173 21l-8 -16h-29l-5 -11h-156l-15 8q-11 16 -25.5 55t-14.5 108q0 32 4.5 59t11 48t13.5 35.5t11 20.5l15 7h149l7 -12h30l144 51
l-124 132q5 16 21.5 32.5t33.5 19.5l147 -156l13 5h11l233 -70zM784 236l-44 87l-210 64l81 -86l41 -9l13 -12l15 -62l42 -15zM375 304l69 15q-2 12 -2.5 18t-5.5 23l-70 -26zM292 308q-11 -12 -20 -46t-9 -70q0 -43 3 -69.5t13 -46.5l243 43l110 -30l31 98l-125 43l-93 -33
l-12 33l54 18l32 39l-43 46l3 -27l-13 -18l-100 -20l-20 13q-4 10 -6.5 20t-7.5 21zM72 182q0 -40 8 -77.5t21 -59.5h36q-11 25 -19 58.5t-8 73.5q0 47 8.5 82t18.5 58h-36q-10 -19 -19.5 -56.5t-9.5 -78.5zM214 45q-11 20 -20.5 55.5t-9.5 79.5q0 43 10 79t20 58h-41
q-11 -26 -19.5 -59.5t-8.5 -78.5q0 -42 8.5 -76t19.5 -58h41zM787 115l4 -4l45 23l-36 72l-34 -18l24 -8l10 -23zM664 80l70 -19l30 91l-70 24zM524 83l-24 -33l30 -13l29 37zM575 39h34l11 18l-26 7zM652 48l-5 -9h38z" />
    <glyph glyph-name="u1F3C6" unicode="&#x1f3c6;" horiz-adv-x="762" 
d="M530 310q-12 -10 -20 -17.5t-13.5 -16t-9.5 -19.5t-8 -28l-13 -53q49 -14 78.5 -50t29.5 -86v-39l-13 -17q-1 -1 -43 -7.5t-137 -6.5q-48 0 -82 2t-55.5 4.5t-31.5 5t-11 2.5l-13 17v39q0 50 29.5 86t78.5 50l-13 53q-4 18 -8.5 29t-10 19.5t-13.5 16t-20 16.5
q-47 36 -84 74.5t-62 80.5t-38 89t-13 102q0 34 7 70.5t19.5 70t31.5 61.5t43 44l26 -8l24 -59l97 57l9 1h180l9 -1l97 -57l24 59l26 8q24 -16 42.5 -44t31.5 -61.5t20 -70t7 -70.5q0 -55 -13 -102.5t-38.5 -89.5t-62 -80t-84.5 -74zM138 858q-8 -8 -14.5 -17.5t-13.5 -20.5
q9 -38 34 -71.5t58 -53.5zM402 706l46 152h-134l46 -152h42zM559 695q34 20 59 53.5t34 71.5q-7 11 -13.5 20.5t-14.5 17.5zM298 791l-18 59l-82 -48l30 -76l2 65h68zM564 802l-82 48l-18 -59h68l2 -65zM89 773q-5 -17 -9.5 -34.5t-6.5 -34.5q28 -42 83 -73l33 31
q-31 18 -58.5 48t-41.5 63zM689 704q-2 17 -6.5 34.5t-9.5 34.5q-14 -33 -41.5 -63t-58.5 -48l33 -31q26 15 47.5 33t35.5 40zM362 551l-24 -22l-92 87l56 59l-11 81h-27l-3 -75l-71 -67l113 -121l23 -42l55 16l55 -16l23 42l113 121l-71 67l-3 75h-28l-10 -81l56 -59
l-91 -87l-24 22l46 45l-21 63l-17 12h-57l-16 -12l-22 -66zM69 653q1 -17 2.5 -36t4.5 -35q29 -18 68.5 -29t69.5 -13l-44 45q-32 14 -56.5 31t-44.5 37zM693 653q-39 -41 -101 -68l-44 -45q30 2 69.5 13t68.5 29q3 16 4.5 35t2.5 36zM90 536q9 -26 25 -52q20 -5 39 -5
q28 0 58 3t50 10l-18 18q-4 -1 -8 -1h-8q-29 0 -66 6t-72 21zM647 484q8 12 14 25t11 27q-35 -15 -72.5 -21t-65.5 -6h-8t-8 1l-17 -18q20 -7 49 -10t58 -3q19 0 39 5zM142 444q8 -10 17.5 -20.5t20.5 -21.5q35 9 65.5 21t49.5 23l-13 22q-31 -13 -67.5 -18.5t-72.5 -5.5z
M582 402q11 11 20.5 21.5t17.5 20.5q-36 0 -72 5.5t-68 18.5l-12 -22q18 -11 48.5 -23t65.5 -21zM417 114l11 52l43 183l-44 67l-46 14l-46 -14l-44 -67l43 -183l10 -52h73zM257 359l29 45q-36 -17 -76 -30q11 -10 23.5 -20.5t24.5 -20.5zM552 374q-21 7 -40 14.5t-36 15.5
l29 -45l-1 -26q12 10 24.5 20.5t23.5 20.5zM539 45q-8 39 -29.5 63.5t-50.5 33.5l-12 -53l-16 -10h-101l-15 10l-12 53q-29 -9 -50.5 -33.5t-29.5 -63.5v-29q16 -3 54 -7t104 -4t104 4t54 7v29z" />
    <glyph glyph-name="u1F446" unicode="&#x1f446;" horiz-adv-x="546" 
d="M519 401l-2 -18l-120 -167v-31l15 -5v-144l-3 -10q-5 -7 -15.5 -16.5t-26.5 -18t-38 -14.5t-50 -6q-48 0 -79.5 8t-37.5 10l-14 19v18l-24 -15l-48 22l-11 19v142l14 9v36l-42 311l9 18l206 106l98 -6l17 208l18 15l111 -11l15 -18l-32 -380zM470 780l6 69l-78 8l-5 -70z
M391 617l25 -7l35 -70l17 206l-78 7l-11 -143zM344 589l3 44l-74 6l-4 -192l62 -2l-44 92l6 21zM158 587l20 -149l57 6l3 185zM418 529l-25 50l-69 -41l24 -50zM144 435l-19 136l-53 -28l15 -114zM433 413l46 -32l7 10l-53 108l-71 -42l24 -51l-194 -110l-100 98l20 -142
q22 -17 61 -33t99 -16q21 0 46 5t45 20l-41 29l-4 22l92 130zM355 274l31 -21l72 100l-31 23zM97 64l18 -10v104l-18 9v-103zM279 9q25 0 53.5 8.5t43.5 23.5v26q-20 -12 -44 -18t-49 -6v35q56 0 93 27v35q-17 -11 -41 -18t-57 -7h-17.5t-16.5 1v-105q9 -1 17.5 -1.5
t17.5 -0.5zM188 20q5 -2 10 -2.5t12 -2.5v105q-7 1 -12 2l-10 2v-104z" />
    <glyph glyph-name="u1F448" unicode="&#x1f448;" horiz-adv-x="946" 
d="M845 493l10 -3q7 -5 16 -15.5t17.5 -26.5t14.5 -38t6 -50q0 -48 -7.5 -79.5t-9.5 -37.5l-19 -14h-18l14 -24l-22 -48l-18 -11h-143l-8 14h-28l-325 -42l-17 8l-87 167l-7 78l-158 -13l-19 16l-10 114l15 19l308 26l121 46h15l176 -101h34l5 15h144zM482 542l-6 3
l-108 -40l33 -76l79 28l106 -186l-106 -98l151 22q17 23 32 61.5t15 96.5q0 22 -5.5 47.5t-22.5 45.5l-1 1l-27 -45l-23 -7l-136 81l-7 23zM619 464l-108 61l-17 -28l107 -64zM335 493l-53 -20l35 -74l52 19zM174 402l100 8l-30 65l7 16l-84 -7zM891 291v34h-21
q1 9 1.5 17.5t0.5 17.5q0 25 -8.5 53.5t-23.5 43.5h-26q-12 21 -33 33l-18 -18q4 -4 7 -7.5t6 -7.5h-35q10 -17 17 -41t7 -57v-17.5t-1 -16.5h-15v-34h12q-1 -7 -2 -12l-2 -10h104l2 10t2 12h26zM133 481l-71 -6l8 -82l71 6zM802 364q0 27 -6 50.5t-20 42.5h38
q12 -20 18 -44t6 -49h-36zM293 370l-4 8l-42 -4l6 -63l177 35l-8 55l-109 -39zM764 325h106q-1 -9 -2 -17.5t-3 -16.5h-104zM294 225l150 27l-9 60l-170 -31zM444 219l-134 -25l22 -42l110 16zM714 178h103l9 18h-103z" />
    <glyph glyph-name="u1F449" unicode="&#x1f449;" horiz-adv-x="946" 
d="M596 533l308 -26l15 -19l-10 -114l-18 -16l-159 13l-7 -78l-86 -167l-17 -8l-325 42h-28l-9 -14h-143l-18 11l-22 48l14 24h-18l-18 14q-2 6 -10 37.5t-8 79.5q0 28 6 50t14.5 38t17.5 26.5t16 15.5l11 3h143l6 -15h34l175 101h15zM297 447h-1q-17 -20 -22 -46t-5 -48
q0 -58 15 -96.5t32 -61.5l150 -22l-106 98l106 186l79 -28l34 76l-108 40l-6 -4l25 -42l-6 -23l-137 -81l-23 7zM345 433l107 64l-17 28l-108 -61zM665 473l-54 20l-34 -75l53 -19zM779 484l-84 7l7 -16l-30 -65l100 -8zM805 399l71 -6l8 82l-71 6zM106 457
q-15 -15 -23.5 -43.5t-8.5 -53.5q0 -9 0.5 -17.5t1.5 -17.5h106q-1 8 -1 16.5v17.5q0 33 7 57t17 41h-35q-14 -19 -20 -42.5t-6 -50.5h-35q0 25 5.5 49t17.5 44h-26zM516 346l177 -35l6 63l-41 4l-4 -8l-21 -8l-109 39zM681 281l-170 31l-9 -60l151 -27zM81 291q1 -7 2 -12
l2 -10h104l-2 10t-2 12h-104zM504 168l111 -16l22 42l-135 25zM120 196l9 -18h103l-9 18h-103z" />
    <glyph glyph-name="u1F44B" unicode="&#x1f44b;" horiz-adv-x="918" 
d="M677 747q-14 26 -30.5 46.5t-38.5 37t-50.5 29t-67.5 22.5l8 33q39 -10 69.5 -22.5t56 -30.5t45.5 -42t38 -57zM886 240l6 -21l-19 -49l-28 -6l14 -14l3 -23q-2 -6 -19 -33.5t-52 -62.5q-19 -19 -38.5 -30t-37 -16.5t-31.5 -6.5t-23 0l-9 5l-102 102l7 14l-26 26
l-248 133l-236 80l-10 21l32 98l21 10l98 -29l-139 82l-6 24l56 96l25 6l136 -88l-126 130v24l83 76l22 -1l114 -119l-65 108l4 22l95 61l24 -6l174 -294l38 2l54 150l22 9l103 -39l11 -21l-64 -193l-6 -103l26 -27l16 4zM621 714q-10 19 -22.5 35t-29.5 29.5t-40.5 24
t-55.5 18.5l9 32q32 -8 57 -18.5t45.5 -25t37 -34t30.5 -45.5zM420 771l-30 50l-64 -42l28 -46zM276 701l-48 51l-58 -52l50 -51zM372 704l90 -149l85 3l-110 184zM777 656l-74 26l-19 -51l76 -28zM299 676l-55 -52l135 -138l51 51zM179 570l-59 38l-39 -67l59 -35zM190 400
l-22 -67l127 -43l254 -136q26 3 47.5 17.5t36.5 29.5q24 23 39.5 46.5t23.5 45.5l-45 3l-16 18l13 169l16 15l61 -1l24 74l-76 27l-22 -59v-1l-126 -224l-205 45zM207 552l-37 -64l151 -90l35 57zM670 329l37 -2l7 137h-33zM156 411l-60 19l-23 -65l62 -21zM776 279l73 -73
l6 20l-73 73zM123 280q11 -21 24.5 -37.5t30.5 -29.5t40 -22.5t53 -17.5l-8 -32q-63 15 -102.5 42.5t-67.5 79.5zM67 246q14 -26 31 -46.5t39 -37t51 -29.5t67 -22l-8 -32q-37 9 -68 21.5t-56.5 30.5t-46.5 42t-39 57zM803 69l25 25l-19 18q4 6 7.5 10.5t5.5 8.5l-73 73
q-3 -4 -6 -9t-7 -10l-9 9l-24 -24l11 -11q-5 -6 -11 -12l-12 -12q-23 -24 -45.5 -36t-41.5 -17l24 -24q-5 -1 -9.5 -1.5t-9.5 -0.5v-26q11 -3 23 -2.5t24 2.5l18 -18q22 1 48 15t43 31q13 13 23 26zM809 112q-5 -6 -10 -13t-11 -15l-74 75q6 7 11.5 13.5t10.5 12.5zM738 80
q-17 -18 -38 -31.5t-44 -18.5l-28 28q47 8 85 46z" />
    <glyph glyph-name="u1F44C" unicode="&#x1f44c;" horiz-adv-x="686" 
d="M597 541l19 -83l1 -9l-74 -233v-29l10 -5v-156l-7 -15q-16 -10 -55.5 -25t-107.5 -15q-32 0 -59.5 4.5t-48.5 11t-35.5 13.5t-20.5 11l-7 15v149l12 7v25l-103 52l-7 7l-77 159l7 22l101 50l-31 99l11 21l145 43l-103 116l1 23l83 88h24l101 -106l-1 125l17 17l102 -1
l17 -17v-232l51 135l23 10l84 -38l10 -21zM477 822v67h-68v-58zM305 806l-42 45l-61 -63l40 -45zM477 787l-68 8v-49l68 -72v113zM188 392l-78 -40l21 -43l18 26l21 6l121 -62l7 -23l-20 -42q17 -7 42.5 -12t50.5 -5q28 0 49 1.5t37 4.5t28.5 9t24.5 15l8 24q-19 7 -34 13
t-33 10l-13 20l27 142l18 13q26 -3 48.5 -6.5t43.5 -10.5l7 23l-19 80l-234 247l-64 -65l41 -47l16 5l14 -2l141 -107l-19 -27l-135 102l-84 -25l25 -84l40 12l15 -3l79 -63l3 -23l-92 -121l-18 -6l-75 22l-10 8zM641 756l-53 23l-16 -42l50 -31zM559 704l-32 -83l45 -47
l38 100zM232 522l-26 84l-56 -17l27 -83zM232 380l23 -7l46 135l-119 -36zM172 422l-22 40l-76 -37l20 -41zM564 398q-16 5 -32.5 9t-36.5 7l-21 -111q17 -6 27 -8.5t27 -10.5zM153 280l96 -48l12 24l-93 48zM518 148q-20 -11 -55 -20.5t-80 -9.5q-42 0 -78.5 10t-57.5 20
v-41q26 -11 59.5 -19.5t78.5 -8.5q42 0 76 9t57 20v40zM382 6q40 0 77 8.5t59 21.5v35q-24 -11 -57.5 -19t-74.5 -8q-46 0 -81 8t-58 19v-35q18 -11 55.5 -20.5t79.5 -9.5z" />
    <glyph glyph-name="u1F44D" unicode="&#x1f44d;" horiz-adv-x="726" 
d="M649 521l17 -12l33 -103l-5 -106l-41 -101l-46 -74l-16 -7l-287 37v2h-35l-9 -13h-143l-18 10l-22 48l15 25h-19l-18 13q-2 6 -10 38t-8 80q0 27 6 49t14.5 38t17.5 27t16 16l11 3h143l6 -15h33l47 67l-15 183l16 18l111 11l18 -15l27 -223zM436 664l-7 56l-78 -8l5 -56z
M305 360l-34 23q-1 -8 -1.5 -16.5t-0.5 -16.5q0 -60 16.5 -99.5t33.5 -62.5l123 -17l-81 175l95 154l-16 131l-81 -8l7 -77l42 -31l3 -23l-83 -127zM311 397l63 100l-22 17l-69 -98zM493 433l166 -11l-21 65l-126 -4zM106 455q-15 -16 -23.5 -44.5t-8.5 -52.5q0 -8 0.5 -17
t1.5 -18h106q-1 8 -1 16v17q0 33 7 57.5t17 41.5h-34q-14 -20 -20.5 -43.5t-6.5 -50.5h-35q0 25 5.5 49.5t18.5 44.5h-27zM480 400l-9 -54l190 -24l3 66zM467 312l3 -57l159 -24l24 58zM81 288q1 -7 2 -12l2 -10h104l-2 10t-2 12h-104zM475 166l110 -16l28 48l-141 23z
M120 193l9 -18h103l-9 18h-103z" />
    <glyph glyph-name="u1F44E" unicode="&#x1f44e;" horiz-adv-x="726" 
d="M653 448l41 -101l5 -105l-33 -103l-17 -12l-161 3l-27 -223l-18 -15l-111 11l-16 18l15 184l-48 67h-32l-6 -15h-143l-11 3q-7 5 -16 15.5t-17.5 26.5t-14.5 38t-6 50q0 48 8 79.5t10 37.5l18 14h18l-14 24l22 48l18 11h143l9 -14h35v2l287 38l16 -7zM472 427l141 22
l-28 49l-110 -16zM408 133l-42 -31l-7 -78l81 -7l16 131l-95 153l81 177l-122 -18q-18 -22 -34.5 -62t-16.5 -101q0 -8 0.5 -16t1.5 -17l34 23l23 -4l83 -127zM232 472h-103l-9 -18h103zM653 359l-24 57l-159 -24l-3 -57zM85 381l-2 -10t-2 -12h104q1 7 2 12l2 10h-104z
M205 193q-10 17 -17 41t-7 57v17.5t1 16.5h-106q-1 -9 -1.5 -17.5t-0.5 -17.5q0 -25 8.5 -53.5t23.5 -43.5h26q-12 20 -17.5 44t-5.5 49h35q0 -27 6 -50.5t20 -42.5h35zM471 302l9 -55l184 12l-3 66zM283 231l68 -98l23 18l-63 99zM511 165l127 -4l21 64l-166 -11zM356 -9
l-5 -56l78 -7l7 55z" />
    <glyph glyph-name="u1F45F" unicode="&#x1f45f;" horiz-adv-x="952" 
d="M841 325l-24 -14l115 -215l-2 -21l-47 -50l-13 -5q-57 0 -108 6l-35 -46l-53 12l-13 53l-21 6l-35 -30l-46 21l-1 42h-1l-48 -32l-54 33l6 59q-32 25 -63 54t-63 63q-4 3 -15 10.5t-26 18.5t-34 26t-39 31l-35 -16l-39 33l10 37q-2 2 -4 3l-54 -20l-45 45l19 54
q-7 8 -13 16t-11 16l-2 13q0 2 10.5 36t37.5 81q32 58 75 101q55 55 124 88l7 2h39l6 -1l144 -48h62l15 -9l31 -57l31 17l17 -31l-32 -17l34 -64l29 16l18 -30l-30 -17l34 -63l27 15l17 -31l-27 -16l34 -63l24 14l18 -30l-26 -15l34 -64l23 14zM337 801h-32q-28 -14 -52 -31
l249 -87l9 -9l254 -467l60 15l-38 72l-25 -15l-18 30l26 16l-34 64l-25 -15l-18 30l27 16l-34 63l-26 -15l-18 31l27 15l-34 64l-27 -15l-17 31l27 15l-34 64l-27 -15l-17 31l28 15l-26 48h-54l-6 1zM504 616l-228 -268q31 -24 52.5 -40t26.5 -18l198 236zM622 399l-51 94
l-191 -228q20 -20 38 -37t35 -31zM690 274l-50 92l-161 -190q22 -17 42.5 -30.5t40.5 -24.5zM896 90l-53 100l-79 -20l-76 -96q76 -17 175 -19z" />
    <glyph glyph-name="u1F4AA" unicode="&#x1f4aa;" horiz-adv-x="785" 
d="M780 170q0 -24 -8 -48.5t-17.5 -44t-18 -32t-9.5 -13.5l-11 -7q-21 -4 -58 -8.5t-80.5 -8t-89 -6t-85.5 -2.5q-100 0 -184 9.5t-144 28.5l-12 13q-12 54 -17.5 114.5t-5.5 118.5q0 73 7 140t23 124l3 8l109 109l18 4l175 -44l12 -17v-48l-4 -13l-75 -72l-17 -4l-59 17
q16 -51 27.5 -115.5t22.5 -142.5q32 68 89.5 103.5t129.5 35.5q96 0 169.5 -49t108.5 -144zM95 68q62 -17 141.5 -25.5t166.5 -7.5q44 0 86.5 2.5t79.5 6t66.5 7t47.5 5.5q-5 60 -23.5 109.5t-44.5 85.5t-56.5 57.5t-60.5 25.5q-78 0 -131 -47t-76 -127h-42q-5 42 -18.5 89
t-29 90t-31 76.5t-24.5 47.5l60 69h110l37 35v27l-153 39l-98 -99q-10 -41 -18.5 -108t-8.5 -143q0 -48 4.5 -104t15.5 -111z" />
    <glyph glyph-name="u1F595" unicode="&#x1f595;" horiz-adv-x="567" 
d="M540 555l-70 -344v-24l10 -5v-156l-7 -15q-16 -10 -55.5 -25t-107.5 -15q-32 0 -59.5 4.5t-48.5 11t-35.5 13.5t-20.5 11l-7 15v149l12 7v28l-114 209l2 19l51 65l-15 59l12 21l130 44l-9 255l16 18l116 3l18 -16l10 -251l161 -61zM327 806l-2 63l-83 -2l2 -64zM113 416
l-12 47l-30 -37l27 -49l41 28l24 -6l68 -121l-4 -23l-44 -29q5 -5 17 -10.5t28 -9.5t34 -6.5t36 -2.5q29 0 49.5 1.5t37 5t29 9.5t24.5 15l66 320l-158 60l-12 15l-5 149l-83 -3l5 -153l-12 -17l-128 -43l34 -131zM202 392l-33 113l9 20q31 15 64.5 22.5t66.5 7.5
q21 0 41.5 -2.5t38.5 -6t32 -8t21 -7.5l10 -21l-29 -114l-20 -12q-11 2 -37.5 5t-52.5 3q-18 0 -41.5 -2t-48.5 -10zM311 520q-27 -1 -52 -4.5t-54 -15.5l25 -83q20 5 40.5 7.5t40.5 2.5q30 0 50.5 -3t32.5 -5l22 85q-23 8 -50.5 12.5t-54.5 3.5zM114 347l50 -93l30 21
l-51 92zM445 148q-20 -11 -55 -20.5t-80 -9.5q-42 0 -78.5 10t-57.5 20v-41q26 -11 59.5 -19.5t78.5 -8.5q42 0 76 9t57 20v40zM309 6q40 0 77 8.5t59 21.5v35q-24 -11 -57.5 -19t-74.5 -8q-46 0 -81 8t-58 19v-35q18 -11 55.5 -20.5t79.5 -9.5z" />
    <glyph glyph-name="u1F596" unicode="&#x1f596;" horiz-adv-x="779" 
d="M754 387l-164 -75l-82 -72v-37l13 -9v-142l-10 -19l-48 -22l-24 15v-18l-14 -19q-6 -2 -38 -10t-80 -8q-27 0 -49 6t-38 14.5t-27 18t-16 16.5l-3 10v144l15 5v30l-82 305l-90 234l10 22l82 29l-15 42l9 21l104 42l22 -11l84 -239l53 247l21 13l109 -25l13 -20l-6 -22
l95 -17l14 -21l-77 -322l28 -27l133 54l21 -10l45 -101zM473 866l-77 18l-14 -66l76 -19zM228 799l-25 73l-72 -29l28 -71zM575 805l-78 16l-12 -55l76 -19zM336 606l76 -16l39 176l-77 18zM145 716l-23 58l-68 -25l24 -60zM171 740l60 -154l64 18l-56 162zM553 714l-75 18
l-34 -156l63 -58zM157 684l-67 -26l50 -127l80 -299q20 -17 46 -23t49 -6q35 0 62 6t49 15l-30 34l1 24l128 110l23 -1l42 -43l54 25l-33 74l-44 -18l-269 -80l-91 207zM675 388l50 23l-32 71l-51 -21zM432 268l24 -28l104 92l-25 24zM472 54l18 10v103l-18 -9v-104zM211 41
q15 -15 43.5 -23.5t52.5 -8.5q8 0 17 0.5t18 1.5v105q-8 -1 -16 -1h-17q-33 0 -57 7t-41 18v-36q40 -26 93 -26v-35q-25 0 -49 6t-44 18v-26zM399 124l-10 -2t-12 -2v-105q7 2 12 2.5t10 2.5v104z" />
    <glyph glyph-name="u1F6E1" unicode="&#x1f6e1;" horiz-adv-x="815" 
d="M745 733q0 -168 -24.5 -297t-68.5 -223t-106 -154t-137 -89q-74 29 -136.5 89t-107.5 154t-70.5 223t-25.5 297l22 10q42 -36 75.5 -55.5t76.5 -19.5q26 0 51.5 12t46.5 32t35 45.5t17 52.5h28q3 -27 17 -52.5t35 -45.5t46.5 -32t51.5 -12q22 0 40.5 5t36.5 14.5t36 23.5
t39 32zM407 -1q77 27 135 93.5t97.5 160.5t59.5 209t20 241q-35 -28 -70.5 -44.5t-79.5 -16.5q-25 0 -50 9.5t-46 25.5t-38 38t-28 47q-10 -25 -27.5 -47t-38.5 -38t-45.5 -25.5t-50.5 -9.5q-44 0 -79.5 16.5t-70.5 44.5q0 -126 20 -241t59.5 -209t98 -160.5t134.5 -93.5z
M407 713q12 -20 29.5 -37.5t38.5 -30.5t44.5 -20.5t47.5 -7.5q32 0 65.5 9.5t58.5 26.5q-4 -103 -21 -201.5t-51 -182t-86 -147t-126 -96.5q-73 33 -125.5 96.5t-86.5 147t-51 182t-21 201.5q25 -17 58.5 -26.5t65.5 -9.5q24 0 47.5 7.5t44.5 20.5t38.5 30.5t29.5 37.5z
M407 54q64 30 109 85.5t75.5 129t47.5 161t25 181.5q-44 -19 -97 -19q-47 0 -86 21.5t-74 58.5q-35 -37 -74 -58.5t-86 -21.5q-53 0 -97 19q8 -94 25 -181.5t47.5 -161t75.5 -129t109 -85.5zM415 404l-189 117q3 -32 12.5 -81t25 -100.5t38 -98.5t50.5 -74h-29
q-30 35 -52.5 86t-38 106t-24 106.5t-10.5 87.5h27l120 -75l-14 91h206v-28h-176l9 -54q21 9 49 9q33 0 60.5 -15t45.5 -41l-24 -13q-8 13 -27.5 29t-54.5 16q-14 0 -24.5 -3t-21.5 -8l92 -57h68v-26h-148l17 -109q4 0 8 -0.5t9 -0.5q35 0 54.5 15.5t27.5 27.5l24 -11
q-18 -28 -45.5 -43t-60.5 -15q-55 0 -90.5 35.5t-35.5 90.5q0 25 7 45t19 37l23 -13q-11 -14 -17.5 -32.5t-6.5 -36.5q0 -27 14 -52.5t43 -38.5l-23 154l29 -18l1 -9h33zM478 366h49l25 -16q11 35 18 67.5t11 60t6 47t2 28.5h26q0 -12 -3 -39t-10 -61.5t-17 -74.5t-24 -78.5
t-31.5 -73.5t-39.5 -59h-29q28 31 48.5 72t35.5 86zM395 131l-14 104q6 -1 13 -2t14 -1l15 -101h-28z" />
    <glyph glyph-name="u1F918" unicode="&#x1f918;" horiz-adv-x="623" 
d="M585 852l11 -20l-58 -277l-33 -314v-38l14 -9v-142l-11 -19l-48 -22l-24 16v-19l-14 -19q-6 -2 -37.5 -10t-79.5 -8q-27 0 -49 6t-38 14.5t-27 18t-16 16.5l-3 10v144l15 5v30l-148 167l-2 18l68 139l-60 301l13 19l109 24l21 -13l42 -204l99 9l89 -16l45 205l22 12z
M172 777l-14 70l-77 -17l14 -71zM561 823l-68 17l-14 -64l68 -17zM179 744l-77 -17l28 -136l9 19l24 7l48 -28zM508 575l32 150l-68 17l-27 -122v-50l22 -159l-109 -96l-188 91l27 58l-73 39l-53 -107l12 -14l33 31h24l109 -116l-2 -24l-36 -34l8 -10q20 -16 46 -21t48 -5
q58 0 97 15.5t62 32.5zM312 445l-1 194l-67 -5l5 -68l14 -8l6 -21l-14 -30l5 -57zM347 446l65 13v166l-67 11zM232 538l-70 41l-22 -45l72 -39zM126 377l-20 -20l83 -93l23 22zM469 54l18 10v103l-18 -9v-104zM208 41q16 -15 44.5 -23.5t52.5 -8.5q9 0 17.5 0.5t17.5 1.5
v105q-8 -1 -16.5 -1h-17.5q-33 0 -57 7t-41 18v-35q38 -27 93 -27v-35q-25 0 -49 6t-44 18v-26zM396 124l-10 -2t-11 -2v-104q6 1 11 2l10 2v104z" />
    <glyph glyph-name="u1F919" unicode="&#x1f919;" horiz-adv-x="808" 
d="M663 223l116 -29l12 -21l-34 -107l-19 -10l-441 102h-28l-9 -13h-143l-18 10l-22 48l15 25h-19l-18 13q-2 6 -10 38t-8 80q0 27 6 49t14.5 38t17.5 27t16 16l11 3h143l6 -15h39v-1l78 89l68 191l22 10l105 -35l10 -22l-60 -186l130 16l16 -11l34 -84l-1 -127zM536 704
l-73 25l-18 -52l74 -26zM269 351q0 -60 16.5 -99.5t34.5 -62.5l328 -78l22 77l-235 59l-64 120l103 144l35 107l-75 27l-31 -85l35 -34l1 -23l-98 -115l-23 -2l-37 32q-7 -17 -9.5 -34.5t-2.5 -32.5zM403 512l-20 21l-79 -90l23 -21zM481 436l175 10l-22 58l-143 -19z
M106 456q-15 -16 -23.5 -44.5t-8.5 -52.5q0 -8 0.5 -17t1.5 -18h106q-1 8 -1 16v17q0 33 7 57.5t17 41.5h-34q-14 -20 -20.5 -43.5t-6.5 -50.5h-35q0 25 5.5 49.5t18.5 44.5h-27zM474 401l-4 -47l188 -15l2 73zM468 320l-3 -47l166 -42l23 75zM81 289q1 -7 2 -12l2 -10h104
l-2 10t-2 12h-104zM120 194l9 -18h103l-9 18h-103zM681 104l49 -12l23 75l-51 13z" />
    <glyph glyph-name="u1F91A" unicode="&#x1f91a;" horiz-adv-x="811" 
d="M794 714l-110 -223l-82 -272v-34l15 -5v-144l-3 -10q-5 -7 -15.5 -16.5t-26.5 -18t-38 -14.5t-50 -6q-48 0 -79.5 8t-37.5 10l-14 19v18l-24 -15l-48 22l-11 19v142l14 9v37l-77 68l-183 93l-7 22l46 101l23 8l143 -68l28 26l-84 332l12 20l110 24l20 -12l30 -123l-4 164
l16 17l112 5l16 -16l3 -181l35 159l20 12l108 -28l13 -21l-41 -157l49 91l23 7l92 -47zM453 812l-1 72l-78 -4l2 -70zM627 834l-75 20l-15 -69l73 -19zM299 776l-13 53l-76 -16l14 -56zM383 585l73 -1l-3 195l-76 -3zM492 580l66 -16l43 170l-71 18zM757 714l-62 32l-30 -57
l63 -33zM285 517l62 57l-40 170l-74 -20zM713 626l-63 33l-64 -123l-112 -176l-248 69v1h-1l-58 27l-34 -74l70 -35l42 43l22 1l128 -110l1 -24l-30 -34q22 -9 49 -15t62 -6q22 0 48 5t46 22l82 275zM137 471l-50 24l-33 -72l49 -25zM360 268l-103 88l-24 -24l102 -92z
M302 64l18 -10v104l-18 9v-103zM484 9q25 0 53.5 8.5t43.5 23.5v26q-20 -12 -44 -18t-49 -6v35q56 0 93 27v35q-17 -11 -41 -18t-57 -7h-17.5t-16.5 1v-105q9 -1 17.5 -1.5t17.5 -0.5zM393 20q5 -2 10 -2.5t12 -2.5v105q-7 1 -12 2l-10 2v-104z" />
    <glyph glyph-name="u1F91E" unicode="&#x1f91e;" horiz-adv-x="546" 
d="M466 241h1v-38l13 -9v-142l-10 -19l-48 -22l-24 15v-18l-14 -19q-6 -2 -38 -10t-80 -8q-27 0 -49 6t-38 14.5t-27 18t-16 16.5l-3 10v144l15 5v32l-119 165l-2 19l21 43l-16 50v11l91 236l-52 133l9 22l109 42l21 -8l5 -12l102 -39l11 -23l-38 -99l47 -99l163 -91l9 -18z
M156 825l29 76l-77 -30l22 -56zM189 818l76 -31l25 66l-76 29zM177 786l-112 -286l4 -13l61 123l25 7l38 -23l60 160zM289 558l16 87l-31 67l-52 -135l29 -18zM364 439l26 151l-54 30l-31 -170zM198 487l24 51l-69 41l-25 -50zM397 434l61 -6l16 115l-53 30zM113 499
l-53 -108l7 -10l46 32l23 -4l91 -130l-3 -22l-41 -29q20 -15 45 -20t46 -5q59 0 97.5 15.5t61.5 32.5l20 142l-99 -97l-194 110l24 51zM190 274l-71 101l-32 -22l73 -100zM431 54l18 10v103l-18 -9v-104zM170 41q15 -15 43.5 -23.5t52.5 -8.5q8 0 17 0.5t18 1.5v105
q-8 -1 -16 -1h-17q-33 0 -57 7t-41 18v-36q40 -26 93 -26v-35q-25 0 -49 6t-44 18v-26zM358 124l-10 -2t-12 -2v-105q7 2 12 2.5t10 2.5v104z" />
    <glyph glyph-name="J.short" horiz-adv-x="407" 
d="M54 -13v90h27q63 0 97 47.5t34 139.5v473h95v-479q0 -131 -58.5 -201t-167.5 -70h-27z" />
    <glyph glyph-name="Jcircumflex.short" horiz-adv-x="407" 
d="M246 961h31l150 -123l-50 -48l-115 95l-116 -95l-50 48zM212 737h95v-479q0 -131 -58.5 -201t-167.5 -70h-27v90h27q63 0 97 47.5t34 139.5v473z" />
    <glyph glyph-name="i.loclTRK" horiz-adv-x="273" 
d="M136 609q-26 0 -43.5 18t-17.5 43q0 26 17.5 43t43.5 17q25 0 43 -17t18 -43q0 -25 -18 -43t-43 -18zM181 0h-90v537h90v-537z" />
    <glyph glyph-name="a.ss01" horiz-adv-x="698" 
d="M517 537h90v-537h-90v103q-13 -23 -31 -44t-43 -36.5t-56 -25t-69 -9.5q-62 0 -111.5 20.5t-84 57.5t-53 88.5t-18.5 113.5t18.5 113.5t53 88.5t84 57.5t111.5 20.5q38 0 69 -9t56 -25t43 -37t31 -44v104zM332 70q43 0 77 14t58 40t37 62.5t13 81.5q-1 91 -49.5 144.5
t-135.5 53.5q-42 0 -76.5 -14.5t-59 -40.5t-37.5 -62.5t-13 -80.5q0 -45 13 -81.5t37.5 -62.5t59 -40t76.5 -14z" />
    <glyph glyph-name="aacute.ss01" horiz-adv-x="698" 
d="M468 823l29 -73l-234 -102l-31 74zM517 537h90v-537h-90v103q-13 -23 -31 -44t-43 -36.5t-56 -25t-69 -9.5q-62 0 -111.5 20.5t-84 57.5t-53 88.5t-18.5 113.5t18.5 113.5t53 88.5t84 57.5t111.5 20.5q38 0 69 -9t56 -25t43 -37t31 -44v104zM332 70q43 0 77 14t58 40
t37 62.5t13 81.5q-1 91 -49.5 144.5t-135.5 53.5q-42 0 -76.5 -14.5t-59 -40.5t-37.5 -62.5t-13 -80.5q0 -45 13 -81.5t37.5 -62.5t59 -40t76.5 -14z" />
    <glyph glyph-name="abreve.ss01" horiz-adv-x="698" 
d="M353 664q-65 0 -98.5 37t-43.5 99l60 15q10 -44 30 -62.5t52 -18.5q31 0 51 18.5t30 62.5l60 -15q-10 -62 -43.5 -99t-97.5 -37zM517 537h90v-537h-90v103q-13 -23 -31 -44t-43 -36.5t-56 -25t-69 -9.5q-62 0 -111.5 20.5t-84 57.5t-53 88.5t-18.5 113.5t18.5 113.5
t53 88.5t84 57.5t111.5 20.5q38 0 69 -9t56 -25t43 -37t31 -44v104zM332 70q43 0 77 14t58 40t37 62.5t13 81.5q-1 91 -49.5 144.5t-135.5 53.5q-42 0 -76.5 -14.5t-59 -40.5t-37.5 -62.5t-13 -80.5q0 -45 13 -81.5t37.5 -62.5t59 -40t76.5 -14z" />
    <glyph glyph-name="acircumflex.ss01" horiz-adv-x="698" 
d="M470 649l-115 95l-116 -95l-50 48l150 123h31l150 -123zM517 537h90v-537h-90v103q-13 -23 -31 -44t-43 -36.5t-56 -25t-69 -9.5q-62 0 -111.5 20.5t-84 57.5t-53 88.5t-18.5 113.5t18.5 113.5t53 88.5t84 57.5t111.5 20.5q38 0 69 -9t56 -25t43 -37t31 -44v104zM332 70
q43 0 77 14t58 40t37 62.5t13 81.5q-1 91 -49.5 144.5t-135.5 53.5q-42 0 -76.5 -14.5t-59 -40.5t-37.5 -62.5t-13 -80.5q0 -45 13 -81.5t37.5 -62.5t59 -40t76.5 -14z" />
    <glyph glyph-name="adieresis.ss01" horiz-adv-x="698" 
d="M266 667q-23 0 -40 17t-17 40t17 39.5t40 16.5t40 -16.5t17 -39.5t-17 -40t-40 -17zM438 667q-24 0 -40.5 17t-16.5 40t16.5 39.5t40.5 16.5q23 0 40 -16.5t17 -39.5t-17 -40t-40 -17zM517 537h90v-537h-90v103q-13 -23 -31 -44t-43 -36.5t-56 -25t-69 -9.5
q-62 0 -111.5 20.5t-84 57.5t-53 88.5t-18.5 113.5t18.5 113.5t53 88.5t84 57.5t111.5 20.5q38 0 69 -9t56 -25t43 -37t31 -44v104zM332 70q43 0 77 14t58 40t37 62.5t13 81.5q-1 91 -49.5 144.5t-135.5 53.5q-42 0 -76.5 -14.5t-59 -40.5t-37.5 -62.5t-13 -80.5
q0 -45 13 -81.5t37.5 -62.5t59 -40t76.5 -14z" />
    <glyph glyph-name="uni1EA1.ss01" horiz-adv-x="698" 
d="M517 537h90v-537h-90v103q-13 -23 -31 -44t-43 -36.5t-56 -25t-69 -9.5q-62 0 -111.5 20.5t-84 57.5t-53 88.5t-18.5 113.5t18.5 113.5t53 88.5t84 57.5t111.5 20.5q38 0 69 -9t56 -25t43 -37t31 -44v104zM332 70q43 0 77 14t58 40t37 62.5t13 81.5q-1 91 -49.5 144.5
t-135.5 53.5q-42 0 -76.5 -14.5t-59 -40.5t-37.5 -62.5t-13 -80.5q0 -45 13 -81.5t37.5 -62.5t59 -40t76.5 -14zM378 -72q26 0 43.5 -17.5t17.5 -42.5q0 -26 -17.5 -43.5t-43.5 -17.5t-43.5 17.5t-17.5 43.5q0 25 17.5 42.5t43.5 17.5z" />
    <glyph glyph-name="agrave.ss01" horiz-adv-x="698" 
d="M230 823l236 -101l-31 -74l-234 102zM517 537h90v-537h-90v103q-13 -23 -31 -44t-43 -36.5t-56 -25t-69 -9.5q-62 0 -111.5 20.5t-84 57.5t-53 88.5t-18.5 113.5t18.5 113.5t53 88.5t84 57.5t111.5 20.5q38 0 69 -9t56 -25t43 -37t31 -44v104zM332 70q43 0 77 14t58 40
t37 62.5t13 81.5q-1 91 -49.5 144.5t-135.5 53.5q-42 0 -76.5 -14.5t-59 -40.5t-37.5 -62.5t-13 -80.5q0 -45 13 -81.5t37.5 -62.5t59 -40t76.5 -14z" />
    <glyph glyph-name="amacron.ss01" horiz-adv-x="698" 
d="M199 757h308v-67h-308v67zM517 537h90v-537h-90v103q-13 -23 -31 -44t-43 -36.5t-56 -25t-69 -9.5q-62 0 -111.5 20.5t-84 57.5t-53 88.5t-18.5 113.5t18.5 113.5t53 88.5t84 57.5t111.5 20.5q38 0 69 -9t56 -25t43 -37t31 -44v104zM332 70q43 0 77 14t58 40t37 62.5
t13 81.5q-1 91 -49.5 144.5t-135.5 53.5q-42 0 -76.5 -14.5t-59 -40.5t-37.5 -62.5t-13 -80.5q0 -45 13 -81.5t37.5 -62.5t59 -40t76.5 -14z" />
    <glyph glyph-name="aogonek.ss01" horiz-adv-x="698" 
d="M607 537v-537q-33 -13 -54.5 -24.5t-34 -22t-17.5 -20.5t-5 -20q0 -21 18.5 -33t56.5 -12h36v-69h-56q-65 0 -97 25t-32 69q0 32 20.5 60t74.5 53v97q-13 -23 -31 -44t-43 -36.5t-56 -25t-69 -9.5q-62 0 -111.5 20.5t-84 57.5t-53 88.5t-18.5 113.5t18.5 113.5t53 88.5
t84 57.5t111.5 20.5q38 0 69 -9t56 -25t43 -37t31 -44v104h90zM332 70q43 0 77 14t58 40t37 62.5t13 81.5q-1 91 -49.5 144.5t-135.5 53.5q-42 0 -76.5 -14.5t-59 -40.5t-37.5 -62.5t-13 -80.5q0 -45 13 -81.5t37.5 -62.5t59 -40t76.5 -14z" />
    <glyph glyph-name="aring.ss01" horiz-adv-x="698" 
d="M353 648q-23 0 -43 8.5t-35 23.5t-23.5 35t-8.5 43q0 22 8.5 41.5t23.5 34.5t35 23.5t43 8.5q24 0 44 -8.5t34.5 -23.5t22.5 -34.5t8 -41.5q0 -23 -8 -43t-22.5 -35t-34.5 -23.5t-44 -8.5zM353 808q-22 0 -36.5 -15t-14.5 -35q0 -21 14.5 -36t36.5 -15q21 0 35 14.5
t14 36.5q0 20 -14 35t-35 15zM517 537h90v-537h-90v103q-13 -23 -31 -44t-43 -36.5t-56 -25t-69 -9.5q-62 0 -111.5 20.5t-84 57.5t-53 88.5t-18.5 113.5t18.5 113.5t53 88.5t84 57.5t111.5 20.5q38 0 69 -9t56 -25t43 -37t31 -44v104zM332 70q43 0 77 14t58 40t37 62.5
t13 81.5q-1 91 -49.5 144.5t-135.5 53.5q-42 0 -76.5 -14.5t-59 -40.5t-37.5 -62.5t-13 -80.5q0 -45 13 -81.5t37.5 -62.5t59 -40t76.5 -14z" />
    <glyph glyph-name="aringacute.ss01" horiz-adv-x="698" 
d="M448 1055l29 -74l-234 -101l-31 73zM243 758q0 22 8.5 41.5t23.5 34.5t35 23.5t43 8.5q24 0 44 -8.5t34.5 -23.5t22.5 -34.5t8 -41.5q0 -23 -8 -43t-22.5 -35t-34.5 -23.5t-44 -8.5q-23 0 -43 8.5t-35 23.5t-23.5 35t-8.5 43zM402 758q0 20 -14 35t-35 15
q-22 0 -36.5 -15t-14.5 -35q0 -21 14.5 -36t36.5 -15q21 0 35 14.5t14 36.5zM517 537h90v-537h-90v103q-13 -23 -31 -44t-43 -36.5t-56 -25t-69 -9.5q-62 0 -111.5 20.5t-84 57.5t-53 88.5t-18.5 113.5t18.5 113.5t53 88.5t84 57.5t111.5 20.5q38 0 69 -9t56 -25t43 -37
t31 -44v104zM332 70q43 0 77 14t58 40t37 62.5t13 81.5q-1 91 -49.5 144.5t-135.5 53.5q-42 0 -76.5 -14.5t-59 -40.5t-37.5 -62.5t-13 -80.5q0 -45 13 -81.5t37.5 -62.5t59 -40t76.5 -14z" />
    <glyph glyph-name="atilde.ss01" horiz-adv-x="698" 
d="M290 723q-35 0 -42 -50l-65 13q6 54 31 80.5t66 26.5q17 0 34.5 -6.5t45.5 -24.5q28 -16 39.5 -20.5t21.5 -4.5q30 0 37 50l66 -12q-6 -55 -31 -81t-63 -26q-18 0 -37 6t-47 24q-25 16 -35 20.5t-21 4.5zM517 537h90v-537h-90v103q-13 -23 -31 -44t-43 -36.5t-56 -25
t-69 -9.5q-62 0 -111.5 20.5t-84 57.5t-53 88.5t-18.5 113.5t18.5 113.5t53 88.5t84 57.5t111.5 20.5q38 0 69 -9t56 -25t43 -37t31 -44v104zM332 70q43 0 77 14t58 40t37 62.5t13 81.5q-1 91 -49.5 144.5t-135.5 53.5q-42 0 -76.5 -14.5t-59 -40.5t-37.5 -62.5t-13 -80.5
q0 -45 13 -81.5t37.5 -62.5t59 -40t76.5 -14z" />
    <glyph glyph-name="ordfeminine.ss01" horiz-adv-x="389" 
d="M183 381q-32 0 -60 11.5t-49 33t-33 52.5t-12 71t12 71.5t33 53t49 33t60 11.5q35 0 63.5 -14t47.5 -41v51h60v-330h-60v52q-19 -27 -47.5 -41t-63.5 -14zM194 654q-43 0 -71 -28.5t-28 -76.5q0 -47 28 -75.5t71 -28.5q44 0 72 28t28 76t-28 76.5t-72 28.5zM52 271v61
h305v-61h-305z" />
    <glyph glyph-name="one.lf" horiz-adv-x="399" 
d="M288 704v-704h-90v621h-168v83h258z" />
    <glyph glyph-name="zero.slash" 
d="M336 718q56 0 101.5 -17t78 -49t50.5 -77.5t18 -102.5v-239q0 -57 -18 -102.5t-50.5 -77.5t-78 -49t-101.5 -17t-101.5 17t-78 49t-50 77.5t-17.5 102.5v239q0 57 17.5 102.5t50 77.5t78 49t101.5 17zM180 231l286 338q-21 32 -54.5 49.5t-75.5 17.5q-34 0 -62.5 -12
t-49.5 -33.5t-32.5 -52.5t-11.5 -69v-238zM493 469v10t-1 10l-291 -344q20 -36 55 -56.5t80 -20.5q35 0 63.5 12t49.5 33.5t32.5 52.5t11.5 69v234z" />
    <glyph glyph-name="zero.dnom" horiz-adv-x="380" 
d="M190 -10q-69 0 -109.5 39t-40.5 108v102q0 70 40.5 109t109.5 39t109.5 -39t40.5 -109v-102q0 -69 -40.5 -108t-109.5 -39zM190 57q32 0 53 22.5t21 61.5v94q0 39 -21 61t-53 22t-53 -22t-21 -61v-94q0 -39 21 -61.5t53 -22.5z" />
    <glyph glyph-name="one.dnom" horiz-adv-x="380" 
d="M244 376v-308h95v-68h-284v68h117v240h-111v68h183z" />
    <glyph glyph-name="two.dnom" horiz-adv-x="379" 
d="M158 68h179v-68h-289v63l145 111q36 29 49 47t13 37q0 23 -16.5 39t-47.5 16t-50 -17.5t-19 -44.5h-75q0 57 38.5 93.5t107.5 36.5q66 0 102 -33.5t36 -82.5q0 -16 -4 -31t-14.5 -31t-29 -34t-47.5 -41z" />
    <glyph glyph-name="three.dnom" horiz-adv-x="380" 
d="M320 308l-97 -78q52 -5 82.5 -36t30.5 -79q0 -27 -11 -49t-30.5 -38t-46.5 -25t-59 -9q-60 0 -99 27t-54 71l69 22q10 -26 30.5 -39.5t49.5 -13.5q32 0 53 18t21 46q0 26 -19 43t-50 17q-22 0 -40 -10l-31 37l122 96h-185v68h264v-68z" />
    <glyph glyph-name="four.dnom" horiz-adv-x="379" 
d="M296 130h61v-57h-61v-73h-70v73h-195v57l195 246h70v-246zM226 275l-115 -145h115v145z" />
    <glyph glyph-name="five.dnom" horiz-adv-x="380" 
d="M203 246q60 0 98.5 -34t38.5 -91q0 -56 -40 -91.5t-105 -35.5q-59 0 -97 26t-55 68l69 22q11 -24 32 -36.5t47 -12.5q30 0 52 18t22 47t-21 46.5t-53 17.5q-22 0 -39 -8.5t-28 -22.5h-60v217h251v-68h-188v-81q17 10 36.5 14.5t39.5 4.5z" />
    <glyph glyph-name="six.dnom" horiz-adv-x="380" 
d="M211 244q60 0 97 -32.5t37 -91.5q0 -57 -41 -91.5t-107 -34.5q-72 0 -112.5 39t-40.5 108v58q0 82 44.5 129.5t129.5 47.5h88v-68h-91q-45 0 -70.5 -25.5t-25.5 -64.5v-9q14 16 37 25.5t55 9.5zM195 54q34 0 54 18.5t20 49.5t-20 49t-54 18t-54 -18t-20 -49t20 -49.5
t54 -18.5z" />
    <glyph glyph-name="seven.dnom" horiz-adv-x="380" 
d="M42 307v69h295v-69l-159 -307h-84l159 307h-211z" />
    <glyph glyph-name="eight.dnom" horiz-adv-x="380" 
d="M273 210q30 -14 49.5 -39t19.5 -62q0 -51 -41 -82.5t-111 -31.5t-111 31.5t-41 82.5q0 37 19.5 62t49.5 39q-20 11 -32.5 30t-12.5 45q0 41 33 68.5t95 27.5q61 0 94 -27.5t33 -68.5q0 -26 -12 -44.5t-32 -30.5zM190 321q-27 0 -43.5 -13t-16.5 -33t17 -32.5t43 -12.5
t43 12.5t17 32.5t-16.5 33t-43.5 13zM190 55q34 0 54 17t20 43t-20.5 43t-53.5 17q-35 0 -54.5 -17t-19.5 -43t20 -43t54 -17z" />
    <glyph glyph-name="nine.dnom" horiz-adv-x="380" 
d="M184 382q71 0 111.5 -38.5t40.5 -107.5v-60q0 -81 -44 -128.5t-129 -47.5h-88v68h90q45 0 70.5 26t25.5 65v8q-14 -16 -36.5 -25t-54.5 -9q-60 0 -97 32t-37 92q0 57 40.5 91t107.5 34zM186 187q33 0 53.5 18t20.5 48q0 32 -20.5 50t-53.5 18q-34 0 -54.5 -18t-20.5 -50
q0 -30 20.5 -48t54.5 -18z" />
    <glyph glyph-name="zero.numr" horiz-adv-x="380" 
d="M190 315q-69 0 -109.5 39t-40.5 109v101q0 70 40.5 109t109.5 39t109.5 -39t40.5 -109v-101q0 -70 -40.5 -109t-109.5 -39zM190 383q32 0 53 22t21 61v94q0 39 -21 61.5t-53 22.5t-53 -22t-21 -62v-94q0 -39 21 -61t53 -22z" />
    <glyph glyph-name="one.numr" horiz-adv-x="380" 
d="M244 701v-308h95v-68h-284v68h117v241h-111v67h183z" />
    <glyph glyph-name="two.numr" horiz-adv-x="379" 
d="M158 393h179v-68h-289v63l145 112q36 29 49 47t13 37q0 23 -16.5 38.5t-47.5 15.5t-50 -17t-19 -45h-75q0 57 38.5 94t107.5 37q66 0 102 -33.5t36 -83.5q0 -16 -4 -31t-14.5 -31t-29 -34t-47.5 -41z" />
    <glyph glyph-name="three.numr" horiz-adv-x="380" 
d="M320 634l-97 -78q52 -5 82.5 -36.5t30.5 -79.5q0 -27 -11 -49t-30.5 -38t-46.5 -25t-59 -9q-60 0 -99 27t-54 71l69 22q10 -25 30.5 -38.5t49.5 -13.5q32 0 53 17.5t21 45.5q0 26 -19 43t-50 17q-22 0 -40 -10l-31 37l123 97h-186v67h264v-67z" />
    <glyph glyph-name="four.numr" horiz-adv-x="379" 
d="M296 456h61v-58h-61v-73h-70v73h-195v58l195 245h70v-245zM226 601l-114 -145h114v145z" />
    <glyph glyph-name="five.numr" horiz-adv-x="380" 
d="M203 571q60 0 98.5 -33.5t38.5 -90.5t-40 -92.5t-105 -35.5q-59 0 -97 26.5t-55 67.5l69 22q11 -24 32 -36t47 -12q30 0 52 17.5t22 46.5t-21 47t-53 18q-22 0 -39 -9t-28 -23h-60v217h251v-67h-188v-82q17 10 36.5 14.5t39.5 4.5z" />
    <glyph glyph-name="six.numr" horiz-adv-x="380" 
d="M211 569q60 0 97 -32.5t37 -91.5q0 -57 -41 -91.5t-107 -34.5q-72 0 -112.5 39t-40.5 108v58q0 82 44.5 129.5t129.5 47.5h88v-67h-91q-45 0 -70.5 -26t-25.5 -65v-9q14 16 37 25.5t55 9.5zM195 380q34 0 54 18.5t20 49.5q0 30 -20 48.5t-54 18.5t-54 -18.5t-20 -48.5
q0 -31 20 -49.5t54 -18.5z" />
    <glyph glyph-name="seven.numr" horiz-adv-x="380" 
d="M42 632v69h295v-69l-159 -307h-84l159 307h-211z" />
    <glyph glyph-name="eight.numr" horiz-adv-x="380" 
d="M273 536q30 -14 49.5 -39t19.5 -62q0 -51 -41 -82.5t-111 -31.5t-111 31.5t-41 82.5q0 37 19.5 62t49.5 38q-20 12 -32.5 31t-12.5 45q0 40 33 68t95 28q61 0 94 -27.5t33 -68.5q0 -26 -12 -45t-32 -30zM190 646q-27 0 -43.5 -12.5t-16.5 -33.5q0 -20 17 -32.5t43 -12.5
t43 12.5t17 32.5q0 21 -16.5 33.5t-43.5 12.5zM190 381q34 0 54 17t20 43t-20.5 42.5t-53.5 16.5q-35 0 -54.5 -16.5t-19.5 -42.5q0 -27 20 -43.5t54 -16.5z" />
    <glyph glyph-name="nine.numr" horiz-adv-x="380" 
d="M184 708q71 0 111.5 -39t40.5 -108v-59q0 -82 -44 -129.5t-129 -47.5h-88v69h90q45 0 70.5 25.5t25.5 64.5v8q-14 -16 -36.5 -25t-54.5 -9q-60 0 -97 32t-37 92q0 57 40.5 91.5t107.5 34.5zM186 513q33 0 53.5 18t20.5 48q0 31 -20.5 49t-53.5 18q-34 0 -54.5 -18
t-20.5 -49q0 -30 20.5 -48t54.5 -18z" />
    <glyph glyph-name="colon.case" horiz-adv-x="232" 
d="M116 430q-30 0 -51 21.5t-21 51.5t21 51t51 21t51 -21t21 -51t-21 -51.5t-51 -21.5zM116 119q-30 0 -51 22t-21 51q0 31 21 51.5t51 20.5t51 -20.5t21 -51.5q0 -29 -21 -51t-51 -22z" />
    <glyph glyph-name="question.ss02" horiz-adv-x="534" 
d="M202 287q0 41 11.5 65.5t47.5 46.5l70 43q34 22 52 49t18 61q0 25 -9 46.5t-26.5 37.5t-42 25.5t-56.5 9.5q-30 0 -56 -9.5t-45 -26.5t-29.5 -40.5t-10.5 -50.5v-5h-98q0 46 17 85.5t48.5 69t76.5 46t100 16.5q54 0 96.5 -15.5t72 -42t45.5 -62.5t16 -77q0 -111 -97 -172
l-67 -42q-21 -14 -29.5 -29t-8.5 -38v-65q-18 12 -47 12t-49 -12v74zM257 -12q-30 0 -51.5 22t-21.5 52q0 31 21.5 52.5t51.5 21.5q31 0 52 -21.5t21 -52.5q0 -30 -21 -52t-52 -22z" />
    <glyph glyph-name="questiondown.ss02" horiz-adv-x="534" 
d="M284 426q-30 0 -51.5 21.5t-21.5 52.5q0 30 21.5 52t51.5 22t51.5 -22t21.5 -52q0 -31 -21.5 -52.5t-51.5 -21.5zM271 -194q-54 0 -96.5 15.5t-72 42t-45.5 62.5t-16 77q0 111 97 172l67 42q21 14 29.5 29t8.5 38v65q18 -12 47 -12q31 0 49 12v-74q0 -41 -11.5 -65.5
t-47.5 -46.5l-70 -43q-33 -22 -51.5 -49t-18.5 -61q0 -25 9 -46.5t26.5 -37.5t42.5 -25.5t56 -9.5q30 0 56 9.5t45 26.5t29.5 40.5t10.5 50.5v5h99q0 -46 -17 -85.5t-49 -69t-76.5 -46t-100.5 -16.5z" />
    <glyph glyph-name="parenleft.case" horiz-adv-x="346" 
d="M264 -57q-93 79 -144 183.5t-51 241.5t51 242t144 183l51 -57q-73 -72 -115 -161t-42 -207t42 -206.5t115 -160.5z" />
    <glyph glyph-name="parenright.case" horiz-adv-x="346" 
d="M31 1q74 72 115.5 160.5t41.5 206.5t-41.5 207t-115.5 161l52 57q92 -78 143 -183t51 -242t-51 -241.5t-143 -183.5z" />
    <glyph glyph-name="braceleft.case" horiz-adv-x="412" 
d="M268 471q0 -80 -51 -106q51 -27 51 -107v-168q0 -33 13.5 -46.5t46.5 -13.5h58v-78h-83q-61 0 -90.5 31.5t-29.5 89.5v193q0 60 -60 60h-63v77h63q60 0 60 60v201q0 58 29.5 89.5t90.5 31.5h83v-77h-58q-33 0 -46.5 -14t-13.5 -46v-177z" />
    <glyph glyph-name="braceright.case" horiz-adv-x="412" 
d="M352 403v-77h-63q-60 0 -60 -60v-193q0 -58 -29.5 -89.5t-89.5 -31.5h-83v78h58q32 0 46 13.5t14 46.5v168q0 80 51 107q-51 26 -51 106v177q0 32 -14 46t-46 14h-58v77h83q60 0 89.5 -31.5t29.5 -89.5v-201q0 -60 60 -60h63z" />
    <glyph glyph-name="bracketleft.case" horiz-adv-x="386" 
d="M369 783v-72h-173v-688h173v-71h-258v831h258z" />
    <glyph glyph-name="bracketright.case" horiz-adv-x="386" 
d="M275 783v-831h-258v71h173v688h-173v72h258z" />
    <glyph glyph-name="hyphen.case" horiz-adv-x="431" 
d="M389 334h-347v72h347v-72z" />
    <glyph glyph-name="endash.case" horiz-adv-x="500" 
d="M500 334h-500v72h500v-72z" />
    <glyph glyph-name="emdash.case" horiz-adv-x="1000" 
d="M1000 334h-1000v72h1000v-72z" />
    <glyph glyph-name="guillemotleft.case" horiz-adv-x="547" 
d="M242 584l52 -49l-184 -179l184 -179l-52 -49l-228 223v10zM482 584l52 -49l-184 -179l184 -179l-52 -49l-228 223v10z" />
    <glyph glyph-name="guillemotright.case" horiz-adv-x="547" 
d="M66 584l228 -223v-10l-228 -223l-52 49l183 179l-183 179zM254 535l52 49l228 -223v-10l-228 -223l-52 49l183 179z" />
    <glyph glyph-name="guilsinglleft.case" horiz-adv-x="300" 
d="M240 584l52 -49l-184 -179l184 -179l-52 -49l-228 223v10z" />
    <glyph glyph-name="guilsinglright.case" horiz-adv-x="307" 
d="M14 535l52 49l228 -223v-10l-228 -223l-52 49l183 179z" />
    <glyph glyph-name="florin" 
d="M564 619h-87q-34 0 -49 -15.5t-19 -47.5l-12 -103h134v-66h-142l-53 -450q-8 -66 -41.5 -96.5t-100.5 -30.5h-86v85h73q34 0 49 16t19 48l51 428h-103v66h110l15 124q8 66 41.5 96.5t100.5 30.5h100v-85z" />
    <glyph glyph-name="at.case" horiz-adv-x="1000" 
d="M511 791q91 0 168 -29t132.5 -81t87 -125t31.5 -162q0 -61 -14 -110t-38 -83t-57 -52t-71 -18q-54 0 -84 27t-35 74q-23 -43 -72.5 -72t-114.5 -29q-72 0 -112.5 34t-40.5 94q0 53 40 90.5t130 51.5l169 26q-2 57 -34.5 84t-83.5 27q-54 0 -84 -23t-35 -60h-77
q3 31 17 58t38.5 47t59.5 31.5t80 11.5q89 0 142.5 -48.5t53.5 -144.5v-141q0 -28 12 -45t36 -17q41 0 69 46.5t28 137.5q0 76 -26 136.5t-71.5 102.5t-107.5 64.5t-135 22.5q-82 0 -148.5 -26.5t-114 -74.5t-73.5 -114.5t-26 -145.5t26.5 -145t74 -114t112.5 -74.5
t142 -26.5q63 0 113 13.5t95 42.5l34 -66q-52 -30 -111 -47t-132 -17q-98 0 -178 32t-137 90t-88.5 137.5t-31.5 174.5t31.5 174.5t89.5 137.5t139.5 90.5t181.5 32.5zM447 207q35 0 68 11t58 31t40.5 48.5t16.5 63.5v1l-156 -26q-57 -9 -80.5 -26.5t-23.5 -45.5
q0 -25 20.5 -41t56.5 -16z" />
    <glyph glyph-name="u1F91E.locl" horiz-adv-x="578" 
d="M488 241h1v-38l13 -9v-142l-10 -19l-48 -22l-24 15v-18l-14 -19q-6 -2 -38 -10t-80 -8q-27 0 -49 6t-38 14.5t-27 18t-16 16.5l-3 10v144l15 5v32l-119 166l-2 18l26 100l-48 155l10 20l88 32l13 54l21 13l114 -28l13 -21l-5 -23l73 -23l8 -14l84 -25l6 -11l77 -27
l12 -19l-25 -96zM249 718l-82 19l-11 -47l5 -17l73 -19zM177 500l-51 172l-63 -22l54 -170zM277 456l25 91l27 105l-56 18l-53 -197zM172 636l30 -102l23 88zM333 535l-27 -104l-1 -1l-1 -2l61 -16v1l55 200l-60 19zM402 421l59 -13l43 168l-53 19zM97 449l-13 -53l9 -12
l42 29l24 -4l91 -130l-4 -22l-41 -29q20 -15 45 -20t46 -5q59 0 97.5 15.5t61.5 32.5l13 121l-181 -64l-92 138l-11 21l-73 -25zM212 274l-70 102l-30 -20l72 -103zM453 54l18 10v103l-18 -9v-104zM192 41q15 -15 43.5 -23.5t52.5 -8.5q8 0 17 0.5t18 1.5v105q-8 -1 -16 -1
h-17q-33 0 -57 7t-41 18v-36q40 -26 93 -26v-35q-25 0 -49 6t-44 18v-26zM380 124l-10 -2t-12 -2v-105q7 2 12 2.5t10 2.5v104z" />
    <glyph glyph-name="at.ss01" horiz-adv-x="1000" 
d="M511 720q91 0 168 -29t132.5 -81t87 -125t31.5 -162q0 -63 -13 -113.5t-36.5 -85.5t-55 -53.5t-68.5 -18.5q-49 0 -79 24.5t-38 69.5q-20 -38 -60 -66t-104 -28q-51 0 -91 17.5t-68 48.5t-43 74t-15 95t15 95.5t43 75t68 49t91 17.5q62 0 101 -27t60 -62v77h80v-319
q0 -31 11.5 -48.5t38.5 -17.5q38 0 61.5 48.5t23.5 144.5q0 76 -26 136.5t-71.5 102.5t-107.5 64.5t-135 22.5q-82 0 -148.5 -26.5t-114 -74.5t-73.5 -114.5t-26 -145.5t26.5 -145t74 -114t112.5 -74.5t142 -26.5q63 0 113 13.5t95 42.5l34 -66q-52 -30 -111 -47t-132 -17
q-98 0 -178 32t-137 90t-88.5 137.5t-31.5 174.5t31.5 174.5t89.5 137.5t139.5 90.5t181.5 32.5zM488 124q71 0 109.5 45t39.5 117v1q-1 75 -40.5 119.5t-108.5 44.5q-34 0 -61.5 -12t-47 -33.5t-30.5 -52t-11 -66.5t11 -66t30.5 -51.5t47 -33.5t61.5 -12z" />
    <glyph glyph-name="at.case.ss01" horiz-adv-x="1000" 
d="M511 791q91 0 168 -29t132.5 -81t87 -125t31.5 -162q0 -61 -14 -110t-38 -83t-57 -52t-71 -18q-54 0 -84 27t-35 74q-23 -43 -72.5 -72t-114.5 -29q-72 0 -112.5 34t-40.5 94q0 53 40 90.5t130 51.5l169 26q-2 57 -34.5 84t-83.5 27q-54 0 -84 -23t-35 -60h-77
q3 31 17 58t38.5 47t59.5 31.5t80 11.5q89 0 142.5 -48.5t53.5 -144.5v-141q0 -28 12 -45t36 -17q41 0 69 46.5t28 137.5q0 76 -26 136.5t-71.5 102.5t-107.5 64.5t-135 22.5q-82 0 -148.5 -26.5t-114 -74.5t-73.5 -114.5t-26 -145.5t26.5 -145t74 -114t112.5 -74.5
t142 -26.5q63 0 113 13.5t95 42.5l34 -66q-52 -30 -111 -47t-132 -17q-98 0 -178 32t-137 90t-88.5 137.5t-31.5 174.5t31.5 174.5t89.5 137.5t139.5 90.5t181.5 32.5zM447 207q35 0 68 11t58 31t40.5 48.5t16.5 63.5v1l-156 -26q-57 -9 -80.5 -26.5t-23.5 -45.5
q0 -25 20.5 -41t56.5 -16z" />
    <glyph glyph-name="dotbelowcomb" horiz-adv-x="0" 
d="M-61 -193q-26 0 -43.5 17.5t-17.5 43.5q0 25 17.5 42.5t43.5 17.5t43.5 -17.5t17.5 -42.5q0 -26 -17.5 -43.5t-43.5 -17.5z" />
    </font>
</defs>
</svg>
