<?xml version="1.0" standalone="no"?>
<!DOCTYPE svg PUBLIC "-//W3C//DTD SVG 1.1//EN" "http://www.w3.org/Graphics/SVG/1.1/DTD/svg11.dtd" >
<svg xmlns="http://www.w3.org/2000/svg" xmlns:xlink="http://www.w3.org/1999/xlink" version="1.1">
<metadata>
Created by FontForge 20170731 at Mon Nov 15 18:33:00 2021
 By Aleksey,,,
Copyright (c) 2020 by Naipe Foundry. All rights are reserved.	
</metadata>
<defs>
<font id="PacaembuRegular" horiz-adv-x="686" >
  <font-face 
    font-family="Pacaembu Regular"
    font-weight="400"
    font-stretch="normal"
    units-per-em="1000"
    panose-1="0 0 0 0 0 0 0 0 0 0"
    ascent="800"
    descent="-200"
    x-height="547"
    cap-height="747"
    bbox="-373 -259 1188 1161"
    underline-thickness="50"
    underline-position="-175"
    unicode-range="U+0020-1F91E"
  />
<missing-glyph horiz-adv-x="999" 
d="M499 -244q-87 0 -159.5 27.5t-125.5 77.5t-82.5 120.5t-29.5 157.5v521q0 86 29.5 157t82.5 121t125.5 77.5t159.5 27.5t160 -27.5t126 -77.5t82.5 -121t29.5 -157v-521q0 -87 -29.5 -157.5t-82.5 -120.5t-126 -77.5t-160 -27.5zM213 790v-778h573v778h-573zM233 411v359
h119v-120h78q6 -24 25 -38.5t45 -14.5t44.5 14.5t24.5 38.5h78v120h119v-359h-175q-4 38 -28.5 60.5t-62.5 22.5t-63 -22.5t-29 -60.5h-175zM627 670h-255v100h40v-70h175v70h40v-100zM567 720h-135v50h135v-50zM499 616q-16 0 -28.5 9.5t-17.5 24.5h93q-6 -15 -18.5 -24.5
t-28.5 -9.5zM431 411q3 28 22 46t46 18q28 0 47 -18t22 -46h-137zM352 32h-119v359h175q4 -38 29 -60.5t63 -22.5t62.5 22.5t28.5 60.5h175v-359h-119v120h-78q-6 24 -24.5 38.5t-44.5 14.5t-45 -14.5t-25 -38.5h-78v-120zM499 327q-27 0 -46 18t-22 46h137q-3 -28 -22 -46
t-47 -18zM453 152q5 15 17.5 24.5t28.5 9.5q17 0 29 -9.5t18 -24.5h-93zM412 32h-40v100h255v-100h-40v70h-175v-70zM567 32h-135v50h135v-50z" />
    <glyph glyph-name="arrowleft" unicode="&#x3c;&#x2d;" 
d="M263 432h390v-114h-390l168 -153l-83 -85l-315 287v16l315 287l83 -85z" />
    <glyph glyph-name="arrowright" unicode="&#x2d;&#x3e;" 
d="M255 585l83 85l315 -287v-16l-315 -287l-83 85l168 153h-390v114h390z" />
    <glyph glyph-name="fi" unicode="fi" horiz-adv-x="656" 
d="M120 547v84q0 76 43.5 119.5t121.5 43.5h89v-102h-71q-63 0 -63 -61v-84h116v-102h-116v-445h-120v445h-85v102h85zM520 612q-35 0 -55.5 22.5t-20.5 54.5t20.5 54t55.5 22t55.5 -22t20.5 -54t-20.5 -54.5t-55.5 -22.5zM460 0v557q12 -8 26 -12.5t34 -4.5t34.5 4.5
t25.5 12.5v-557h-120z" />
    <glyph glyph-name="fl" unicode="fl" horiz-adv-x="664" 
d="M120 547v84q0 76 43.5 119.5t121.5 43.5h89v-102h-71q-63 0 -63 -61v-84h116v-102h-116v-445h-120v445h-85v102h85zM464 0v781h120v-781h-120z" />
    <glyph glyph-name=".notdef" horiz-adv-x="999" 
d="M499 -244q-87 0 -159.5 27.5t-125.5 77.5t-82.5 120.5t-29.5 157.5v521q0 86 29.5 157t82.5 121t125.5 77.5t159.5 27.5t160 -27.5t126 -77.5t82.5 -121t29.5 -157v-521q0 -87 -29.5 -157.5t-82.5 -120.5t-126 -77.5t-160 -27.5zM213 790v-778h573v778h-573zM233 411v359
h119v-120h78q6 -24 25 -38.5t45 -14.5t44.5 14.5t24.5 38.5h78v120h119v-359h-175q-4 38 -28.5 60.5t-62.5 22.5t-63 -22.5t-29 -60.5h-175zM627 670h-255v100h40v-70h175v70h40v-100zM567 720h-135v50h135v-50zM499 616q-16 0 -28.5 9.5t-17.5 24.5h93q-6 -15 -18.5 -24.5
t-28.5 -9.5zM431 411q3 28 22 46t46 18q28 0 47 -18t22 -46h-137zM352 32h-119v359h175q4 -38 29 -60.5t63 -22.5t62.5 22.5t28.5 60.5h175v-359h-119v120h-78q-6 24 -24.5 38.5t-44.5 14.5t-45 -14.5t-25 -38.5h-78v-120zM499 327q-27 0 -46 18t-22 46h137q-3 -28 -22 -46
t-47 -18zM453 152q5 15 17.5 24.5t28.5 9.5q17 0 29 -9.5t18 -24.5h-93zM412 32h-40v100h255v-100h-40v70h-175v-70zM567 32h-135v50h135v-50z" />
    <glyph glyph-name=".null" horiz-adv-x="500" 
 />
    <glyph glyph-name="uni000D" horiz-adv-x="500" 
 />
    <glyph glyph-name="space" unicode=" " horiz-adv-x="356" 
 />
    <glyph glyph-name="exclam" unicode="!" horiz-adv-x="347" 
d="M109 747h129v-525q-25 17 -63 17q-19 0 -36.5 -4.5t-29.5 -12.5v525zM174 -12q-37 0 -63 26.5t-26 63.5t26 63t63 26t62.5 -26t25.5 -63t-25.5 -63.5t-62.5 -26.5z" />
    <glyph glyph-name="quotedbl" unicode="&#x22;" horiz-adv-x="436" 
d="M185 516h-85l-35 110v180h120v-290zM371 516h-85l-35 110v180h120v-290z" />
    <glyph glyph-name="numbersign" unicode="#" horiz-adv-x="730" 
d="M705 556v-97h-128l-28 -188h118v-97h-132l-27 -189l-102 17l25 172h-186l-27 -188l-102 17l24 171h-115v97h129l27 188h-118v97h132l25 174l103 -18l-23 -156h185l25 173l103 -18l-22 -155h114zM259 271h185l27 188h-185z" />
    <glyph glyph-name="dollar" unicode="$" horiz-adv-x="687" 
d="M620 200q0 -41 -14 -76.5t-42 -63t-69.5 -45t-96.5 -23.5v-112h-99v112q-113 12 -172.5 74t-59.5 156h130q0 -46 27 -79.5t75 -45.5v223l-9 2q-57 14 -96.5 33.5t-64 45.5t-35.5 58t-11 71q0 79 55.5 133.5t160.5 65.5v112h99v-113q102 -14 154.5 -70.5t52.5 -141.5h-130
q0 38 -19.5 66t-57.5 40v-210l15 -4q53 -14 92 -32.5t64.5 -43.5t38 -57.5t12.5 -74.5zM214 532q0 -35 19 -56.5t66 -36.5v187q-41 -10 -63 -35.5t-22 -58.5zM398 96q45 11 68.5 38.5t23.5 63.5q0 38 -20.5 61t-71.5 37v-200z" />
    <glyph glyph-name="percent" unicode="%" horiz-adv-x="814" 
d="M184 392q-37 0 -68.5 12.5t-53.5 35t-34.5 53t-12.5 67.5t12.5 68t34.5 53.5t53.5 35t68.5 12.5q38 0 69 -12.5t53 -35t34 -53.5t12 -68t-12 -67.5t-34 -53t-53 -35t-69 -12.5zM184 0h-127l570 716h127zM184 478q33 0 57.5 24t24.5 59t-24.5 58.5t-57.5 23.5
q-35 0 -59 -23.5t-24 -58.5t24 -59t59 -24zM641 -13q-37 0 -68.5 12.5t-53.5 35t-34.5 53.5t-12.5 68t12.5 68t34.5 53t53.5 34.5t68.5 12.5q38 0 69 -12.5t53 -34.5t34 -53t12 -68t-12 -68t-34 -53.5t-53 -35t-69 -12.5zM641 73q33 0 57.5 24t24.5 60q0 35 -24.5 58.5
t-57.5 23.5q-35 0 -59 -23.5t-24 -58.5q0 -36 24 -60t59 -24z" />
    <glyph glyph-name="ampersand" unicode="&#x26;" horiz-adv-x="830" 
d="M815 72l-75 -99l-130 104q-101 -90 -262 -90q-69 0 -123.5 16t-92 46t-57.5 72t-20 94q0 59 35.5 112t107.5 89q-33 37 -46.5 71t-13.5 72q0 42 16.5 78.5t48 63.5t77.5 42.5t105 15.5q65 0 114 -18t81.5 -49.5t49 -74.5t16.5 -92h-133q0 58 -32 93.5t-94 35.5
q-58 0 -86.5 -29t-28.5 -70q0 -29 17.5 -55t59.5 -59l233 -185q22 64 22 144h134q0 -66 -13 -122.5t-38 -104.5zM361 93q93 0 156 58l-224 179q-5 4 -9.5 7.5t-8.5 7.5q-46 -19 -66.5 -48t-20.5 -70q0 -28 11 -52.5t33 -42.5t54 -28.5t75 -10.5z" />
    <glyph glyph-name="quotesingle" unicode="'" horiz-adv-x="250" 
d="M185 516h-85l-35 110v180h120v-290z" />
    <glyph glyph-name="parenleft" unicode="(" horiz-adv-x="383" 
d="M292 -222q-112 94 -172 222.5t-60 295.5q0 166 60 294.5t172 222.5l66 -78q-85 -82 -134 -190t-49 -249q0 -142 49 -250t134 -190z" />
    <glyph glyph-name="parenright" unicode=")" horiz-adv-x="383" 
d="M25 -144q86 82 134.5 190t48.5 250q0 141 -48.5 249t-134.5 190l66 78q112 -94 172 -222.5t60 -294.5q0 -167 -60 -295.5t-172 -222.5z" />
    <glyph glyph-name="asterisk" unicode="*" horiz-adv-x="394" 
d="M197 523l-55 -95l-64 37l55 95h-108v72h108l-55 96l63 36l55 -96l57 96l63 -36l-55 -96h108v-72h-109l56 -95l-64 -37z" />
    <glyph glyph-name="plus" unicode="+" 
d="M398 416h187v-103h-187v-189h-111v189h-186v103h186v189h111v-189z" />
    <glyph glyph-name="comma" unicode="," horiz-adv-x="226" 
d="M116 137q39 0 62 -28.5t23 -80.5q0 -62 -28.5 -103t-87.5 -58l-20 -6l-21 60l18 6q32 11 48.5 26.5t22.5 39.5q-9 -3 -21 -3q-34 0 -53 21t-19 52q0 32 20.5 53t55.5 21z" />
    <glyph glyph-name="hyphen" unicode="-" horiz-adv-x="438" 
d="M401 249h-364v97h364v-97z" />
    <glyph glyph-name="period" unicode="." horiz-adv-x="254" 
d="M127 -13q-36 0 -61.5 26t-25.5 62q0 37 25.5 62t61.5 25q37 0 62 -25t25 -62q0 -36 -25 -62t-62 -26z" />
    <glyph glyph-name="slash" unicode="/" horiz-adv-x="426" 
d="M134 0h-129l287 747h129z" />
    <glyph glyph-name="zero" unicode="0" 
d="M343 -21q-61 0 -110 18.5t-83.5 54t-53 86t-18.5 114.5v212q0 64 18.5 114.5t53 86t83.5 54t110 18.5t110 -18.5t83.5 -54t53 -86t18.5 -114.5v-212q0 -64 -18.5 -114.5t-53 -86t-83.5 -54t-110 -18.5zM343 92q62 0 101 44.5t39 122.5v198q0 78 -39 122.5t-101 44.5
t-101 -44.5t-39 -122.5v-198q0 -78 39 -122.5t101 -44.5z" />
    <glyph glyph-name="one" unicode="1" 
d="M433 716v-603h173v-113h-506v113h213v490h-204v113h324z" />
    <glyph glyph-name="two" unicode="2" 
d="M288 113h314v-113h-508v104l283 241q50 42 69 77t19 76q0 48 -31 81t-89 33q-57 0 -91.5 -35t-34.5 -92h-125q0 53 17 97.5t50 77t80 51t107 18.5q57 0 102 -17t76 -48t47.5 -73t16.5 -93q0 -34 -8 -64t-25 -60t-45 -60.5t-68 -65.5z" />
    <glyph glyph-name="three" unicode="3" 
d="M577 603l-174 -154q45 -6 81.5 -25t62.5 -48t40 -67t14 -83q0 -57 -19.5 -101.5t-55 -75.5t-85 -47.5t-108.5 -16.5q-52 0 -95 13.5t-77 38t-58 58t-38 72.5l114 43q19 -53 58 -81t95 -28q66 0 104.5 34.5t38.5 94.5q0 54 -36.5 88t-98.5 34q-22 0 -41.5 -6t-34.5 -16
l-72 81l219 192h-310v113h476v-113z" />
    <glyph glyph-name="four" unicode="4" 
d="M535 240h107v-113h-107v-127h-120v127h-355v113l355 476h120v-476zM415 516l-205 -276h205v276z" />
    <glyph glyph-name="five" unicode="5" 
d="M374 490q50 0 93.5 -17.5t75.5 -50t50.5 -79t18.5 -105.5q0 -56 -19.5 -102.5t-54 -80t-83 -52t-105.5 -18.5q-53 0 -96.5 13t-78 37t-59 57t-40.5 72l114 37q22 -49 61 -74.5t93 -25.5q63 0 103 37t40 100q0 62 -38.5 99.5t-103.5 37.5q-41 0 -75 -18t-54 -47h-100v406
h450v-113h-344v-158q31 22 69 33.5t83 11.5z" />
    <glyph glyph-name="six" unicode="6" 
d="M384 480q53 0 97.5 -17t76.5 -49t50 -78.5t18 -105.5q0 -55 -19 -100.5t-54 -77.5t-84 -49.5t-108 -17.5q-62 0 -112 19t-85.5 55t-54.5 87.5t-19 115.5v120q0 78 20 139.5t59.5 105t98 66.5t134.5 23h153v-113h-159q-42 0 -75.5 -14t-57 -39t-36.5 -59.5t-13 -75.5
q26 31 68.5 48t101.5 17zM359 101q65 0 104 36.5t39 97.5q0 60 -39 95t-104 35t-104 -35t-39 -95q0 -61 39 -97.5t104 -36.5z" />
    <glyph glyph-name="seven" unicode="7" 
d="M78 716h526v-113h-1l1 -2l-289 -601h-139l294 603h-392v113z" />
    <glyph glyph-name="eight" unicode="8" 
d="M481 404q59 -26 96 -75.5t37 -121.5q0 -49 -19 -90t-54.5 -70t-85.5 -45.5t-112 -16.5t-112 16.5t-85.5 45.5t-54.5 70t-19 90q0 71 37 121t96 76q-42 23 -66 60t-24 85q0 37 15 70t44.5 58t72 39.5t96.5 14.5t96.5 -14.5t72 -39.5t44.5 -58t15 -70q0 -48 -24 -85
t-66 -60zM343 618q-49 0 -78.5 -22.5t-29.5 -61.5q0 -38 29.5 -62.5t78.5 -24.5q48 0 77.5 24.5t29.5 62.5q0 39 -29.5 61.5t-77.5 22.5zM343 98q66 0 105.5 32t39.5 84q0 51 -39.5 85.5t-105.5 34.5q-68 0 -107 -34.5t-39 -85.5q0 -52 39 -84t107 -32z" />
    <glyph glyph-name="nine" unicode="9" 
d="M325 731q62 0 112.5 -19t85.5 -55t54 -87t19 -116v-120q0 -78 -20 -139.5t-59.5 -105t-98 -66.5t-134.5 -23h-153v113h159q42 0 75.5 14t57 39t36.5 59.5t13 75.5q-26 -31 -68.5 -48t-101.5 -17q-53 0 -97.5 17t-76.5 49t-50 78.5t-18 105.5q0 56 19 101t54 77t84 49.5
t108 17.5zM327 351q65 0 104 35t39 95q0 61 -39 97.5t-104 36.5t-104 -36.5t-39 -97.5q0 -60 39 -95t104 -35z" />
    <glyph glyph-name="colon" unicode=":" horiz-adv-x="254" 
d="M127 391q-36 0 -61.5 26t-25.5 62q0 37 25.5 62t61.5 25q37 0 62 -25t25 -62q0 -36 -25 -62t-62 -26zM127 -9q-36 0 -61.5 26t-25.5 62q0 37 25.5 62t61.5 25q37 0 62 -25t25 -62q0 -36 -25 -62t-62 -26z" />
    <glyph glyph-name="semicolon" unicode=";" horiz-adv-x="244" 
d="M132 385q-36 0 -61.5 26t-25.5 62q0 37 25.5 62t61.5 25q37 0 62 -25t25 -62q0 -36 -25 -62t-62 -26zM116 137q39 0 62 -28.5t23 -80.5q0 -62 -28.5 -103t-87.5 -58l-20 -6l-21 60l18 6q32 11 48.5 26.5t22.5 39.5q-9 -3 -21 -3q-34 0 -53 21t-19 52q0 32 20.5 53
t55.5 21z" />
    <glyph glyph-name="less" unicode="&#x3c;" 
d="M530 599l42 -105l-318 -129l318 -130l-42 -105l-417 177v115z" />
    <glyph glyph-name="equal" unicode="=" 
d="M560 433h-434v99h434v-99zM560 197h-434v99h434v-99z" />
    <glyph glyph-name="greater" unicode="&#x3e;" 
d="M114 494l42 105l417 -177v-115l-417 -177l-42 105l318 130z" />
    <glyph glyph-name="question" unicode="?" horiz-adv-x="537" 
d="M80 747h160q62 0 111.5 -16t84 -45.5t53 -72t18.5 -96.5q0 -103 -66.5 -162t-182.5 -64v-78q-15 10 -31.5 13.5t-33.5 3.5q-16 0 -33 -3.5t-31 -13.5v180h110q57 0 95.5 30.5t38.5 93.5q0 62 -38.5 93t-95.5 31h-159v106zM201 166q37 0 63 -26t26 -63t-26 -63.5
t-63 -26.5t-63 26.5t-26 63.5t26 63t63 26z" />
    <glyph glyph-name="at" unicode="@" horiz-adv-x="1020" 
d="M293 192q0 55 40.5 94t127.5 53l166 27q-2 48 -30.5 72t-74.5 24q-48 0 -75 -21t-31 -54h-98q2 33 16 61.5t39.5 49.5t62.5 33.5t85 12.5q95 0 150 -51t55 -153v-121q0 -25 11.5 -43t34.5 -18q35 0 61 42t26 130q0 74 -25 133t-70 100t-106.5 63t-135.5 22
q-81 0 -147 -26.5t-113 -73.5t-72.5 -113t-25.5 -144t26 -143t73 -112.5t112 -73.5t143 -26q64 0 112.5 13.5t93.5 40.5l42 -85q-54 -30 -113 -47.5t-137 -17.5q-103 0 -187 33t-144 93t-92.5 143t-32.5 182t33 182.5t93.5 143.5t145.5 93.5t189 33.5q97 0 178 -30t139 -84
t90 -129.5t32 -165.5q0 -66 -15 -117t-41.5 -86.5t-62.5 -53.5t-78 -18q-55 0 -89 25t-43 68q-23 -39 -71 -66t-110 -27q-73 0 -115 35t-42 97zM476 256q-45 -8 -63 -20.5t-18 -35.5q0 -18 16 -30t44 -12q33 0 63 8.5t53.5 24.5t38.5 39t17 52z" />
    <glyph glyph-name="A" unicode="A" horiz-adv-x="754" 
d="M739 0h-134l-56 149h-348l-56 -149h-130l290 747h145zM375 614l-128 -342h256z" />
    <glyph glyph-name="B" unicode="B" horiz-adv-x="720" 
d="M535 406q140 -47 140 -189q0 -54 -19 -95t-54.5 -68t-86 -40.5t-112.5 -13.5h-303v747h291q110 0 172 -48.5t62 -139.5q0 -104 -90 -153zM229 634v-176h152q20 0 41.5 4t39 14t28.5 26.5t11 41.5q0 26 -10.5 43.5t-27.5 28t-38 14.5t-43 4h-153zM229 123h159q30 0 58 5.5
t49 17.5t33.5 31.5t12.5 47.5q0 30 -12.5 50.5t-34 34t-49 19.5t-57.5 6h-159v-212z" />
    <glyph glyph-name="C" unicode="C" horiz-adv-x="783" 
d="M405 -10q-76 0 -139.5 25.5t-109.5 74.5t-71 120.5t-25 162.5q0 92 25 163.5t70.5 120.5t108.5 74.5t139 25.5q77 0 137.5 -24t102.5 -63t65 -89.5t25 -103.5h-137q-3 30 -17 58t-38.5 50t-59 35.5t-78.5 13.5t-82 -16.5t-66.5 -49.5t-45 -82t-16.5 -113t16.5 -112.5
t45 -81.5t66.5 -50t82 -17t78.5 13.5t59 35.5t38.5 50t17 58h137q-2 -53 -25 -103t-65 -89t-102 -63t-136 -24z" />
    <glyph glyph-name="D" unicode="D" horiz-adv-x="781" 
d="M321 747q94 0 168.5 -25t126 -73t78.5 -117.5t27 -158.5q0 -88 -27 -157.5t-78.5 -117.5t-126 -73t-168.5 -25h-221v747h221zM229 119h86q63 0 113 17t85.5 49t54.5 79.5t19 108.5q0 62 -19 109.5t-54.5 79.5t-85.5 48.5t-113 16.5h-86v-508z" />
    <glyph glyph-name="E" unicode="E" horiz-adv-x="682" 
d="M229 347v-224h393v-123h-522v747h518v-123h-389v-154h274v-123h-274z" />
    <glyph glyph-name="F" unicode="F" horiz-adv-x="647" 
d="M622 747v-123h-393v-172h278v-123h-278v-329h-129v747h522z" />
    <glyph glyph-name="G" unicode="G" horiz-adv-x="822" 
d="M414 293v112h348v-68q0 -79 -25.5 -143.5t-71.5 -109.5t-110 -69.5t-141 -24.5t-142 27t-112 76.5t-73.5 120.5t-26.5 159q0 89 26 160t73 120.5t112 76.5t143 27q69 0 125 -18t98 -50t70.5 -75.5t42.5 -94.5h-143q-21 50 -70 83t-121 33q-48 0 -88.5 -17t-70.5 -50.5
t-46.5 -82.5t-16.5 -112t17 -112t47 -82.5t71.5 -50.5t89.5 -17q43 0 80 16t65 41.5t46 58.5t22 66h-218z" />
    <glyph glyph-name="H" unicode="H" horiz-adv-x="794" 
d="M565 485v262h129v-747h-129v363h-336v-363h-129v747h129v-262h336z" />
    <glyph glyph-name="I" unicode="I" horiz-adv-x="329" 
d="M229 0h-129v747h129v-747z" />
    <glyph glyph-name="J" unicode="J" horiz-adv-x="646" 
d="M295 -16q-62 0 -110.5 20t-81.5 57t-50.5 90t-17.5 119h129q0 -83 34 -128.5t97 -45.5t97.5 44.5t34.5 129.5v477h129v-476q0 -137 -67.5 -212t-193.5 -75z" />
    <glyph glyph-name="K" unicode="K" horiz-adv-x="721" 
d="M335 398l361 -399h-163l-304 336v-335h-129v747h129v-297l304 296h159z" />
    <glyph glyph-name="L" unicode="L" horiz-adv-x="623" 
d="M229 747v-625h364v-122h-493v747h129z" />
    <glyph glyph-name="M" unicode="M" horiz-adv-x="942" 
d="M471 402l238 345h133v-747h-129v544l-243 -348h-2l-244 350v-546h-124v747h132z" />
    <glyph glyph-name="N" unicode="N" horiz-adv-x="794" 
d="M565 337v410h129v-747h-129v135l-336 388v-523h-129v747h110z" />
    <glyph glyph-name="O" unicode="O" horiz-adv-x="831" 
d="M415 -10q-78 0 -143 26t-112 75.5t-73.5 120.5t-26.5 161t26.5 161.5t73.5 121t112 75.5t143 26t143.5 -26t112.5 -75.5t73.5 -121t26.5 -161.5t-26.5 -161t-73.5 -120.5t-112.5 -75.5t-143.5 -26zM415 111q45 0 85.5 17t71 50t48.5 82t18 113q0 65 -18 114t-48.5 82
t-71 49.5t-85.5 16.5t-85.5 -16.5t-70.5 -49.5t-48 -82t-18 -114q0 -64 18 -113t48 -82t70.5 -50t85.5 -17z" />
    <glyph glyph-name="P" unicode="P" horiz-adv-x="694" 
d="M347 747q71 0 128 -18.5t97 -53.5t61 -85t21 -113q0 -62 -21 -111.5t-61 -84t-97 -52.5t-128 -18h-118v-211h-129v747h247zM229 313h117q37 0 69 10t55 30.5t36.5 51.5t13.5 72t-13.5 71.5t-36.5 51t-55 31t-69 10.5h-117v-328z" />
    <glyph glyph-name="Q" unicode="Q" horiz-adv-x="873" 
d="M813 68l-86 -96l-95 85q-88 -67 -216 -67q-78 0 -143.5 26t-112.5 75.5t-73.5 120.5t-26.5 161t26.5 161.5t73.5 121t112.5 75.5t143.5 26t143 -26t112.5 -75.5t74 -121t26.5 -161.5q0 -66 -14 -120.5t-40 -99.5zM416 102q69 0 124 37l-130 117l87 96l125 -112
q25 59 25 133q0 66 -18.5 115t-49.5 81.5t-72 49t-87 16.5t-87.5 -17t-72 -50.5t-48.5 -83.5t-18 -115q0 -66 18 -116t48 -83.5t70.5 -50.5t85.5 -17z" />
    <glyph glyph-name="R" unicode="R" horiz-adv-x="729" 
d="M679 0h-152l-128 221q-8 -1 -16.5 -1h-17.5h-136v-220h-129v747h265q66 0 120 -18t92.5 -52t59.5 -82.5t21 -110.5q0 -78 -34 -135.5t-94 -90.5zM229 342h117q39 0 71.5 8.5t56.5 26.5t37.5 44.5t13.5 62.5t-13.5 62.5t-37.5 44t-56.5 26t-71.5 8.5h-117v-283z" />
    <glyph glyph-name="S" unicode="S" horiz-adv-x="709" 
d="M359 -10q-70 0 -123.5 17.5t-90.5 49t-56 75.5t-19 97h134q0 -58 41.5 -96.5t114.5 -38.5q72 0 108.5 31.5t36.5 78.5q0 40 -25 63.5t-88 38.5l-93 22q-59 14 -99.5 35t-66 48.5t-36.5 62t-11 75.5q0 45 17.5 83t52 66t84.5 43.5t114 15.5q66 0 116 -16.5t84.5 -45.5
t52 -70t17.5 -90h-134q0 47 -35.5 77.5t-102.5 30.5q-61 0 -96 -27t-35 -65t24 -62t84 -40l97 -25q55 -14 95 -33.5t66.5 -45.5t39 -60.5t12.5 -78.5q0 -47 -17.5 -86.5t-52.5 -68.5t-87.5 -45t-122.5 -16z" />
    <glyph glyph-name="T" unicode="T" horiz-adv-x="660" 
d="M30 747h600v-122h-236v-625h-129v625h-235v122z" />
    <glyph glyph-name="U" unicode="U" horiz-adv-x="748" 
d="M374 -10q-142 0 -213 81.5t-71 231.5v444h129v-442q0 -50 12 -86.5t33 -60.5t50 -35.5t62 -11.5t62 11.5t50 35.5t33 60.5t12 86.5v442h125v-444q0 -150 -71.5 -231.5t-212.5 -81.5z" />
    <glyph glyph-name="V" unicode="V" horiz-adv-x="745" 
d="M375 163l222 584h133l-285 -747h-145l-285 747h137z" />
    <glyph glyph-name="W" unicode="W" horiz-adv-x="1072" 
d="M772 221l157 526h133l-223 -747h-135l-173 564l-178 -564h-126l-217 747h138l151 -526l165 526h148z" />
    <glyph glyph-name="X" unicode="X" horiz-adv-x="720" 
d="M437 376l273 -376h-155l-204 280l-191 -280h-150l265 386l-263 361h155l193 -265l186 265h150z" />
    <glyph glyph-name="Y" unicode="Y" horiz-adv-x="674" 
d="M529 747h135l-263 -484v-263h-128v262l-263 485h139l190 -348z" />
    <glyph glyph-name="Z" unicode="Z" horiz-adv-x="743" 
d="M654 628l-415 -511h429v-117h-593v118l414 511h-399v118h564v-119z" />
    <glyph glyph-name="bracketleft" unicode="[" horiz-adv-x="398" 
d="M383 796v-97h-172v-811h172v-97h-283v1005h283z" />
    <glyph glyph-name="backslash" unicode="\" horiz-adv-x="426" 
d="M421 0h-129l-287 747h129z" />
    <glyph glyph-name="bracketright" unicode="]" horiz-adv-x="398" 
d="M298 796v-1005h-283v97h172v811h-172v97h283z" />
    <glyph glyph-name="asciicircum" unicode="^" horiz-adv-x="516" 
d="M280 482l156 -163l-78 -61l-99 107l-100 -107l-79 61l157 163h43z" />
    <glyph glyph-name="underscore" unicode="_" horiz-adv-x="798" 
d="M788 -107h-778v97h778v-97z" />
    <glyph glyph-name="grave" unicode="`" horiz-adv-x="272" 
d="M284 695l-40 -98l-244 96l38 98z" />
    <glyph glyph-name="a" unicode="a" horiz-adv-x="629" 
d="M320 557q115 0 177 -62t62 -175v-320h-120v72q-30 -38 -79 -60t-116 -22q-85 0 -134.5 41t-49.5 111q0 32 11 61t35 52t62.5 40t92.5 25l178 27q-2 48 -32.5 73t-86.5 25q-55 0 -82.5 -20t-32.5 -55h-123q2 37 18 71t46 59.5t73.5 41t100.5 15.5zM266 104q38 0 69.5 9.5
t54.5 27t36 41.5t13 52v14l-150 -23q-32 -5 -52.5 -12.5t-32.5 -17t-16.5 -21t-4.5 -23.5q0 -20 20.5 -33.5t62.5 -13.5z" />
    <glyph glyph-name="b" unicode="b" horiz-adv-x="675" 
d="M387 559q55 0 100.5 -19.5t78.5 -56t51 -89.5t18 -121q0 -67 -18 -120t-51 -90t-78.5 -56.5t-100.5 -19.5q-65 0 -111.5 24t-75.5 67v-78h-120v781h120v-312q29 42 75.5 66t111.5 24zM355 91q34 0 62 13.5t48.5 37.5t32 57t11.5 72q0 41 -11.5 74t-32 56t-48.5 36t-62 13
q-71 0 -113 -47.5t-42 -131.5q0 -40 11 -73t31.5 -57t49 -37t63.5 -13z" />
    <glyph glyph-name="c" unicode="c" horiz-adv-x="625" 
d="M316 -13q-63 0 -114 20t-87 57.5t-55.5 90.5t-19.5 118q0 66 19.5 118.5t55.5 90t87 57.5t114 20q56 0 102.5 -17t80.5 -46.5t54 -68.5t23 -84h-127q-3 23 -14 43.5t-28.5 35.5t-40.5 23.5t-50 8.5q-66 0 -108 -48t-42 -133q0 -84 42 -132.5t108 -48.5q27 0 50 8.5
t40.5 23.5t28.5 35.5t14 43.5h127q-3 -44 -23 -83.5t-54 -69t-80.5 -46.5t-102.5 -17z" />
    <glyph glyph-name="d" unicode="d" horiz-adv-x="671" 
d="M471 781h120v-781h-120v78q-29 -43 -74.5 -67t-109.5 -24q-55 0 -100.5 19.5t-78 56.5t-50.5 90t-18 120q0 68 18 121t50.5 89.5t78 56t100.5 19.5q64 0 109.5 -24t74.5 -66v312zM319 97q69 0 110.5 47.5t41.5 131.5t-41.5 131.5t-110.5 47.5q-34 0 -62 -12.5t-48 -36
t-31.5 -56.5t-11.5 -74t11.5 -74t31.5 -56.5t48 -36t62 -12.5z" />
    <glyph glyph-name="e" unicode="e" horiz-adv-x="639" 
d="M594 232h-426q8 -59 47.5 -94.5t104.5 -35.5q49 0 81.5 15t49.5 42h130q-26 -75 -94 -122t-168 -47q-63 0 -114 20t-88 57.5t-57 90t-20 116.5t20 116.5t56.5 89.5t87.5 57t113 20q63 0 114 -19.5t87 -56t56 -88t20 -115.5v-46zM317 445q-56 0 -95 -33t-51 -82h295
q-9 54 -50 84.5t-99 30.5z" />
    <glyph glyph-name="f" unicode="f" horiz-adv-x="394" 
d="M374 692h-71q-63 0 -63 -61v-84h116v-102h-116v-445h-120v445h-85v102h85v84q0 76 43.5 119.5t121.5 43.5h89v-102z" />
    <glyph glyph-name="g" unicode="g" horiz-adv-x="665" 
d="M475 547h120v-588q0 -85 -47.5 -132t-133.5 -47h-264v103h246q79 0 79 77v132q-29 -42 -75 -66t-111 -24q-55 0 -101 19t-79 55.5t-51 88.5t-18 118q0 65 18 116.5t51 87t79 54t101 18.5q65 0 111 -23.5t75 -65.5v77zM321 111q71 0 112.5 47t41.5 128q0 78 -41.5 123.5
t-112.5 45.5q-34 0 -62.5 -12t-49 -34t-32 -53.5t-11.5 -69.5q0 -40 11.5 -72t32 -55t49 -35.5t62.5 -12.5z" />
    <glyph glyph-name="h" unicode="h" horiz-adv-x="661" 
d="M377 559q46 0 84 -16.5t65.5 -48.5t42.5 -79t15 -108v-307h-120v285q0 77 -33.5 117.5t-89.5 40.5q-57 0 -92.5 -42.5t-35.5 -114.5l-1 8v-294h-120v781h120v-308q23 38 65 62t100 24z" />
    <glyph glyph-name="i" unicode="i" horiz-adv-x="272" 
d="M136 612q-35 0 -55.5 22.5t-20.5 54.5t20.5 54t55.5 22t55.5 -22t20.5 -54t-20.5 -54.5t-55.5 -22.5zM196 0h-120v557q12 -8 26 -12.5t34 -4.5t34.5 4.5t25.5 12.5v-557z" />
    <glyph glyph-name="j" unicode="j" horiz-adv-x="280" 
d="M139 608q-33 0 -56 23.5t-23 57.5t23 56.5t56 22.5q34 0 57.5 -22.5t23.5 -56.5t-23.5 -57.5t-57.5 -23.5zM-30 -220v115h54q30 0 43.5 14.5t13.5 41.5v606q12 -8 26 -12.5t33 -4.5q36 0 61 17v-613q0 -78 -43.5 -121t-121.5 -43h-66z" />
    <glyph glyph-name="k" unicode="k" horiz-adv-x="603" 
d="M299 279l274 -279h-143l-230 228v-228h-120v781h120v-458l224 222h142z" />
    <glyph glyph-name="l" unicode="l" horiz-adv-x="280" 
d="M200 0h-120v781h120v-781z" />
    <glyph glyph-name="m" unicode="m" horiz-adv-x="974" 
d="M688 559q47 0 85 -17t66 -49.5t43 -79.5t15 -106v-307h-120v287q0 80 -31 121t-83 41q-51 0 -82.5 -43t-31.5 -118v-288h-120v287q0 80 -31 121t-84 41q-50 0 -82 -43t-32 -118v-288h-120v547h120v-72q20 37 58 60.5t91 23.5q56 0 99 -25t69 -74q23 43 66.5 71t104.5 28z
" />
    <glyph glyph-name="n" unicode="n" horiz-adv-x="642" 
d="M365 559q46 0 84 -16.5t65.5 -48.5t42.5 -79t15 -108v-307h-120v285q0 77 -33.5 117.5t-89.5 40.5q-57 0 -93 -42.5t-36 -114.5v-286h-120v547h120v-74q23 38 65 62t100 24z" />
    <glyph glyph-name="o" unicode="o" horiz-adv-x="647" 
d="M324 -13q-67 0 -119.5 22t-89 61t-56 91t-19.5 112t19.5 112t56 91t89 61t119.5 22q66 0 118.5 -22t89 -61t56 -91t19.5 -112t-19.5 -112t-56 -91t-89 -61t-118.5 -22zM324 102q36 0 65 12t49.5 34.5t31.5 54t11 70.5t-11 70.5t-31.5 54t-49.5 34.5t-65 12
q-72 0 -115 -46.5t-43 -124.5t43 -124.5t115 -46.5z" />
    <glyph glyph-name="p" unicode="p" horiz-adv-x="671" 
d="M384 559q55 0 100.5 -19.5t78 -56t50.5 -89.5t18 -121q0 -67 -18 -120t-50.5 -90t-78 -56.5t-100.5 -19.5q-64 0 -109.5 24t-74.5 67v-268h-120v737h120v-78q29 42 74.5 66t109.5 24zM352 91q34 0 62 13t48.5 36.5t31.5 56.5t11 74t-11 74t-31.5 56t-48.5 36t-62 13
q-69 0 -110.5 -47.5t-41.5 -131.5q0 -85 41.5 -132.5t110.5 -47.5z" />
    <glyph glyph-name="q" unicode="q" horiz-adv-x="675" 
d="M475 547h120v-737h-120v267q-29 -42 -75 -66t-111 -24q-55 0 -101 19.5t-79 56.5t-51 90t-18 120q0 68 18 121t51 89.5t79 56t101 19.5q65 0 111 -23.5t75 -65.5v77zM321 97q71 0 112.5 47.5t41.5 131.5t-41.5 131.5t-112.5 47.5q-34 0 -62.5 -12.5t-49 -36t-32 -56.5
t-11.5 -74t11.5 -74t32 -56.5t49 -36t62.5 -12.5z" />
    <glyph glyph-name="r" unicode="r" horiz-adv-x="440" 
d="M200 547v-85q26 45 75.5 71t124.5 26v-127h-47q-75 0 -114 -41t-39 -120v-271h-120v547h120z" />
    <glyph glyph-name="s" unicode="s" horiz-adv-x="549" 
d="M282 -13q-60 0 -104.5 14.5t-74 39t-44 58.5t-14.5 73h124q2 -35 29.5 -56t90.5 -21q46 0 68 16.5t22 40.5q0 28 -18.5 43t-66.5 24l-84 16q-42 8 -70.5 23.5t-46.5 36.5t-26 47.5t-8 55.5q0 34 13.5 63.5t40.5 51t67 34t92 12.5q51 0 92 -14t69.5 -38t43.5 -57t15 -71
h-126q-1 30 -25.5 51t-69.5 21t-65.5 -15t-20.5 -38q0 -12 3 -21t11 -16t23.5 -12.5t39.5 -10.5l77 -15q46 -9 77.5 -25t51 -38t28 -48.5t8.5 -56.5q0 -78 -58.5 -123t-163.5 -45z" />
    <glyph glyph-name="t" unicode="t" horiz-adv-x="428" 
d="M267 547h121v-102h-121v-445h-120v445h-107v102h107v174h120v-174z" />
    <glyph glyph-name="u" unicode="u" horiz-adv-x="626" 
d="M426 547h120v-547h-120v70q-23 -36 -62.5 -59.5t-94.5 -23.5q-44 0 -80.5 16.5t-63 49t-41 79.5t-14.5 108v307h120v-285q0 -77 31.5 -117.5t84.5 -40.5q48 0 81.5 36t38.5 98v309z" />
    <glyph glyph-name="v" unicode="v" horiz-adv-x="586" 
d="M294 129l152 418h125l-207 -547h-141l-208 547h127z" />
    <glyph glyph-name="w" unicode="w" horiz-adv-x="853" 
d="M608 157l120 390h115l-167 -547h-119l-132 390l-132 -390h-116l-167 547h117l120 -390l128 390h105z" />
    <glyph glyph-name="x" unicode="x" horiz-adv-x="612" 
d="M444 547h138l-202 -274l202 -273h-142l-137 185l-135 -185h-138l203 280l-198 267h142l134 -180z" />
    <glyph glyph-name="y" unicode="y" horiz-adv-x="579" 
d="M288 169l159 378h117l-305 -728h-117l85 203l-212 525h121z" />
    <glyph glyph-name="z" unicode="z" horiz-adv-x="559" 
d="M498 445l-307 -343h313v-102h-449v102h1l303 343h-299v102h439v-102h-1z" />
    <glyph glyph-name="braceleft" unicode="{" horiz-adv-x="439" 
d="M296 405q0 -83 -60 -112q60 -30 60 -113v-227q0 -32 14 -46t46 -14h58v-102h-83q-75 0 -110.5 37t-35.5 106v248q0 60 -60 60h-65v101h65q60 0 60 60v254q0 69 35.5 106t110.5 37h83v-101h-58q-32 0 -46 -14t-14 -46v-234z" />
    <glyph glyph-name="bar" unicode="|" horiz-adv-x="200" 
d="M164 -190h-128v971h128v-971z" />
    <glyph glyph-name="braceright" unicode="}" horiz-adv-x="439" 
d="M379 343v-101h-65q-60 0 -60 -60v-248q0 -69 -35.5 -106t-110.5 -37h-83v102h58q32 0 46 14t14 46v227q0 83 60 113q-60 29 -60 112v234q0 32 -14 46t-46 14h-58v101h83q75 0 110.5 -37t35.5 -106v-254q0 -60 60 -60h65z" />
    <glyph glyph-name="asciitilde" unicode="~" horiz-adv-x="519" 
d="M357 268q-10 0 -20 1.5t-21 5.5t-25.5 10t-35.5 16q-18 9 -30 14t-20 8t-13 4t-11 1q-14 0 -27.5 -9.5t-18.5 -41.5l-85 23q7 67 36 97t76 30q10 0 19.5 -1.5t20.5 -5t26 -10t36 -16.5q18 -9 30 -14t20 -8t13 -4t11 -1q13 0 26.5 9.5t18.5 41.5l86 -23q-8 -67 -37 -97
t-75 -30z" />
    <glyph glyph-name="uni00A0" unicode="&#xa0;" horiz-adv-x="356" 
 />
    <glyph glyph-name="exclamdown" unicode="&#xa1;" horiz-adv-x="347" 
d="M174 381q-37 0 -63 26t-26 63t26 63.5t63 26.5t62.5 -26.5t25.5 -63.5t-25.5 -63t-62.5 -26zM238 -199h-129v525q12 -8 29.5 -12.5t36.5 -4.5q38 0 63 17v-525z" />
    <glyph glyph-name="cent" unicode="&#xa2;" 
d="M376 185q45 8 74 37.5t34 71.5h127q-3 -43 -22.5 -82t-53 -68.5t-79 -47t-99.5 -18.5l-22 -126l-121 20l22 126q-76 30 -118.5 99t-42.5 167q0 63 18 114.5t52 88.5t81.5 58.5t107.5 24.5l22 127l121 -20l-22 -125q69 -25 110.5 -78t45.5 -120h-127q-3 26 -16 47.5
t-33 36.5zM201 364q0 -49 15 -86.5t41 -60.5l57 324q-51 -13 -82 -58.5t-31 -118.5z" />
    <glyph glyph-name="sterling" unicode="&#xa3;" 
d="M297 253q0 -34 -12.5 -71.5t-37.5 -66.5h373v-115h-517v115q40 29 59 66.5t19 71.5q0 7 -0.5 13t-1.5 13h-107v114h66q-16 38 -22.5 64t-6.5 52q0 47 17 87.5t49 70.5t78.5 47t106.5 17q61 0 109 -19t81.5 -53.5t51.5 -83.5t18 -108h-124q0 38 -10.5 65t-28.5 45
t-42 26.5t-52 8.5q-61 0 -93.5 -33.5t-32.5 -79.5q0 -25 5.5 -49.5t19.5 -56.5h241v-114h-207q1 -7 1 -13v-13z" />
    <glyph glyph-name="currency" unicode="&#xa4;" 
d="M589 364q0 -82 -38 -140l91 -98l-78 -76l-94 102q-26 -13 -57.5 -20t-67.5 -7q-71 0 -127 28l-96 -103l-78 76l92 99q-39 59 -39 139q0 83 40 141l-93 101l78 76l98 -106q54 28 125 28q69 0 123 -26l96 104l78 -76l-92 -100q39 -59 39 -142zM343 221q61 0 99.5 38.5
t38.5 104.5t-38.5 104.5t-99.5 38.5q-62 0 -99.5 -38.5t-37.5 -104.5t37.5 -104.5t99.5 -38.5z" />
    <glyph glyph-name="yen" unicode="&#xa5;" 
d="M506 716h143l-195 -335h157v-94h-208v-78h208v-94h-208v-115h-123v115h-207v94h207v78h-208v94h157l-194 335h142l165 -322z" />
    <glyph glyph-name="brokenbar" unicode="&#xa6;" horiz-adv-x="200" 
d="M164 408h-128v373h128v-373zM164 -190h-128v400h128v-400z" />
    <glyph glyph-name="section" unicode="&#xa7;" horiz-adv-x="605" 
d="M550 614h-35q-44 0 -63 -21.5t-19 -53.5q0 -10 2 -21.5t7 -27t15 -36.5t26 -51q20 -39 32 -67.5t18.5 -50.5t8.5 -40t2 -37q0 -52 -21.5 -94t-63 -72t-102 -46t-139.5 -16h-163v101h51q44 0 63 21.5t19 53.5q0 11 -2 20.5t-7.5 24t-15 36t-25.5 55.5q-19 40 -30.5 68.5
t-18.5 50.5t-9.5 39.5t-2.5 36.5q0 52 21.5 94t63 72t102 46t139.5 16h147v-101zM299 90q63 14 94.5 48.5t31.5 82.5q0 14 -2 27.5t-8 32.5t-17 45t-30 63q-17 34 -28 58t-17 42t-8 32.5t-2 28.5q0 30 15 54q-65 -14 -96.5 -48.5t-31.5 -82.5q0 -14 2 -27.5t8 -31.5t17 -44
t29 -64q18 -39 29 -65.5t17.5 -44.5t8.5 -31t2 -25q0 -29 -14 -50z" />
    <glyph glyph-name="dieresis" unicode="&#xa8;" horiz-adv-x="435" 
d="M129 620q-29 0 -49 20t-20 49q0 28 20 47.5t49 19.5q28 0 48 -19.5t20 -47.5q0 -29 -20 -49t-48 -20zM305 620q-29 0 -48.5 20t-19.5 49q0 28 19.5 47.5t48.5 19.5q28 0 48 -19.5t20 -47.5q0 -29 -20 -49t-48 -20z" />
    <glyph glyph-name="copyright" unicode="&#xa9;" horiz-adv-x="975" 
d="M487 -71q-94 0 -173 31t-135 87t-87.5 134t-31.5 172t31.5 172t87.5 134t135 87t173 31q95 0 174 -31t135.5 -87t87.5 -134t31 -172t-31 -172t-87.5 -134t-135.5 -87t-174 -31zM488 21q74 0 135 24.5t105 69t68.5 105.5t24.5 133t-24.5 133t-68.5 105.5t-105 69
t-135 24.5q-73 0 -134.5 -24.5t-105.5 -68.5t-68.5 -105t-24.5 -134t24.5 -134t68.5 -105t105.5 -68.5t134.5 -24.5zM492 112q-55 0 -99 17t-75 48.5t-47.5 75.5t-16.5 99q0 54 16.5 98.5t47.5 76t75 48.5t99 17q48 0 88.5 -15t70 -40t47 -58t19.5 -69h-112
q-4 38 -35.5 63.5t-78.5 25.5q-57 0 -92.5 -38.5t-35.5 -108.5t35.5 -108.5t92.5 -38.5q47 0 78.5 25.5t35.5 63.5h112q-2 -36 -19.5 -69t-47 -58t-70 -40t-88.5 -15z" />
    <glyph glyph-name="ordfeminine" unicode="&#xaa;" horiz-adv-x="380" 
d="M198 731q65 0 107.5 -37t42.5 -108v-196h-78v56q-17 -30 -49.5 -48t-73.5 -18q-52 0 -83.5 23.5t-31.5 71.5q0 44 31 69t97 36l110 18q0 29 -19 47t-54 18q-31 0 -50 -13t-24 -36h-74q2 24 11.5 45.5t27.5 37t45.5 25t64.5 9.5zM161 444q36 0 67.5 26t41.5 78l-90 -18
q-39 -7 -53.5 -19.5t-14.5 -29.5q0 -15 11.5 -26t37.5 -11zM340 255h-289v77h289v-77z" />
    <glyph glyph-name="guillemotleft" unicode="&#xab;" horiz-adv-x="580" 
d="M238 507l69 -66l-169 -167l169 -168l-69 -66l-228 228v10zM501 507l69 -66l-169 -167l169 -168l-69 -66l-228 228v10z" />
    <glyph glyph-name="logicalnot" unicode="&#xac;" 
d="M93 411h493v-287h-106v185h-387v102z" />
    <glyph glyph-name="uni00AD" unicode="&#xad;" horiz-adv-x="438" 
d="M401 249h-364v97h364v-97z" />
    <glyph glyph-name="registered" unicode="&#xae;" horiz-adv-x="975" 
d="M487 777q96 0 175 -31t135 -86.5t87 -133.5t31 -173q0 -94 -31 -172.5t-87 -134t-135 -86.5t-175 -31q-95 0 -173.5 31t-135 86.5t-87.5 134t-31 172.5q0 95 31 173t87.5 133.5t135 86.5t173.5 31zM488 21q75 0 136 24.5t105 68t68 105t24 134.5t-24 134t-68 105
t-105 68.5t-136 24.5q-74 0 -135.5 -24.5t-105.5 -68t-68 -104.5t-24 -135q0 -73 24 -134.5t68 -105t105.5 -68t135.5 -24.5zM676 428q0 -48 -20 -83.5t-56 -57.5l89 -155h-105l-71 129q-5 -1 -9.5 -1h-9.5h-77v-131h-88v465h165q41 0 74.5 -12t57.5 -34t37 -52.5t13 -67.5z
M417 518v-182h67q48 0 74.5 23.5t26.5 68.5q0 44 -26.5 67t-74.5 23h-67z" />
    <glyph glyph-name="macron" unicode="&#xaf;" horiz-adv-x="322" 
d="M322 638h-322v86h322v-86z" />
    <glyph glyph-name="degree" unicode="&#xb0;" horiz-adv-x="277" 
d="M140 514q-26 0 -48 9t-38 25t-25 37.5t-9 46.5t9 47t25 38t38 25t48 9q53 0 85 -34t32 -85t-32 -84.5t-85 -33.5zM139 580q21 0 36.5 15t15.5 38q0 22 -15.5 37t-36.5 15q-23 0 -38 -15t-15 -37q0 -23 15 -38t38 -15z" />
    <glyph glyph-name="plusminus" unicode="&#xb1;" 
d="M398 676v-175h186v-95h-186v-175h-111v175h-186v95h186v175h111zM584 84h-483v95h483v-95z" />
    <glyph glyph-name="twosuperior" unicode="&#xb2;" horiz-adv-x="389" 
d="M192 475h161v-90h-308v83l152 110q30 22 40.5 36.5t10.5 28.5q0 18 -13.5 30t-37.5 12q-26 0 -41.5 -14.5t-15.5 -37.5h-99q0 62 41.5 102t116.5 40q72 0 110 -35t38 -87q0 -16 -4 -31t-14.5 -31t-28.5 -33.5t-46 -37.5z" />
    <glyph glyph-name="threesuperior" unicode="&#xb3;" horiz-adv-x="390" 
d="M331 680l-84 -64q47 -8 74 -39t27 -76q0 -26 -11 -48t-31.5 -38.5t-48.5 -25.5t-62 -9q-66 0 -106 28.5t-57 73.5l92 27q17 -41 65 -41q25 0 42 14t17 34t-15.5 33t-39.5 13q-19 0 -36 -10l-36 46l110 82h-176v90h276v-90z" />
    <glyph glyph-name="acute" unicode="&#xb4;" horiz-adv-x="284" 
d="M284 693l-244 -96l-40 98l246 96z" />
    <glyph glyph-name="paragraph" unicode="&#xb6;" horiz-adv-x="729" 
d="M669 716v-727h-112v623h-102v-623h-111v209h-2q-143 0 -220 67t-77 192t77 192t220 67h327zM166 457q0 -78 49 -116.5t129 -38.5v310q-80 0 -129 -38t-49 -117z" />
    <glyph glyph-name="periodcentered" unicode="&#xb7;" horiz-adv-x="254" 
d="M127 305q-36 0 -61.5 26t-25.5 62q0 37 25.5 62t61.5 25q37 0 62 -25t25 -62q0 -36 -25 -62t-62 -26z" />
    <glyph glyph-name="cedilla" unicode="&#xb8;" horiz-adv-x="229" 
d="M141 29l-23 -69q56 -1 87 -28t31 -75q0 -51 -39.5 -79t-105.5 -28h-84v64h63q36 0 52.5 12t16.5 33q0 20 -15 31.5t-50 11.5h-53l46 127h74z" />
    <glyph glyph-name="onesuperior" unicode="&#xb9;" horiz-adv-x="390" 
d="M259 770v-295h94v-90h-305v90h116v205h-108v90h203z" />
    <glyph glyph-name="ordmasculine" unicode="&#xba;" horiz-adv-x="408" 
d="M204 381q-38 0 -69.5 13t-54.5 36.5t-35.5 55.5t-12.5 70t12.5 70t35.5 55.5t54.5 36.5t69.5 13t69.5 -13t54 -36.5t35.5 -55.5t13 -70t-13 -70t-35.5 -55.5t-54 -36.5t-69.5 -13zM204 460q39 0 65 27t26 69t-26 69t-65 27t-65 -27t-26 -69t26 -69t65 -27zM351 255h-295
v77h295v-77z" />
    <glyph glyph-name="guillemotright" unicode="&#xbb;" horiz-adv-x="580" 
d="M79 507l228 -229v-10l-228 -228l-69 66l169 168l-169 167zM273 441l69 66l228 -229v-10l-228 -228l-69 66l169 168z" />
    <glyph glyph-name="onequarter" unicode="&#xbc;" horiz-adv-x="911" 
d="M200 41l483 685l73 -51l-483 -685zM353 418v-90h-305v90h116v205h-108v90h203v-295h94zM815 143h59v-73h-59v-70h-91v70h-196v73l196 242h91v-242zM724 258l-92 -115h92v115z" />
    <glyph glyph-name="onehalf" unicode="&#xbd;" horiz-adv-x="956" 
d="M200 41l483 685l73 -51l-483 -685zM353 418v-90h-305v90h116v205h-108v90h203v-295h94zM758 90h161v-90h-308v83l152 110q30 22 40.5 36.5t10.5 28.5q0 18 -13.5 30t-37.5 12q-26 0 -41.5 -14.5t-15.5 -37.5h-99q0 62 41.5 102t116.5 40q72 0 110 -35t38 -87
q0 -16 -4 -31t-14.5 -31t-28.5 -33.5t-46 -37.5z" />
    <glyph glyph-name="threequarters" unicode="&#xbe;" horiz-adv-x="916" 
d="M200 41l483 685l73 -51l-483 -685zM348 444q0 -26 -11 -48t-31.5 -38.5t-48.5 -25.5t-62 -9q-66 0 -106 28.5t-57 73.5l92 27q17 -41 65 -41q25 0 42 14t17 34t-15.5 33t-39.5 13q-19 0 -36 -10l-36 46l110 82h-176v90h276v-90l-84 -64q47 -8 74 -39t27 -76zM815 143h59
v-73h-59v-70h-91v70h-196v73l196 242h91v-242zM724 258l-92 -115h92v115z" />
    <glyph glyph-name="questiondown" unicode="&#xbf;" horiz-adv-x="557" 
d="M356 421q-37 0 -63 26t-26 63t26 63.5t63 26.5t63 -26.5t26 -63.5t-26 -63t-63 -26zM477 -54v-106h-160q-62 0 -111.5 16t-84 45.5t-53 72t-18.5 96.5q0 103 66.5 162t182.5 64v78q15 -10 31.5 -13.5t33.5 -3.5q16 0 33 3.5t31 13.5v-180h-110q-57 0 -95.5 -30.5
t-38.5 -93.5q0 -62 38.5 -93t95.5 -31h159z" />
    <glyph glyph-name="Agrave" unicode="&#xc0;" horiz-adv-x="754" 
d="M253 991l246 -96l-40 -98l-244 96zM739 0h-134l-56 149h-348l-56 -149h-130l290 747h145zM375 614l-128 -342h256z" />
    <glyph glyph-name="Aacute" unicode="&#xc1;" horiz-adv-x="754" 
d="M491 991l38 -98l-244 -96l-40 98zM739 0h-134l-56 149h-348l-56 -149h-130l290 747h145zM375 614l-128 -342h256z" />
    <glyph glyph-name="Acircumflex" unicode="&#xc2;" horiz-adv-x="754" 
d="M496 797l-115 90l-114 -90l-64 62l162 127h33l162 -127zM739 0h-134l-56 149h-348l-56 -149h-130l290 747h145zM375 614l-128 -342h256z" />
    <glyph glyph-name="Atilde" unicode="&#xc3;" horiz-adv-x="754" 
d="M317 866q-34 0 -40 -47l-83 16q8 60 36 89.5t73 29.5q18 0 35.5 -5.5t46.5 -22.5q26 -14 37.5 -18.5t21.5 -4.5q30 0 37 46l83 -15q-8 -60 -36 -89.5t-70 -29.5q-20 0 -38.5 5.5t-46.5 21.5q-25 15 -35 19.5t-21 4.5zM739 0h-134l-56 149h-348l-56 -149h-130l290 747h145
zM375 614l-128 -342h256z" />
    <glyph glyph-name="Adieresis" unicode="&#xc4;" horiz-adv-x="754" 
d="M289 820q-29 0 -49 20t-20 49q0 28 20 47.5t49 19.5q28 0 48 -19.5t20 -47.5q0 -29 -20 -49t-48 -20zM465 820q-29 0 -48.5 20t-19.5 49q0 28 19.5 47.5t48.5 19.5q28 0 48 -19.5t20 -47.5q0 -29 -20 -49t-48 -20zM739 0h-134l-56 149h-348l-56 -149h-130l290 747h145z
M375 614l-128 -342h256z" />
    <glyph glyph-name="Aring" unicode="&#xc5;" horiz-adv-x="754" 
d="M378 795q-26 0 -48.5 9.5t-39 26t-25.5 38.5t-9 48q0 25 9 47t25.5 38t39 25.5t48.5 9.5q27 0 49.5 -9.5t38 -25.5t24.5 -38t9 -47q0 -26 -9 -48t-24.5 -38.5t-38 -26t-49.5 -9.5zM378 964q-20 0 -34 -13.5t-14 -33.5t14 -34.5t34 -14.5t33.5 14.5t13.5 34.5t-13.5 33.5
t-33.5 13.5zM739 0h-134l-56 149h-348l-56 -149h-130l290 747h145zM375 614l-128 -342h256z" />
    <glyph glyph-name="AE" unicode="&#xc6;" horiz-adv-x="1115" 
d="M648 358l51 -236h374v-122h-491l-26 129h-333l-65 -129h-143l373 747h582v-122h-380l32 -145h266v-122h-240zM460 603l-176 -352h247z" />
    <glyph glyph-name="Ccedilla" unicode="&#xc7;" horiz-adv-x="783" 
d="M403 112q44 0 78.5 13.5t59 35.5t38.5 50t17 58h137q-2 -50 -22.5 -98t-58.5 -86.5t-92.5 -63.5t-123.5 -30l-10 -31q56 -1 87 -28t31 -75q0 -51 -39.5 -79t-105.5 -28h-84v64h63q36 0 52.5 12t16.5 33q0 20 -15 31.5t-50 11.5h-53l33 90q-68 7 -123.5 35.5t-95.5 77
t-61.5 116t-21.5 152.5q0 92 25 163.5t70.5 120.5t108.5 74.5t139 25.5q77 0 137.5 -24t102.5 -63t65 -89.5t25 -103.5h-137q-3 30 -17 58t-38.5 50t-59 35.5t-78.5 13.5t-82 -16.5t-66.5 -49.5t-45 -82t-16.5 -113t16.5 -112.5t45 -81.5t66.5 -50t82 -17z" />
    <glyph glyph-name="Egrave" unicode="&#xc8;" horiz-adv-x="682" 
d="M239 991l246 -96l-40 -98l-244 96zM229 347v-224h393v-123h-522v747h518v-123h-389v-154h274v-123h-274z" />
    <glyph glyph-name="Eacute" unicode="&#xc9;" horiz-adv-x="682" 
d="M477 991l38 -98l-244 -96l-40 98zM229 347v-224h393v-123h-522v747h518v-123h-389v-154h274v-123h-274z" />
    <glyph glyph-name="Ecircumflex" unicode="&#xca;" horiz-adv-x="682" 
d="M482 797l-115 90l-114 -90l-64 62l162 127h33l162 -127zM229 347v-224h393v-123h-522v747h518v-123h-389v-154h274v-123h-274z" />
    <glyph glyph-name="Edieresis" unicode="&#xcb;" horiz-adv-x="682" 
d="M275 820q-29 0 -49 20t-20 49q0 28 20 47.5t49 19.5q28 0 48 -19.5t20 -47.5q0 -29 -20 -49t-48 -20zM451 820q-29 0 -48.5 20t-19.5 49q0 28 19.5 47.5t48.5 19.5q28 0 48 -19.5t20 -47.5q0 -29 -20 -49t-48 -20zM229 347v-224h393v-123h-522v747h518v-123h-389v-154
h274v-123h-274z" />
    <glyph glyph-name="Igrave" unicode="&#xcc;" horiz-adv-x="329" 
d="M285 895l-40 -98l-244 96l38 98zM229 0h-129v747h129v-747z" />
    <glyph glyph-name="Iacute" unicode="&#xcd;" horiz-adv-x="329" 
d="M315 893l-244 -96l-40 98l246 96zM229 0h-129v747h129v-747z" />
    <glyph glyph-name="Icircumflex" unicode="&#xce;" horiz-adv-x="329" 
d="M151 986h33l162 -127l-64 -62l-115 90l-114 -90l-64 62zM229 0h-129v747h129v-747z" />
    <glyph glyph-name="Idieresis" unicode="&#xcf;" horiz-adv-x="329" 
d="M75 820q-29 0 -49 20t-20 49q0 28 20 47.5t49 19.5q28 0 48 -19.5t20 -47.5q0 -29 -20 -49t-48 -20zM251 820q-29 0 -48.5 20t-19.5 49q0 28 19.5 47.5t48.5 19.5q28 0 48 -19.5t20 -47.5q0 -29 -20 -49t-48 -20zM229 0h-129v747h129v-747z" />
    <glyph glyph-name="Eth" unicode="&#xd0;" horiz-adv-x="781" 
d="M321 747q94 0 168.5 -25t126 -73t78.5 -117.5t27 -158.5q0 -88 -27 -157.5t-78.5 -117.5t-126 -73t-168.5 -25h-221v324h-93v108h93v315h221zM229 119h86q63 0 113 17t85.5 49t54.5 79.5t19 108.5q0 62 -19 109.5t-54.5 79.5t-85.5 48.5t-113 16.5h-86v-195h203v-108
h-203v-205z" />
    <glyph glyph-name="Ntilde" unicode="&#xd1;" horiz-adv-x="794" 
d="M336 866q-34 0 -40 -47l-83 16q8 60 36 89.5t73 29.5q18 0 35.5 -5.5t46.5 -22.5q26 -14 37.5 -18.5t21.5 -4.5q30 0 37 46l83 -15q-8 -60 -36 -89.5t-70 -29.5q-20 0 -38.5 5.5t-46.5 21.5q-25 15 -35 19.5t-21 4.5zM565 337v410h129v-747h-129v135l-336 388v-523h-129
v747h110z" />
    <glyph glyph-name="Ograve" unicode="&#xd2;" horiz-adv-x="831" 
d="M536 895l-40 -98l-244 96l38 98zM415 -10q-78 0 -143 26t-112 75.5t-73.5 120.5t-26.5 161t26.5 161.5t73.5 121t112 75.5t143 26t143.5 -26t112.5 -75.5t73.5 -121t26.5 -161.5t-26.5 -161t-73.5 -120.5t-112.5 -75.5t-143.5 -26zM415 111q45 0 85.5 17t71 50t48.5 82
t18 113q0 65 -18 114t-48.5 82t-71 49.5t-85.5 16.5t-85.5 -16.5t-70.5 -49.5t-48 -82t-18 -114q0 -64 18 -113t48 -82t70.5 -50t85.5 -17z" />
    <glyph glyph-name="Oacute" unicode="&#xd3;" horiz-adv-x="831" 
d="M566 893l-244 -96l-40 98l246 96zM415 -10q-78 0 -143 26t-112 75.5t-73.5 120.5t-26.5 161t26.5 161.5t73.5 121t112 75.5t143 26t143.5 -26t112.5 -75.5t73.5 -121t26.5 -161.5t-26.5 -161t-73.5 -120.5t-112.5 -75.5t-143.5 -26zM415 111q45 0 85.5 17t71 50t48.5 82
t18 113q0 65 -18 114t-48.5 82t-71 49.5t-85.5 16.5t-85.5 -16.5t-70.5 -49.5t-48 -82t-18 -114q0 -64 18 -113t48 -82t70.5 -50t85.5 -17z" />
    <glyph glyph-name="Ocircumflex" unicode="&#xd4;" horiz-adv-x="831" 
d="M533 797l-115 90l-114 -90l-64 62l162 127h33l162 -127zM415 757q78 0 143.5 -26t112.5 -75.5t73.5 -121t26.5 -161.5t-26.5 -161t-73.5 -120.5t-112.5 -75.5t-143.5 -26t-143 26t-112 75.5t-73.5 120.5t-26.5 161t26.5 161.5t73.5 121t112 75.5t143 26zM415 111
q45 0 85.5 17t71 50t48.5 82t18 113q0 65 -18 114t-48.5 82t-71 49.5t-85.5 16.5t-85.5 -16.5t-70.5 -49.5t-48 -82t-18 -114q0 -64 18 -113t48 -82t70.5 -50t85.5 -17z" />
    <glyph glyph-name="Otilde" unicode="&#xd5;" horiz-adv-x="831" 
d="M495 815q-20 0 -38.5 5.5t-46.5 21.5q-25 15 -35 19.5t-21 4.5q-34 0 -40 -47l-83 16q8 60 36 89.5t73 29.5q18 0 35.5 -5.5t46.5 -22.5q26 -14 37.5 -18.5t21.5 -4.5q30 0 37 46l83 -15q-8 -60 -36 -89.5t-70 -29.5zM415 -10q-78 0 -143 26t-112 75.5t-73.5 120.5
t-26.5 161t26.5 161.5t73.5 121t112 75.5t143 26t143.5 -26t112.5 -75.5t73.5 -121t26.5 -161.5t-26.5 -161t-73.5 -120.5t-112.5 -75.5t-143.5 -26zM415 111q45 0 85.5 17t71 50t48.5 82t18 113q0 65 -18 114t-48.5 82t-71 49.5t-85.5 16.5t-85.5 -16.5t-70.5 -49.5
t-48 -82t-18 -114q0 -64 18 -113t48 -82t70.5 -50t85.5 -17z" />
    <glyph glyph-name="Odieresis" unicode="&#xd6;" horiz-adv-x="831" 
d="M326 820q-29 0 -49 20t-20 49q0 28 20 47.5t49 19.5q28 0 48 -19.5t20 -47.5q0 -29 -20 -49t-48 -20zM502 820q-29 0 -48.5 20t-19.5 49q0 28 19.5 47.5t48.5 19.5q28 0 48 -19.5t20 -47.5q0 -29 -20 -49t-48 -20zM415 -10q-78 0 -143 26t-112 75.5t-73.5 120.5
t-26.5 161t26.5 161.5t73.5 121t112 75.5t143 26t143.5 -26t112.5 -75.5t73.5 -121t26.5 -161.5t-26.5 -161t-73.5 -120.5t-112.5 -75.5t-143.5 -26zM415 111q45 0 85.5 17t71 50t48.5 82t18 113q0 65 -18 114t-48.5 82t-71 49.5t-85.5 16.5t-85.5 -16.5t-70.5 -49.5
t-48 -82t-18 -114q0 -64 18 -113t48 -82t70.5 -50t85.5 -17z" />
    <glyph glyph-name="multiply" unicode="&#xd7;" 
d="M483 583l78 -78l-142 -142l141 -141l-75 -75l-141 141l-141 -141l-78 78l141 141l-141 141l75 75l141 -141z" />
    <glyph glyph-name="Oslash" unicode="&#xd8;" horiz-adv-x="811" 
d="M667 757l84 -81l-59 -67q29 -45 44 -104t15 -132q0 -94 -25.5 -165.5t-71.5 -120t-109.5 -73t-139.5 -24.5q-121 0 -207 62l-54 -62l-84 81l59 67q-29 45 -44 104t-15 131q0 94 25.5 166t71.5 120.5t109.5 73t138.5 24.5q122 0 207 -62zM183 373q0 -40 6.5 -74t17.5 -62
l326 368q-27 21 -60 31t-68 10q-45 0 -85.5 -17t-71 -50.5t-48 -85t-17.5 -120.5zM628 373q0 41 -6.5 74.5t-17.5 62.5l-326 -369q27 -20 59.5 -30t67.5 -10q46 0 86.5 17t71 50.5t48 84.5t17.5 120z" />
    <glyph glyph-name="Ugrave" unicode="&#xd9;" horiz-adv-x="748" 
d="M497 895l-40 -98l-244 96l38 98zM374 -10q-142 0 -213 81.5t-71 231.5v444h129v-442q0 -50 12 -86.5t33 -60.5t50 -35.5t62 -11.5t62 11.5t50 35.5t33 60.5t12 86.5v442h125v-444q0 -150 -71.5 -231.5t-212.5 -81.5z" />
    <glyph glyph-name="Uacute" unicode="&#xda;" horiz-adv-x="748" 
d="M527 893l-244 -96l-40 98l246 96zM374 -10q-142 0 -213 81.5t-71 231.5v444h129v-442q0 -50 12 -86.5t33 -60.5t50 -35.5t62 -11.5t62 11.5t50 35.5t33 60.5t12 86.5v442h125v-444q0 -150 -71.5 -231.5t-212.5 -81.5z" />
    <glyph glyph-name="Ucircumflex" unicode="&#xdb;" horiz-adv-x="748" 
d="M494 797l-115 90l-114 -90l-64 62l162 127h33l162 -127zM533 747h125v-444q0 -150 -71.5 -231.5t-212.5 -81.5q-142 0 -213 81.5t-71 231.5v444h129v-442q0 -50 12 -86.5t33 -60.5t50 -35.5t62 -11.5t62 11.5t50 35.5t33 60.5t12 86.5v442z" />
    <glyph glyph-name="Udieresis" unicode="&#xdc;" horiz-adv-x="748" 
d="M287 820q-29 0 -49 20t-20 49q0 28 20 47.5t49 19.5q28 0 48 -19.5t20 -47.5q0 -29 -20 -49t-48 -20zM463 820q-29 0 -48.5 20t-19.5 49q0 28 19.5 47.5t48.5 19.5q28 0 48 -19.5t20 -47.5q0 -29 -20 -49t-48 -20zM374 -10q-142 0 -213 81.5t-71 231.5v444h129v-442
q0 -50 12 -86.5t33 -60.5t50 -35.5t62 -11.5t62 11.5t50 35.5t33 60.5t12 86.5v442h125v-444q0 -150 -71.5 -231.5t-212.5 -81.5z" />
    <glyph glyph-name="Yacute" unicode="&#xdd;" horiz-adv-x="674" 
d="M450 991l38 -98l-244 -96l-40 98zM529 747h135l-263 -484v-263h-128v262l-263 485h139l190 -348z" />
    <glyph glyph-name="Thorn" unicode="&#xde;" horiz-adv-x="698" 
d="M229 651h136q66 0 120 -18.5t92.5 -53t59.5 -84.5t21 -113t-21 -113.5t-59.5 -85.5t-92.5 -53.5t-120 -18.5h-136v-111h-129v747h129v-96zM229 222h121q37 0 69 10t55.5 29.5t37 50t13.5 70.5t-13.5 69.5t-37 49.5t-55.5 30t-69 10h-121v-319z" />
    <glyph glyph-name="germandbls" unicode="&#xdf;" horiz-adv-x="735" 
d="M192 0h-120v448q0 83 22.5 146.5t64.5 107t102.5 66t135.5 22.5q58 0 102.5 -13t75 -36t46 -53t15.5 -65q0 -21 -4.5 -41.5t-17 -41t-34.5 -41t-57 -41.5q-21 -13 -34 -21.5t-20 -15.5t-9 -12.5t-2 -12.5q0 -16 15.5 -26t43.5 -21l58 -22q69 -26 97 -62.5t28 -95.5
q0 -39 -16 -70t-50.5 -53t-88.5 -34t-131 -12h-91v102h91q45 0 74 5t46.5 14t24.5 21.5t7 27.5q0 20 -17 37.5t-67 36.5l-50 19q-58 22 -83.5 51t-25.5 68q0 35 20 65.5t75 64.5q27 16 43.5 29t25.5 24t12 21.5t3 22.5q0 30 -25.5 53t-82.5 23q-95 0 -148.5 -64t-53.5 -178
v-443z" />
    <glyph glyph-name="agrave" unicode="&#xe0;" horiz-adv-x="629" 
d="M195 791l246 -96l-40 -98l-244 96zM320 557q115 0 177 -62t62 -175v-320h-120v72q-30 -38 -79 -60t-116 -22q-85 0 -134.5 41t-49.5 111q0 32 11 61t35 52t62.5 40t92.5 25l178 27q-2 48 -32.5 73t-86.5 25q-55 0 -82.5 -20t-32.5 -55h-123q2 37 18 71t46 59.5t73.5 41
t100.5 15.5zM266 104q38 0 69.5 9.5t54.5 27t36 41.5t13 52v14l-150 -23q-32 -5 -52.5 -12.5t-32.5 -17t-16.5 -21t-4.5 -23.5q0 -20 20.5 -33.5t62.5 -13.5z" />
    <glyph glyph-name="aacute" unicode="&#xe1;" horiz-adv-x="629" 
d="M433 791l38 -98l-244 -96l-40 98zM320 557q115 0 177 -62t62 -175v-320h-120v72q-30 -38 -79 -60t-116 -22q-85 0 -134.5 41t-49.5 111q0 32 11 61t35 52t62.5 40t92.5 25l178 27q-2 48 -32.5 73t-86.5 25q-55 0 -82.5 -20t-32.5 -55h-123q2 37 18 71t46 59.5t73.5 41
t100.5 15.5zM266 104q38 0 69.5 9.5t54.5 27t36 41.5t13 52v14l-150 -23q-32 -5 -52.5 -12.5t-32.5 -17t-16.5 -21t-4.5 -23.5q0 -20 20.5 -33.5t62.5 -13.5z" />
    <glyph glyph-name="acircumflex" unicode="&#xe2;" horiz-adv-x="629" 
d="M438 597l-115 90l-114 -90l-64 62l162 127h33l162 -127zM320 557q115 0 177 -62t62 -175v-320h-120v72q-30 -38 -79 -60t-116 -22q-85 0 -134.5 41t-49.5 111q0 32 11 61t35 52t62.5 40t92.5 25l178 27q-2 48 -32.5 73t-86.5 25q-55 0 -82.5 -20t-32.5 -55h-123
q2 37 18 71t46 59.5t73.5 41t100.5 15.5zM266 104q38 0 69.5 9.5t54.5 27t36 41.5t13 52v14l-150 -23q-32 -5 -52.5 -12.5t-32.5 -17t-16.5 -21t-4.5 -23.5q0 -20 20.5 -33.5t62.5 -13.5z" />
    <glyph glyph-name="atilde" unicode="&#xe3;" horiz-adv-x="629" 
d="M259 666q-34 0 -40 -47l-83 16q8 60 36 89.5t73 29.5q18 0 35.5 -5.5t46.5 -22.5q26 -14 37.5 -18.5t21.5 -4.5q30 0 37 46l83 -15q-8 -60 -36 -89.5t-70 -29.5q-20 0 -38.5 5.5t-46.5 21.5q-25 15 -35 19.5t-21 4.5zM320 557q115 0 177 -62t62 -175v-320h-120v72
q-30 -38 -79 -60t-116 -22q-85 0 -134.5 41t-49.5 111q0 32 11 61t35 52t62.5 40t92.5 25l178 27q-2 48 -32.5 73t-86.5 25q-55 0 -82.5 -20t-32.5 -55h-123q2 37 18 71t46 59.5t73.5 41t100.5 15.5zM266 104q38 0 69.5 9.5t54.5 27t36 41.5t13 52v14l-150 -23
q-32 -5 -52.5 -12.5t-32.5 -17t-16.5 -21t-4.5 -23.5q0 -20 20.5 -33.5t62.5 -13.5z" />
    <glyph glyph-name="adieresis" unicode="&#xe4;" horiz-adv-x="629" 
d="M231 620q-29 0 -49 20t-20 49q0 28 20 47.5t49 19.5q28 0 48 -19.5t20 -47.5q0 -29 -20 -49t-48 -20zM407 620q-29 0 -48.5 20t-19.5 49q0 28 19.5 47.5t48.5 19.5q28 0 48 -19.5t20 -47.5q0 -29 -20 -49t-48 -20zM320 557q115 0 177 -62t62 -175v-320h-120v72
q-30 -38 -79 -60t-116 -22q-85 0 -134.5 41t-49.5 111q0 32 11 61t35 52t62.5 40t92.5 25l178 27q-2 48 -32.5 73t-86.5 25q-55 0 -82.5 -20t-32.5 -55h-123q2 37 18 71t46 59.5t73.5 41t100.5 15.5zM266 104q38 0 69.5 9.5t54.5 27t36 41.5t13 52v14l-150 -23
q-32 -5 -52.5 -12.5t-32.5 -17t-16.5 -21t-4.5 -23.5q0 -20 20.5 -33.5t62.5 -13.5z" />
    <glyph glyph-name="aring" unicode="&#xe5;" horiz-adv-x="629" 
d="M320 595q-26 0 -48.5 9.5t-39 26t-25.5 38.5t-9 48q0 25 9 47t25.5 38t39 25.5t48.5 9.5q27 0 49.5 -9.5t38 -25.5t24.5 -38t9 -47q0 -26 -9 -48t-24.5 -38.5t-38 -26t-49.5 -9.5zM320 764q-20 0 -34 -13.5t-14 -33.5t14 -34.5t34 -14.5t33.5 14.5t13.5 34.5t-13.5 33.5
t-33.5 13.5zM320 557q115 0 177 -62t62 -175v-320h-120v72q-30 -38 -79 -60t-116 -22q-85 0 -134.5 41t-49.5 111q0 32 11 61t35 52t62.5 40t92.5 25l178 27q-2 48 -32.5 73t-86.5 25q-55 0 -82.5 -20t-32.5 -55h-123q2 37 18 71t46 59.5t73.5 41t100.5 15.5zM266 104
q38 0 69.5 9.5t54.5 27t36 41.5t13 52v14l-150 -23q-32 -5 -52.5 -12.5t-32.5 -17t-16.5 -21t-4.5 -23.5q0 -20 20.5 -33.5t62.5 -13.5z" />
    <glyph glyph-name="ae" unicode="&#xe6;" horiz-adv-x="1032" 
d="M987 226h-425q9 -57 50 -90.5t106 -33.5q47 0 80 15t48 42h128q-26 -75 -91.5 -122t-161.5 -47q-78 0 -137 28.5t-91 86.5q-32 -52 -92.5 -83.5t-144.5 -31.5q-95 0 -145.5 42.5t-50.5 117.5q0 66 48 109.5t148 54.5l193 21v4q0 48 -35 77t-95 29q-56 0 -82.5 -21.5
t-33.5 -53.5h-121q2 39 18 73t45.5 59.5t72.5 40t99 14.5q72 0 122 -24t79 -69q35 45 86 69t115 24q60 0 109.5 -19.5t84.5 -56t54.5 -88t19.5 -115.5v-52zM715 445q-58 0 -99 -32.5t-52 -83.5h295q-9 55 -48 85.5t-96 30.5zM266 104q34 0 65 8.5t55 24.5t40.5 39.5
t20.5 54.5l-141 -15q-72 -7 -97.5 -22t-25.5 -42q0 -19 18 -33.5t65 -14.5z" />
    <glyph glyph-name="ccedilla" unicode="&#xe7;" horiz-adv-x="625" 
d="M316 92q27 0 50 8.5t40.5 23.5t28.5 35.5t14 43.5h127q-3 -41 -20.5 -78t-47.5 -66t-71 -47.5t-91 -23.5l-9 -28q56 -1 87 -28t31 -75q0 -51 -39.5 -79t-105.5 -28h-84v64h63q36 0 52.5 12t16.5 33q0 20 -15 31.5t-50 11.5h-53l32 88q-54 7 -97 29.5t-73 59.5t-46 86
t-16 108q0 66 19.5 118.5t55.5 90t87 57.5t114 20q56 0 102.5 -17t80.5 -46.5t54 -68.5t23 -84h-127q-3 23 -14 43.5t-28.5 35.5t-40.5 23.5t-50 8.5q-66 0 -108 -48t-42 -133q0 -84 42 -132.5t108 -48.5z" />
    <glyph glyph-name="egrave" unicode="&#xe8;" horiz-adv-x="639" 
d="M192 791l246 -96l-40 -98l-244 96zM594 232h-426q8 -59 47.5 -94.5t104.5 -35.5q49 0 81.5 15t49.5 42h130q-26 -75 -94 -122t-168 -47q-63 0 -114 20t-88 57.5t-57 90t-20 116.5t20 116.5t56.5 89.5t87.5 57t113 20q63 0 114 -19.5t87 -56t56 -88t20 -115.5v-46z
M317 445q-56 0 -95 -33t-51 -82h295q-9 54 -50 84.5t-99 30.5z" />
    <glyph glyph-name="eacute" unicode="&#xe9;" horiz-adv-x="639" 
d="M430 791l38 -98l-244 -96l-40 98zM594 232h-426q8 -59 47.5 -94.5t104.5 -35.5q49 0 81.5 15t49.5 42h130q-26 -75 -94 -122t-168 -47q-63 0 -114 20t-88 57.5t-57 90t-20 116.5t20 116.5t56.5 89.5t87.5 57t113 20q63 0 114 -19.5t87 -56t56 -88t20 -115.5v-46zM317 445
q-56 0 -95 -33t-51 -82h295q-9 54 -50 84.5t-99 30.5z" />
    <glyph glyph-name="ecircumflex" unicode="&#xea;" horiz-adv-x="639" 
d="M435 597l-115 90l-114 -90l-64 62l162 127h33l162 -127zM594 232h-426q8 -59 47.5 -94.5t104.5 -35.5q49 0 81.5 15t49.5 42h130q-26 -75 -94 -122t-168 -47q-63 0 -114 20t-88 57.5t-57 90t-20 116.5t20 116.5t56.5 89.5t87.5 57t113 20q63 0 114 -19.5t87 -56t56 -88
t20 -115.5v-46zM317 445q-56 0 -95 -33t-51 -82h295q-9 54 -50 84.5t-99 30.5z" />
    <glyph glyph-name="edieresis" unicode="&#xeb;" horiz-adv-x="639" 
d="M228 620q-29 0 -49 20t-20 49q0 28 20 47.5t49 19.5q28 0 48 -19.5t20 -47.5q0 -29 -20 -49t-48 -20zM404 620q-29 0 -48.5 20t-19.5 49q0 28 19.5 47.5t48.5 19.5q28 0 48 -19.5t20 -47.5q0 -29 -20 -49t-48 -20zM594 232h-426q8 -59 47.5 -94.5t104.5 -35.5
q49 0 81.5 15t49.5 42h130q-26 -75 -94 -122t-168 -47q-63 0 -114 20t-88 57.5t-57 90t-20 116.5t20 116.5t56.5 89.5t87.5 57t113 20q63 0 114 -19.5t87 -56t56 -88t20 -115.5v-46zM317 445q-56 0 -95 -33t-51 -82h295q-9 54 -50 84.5t-99 30.5z" />
    <glyph glyph-name="igrave" unicode="&#xec;" horiz-adv-x="280" 
d="M261 695l-40 -98l-244 96l38 98zM200 0h-120v547h120v-547z" />
    <glyph glyph-name="iacute" unicode="&#xed;" horiz-adv-x="280" 
d="M291 693l-244 -96l-40 98l246 96zM200 0h-120v547h120v-547z" />
    <glyph glyph-name="icircumflex" unicode="&#xee;" horiz-adv-x="272" 
d="M113 786h33l132 -127l-64 -62l-85 81l-84 -81l-64 62zM190 0h-120v547h120v-547z" />
    <glyph glyph-name="idieresis" unicode="&#xef;" horiz-adv-x="280" 
d="M51 620q-29 0 -49 20t-20 49q0 28 20 47.5t49 19.5q28 0 48 -19.5t20 -47.5q0 -29 -20 -49t-48 -20zM227 620q-29 0 -48.5 20t-19.5 49q0 28 19.5 47.5t48.5 19.5q28 0 48 -19.5t20 -47.5q0 -29 -20 -49t-48 -20zM200 0h-120v547h120v-547z" />
    <glyph glyph-name="eth" unicode="&#xf0;" horiz-adv-x="674" 
d="M583 745l-123 -63q82 -69 124 -162.5t42 -208.5q0 -75 -19 -135.5t-56.5 -103t-92.5 -65.5t-128 -23q-68 0 -122 20.5t-91.5 58t-57 89t-19.5 114.5q0 60 20 110t55.5 86t84.5 55.5t108 19.5q51 0 93 -14.5t74 -40.5q-41 86 -126 143l-145 -74l-30 60l105 53
q-50 24 -113 42l57 98q99 -29 176 -78l153 78zM333 100q75 0 122 44t47 123q0 39 -13 69.5t-36 51.5t-54 32t-66 11q-38 0 -69 -12t-53.5 -33.5t-34.5 -51.5t-12 -67q0 -79 46.5 -123t122.5 -44z" />
    <glyph glyph-name="ntilde" unicode="&#xf1;" horiz-adv-x="642" 
d="M265 666q-34 0 -40 -47l-83 16q8 60 36 89.5t73 29.5q18 0 35.5 -5.5t46.5 -22.5q26 -14 37.5 -18.5t21.5 -4.5q30 0 37 46l83 -15q-8 -60 -36 -89.5t-70 -29.5q-20 0 -38.5 5.5t-46.5 21.5q-25 15 -35 19.5t-21 4.5zM365 559q46 0 84 -16.5t65.5 -48.5t42.5 -79t15 -108
v-307h-120v285q0 77 -33.5 117.5t-89.5 40.5q-57 0 -93 -42.5t-36 -114.5v-286h-120v547h120v-74q23 38 65 62t100 24z" />
    <glyph glyph-name="ograve" unicode="&#xf2;" horiz-adv-x="647" 
d="M445 695l-40 -98l-244 96l38 98zM324 -13q-67 0 -119.5 22t-89 61t-56 91t-19.5 112t19.5 112t56 91t89 61t119.5 22q66 0 118.5 -22t89 -61t56 -91t19.5 -112t-19.5 -112t-56 -91t-89 -61t-118.5 -22zM324 102q36 0 65 12t49.5 34.5t31.5 54t11 70.5t-11 70.5t-31.5 54
t-49.5 34.5t-65 12q-72 0 -115 -46.5t-43 -124.5t43 -124.5t115 -46.5z" />
    <glyph glyph-name="oacute" unicode="&#xf3;" horiz-adv-x="647" 
d="M475 693l-244 -96l-40 98l246 96zM324 -13q-67 0 -119.5 22t-89 61t-56 91t-19.5 112t19.5 112t56 91t89 61t119.5 22q66 0 118.5 -22t89 -61t56 -91t19.5 -112t-19.5 -112t-56 -91t-89 -61t-118.5 -22zM324 102q36 0 65 12t49.5 34.5t31.5 54t11 70.5t-11 70.5t-31.5 54
t-49.5 34.5t-65 12q-72 0 -115 -46.5t-43 -124.5t43 -124.5t115 -46.5z" />
    <glyph glyph-name="ocircumflex" unicode="&#xf4;" horiz-adv-x="647" 
d="M442 597l-115 90l-114 -90l-64 62l162 127h33l162 -127zM324 559q66 0 118.5 -22t89 -61t56 -91t19.5 -112t-19.5 -112t-56 -91t-89 -61t-118.5 -22q-67 0 -119.5 22t-89 61t-56 91t-19.5 112t19.5 112t56 91t89 61t119.5 22zM324 102q36 0 65 12t49.5 34.5t31.5 54
t11 70.5t-11 70.5t-31.5 54t-49.5 34.5t-65 12q-72 0 -115 -46.5t-43 -124.5t43 -124.5t115 -46.5z" />
    <glyph glyph-name="otilde" unicode="&#xf5;" horiz-adv-x="647" 
d="M404 615q-20 0 -38.5 5.5t-46.5 21.5q-25 15 -35 19.5t-21 4.5q-34 0 -40 -47l-83 16q8 60 36 89.5t73 29.5q18 0 35.5 -5.5t46.5 -22.5q26 -14 37.5 -18.5t21.5 -4.5q30 0 37 46l83 -15q-8 -60 -36 -89.5t-70 -29.5zM324 -13q-67 0 -119.5 22t-89 61t-56 91t-19.5 112
t19.5 112t56 91t89 61t119.5 22q66 0 118.5 -22t89 -61t56 -91t19.5 -112t-19.5 -112t-56 -91t-89 -61t-118.5 -22zM324 102q36 0 65 12t49.5 34.5t31.5 54t11 70.5t-11 70.5t-31.5 54t-49.5 34.5t-65 12q-72 0 -115 -46.5t-43 -124.5t43 -124.5t115 -46.5z" />
    <glyph glyph-name="odieresis" unicode="&#xf6;" horiz-adv-x="647" 
d="M235 620q-29 0 -49 20t-20 49q0 28 20 47.5t49 19.5q28 0 48 -19.5t20 -47.5q0 -29 -20 -49t-48 -20zM411 620q-29 0 -48.5 20t-19.5 49q0 28 19.5 47.5t48.5 19.5q28 0 48 -19.5t20 -47.5q0 -29 -20 -49t-48 -20zM324 -13q-67 0 -119.5 22t-89 61t-56 91t-19.5 112
t19.5 112t56 91t89 61t119.5 22q66 0 118.5 -22t89 -61t56 -91t19.5 -112t-19.5 -112t-56 -91t-89 -61t-118.5 -22zM324 102q36 0 65 12t49.5 34.5t31.5 54t11 70.5t-11 70.5t-31.5 54t-49.5 34.5t-65 12q-72 0 -115 -46.5t-43 -124.5t43 -124.5t115 -46.5z" />
    <glyph glyph-name="divide" unicode="&#xf7;" 
d="M343 500q-29 0 -50 21t-21 51q0 29 21 49.5t50 20.5t49.5 -20.5t20.5 -49.5q0 -30 -20.5 -51t-49.5 -21zM584 313h-482v103h482v-103zM343 87q-29 0 -50 21t-21 51q0 29 21 49.5t50 20.5t49.5 -20.5t20.5 -49.5q0 -30 -20.5 -51t-49.5 -21z" />
    <glyph glyph-name="oslash" unicode="&#xf8;" horiz-adv-x="647" 
d="M598 483l-40 -40q49 -72 49 -170q0 -60 -19.5 -112t-56 -91t-89 -61t-118.5 -22q-52 0 -95 13.5t-77 37.5l-39 -39l-66 63l42 41q-49 74 -49 170q0 60 19.5 112t56 91t89 61t119.5 22q51 0 93.5 -13.5t76.5 -36.5l38 37zM166 273q0 -44 14 -78l228 227q-38 22 -84 22
q-72 0 -115 -46.5t-43 -124.5zM324 102q36 0 65 12t49.5 34.5t31.5 54t11 70.5q0 43 -14 79l-228 -228q36 -22 85 -22z" />
    <glyph glyph-name="ugrave" unicode="&#xf9;" horiz-adv-x="626" 
d="M183 791l246 -96l-40 -98l-244 96zM426 547h120v-547h-120v70q-23 -36 -62.5 -59.5t-94.5 -23.5q-44 0 -80.5 16.5t-63 49t-41 79.5t-14.5 108v307h120v-285q0 -77 31.5 -117.5t84.5 -40.5q48 0 81.5 36t38.5 98v309z" />
    <glyph glyph-name="uacute" unicode="&#xfa;" horiz-adv-x="626" 
d="M421 791l38 -98l-244 -96l-40 98zM426 547h120v-547h-120v70q-23 -36 -62.5 -59.5t-94.5 -23.5q-44 0 -80.5 16.5t-63 49t-41 79.5t-14.5 108v307h120v-285q0 -77 31.5 -117.5t84.5 -40.5q48 0 81.5 36t38.5 98v309z" />
    <glyph glyph-name="ucircumflex" unicode="&#xfb;" horiz-adv-x="626" 
d="M426 597l-115 90l-114 -90l-64 62l162 127h33l162 -127zM426 547h120v-547h-120v70q-23 -36 -62.5 -59.5t-94.5 -23.5q-44 0 -80.5 16.5t-63 49t-41 79.5t-14.5 108v307h120v-285q0 -77 31.5 -117.5t84.5 -40.5q48 0 81.5 36t38.5 98v309z" />
    <glyph glyph-name="udieresis" unicode="&#xfc;" horiz-adv-x="626" 
d="M219 620q-29 0 -49 20t-20 49q0 28 20 47.5t49 19.5q28 0 48 -19.5t20 -47.5q0 -29 -20 -49t-48 -20zM395 620q-29 0 -48.5 20t-19.5 49q0 28 19.5 47.5t48.5 19.5q28 0 48 -19.5t20 -47.5q0 -29 -20 -49t-48 -20zM426 547h120v-547h-120v70q-23 -36 -62.5 -59.5
t-94.5 -23.5q-44 0 -80.5 16.5t-63 49t-41 79.5t-14.5 108v307h120v-285q0 -77 31.5 -117.5t84.5 -40.5q48 0 81.5 36t38.5 98v309z" />
    <glyph glyph-name="yacute" unicode="&#xfd;" horiz-adv-x="579" 
d="M403 791l38 -98l-244 -96l-40 98zM288 169l159 378h117l-305 -728h-117l85 203l-212 525h121z" />
    <glyph glyph-name="thorn" unicode="&#xfe;" 
d="M392 559q57 0 104 -19t80 -55.5t51.5 -89.5t18.5 -122q0 -68 -18.5 -121.5t-51.5 -90t-80 -55.5t-104 -19q-67 0 -115 22.5t-77 63.5v-263h-120v971h120v-308q29 41 77 63.5t115 22.5zM360 91q72 0 116 48t44 132t-44 131.5t-116 47.5q-74 0 -117 -47.5t-43 -131.5
q0 -85 43 -132.5t117 -47.5z" />
    <glyph glyph-name="ydieresis" unicode="&#xff;" horiz-adv-x="579" 
d="M201 620q-29 0 -49 20t-20 49q0 28 20 47.5t49 19.5q28 0 48 -19.5t20 -47.5q0 -29 -20 -49t-48 -20zM377 620q-29 0 -48.5 20t-19.5 49q0 28 19.5 47.5t48.5 19.5q28 0 48 -19.5t20 -47.5q0 -29 -20 -49t-48 -20zM288 169l159 378h117l-305 -728h-117l85 203l-212 525
h121z" />
    <glyph glyph-name="Amacron" unicode="&#x100;" horiz-adv-x="754" 
d="M217 924h322v-86h-322v86zM739 0h-134l-56 149h-348l-56 -149h-130l290 747h145zM375 614l-128 -342h256z" />
    <glyph glyph-name="amacron" unicode="&#x101;" horiz-adv-x="629" 
d="M159 724h322v-86h-322v86zM320 557q115 0 177 -62t62 -175v-320h-120v72q-30 -38 -79 -60t-116 -22q-85 0 -134.5 41t-49.5 111q0 32 11 61t35 52t62.5 40t92.5 25l178 27q-2 48 -32.5 73t-86.5 25q-55 0 -82.5 -20t-32.5 -55h-123q2 37 18 71t46 59.5t73.5 41
t100.5 15.5zM266 104q38 0 69.5 9.5t54.5 27t36 41.5t13 52v14l-150 -23q-32 -5 -52.5 -12.5t-32.5 -17t-16.5 -21t-4.5 -23.5q0 -20 20.5 -33.5t62.5 -13.5z" />
    <glyph glyph-name="Abreve" unicode="&#x102;" horiz-adv-x="754" 
d="M378 812q-69 0 -106.5 39.5t-48.5 108.5l76 18q10 -41 29.5 -58.5t49.5 -17.5t49.5 17.5t29.5 58.5l76 -18q-11 -69 -48.5 -108.5t-106.5 -39.5zM739 0h-134l-56 149h-348l-56 -149h-130l290 747h145zM375 614l-128 -342h256z" />
    <glyph glyph-name="abreve" unicode="&#x103;" horiz-adv-x="629" 
d="M320 612q-69 0 -106.5 39.5t-48.5 108.5l76 18q10 -41 29.5 -58.5t49.5 -17.5t49.5 17.5t29.5 58.5l76 -18q-11 -69 -48.5 -108.5t-106.5 -39.5zM320 557q115 0 177 -62t62 -175v-320h-120v72q-30 -38 -79 -60t-116 -22q-85 0 -134.5 41t-49.5 111q0 32 11 61t35 52
t62.5 40t92.5 25l178 27q-2 48 -32.5 73t-86.5 25q-55 0 -82.5 -20t-32.5 -55h-123q2 37 18 71t46 59.5t73.5 41t100.5 15.5zM266 104q38 0 69.5 9.5t54.5 27t36 41.5t13 52v14l-150 -23q-32 -5 -52.5 -12.5t-32.5 -17t-16.5 -21t-4.5 -23.5q0 -20 20.5 -33.5t62.5 -13.5z
" />
    <glyph glyph-name="Aogonek" unicode="&#x104;" horiz-adv-x="754" 
d="M631 -79q0 -19 17 -30t51 -11h40v-88h-72q-64 0 -96.5 26.5t-32.5 73.5q0 31 18 58t63 50h-14l-56 149h-348l-56 -149h-130l290 747h145l289 -747q-32 -12 -53 -22t-33 -19.5t-17 -18.5t-5 -19zM375 614l-128 -342h256z" />
    <glyph glyph-name="aogonek" unicode="&#x105;" horiz-adv-x="629" 
d="M559 0q-32 -12 -53 -22t-33 -19.5t-17 -18.5t-5 -19q0 -19 17 -30t51 -11h40v-88h-72q-64 0 -96.5 26.5t-32.5 73.5q0 31 18 58t63 50v72q-30 -38 -79 -60t-116 -22q-85 0 -134.5 41t-49.5 111q0 32 11 61t35 52t62.5 40t92.5 25l178 27q-2 48 -32.5 73t-86.5 25
q-55 0 -82.5 -20t-32.5 -55h-123q2 37 18 71t46 59.5t73.5 41t100.5 15.5q115 0 177 -62t62 -175v-320zM266 104q38 0 69.5 9.5t54.5 27t36 41.5t13 52v14l-150 -23q-32 -5 -52.5 -12.5t-32.5 -17t-16.5 -21t-4.5 -23.5q0 -20 20.5 -33.5t62.5 -13.5z" />
    <glyph glyph-name="Cacute" unicode="&#x106;" horiz-adv-x="783" 
d="M558 893l-244 -96l-40 98l246 96zM405 -10q-76 0 -139.5 25.5t-109.5 74.5t-71 120.5t-25 162.5q0 92 25 163.5t70.5 120.5t108.5 74.5t139 25.5q77 0 137.5 -24t102.5 -63t65 -89.5t25 -103.5h-137q-3 30 -17 58t-38.5 50t-59 35.5t-78.5 13.5t-82 -16.5t-66.5 -49.5
t-45 -82t-16.5 -113t16.5 -112.5t45 -81.5t66.5 -50t82 -17t78.5 13.5t59 35.5t38.5 50t17 58h137q-2 -53 -25 -103t-65 -89t-102 -63t-136 -24z" />
    <glyph glyph-name="cacute" unicode="&#x107;" horiz-adv-x="625" 
d="M467 693l-244 -96l-40 98l246 96zM316 -13q-63 0 -114 20t-87 57.5t-55.5 90.5t-19.5 118q0 66 19.5 118.5t55.5 90t87 57.5t114 20q56 0 102.5 -17t80.5 -46.5t54 -68.5t23 -84h-127q-3 23 -14 43.5t-28.5 35.5t-40.5 23.5t-50 8.5q-66 0 -108 -48t-42 -133
q0 -84 42 -132.5t108 -48.5q27 0 50 8.5t40.5 23.5t28.5 35.5t14 43.5h127q-3 -44 -23 -83.5t-54 -69t-80.5 -46.5t-102.5 -17z" />
    <glyph glyph-name="Ccircumflex" unicode="&#x108;" horiz-adv-x="783" 
d="M525 797l-115 90l-114 -90l-64 62l162 127h33l162 -127zM403 112q44 0 78.5 13.5t59 35.5t38.5 50t17 58h137q-2 -53 -25 -103t-65 -89t-102 -63t-136 -24t-139.5 25.5t-109.5 74.5t-71 120.5t-25 162.5q0 92 25 163.5t70.5 120.5t108.5 74.5t139 25.5q77 0 137.5 -24
t102.5 -63t65 -89.5t25 -103.5h-137q-3 30 -17 58t-38.5 50t-59 35.5t-78.5 13.5t-82 -16.5t-66.5 -49.5t-45 -82t-16.5 -113t16.5 -112.5t45 -81.5t66.5 -50t82 -17z" />
    <glyph glyph-name="ccircumflex" unicode="&#x109;" horiz-adv-x="625" 
d="M434 597l-115 90l-114 -90l-64 62l162 127h33l162 -127zM316 92q27 0 50 8.5t40.5 23.5t28.5 35.5t14 43.5h127q-3 -44 -23 -83.5t-54 -69t-80.5 -46.5t-102.5 -17q-63 0 -114 20t-87 57.5t-55.5 90.5t-19.5 118q0 66 19.5 118.5t55.5 90t87 57.5t114 20q56 0 102.5 -17
t80.5 -46.5t54 -68.5t23 -84h-127q-3 23 -14 43.5t-28.5 35.5t-40.5 23.5t-50 8.5q-66 0 -108 -48t-42 -133q0 -84 42 -132.5t108 -48.5z" />
    <glyph glyph-name="Cdotaccent" unicode="&#x10a;" horiz-adv-x="783" 
d="M407 816q-32 0 -53.5 22t-21.5 53t21.5 52.5t53.5 21.5q31 0 53 -21.5t22 -52.5t-22 -53t-53 -22zM405 -10q-76 0 -139.5 25.5t-109.5 74.5t-71 120.5t-25 162.5q0 92 25 163.5t70.5 120.5t108.5 74.5t139 25.5q77 0 137.5 -24t102.5 -63t65 -89.5t25 -103.5h-137
q-3 30 -17 58t-38.5 50t-59 35.5t-78.5 13.5t-82 -16.5t-66.5 -49.5t-45 -82t-16.5 -113t16.5 -112.5t45 -81.5t66.5 -50t82 -17t78.5 13.5t59 35.5t38.5 50t17 58h137q-2 -53 -25 -103t-65 -89t-102 -63t-136 -24z" />
    <glyph glyph-name="cdotaccent" unicode="&#x10b;" horiz-adv-x="625" 
d="M316 616q-32 0 -53.5 22t-21.5 53t21.5 52.5t53.5 21.5q31 0 53 -21.5t22 -52.5t-22 -53t-53 -22zM316 -13q-63 0 -114 20t-87 57.5t-55.5 90.5t-19.5 118q0 66 19.5 118.5t55.5 90t87 57.5t114 20q56 0 102.5 -17t80.5 -46.5t54 -68.5t23 -84h-127q-3 23 -14 43.5
t-28.5 35.5t-40.5 23.5t-50 8.5q-66 0 -108 -48t-42 -133q0 -84 42 -132.5t108 -48.5q27 0 50 8.5t40.5 23.5t28.5 35.5t14 43.5h127q-3 -44 -23 -83.5t-54 -69t-80.5 -46.5t-102.5 -17z" />
    <glyph glyph-name="Ccaron" unicode="&#x10c;" horiz-adv-x="783" 
d="M588 926l-162 -127h-33l-162 127l64 62l114 -90l115 90zM403 112q44 0 78.5 13.5t59 35.5t38.5 50t17 58h137q-2 -53 -25 -103t-65 -89t-102 -63t-136 -24t-139.5 25.5t-109.5 74.5t-71 120.5t-25 162.5q0 92 25 163.5t70.5 120.5t108.5 74.5t139 25.5q77 0 137.5 -24
t102.5 -63t65 -89.5t25 -103.5h-137q-3 30 -17 58t-38.5 50t-59 35.5t-78.5 13.5t-82 -16.5t-66.5 -49.5t-45 -82t-16.5 -113t16.5 -112.5t45 -81.5t66.5 -50t82 -17z" />
    <glyph glyph-name="ccaron" unicode="&#x10d;" horiz-adv-x="625" 
d="M497 726l-162 -127h-33l-162 127l64 62l114 -90l115 90zM316 92q27 0 50 8.5t40.5 23.5t28.5 35.5t14 43.5h127q-3 -44 -23 -83.5t-54 -69t-80.5 -46.5t-102.5 -17q-63 0 -114 20t-87 57.5t-55.5 90.5t-19.5 118q0 66 19.5 118.5t55.5 90t87 57.5t114 20q56 0 102.5 -17
t80.5 -46.5t54 -68.5t23 -84h-127q-3 23 -14 43.5t-28.5 35.5t-40.5 23.5t-50 8.5q-66 0 -108 -48t-42 -133q0 -84 42 -132.5t108 -48.5z" />
    <glyph glyph-name="Dcaron" unicode="&#x10e;" horiz-adv-x="781" 
d="M536 926l-162 -127h-33l-162 127l64 62l114 -90l115 90zM321 747q94 0 168.5 -25t126 -73t78.5 -117.5t27 -158.5q0 -88 -27 -157.5t-78.5 -117.5t-126 -73t-168.5 -25h-221v747h221zM229 119h86q63 0 113 17t85.5 49t54.5 79.5t19 108.5q0 62 -19 109.5t-54.5 79.5
t-85.5 48.5t-113 16.5h-86v-508z" />
    <glyph glyph-name="dcaron" unicode="&#x10f;" horiz-adv-x="671" 
d="M471 781h120v-781h-120v78q-29 -43 -74.5 -67t-109.5 -24q-55 0 -100.5 19.5t-78 56.5t-50.5 90t-18 120q0 68 18 121t50.5 89.5t78 56t100.5 19.5q64 0 109.5 -24t74.5 -66v312zM665 583v181h93l-19 -181h-74zM319 97q69 0 110.5 47.5t41.5 131.5t-41.5 131.5
t-110.5 47.5q-34 0 -62 -12.5t-48 -36t-31.5 -56.5t-11.5 -74t11.5 -74t31.5 -56.5t48 -36t62 -12.5z" />
    <glyph glyph-name="Dcroat" unicode="&#x110;" horiz-adv-x="781" 
d="M321 747q94 0 168.5 -25t126 -73t78.5 -117.5t27 -158.5q0 -88 -27 -157.5t-78.5 -117.5t-126 -73t-168.5 -25h-221v324h-90v108h90v315h221zM229 119h86q63 0 113 17t85.5 49t54.5 79.5t19 108.5q0 62 -19 109.5t-54.5 79.5t-85.5 48.5t-113 16.5h-86v-195h203v-108
h-203v-205z" />
    <glyph glyph-name="dcroat" unicode="&#x111;" horiz-adv-x="671" 
d="M591 693h78v-84h-78v-609h-120v78q-29 -43 -74.5 -67t-109.5 -24q-55 0 -100.5 19.5t-78 56.5t-50.5 90t-18 120q0 68 18 121t50.5 89.5t78 56t100.5 19.5q64 0 109.5 -24t74.5 -66v140h-143v84h143v88h120v-88zM319 97q69 0 110.5 47.5t41.5 131.5t-41.5 131.5
t-110.5 47.5q-34 0 -62 -12.5t-48 -36t-31.5 -56.5t-11.5 -74t11.5 -74t31.5 -56.5t48 -36t62 -12.5z" />
    <glyph glyph-name="Emacron" unicode="&#x112;" horiz-adv-x="682" 
d="M203 924h322v-86h-322v86zM229 347v-224h393v-123h-522v747h518v-123h-389v-154h274v-123h-274z" />
    <glyph glyph-name="emacron" unicode="&#x113;" horiz-adv-x="639" 
d="M156 724h322v-86h-322v86zM594 232h-426q8 -59 47.5 -94.5t104.5 -35.5q49 0 81.5 15t49.5 42h130q-26 -75 -94 -122t-168 -47q-63 0 -114 20t-88 57.5t-57 90t-20 116.5t20 116.5t56.5 89.5t87.5 57t113 20q63 0 114 -19.5t87 -56t56 -88t20 -115.5v-46zM317 445
q-56 0 -95 -33t-51 -82h295q-9 54 -50 84.5t-99 30.5z" />
    <glyph glyph-name="Edotaccent" unicode="&#x116;" horiz-adv-x="682" 
d="M364 816q-32 0 -53.5 22t-21.5 53t21.5 52.5t53.5 21.5q31 0 53 -21.5t22 -52.5t-22 -53t-53 -22zM229 347v-224h393v-123h-522v747h518v-123h-389v-154h274v-123h-274z" />
    <glyph glyph-name="edotaccent" unicode="&#x117;" horiz-adv-x="639" 
d="M317 616q-32 0 -53.5 22t-21.5 53t21.5 52.5t53.5 21.5q31 0 53 -21.5t22 -52.5t-22 -53t-53 -22zM594 232h-426q8 -59 47.5 -94.5t104.5 -35.5q49 0 81.5 15t49.5 42h130q-26 -75 -94 -122t-168 -47q-63 0 -114 20t-88 57.5t-57 90t-20 116.5t20 116.5t56.5 89.5
t87.5 57t113 20q63 0 114 -19.5t87 -56t56 -88t20 -115.5v-46zM317 445q-56 0 -95 -33t-51 -82h295q-9 54 -50 84.5t-99 30.5z" />
    <glyph glyph-name="Eogonek" unicode="&#x118;" horiz-adv-x="682" 
d="M622 123v-123q-32 -12 -53 -22t-33 -19.5t-17 -18.5t-5 -19q0 -19 17 -30t51 -11h40v-88h-72q-64 0 -96.5 26.5t-32.5 73.5q0 31 18 58t63 50h-402v747h518v-123h-389v-154h274v-123h-274v-224h393z" />
    <glyph glyph-name="eogonek" unicode="&#x119;" horiz-adv-x="639" 
d="M594 232h-426q8 -59 47.5 -94.5t104.5 -35.5q49 0 81.5 15t49.5 42h130q-20 -59 -66 -100.5t-114 -58.5q-32 -12 -52.5 -22t-32.5 -19.5t-17 -18.5t-5 -19q0 -19 17 -30t51 -11h40v-88h-72q-64 0 -96.5 26.5t-32.5 73.5q0 29 15.5 54t53.5 47q-52 8 -94.5 31t-72.5 59
t-46.5 84.5t-16.5 106.5q0 64 20 116.5t56.5 89.5t87.5 57t113 20q63 0 114 -19.5t87 -56t56 -88t20 -115.5v-46zM317 445q-56 0 -95 -33t-51 -82h295q-9 54 -50 84.5t-99 30.5z" />
    <glyph glyph-name="Ecaron" unicode="&#x11a;" horiz-adv-x="682" 
d="M545 926l-162 -127h-33l-162 127l64 62l114 -90l115 90zM229 347v-224h393v-123h-522v747h518v-123h-389v-154h274v-123h-274z" />
    <glyph glyph-name="ecaron" unicode="&#x11b;" horiz-adv-x="639" 
d="M498 726l-162 -127h-33l-162 127l64 62l114 -90l115 90zM594 232h-426q8 -59 47.5 -94.5t104.5 -35.5q49 0 81.5 15t49.5 42h130q-26 -75 -94 -122t-168 -47q-63 0 -114 20t-88 57.5t-57 90t-20 116.5t20 116.5t56.5 89.5t87.5 57t113 20q63 0 114 -19.5t87 -56t56 -88
t20 -115.5v-46zM317 445q-56 0 -95 -33t-51 -82h295q-9 54 -50 84.5t-99 30.5z" />
    <glyph glyph-name="Gcircumflex" unicode="&#x11c;" horiz-adv-x="822" 
d="M534 797l-115 90l-114 -90l-64 62l162 127h33l162 -127zM414 293v112h348v-68q0 -79 -25.5 -143.5t-71.5 -109.5t-110 -69.5t-141 -24.5t-142 27t-112 76.5t-73.5 120.5t-26.5 159q0 89 26 160t73 120.5t112 76.5t143 27q69 0 125 -18t98 -50t70.5 -75.5t42.5 -94.5h-143
q-21 50 -70 83t-121 33q-48 0 -88.5 -17t-70.5 -50.5t-46.5 -82.5t-16.5 -112t17 -112t47 -82.5t71.5 -50.5t89.5 -17q43 0 80 16t65 41.5t46 58.5t22 66h-218z" />
    <glyph glyph-name="gcircumflex" unicode="&#x11d;" horiz-adv-x="665" 
d="M441 597l-115 90l-114 -90l-64 62l162 127h33l162 -127zM475 547h120v-588q0 -85 -47.5 -132t-133.5 -47h-264v103h246q79 0 79 77v132q-29 -42 -75 -66t-111 -24q-55 0 -101 19t-79 55.5t-51 88.5t-18 118q0 65 18 116.5t51 87t79 54t101 18.5q65 0 111 -23.5t75 -65.5
v77zM321 111q71 0 112.5 47t41.5 128q0 78 -41.5 123.5t-112.5 45.5q-34 0 -62.5 -12t-49 -34t-32 -53.5t-11.5 -69.5q0 -40 11.5 -72t32 -55t49 -35.5t62.5 -12.5z" />
    <glyph glyph-name="Gbreve" unicode="&#x11e;" horiz-adv-x="822" 
d="M416 812q-69 0 -106.5 39.5t-48.5 108.5l76 18q10 -41 29.5 -58.5t49.5 -17.5t49.5 17.5t29.5 58.5l76 -18q-11 -69 -48.5 -108.5t-106.5 -39.5zM414 293v112h348v-68q0 -79 -25.5 -143.5t-71.5 -109.5t-110 -69.5t-141 -24.5t-142 27t-112 76.5t-73.5 120.5t-26.5 159
q0 89 26 160t73 120.5t112 76.5t143 27q69 0 125 -18t98 -50t70.5 -75.5t42.5 -94.5h-143q-21 50 -70 83t-121 33q-48 0 -88.5 -17t-70.5 -50.5t-46.5 -82.5t-16.5 -112t17 -112t47 -82.5t71.5 -50.5t89.5 -17q43 0 80 16t65 41.5t46 58.5t22 66h-218z" />
    <glyph glyph-name="gbreve" unicode="&#x11f;" horiz-adv-x="665" 
d="M323 612q-69 0 -106.5 39.5t-48.5 108.5l76 18q10 -41 29.5 -58.5t49.5 -17.5t49.5 17.5t29.5 58.5l76 -18q-11 -69 -48.5 -108.5t-106.5 -39.5zM475 547h120v-588q0 -85 -47.5 -132t-133.5 -47h-264v103h246q79 0 79 77v132q-29 -42 -75 -66t-111 -24q-55 0 -101 19
t-79 55.5t-51 88.5t-18 118q0 65 18 116.5t51 87t79 54t101 18.5q65 0 111 -23.5t75 -65.5v77zM321 111q71 0 112.5 47t41.5 128q0 78 -41.5 123.5t-112.5 45.5q-34 0 -62.5 -12t-49 -34t-32 -53.5t-11.5 -69.5q0 -40 11.5 -72t32 -55t49 -35.5t62.5 -12.5z" />
    <glyph glyph-name="Gdotaccent" unicode="&#x120;" horiz-adv-x="822" 
d="M416 816q-32 0 -53.5 22t-21.5 53t21.5 52.5t53.5 21.5q31 0 53 -21.5t22 -52.5t-22 -53t-53 -22zM414 293v112h348v-68q0 -79 -25.5 -143.5t-71.5 -109.5t-110 -69.5t-141 -24.5t-142 27t-112 76.5t-73.5 120.5t-26.5 159q0 89 26 160t73 120.5t112 76.5t143 27
q69 0 125 -18t98 -50t70.5 -75.5t42.5 -94.5h-143q-21 50 -70 83t-121 33q-48 0 -88.5 -17t-70.5 -50.5t-46.5 -82.5t-16.5 -112t17 -112t47 -82.5t71.5 -50.5t89.5 -17q43 0 80 16t65 41.5t46 58.5t22 66h-218z" />
    <glyph glyph-name="gdotaccent" unicode="&#x121;" horiz-adv-x="665" 
d="M323 616q-32 0 -53.5 22t-21.5 53t21.5 52.5t53.5 21.5q31 0 53 -21.5t22 -52.5t-22 -53t-53 -22zM475 547h120v-588q0 -85 -47.5 -132t-133.5 -47h-264v103h246q79 0 79 77v132q-29 -42 -75 -66t-111 -24q-55 0 -101 19t-79 55.5t-51 88.5t-18 118q0 65 18 116.5t51 87
t79 54t101 18.5q65 0 111 -23.5t75 -65.5v77zM321 111q71 0 112.5 47t41.5 128q0 78 -41.5 123.5t-112.5 45.5q-34 0 -62.5 -12t-49 -34t-32 -53.5t-11.5 -69.5q0 -40 11.5 -72t32 -55t49 -35.5t62.5 -12.5z" />
    <glyph glyph-name="uni0122" unicode="&#x122;" horiz-adv-x="822" 
d="M414 293v112h348v-68q0 -79 -25.5 -143.5t-71.5 -109.5t-110 -69.5t-141 -24.5t-142 27t-112 76.5t-73.5 120.5t-26.5 159q0 89 26 160t73 120.5t112 76.5t143 27q69 0 125 -18t98 -50t70.5 -75.5t42.5 -94.5h-143q-21 50 -70 83t-121 33q-48 0 -88.5 -17t-70.5 -50.5
t-46.5 -82.5t-16.5 -112t17 -112t47 -82.5t71.5 -50.5t89.5 -17q43 0 80 16t65 41.5t46 58.5t22 66h-218zM416 -46q33 0 52.5 -21.5t19.5 -59.5q0 -86 -98 -118l-15 -5l-18 51l15 5q22 8 35.5 13t19.5 18q-4 -1 -14 -1q-27 0 -44 17t-17 41q0 26 17.5 43t46.5 17z" />
    <glyph glyph-name="uni0123" unicode="&#x123;" horiz-adv-x="665" 
d="M330 619q-33 0 -52.5 21.5t-19.5 59.5q0 86 98 118l15 5l18 -51l-15 -5q-22 -8 -35.5 -13t-19.5 -18q4 1 14 1q27 0 44 -17t17 -41q0 -26 -17.5 -43t-46.5 -17zM475 547h120v-588q0 -85 -47.5 -132t-133.5 -47h-264v103h246q79 0 79 77v132q-29 -42 -75 -66t-111 -24
q-55 0 -101 19t-79 55.5t-51 88.5t-18 118q0 65 18 116.5t51 87t79 54t101 18.5q65 0 111 -23.5t75 -65.5v77zM321 111q71 0 112.5 47t41.5 128q0 78 -41.5 123.5t-112.5 45.5q-34 0 -62.5 -12t-49 -34t-32 -53.5t-11.5 -69.5q0 -40 11.5 -72t32 -55t49 -35.5t62.5 -12.5z
" />
    <glyph glyph-name="Hcircumflex" unicode="&#x124;" horiz-adv-x="794" 
d="M515 797l-115 90l-114 -90l-64 62l162 127h33l162 -127zM565 485v262h129v-747h-129v363h-336v-363h-129v747h129v-262h336z" />
    <glyph glyph-name="hcircumflex" unicode="&#x125;" horiz-adv-x="661" 
d="M334 893l-64 -62l-115 90l-114 -90l-64 62l162 127h33zM377 559q46 0 84 -16.5t65.5 -48.5t42.5 -79t15 -108v-307h-120v285q0 77 -33.5 117.5t-89.5 40.5q-57 0 -92.5 -42.5t-35.5 -114.5l-1 8v-294h-120v781h120v-308q23 38 65 62t100 24z" />
    <glyph glyph-name="Hbar" unicode="&#x126;" horiz-adv-x="790" 
d="M690 667h65v-122h-65v-545h-129v325h-332v-325h-129v545h-65v122h65v80h129v-80h332v80h129v-80zM229 446h332v99h-332v-99z" />
    <glyph glyph-name="hbar" unicode="&#x127;" horiz-adv-x="661" 
d="M377 559q46 0 84 -16.5t65.5 -48.5t42.5 -79t15 -108v-307h-120v285q0 77 -33.5 117.5t-89.5 40.5q-57 0 -92.5 -42.5t-35.5 -114.5l-1 8v-294h-120v609h-79v84h79v88h120v-88h150v-84h-150v-136q23 38 65 62t100 24z" />
    <glyph glyph-name="Itilde" unicode="&#x128;" horiz-adv-x="329" 
d="M231 815q-17 0 -32.5 5.5t-38.5 21.5q-20 15 -29 19.5t-18 4.5q-29 0 -33 -47l-69 16q6 60 29.5 89.5t61.5 29.5q15 0 29.5 -5.5t38.5 -22.5q22 -14 31.5 -18.5t17.5 -4.5q25 0 31 46l69 -15q-6 -60 -29.5 -89.5t-58.5 -29.5zM229 0h-129v747h129v-747z" />
    <glyph glyph-name="itilde" unicode="&#x129;" horiz-adv-x="285" 
d="M197 615q-14 0 -27 5t-32 22q-17 15 -24 19.5t-15 4.5q-24 0 -28 -47l-63 18q5 60 26 88.5t55 28.5q13 0 25 -6t32 -22q18 -14 26 -18.5t15 -4.5q20 0 26 46l64 -17q-5 -60 -26.5 -88.5t-53.5 -28.5zM200 0h-120v547h120v-547z" />
    <glyph glyph-name="Imacron" unicode="&#x12a;" horiz-adv-x="329" 
d="M285 838h-242v86h242v-86zM229 0h-129v747h129v-747z" />
    <glyph glyph-name="imacron" unicode="&#x12b;" horiz-adv-x="272" 
d="M237 638h-202v86h202v-86zM194 0h-120v547h120v-547z" />
    <glyph glyph-name="Ibreve" unicode="&#x12c;" horiz-adv-x="329" 
d="M164 812q-69 0 -106.5 39.5t-48.5 108.5l76 18q10 -41 29.5 -58.5t49.5 -17.5t49.5 17.5t29.5 58.5l76 -18q-11 -69 -48.5 -108.5t-106.5 -39.5zM229 0h-129v747h129v-747z" />
    <glyph glyph-name="ibreve" unicode="&#x12d;" horiz-adv-x="280" 
d="M140 612q-69 0 -106.5 39.5t-48.5 108.5l76 18q10 -41 29.5 -58.5t49.5 -17.5t49.5 17.5t29.5 58.5l76 -18q-11 -69 -48.5 -108.5t-106.5 -39.5zM200 0h-120v547h120v-547z" />
    <glyph glyph-name="Iogonek" unicode="&#x12e;" horiz-adv-x="329" 
d="M229 747v-747q-32 -12 -53 -22t-33 -19.5t-17 -18.5t-5 -19q0 -19 17 -30t51 -11h40v-88h-72q-64 0 -96.5 26.5t-32.5 73.5q0 31 18 58t63 50h-9v747h129z" />
    <glyph glyph-name="iogonek" unicode="&#x12f;" horiz-adv-x="272" 
d="M136 612q-35 0 -55.5 22.5t-20.5 54.5t20.5 54t55.5 22t55.5 -22t20.5 -54t-20.5 -54.5t-55.5 -22.5zM196 1l4 -1q-32 -12 -53 -22t-33 -19.5t-17 -18.5t-5 -19q0 -19 17 -30t51 -11h40v-88h-72q-64 0 -96.5 26.5t-32.5 73.5q0 31 18 58t63 50h-4v557q12 -8 26 -12.5
t34 -4.5t34.5 4.5t25.5 12.5v-556z" />
    <glyph glyph-name="Idotaccent" unicode="&#x130;" horiz-adv-x="329" 
d="M165 812q-35 0 -55.5 22.5t-20.5 54.5t20.5 54t55.5 22t55.5 -22t20.5 -54t-20.5 -54.5t-55.5 -22.5zM229 0h-129v757q13 -8 28.5 -12.5t36.5 -4.5q22 0 37 4.5t27 12.5v-757z" />
    <glyph glyph-name="dotlessi" unicode="&#x131;" horiz-adv-x="280" 
d="M200 0h-120v547h120v-547z" />
    <glyph glyph-name="IJ" unicode="&#x132;" horiz-adv-x="965" 
d="M229 0h-129v747h129v-747zM614 -16q-62 0 -110.5 20t-81.5 57t-50.5 90t-17.5 119h129q0 -83 34 -128.5t97 -45.5t97.5 44.5t34.5 129.5v477h129v-476q0 -137 -67.5 -212t-193.5 -75z" />
    <glyph glyph-name="ij" unicode="&#x133;" horiz-adv-x="532" 
d="M391 608q-33 0 -56 23.5t-23 57.5t23 56.5t56 22.5q34 0 57.5 -22.5t23.5 -56.5t-23.5 -57.5t-57.5 -23.5zM136 612q-35 0 -55.5 22.5t-20.5 54.5t20.5 54t55.5 22t55.5 -22t20.5 -54t-20.5 -54.5t-55.5 -22.5zM196 0h-120v557q12 -8 26 -12.5t34 -4.5t34.5 4.5
t25.5 12.5v-557zM222 -220v115h54q30 0 43.5 14.5t13.5 41.5v606q12 -8 26 -12.5t33 -4.5q36 0 61 17v-613q0 -78 -43.5 -121t-121.5 -43h-66z" />
    <glyph glyph-name="Jcircumflex" unicode="&#x134;" horiz-adv-x="646" 
d="M479 986h33l162 -127l-64 -62l-115 90l-114 -90l-64 62zM427 747h129v-476q0 -137 -67.5 -212t-193.5 -75q-62 0 -110.5 20t-81.5 57t-50.5 90t-17.5 119h129q0 -83 34 -128.5t97 -45.5t97.5 44.5t34.5 129.5v477z" />
    <glyph glyph-name="jcircumflex" unicode="&#x135;" horiz-adv-x="288" 
d="M130 808h33l162 -127l-64 -62l-115 90l-114 -90l-64 62zM83 547h120v-603q0 -78 -43.5 -121t-121.5 -43h-68v115h56q30 0 43.5 14.5t13.5 41.5v596z" />
    <glyph glyph-name="uni0136" unicode="&#x136;" horiz-adv-x="721" 
d="M692 746l-357 -348l361 -399h-163l-304 336v-335h-129v747h129v-297l304 296h159zM368 -46q33 0 52.5 -21.5t19.5 -59.5q0 -86 -98 -118l-15 -5l-18 51l15 5q22 8 35.5 13t19.5 18q-4 -1 -14 -1q-27 0 -44 17t-17 41q0 26 17.5 43t46.5 17z" />
    <glyph glyph-name="uni0137" unicode="&#x137;" horiz-adv-x="603" 
d="M566 545l-267 -266l274 -279h-143l-230 228v-228h-120v781h120v-458l224 222h142zM301 -46q33 0 52.5 -21.5t19.5 -59.5q0 -86 -98 -118l-15 -5l-18 51l15 5q22 8 35.5 13t19.5 18q-4 -1 -14 -1q-27 0 -44 17t-17 41q0 26 17.5 43t46.5 17z" />
    <glyph glyph-name="kgreenlandic" unicode="&#x138;" horiz-adv-x="616" 
d="M312 279l274 -279h-143l-243 240v-240h-120v547h120v-236l237 234h142z" />
    <glyph glyph-name="Lacute" unicode="&#x139;" horiz-adv-x="623" 
d="M31 895l246 96l38 -98l-244 -96zM229 747v-625h364v-122h-493v747h129z" />
    <glyph glyph-name="lacute" unicode="&#x13a;" horiz-adv-x="280" 
d="M291 927l-244 -96l-40 98l246 96zM200 0h-120v781h120v-781z" />
    <glyph glyph-name="uni013B" unicode="&#x13b;" horiz-adv-x="623" 
d="M229 747v-625h364v-122h-493v747h129zM347 -46q33 0 52.5 -21.5t19.5 -59.5q0 -86 -98 -118l-15 -5l-18 51l15 5q22 8 35.5 13t19.5 18q-4 -1 -14 -1q-27 0 -44 17t-17 41q0 26 17.5 43t46.5 17z" />
    <glyph glyph-name="uni013C" unicode="&#x13c;" horiz-adv-x="280" 
d="M80 781h120v-781h-120v781zM140 -46q33 0 52.5 -21.5t19.5 -59.5q0 -86 -98 -118l-15 -5l-18 51l15 5q22 8 35.5 13t19.5 18q-4 -1 -14 -1q-27 0 -44 17t-17 41q0 26 17.5 43t46.5 17z" />
    <glyph glyph-name="Lcaron" unicode="&#x13d;" horiz-adv-x="623" 
d="M328 799h93l-19 -181h-74v181zM229 747v-625h364v-122h-493v747h129z" />
    <glyph glyph-name="lcaron" unicode="&#x13e;" horiz-adv-x="280" 
d="M200 0h-120v781h120v-781zM348 583h-74v181h93z" />
    <glyph glyph-name="Ldot" unicode="&#x13f;" horiz-adv-x="623" 
d="M229 747v-625h364v-122h-493v747h129zM479 321q-36 0 -61.5 26t-25.5 62q0 37 25.5 62t61.5 25q37 0 62 -25t25 -62q0 -36 -25 -62t-62 -26z" />
    <glyph glyph-name="ldot" unicode="&#x140;" horiz-adv-x="464" 
d="M200 0h-120v781h120v-781zM369 304q-36 0 -61.5 26t-25.5 62q0 37 25.5 62t61.5 25q37 0 62 -25t25 -62q0 -36 -25 -62t-62 -26z" />
    <glyph glyph-name="Lslash" unicode="&#x141;" horiz-adv-x="623" 
d="M229 354v-232h364v-122h-493v303l-75 -29v116l75 29v328h129v-278l229 89v-115z" />
    <glyph glyph-name="lslash" unicode="&#x142;" horiz-adv-x="304" 
d="M200 490l99 66v-121l-99 -66v-369h-120v290l-45 -30v121l45 30v370h120v-291z" />
    <glyph glyph-name="Nacute" unicode="&#x143;" horiz-adv-x="794" 
d="M510 991l38 -98l-244 -96l-40 98zM565 337v410h129v-747h-129v135l-336 388v-523h-129v747h110z" />
    <glyph glyph-name="nacute" unicode="&#x144;" horiz-adv-x="642" 
d="M439 791l38 -98l-244 -96l-40 98zM365 559q46 0 84 -16.5t65.5 -48.5t42.5 -79t15 -108v-307h-120v285q0 77 -33.5 117.5t-89.5 40.5q-57 0 -93 -42.5t-36 -114.5v-286h-120v547h120v-74q23 38 65 62t100 24z" />
    <glyph glyph-name="uni0145" unicode="&#x145;" horiz-adv-x="794" 
d="M565 337v410h129v-747h-129v135l-336 388v-523h-129v747h110zM397 -46q33 0 52.5 -21.5t19.5 -59.5q0 -86 -98 -118l-15 -5l-18 51l15 5q22 8 35.5 13t19.5 18q-4 -1 -14 -1q-27 0 -44 17t-17 41q0 26 17.5 43t46.5 17z" />
    <glyph glyph-name="uni0146" unicode="&#x146;" horiz-adv-x="642" 
d="M365 559q46 0 84 -16.5t65.5 -48.5t42.5 -79t15 -108v-307h-120v285q0 77 -33.5 117.5t-89.5 40.5q-57 0 -93 -42.5t-36 -114.5v-286h-120v547h120v-74q23 38 65 62t100 24zM326 -46q33 0 52.5 -21.5t19.5 -59.5q0 -86 -98 -118l-15 -5l-18 51l15 5q22 8 35.5 13t19.5 18
q-4 -1 -14 -1q-27 0 -44 17t-17 41q0 26 17.5 43t46.5 17z" />
    <glyph glyph-name="Ncaron" unicode="&#x147;" horiz-adv-x="794" 
d="M578 926l-162 -127h-33l-162 127l64 62l114 -90l115 90zM565 337v410h129v-747h-129v135l-336 388v-523h-129v747h110z" />
    <glyph glyph-name="ncaron" unicode="&#x148;" horiz-adv-x="642" 
d="M507 726l-162 -127h-33l-162 127l64 62l114 -90l115 90zM365 559q46 0 84 -16.5t65.5 -48.5t42.5 -79t15 -108v-307h-120v285q0 77 -33.5 117.5t-89.5 40.5q-57 0 -93 -42.5t-36 -114.5v-286h-120v547h120v-74q23 38 65 62t100 24z" />
    <glyph glyph-name="Eng" unicode="&#x14a;" horiz-adv-x="794" 
d="M565 747h129v-747h-1v-52q0 -78 -43.5 -121t-121.5 -43h-75v118h55q30 0 43 14.5t13 41.5v117h1v60l-336 388v-523h-129v747h110l355 -410v410z" />
    <glyph glyph-name="eng" unicode="&#x14b;" horiz-adv-x="642" 
d="M365 559q46 0 84 -16.5t65.5 -48.5t42.5 -79t15 -108v-355q0 -82 -39.5 -125t-121.5 -43h-82v115h66q30 0 43.5 14.5t13.5 42.5v329q0 77 -33.5 117.5t-89.5 40.5q-57 0 -93 -42.5t-36 -114.5v-286h-120v547h120v-74q23 38 65 62t100 24z" />
    <glyph glyph-name="Omacron" unicode="&#x14c;" horiz-adv-x="831" 
d="M576 838h-322v86h322v-86zM415 -10q-78 0 -143 26t-112 75.5t-73.5 120.5t-26.5 161t26.5 161.5t73.5 121t112 75.5t143 26t143.5 -26t112.5 -75.5t73.5 -121t26.5 -161.5t-26.5 -161t-73.5 -120.5t-112.5 -75.5t-143.5 -26zM415 111q45 0 85.5 17t71 50t48.5 82t18 113
q0 65 -18 114t-48.5 82t-71 49.5t-85.5 16.5t-85.5 -16.5t-70.5 -49.5t-48 -82t-18 -114q0 -64 18 -113t48 -82t70.5 -50t85.5 -17z" />
    <glyph glyph-name="omacron" unicode="&#x14d;" horiz-adv-x="647" 
d="M485 638h-322v86h322v-86zM324 -13q-67 0 -119.5 22t-89 61t-56 91t-19.5 112t19.5 112t56 91t89 61t119.5 22q66 0 118.5 -22t89 -61t56 -91t19.5 -112t-19.5 -112t-56 -91t-89 -61t-118.5 -22zM324 102q36 0 65 12t49.5 34.5t31.5 54t11 70.5t-11 70.5t-31.5 54
t-49.5 34.5t-65 12q-72 0 -115 -46.5t-43 -124.5t43 -124.5t115 -46.5z" />
    <glyph glyph-name="Obreve" unicode="&#x14e;" horiz-adv-x="831" 
d="M415 812q-69 0 -106.5 39.5t-48.5 108.5l76 18q10 -41 29.5 -58.5t49.5 -17.5t49.5 17.5t29.5 58.5l76 -18q-11 -69 -48.5 -108.5t-106.5 -39.5zM415 -10q-78 0 -143 26t-112 75.5t-73.5 120.5t-26.5 161t26.5 161.5t73.5 121t112 75.5t143 26t143.5 -26t112.5 -75.5
t73.5 -121t26.5 -161.5t-26.5 -161t-73.5 -120.5t-112.5 -75.5t-143.5 -26zM415 111q45 0 85.5 17t71 50t48.5 82t18 113q0 65 -18 114t-48.5 82t-71 49.5t-85.5 16.5t-85.5 -16.5t-70.5 -49.5t-48 -82t-18 -114q0 -64 18 -113t48 -82t70.5 -50t85.5 -17z" />
    <glyph glyph-name="obreve" unicode="&#x14f;" horiz-adv-x="647" 
d="M324 612q-69 0 -106.5 39.5t-48.5 108.5l76 18q10 -41 29.5 -58.5t49.5 -17.5t49.5 17.5t29.5 58.5l76 -18q-11 -69 -48.5 -108.5t-106.5 -39.5zM324 -13q-67 0 -119.5 22t-89 61t-56 91t-19.5 112t19.5 112t56 91t89 61t119.5 22q66 0 118.5 -22t89 -61t56 -91
t19.5 -112t-19.5 -112t-56 -91t-89 -61t-118.5 -22zM324 102q36 0 65 12t49.5 34.5t31.5 54t11 70.5t-11 70.5t-31.5 54t-49.5 34.5t-65 12q-72 0 -115 -46.5t-43 -124.5t43 -124.5t115 -46.5z" />
    <glyph glyph-name="Ohungarumlaut" unicode="&#x150;" horiz-adv-x="831" 
d="M449 953l-111 -166l-70 47l107 167zM620 953l-111 -166l-70 47l107 167zM415 -10q-78 0 -143 26t-112 75.5t-73.5 120.5t-26.5 161t26.5 161.5t73.5 121t112 75.5t143 26t143.5 -26t112.5 -75.5t73.5 -121t26.5 -161.5t-26.5 -161t-73.5 -120.5t-112.5 -75.5t-143.5 -26z
M415 111q45 0 85.5 17t71 50t48.5 82t18 113q0 65 -18 114t-48.5 82t-71 49.5t-85.5 16.5t-85.5 -16.5t-70.5 -49.5t-48 -82t-18 -114q0 -64 18 -113t48 -82t70.5 -50t85.5 -17z" />
    <glyph glyph-name="ohungarumlaut" unicode="&#x151;" horiz-adv-x="647" 
d="M358 753l-111 -166l-70 47l107 167zM529 753l-111 -166l-70 47l107 167zM324 -13q-67 0 -119.5 22t-89 61t-56 91t-19.5 112t19.5 112t56 91t89 61t119.5 22q66 0 118.5 -22t89 -61t56 -91t19.5 -112t-19.5 -112t-56 -91t-89 -61t-118.5 -22zM324 102q36 0 65 12
t49.5 34.5t31.5 54t11 70.5t-11 70.5t-31.5 54t-49.5 34.5t-65 12q-72 0 -115 -46.5t-43 -124.5t43 -124.5t115 -46.5z" />
    <glyph glyph-name="OE" unicode="&#x152;" horiz-adv-x="1084" 
d="M631 347v-224h393v-123h-564q-90 0 -164 26.5t-126.5 75.5t-81 117.5t-28.5 153.5t28.5 154t81 118t126.5 75.5t164 26.5h560v-123h-389v-154h274v-123h-274zM502 119v508h-36q-63 0 -113.5 -16.5t-86 -48.5t-54.5 -79.5t-19 -109.5q0 -61 19 -108.5t54.5 -79.5t86 -49
t113.5 -17h36z" />
    <glyph glyph-name="oe" unicode="&#x153;" horiz-adv-x="1097" 
d="M1052 232h-426q8 -59 47.5 -94.5t104.5 -35.5q49 0 81.5 15t49.5 42h130q-26 -75 -94 -122t-168 -47q-74 0 -131 27t-94 77q-36 -49 -93.5 -78t-134.5 -29q-67 0 -119.5 22t-89 61t-56 91t-19.5 112t19.5 112t56 91t89 61t119.5 22q76 0 133.5 -28.5t93.5 -77.5
q37 50 94 77t130 27q63 0 114 -19.5t87 -56t56 -88t20 -115.5v-46zM775 445q-56 0 -95 -33t-51 -82h295q-9 54 -50 84.5t-99 30.5zM324 102q36 0 65 12t49.5 34.5t31.5 54t11 70.5t-11 70.5t-31.5 54t-49.5 34.5t-65 12q-72 0 -115 -46.5t-43 -124.5t43 -124.5t115 -46.5z
" />
    <glyph glyph-name="Racute" unicode="&#x154;" horiz-adv-x="729" 
d="M442 991l38 -98l-244 -96l-40 98zM679 0h-152l-128 221q-8 -1 -16.5 -1h-17.5h-136v-220h-129v747h265q66 0 120 -18t92.5 -52t59.5 -82.5t21 -110.5q0 -78 -34 -135.5t-94 -90.5zM229 342h117q39 0 71.5 8.5t56.5 26.5t37.5 44.5t13.5 62.5t-13.5 62.5t-37.5 44
t-56.5 26t-71.5 8.5h-117v-283z" />
    <glyph glyph-name="racute" unicode="&#x155;" horiz-adv-x="440" 
d="M344 791l38 -98l-244 -96l-40 98zM200 547v-85q26 45 75.5 71t124.5 26v-127h-47q-75 0 -114 -41t-39 -120v-271h-120v547h120z" />
    <glyph glyph-name="uni0156" unicode="&#x156;" horiz-adv-x="729" 
d="M679 0h-152l-128 221q-8 -1 -16.5 -1h-17.5h-136v-220h-129v747h265q66 0 120 -18t92.5 -52t59.5 -82.5t21 -110.5q0 -78 -34 -135.5t-94 -90.5zM229 342h117q39 0 71.5 8.5t56.5 26.5t37.5 44.5t13.5 62.5t-13.5 62.5t-37.5 44t-56.5 26t-71.5 8.5h-117v-283zM357 -46
q33 0 52.5 -21.5t19.5 -59.5q0 -86 -98 -118l-15 -5l-18 51l15 5q22 8 35.5 13t19.5 18q-4 -1 -14 -1q-27 0 -44 17t-17 41q0 26 17.5 43t46.5 17z" />
    <glyph glyph-name="uni0157" unicode="&#x157;" horiz-adv-x="440" 
d="M200 547v-85q26 45 75.5 71t124.5 26v-127h-47q-75 0 -114 -41t-39 -120v-271h-120v547h120zM140 -46q33 0 52.5 -21.5t19.5 -59.5q0 -86 -98 -118l-15 -5l-18 51l15 5q22 8 35.5 13t19.5 18q-4 -1 -14 -1q-27 0 -44 17t-17 41q0 26 17.5 43t46.5 17z" />
    <glyph glyph-name="Rcaron" unicode="&#x158;" horiz-adv-x="729" 
d="M510 926l-162 -127h-33l-162 127l64 62l114 -90l115 90zM679 0h-152l-128 221q-8 -1 -16.5 -1h-17.5h-136v-220h-129v747h265q66 0 120 -18t92.5 -52t59.5 -82.5t21 -110.5q0 -78 -34 -135.5t-94 -90.5zM229 342h117q39 0 71.5 8.5t56.5 26.5t37.5 44.5t13.5 62.5
t-13.5 62.5t-37.5 44t-56.5 26t-71.5 8.5h-117v-283z" />
    <glyph glyph-name="rcaron" unicode="&#x159;" horiz-adv-x="440" 
d="M412 726l-162 -127h-33l-162 127l64 62l114 -90l115 90zM200 547v-85q26 45 75.5 71t124.5 26v-127h-47q-75 0 -114 -41t-39 -120v-271h-120v547h120z" />
    <glyph glyph-name="Sacute" unicode="&#x15a;" horiz-adv-x="709" 
d="M505 893l-244 -96l-40 98l246 96zM359 -10q-70 0 -123.5 17.5t-90.5 49t-56 75.5t-19 97h134q0 -58 41.5 -96.5t114.5 -38.5q72 0 108.5 31.5t36.5 78.5q0 40 -25 63.5t-88 38.5l-93 22q-59 14 -99.5 35t-66 48.5t-36.5 62t-11 75.5q0 45 17.5 83t52 66t84.5 43.5
t114 15.5q66 0 116 -16.5t84.5 -45.5t52 -70t17.5 -90h-134q0 47 -35.5 77.5t-102.5 30.5q-61 0 -96 -27t-35 -65t24 -62t84 -40l97 -25q55 -14 95 -33.5t66.5 -45.5t39 -60.5t12.5 -78.5q0 -47 -17.5 -86.5t-52.5 -68.5t-87.5 -45t-122.5 -16z" />
    <glyph glyph-name="sacute" unicode="&#x15b;" horiz-adv-x="549" 
d="M419 693l-244 -96l-40 98l246 96zM282 -13q-60 0 -104.5 14.5t-74 39t-44 58.5t-14.5 73h124q2 -35 29.5 -56t90.5 -21q46 0 68 16.5t22 40.5q0 28 -18.5 43t-66.5 24l-84 16q-42 8 -70.5 23.5t-46.5 36.5t-26 47.5t-8 55.5q0 34 13.5 63.5t40.5 51t67 34t92 12.5
q51 0 92 -14t69.5 -38t43.5 -57t15 -71h-126q-1 30 -25.5 51t-69.5 21t-65.5 -15t-20.5 -38q0 -12 3 -21t11 -16t23.5 -12.5t39.5 -10.5l77 -15q46 -9 77.5 -25t51 -38t28 -48.5t8.5 -56.5q0 -78 -58.5 -123t-163.5 -45z" />
    <glyph glyph-name="Scircumflex" unicode="&#x15c;" horiz-adv-x="709" 
d="M472 797l-115 90l-114 -90l-64 62l162 127h33l162 -127zM426 424q55 -14 95 -33.5t66.5 -45.5t39 -60.5t12.5 -78.5q0 -47 -17.5 -86.5t-52.5 -68.5t-87.5 -45t-122.5 -16t-123.5 17.5t-90.5 49t-56 75.5t-19 97h134q0 -58 41.5 -96.5t114.5 -38.5q72 0 108.5 31.5
t36.5 78.5q0 40 -25 63.5t-88 38.5l-93 22q-59 14 -99.5 35t-66 48.5t-36.5 62t-11 75.5q0 45 17.5 83t52 66t84.5 43.5t114 15.5q66 0 116 -16.5t84.5 -45.5t52 -70t17.5 -90h-134q0 47 -35.5 77.5t-102.5 30.5q-61 0 -96 -27t-35 -65t24 -62t84 -40z" />
    <glyph glyph-name="scircumflex" unicode="&#x15d;" horiz-adv-x="549" 
d="M386 597l-115 90l-114 -90l-64 62l162 127h33l162 -127zM339 323q46 -9 77.5 -25t51 -38t28 -48.5t8.5 -56.5q0 -78 -58.5 -123t-163.5 -45q-60 0 -104.5 14.5t-74 39t-44 58.5t-14.5 73h124q2 -35 29.5 -56t90.5 -21q46 0 68 16.5t22 40.5q0 28 -18.5 43t-66.5 24
l-84 16q-42 8 -70.5 23.5t-46.5 36.5t-26 47.5t-8 55.5q0 34 13.5 63.5t40.5 51t67 34t92 12.5q51 0 92 -14t69.5 -38t43.5 -57t15 -71h-126q-1 30 -25.5 51t-69.5 21t-65.5 -15t-20.5 -38q0 -12 3 -21t11 -16t23.5 -12.5t39.5 -10.5z" />
    <glyph glyph-name="Scedilla" unicode="&#x15e;" horiz-adv-x="709" 
d="M639 206q0 -44 -15.5 -82t-46.5 -66t-77.5 -45.5t-108.5 -21.5l-10 -31q56 -1 87 -28t31 -75q0 -51 -39.5 -79t-105.5 -28h-84v64h63q36 0 52.5 12t16.5 33q0 20 -15 31.5t-50 11.5h-53l33 90q-121 11 -184 74.5t-63 162.5h134q0 -58 41.5 -96.5t114.5 -38.5
q72 0 108.5 31.5t36.5 78.5q0 40 -25 63.5t-88 38.5l-93 22q-59 14 -99.5 35t-66 48.5t-36.5 62t-11 75.5q0 45 17.5 83t52 66t84.5 43.5t114 15.5q66 0 116 -16.5t84.5 -45.5t52 -70t17.5 -90h-134q0 47 -35.5 77.5t-102.5 30.5q-61 0 -96 -27t-35 -65t24 -62t84 -40
l97 -25q55 -14 95 -33.5t66.5 -45.5t39 -60.5t12.5 -78.5z" />
    <glyph glyph-name="scedilla" unicode="&#x15f;" horiz-adv-x="549" 
d="M504 155q0 -72 -50.5 -116t-141.5 -51l-9 -28q56 -1 87 -28t31 -75q0 -51 -39.5 -79t-105.5 -28h-84v64h63q36 0 52.5 12t16.5 33q0 20 -15 31.5t-50 11.5h-53l32 87q-98 11 -145.5 61.5t-47.5 121.5h124q2 -35 29.5 -56t90.5 -21q46 0 68 16.5t22 40.5q0 28 -18.5 43
t-66.5 24l-84 16q-42 8 -70.5 23.5t-46.5 36.5t-26 47.5t-8 55.5q0 34 13.5 63.5t40.5 51t67 34t92 12.5q51 0 92 -14t69.5 -38t43.5 -57t15 -71h-126q-1 30 -25.5 51t-69.5 21t-65.5 -15t-20.5 -38q0 -12 3 -21t11 -16t23.5 -12.5t39.5 -10.5l77 -15q46 -9 77.5 -25t51 -38
t28 -48.5t8.5 -56.5z" />
    <glyph glyph-name="Scaron" unicode="&#x160;" horiz-adv-x="709" 
d="M535 926l-162 -127h-33l-162 127l64 62l114 -90l115 90zM426 424q55 -14 95 -33.5t66.5 -45.5t39 -60.5t12.5 -78.5q0 -47 -17.5 -86.5t-52.5 -68.5t-87.5 -45t-122.5 -16t-123.5 17.5t-90.5 49t-56 75.5t-19 97h134q0 -58 41.5 -96.5t114.5 -38.5q72 0 108.5 31.5
t36.5 78.5q0 40 -25 63.5t-88 38.5l-93 22q-59 14 -99.5 35t-66 48.5t-36.5 62t-11 75.5q0 45 17.5 83t52 66t84.5 43.5t114 15.5q66 0 116 -16.5t84.5 -45.5t52 -70t17.5 -90h-134q0 47 -35.5 77.5t-102.5 30.5q-61 0 -96 -27t-35 -65t24 -62t84 -40z" />
    <glyph glyph-name="scaron" unicode="&#x161;" horiz-adv-x="549" 
d="M449 726l-162 -127h-33l-162 127l64 62l114 -90l115 90zM339 323q46 -9 77.5 -25t51 -38t28 -48.5t8.5 -56.5q0 -78 -58.5 -123t-163.5 -45q-60 0 -104.5 14.5t-74 39t-44 58.5t-14.5 73h124q2 -35 29.5 -56t90.5 -21q46 0 68 16.5t22 40.5q0 28 -18.5 43t-66.5 24
l-84 16q-42 8 -70.5 23.5t-46.5 36.5t-26 47.5t-8 55.5q0 34 13.5 63.5t40.5 51t67 34t92 12.5q51 0 92 -14t69.5 -38t43.5 -57t15 -71h-126q-1 30 -25.5 51t-69.5 21t-65.5 -15t-20.5 -38q0 -12 3 -21t11 -16t23.5 -12.5t39.5 -10.5z" />
    <glyph glyph-name="uni0162" unicode="&#x162;" horiz-adv-x="660" 
d="M394 625v-625h-31l-13 -40q56 -1 87 -28t31 -75q0 -51 -39.5 -79t-105.5 -28h-84v64h63q36 0 52.5 12t16.5 33q0 20 -15 31.5t-50 11.5h-53l35 98h-23v625h-235v122h600v-122h-236z" />
    <glyph glyph-name="uni0163" unicode="&#x163;" horiz-adv-x="428" 
d="M267 445v-445h-22l-13 -40q56 -1 87 -28t31 -75q0 -51 -39.5 -79t-105.5 -28h-84v64h63q36 0 52.5 12t16.5 33q0 20 -15 31.5t-50 11.5h-53l35 98h-23v445h-107v102h107v174h120v-174h121v-102h-121z" />
    <glyph glyph-name="Tcaron" unicode="&#x164;" horiz-adv-x="660" 
d="M510 926l-162 -127h-33l-162 127l64 62l114 -90l115 90zM30 747h600v-122h-236v-625h-129v625h-235v122z" />
    <glyph glyph-name="tcaron" unicode="&#x165;" horiz-adv-x="428" 
d="M339 583v181h93l-19 -181h-74zM147 721h120v-174h121v-102h-121v-445h-120v445h-107v102h107v174z" />
    <glyph glyph-name="Tbar" unicode="&#x166;" horiz-adv-x="660" 
d="M630 747v-122h-236v-192h144v-104h-144v-329h-129v329h-144v104h144v192h-235v122h600z" />
    <glyph glyph-name="tbar" unicode="&#x167;" horiz-adv-x="428" 
d="M388 547v-102h-121v-121h114v-102h-114v-222h-120v222h-94v102h94v121h-107v102h107v174h120v-174h121z" />
    <glyph glyph-name="Utilde" unicode="&#x168;" horiz-adv-x="748" 
d="M456 815q-20 0 -38.5 5.5t-46.5 21.5q-25 15 -35 19.5t-21 4.5q-34 0 -40 -47l-83 16q8 60 36 89.5t73 29.5q18 0 35.5 -5.5t46.5 -22.5q26 -14 37.5 -18.5t21.5 -4.5q30 0 37 46l83 -15q-8 -60 -36 -89.5t-70 -29.5zM374 -10q-142 0 -213 81.5t-71 231.5v444h129v-442
q0 -50 12 -86.5t33 -60.5t50 -35.5t62 -11.5t62 11.5t50 35.5t33 60.5t12 86.5v442h125v-444q0 -150 -71.5 -231.5t-212.5 -81.5z" />
    <glyph glyph-name="utilde" unicode="&#x169;" horiz-adv-x="626" 
d="M247 666q-34 0 -40 -47l-83 16q8 60 36 89.5t73 29.5q18 0 35.5 -5.5t46.5 -22.5q26 -14 37.5 -18.5t21.5 -4.5q30 0 37 46l83 -15q-8 -60 -36 -89.5t-70 -29.5q-20 0 -38.5 5.5t-46.5 21.5q-25 15 -35 19.5t-21 4.5zM426 547h120v-547h-120v70q-23 -36 -62.5 -59.5
t-94.5 -23.5q-44 0 -80.5 16.5t-63 49t-41 79.5t-14.5 108v307h120v-285q0 -77 31.5 -117.5t84.5 -40.5q48 0 81.5 36t38.5 98v309z" />
    <glyph glyph-name="Umacron" unicode="&#x16a;" horiz-adv-x="748" 
d="M537 838h-322v86h322v-86zM374 -10q-142 0 -213 81.5t-71 231.5v444h129v-442q0 -50 12 -86.5t33 -60.5t50 -35.5t62 -11.5t62 11.5t50 35.5t33 60.5t12 86.5v442h125v-444q0 -150 -71.5 -231.5t-212.5 -81.5z" />
    <glyph glyph-name="umacron" unicode="&#x16b;" horiz-adv-x="626" 
d="M147 724h322v-86h-322v86zM426 547h120v-547h-120v70q-23 -36 -62.5 -59.5t-94.5 -23.5q-44 0 -80.5 16.5t-63 49t-41 79.5t-14.5 108v307h120v-285q0 -77 31.5 -117.5t84.5 -40.5q48 0 81.5 36t38.5 98v309z" />
    <glyph glyph-name="Ubreve" unicode="&#x16c;" horiz-adv-x="748" 
d="M376 812q-69 0 -106.5 39.5t-48.5 108.5l76 18q10 -41 29.5 -58.5t49.5 -17.5t49.5 17.5t29.5 58.5l76 -18q-11 -69 -48.5 -108.5t-106.5 -39.5zM374 -10q-142 0 -213 81.5t-71 231.5v444h129v-442q0 -50 12 -86.5t33 -60.5t50 -35.5t62 -11.5t62 11.5t50 35.5t33 60.5
t12 86.5v442h125v-444q0 -150 -71.5 -231.5t-212.5 -81.5z" />
    <glyph glyph-name="ubreve" unicode="&#x16d;" horiz-adv-x="626" 
d="M308 612q-69 0 -106.5 39.5t-48.5 108.5l76 18q10 -41 29.5 -58.5t49.5 -17.5t49.5 17.5t29.5 58.5l76 -18q-11 -69 -48.5 -108.5t-106.5 -39.5zM426 547h120v-547h-120v70q-23 -36 -62.5 -59.5t-94.5 -23.5q-44 0 -80.5 16.5t-63 49t-41 79.5t-14.5 108v307h120v-285
q0 -77 31.5 -117.5t84.5 -40.5q48 0 81.5 36t38.5 98v309z" />
    <glyph glyph-name="Uring" unicode="&#x16e;" horiz-adv-x="748" 
d="M376 795q-26 0 -48.5 9.5t-39 26t-25.5 38.5t-9 48q0 25 9 47t25.5 38t39 25.5t48.5 9.5q27 0 49.5 -9.5t38 -25.5t24.5 -38t9 -47q0 -26 -9 -48t-24.5 -38.5t-38 -26t-49.5 -9.5zM376 868q20 0 33.5 14.5t13.5 34.5t-13.5 33.5t-33.5 13.5t-34 -13.5t-14 -33.5t14 -34.5
t34 -14.5zM374 -10q-142 0 -213 81.5t-71 231.5v444h129v-442q0 -50 12 -86.5t33 -60.5t50 -35.5t62 -11.5t62 11.5t50 35.5t33 60.5t12 86.5v442h125v-444q0 -150 -71.5 -231.5t-212.5 -81.5z" />
    <glyph glyph-name="uring" unicode="&#x16f;" horiz-adv-x="626" 
d="M308 595q-26 0 -48.5 9.5t-39 26t-25.5 38.5t-9 48q0 25 9 47t25.5 38t39 25.5t48.5 9.5q27 0 49.5 -9.5t38 -25.5t24.5 -38t9 -47q0 -26 -9 -48t-24.5 -38.5t-38 -26t-49.5 -9.5zM308 764q-20 0 -34 -13.5t-14 -33.5t14 -34.5t34 -14.5t33.5 14.5t13.5 34.5t-13.5 33.5
t-33.5 13.5zM426 547h120v-547h-120v70q-23 -36 -62.5 -59.5t-94.5 -23.5q-44 0 -80.5 16.5t-63 49t-41 79.5t-14.5 108v307h120v-285q0 -77 31.5 -117.5t84.5 -40.5q48 0 81.5 36t38.5 98v309z" />
    <glyph glyph-name="Uhungarumlaut" unicode="&#x170;" horiz-adv-x="748" 
d="M410 953l-111 -166l-70 47l107 167zM581 953l-111 -166l-70 47l107 167zM374 -10q-142 0 -213 81.5t-71 231.5v444h129v-442q0 -50 12 -86.5t33 -60.5t50 -35.5t62 -11.5t62 11.5t50 35.5t33 60.5t12 86.5v442h125v-444q0 -150 -71.5 -231.5t-212.5 -81.5z" />
    <glyph glyph-name="uhungarumlaut" unicode="&#x171;" horiz-adv-x="626" 
d="M268 801l74 -48l-111 -166l-70 47zM513 753l-111 -166l-70 47l107 167zM426 547h120v-547h-120v70q-23 -36 -62.5 -59.5t-94.5 -23.5q-44 0 -80.5 16.5t-63 49t-41 79.5t-14.5 108v307h120v-285q0 -77 31.5 -117.5t84.5 -40.5q48 0 81.5 36t38.5 98v309z" />
    <glyph glyph-name="Uogonek" unicode="&#x172;" horiz-adv-x="748" 
d="M533 747h125v-444q0 -125 -49.5 -202.5t-147.5 -100.5q-32 -12 -52.5 -22t-32.5 -19.5t-17 -18.5t-5 -19q0 -19 17 -30t51 -11h40v-88h-72q-64 0 -96.5 26.5t-32.5 73.5q0 29 15 53.5t52 46.5q-119 14 -178.5 94t-59.5 217v444h129v-442q0 -50 12 -86.5t33 -60.5
t50 -35.5t62 -11.5t62 11.5t50 35.5t33 60.5t12 86.5v442z" />
    <glyph glyph-name="uogonek" unicode="&#x173;" horiz-adv-x="626" 
d="M546 547v-547q-32 -12 -53 -22t-33 -19.5t-17 -18.5t-5 -19q0 -19 17 -30t51 -11h40v-88h-72q-64 0 -96.5 26.5t-32.5 73.5q0 31 18 58t63 50v70q-23 -36 -62.5 -59.5t-94.5 -23.5q-44 0 -80.5 16.5t-63 49t-41 79.5t-14.5 108v307h120v-285q0 -77 31.5 -117.5
t84.5 -40.5q48 0 81.5 36t38.5 98v309h120z" />
    <glyph glyph-name="Wcircumflex" unicode="&#x174;" horiz-adv-x="1072" 
d="M656 797l-115 90l-114 -90l-64 62l162 127h33l162 -127zM772 221l157 526h133l-223 -747h-135l-173 564l-178 -564h-126l-217 747h138l151 -526l165 526h148z" />
    <glyph glyph-name="wcircumflex" unicode="&#x175;" horiz-adv-x="853" 
d="M546 597l-115 90l-114 -90l-64 62l162 127h33l162 -127zM608 157l120 390h115l-167 -547h-119l-132 390l-132 -390h-116l-167 547h117l120 -390l128 390h105z" />
    <glyph glyph-name="Ycircumflex" unicode="&#x176;" horiz-adv-x="674" 
d="M455 797l-115 90l-114 -90l-64 62l162 127h33l162 -127zM529 747h135l-263 -484v-263h-128v262l-263 485h139l190 -348z" />
    <glyph glyph-name="ycircumflex" unicode="&#x177;" horiz-adv-x="579" 
d="M408 597l-115 90l-114 -90l-64 62l162 127h33l162 -127zM288 169l159 378h117l-305 -728h-117l85 203l-212 525h121z" />
    <glyph glyph-name="Ydieresis" unicode="&#x178;" horiz-adv-x="674" 
d="M248 820q-29 0 -49 20t-20 49q0 28 20 47.5t49 19.5q28 0 48 -19.5t20 -47.5q0 -29 -20 -49t-48 -20zM424 820q-29 0 -48.5 20t-19.5 49q0 28 19.5 47.5t48.5 19.5q28 0 48 -19.5t20 -47.5q0 -29 -20 -49t-48 -20zM529 747h135l-263 -484v-263h-128v262l-263 485h139
l190 -348z" />
    <glyph glyph-name="Zacute" unicode="&#x179;" horiz-adv-x="743" 
d="M485 991l38 -98l-244 -96l-40 98zM654 628l-415 -511h429v-117h-593v118l414 511h-399v118h564v-119z" />
    <glyph glyph-name="zacute" unicode="&#x17a;" horiz-adv-x="559" 
d="M393 791l38 -98l-244 -96l-40 98zM498 445l-307 -343h313v-102h-449v102h1l303 343h-299v102h439v-102h-1z" />
    <glyph glyph-name="Zdotaccent" unicode="&#x17b;" horiz-adv-x="743" 
d="M372 816q-32 0 -53.5 22t-21.5 53t21.5 52.5t53.5 21.5q31 0 53 -21.5t22 -52.5t-22 -53t-53 -22zM654 628l-415 -511h429v-117h-593v118l414 511h-399v118h564v-119z" />
    <glyph glyph-name="zdotaccent" unicode="&#x17c;" horiz-adv-x="559" 
d="M280 616q-32 0 -53.5 22t-21.5 53t21.5 52.5t53.5 21.5q31 0 53 -21.5t22 -52.5t-22 -53t-53 -22zM498 445l-307 -343h313v-102h-449v102h1l303 343h-299v102h439v-102h-1z" />
    <glyph glyph-name="Zcaron" unicode="&#x17d;" horiz-adv-x="743" 
d="M553 926l-162 -127h-33l-162 127l64 62l114 -90l115 90zM654 628l-415 -511h429v-117h-593v118l414 511h-399v118h564v-119z" />
    <glyph glyph-name="zcaron" unicode="&#x17e;" horiz-adv-x="559" 
d="M461 726l-162 -127h-33l-162 127l64 62l114 -90l115 90zM498 445l-307 -343h313v-102h-449v102h1l303 343h-299v102h439v-102h-1z" />
    <glyph glyph-name="uni018F" unicode="&#x18f;" horiz-adv-x="858" 
d="M428 771q83 0 151 -28.5t117 -80.5t75.5 -126t26.5 -164t-26.5 -163t-75 -125t-116.5 -80t-152 -28q-83 0 -151 27.5t-116 78.5t-74.5 123t-26.5 162v44h596q-2 113 -63 177.5t-167 64.5q-75 0 -127.5 -31.5t-75.5 -88.5h-144q18 52 49.5 95.5t76 75t101 49.5t122.5 18z
M431 94q45 0 84 14.5t68 41t48 63.5t23 82h-448q5 -47 24 -84.5t48.5 -63.5t68.5 -39.5t84 -13.5z" />
    <glyph glyph-name="uni019D" unicode="&#x19d;" horiz-adv-x="794" 
d="M565 337v410h129v-747h-129v135l-336 388v-575q0 -78 -43.5 -121t-121.5 -43h-74v118h53q30 0 43.5 14.5t13.5 41.5v789h110z" />
    <glyph glyph-name="Gcaron" unicode="&#x1e6;" horiz-adv-x="822" 
d="M597 926l-162 -127h-33l-162 127l64 62l114 -90l115 90zM414 293v112h348v-68q0 -79 -25.5 -143.5t-71.5 -109.5t-110 -69.5t-141 -24.5t-142 27t-112 76.5t-73.5 120.5t-26.5 159q0 89 26 160t73 120.5t112 76.5t143 27q69 0 125 -18t98 -50t70.5 -75.5t42.5 -94.5h-143
q-21 50 -70 83t-121 33q-48 0 -88.5 -17t-70.5 -50.5t-46.5 -82.5t-16.5 -112t17 -112t47 -82.5t71.5 -50.5t89.5 -17q43 0 80 16t65 41.5t46 58.5t22 66h-218z" />
    <glyph glyph-name="gcaron" unicode="&#x1e7;" horiz-adv-x="665" 
d="M504 726l-162 -127h-33l-162 127l64 62l114 -90l115 90zM475 547h120v-588q0 -85 -47.5 -132t-133.5 -47h-264v103h246q79 0 79 77v132q-29 -42 -75 -66t-111 -24q-55 0 -101 19t-79 55.5t-51 88.5t-18 118q0 65 18 116.5t51 87t79 54t101 18.5q65 0 111 -23.5t75 -65.5
v77zM321 111q71 0 112.5 47t41.5 128q0 78 -41.5 123.5t-112.5 45.5q-34 0 -62.5 -12t-49 -34t-32 -53.5t-11.5 -69.5q0 -40 11.5 -72t32 -55t49 -35.5t62.5 -12.5z" />
    <glyph glyph-name="uni01EA" unicode="&#x1ea;" horiz-adv-x="831" 
d="M521 4q-32 -12 -52.5 -22t-32.5 -19.5t-17 -18.5t-5 -19q0 -19 17 -30t51 -11h40v-88h-72q-64 0 -96.5 26.5t-32.5 73.5q0 27 13.5 51t45.5 44q-70 6 -129 34.5t-101.5 77.5t-66 117t-23.5 153q0 90 26.5 161.5t73.5 121t112 75.5t143 26t143.5 -26t112.5 -75.5
t73.5 -121t26.5 -161.5q0 -74 -18 -135t-51 -108t-79 -79t-102 -47zM193 373q0 -64 18 -113t48 -82t70.5 -50t85.5 -17t85.5 17t71 50t48.5 82t18 113q0 65 -18 114t-48.5 82t-71 49.5t-85.5 16.5t-85.5 -16.5t-70.5 -49.5t-48 -82t-18 -114z" />
    <glyph glyph-name="uni01EB" unicode="&#x1eb;" horiz-adv-x="647" 
d="M607 273q0 -49 -13 -92.5t-37 -79t-59.5 -61.5t-80.5 -40q-32 -12 -53 -22t-33 -19.5t-17 -18.5t-5 -19q0 -19 17 -30t51 -11h40v-88h-72q-64 0 -96.5 26.5t-32.5 73.5q0 28 14 52t49 46q-57 7 -101 31.5t-75 62t-47 86t-16 103.5q0 60 19.5 112t56 91t89 61t119.5 22
q66 0 118.5 -22t89 -61t56 -91t19.5 -112zM324 102q36 0 65 12t49.5 34.5t31.5 54t11 70.5t-11 70.5t-31.5 54t-49.5 34.5t-65 12q-72 0 -115 -46.5t-43 -124.5t43 -124.5t115 -46.5z" />
    <glyph glyph-name="Aringacute" unicode="&#x1fa;" horiz-adv-x="754" 
d="M471 1161l38 -98l-244 -96l-40 98zM739 0h-134l-56 149h-348l-56 -149h-130l287 740q-21 17 -33.5 42t-12.5 55q0 25 9 47t25.5 38t39 25.5t48.5 9.5q27 0 49.5 -9.5t38 -25.5t24.5 -38t9 -47q0 -31 -12 -56t-34 -42zM378 884q-20 0 -34 -13.5t-14 -33.5t14 -34.5
t34 -14.5t33.5 14.5t13.5 34.5t-13.5 33.5t-33.5 13.5zM375 614l-128 -342h256z" />
    <glyph glyph-name="aringacute" unicode="&#x1fb;" horiz-adv-x="629" 
d="M413 1037l38 -98l-244 -96l-40 98zM198 717q0 25 9 47t25.5 38t39 25.5t48.5 9.5q27 0 49.5 -9.5t38 -25.5t24.5 -38t9 -47q0 -26 -9 -48t-24.5 -38.5t-38 -26t-49.5 -9.5q-26 0 -48.5 9.5t-39 26t-25.5 38.5t-9 48zM367 717q0 20 -13.5 33.5t-33.5 13.5t-34 -13.5
t-14 -33.5t14 -34.5t34 -14.5t33.5 14.5t13.5 34.5zM320 557q115 0 177 -62t62 -175v-320h-120v72q-30 -38 -79 -60t-116 -22q-85 0 -134.5 41t-49.5 111q0 32 11 61t35 52t62.5 40t92.5 25l178 27q-2 48 -32.5 73t-86.5 25q-55 0 -82.5 -20t-32.5 -55h-123q2 37 18 71
t46 59.5t73.5 41t100.5 15.5zM266 104q38 0 69.5 9.5t54.5 27t36 41.5t13 52v14l-150 -23q-32 -5 -52.5 -12.5t-32.5 -17t-16.5 -21t-4.5 -23.5q0 -20 20.5 -33.5t62.5 -13.5z" />
    <glyph glyph-name="AEacute" unicode="&#x1fc;" horiz-adv-x="1115" 
d="M690 991l38 -98l-244 -96l-40 98zM648 358l51 -236h374v-122h-491l-26 129h-333l-65 -129h-143l373 747h582v-122h-380l32 -145h266v-122h-240zM460 603l-176 -352h247z" />
    <glyph glyph-name="aeacute" unicode="&#x1fd;" horiz-adv-x="1032" 
d="M631 791l38 -98l-244 -96l-40 98zM987 226h-425q9 -57 50 -90.5t106 -33.5q47 0 80 15t48 42h128q-26 -75 -91.5 -122t-161.5 -47q-78 0 -137 28.5t-91 86.5q-32 -52 -92.5 -83.5t-144.5 -31.5q-95 0 -145.5 42.5t-50.5 117.5q0 66 48 109.5t148 54.5l193 21v4
q0 48 -35 77t-95 29q-56 0 -82.5 -21.5t-33.5 -53.5h-121q2 39 18 73t45.5 59.5t72.5 40t99 14.5q72 0 122 -24t79 -69q35 45 86 69t115 24q60 0 109.5 -19.5t84.5 -56t54.5 -88t19.5 -115.5v-52zM715 445q-58 0 -99 -32.5t-52 -83.5h295q-9 55 -48 85.5t-96 30.5zM266 104
q34 0 65 8.5t55 24.5t40.5 39.5t20.5 54.5l-141 -15q-72 -7 -97.5 -22t-25.5 -42q0 -19 18 -33.5t65 -14.5z" />
    <glyph glyph-name="Oslashacute" unicode="&#x1fe;" horiz-adv-x="811" 
d="M518 991l38 -98l-244 -96l-40 98zM667 757l84 -81l-59 -67q29 -45 44 -104t15 -132q0 -94 -25.5 -165.5t-71.5 -120t-109.5 -73t-139.5 -24.5q-121 0 -207 62l-54 -62l-84 81l59 67q-29 45 -44 104t-15 131q0 94 25.5 166t71.5 120.5t109.5 73t138.5 24.5q122 0 207 -62z
M183 373q0 -40 6.5 -74t17.5 -62l326 368q-27 21 -60 31t-68 10q-45 0 -85.5 -17t-71 -50.5t-48 -85t-17.5 -120.5zM628 373q0 41 -6.5 74.5t-17.5 62.5l-326 -369q27 -20 59.5 -30t67.5 -10q46 0 86.5 17t71 50.5t48 84.5t17.5 120z" />
    <glyph glyph-name="oslashacute" unicode="&#x1ff;" horiz-adv-x="647" 
d="M431 791l38 -98l-244 -96l-40 98zM598 483l-40 -40q49 -72 49 -170q0 -60 -19.5 -112t-56 -91t-89 -61t-118.5 -22q-52 0 -95 13.5t-77 37.5l-39 -39l-66 63l42 41q-49 74 -49 170q0 60 19.5 112t56 91t89 61t119.5 22q51 0 93.5 -13.5t76.5 -36.5l38 37zM166 273
q0 -44 14 -78l228 227q-38 22 -84 22q-72 0 -115 -46.5t-43 -124.5zM324 102q36 0 65 12t49.5 34.5t31.5 54t11 70.5q0 43 -14 79l-228 -228q36 -22 85 -22z" />
    <glyph glyph-name="uni0218" unicode="&#x218;" horiz-adv-x="709" 
d="M426 424q55 -14 95 -33.5t66.5 -45.5t39 -60.5t12.5 -78.5q0 -47 -17.5 -86.5t-52.5 -68.5t-87.5 -45t-122.5 -16t-123.5 17.5t-90.5 49t-56 75.5t-19 97h134q0 -58 41.5 -96.5t114.5 -38.5q72 0 108.5 31.5t36.5 78.5q0 40 -25 63.5t-88 38.5l-93 22q-59 14 -99.5 35
t-66 48.5t-36.5 62t-11 75.5q0 45 17.5 83t52 66t84.5 43.5t114 15.5q66 0 116 -16.5t84.5 -45.5t52 -70t17.5 -90h-134q0 47 -35.5 77.5t-102.5 30.5q-61 0 -96 -27t-35 -65t24 -62t84 -40zM360 -46q33 0 52.5 -21.5t19.5 -59.5q0 -86 -98 -118l-15 -5l-18 51l15 5
q22 8 35.5 13t19.5 18q-4 -1 -14 -1q-27 0 -44 17t-17 41q0 26 17.5 43t46.5 17z" />
    <glyph glyph-name="uni0219" unicode="&#x219;" horiz-adv-x="549" 
d="M339 323q46 -9 77.5 -25t51 -38t28 -48.5t8.5 -56.5q0 -78 -58.5 -123t-163.5 -45q-60 0 -104.5 14.5t-74 39t-44 58.5t-14.5 73h124q2 -35 29.5 -56t90.5 -21q46 0 68 16.5t22 40.5q0 28 -18.5 43t-66.5 24l-84 16q-42 8 -70.5 23.5t-46.5 36.5t-26 47.5t-8 55.5
q0 34 13.5 63.5t40.5 51t67 34t92 12.5q51 0 92 -14t69.5 -38t43.5 -57t15 -71h-126q-1 30 -25.5 51t-69.5 21t-65.5 -15t-20.5 -38q0 -12 3 -21t11 -16t23.5 -12.5t39.5 -10.5zM282 -46q33 0 52.5 -21.5t19.5 -59.5q0 -86 -98 -118l-15 -5l-18 51l15 5q22 8 35.5 13
t19.5 18q-4 -1 -14 -1q-27 0 -44 17t-17 41q0 26 17.5 43t46.5 17z" />
    <glyph glyph-name="uni021A" unicode="&#x21a;" horiz-adv-x="660" 
d="M30 625v122h600v-122h-236v-625h-129v625h-235zM329 -46q33 0 52.5 -21.5t19.5 -59.5q0 -86 -98 -118l-15 -5l-18 51l15 5q22 8 35.5 13t19.5 18q-4 -1 -14 -1q-27 0 -44 17t-17 41q0 26 17.5 43t46.5 17z" />
    <glyph glyph-name="uni021B" unicode="&#x21b;" horiz-adv-x="428" 
d="M267 721v-174h121v-102h-121v-445h-120v445h-107v102h107v174h120zM211 -46q33 0 52.5 -21.5t19.5 -59.5q0 -86 -98 -118l-15 -5l-18 51l15 5q22 8 35.5 13t19.5 18q-4 -1 -14 -1q-27 0 -44 17t-17 41q0 26 17.5 43t46.5 17z" />
    <glyph glyph-name="uni0232" unicode="&#x232;" horiz-adv-x="674" 
d="M176 924h322v-86h-322v86zM529 747h135l-263 -484v-263h-128v262l-263 485h139l190 -348z" />
    <glyph glyph-name="uni0233" unicode="&#x233;" horiz-adv-x="579" 
d="M129 724h322v-86h-322v86zM288 169l159 378h117l-305 -728h-117l85 203l-212 525h121z" />
    <glyph glyph-name="uni0237" unicode="&#x237;" horiz-adv-x="288" 
d="M-30 -220v115h56q30 0 43.5 14.5t13.5 41.5v596h120v-603q0 -78 -43.5 -121t-121.5 -43h-68z" />
    <glyph glyph-name="uni0259" unicode="&#x259;" horiz-adv-x="639" 
d="M320 557q63 0 114 -20t88 -57.5t57 -89.5t20 -117q0 -64 -20 -116.5t-56.5 -89.5t-87.5 -57t-113 -20q-63 0 -114 19.5t-87 56t-56 88t-20 115.5v46h426q-8 59 -47.5 94.5t-104.5 35.5q-49 0 -81.5 -15t-49.5 -42h-130q26 75 94 122t168 47zM322 102q56 0 95 33t51 82
h-295q9 -54 50 -84.5t99 -30.5z" />
    <glyph glyph-name="uni0272" unicode="&#x272;" horiz-adv-x="642" 
d="M365 559q46 0 84 -16.5t65.5 -48.5t42.5 -79t15 -108v-307h-120v285q0 77 -33.5 117.5t-89.5 40.5q-57 0 -93 -42.5t-36 -114.5v-334q0 -82 -40 -125t-121 -43h-39v115h23q30 0 43.5 14.5t13.5 42.5v591h120v-74q23 38 65 62t100 24z" />
    <glyph glyph-name="circumflex" unicode="&#x2c6;" horiz-adv-x="357" 
d="M195 786l162 -127l-64 -62l-115 90l-114 -90l-64 62l162 127h33z" />
    <glyph glyph-name="caron" unicode="&#x2c7;" horiz-adv-x="357" 
d="M178 698l115 90l64 -62l-162 -127h-33l-162 127l64 62z" />
    <glyph glyph-name="breve" unicode="&#x2d8;" horiz-adv-x="310" 
d="M155 612q-69 0 -106.5 39.5t-48.5 108.5l76 18q10 -41 29.5 -58.5t49.5 -17.5t49.5 17.5t29.5 58.5l76 -18q-11 -69 -48.5 -108.5t-106.5 -39.5z" />
    <glyph glyph-name="dotaccent" unicode="&#x2d9;" horiz-adv-x="150" 
d="M75 616q-32 0 -53.5 22t-21.5 53t21.5 52.5t53.5 21.5q31 0 53 -21.5t22 -52.5t-22 -53t-53 -22z" />
    <glyph glyph-name="ring" unicode="&#x2da;" horiz-adv-x="243" 
d="M122 595q-26 0 -48.5 9.5t-39 26t-25.5 38.5t-9 48q0 25 9 47t25.5 38t39 25.5t48.5 9.5q27 0 49.5 -9.5t38 -25.5t24.5 -38t9 -47q0 -26 -9 -48t-24.5 -38.5t-38 -26t-49.5 -9.5zM122 668q20 0 33.5 14.5t13.5 34.5t-13.5 33.5t-33.5 13.5t-34 -13.5t-14 -33.5t14 -34.5
t34 -14.5z" />
    <glyph glyph-name="ogonek" unicode="&#x2db;" horiz-adv-x="201" 
d="M201 -208h-72q-64 0 -96.5 26.5t-32.5 73.5q0 37 26 68t94 57l81 -17q-32 -12 -53 -22t-33 -19.5t-17 -18.5t-5 -19q0 -19 17 -30t51 -11h40v-88z" />
    <glyph glyph-name="tilde" unicode="&#x2dc;" horiz-adv-x="370" 
d="M264 615q-20 0 -38.5 5.5t-46.5 21.5q-25 15 -35 19.5t-21 4.5q-34 0 -40 -47l-83 16q8 60 36 89.5t73 29.5q18 0 35.5 -5.5t46.5 -22.5q26 -14 37.5 -18.5t21.5 -4.5q30 0 37 46l83 -15q-8 -60 -36 -89.5t-70 -29.5z" />
    <glyph glyph-name="hungarumlaut" unicode="&#x2dd;" horiz-adv-x="352" 
d="M181 753l-111 -166l-70 47l107 167zM352 753l-111 -166l-70 47l107 167z" />
    <glyph glyph-name="gravecomb" unicode="&#x300;" horiz-adv-x="0" 
d="M0 695l-40 -98l-244 96l38 98z" />
    <glyph glyph-name="acutecomb" unicode="&#x301;" horiz-adv-x="0" 
d="M0 693l-244 -96l-40 98l246 96z" />
    <glyph glyph-name="uni0302" unicode="&#x302;" horiz-adv-x="0" 
d="M-162 786l162 -127l-64 -62l-115 90l-114 -90l-64 62l162 127h33z" />
    <glyph glyph-name="tildecomb" unicode="&#x303;" horiz-adv-x="0" 
d="M-106 615q-20 0 -38.5 5.5t-46.5 21.5q-25 15 -35 19.5t-21 4.5q-34 0 -40 -47l-83 16q8 60 36 89.5t73 29.5q18 0 35.5 -5.5t46.5 -22.5q26 -14 37.5 -18.5t21.5 -4.5q30 0 37 46l83 -15q-8 -60 -36 -89.5t-70 -29.5z" />
    <glyph glyph-name="uni0304" unicode="&#x304;" horiz-adv-x="0" 
d="M0 638h-322v86h322v-86z" />
    <glyph glyph-name="uni0306" unicode="&#x306;" horiz-adv-x="0" 
d="M-155 612q-69 0 -106.5 39.5t-48.5 108.5l76 18q10 -41 29.5 -58.5t49.5 -17.5t49.5 17.5t29.5 58.5l76 -18q-11 -69 -48.5 -108.5t-106.5 -39.5z" />
    <glyph glyph-name="uni0307" unicode="&#x307;" horiz-adv-x="0" 
d="M-75 616q-32 0 -53.5 22t-21.5 53t21.5 52.5t53.5 21.5q31 0 53 -21.5t22 -52.5t-22 -53t-53 -22z" />
    <glyph glyph-name="uni0308" unicode="&#x308;" horiz-adv-x="0" 
d="M-304 620q-29 0 -49 20t-20 49q0 28 20 47.5t49 19.5q28 0 48 -19.5t20 -47.5q0 -29 -20 -49t-48 -20zM-128 620q-29 0 -48.5 20t-19.5 49q0 28 19.5 47.5t48.5 19.5q28 0 48 -19.5t20 -47.5q0 -29 -20 -49t-48 -20z" />
    <glyph glyph-name="uni030A" unicode="&#x30a;" horiz-adv-x="0" 
d="M-121 595q-26 0 -48.5 9.5t-39 26t-25.5 38.5t-9 48q0 25 9 47t25.5 38t39 25.5t48.5 9.5q27 0 49.5 -9.5t38 -25.5t24.5 -38t9 -47q0 -26 -9 -48t-24.5 -38.5t-38 -26t-49.5 -9.5zM-121 668q20 0 33.5 14.5t13.5 34.5t-13.5 33.5t-33.5 13.5t-34 -13.5t-14 -33.5
t14 -34.5t34 -14.5z" />
    <glyph glyph-name="uni030B" unicode="&#x30b;" horiz-adv-x="0" 
d="M-171 753l-111 -166l-70 47l107 167zM0 753l-111 -166l-70 47l107 167z" />
    <glyph glyph-name="uni030C" unicode="&#x30c;" horiz-adv-x="0" 
d="M-179 698l115 90l64 -62l-162 -127h-33l-162 127l64 62z" />
    <glyph glyph-name="uni0312" unicode="&#x312;" horiz-adv-x="0" 
d="M-99 737q27 0 44 -17t17 -41q0 -26 -17.5 -43t-46.5 -17q-33 0 -52.5 21.5t-19.5 59.5q0 86 98 118l15 5l18 -51l-15 -5q-22 -8 -35.5 -13t-19.5 -18q4 1 14 1z" />
    <glyph glyph-name="uni0315" unicode="&#x315;" horiz-adv-x="0" 
d="M-19 583h-74v181h93z" />
    <glyph glyph-name="uni0326" unicode="&#x326;" horiz-adv-x="0" 
d="M-106 -55q33 0 52.5 -21.5t19.5 -59.5q0 -86 -98 -118l-15 -5l-18 51l15 5q22 8 35.5 13t19.5 18q-4 -1 -14 -1q-27 0 -44 17t-17 41q0 26 17.5 43t46.5 17z" />
    <glyph glyph-name="uni0327" unicode="&#x327;" horiz-adv-x="0" 
d="M-88 29l-23 -69q56 -1 87 -28t31 -75q0 -51 -39.5 -79t-105.5 -28h-84v64h63q36 0 52.5 12t16.5 33q0 20 -15 31.5t-50 11.5h-53l46 127h74z" />
    <glyph glyph-name="uni0328" unicode="&#x328;" horiz-adv-x="0" 
d="M0 -208h-72q-64 0 -96.5 26.5t-32.5 73.5q0 37 26 68t94 57l81 -17q-32 -12 -53 -22t-33 -19.5t-17 -18.5t-5 -19q0 -19 17 -30t51 -11h40v-88z" />
    <glyph glyph-name="uni0394" unicode="&#x394;" horiz-adv-x="702" 
d="M289 716h124l264 -608v-108h-652v108zM534 122l-182 443l-183 -443h365z" />
    <glyph glyph-name="uni03A9" unicode="&#x3a9;" horiz-adv-x="775" 
d="M735 399q0 -88 -33.5 -160t-95.5 -124h123v-115h-293v128q150 107 150 256q0 48 -13 89t-38.5 70.5t-62.5 46t-85 16.5t-84.5 -16.5t-62 -46t-38.5 -70.5t-13 -89q0 -74 36.5 -138t113.5 -118v-128h-293v115h123q-62 52 -95.5 124t-33.5 160q0 72 25 132t70.5 103
t109.5 67t142 24q79 0 143 -24t109.5 -67t70.5 -103t25 -132z" />
    <glyph glyph-name="uni03BC" unicode="&#x3bc;" horiz-adv-x="653" 
d="M463 547h120v-547h-120v88q-10 -19 -26.5 -37.5t-38 -32.5t-48 -22.5t-58.5 -8.5q-25 0 -48.5 4.5t-43.5 14.5v-196h-120v737h120v-277q0 -83 34.5 -124.5t94.5 -41.5t97 43.5t37 120.5v279z" />
    <glyph glyph-name="pi" unicode="&#x3c0;" horiz-adv-x="694" 
d="M664 547v-115h-120v-255q0 -62 63 -62h57v-115h-89q-71 0 -111 40t-40 110v282h-162l-32 -432h-120l32 432h-132v115h654z" />
    <glyph glyph-name="Wgrave" unicode="&#x1e80;" horiz-adv-x="1072" 
d="M413 991l246 -96l-40 -98l-244 96zM772 221l157 526h133l-223 -747h-135l-173 564l-178 -564h-126l-217 747h138l151 -526l165 526h148z" />
    <glyph glyph-name="wgrave" unicode="&#x1e81;" horiz-adv-x="853" 
d="M303 791l246 -96l-40 -98l-244 96zM608 157l120 390h115l-167 -547h-119l-132 390l-132 -390h-116l-167 547h117l120 -390l128 390h105z" />
    <glyph glyph-name="Wacute" unicode="&#x1e82;" horiz-adv-x="1072" 
d="M651 991l38 -98l-244 -96l-40 98zM772 221l157 526h133l-223 -747h-135l-173 564l-178 -564h-126l-217 747h138l151 -526l165 526h148z" />
    <glyph glyph-name="wacute" unicode="&#x1e83;" horiz-adv-x="853" 
d="M541 791l38 -98l-244 -96l-40 98zM608 157l120 390h115l-167 -547h-119l-132 390l-132 -390h-116l-167 547h117l120 -390l128 390h105z" />
    <glyph glyph-name="Wdieresis" unicode="&#x1e84;" horiz-adv-x="1072" 
d="M449 820q-29 0 -49 20t-20 49q0 28 20 47.5t49 19.5q28 0 48 -19.5t20 -47.5q0 -29 -20 -49t-48 -20zM625 820q-29 0 -48.5 20t-19.5 49q0 28 19.5 47.5t48.5 19.5q28 0 48 -19.5t20 -47.5q0 -29 -20 -49t-48 -20zM772 221l157 526h133l-223 -747h-135l-173 564
l-178 -564h-126l-217 747h138l151 -526l165 526h148z" />
    <glyph glyph-name="wdieresis" unicode="&#x1e85;" horiz-adv-x="853" 
d="M339 620q-29 0 -49 20t-20 49q0 28 20 47.5t49 19.5q28 0 48 -19.5t20 -47.5q0 -29 -20 -49t-48 -20zM515 620q-29 0 -48.5 20t-19.5 49q0 28 19.5 47.5t48.5 19.5q28 0 48 -19.5t20 -47.5q0 -29 -20 -49t-48 -20zM608 157l120 390h115l-167 -547h-119l-132 390
l-132 -390h-116l-167 547h117l120 -390l128 390h105z" />
    <glyph glyph-name="Germandbls" unicode="&#x1e9e;" horiz-adv-x="812" 
d="M718 707l-133 -255q88 -23 137.5 -82.5t49.5 -140.5q0 -107 -68.5 -168t-211.5 -61h-101v113h94q78 0 115.5 34t37.5 89q0 49 -43.5 83.5t-126.5 34.5h-53v10l134 263q-31 7 -81 7q-130 0 -189.5 -62.5t-59.5 -174.5v-397h-129v412q0 168 102.5 256.5t298.5 88.5
q29 0 60 -2.5t61 -8t57.5 -13t48.5 -16.5v-10z" />
    <glyph glyph-name="uni1EA0" unicode="&#x1ea0;" horiz-adv-x="754" 
d="M450 747l289 -747h-134l-56 149h-348l-56 -149h-130l290 747h145zM375 614l-128 -342h256zM375 -70q31 0 53 -21.5t22 -52.5t-22 -53t-53 -22q-32 0 -53.5 22t-21.5 53t21.5 52.5t53.5 21.5z" />
    <glyph glyph-name="uni1EA1" unicode="&#x1ea1;" horiz-adv-x="629" 
d="M320 557q115 0 177 -62t62 -175v-320h-120v72q-30 -38 -79 -60t-116 -22q-85 0 -134.5 41t-49.5 111q0 32 11 61t35 52t62.5 40t92.5 25l178 27q-2 48 -32.5 73t-86.5 25q-55 0 -82.5 -20t-32.5 -55h-123q2 37 18 71t46 59.5t73.5 41t100.5 15.5zM266 104q38 0 69.5 9.5
t54.5 27t36 41.5t13 52v14l-150 -23q-32 -5 -52.5 -12.5t-32.5 -17t-16.5 -21t-4.5 -23.5q0 -20 20.5 -33.5t62.5 -13.5zM340 -70q31 0 53 -21.5t22 -52.5t-22 -53t-53 -22q-32 0 -53.5 22t-21.5 53t21.5 52.5t53.5 21.5z" />
    <glyph glyph-name="uni1EB8" unicode="&#x1eb8;" horiz-adv-x="682" 
d="M229 347v-224h393v-123h-522v747h518v-123h-389v-154h274v-123h-274zM361 -70q31 0 53 -21.5t22 -52.5t-22 -53t-53 -22q-32 0 -53.5 22t-21.5 53t21.5 52.5t53.5 21.5z" />
    <glyph glyph-name="uni1EB9" unicode="&#x1eb9;" horiz-adv-x="639" 
d="M594 232h-426q8 -59 47.5 -94.5t104.5 -35.5q49 0 81.5 15t49.5 42h130q-26 -75 -94 -122t-168 -47q-63 0 -114 20t-88 57.5t-57 90t-20 116.5t20 116.5t56.5 89.5t87.5 57t113 20q63 0 114 -19.5t87 -56t56 -88t20 -115.5v-46zM317 445q-56 0 -95 -33t-51 -82h295
q-9 54 -50 84.5t-99 30.5zM317 -70q31 0 53 -21.5t22 -52.5t-22 -53t-53 -22q-32 0 -53.5 22t-21.5 53t21.5 52.5t53.5 21.5z" />
    <glyph glyph-name="uni1EBC" unicode="&#x1ebc;" horiz-adv-x="682" 
d="M303 866q-34 0 -40 -47l-83 16q8 60 36 89.5t73 29.5q18 0 35.5 -5.5t46.5 -22.5q26 -14 37.5 -18.5t21.5 -4.5q30 0 37 46l83 -15q-8 -60 -36 -89.5t-70 -29.5q-20 0 -38.5 5.5t-46.5 21.5q-25 15 -35 19.5t-21 4.5zM229 347v-224h393v-123h-522v747h518v-123h-389v-154
h274v-123h-274z" />
    <glyph glyph-name="uni1EBD" unicode="&#x1ebd;" horiz-adv-x="639" 
d="M256 666q-34 0 -40 -47l-83 16q8 60 36 89.5t73 29.5q18 0 35.5 -5.5t46.5 -22.5q26 -14 37.5 -18.5t21.5 -4.5q30 0 37 46l83 -15q-8 -60 -36 -89.5t-70 -29.5q-20 0 -38.5 5.5t-46.5 21.5q-25 15 -35 19.5t-21 4.5zM594 232h-426q8 -59 47.5 -94.5t104.5 -35.5
q49 0 81.5 15t49.5 42h130q-26 -75 -94 -122t-168 -47q-63 0 -114 20t-88 57.5t-57 90t-20 116.5t20 116.5t56.5 89.5t87.5 57t113 20q63 0 114 -19.5t87 -56t56 -88t20 -115.5v-46zM317 445q-56 0 -95 -33t-51 -82h295q-9 54 -50 84.5t-99 30.5z" />
    <glyph glyph-name="uni1ECA" unicode="&#x1eca;" horiz-adv-x="329" 
d="M229 0h-129v747h129v-747zM164 -219q-32 0 -53.5 22t-21.5 53t21.5 52.5t53.5 21.5q31 0 53 -21.5t22 -52.5t-22 -53t-53 -22z" />
    <glyph glyph-name="uni1ECB" unicode="&#x1ecb;" horiz-adv-x="272" 
d="M136 612q-35 0 -55.5 22.5t-20.5 54.5t20.5 54t55.5 22t55.5 -22t20.5 -54t-20.5 -54.5t-55.5 -22.5zM196 0h-120v557q12 -8 26 -12.5t34 -4.5t34.5 4.5t25.5 12.5v-557zM140 -219q-32 0 -53.5 22t-21.5 53t21.5 52.5t53.5 21.5q31 0 53 -21.5t22 -52.5t-22 -53t-53 -22z
" />
    <glyph glyph-name="uni1ECC" unicode="&#x1ecc;" horiz-adv-x="831" 
d="M415 -10q-78 0 -143 26t-112 75.5t-73.5 120.5t-26.5 161t26.5 161.5t73.5 121t112 75.5t143 26t143.5 -26t112.5 -75.5t73.5 -121t26.5 -161.5t-26.5 -161t-73.5 -120.5t-112.5 -75.5t-143.5 -26zM415 111q45 0 85.5 17t71 50t48.5 82t18 113q0 65 -18 114t-48.5 82
t-71 49.5t-85.5 16.5t-85.5 -16.5t-70.5 -49.5t-48 -82t-18 -114q0 -64 18 -113t48 -82t70.5 -50t85.5 -17zM415 -219q-32 0 -53.5 22t-21.5 53t21.5 52.5t53.5 21.5q31 0 53 -21.5t22 -52.5t-22 -53t-53 -22z" />
    <glyph glyph-name="uni1ECD" unicode="&#x1ecd;" horiz-adv-x="647" 
d="M324 -13q-67 0 -119.5 22t-89 61t-56 91t-19.5 112t19.5 112t56 91t89 61t119.5 22q66 0 118.5 -22t89 -61t56 -91t19.5 -112t-19.5 -112t-56 -91t-89 -61t-118.5 -22zM324 102q36 0 65 12t49.5 34.5t31.5 54t11 70.5t-11 70.5t-31.5 54t-49.5 34.5t-65 12
q-72 0 -115 -46.5t-43 -124.5t43 -124.5t115 -46.5zM324 -219q-32 0 -53.5 22t-21.5 53t21.5 52.5t53.5 21.5q31 0 53 -21.5t22 -52.5t-22 -53t-53 -22z" />
    <glyph glyph-name="uni1EE4" unicode="&#x1ee4;" horiz-adv-x="748" 
d="M374 -10q-142 0 -213 81.5t-71 231.5v444h129v-442q0 -50 12 -86.5t33 -60.5t50 -35.5t62 -11.5t62 11.5t50 35.5t33 60.5t12 86.5v442h125v-444q0 -150 -71.5 -231.5t-212.5 -81.5zM374 -219q-32 0 -53.5 22t-21.5 53t21.5 52.5t53.5 21.5q31 0 53 -21.5t22 -52.5
t-22 -53t-53 -22z" />
    <glyph glyph-name="uni1EE5" unicode="&#x1ee5;" horiz-adv-x="626" 
d="M426 547h120v-547h-120v70q-23 -36 -62.5 -59.5t-94.5 -23.5q-44 0 -80.5 16.5t-63 49t-41 79.5t-14.5 108v307h120v-285q0 -77 31.5 -117.5t84.5 -40.5q48 0 81.5 36t38.5 98v309zM308 -70q31 0 53 -21.5t22 -52.5t-22 -53t-53 -22q-32 0 -53.5 22t-21.5 53t21.5 52.5
t53.5 21.5z" />
    <glyph glyph-name="Ygrave" unicode="&#x1ef2;" horiz-adv-x="674" 
d="M212 991l246 -96l-40 -98l-244 96zM529 747h135l-263 -484v-263h-128v262l-263 485h139l190 -348z" />
    <glyph glyph-name="ygrave" unicode="&#x1ef3;" horiz-adv-x="579" 
d="M165 791l246 -96l-40 -98l-244 96zM288 169l159 378h117l-305 -728h-117l85 203l-212 525h121z" />
    <glyph glyph-name="uni1EF8" unicode="&#x1ef8;" horiz-adv-x="674" 
d="M276 866q-34 0 -40 -47l-83 16q8 60 36 89.5t73 29.5q18 0 35.5 -5.5t46.5 -22.5q26 -14 37.5 -18.5t21.5 -4.5q30 0 37 46l83 -15q-8 -60 -36 -89.5t-70 -29.5q-20 0 -38.5 5.5t-46.5 21.5q-25 15 -35 19.5t-21 4.5zM529 747h135l-263 -484v-263h-128v262l-263 485h139
l190 -348z" />
    <glyph glyph-name="uni1EF9" unicode="&#x1ef9;" horiz-adv-x="579" 
d="M229 666q-34 0 -40 -47l-83 16q8 60 36 89.5t73 29.5q18 0 35.5 -5.5t46.5 -22.5q26 -14 37.5 -18.5t21.5 -4.5q30 0 37 46l83 -15q-8 -60 -36 -89.5t-70 -29.5q-20 0 -38.5 5.5t-46.5 21.5q-25 15 -35 19.5t-21 4.5zM288 169l159 378h117l-305 -728h-117l85 203
l-212 525h121z" />
    <glyph glyph-name="uni2009" unicode="&#x2009;" horiz-adv-x="40" 
 />
    <glyph glyph-name="endash" unicode="&#x2013;" horiz-adv-x="500" 
d="M500 249h-500v97h500v-97z" />
    <glyph glyph-name="emdash" unicode="&#x2014;" horiz-adv-x="1000" 
d="M1000 249h-1000v97h1000v-97z" />
    <glyph glyph-name="quoteleft" unicode="&#x2018;" horiz-adv-x="202" 
d="M110 663q32 0 52 -20t20 -49q0 -32 -20.5 -52t-55.5 -20q-40 0 -63 29t-23 80q0 55 28 94.5t89 59.5l18 6l21 -61l-18 -6q-32 -11 -49 -26t-22 -38q11 3 23 3z" />
    <glyph glyph-name="quoteright" unicode="&#x2019;" horiz-adv-x="202" 
d="M96 791q40 0 63 -29t23 -80q0 -55 -28 -94.5t-89 -59.5l-18 -6l-21 61l18 6q32 11 49 26t22 38q-10 -3 -23 -3q-32 0 -52 20t-20 49q0 32 20.5 52t55.5 20z" />
    <glyph glyph-name="quotesinglbase" unicode="&#x201a;" horiz-adv-x="202" 
d="M96 131q40 0 63 -29t23 -80q0 -55 -28 -94.5t-89 -59.5l-18 -6l-21 61l18 6q32 11 49 26t22 38q-10 -3 -23 -3q-32 0 -52 20t-20 49q0 32 20.5 52t55.5 20z" />
    <glyph glyph-name="quotedblleft" unicode="&#x201c;" horiz-adv-x="402" 
d="M110 663q32 0 52 -20t20 -49q0 -32 -20.5 -52t-55.5 -20q-40 0 -63 29t-23 80q0 55 28 94.5t89 59.5l18 6l21 -61l-18 -6q-32 -11 -49 -26t-22 -38q11 3 23 3zM310 663q32 0 52 -20t20 -49q0 -32 -20.5 -52t-55.5 -20q-40 0 -63 29t-23 80q0 55 28 94.5t89 59.5l18 6
l21 -61l-18 -6q-32 -11 -49 -26t-22 -38q11 3 23 3z" />
    <glyph glyph-name="quotedblright" unicode="&#x201d;" horiz-adv-x="402" 
d="M96 791q40 0 63 -29t23 -80q0 -55 -28 -94.5t-89 -59.5l-18 -6l-21 61l18 6q32 11 49 26t22 38q-10 -3 -23 -3q-32 0 -52 20t-20 49q0 32 20.5 52t55.5 20zM296 791q40 0 63 -29t23 -80q0 -55 -28 -94.5t-89 -59.5l-18 -6l-21 61l18 6q32 11 49 26t22 38q-10 -3 -23 -3
q-32 0 -52 20t-20 49q0 32 20.5 52t55.5 20z" />
    <glyph glyph-name="quotedblbase" unicode="&#x201e;" horiz-adv-x="402" 
d="M96 131q40 0 63 -29t23 -80q0 -55 -28 -94.5t-89 -59.5l-18 -6l-21 61l18 6q32 11 49 26t22 38q-10 -3 -23 -3q-32 0 -52 20t-20 49q0 32 20.5 52t55.5 20zM296 131q40 0 63 -29t23 -80q0 -55 -28 -94.5t-89 -59.5l-18 -6l-21 61l18 6q32 11 49 26t22 38q-10 -3 -23 -3
q-32 0 -52 20t-20 49q0 32 20.5 52t55.5 20z" />
    <glyph glyph-name="dagger" unicode="&#x2020;" horiz-adv-x="608" 
d="M368 547h215v-109h-215v-628h-129v628h-214v109h214v234h129v-234z" />
    <glyph glyph-name="daggerdbl" unicode="&#x2021;" horiz-adv-x="608" 
d="M583 547v-109h-215v-285h215v-109h-215v-234h-129v234h-214v109h214v285h-214v109h214v234h129v-234h215z" />
    <glyph glyph-name="bullet" unicode="&#x2022;" horiz-adv-x="320" 
d="M160 261q-24 0 -44.5 9.5t-36.5 25t-25 36.5t-9 45t9 45.5t25 37t36.5 24.5t44.5 9t45 -9t36.5 -24.5t24.5 -37t9 -45.5t-9 -45t-24.5 -36.5t-36.5 -25t-45 -9.5z" />
    <glyph glyph-name="ellipsis" unicode="&#x2026;" horiz-adv-x="827" 
d="M127 -13q-36 0 -61.5 26t-25.5 62q0 37 25.5 62t61.5 25q37 0 62 -25t25 -62q0 -36 -25 -62t-62 -26zM413 -13q-36 0 -61.5 26t-25.5 62q0 37 25.5 62t61.5 25q37 0 62 -25t25 -62q0 -36 -25 -62t-62 -26zM700 -13q-36 0 -61.5 26t-25.5 62q0 37 25.5 62t61.5 25
q37 0 62 -25t25 -62q0 -36 -25 -62t-62 -26z" />
    <glyph glyph-name="perthousand" unicode="&#x2030;" horiz-adv-x="1193" 
d="M184 392q-37 0 -68.5 12.5t-53.5 35t-34.5 53t-12.5 67.5t12.5 68t34.5 53.5t53.5 35t68.5 12.5q38 0 69 -12.5t53 -35t34 -53.5t12 -68t-12 -67.5t-34 -53t-53 -35t-69 -12.5zM184 0h-127l570 716h127zM184 478q33 0 57.5 24t24.5 59t-24.5 58.5t-57.5 23.5
q-35 0 -59 -23.5t-24 -58.5t24 -59t59 -24zM641 -13q-37 0 -68.5 12.5t-53.5 35t-34.5 53.5t-12.5 68t12.5 68t34.5 53t53.5 34.5t68.5 12.5q38 0 69 -12.5t53 -34.5t34 -53t12 -68t-12 -68t-34 -53.5t-53 -35t-69 -12.5zM1020 -13q-37 0 -68.5 12.5t-53.5 35t-34.5 53.5
t-12.5 68t12.5 68t34.5 53t53.5 34.5t68.5 12.5q38 0 69 -12.5t53 -34.5t34 -53t12 -68t-12 -68t-34 -53.5t-53 -35t-69 -12.5zM641 73q33 0 57.5 24t24.5 60q0 35 -24.5 58.5t-57.5 23.5q-35 0 -59 -23.5t-24 -58.5q0 -36 24 -60t59 -24zM1020 73q33 0 57.5 24t24.5 60
q0 35 -24.5 58.5t-57.5 23.5q-35 0 -59 -23.5t-24 -58.5q0 -36 24 -60t59 -24z" />
    <glyph glyph-name="guilsinglleft" unicode="&#x2039;" horiz-adv-x="317" 
d="M238 507l69 -66l-169 -167l169 -168l-69 -66l-228 228v10z" />
    <glyph glyph-name="guilsinglright" unicode="&#x203a;" horiz-adv-x="317" 
d="M10 441l69 66l228 -229v-10l-228 -228l-69 66l169 168z" />
    <glyph glyph-name="fraction" unicode="&#x2044;" horiz-adv-x="176" 
d="M366 675l-483 -685l-73 51l483 685z" />
    <glyph glyph-name="uni2070" unicode="&#x2070;" horiz-adv-x="390" 
d="M195 380q-77 0 -120 41.5t-43 119.5v81q0 78 43 119.5t120 41.5t120 -41.5t43 -119.5v-81q0 -78 -43 -119.5t-120 -41.5zM195 469q28 0 45.5 19.5t17.5 56.5v73q0 36 -17.5 55.5t-45.5 19.5t-45.5 -19t-17.5 -56v-73q0 -37 17.5 -56.5t45.5 -19.5z" />
    <glyph glyph-name="uni2074" unicode="&#x2074;" horiz-adv-x="389" 
d="M314 528h59v-73h-59v-70h-91v70h-196v73l196 242h91v-242zM223 643l-92 -115h92v115z" />
    <glyph glyph-name="uni2075" unicode="&#x2075;" horiz-adv-x="390" 
d="M210 633q63 0 102 -33.5t39 -90.5q0 -28 -11 -51.5t-30.5 -40.5t-47.5 -27t-63 -10q-61 0 -102 27.5t-58 71.5l92 28q8 -20 25.5 -29.5t37.5 -9.5q23 0 40.5 13.5t17.5 34.5t-17 34.5t-41 13.5q-18 0 -32 -7t-23 -18h-78v231h265v-90h-183v-61q16 8 33 11t34 3z" />
    <glyph glyph-name="uni2076" unicode="&#x2076;" horiz-adv-x="390" 
d="M224 627q60 0 98 -31.5t38 -90.5q0 -57 -42.5 -91t-114.5 -34q-78 0 -121 41t-43 115v51q0 84 47 133.5t135 49.5h100v-90h-102q-38 0 -59.5 -20t-21.5 -50v-11q14 13 35.5 20.5t50.5 7.5zM201 457q27 0 43.5 14.5t16.5 37.5t-16.5 37t-43.5 14q-28 0 -44.5 -14
t-16.5 -37t16.5 -37.5t44.5 -14.5z" />
    <glyph glyph-name="uni2077" unicode="&#x2077;" horiz-adv-x="390" 
d="M38 678v92h314v-92l-155 -293h-111l154 293h-202z" />
    <glyph glyph-name="uni2078" unicode="&#x2078;" horiz-adv-x="390" 
d="M293 596q28 -14 45.5 -38.5t17.5 -61.5q0 -52 -42.5 -84t-118.5 -32t-118.5 32t-42.5 84q0 36 17.5 61t45.5 39q-18 12 -29 31t-11 45q0 42 35 71.5t103 29.5q67 0 102 -29.5t35 -71.5q0 -26 -10.5 -45t-28.5 -31zM195 696q-23 0 -36.5 -11t-13.5 -28t14 -27.5t36 -10.5
t36 10.5t14 27.5t-13.5 28t-36.5 11zM195 457q28 0 43.5 13.5t15.5 33.5t-16 33.5t-43 13.5q-28 0 -43.5 -13.5t-15.5 -33.5q0 -21 16 -34t43 -13z" />
    <glyph glyph-name="uni2079" unicode="&#x2079;" horiz-adv-x="390" 
d="M187 775q78 0 121 -41t43 -115v-52q0 -84 -47 -133t-134 -49h-101v90h102q38 0 59.5 20t21.5 50v11q-14 -13 -35 -20.5t-50 -7.5q-60 0 -98.5 31t-38.5 91q0 57 42.5 91t114.5 34zM190 595q27 0 43.5 13.5t16.5 36.5q0 24 -16.5 38t-43.5 14t-44 -14t-17 -38
q0 -23 16.5 -36.5t44.5 -13.5z" />
    <glyph glyph-name="uni2080" unicode="&#x2080;" horiz-adv-x="390" 
d="M195 -129q-77 0 -120 41.5t-43 119.5v81q0 78 43 119.5t120 41.5t120 -41.5t43 -119.5v-81q0 -78 -43 -119.5t-120 -41.5zM195 -40q28 0 45.5 19.5t17.5 56.5v73q0 36 -17.5 55.5t-45.5 19.5t-45.5 -19t-17.5 -56v-73q0 -37 17.5 -56.5t45.5 -19.5z" />
    <glyph glyph-name="uni2081" unicode="&#x2081;" horiz-adv-x="390" 
d="M259 265v-295h94v-90h-305v90h116v205h-108v90h203z" />
    <glyph glyph-name="uni2082" unicode="&#x2082;" horiz-adv-x="389" 
d="M192 -30h161v-90h-308v83l152 110q30 22 40.5 36.5t10.5 28.5q0 18 -13.5 30t-37.5 12q-26 0 -41.5 -14.5t-15.5 -37.5h-99q0 62 41.5 102t116.5 40q72 0 110 -35t38 -87q0 -16 -4 -31t-14.5 -31t-28.5 -33.5t-46 -37.5z" />
    <glyph glyph-name="uni2083" unicode="&#x2083;" horiz-adv-x="390" 
d="M331 175l-84 -64q47 -8 74 -39t27 -76q0 -26 -11 -48t-31.5 -38.5t-48.5 -25.5t-62 -9q-66 0 -106 28.5t-57 73.5l92 27q17 -41 65 -41q25 0 42 14t17 34t-15.5 33t-39.5 13q-19 0 -36 -10l-36 46l110 82h-176v90h276v-90z" />
    <glyph glyph-name="uni2084" unicode="&#x2084;" horiz-adv-x="389" 
d="M314 23h59v-73h-59v-70h-91v70h-196v73l196 242h91v-242zM223 138l-92 -115h92v115z" />
    <glyph glyph-name="uni2085" unicode="&#x2085;" horiz-adv-x="390" 
d="M210 128q63 0 102 -33.5t39 -90.5q0 -28 -11 -51.5t-30.5 -41t-47.5 -27t-63 -9.5q-61 0 -102 27.5t-58 71.5l92 28q8 -20 25.5 -29.5t37.5 -9.5q23 0 40.5 13.5t17.5 34.5t-17 34.5t-41 13.5q-18 0 -32 -7t-23 -18h-78v231h265v-90h-183v-61q16 8 33 11t34 3z" />
    <glyph glyph-name="uni2086" unicode="&#x2086;" horiz-adv-x="390" 
d="M224 122q60 0 98 -31.5t38 -90.5q0 -57 -42.5 -91t-114.5 -34q-78 0 -121 41t-43 115v51q0 84 47 133.5t135 49.5h100v-90h-102q-38 0 -59.5 -20t-21.5 -50v-11q14 13 35.5 20.5t50.5 7.5zM201 -48q27 0 43.5 14.5t16.5 37.5t-16.5 37t-43.5 14q-28 0 -44.5 -14
t-16.5 -37t16.5 -37.5t44.5 -14.5z" />
    <glyph glyph-name="uni2087" unicode="&#x2087;" horiz-adv-x="390" 
d="M38 173v92h314v-92l-155 -293h-111l154 293h-202z" />
    <glyph glyph-name="uni2088" unicode="&#x2088;" horiz-adv-x="390" 
d="M293 92q28 -14 45.5 -38.5t17.5 -61.5q0 -52 -42.5 -84t-118.5 -32t-118.5 32t-42.5 84q0 36 17.5 61t45.5 39q-18 12 -29 31t-11 45q0 42 35 71.5t103 29.5q67 0 102 -29.5t35 -71.5q0 -26 -10.5 -45t-28.5 -31zM195 192q-23 0 -36.5 -11t-13.5 -28t14 -27.5t36 -10.5
t36 10.5t14 27.5t-13.5 28t-36.5 11zM195 -47q28 0 43.5 13.5t15.5 33.5t-16 33.5t-43 13.5q-28 0 -43.5 -13.5t-15.5 -33.5q0 -21 16 -34t43 -13z" />
    <glyph glyph-name="uni2089" unicode="&#x2089;" horiz-adv-x="390" 
d="M187 270q78 0 121 -41t43 -115v-52q0 -84 -47 -133t-134 -49h-101v90h102q38 0 59.5 20t21.5 50v11q-14 -13 -35 -20.5t-50 -7.5q-60 0 -98.5 31t-38.5 91q0 57 42.5 91t114.5 34zM190 90q27 0 43.5 13.5t16.5 36.5q0 24 -16.5 38t-43.5 14t-44 -14t-17 -38
q0 -23 16.5 -36.5t44.5 -13.5z" />
    <glyph glyph-name="Euro" unicode="&#x20ac;" 
d="M369 94q60 0 96.5 36.5t39.5 95.5h125q0 -51 -17.5 -95t-51 -76.5t-81 -50.5t-107.5 -18q-58 0 -105.5 17t-81.5 48.5t-54 77t-23 101.5h-69v100h68v55h-68v90h68q2 59 21 106.5t53 80.5t81 51t105 18q62 0 110.5 -18.5t82 -50.5t51.5 -76.5t18 -95.5h-125
q-4 59 -40 95.5t-96 36.5q-59 0 -96.5 -37.5t-40.5 -109.5h206v-90h-206v-55h159v-100h-158q6 -63 42.5 -99.5t93.5 -36.5z" />
    <glyph glyph-name="uni2113" unicode="&#x2113;" horiz-adv-x="468" 
d="M224 186q11 -42 33 -56.5t57 -14.5h98v-115h-115q-66 0 -111 28.5t-69 99.5l-62 -33l-50 92l90 49q-6 51 -6 115q0 193 54 286.5t153 93.5q75 0 113.5 -49.5t38.5 -128.5q0 -58 -17 -112t-47 -101.5t-71 -87t-89 -66.5zM291 629q-16 0 -31 -14t-26 -47t-18 -86t-7 -131
v-25.5t1 -23.5q57 43 90.5 106.5t33.5 140.5q0 44 -12.5 62t-30.5 18z" />
    <glyph glyph-name="uni2116" unicode="&#x2116;" horiz-adv-x="1161" 
d="M957 383q-38 0 -69.5 13t-54.5 36.5t-35.5 55.5t-12.5 70t12.5 70t35.5 55.5t54.5 36.5t69.5 13t69.5 -13t54 -36.5t35.5 -55.5t13 -70t-13 -70t-35.5 -55.5t-54 -36.5t-69.5 -13zM210 727l355 -409v409h129v-727h-129v115l-337 385v-500h-128v727h110zM957 654
q-39 0 -65 -27t-26 -69t26 -69t65 -27t65 27t26 69t-26 69t-65 27zM1104 257h-295v77h295v-77z" />
    <glyph glyph-name="trademark" unicode="&#x2122;" horiz-adv-x="674" 
d="M119 662h-84v65h245v-65h-84v-220h-77v220zM487 600l93 127h59v-285h-73v160l-78 -103h-2l-79 105v-162h-73v285h59z" />
    <glyph glyph-name="estimated" unicode="&#x212e;" horiz-adv-x="824" 
d="M207 319v-205q49 -47 97.5 -66.5t107.5 -19.5q91 0 163 45t110 120l42 -24q-45 -87 -127 -138t-188 -51q-75 0 -139 28.5t-111.5 79t-74.5 119t-27 148.5t27 149t74.5 119.5t111.5 79t139 28.5t139 -29t111.5 -81t74.5 -123t27 -154v-11t-1 -14h-556zM617 366v228
q-48 48 -97 68t-108 20t-108 -20t-97 -67v-229h410z" />
    <glyph glyph-name="oneeighth" unicode="&#x215b;" horiz-adv-x="944" 
d="M200 41l483 685l73 -51l-483 -685zM353 418v-90h-305v90h116v205h-108v90h203v-295h94zM844 212q28 -14 45.5 -38.5t17.5 -61.5q0 -52 -42.5 -84t-118.5 -32t-118.5 32t-42.5 84q0 36 17.5 61t45.5 39q-18 12 -29 31t-11 45q0 42 35 71.5t103 29.5q67 0 102 -29.5
t35 -71.5q0 -26 -10.5 -45t-28.5 -31zM746 312q-23 0 -36.5 -11t-13.5 -28t14 -27.5t36 -10.5t36 10.5t14 27.5t-13.5 28t-36.5 11zM746 73q28 0 43.5 13.5t15.5 33.5t-16 33.5t-43 13.5q-28 0 -43.5 -13.5t-15.5 -33.5q0 -21 16 -34t43 -13z" />
    <glyph glyph-name="threeeighths" unicode="&#x215c;" horiz-adv-x="949" 
d="M200 41l483 685l73 -51l-483 -685zM348 444q0 -26 -11 -48t-31.5 -38.5t-48.5 -25.5t-62 -9q-66 0 -106 28.5t-57 73.5l92 27q17 -41 65 -41q25 0 42 14t17 34t-15.5 33t-39.5 13q-19 0 -36 -10l-36 46l110 82h-176v90h276v-90l-84 -64q47 -8 74 -39t27 -76zM844 212
q28 -14 45.5 -38.5t17.5 -61.5q0 -52 -42.5 -84t-118.5 -32t-118.5 32t-42.5 84q0 36 17.5 61t45.5 39q-18 12 -29 31t-11 45q0 42 35 71.5t103 29.5q67 0 102 -29.5t35 -71.5q0 -26 -10.5 -45t-28.5 -31zM746 312q-23 0 -36.5 -11t-13.5 -28t14 -27.5t36 -10.5t36 10.5
t14 27.5t-13.5 28t-36.5 11zM746 73q28 0 43.5 13.5t15.5 33.5t-16 33.5t-43 13.5q-28 0 -43.5 -13.5t-15.5 -33.5q0 -21 16 -34t43 -13z" />
    <glyph glyph-name="fiveeighths" unicode="&#x215d;" horiz-adv-x="946" 
d="M200 41l483 685l73 -51l-483 -685zM351 452q0 -28 -11 -51.5t-30.5 -40.5t-47.5 -27t-63 -10q-61 0 -102 27.5t-58 71.5l92 28q8 -20 25.5 -29.5t37.5 -9.5q23 0 40.5 13.5t17.5 34.5t-17 34.5t-41 13.5q-18 0 -32 -7t-23 -18h-78v231h265v-90h-183v-61q16 8 33 11t34 3
q63 0 102 -33.5t39 -90.5zM844 212q28 -14 45.5 -38.5t17.5 -61.5q0 -52 -42.5 -84t-118.5 -32t-118.5 32t-42.5 84q0 36 17.5 61t45.5 39q-18 12 -29 31t-11 45q0 42 35 71.5t103 29.5q67 0 102 -29.5t35 -71.5q0 -26 -10.5 -45t-28.5 -31zM746 312q-23 0 -36.5 -11
t-13.5 -28t14 -27.5t36 -10.5t36 10.5t14 27.5t-13.5 28t-36.5 11zM746 73q28 0 43.5 13.5t15.5 33.5t-16 33.5t-43 13.5q-28 0 -43.5 -13.5t-15.5 -33.5q0 -21 16 -34t43 -13z" />
    <glyph glyph-name="seveneighths" unicode="&#x215e;" horiz-adv-x="870" 
d="M125 41l483 685l73 -51l-483 -685zM352 621l-155 -293h-111l154 293h-202v92h314v-92zM769 212q28 -14 45.5 -38.5t17.5 -61.5q0 -52 -42.5 -84t-118.5 -32t-118.5 32t-42.5 84q0 36 17.5 61t45.5 39q-18 12 -29 31t-11 45q0 42 35 71.5t103 29.5q67 0 102 -29.5
t35 -71.5q0 -26 -10.5 -45t-28.5 -31zM671 312q-23 0 -36.5 -11t-13.5 -28t14 -27.5t36 -10.5t36 10.5t14 27.5t-13.5 28t-36.5 11zM671 73q28 0 43.5 13.5t15.5 33.5t-16 33.5t-43 13.5q-28 0 -43.5 -13.5t-15.5 -33.5q0 -21 16 -34t43 -13z" />
    <glyph glyph-name="arrowup" unicode="&#x2191;" 
d="M351 685l287 -315l-85 -83l-153 168v-390h-114v390l-153 -168l-85 83l287 315h16z" />
    <glyph glyph-name="arrowdown" unicode="&#x2193;" 
d="M400 295l153 168l85 -83l-287 -315h-16l-287 315l85 83l153 -168v390h114v-390z" />
    <glyph glyph-name="arrowboth" unicode="&#x2194;" horiz-adv-x="970" 
d="M539 585l83 85l315 -287v-16l-315 -287l-83 85l168 153h-444l168 -153l-83 -85l-315 287v16l315 287l83 -85l-168 -153h444z" />
    <glyph glyph-name="arrowupdn" unicode="&#x2195;" 
d="M400 151l153 168l85 -83l-287 -315h-16l-287 315l85 83l153 -168v444l-153 -168l-85 83l287 315h16l287 -315l-85 -83l-153 168v-444z" />
    <glyph glyph-name="uni2196" unicode="&#x2196;" horiz-adv-x="651" 
d="M293 511l288 -288l-84 -85l-283 283v-247l-124 -1v445l11 12h446v-119h-254z" />
    <glyph glyph-name="uni2197" unicode="&#x2197;" horiz-adv-x="651" 
d="M104 630h446l11 -12v-445l-124 1v247l-283 -283l-84 85l288 288h-254v119z" />
    <glyph glyph-name="uni2198" unicode="&#x2198;" horiz-adv-x="651" 
d="M437 359v247l124 1v-445l-11 -12h-446v119h254l-288 288l84 85z" />
    <glyph glyph-name="uni2199" unicode="&#x2199;" horiz-adv-x="651" 
d="M497 642l84 -85l-288 -288h254v-119h-446l-11 12v445l124 -1v-247z" />
    <glyph glyph-name="partialdiff" unicode="&#x2202;" horiz-adv-x="570" 
d="M144 716h160q115 0 181.5 -69t66.5 -208q0 -108 -25.5 -192.5t-70 -142t-105 -88t-130.5 -30.5q-42 0 -78.5 13.5t-64 39t-43 64t-15.5 87.5q0 58 20.5 110.5t57.5 92.5t89.5 63.5t116.5 23.5q74 0 120 -34q2 78 -34.5 116.5t-105.5 38.5h-140v115zM231 93q33 0 63.5 16
t54 42.5t38 60t14.5 69.5q0 48 -28 73.5t-73 25.5q-36 0 -66 -15.5t-52 -41t-34 -58t-12 -65.5q0 -54 27 -80.5t68 -26.5z" />
    <glyph glyph-name="product" unicode="&#x220f;" horiz-adv-x="709" 
d="M28 716h654v-115h-104v-601h-120v601h-206v-601h-120v601h-104v115z" />
    <glyph glyph-name="summation" unicode="&#x2211;" horiz-adv-x="607" 
d="M20 716h547v-115h-370l195 -222v-6l-207 -258h382v-115h-547v101l213 267l-213 247v101z" />
    <glyph glyph-name="minus" unicode="&#x2212;" 
d="M584 313h-482v103h482v-103z" />
    <glyph glyph-name="uni2215" unicode="&#x2215;" horiz-adv-x="176" 
d="M366 675l-483 -685l-73 51l483 685z" />
    <glyph glyph-name="uni2219" unicode="&#x2219;" horiz-adv-x="281" 
d="M127 305q-36 0 -61.5 26t-25.5 62q0 37 25.5 62t61.5 25q37 0 62 -25t25 -62q0 -36 -25 -62t-62 -26z" />
    <glyph glyph-name="radical" unicode="&#x221a;" horiz-adv-x="681" 
d="M342 169l202 547h135l-268 -716h-132l-147 392h-115v115h206z" />
    <glyph glyph-name="infinity" unicode="&#x221e;" horiz-adv-x="801" 
d="M582 564q39 0 72 -13t57 -37.5t37.5 -59t13.5 -76.5q0 -43 -13.5 -77.5t-37.5 -59t-57 -37.5t-72 -13q-50 0 -93 27t-88 84q-45 -57 -88 -84t-94 -27q-39 0 -72 13t-57 37.5t-37.5 59t-13.5 77.5q0 42 13.5 76.5t37.5 59t57 37.5t72 13q51 0 94 -26.5t88 -83.5
q45 57 88 83.5t93 26.5zM229 290q27 0 54 19t63 69q-36 49 -63 68t-54 19q-38 0 -62 -23t-24 -64q0 -42 24 -65t62 -23zM573 290q38 0 61.5 23t23.5 65q0 41 -23.5 64t-61.5 23q-28 0 -54.5 -19t-63.5 -69q37 -50 63.5 -68.5t54.5 -18.5z" />
    <glyph glyph-name="integral" unicode="&#x222b;" horiz-adv-x="527" 
d="M-20 -190v115h77q29 0 42 14t20 43l138 595q8 36 20 62.5t30.5 43.5t44.5 25t63 8h112v-115h-93q-29 0 -42 -14t-20 -43l-138 -595q-8 -36 -20 -62.5t-30.5 -43.5t-44.5 -25t-63 -8h-96z" />
    <glyph glyph-name="approxequal" unicode="&#x2248;" 
d="M455 408q-34 0 -61 7.5t-51.5 16.5t-50 16.5t-56.5 7.5q-29 0 -55 -8t-55 -26v102q53 35 109 35q32 0 58 -7.5t50.5 -17t49.5 -17t56 -7.5q29 0 55.5 8t55.5 26v-102q-54 -34 -105 -34zM455 180q-34 0 -61 7.5t-51.5 17t-50 17t-56.5 7.5q-29 0 -55 -8t-55 -27v102
q53 35 109 35q32 0 58 -7.5t50.5 -17t49.5 -17t56 -7.5q29 0 55.5 8t55.5 26v-102q-54 -34 -105 -34z" />
    <glyph glyph-name="notequal" unicode="&#x2260;" 
d="M560 532v-99h-152l-37 -137h189v-99h-215l-35 -130l-93 23l29 107h-120v99h146l37 137h-183v99h210l35 131l92 -23l-29 -108h126z" />
    <glyph glyph-name="lessequal" unicode="&#x2264;" 
d="M265 442l334 -117l-29 -91l-417 150v115l417 150l29 -91zM145 62v91h461v-91h-461z" />
    <glyph glyph-name="greaterequal" unicode="&#x2265;" 
d="M533 384l-417 -150l-29 91l334 117l-334 116l29 91l417 -150v-115zM80 62v91h461v-91h-461z" />
    <glyph glyph-name="lozenge" unicode="&#x25ca;" horiz-adv-x="624" 
d="M272 716h74l239 -350v-10l-239 -356h-74l-239 356v10zM309 155l137 205l-137 202l-137 -202z" />
    <glyph glyph-name="uni261D" unicode="&#x261d;" horiz-adv-x="546" 
d="M469 242h1v-45l13 -8v-135l-11 -19l-48 -22l-25 16v-20l-14 -19q-8 -3 -39.5 -10.5t-78.5 -7.5q-29 0 -52 6.5t-39.5 15t-26.5 18t-15 15.5l-3 12v135l15 5v38l-119 166l-2 20l39 79l-32 381l18 20l111 11l20 -17l17 -206l96 6l206 -106l11 -20zM150 790l-5 65l-73 -7
l5 -65zM153 752l-72 -7l16 -196l31 63l28 8l8 -5zM275 449l-5 189l-69 -6l3 -41l50 -30l7 -24l-42 -89zM310 626l4 -180l54 -5l17 146zM197 491l22 47l-65 39l-23 -46zM406 437l50 -4l15 110l-49 25zM181 457l-67 40l-52 -106l5 -6l44 31l26 -4l93 -129l-4 -26l-39 -27
q18 -14 41.5 -18.5t44.5 -4.5q59 0 97 15t61 32l19 139l-96 -96l-196 111zM90 353l71 -96l27 19l-70 98zM434 60l16 8v89l-16 -8v-89zM171 44q16 -15 43 -23.5t53 -8.5q8 0 15.5 0.5t15.5 1.5v96q-7 -1 -14 -1h-15q-33 0 -57 7t-41 16v-26q39 -26 92 -26v-40q-52 0 -92 23
v-19zM358 117l-20 -3v-95q6 1 11 2t9 2v94z" />
    <glyph glyph-name="uni261F" unicode="&#x261f;" horiz-adv-x="546" 
d="M519 372l2 -20l-39 -79l32 -381l-18 -20l-111 -11l-20 17l-17 206l-96 -6l-206 106l-11 20l42 309h-1v45l-13 8v135l11 19l48 22l25 -16v20l14 19q8 3 39.5 10.5t78.5 7.5q29 0 52 -6.5t39.5 -15t27 -18t14.5 -15.5l3 -12v-135l-15 -5v-38zM375 711q-16 15 -43 23.5
t-53 8.5q-8 0 -15.5 -0.5t-15.5 -1.5v-96q7 1 14 1h15q33 0 57 -7t41 -16v26q-39 26 -92 26v40q52 0 92 -23v19zM188 638l20 3v95q-6 -1 -11 -2t-9 -2v-94zM112 695l-16 -8v-89l16 8v89zM365 298l67 -40l52 106l-5 6l-44 -31l-26 4l-93 129l4 26l39 27q-18 14 -41.5 18.5
t-44.5 4.5q-59 0 -97 -15t-61 -32l-19 -139l96 96l196 -111zM456 402l-71 96l-27 -19l70 -98zM140 318l-50 4l-15 -110l49 -25zM232 309l-54 5l-17 -146l75 -39zM271 306l5 -189l69 6l-3 41l-50 30l-7 24l42 89zM349 264l-22 -47l65 -39l23 46zM393 3l72 7l-16 196l-31 -63
l-28 -8l-8 5zM396 -35l5 -65l73 7l-5 65z" />
    <glyph glyph-name="uni26BD" unicode="&#x26bd;" horiz-adv-x="960" 
d="M480 830q87 0 163.5 -33t133.5 -90t90 -133.5t33 -163.5t-33 -163.5t-90 -133.5t-133.5 -90t-163.5 -33t-163.5 33t-133.5 90t-90 133.5t-33 163.5t33 163.5t90 133.5t133.5 90t163.5 33zM123 296q13 2 17 12.5t9 41.5q2 18 7 32.5t11 25.5q-26 18 -26 50q0 43 17 77
t43 66q11 14 27 21t30 8h4v3q0 22 9.5 35.5t26.5 26.5q27 20 60 37.5t62 17.5q20 0 35.5 -5t26.5 -21q8 5 20 9t32 7q28 4 43 8.5t17 18.5q-28 9 -58.5 13.5t-52.5 4.5q-69 0 -137 -25.5t-121 -74.5t-86 -118.5t-33 -158.5q0 -22 3.5 -51.5t13.5 -60.5zM635 751
q-8 -25 -25.5 -36.5t-55.5 -16.5q-35 -5 -54.5 -15t-19.5 -29q0 -12 10 -20.5t33 -19.5q25 -12 45.5 -24t35.5 -24l124 125q-18 16 -41 32t-52 28zM675 246q5 -4 11 -7t14 -3q15 0 27 15t26 39q11 18 17 38.5t6 28.5t-3 13t-10 5t-14 -5t-27 -5q-29 0 -48.5 23t-33.5 52
t-25.5 47t-25.5 32q-15 15 -41 28.5t-51 28.5t-43.5 33t-18.5 43q0 18 6 28t6 15q0 10 -23 10q-14 0 -34.5 -7.5t-39 -19t-32 -24t-13.5 -23.5q0 -14 9 -23q6 -7 23.5 -27.5t41 -47.5t50.5 -57t54 -57q32 -32 64 -61.5t58 -52.5t45 -38.5t25 -20.5zM821 565q-12 29 -28 52
t-32 41l-125 -124q12 -15 24 -35.5t24 -45.5q11 -23 19.5 -33t20.5 -10q19 0 29 19.5t15 54.5q5 38 16.5 55.5t36.5 25.5zM371 301q15 -15 41 -28.5t51 -28.5t43.5 -33t18.5 -43q0 -18 -6 -28t-6 -15q0 -10 23 -10q28 0 73 28q17 10 31.5 22.5t14.5 24.5q0 14 -9 22
q-4 4 -25 21t-49 42t-59.5 53.5t-58.5 55.5q-32 32 -62 64.5t-53 59.5t-38.5 45.5t-19.5 22.5q-5 5 -9 7t-12 2q-15 0 -27 -15.5t-26 -39.5q-11 -18 -17 -38.5t-6 -28.5t3 -13t10 -5t14 5t27 5q29 0 48.5 -23t33.5 -52t25.5 -47t25.5 -32zM477 35q69 0 137 25.5t121 74.5
t86 119t33 158q0 22 -3.5 51.5t-13.5 60.5q-13 -2 -17 -12.5t-9 -41.5q-2 -18 -7 -32.5t-11 -25.5q26 -18 26 -50q0 -43 -17 -77t-43 -66q-11 -14 -27 -21t-30 -8h-4v-3q0 -22 -9.5 -35.5t-26.5 -26.5q-27 -20 -60 -37.5t-62 -17.5q-20 0 -35.5 5t-26.5 21q-8 -5 -20 -9
t-32 -7q-28 -4 -43 -8.5t-17 -18.5q28 -9 58.5 -13.5t52.5 -4.5zM139 255q12 -29 28 -52t32 -41l125 124q-12 15 -24 35.5t-24 45.5q-11 23 -19.5 33t-20.5 10q-19 0 -29 -19.5t-15 -54.5q-5 -38 -16.5 -55.5t-36.5 -25.5zM325 69q8 25 25.5 36.5t55.5 16.5q35 5 54.5 15
t19.5 29q0 12 -10 20.5t-33 19.5q-25 12 -45.5 24t-35.5 24l-124 -125q18 -16 41 -32t52 -28z" />
    <glyph glyph-name="uni270A" unicode="&#x270a;" horiz-adv-x="542" 
d="M469 242h1v-45l13 -8v-135l-11 -19l-48 -22l-25 16v-20l-14 -19q-8 -3 -39.5 -10.5t-78.5 -7.5q-29 0 -52 6.5t-39.5 15t-26.5 18t-15 15.5l-3 12v135l15 5v37l-119 166l-2 20l73 149l-5 66l13 19l110 33l107 -5l101 -41l74 -47l9 -18zM254 561l7 -24l-41 -88l55 -7
l22 185l-61 3l-3 -56zM165 615l31 -19l2 28zM389 596l-54 22l-22 -179l52 -3zM219 538l-65 39l-23 -46l66 -40zM404 437l53 4l14 107l-45 29zM181 457l-67 40l-50 -102l6 -9l41 30l26 -5l93 -129l-4 -26l-38 -27q17 -13 40.5 -17.5t44.5 -4.5q59 0 97.5 15t61.5 32l16 124
l-174 -81l-117 110zM93 355l69 -98l26 19l-70 97zM434 60l16 8v89l-16 -8v-89zM171 44q16 -15 43 -23.5t53 -8.5q8 0 15.5 0.5t15.5 1.5v96q-7 -1 -14 -1h-15q-33 0 -57 7t-41 16v-26q39 -26 92 -26v-40q-52 0 -92 23v-19zM358 117l-20 -3v-95q6 1 11 2t9 2v94z" />
    <glyph glyph-name="uni270B" unicode="&#x270b;" horiz-adv-x="811" 
d="M796 425l-8 -25l-186 -93l-73 -65h1v-45l13 -8v-135l-11 -19l-48 -22l-25 16v-20l-14 -19q-8 -3 -39.5 -10.5t-78.5 -7.5q-29 0 -52 6.5t-39.5 15t-26.5 18t-15 15.5l-3 12v135l15 5v44l-81 268l-110 223l8 25l92 47l26 -8l40 -75l-37 139l15 24l108 28l23 -14l31 -140
l2 162l19 18l112 -5l18 -19l-3 -144l25 103l22 14l110 -24l14 -23l-84 -329l26 -25l142 67l26 -9zM432 814l2 64l-73 4l-1 -67zM271 788l-14 64l-71 -18l16 -64zM598 812l-72 15l-12 -49l71 -17zM357 587l69 1l5 188l-71 1zM212 733l43 -166l61 15l-37 168zM143 691l-28 53
l-58 -30l27 -53zM575 723l-69 19l-40 -166l58 -53zM160 657l-59 -31l59 -119l82 -273q17 -16 42.5 -21.5t48.5 -5.5q33 0 59.5 5.5t47.5 13.5l-28 32l1 27l128 110l26 -1l42 -43l66 34l-33 70l-55 -26h-1v-1l-250 -70l-113 178zM709 402l45 23l-31 68l-46 -22zM453 269
l22 -25l99 89l-21 21zM494 60l16 8v89l-16 -8v-89zM231 44q16 -15 43 -23.5t53 -8.5q8 0 15.5 0.5t15.5 1.5v96q-7 -1 -14 -1h-15q-33 0 -57 7t-41 16v-26q39 -26 92 -26v-40q-52 0 -92 23v-19zM418 117l-20 -3v-95q6 1 11 2t9 2v94z" />
    <glyph glyph-name="uni270C" unicode="&#x270c;" horiz-adv-x="566" 
d="M489 242h1v-45l13 -8v-135l-11 -19l-48 -22l-25 16v-20l-14 -19q-8 -3 -39.5 -10.5t-78.5 -7.5q-29 0 -52 6.5t-39.5 15t-26.5 18t-15 15.5l-3 12v135l15 5v38l-119 166l-2 20l47 95l-67 342l15 22l108 24l23 -15l39 -184l8 206l20 18l116 -6l19 -20l-10 -226l158 -89
l10 -20zM330 800l3 68l-77 4l-3 -68zM151 780l-13 65l-73 -16l13 -66zM244 579l30 -18h34l16 85l5 116l-77 4zM159 742l-73 -16l34 -171l28 57l28 8l10 -6zM407 590l-50 28l-30 -164l55 -11zM217 491l22 47l-65 39l-23 -46zM421 437l55 -5l16 111l-49 27zM201 457l-67 40
l-52 -106l5 -7l44 32l26 -4l93 -129l-4 -26l-39 -27q18 -14 41.5 -18.5t44.5 -4.5q59 0 97 15t61 32l20 138l-97 -95l-196 111zM110 354l71 -97l27 19l-70 98zM454 60l16 8v89l-16 -8v-89zM191 44q16 -15 43 -23.5t53 -8.5q8 0 15.5 0.5t15.5 1.5v96q-7 -1 -14 -1h-15
q-33 0 -57 7t-41 16v-26q39 -26 92 -26v-40q-52 0 -92 23v-19zM378 117l-20 -3v-95q6 1 11 2t9 2v94z" />
    <glyph glyph-name="uni270D" unicode="&#x270d;" horiz-adv-x="888" 
d="M767 346l106 -211l-8 -25l-50 -26l15 -15l16 -72l-71 19l-16 17l-21 -11l-15 4l-3 -10l-18 -14h-87l-69 1l-1 -2l-17 -4l-52 23l-15 -6l-176 21l-8 -17h-29l-5 -10h-151l-17 8q-4 8 -11 21.5t-13.5 33.5t-11 47t-4.5 61q0 32 4.5 60t11 49.5t13.5 36.5t11 21l17 8h144
l7 -12h33v-1l143 51l-121 128q5 17 21.5 33t33.5 19l144 -152l14 5h12l233 -70zM779 237l-42 84l-204 61l75 -78l43 -10l15 -14l14 -61l40 -14zM440 320q-2 11 -2.5 17t-4.5 20l-67 -24q3 -9 5 -13.5t4 -12.5zM288 305q-10 -13 -18.5 -45.5t-8.5 -67.5q0 -42 3 -67.5
t12 -45.5l245 42l107 -29l30 94l-122 42l-92 -33l-13 37l53 18l32 39l-39 42l3 -25l-15 -20l-100 -20l-23 14q-3 10 -5 19t-7 21zM75 180q0 -41 8.5 -75.5t19.5 -56.5h28q-11 26 -18.5 59t-7.5 70q0 48 8 81.5t17 55.5h-27q-11 -21 -19.5 -59t-8.5 -75zM205 48
q-10 21 -19 55.5t-9 76.5q0 41 9 76t19 58h-34q-10 -23 -17.5 -56.5t-7.5 -77.5q0 -39 7.5 -73t17.5 -59h34zM787 114l1 -1l43 22l-34 68l-27 -15l19 -6l12 -25zM666 82l65 -18l29 86l-65 23zM501 51l25 -11l26 33l-29 8zM577 42h31l9 13l-25 7zM652 46l-3 -5h20z" />
    <glyph glyph-name="u1F3C6" unicode="&#x1f3c6;" horiz-adv-x="758" 
d="M529 310q-13 -10 -21 -17.5t-13 -16t-8.5 -19.5t-7.5 -26l-13 -51q50 -14 79 -50.5t29 -87.5v-39l-15 -19q-1 0 -11 -2.5t-31.5 -5t-55.5 -4.5t-82 -2t-82 2t-55.5 4.5t-31.5 5t-11 2.5l-15 19v39q0 51 29 87.5t79 50.5l-13 51q-4 17 -8.5 28.5t-9.5 19.5t-12.5 15
t-19.5 16q-48 37 -85 75.5t-62.5 80.5t-38.5 89.5t-13 102.5q0 34 7 71t20 70.5t32 61.5t43 45l30 -9l23 -56l94 55l10 2h180l10 -2l94 -55l23 56l30 9q24 -17 43 -45t32 -61.5t20 -70.5t7 -71q0 -55 -13 -102.5t-38.5 -89.5t-62.5 -80.5t-85 -75.5zM398 711l44 147h-126
l44 -147h38zM136 856q-7 -7 -13 -15.5t-12 -18.5q8 -35 31.5 -67t53.5 -52zM562 703q30 20 53.5 52t31.5 67q-6 10 -12 18.5t-13 15.5zM293 796l-16 52l-77 -45l23 -59l3 52h67zM558 803l-77 45l-16 -52h67l3 -52zM88 769q-5 -15 -8.5 -30.5t-5.5 -31.5q27 -40 80 -71l29 28
q-29 17 -55 46t-40 59zM684 707q-2 16 -5.5 31.5t-8.5 30.5q-14 -30 -40 -59t-55 -46l29 -28q53 31 80 71zM260 682l-68 -65l108 -120l22 -40l57 15l57 -15l22 40l108 120l-68 65l-4 74h-24l-10 -78l53 -58l-87 -85l-26 23l42 43l-21 59l-15 11h-54l-15 -11l-21 -62l44 -41
l-26 -23l-89 86l53 58l-10 78h-24zM70 649q1 -17 2.5 -32.5t4.5 -30.5q14 -8 30.5 -15.5t34.5 -13.5t35 -9.5t32 -5.5l-42 44q-58 25 -97 63zM681 586q3 15 4.5 30.5t2.5 32.5q-39 -38 -97 -63l-42 -44q15 2 32 5.5t35 9.5t35 13.5t30 15.5zM93 534q9 -25 22 -46
q20 -5 38 -5q26 0 55 2.5t49 9.5l-15 15q-4 -1 -8 -1h-8q-27 0 -63 5.5t-70 19.5zM643 488q13 21 22 46q-34 -14 -70 -19.5t-63 -5.5h-8t-8 1l-14 -15q20 -7 48.5 -9.5t54.5 -2.5q18 0 38 5zM179 407q34 8 64 20t47 22l-10 19q-31 -13 -66.5 -18.5t-67.5 -5.5q8 -9 16 -18.5
t17 -18.5zM468 449q17 -10 47 -22t64 -20q9 9 17 18.5t16 18.5q-32 0 -67.5 5.5t-66.5 18.5zM414 119l9 50l43 182l-43 65l-44 14l-44 -14l-43 -65l43 -182l9 -50h70zM254 366l23 34q-15 -7 -31 -13t-33 -12q9 -8 19 -16.5t21 -16.5zM504 366l1 -24q11 8 21 16.5t19 16.5
q-17 6 -33 12t-31 13zM534 46q-6 35 -25.5 60.5t-49.5 34.5l-10 -50l-18 -12h-104l-18 12l-10 50q-30 -9 -49.5 -34.5t-25.5 -60.5v-26q17 -3 54 -6.5t101 -3.5t101 3.5t54 6.5v26z" />
    <glyph glyph-name="u1F446" unicode="&#x1f446;" horiz-adv-x="546" 
d="M521 403l-2 -20l-119 -166v-38l15 -5v-135l-3 -12q-4 -6 -14.5 -15.5t-27 -18t-39.5 -15t-52 -6.5q-47 0 -78.5 7.5t-39.5 10.5l-14 19v20l-25 -16l-48 22l-11 19v135l13 8v45h1l-42 309l11 20l206 106l96 -6l17 206l20 17l111 -11l18 -20l-32 -381zM469 783l5 65l-73 7
l-5 -65zM390 620l28 -8l31 -63l16 196l-72 7l-11 -137zM342 591l3 41l-69 6l-5 -189l56 -1l-42 89l7 24zM161 587l17 -146l54 5l4 180zM415 531l-23 46l-65 -39l22 -47zM140 437l-16 131l-49 -25l15 -110zM435 416l44 -31l5 6l-52 106l-67 -40l23 -49l-196 -111l-96 96
l19 -139q23 -17 61 -32t97 -15q21 0 44.5 4.5t41.5 18.5l-39 27l-4 26l93 129zM358 276l27 -19l71 96l-28 21zM96 68l16 -8v89l-16 8v-89zM279 12q26 0 53 8.5t43 23.5v19q-40 -23 -92 -23v40q53 0 92 26v26q-17 -9 -41 -16t-57 -7h-15t-14 1v-96q8 -1 15.5 -1.5t15.5 -0.5z
M188 117v-94q4 -1 9 -2t11 -2v95z" />
    <glyph glyph-name="u1F448" unicode="&#x1f448;" horiz-adv-x="945" 
d="M843 496l12 -3q6 -4 15.5 -14.5t18 -27t15 -39.5t6.5 -52q0 -47 -7.5 -78.5t-10.5 -39.5l-19 -14h-20l16 -25l-22 -48l-19 -11h-135l-8 13h-42l-318 -41l-19 10l-87 167l-7 76l-156 -13l-21 18l-10 114l17 22l308 26l121 46l17 -1l175 -100h40l5 15h135zM486 177l144 21
q17 23 31 61t14 95q0 23 -5.5 48t-20.5 42l-25 -41l-26 -8l-137 80l-7 27l24 40l-2 1l-105 -39l31 -72l77 28l107 -189zM616 465l-104 58l-15 -24l103 -62zM888 289v40h-20q1 8 1.5 15.5t0.5 15.5q0 26 -8.5 53t-23.5 43h-19q-14 24 -35 37l-22 -18q7 -8 14 -19h-26
q9 -17 16 -41t7 -57v-15t-1 -14h-17v-40h13l-3 -20h94q1 4 2 9t2 11h25zM335 491l-50 -19l33 -70l49 18zM177 405l94 8l-29 62l6 14l-79 -7zM131 479l-66 -6l7 -77l67 6zM802 364q0 53 -26 92h43q23 -40 23 -92h-40zM291 370l-3 6l-38 -4l5 -55l175 33l-6 50l-110 -40z
M868 329q-1 -11 -2 -21t-3 -19h-95q2 9 2.5 19t1.5 21h96zM295 229l147 27l-7 56l-167 -31zM443 219l-130 -25l20 -39l109 16zM725 177h89l8 16h-89z" />
    <glyph glyph-name="u1F449" unicode="&#x1f449;" horiz-adv-x="945" 
d="M595 536l308 -26l17 -22l-10 -114l-21 -18l-156 13l-7 -76l-87 -167l-19 -10l-318 41h-42l-8 -13h-135l-19 11l-22 48l16 25h-20l-19 14q-3 8 -10.5 39.5t-7.5 78.5q0 29 6.5 52t15 39.5t18 27t15.5 14.5l12 3h135l5 -15h40l175 100l17 1zM321 403l-25 41
q-15 -17 -20.5 -42t-5.5 -48q0 -57 14 -95t31 -61l144 -21l-100 94l107 189l77 -28l31 72l-105 39l-2 -1l24 -40l-7 -27l-137 -80zM345 437l103 62l-15 24l-104 -58zM660 472l-50 19l-32 -71l49 -18zM776 482l-79 7l6 -14l-29 -62l94 -8zM806 402l67 -6l7 77l-66 6zM107 456
q-15 -16 -23.5 -43t-8.5 -53q0 -8 0.5 -15.5t1.5 -15.5h96q-1 7 -1 14v15q0 33 7 57t16 41h-26q-26 -39 -26 -92h-40q0 52 23 92h-19zM515 350l175 -33l5 55l-38 4l-3 -6l-23 -10l-110 40zM677 281l-167 31l-7 -56l147 -27zM177 289h-95q1 -6 2 -11t2 -9h94zM503 171
l109 -16l20 39l-130 25zM123 193l8 -16h89l-8 16h-89z" />
    <glyph glyph-name="u1F44B" unicode="&#x1f44b;" horiz-adv-x="918" 
d="M675 746q-14 25 -30 45.5t-37.5 36.5t-50.5 29t-68 23l9 37q39 -10 70 -23t56.5 -31t46 -42t38.5 -57zM887 242l6 -21l-18 -50l-29 -6l14 -14l3 -24q-4 -8 -21 -35.5t-49 -60.5q-21 -21 -41.5 -32.5t-38.5 -17t-32 -6t-21 0.5l-11 6l-95 96l7 14l-31 31l-248 133l-236 79
l-11 24l32 98l24 12l80 -24l-123 72l-7 27l56 97l28 6l120 -77l-113 116l1 27l83 76l25 -1l100 -104l-55 90l5 25l95 61l27 -6l174 -293l34 2l54 148l24 11l104 -39l12 -24l-65 -198l-6 -95h1l32 -32l15 3zM619 713q-11 20 -23.5 36t-30 29t-40 23t-53.5 17l10 37
q32 -8 57.5 -18.5t46 -25.5t37.5 -34.5t31 -45.5zM390 818l-61 -41l26 -42l62 37zM272 701l-44 47l-55 -49l46 -48zM375 702l88 -145l80 3l-106 179zM774 654l-70 25l-17 -48l71 -26zM379 488l47 49l-128 136l-51 -49zM176 569l-55 35l-37 -63l56 -33zM191 397l-21 -63
l126 -43l251 -135q24 2 46 16t38 30q23 23 38 45.5t24 42.5l-43 3l-18 20l13 169l19 17l58 -1l24 72l-72 26l-21 -58v-1l-127 -226l-207 46zM320 401l33 53l-145 94l-35 -60zM672 330l32 -2l7 133h-29zM154 409l-57 18l-21 -61l57 -20zM785 275l63 -63l6 17l-63 62zM125 281
q23 -43 55.5 -67t90.5 -38l-9 -37q-63 15 -103 42.5t-68 80.5zM69 247q14 -25 30 -45t37.5 -36.5t50.5 -29.5t68 -22l-9 -37q-37 9 -68.5 21.5t-57 30.5t-46.5 42.5t-39 57.5zM799 69l28 28l-18 18q6 8 12 17l-67 66q-2 -4 -5 -8t-6 -9l-10 10l-28 -28l12 -12
q-5 -5 -10 -10.5t-10 -10.5q-23 -24 -45 -36t-40 -17l19 -19q-12 -3 -24 -3l2 -29q25 -6 51 2l14 -14q22 1 47 14.5t43 31.5q5 5 10.5 11t10.5 12zM809 115q-5 -8 -11 -16t-13 -16l-68 68q8 8 14.5 15.5t11.5 14.5zM742 77q-17 -17 -38 -30t-44 -19l-29 30q45 9 82 47z" />
    <glyph glyph-name="u1F44C" unicode="&#x1f44c;" 
d="M599 542l19 -83l1 -10l-75 -235h1v-29l10 -5v-151l-8 -17q-8 -4 -21.5 -11t-33.5 -13.5t-47 -11t-61 -4.5q-32 0 -60 4.5t-49.5 11t-36.5 13.5t-21 11l-8 17v144l12 7v25l-101 53l-8 8l-77 159l8 25l99 49l-30 97l12 24l142 42l-101 114l1 26l83 88h27l98 -103l-1 120
l19 19l102 -1l19 -19v-221l47 125l26 11l84 -38l11 -24zM475 825v63h-64v-55zM302 808l-39 41l-58 -60l37 -42zM475 787l-64 7v-46l64 -68v107zM329 780l-61 -62l39 -44l14 4l16 -2l141 -107l-22 -30l-133 100l-82 -24l24 -79l38 11l17 -3l79 -63l3 -26l-92 -121l-20 -7
l-75 22l-11 9l-17 32l-75 -37l20 -39l16 23l25 7l121 -65l7 -26l-20 -40q17 -6 41.5 -10.5t48.5 -4.5q27 0 47.5 1t36 4t28 8.5t24.5 14.5l8 25q-17 7 -32 12.5t-32 9.5l-15 23l27 141l20 15q50 -5 91 -16l6 20l-19 79zM638 756l-49 21l-15 -38l47 -28zM560 702l-30 -79
l41 -44l36 95zM229 525l-25 79l-51 -15l25 -79zM256 376l44 130l-115 -34l48 -89zM169 424l-20 36l-72 -35l18 -37zM562 398q-16 5 -30.5 8.5t-34.5 5.5l-20 -106q15 -5 24.5 -8t25.5 -10zM157 282l92 -48l10 20l-90 47zM515 142q-21 -10 -55.5 -19t-76.5 -9q-41 0 -76 9
t-58 19v-34q23 -10 56.5 -17.5t77.5 -7.5q39 0 73 7.5t59 17.5v34zM383 12q41 0 75.5 8.5t56.5 19.5v28q-26 -11 -59 -18.5t-70 -7.5q-48 0 -81.5 8t-55.5 17v-27q21 -11 59 -19.5t75 -8.5z" />
    <glyph glyph-name="u1F44D" unicode="&#x1f44d;" horiz-adv-x="725" 
d="M648 523l19 -14l33 -103l-5 -106l-41 -101l-46 -75l-19 -8l-286 37v1h-43l-8 -13h-135l-19 11l-22 48l16 25h-20l-19 14q-3 8 -10.5 39.5t-7.5 78.5q0 29 6.5 52t15 39.5t18 27t15.5 14.5l12 3h135l5 -15h41l45 65l-15 183l18 20l111 11l20 -17l26 -221zM432 666l-6 51
l-74 -7l5 -52zM303 358l-31 21q-1 -7 -1.5 -14t-0.5 -14q0 -60 16 -99t33 -62l121 -18l-80 173l93 150l-16 133l-77 -7l7 -74l41 -31l4 -26l-83 -127zM309 400l61 96l-19 14l-65 -94zM494 435l160 -9l-19 58l-124 -4zM107 453q-15 -16 -23.5 -43t-8.5 -53q0 -8 0.5 -15.5
t1.5 -15.5h96q-1 7 -1 14v15q0 33 7 57t16 41h-26q-26 -39 -26 -92h-40q0 52 23 92h-19zM481 398l-10 -50l187 -23l3 61zM465 310l4 -52l158 -24l22 53zM177 286h-95q1 -6 2 -11t2 -9h94zM475 167l108 -16l25 44l-136 23zM123 190l8 -16h89l-8 16h-89z" />
    <glyph glyph-name="u1F44E" unicode="&#x1f44e;" horiz-adv-x="725" 
d="M654 452l41 -101l5 -106l-33 -103l-19 -14l-160 4l-26 -221l-20 -17l-111 11l-18 20l15 183l-45 65h-41l-5 -15h-135l-12 3q-6 5 -15.5 15t-18 26.5t-15 39.5t-6.5 52q0 47 7.5 78.5t10.5 39.5l19 14h20l-16 25l22 48l19 11h135l8 -13h43v1l286 37l19 -8zM472 433l136 23
l-25 44l-108 -16zM440 479l-121 -18q-17 -23 -33 -62t-16 -99q0 -7 0.5 -14t1.5 -14l31 21l26 -5l83 -127l-4 -26l-41 -31l-7 -74l77 -7l16 133l-93 150zM220 477h-89l-8 -16h89zM649 364l-22 53l-158 -24l-4 -52zM180 385h-94q-1 -4 -2 -9t-2 -11h95zM471 303l10 -50
l180 12l-3 61zM195 198q-9 17 -16 41t-7 57v15t1 14h-96q-1 -8 -1.5 -15.5t-0.5 -15.5q0 -26 8.5 -53t23.5 -43h19q-23 40 -23 92h40q0 -53 26 -92h26zM286 235l65 -94l19 14l-61 96zM511 171l124 -4l19 58l-160 -9zM357 -7l-5 -52l74 -7l6 51z" />
    <glyph glyph-name="u1F45F" unicode="&#x1f45f;" horiz-adv-x="955" 
d="M842 326l-21 -13l114 -213l-3 -24l-47 -50l-14 -6q-57 0 -107 6l-36 -46l-56 12l-13 53l-19 6l-35 -30l-49 22l-1 39l-45 -30l-57 34l6 60q-32 25 -62.5 53.5t-62.5 62.5q-8 5 -39.5 28.5t-73.5 56.5l-35 -16l-41 35l9 36q0 1 -1 1l-54 -19l-47 47l19 54q-7 8 -13 15.5
t-11 15.5l-2 15q0 2 10.5 36.5t37.5 81.5q31 56 76 101q54 56 124 89l9 2h38l7 -1l144 -48h62l17 -10l29 -55l29 16l19 -36l-28 -16l31 -59l27 15l19 -35l-27 -15l32 -60l24 14l20 -34l-25 -15l31 -59l22 13l20 -35l-23 -13l32 -60l20 12zM337 801h-31q-12 -6 -24 -13
t-23 -15l244 -85l10 -10l252 -463l56 14l-35 64l-22 -13l-21 34l24 14l-31 60l-24 -14l-20 35l25 14l-32 60l-24 -14l-20 35l25 14l-32 60l-24 -14l-20 35l25 14l-31 59l-26 -14l-19 35l26 14l-24 45h-53l-6 1zM511 602l-222 -258q29 -23 48 -36.5t21 -14.5l195 232z
M618 405l-45 83l-186 -224q17 -17 32.5 -31t29.5 -27zM681 288l-43 81l-158 -188q14 -11 27.5 -20.5t26.5 -17.5l9 -6l4 -2l4 -2zM893 93l-53 99l-75 -18l-72 -96q38 -9 79.5 -13t89.5 -5z" />
    <glyph glyph-name="u1F4AA" unicode="&#x1f4aa;" horiz-adv-x="791" 
d="M786 172q0 -24 -8 -48.5t-18 -44.5t-18.5 -32.5t-9.5 -13.5l-13 -8q-22 -4 -59.5 -8.5t-81.5 -8t-89.5 -6t-83.5 -2.5q-101 0 -184.5 9.5t-143.5 28.5l-14 15q-11 51 -17 112t-6 119q0 73 7 141t23 125l4 9l109 109l20 5l175 -44l15 -20v-48l-6 -14l-75 -72l-19 -5
l-54 16q14 -49 25 -112t22 -132q33 62 88 96.5t128 34.5q100 0 173.5 -49t109.5 -145zM100 73q57 -17 138.5 -25.5t166.5 -6.5q42 0 83 2.5t76 5.5t63.5 6t46.5 5q-4 58 -21 105.5t-41.5 82.5t-53 56.5t-56.5 28.5q-81 0 -132.5 -47.5t-74.5 -126.5h-51q-5 45 -18.5 93
t-29 90t-31 73.5t-24.5 44.5l67 77h110l35 33v23l-149 38l-97 -97q-10 -40 -18 -106t-8 -145q0 -51 4 -103.5t15 -106.5z" />
    <glyph glyph-name="u1F595" unicode="&#x1f595;" horiz-adv-x="567" 
d="M542 556l-70 -344v-27l10 -5v-151l-8 -17q-8 -4 -21.5 -11t-33.5 -13.5t-47 -11t-61 -4.5q-32 0 -60 4.5t-49.5 11t-36.5 13.5t-21 11l-8 17v144l12 7v31l-113 208l2 22l51 64l-15 58l13 23l128 44l-8 253l18 20l116 3l20 -18l10 -249l160 -61zM325 809l-2 58l-79 -2
l2 -59zM111 417l-11 42l-26 -32l25 -46l38 27l28 -7l68 -120l-5 -26l-43 -29q12 -11 45 -19.5t68 -8.5q27 0 47.5 1t36.5 4.5t29 9t25 14.5l65 321l-156 59l-13 17l-5 146l-79 -3l5 -150l-13 -19l-126 -42l33 -130zM200 393l-33 113l10 22q32 16 64.5 23t68.5 7
q22 0 43 -2.5t39 -6.5t31.5 -8t19.5 -7l11 -23l-29 -115l-23 -13q-8 2 -34 5t-55 3q-18 0 -41 -2t-49 -10zM312 519q-27 -1 -51.5 -4.5t-52.5 -14.5l23 -79q41 9 80 9q29 0 49 -2.5t32 -4.5l21 81q-22 7 -49 11t-52 4zM117 347l48 -88l26 18l-49 88zM442 142
q-21 -10 -55.5 -19t-76.5 -9q-41 0 -76 9t-58 19v-34q23 -10 56.5 -17.5t77.5 -7.5q39 0 73 7.5t59 17.5v34zM310 12q41 0 75.5 8.5t56.5 19.5v28q-26 -11 -59 -18.5t-70 -7.5q-48 0 -81.5 8t-55.5 17v-27q21 -11 59 -19.5t75 -8.5z" />
    <glyph glyph-name="u1F596" unicode="&#x1f596;" horiz-adv-x="779" 
d="M755 387l-166 -76l-78 -69v-45l13 -8v-135l-11 -19l-48 -22l-25 16v-20l-14 -19q-8 -3 -39.5 -10.5t-78.5 -7.5q-29 0 -52 6.5t-39.5 15t-26.5 18t-15 15.5l-3 12v135l15 5v38l-82 304l-90 234l11 25l80 28l-14 40l10 24l104 42l25 -12l81 -232l52 240l24 14l109 -25
l14 -23l-5 -19l92 -17l16 -24l-77 -321l27 -25l131 54l24 -11l45 -101zM470 866l-73 17l-13 -62l72 -17zM226 802l-24 69l-68 -27l26 -67zM572 805l-74 15l-11 -51l72 -17zM338 609l72 -15l38 173l-72 17zM141 719l-21 54l-63 -23l22 -56zM174 740l58 -149l60 17l-54 157z
M550 714l-71 18l-33 -154l59 -54zM155 683l-62 -24l49 -125l79 -298q17 -17 43.5 -23t49.5 -6q33 0 60 5.5t47 13.5l-28 32l2 27l128 110l26 -1l41 -41l51 23l-31 70l-42 -17l-270 -80l-93 208zM676 393l46 21l-30 67l-47 -20zM435 269l21 -25l100 89l-22 21zM475 60l16 8
v89l-16 -8v-89zM212 44q16 -15 43 -23.5t53 -8.5q8 0 15.5 0.5t15.5 1.5v96q-7 -1 -14 -1h-15q-33 0 -57 7t-41 16v-26q39 -26 92 -26v-40q-52 0 -92 23v-19zM399 117l-20 -3v-95q6 1 11 2t9 2v94z" />
    <glyph glyph-name="u1F6E1" unicode="&#x1f6e1;" horiz-adv-x="796" 
d="M736 733q0 -168 -24.5 -297t-68.5 -223t-106 -154t-137 -89q-74 29 -136.5 89t-107.5 154t-70.5 223t-25.5 297l22 10q42 -36 75.5 -55.5t76.5 -19.5q26 0 51.5 12t46.5 32t35 45.5t17 52.5h28q3 -27 17 -52.5t35 -45.5t46.5 -32t51.5 -12q22 0 40.5 5t36.5 14.5t36 23.5
t39 32zM398 -1q77 27 135 93.5t97.5 160.5t59.5 209t20 241q-35 -28 -70.5 -44.5t-79.5 -16.5q-25 0 -50 9.5t-46 25.5t-38 38t-28 47q-10 -25 -27.5 -47t-38.5 -38t-45.5 -25.5t-50.5 -9.5q-44 0 -79.5 16.5t-70.5 44.5q0 -126 20 -241t59.5 -209t98 -160.5t134.5 -93.5z
M398 713q12 -20 29.5 -37.5t38.5 -30.5t44.5 -20.5t47.5 -7.5q32 0 65.5 9.5t58.5 26.5q-4 -103 -21 -201.5t-51 -182t-86 -147t-126 -96.5q-73 33 -125.5 96.5t-86.5 147t-51 182t-21 201.5q25 -17 58.5 -26.5t65.5 -9.5q24 0 47.5 7.5t44.5 20.5t38.5 30.5t29.5 37.5z
M398 54q64 30 109 85.5t75.5 129t47.5 161t25 181.5q-44 -19 -97 -19q-47 0 -86 21.5t-74 58.5q-35 -37 -74 -58.5t-86 -21.5q-53 0 -97 19q8 -94 25 -181.5t47.5 -161t75.5 -129t109 -85.5zM406 404l-189 117q3 -32 12.5 -81t25 -100.5t38 -98.5t50.5 -74h-29
q-30 35 -52.5 86t-38 106t-24 106.5t-10.5 87.5h27l120 -75l-14 91h206v-28h-176l9 -54q21 9 49 9q33 0 60.5 -15t45.5 -41l-24 -13q-8 13 -27.5 29t-54.5 16q-14 0 -24.5 -3t-21.5 -8l92 -57h68v-26h-148l17 -109q4 0 8 -0.5t9 -0.5q35 0 54.5 15.5t27.5 27.5l24 -11
q-18 -28 -45.5 -43t-60.5 -15q-55 0 -90.5 35.5t-35.5 90.5q0 25 7 45t19 37l23 -13q-11 -14 -17.5 -32.5t-6.5 -36.5q0 -27 14 -52.5t43 -38.5l-23 154l29 -18l1 -9h33zM469 366h49l25 -16q11 35 18 67.5t11 60t6 47t2 28.5h26q0 -12 -3 -39t-10 -61.5t-17 -74.5t-24 -78.5
t-31.5 -73.5t-39.5 -59h-29q28 31 48.5 72t35.5 86zM386 131l-14 104q6 -1 13 -2t14 -1l15 -101h-28z" />
    <glyph glyph-name="u1F918" unicode="&#x1f918;" horiz-adv-x="623" 
d="M585 855l13 -23l-57 -272l-34 -317l1 -1v-45l13 -8v-135l-11 -19l-48 -22l-25 16v-20l-14 -19q-8 -3 -39.5 -10.5t-78.5 -7.5q-29 0 -52 6.5t-39.5 15t-26.5 18t-15 15.5l-3 12v135l15 5v37l-147 166l-2 20l67 139l-59 299l15 22l109 24l23 -15l41 -201l98 8l88 -16
l44 203l24 14zM169 780l-13 65l-72 -16l13 -66zM558 822l-64 16l-13 -59l64 -17zM177 742l-72 -16l25 -128l7 14l27 8l43 -25zM194 464l-68 37l-52 -104l9 -10l31 29h27l109 -116l-2 -27l-34 -33l3 -4h1q17 -17 43.5 -23t49.5 -6q60 0 98 15t61 32l36 322l31 149l-64 16
l-27 -125v-49l21 -156l-109 -95l-190 92zM310 448l-1 189l-63 -4l5 -64l13 -8l7 -24l-15 -29l5 -55zM349 450l61 12v162l-63 10zM143 536l68 -37l18 39l-66 39zM109 358l80 -90l20 19l-83 88zM472 60l16 8v89l-16 -8v-89zM209 44q16 -15 43 -23.5t53 -8.5q8 0 15.5 0.5
t15.5 1.5v96q-7 -1 -14 -1h-15q-33 0 -57 7t-41 16v-26q39 -26 92 -26v-40q-52 0 -92 23v-19zM396 117l-20 -3v-95q6 1 11 2t9 2v94z" />
    <glyph glyph-name="u1F919" unicode="&#x1f919;" horiz-adv-x="806" 
d="M665 226l112 -29l14 -24l-33 -107l-22 -12l-436 101h-40l-8 -13h-135l-19 11l-22 48l16 25h-20l-19 14q-3 8 -10.5 39.5t-7.5 78.5q0 29 6.5 52t15 39.5t18 27t15.5 14.5l12 3h135l5 -15h45l1 -1l76 87l69 191l24 12l105 -35l12 -25l-59 -183l126 16l19 -12l34 -85
l-1 -127zM532 702l-69 24l-17 -48l71 -24zM315 384l-35 30q-6 -15 -8 -31t-2 -31q0 -60 16 -99t33 -62l326 -77l20 72l-232 59l-64 122l101 142l35 108l-72 25l-29 -81l34 -34l2 -26l-98 -115zM399 512l-16 17l-76 -87l19 -17zM482 439l169 9l-20 53l-139 -18zM107 454
q-15 -16 -23.5 -43t-8.5 -53q0 -8 0.5 -15.5t1.5 -15.5h96q-1 7 -1 14v15q0 33 7 57t16 41h-26q-26 -39 -26 -92h-40q0 52 23 92h-19zM475 399l-3 -43l183 -14l1 68zM469 318l-2 -42l162 -41l22 69zM177 287h-95q1 -6 2 -11t2 -9h94zM123 191l8 -16h89l-8 16h-89zM681 106
l46 -11l21 70l-47 12z" />
    <glyph glyph-name="u1F91A" unicode="&#x1f91a;" horiz-adv-x="811" 
d="M796 714l-110 -223l-81 -268v-44l15 -5v-135l-3 -12q-4 -6 -14.5 -15.5t-27 -18t-39.5 -15t-52 -6.5q-47 0 -78.5 7.5t-39.5 10.5l-14 19v20l-25 -16l-48 22l-11 19v135l13 8v45h1l-73 65l-186 93l-8 25l46 101l26 9l142 -67l26 25l-84 329l14 23l110 24l22 -14l25 -103
l-3 144l18 19l112 5l19 -18l2 -162l31 140l23 14l108 -28l15 -24l-37 -139l40 75l26 8l92 -47zM451 815l-1 67l-73 -4l2 -64zM625 834l-71 18l-14 -64l69 -18zM297 778l-12 49l-72 -15l13 -51zM451 777l-71 -1l5 -188l69 -1zM495 582l61 -15l43 166l-67 17zM754 714l-58 30
l-28 -53l59 -30zM287 523l58 53l-40 166l-69 -19zM651 507l59 119l-59 31l-63 -121l-113 -178l-250 70v1h-1l-55 26l-33 -70l66 -34l42 43l26 1l128 -110l1 -27l-28 -32q21 -8 47.5 -13.5t59.5 -5.5q23 0 48.5 5.5t42.5 21.5zM134 471l-46 22l-31 -68l45 -23zM358 269
l-100 85l-21 -21l99 -89zM301 68l16 -8v89l-16 8v-89zM484 12q26 0 53 8.5t43 23.5v19q-40 -23 -92 -23v40q53 0 92 26v26q-17 -9 -41 -16t-57 -7h-15t-14 1v-96q8 -1 15.5 -1.5t15.5 -0.5zM393 117v-94q4 -1 9 -2t11 -2v95z" />
    <glyph glyph-name="u1F91E" unicode="&#x1f91e;" horiz-adv-x="546" 
d="M469 242h1v-45l13 -8v-135l-11 -19l-48 -22l-25 16v-20l-14 -19q-8 -3 -39.5 -10.5t-78.5 -7.5q-29 0 -52 6.5t-39.5 15t-26.5 18t-15 15.5l-3 12v135l15 5v38l-119 165l-2 21l21 43l-16 49v12l91 235l-52 132l10 25l109 42l24 -9l5 -11l101 -39l12 -26l-37 -98l46 -97
l162 -91l10 -20zM155 828l26 70l-70 -27l20 -52zM192 820l72 -29l23 62l-72 27zM178 784l-110 -283l2 -6l58 117l28 8l36 -22l58 156zM288 561l15 84l-29 63l-49 -129l27 -17zM362 443l25 147l-49 28l-31 -165zM197 491l22 47l-65 39l-23 -46zM401 438l55 -6l16 111l-49 27z
M114 497l-52 -106l5 -7l44 32l26 -4l93 -129l-4 -26l-39 -27q18 -14 41.5 -18.5t44.5 -4.5q59 0 97 15t61 32l20 138l-97 -95l-196 111l23 49zM188 276l-70 97l-28 -20l71 -96zM434 60l16 8v89l-16 -8v-89zM171 44q16 -15 43 -23.5t53 -8.5q8 0 15.5 0.5t15.5 1.5v96
q-7 -1 -14 -1h-15q-33 0 -57 7t-41 16v-26q39 -26 92 -26v-40q-52 0 -92 23v-19zM358 117l-20 -3v-95q6 1 11 2t9 2v94z" />
    <glyph glyph-name="J.short" horiz-adv-x="431" 
d="M65 -8v122h25q59 0 90.5 44.5t31.5 129.5v459h129v-468q0 -137 -65 -212t-186 -75h-25z" />
    <glyph glyph-name="Jcircumflex.short" horiz-adv-x="431" 
d="M264 986h33l162 -127l-64 -62l-115 90l-114 -90l-64 62zM212 747h129v-468q0 -137 -65 -212t-186 -75h-25v122h25q59 0 90.5 44.5t31.5 129.5v459z" />
    <glyph glyph-name="i.loclTRK" horiz-adv-x="280" 
d="M140 616q-32 0 -53.5 22t-21.5 53t21.5 52.5t53.5 21.5q31 0 53 -21.5t22 -52.5t-22 -53t-53 -22zM200 0h-120v547h120v-547z" />
    <glyph glyph-name="a.ss01" horiz-adv-x="700" 
d="M500 547h120v-547h-120v90q-12 -20 -28.5 -38.5t-39.5 -33t-52.5 -23t-66.5 -8.5q-64 0 -114.5 21t-85.5 58.5t-54 90.5t-19 116t19 115.5t54 90.5t85.5 59t114.5 21q37 0 66.5 -8.5t52.5 -22.5t39.5 -33t28.5 -39v91zM334 96q77 0 120.5 48t45.5 129q-2 81 -45.5 128.5
t-120.5 47.5q-37 0 -68 -12.5t-53.5 -36t-34.5 -56t-12 -71.5q0 -40 12 -72.5t34.5 -55.5t53.5 -36t68 -13z" />
    <glyph glyph-name="aacute.ss01" horiz-adv-x="700" 
d="M469 848l38 -98l-244 -96l-40 98zM500 547h120v-547h-120v90q-12 -20 -28.5 -38.5t-39.5 -33t-52.5 -23t-66.5 -8.5q-64 0 -114.5 21t-85.5 58.5t-54 90.5t-19 116t19 115.5t54 90.5t85.5 59t114.5 21q37 0 66.5 -8.5t52.5 -22.5t39.5 -33t28.5 -39v91zM334 96
q77 0 120.5 48t45.5 129q-2 81 -45.5 128.5t-120.5 47.5q-37 0 -68 -12.5t-53.5 -36t-34.5 -56t-12 -71.5q0 -40 12 -72.5t34.5 -55.5t53.5 -36t68 -13z" />
    <glyph glyph-name="abreve.ss01" horiz-adv-x="700" 
d="M356 669q-69 0 -106.5 39.5t-48.5 108.5l76 18q10 -41 29.5 -58.5t49.5 -17.5t49.5 17.5t29.5 58.5l76 -18q-11 -69 -48.5 -108.5t-106.5 -39.5zM500 547h120v-547h-120v90q-12 -20 -28.5 -38.5t-39.5 -33t-52.5 -23t-66.5 -8.5q-64 0 -114.5 21t-85.5 58.5t-54 90.5
t-19 116t19 115.5t54 90.5t85.5 59t114.5 21q37 0 66.5 -8.5t52.5 -22.5t39.5 -33t28.5 -39v91zM334 96q77 0 120.5 48t45.5 129q-2 81 -45.5 128.5t-120.5 47.5q-37 0 -68 -12.5t-53.5 -36t-34.5 -56t-12 -71.5q0 -40 12 -72.5t34.5 -55.5t53.5 -36t68 -13z" />
    <glyph glyph-name="acircumflex.ss01" horiz-adv-x="700" 
d="M474 654l-115 90l-114 -90l-64 62l162 127h33l162 -127zM500 547h120v-547h-120v90q-12 -20 -28.5 -38.5t-39.5 -33t-52.5 -23t-66.5 -8.5q-64 0 -114.5 21t-85.5 58.5t-54 90.5t-19 116t19 115.5t54 90.5t85.5 59t114.5 21q37 0 66.5 -8.5t52.5 -22.5t39.5 -33t28.5 -39
v91zM334 96q77 0 120.5 48t45.5 129q-2 81 -45.5 128.5t-120.5 47.5q-37 0 -68 -12.5t-53.5 -36t-34.5 -56t-12 -71.5q0 -40 12 -72.5t34.5 -55.5t53.5 -36t68 -13z" />
    <glyph glyph-name="adieresis.ss01" horiz-adv-x="700" 
d="M267 677q-29 0 -49 20t-20 49q0 28 20 47.5t49 19.5q28 0 48 -19.5t20 -47.5q0 -29 -20 -49t-48 -20zM443 677q-29 0 -48.5 20t-19.5 49q0 28 19.5 47.5t48.5 19.5q28 0 48 -19.5t20 -47.5q0 -29 -20 -49t-48 -20zM500 547h120v-547h-120v90q-12 -20 -28.5 -38.5
t-39.5 -33t-52.5 -23t-66.5 -8.5q-64 0 -114.5 21t-85.5 58.5t-54 90.5t-19 116t19 115.5t54 90.5t85.5 59t114.5 21q37 0 66.5 -8.5t52.5 -22.5t39.5 -33t28.5 -39v91zM334 96q77 0 120.5 48t45.5 129q-2 81 -45.5 128.5t-120.5 47.5q-37 0 -68 -12.5t-53.5 -36t-34.5 -56
t-12 -71.5q0 -40 12 -72.5t34.5 -55.5t53.5 -36t68 -13z" />
    <glyph glyph-name="uni1EA1.ss01" horiz-adv-x="700" 
d="M500 547h120v-547h-120v90q-12 -20 -28.5 -38.5t-39.5 -33t-52.5 -23t-66.5 -8.5q-64 0 -114.5 21t-85.5 58.5t-54 90.5t-19 116t19 115.5t54 90.5t85.5 59t114.5 21q37 0 66.5 -8.5t52.5 -22.5t39.5 -33t28.5 -39v91zM334 96q77 0 120.5 48t45.5 129q-2 81 -45.5 128.5
t-120.5 47.5q-37 0 -68 -12.5t-53.5 -36t-34.5 -56t-12 -71.5q0 -40 12 -72.5t34.5 -55.5t53.5 -36t68 -13zM380 -70q31 0 53 -21.5t22 -52.5t-22 -53t-53 -22q-32 0 -53.5 22t-21.5 53t21.5 52.5t53.5 21.5z" />
    <glyph glyph-name="agrave.ss01" horiz-adv-x="700" 
d="M231 848l246 -96l-40 -98l-244 96zM500 547h120v-547h-120v90q-12 -20 -28.5 -38.5t-39.5 -33t-52.5 -23t-66.5 -8.5q-64 0 -114.5 21t-85.5 58.5t-54 90.5t-19 116t19 115.5t54 90.5t85.5 59t114.5 21q37 0 66.5 -8.5t52.5 -22.5t39.5 -33t28.5 -39v91zM334 96
q77 0 120.5 48t45.5 129q-2 81 -45.5 128.5t-120.5 47.5q-37 0 -68 -12.5t-53.5 -36t-34.5 -56t-12 -71.5q0 -40 12 -72.5t34.5 -55.5t53.5 -36t68 -13z" />
    <glyph glyph-name="amacron.ss01" horiz-adv-x="700" 
d="M195 781h322v-86h-322v86zM500 547h120v-547h-120v90q-12 -20 -28.5 -38.5t-39.5 -33t-52.5 -23t-66.5 -8.5q-64 0 -114.5 21t-85.5 58.5t-54 90.5t-19 116t19 115.5t54 90.5t85.5 59t114.5 21q37 0 66.5 -8.5t52.5 -22.5t39.5 -33t28.5 -39v91zM334 96q77 0 120.5 48
t45.5 129q-2 81 -45.5 128.5t-120.5 47.5q-37 0 -68 -12.5t-53.5 -36t-34.5 -56t-12 -71.5q0 -40 12 -72.5t34.5 -55.5t53.5 -36t68 -13z" />
    <glyph glyph-name="aogonek.ss01" horiz-adv-x="700" 
d="M620 547v-547q-32 -12 -53 -22t-33 -19.5t-17 -18.5t-5 -19q0 -19 17 -30t51 -11h40v-88h-72q-64 0 -96.5 26.5t-32.5 73.5q0 31 18 58t63 50v90q-12 -20 -28.5 -38.5t-39.5 -33t-52.5 -23t-66.5 -8.5q-64 0 -114.5 21t-85.5 58.5t-54 90.5t-19 116t19 115.5t54 90.5
t85.5 59t114.5 21q37 0 66.5 -8.5t52.5 -22.5t39.5 -33t28.5 -39v91h120zM334 96q77 0 120.5 48t45.5 129q-2 81 -45.5 128.5t-120.5 47.5q-37 0 -68 -12.5t-53.5 -36t-34.5 -56t-12 -71.5q0 -40 12 -72.5t34.5 -55.5t53.5 -36t68 -13z" />
    <glyph glyph-name="aring.ss01" horiz-adv-x="700" 
d="M356 652q-26 0 -48.5 9.5t-39 26t-25.5 38.5t-9 48q0 25 9 47t25.5 38t39 25.5t48.5 9.5q27 0 49.5 -9.5t38 -25.5t24.5 -38t9 -47q0 -26 -9 -48t-24.5 -38.5t-38 -26t-49.5 -9.5zM356 821q-20 0 -34 -13.5t-14 -33.5t14 -34.5t34 -14.5t33.5 14.5t13.5 34.5t-13.5 33.5
t-33.5 13.5zM500 547h120v-547h-120v90q-12 -20 -28.5 -38.5t-39.5 -33t-52.5 -23t-66.5 -8.5q-64 0 -114.5 21t-85.5 58.5t-54 90.5t-19 116t19 115.5t54 90.5t85.5 59t114.5 21q37 0 66.5 -8.5t52.5 -22.5t39.5 -33t28.5 -39v91zM334 96q77 0 120.5 48t45.5 129
q-2 81 -45.5 128.5t-120.5 47.5q-37 0 -68 -12.5t-53.5 -36t-34.5 -56t-12 -71.5q0 -40 12 -72.5t34.5 -55.5t53.5 -36t68 -13z" />
    <glyph glyph-name="aringacute.ss01" horiz-adv-x="700" 
d="M449 1094l38 -98l-244 -96l-40 98zM234 774q0 25 9 47t25.5 38t39 25.5t48.5 9.5q27 0 49.5 -9.5t38 -25.5t24.5 -38t9 -47q0 -26 -9 -48t-24.5 -38.5t-38 -26t-49.5 -9.5q-26 0 -48.5 9.5t-39 26t-25.5 38.5t-9 48zM403 774q0 20 -13.5 33.5t-33.5 13.5t-34 -13.5
t-14 -33.5t14 -34.5t34 -14.5t33.5 14.5t13.5 34.5zM500 547h120v-547h-120v90q-12 -20 -28.5 -38.5t-39.5 -33t-52.5 -23t-66.5 -8.5q-64 0 -114.5 21t-85.5 58.5t-54 90.5t-19 116t19 115.5t54 90.5t85.5 59t114.5 21q37 0 66.5 -8.5t52.5 -22.5t39.5 -33t28.5 -39v91z
M334 96q77 0 120.5 48t45.5 129q-2 81 -45.5 128.5t-120.5 47.5q-37 0 -68 -12.5t-53.5 -36t-34.5 -56t-12 -71.5q0 -40 12 -72.5t34.5 -55.5t53.5 -36t68 -13z" />
    <glyph glyph-name="atilde.ss01" horiz-adv-x="700" 
d="M295 723q-34 0 -40 -47l-83 16q8 60 36 89.5t73 29.5q18 0 35.5 -5.5t46.5 -22.5q26 -14 37.5 -18.5t21.5 -4.5q30 0 37 46l83 -15q-8 -60 -36 -89.5t-70 -29.5q-20 0 -38.5 5.5t-46.5 21.5q-25 15 -35 19.5t-21 4.5zM500 547h120v-547h-120v90q-12 -20 -28.5 -38.5
t-39.5 -33t-52.5 -23t-66.5 -8.5q-64 0 -114.5 21t-85.5 58.5t-54 90.5t-19 116t19 115.5t54 90.5t85.5 59t114.5 21q37 0 66.5 -8.5t52.5 -22.5t39.5 -33t28.5 -39v91zM334 96q77 0 120.5 48t45.5 129q-2 81 -45.5 128.5t-120.5 47.5q-37 0 -68 -12.5t-53.5 -36t-34.5 -56
t-12 -71.5q0 -40 12 -72.5t34.5 -55.5t53.5 -36t68 -13z" />
    <glyph glyph-name="ordfeminine.ss01" horiz-adv-x="408" 
d="M187 381q-32 0 -60 11.5t-49 33.5t-33.5 55t-12.5 75t12.5 75t33.5 55t49 33.5t60 11.5q35 0 62.5 -13.5t45.5 -39.5v49h75v-342h-75v49q-18 -26 -45.5 -39.5t-62.5 -13.5zM204 652q-39 0 -65 -25.5t-26 -70.5q0 -44 26 -70t65 -26t65 25.5t26 70.5t-26 70.5t-65 25.5z
M56 255v77h316v-77h-316z" />
    <glyph glyph-name="one.lf" horiz-adv-x="414" 
d="M314 716v-716h-120v603h-164v113h284z" />
    <glyph glyph-name="zero.slash" 
d="M343 731q61 0 110 -18t83.5 -52.5t53 -84t18.5 -112.5v-212q0 -63 -18.5 -112t-53 -83.5t-83.5 -52.5t-110 -18t-110 18t-83.5 52.5t-53 83.5t-18.5 112v212q0 63 18.5 112.5t53 84t83.5 52.5t110 18zM343 622q-31 0 -57.5 -11t-46 -31.5t-30 -50t-10.5 -66.5v-193
l260 294q-20 28 -49.5 43t-66.5 15zM343 94q32 0 58 11t45.5 31.5t30 50t10.5 66.5v205l-265 -298q19 -32 50 -49t71 -17z" />
    <glyph glyph-name="zero.dnom" horiz-adv-x="390" 
d="M195 -9q-77 0 -120 41.5t-43 119.5v81q0 78 43 119.5t120 41.5t120 -41.5t43 -119.5v-81q0 -78 -43 -119.5t-120 -41.5zM195 80q28 0 45.5 19.5t17.5 56.5v73q0 36 -17.5 55.5t-45.5 19.5t-45.5 -19t-17.5 -56v-73q0 -37 17.5 -56.5t45.5 -19.5z" />
    <glyph glyph-name="one.dnom" horiz-adv-x="390" 
d="M259 385v-295h94v-90h-305v90h116v205h-108v90h203z" />
    <glyph glyph-name="two.dnom" horiz-adv-x="389" 
d="M192 90h161v-90h-308v83l152 110q30 22 40.5 36.5t10.5 28.5q0 18 -13.5 30t-37.5 12q-26 0 -41.5 -14.5t-15.5 -37.5h-99q0 62 41.5 102t116.5 40q72 0 110 -35t38 -87q0 -16 -4 -31t-14.5 -31t-28.5 -33.5t-46 -37.5z" />
    <glyph glyph-name="three.dnom" horiz-adv-x="390" 
d="M331 295l-84 -64q47 -8 74 -39t27 -76q0 -26 -11 -48t-31.5 -38.5t-48.5 -25.5t-62 -9q-66 0 -106 28.5t-57 73.5l92 27q17 -41 65 -41q25 0 42 14t17 34t-15.5 33t-39.5 13q-19 0 -36 -10l-36 46l110 82h-176v90h276v-90z" />
    <glyph glyph-name="four.dnom" horiz-adv-x="389" 
d="M314 143h59v-73h-59v-70h-91v70h-196v73l196 242h91v-242zM223 258l-92 -115h92v115z" />
    <glyph glyph-name="five.dnom" horiz-adv-x="390" 
d="M210 248q63 0 102 -33.5t39 -90.5q0 -28 -11 -51.5t-30.5 -40.5t-47.5 -27t-63 -10q-61 0 -102 27.5t-58 71.5l92 28q8 -20 25.5 -29.5t37.5 -9.5q23 0 40.5 13.5t17.5 34.5t-17 34.5t-41 13.5q-18 0 -32 -7t-23 -18h-78v231h265v-90h-183v-61q16 8 33 11t34 3z" />
    <glyph glyph-name="six.dnom" horiz-adv-x="390" 
d="M224 242q60 0 98 -31.5t38 -90.5q0 -57 -42.5 -91t-114.5 -34q-78 0 -121 41t-43 115v51q0 84 47 133.5t135 49.5h100v-90h-102q-38 0 -59.5 -20t-21.5 -50v-11q14 13 35.5 20.5t50.5 7.5zM201 72q27 0 43.5 14.5t16.5 37.5t-16.5 37t-43.5 14q-28 0 -44.5 -14t-16.5 -37
t16.5 -37.5t44.5 -14.5z" />
    <glyph glyph-name="seven.dnom" horiz-adv-x="390" 
d="M38 293v92h314v-92l-155 -293h-111l154 293h-202z" />
    <glyph glyph-name="eight.dnom" horiz-adv-x="390" 
d="M293 212q28 -14 45.5 -38.5t17.5 -61.5q0 -52 -42.5 -84t-118.5 -32t-118.5 32t-42.5 84q0 36 17.5 61t45.5 39q-18 12 -29 31t-11 45q0 42 35 71.5t103 29.5q67 0 102 -29.5t35 -71.5q0 -26 -10.5 -45t-28.5 -31zM195 312q-23 0 -36.5 -11t-13.5 -28t14 -27.5t36 -10.5
t36 10.5t14 27.5t-13.5 28t-36.5 11zM195 73q28 0 43.5 13.5t15.5 33.5t-16 33.5t-43 13.5q-28 0 -43.5 -13.5t-15.5 -33.5q0 -21 16 -34t43 -13z" />
    <glyph glyph-name="nine.dnom" horiz-adv-x="390" 
d="M187 390q78 0 121 -41t43 -115v-52q0 -84 -47 -133t-134 -49h-101v90h102q38 0 59.5 20t21.5 50v11q-14 -13 -35 -20.5t-50 -7.5q-60 0 -98.5 31t-38.5 91q0 57 42.5 91t114.5 34zM190 210q27 0 43.5 13.5t16.5 36.5q0 24 -16.5 38t-43.5 14t-44 -14t-17 -38
q0 -23 16.5 -36.5t44.5 -13.5z" />
    <glyph glyph-name="zero.numr" horiz-adv-x="390" 
d="M195 319q-77 0 -120 41.5t-43 119.5v81q0 78 43 119.5t120 41.5t120 -41.5t43 -119.5v-81q0 -78 -43 -119.5t-120 -41.5zM195 408q28 0 45.5 19.5t17.5 56.5v73q0 36 -17.5 55.5t-45.5 19.5t-45.5 -19t-17.5 -56v-73q0 -37 17.5 -56.5t45.5 -19.5z" />
    <glyph glyph-name="one.numr" horiz-adv-x="390" 
d="M259 713v-295h94v-90h-305v90h116v205h-108v90h203z" />
    <glyph glyph-name="two.numr" horiz-adv-x="389" 
d="M192 418h161v-90h-308v83l152 110q30 22 40.5 36.5t10.5 28.5q0 18 -13.5 30t-37.5 12q-26 0 -41.5 -14.5t-15.5 -37.5h-99q0 62 41.5 102t116.5 40q72 0 110 -35t38 -87q0 -16 -4 -31t-14.5 -31t-28.5 -33.5t-46 -37.5z" />
    <glyph glyph-name="three.numr" horiz-adv-x="390" 
d="M331 623l-84 -64q47 -8 74 -39t27 -76q0 -26 -11 -48t-31.5 -38.5t-48.5 -25.5t-62 -9q-66 0 -106 28.5t-57 73.5l92 27q17 -41 65 -41q25 0 42 14t17 34t-15.5 33t-39.5 13q-19 0 -36 -10l-36 46l110 82h-176v90h276v-90z" />
    <glyph glyph-name="four.numr" horiz-adv-x="389" 
d="M314 471h59v-73h-59v-70h-91v70h-196v73l196 242h91v-242zM223 586l-92 -115h92v115z" />
    <glyph glyph-name="five.numr" horiz-adv-x="390" 
d="M210 576q63 0 102 -33.5t39 -90.5q0 -28 -11 -51.5t-30.5 -40.5t-47.5 -27t-63 -10q-61 0 -102 27.5t-58 71.5l92 28q8 -20 25.5 -29.5t37.5 -9.5q23 0 40.5 13.5t17.5 34.5t-17 34.5t-41 13.5q-18 0 -32 -7t-23 -18h-78v231h265v-90h-183v-61q16 8 33 11t34 3z" />
    <glyph glyph-name="six.numr" horiz-adv-x="390" 
d="M224 570q60 0 98 -31.5t38 -90.5q0 -57 -42.5 -91t-114.5 -34q-78 0 -121 41t-43 115v51q0 84 47 133.5t135 49.5h100v-90h-102q-38 0 -59.5 -20t-21.5 -50v-11q14 13 35.5 20.5t50.5 7.5zM201 400q27 0 43.5 14.5t16.5 37.5t-16.5 37t-43.5 14q-28 0 -44.5 -14
t-16.5 -37t16.5 -37.5t44.5 -14.5z" />
    <glyph glyph-name="seven.numr" horiz-adv-x="390" 
d="M38 621v92h314v-92l-155 -293h-111l154 293h-202z" />
    <glyph glyph-name="eight.numr" horiz-adv-x="390" 
d="M293 540q28 -14 45.5 -38.5t17.5 -61.5q0 -52 -42.5 -84t-118.5 -32t-118.5 32t-42.5 84q0 36 17.5 61t45.5 39q-18 12 -29 31t-11 45q0 42 35 71.5t103 29.5q67 0 102 -29.5t35 -71.5q0 -26 -10.5 -45t-28.5 -31zM195 640q-23 0 -36.5 -11t-13.5 -28t14 -27.5t36 -10.5
t36 10.5t14 27.5t-13.5 28t-36.5 11zM195 401q28 0 43.5 13.5t15.5 33.5t-16 33.5t-43 13.5q-28 0 -43.5 -13.5t-15.5 -33.5q0 -21 16 -34t43 -13z" />
    <glyph glyph-name="nine.numr" horiz-adv-x="390" 
d="M187 718q78 0 121 -41t43 -115v-52q0 -84 -47 -133t-134 -49h-101v90h102q38 0 59.5 20t21.5 50v11q-14 -13 -35 -20.5t-50 -7.5q-60 0 -98.5 31t-38.5 91q0 57 42.5 91t114.5 34zM190 538q27 0 43.5 13.5t16.5 36.5q0 24 -16.5 38t-43.5 14t-44 -14t-17 -38
q0 -23 16.5 -36.5t44.5 -13.5z" />
    <glyph glyph-name="colon.case" horiz-adv-x="254" 
d="M127 424q-36 0 -61.5 26t-25.5 62q0 37 25.5 62t61.5 25q37 0 62 -25t25 -62q0 -36 -25 -62t-62 -26zM127 104q-36 0 -61.5 26t-25.5 62q0 37 25.5 62t61.5 25q37 0 62 -25t25 -62q0 -36 -25 -62t-62 -26z" />
    <glyph glyph-name="question.ss02" horiz-adv-x="558" 
d="M196 303q0 41 12 67t50 48l72 43q31 19 47.5 41.5t16.5 50.5q0 41 -30.5 69.5t-86.5 28.5q-54 0 -88.5 -30t-34.5 -77v-7h-134q0 48 18 89.5t51.5 72.5t82 48.5t109.5 17.5q58 0 104 -16t77.5 -43.5t48.5 -64t17 -78.5q0 -57 -23 -99.5t-74 -73.5l-69 -42
q-20 -13 -28.5 -26t-8.5 -33v-56q-25 17 -63 17q-19 0 -36.5 -4.5t-29.5 -12.5v70zM268 -13q-37 0 -63 26.5t-26 63.5t26 63t63 26t63 -26t26 -63t-26 -63.5t-63 -26.5z" />
    <glyph glyph-name="questiondown.ss02" horiz-adv-x="558" 
d="M290 421q-37 0 -63 26t-26 63t26 63.5t63 26.5t63 -26.5t26 -63.5t-26 -63t-63 -26zM277 -178q-58 0 -104 16t-77.5 43.5t-48.5 64t-17 78.5q0 57 23 99.5t74 73.5l69 42q20 13 28.5 26t8.5 33v56q25 -17 63 -17q19 0 36.5 4.5t29.5 12.5v-70q0 -21 -2.5 -37t-9.5 -29.5
t-19 -25.5t-31 -23l-72 -43q-31 -19 -47.5 -41.5t-16.5 -50.5q0 -41 30.5 -69.5t86.5 -28.5q54 0 88.5 30t34.5 77v7h134q0 -48 -18 -89.5t-51.5 -72.5t-82 -48.5t-109.5 -17.5z" />
    <glyph glyph-name="parenleft.case" horiz-adv-x="361" 
d="M268 -67q-100 80 -154 189.5t-54 250.5t54 251t154 189l67 -78q-74 -68 -116 -156.5t-42 -205.5t42 -205t116 -156z" />
    <glyph glyph-name="parenright.case" horiz-adv-x="361" 
d="M26 12q74 68 116 156t42 205t-42 205.5t-116 156.5l67 78q100 -79 154 -189t54 -251t-54 -250.5t-154 -189.5z" />
    <glyph glyph-name="braceleft.case" horiz-adv-x="439" 
d="M296 483q0 -83 -61 -112q61 -30 61 -113v-150q0 -32 14 -46t46 -14h58v-101h-83q-75 0 -110.5 36.5t-35.5 105.5v171q0 60 -60 60h-65v101h65q60 0 60 60v176q0 69 35.5 106t110.5 37h83v-101h-58q-32 0 -46 -14t-14 -46v-156z" />
    <glyph glyph-name="braceright.case" horiz-adv-x="439" 
d="M379 421v-101h-65q-60 0 -60 -60v-171q0 -69 -35.5 -105.5t-110.5 -36.5h-83v101h58q32 0 46 14t14 46v150q0 83 61 113q-61 29 -61 112v156q0 32 -14 46t-46 14h-58v101h83q75 0 110.5 -37t35.5 -106v-176q0 -60 60 -60h65z" />
    <glyph glyph-name="bracketleft.case" horiz-adv-x="398" 
d="M383 796v-97h-172v-656h172v-96h-283v849h283z" />
    <glyph glyph-name="bracketright.case" horiz-adv-x="398" 
d="M298 796v-849h-283v96h172v656h-172v97h283z" />
    <glyph glyph-name="hyphen.case" horiz-adv-x="438" 
d="M401 321h-364v98h364v-98z" />
    <glyph glyph-name="endash.case" horiz-adv-x="500" 
d="M500 321h-500v98h500v-98z" />
    <glyph glyph-name="emdash.case" horiz-adv-x="1000" 
d="M1000 321h-1000v98h1000v-98z" />
    <glyph glyph-name="guillemotleft.case" horiz-adv-x="581" 
d="M238 592l69 -65l-169 -168l169 -168l-69 -65l-228 228v10zM502 592l69 -65l-169 -168l169 -168l-69 -65l-228 228v10z" />
    <glyph glyph-name="guillemotright.case" horiz-adv-x="581" 
d="M79 592l228 -228v-10l-228 -228l-69 65l169 168l-169 168zM274 527l69 65l228 -228v-10l-228 -228l-69 65l169 168z" />
    <glyph glyph-name="guilsinglleft.case" horiz-adv-x="317" 
d="M238 592l69 -65l-169 -168l169 -168l-69 -65l-228 228v10z" />
    <glyph glyph-name="guilsinglright.case" horiz-adv-x="317" 
d="M10 527l69 65l228 -228v-10l-228 -228l-69 65l169 168z" />
    <glyph glyph-name="florin" 
d="M582 601h-93q-29 0 -43.5 -14t-18.5 -43l-11 -93h133v-84h-143l-48 -418q-8 -73 -46 -106t-112 -33h-96v115h77q29 0 43.5 14t18.5 43l45 385h-109v84h118l15 126q8 73 46 106t112 33h112v-115z" />
    <glyph glyph-name="at.case" horiz-adv-x="1020" 
d="M293 272q0 55 40.5 94t127.5 53l166 27q-2 48 -30.5 72t-74.5 24q-48 0 -75 -21t-31 -54h-98q2 33 16 61.5t39.5 49.5t62.5 33.5t85 12.5q95 0 150 -51t55 -153v-121q0 -25 11.5 -43t34.5 -18q35 0 61 42t26 130q0 74 -25 133t-70 100t-106.5 63t-135.5 22
q-81 0 -147 -26.5t-113 -73.5t-72.5 -113t-25.5 -144t26 -143t73 -112.5t112 -73.5t143 -26q64 0 112.5 13.5t93.5 40.5l42 -85q-54 -30 -113 -47.5t-137 -17.5q-103 0 -187 33t-144 93t-92.5 143t-32.5 182t33 182.5t93.5 143.5t145.5 93.5t189 33.5q97 0 178 -30t139 -84
t90 -129.5t32 -165.5q0 -66 -15 -117t-41.5 -86.5t-62.5 -53.5t-78 -18q-55 0 -89 25t-43 68q-23 -39 -71 -66t-110 -27q-73 0 -115 35t-42 97zM476 336q-45 -8 -63 -20.5t-18 -35.5q0 -18 16 -30t44 -12q33 0 63 8.5t53.5 24.5t38.5 39t17 52z" />
    <glyph glyph-name="u1F91E.locl" horiz-adv-x="578" 
d="M491 242h1v-45l13 -8v-135l-11 -19l-48 -22l-25 16v-20l-14 -19q-8 -3 -39.5 -10.5t-78.5 -7.5q-29 0 -52 6.5t-39.5 15t-26.5 18t-15 15.5l-3 12v135l15 5v38l-119 166l-2 20l26 99l-48 154l12 23l86 31l13 53l24 15l114 -28l14 -24l-5 -20l72 -23l7 -14l85 -25l6 -11
l77 -27l13 -22l-27 -102zM246 717l-77 18l-11 -45l4 -14l70 -18zM174 503l-50 167l-58 -21l52 -165zM276 460l7 27l43 165l-52 16l-51 -192zM175 634l27 -91l21 78zM336 538l-28 -107h-1v-1l56 -14l24 84l30 113l-56 17zM405 424l54 -12l42 164l-49 16zM99 448l-12 -50
l7 -10l39 28l27 -4l93 -129l-5 -26l-38 -28q17 -13 40.5 -17.5t44.5 -4.5q59 0 97 15t61 32l12 116l-178 -61l-93 136l-11 20l-71 -24zM210 276l-69 98l-25 -17l69 -100zM456 60l16 8v89l-16 -8v-89zM193 44q16 -15 43 -23.5t53 -8.5q8 0 15.5 0.5t15.5 1.5v96q-7 -1 -14 -1
h-15q-33 0 -57 7t-41 16v-26q39 -26 92 -26v-40q-52 0 -92 23v-19zM380 117l-20 -3v-95q6 1 11 2t9 2v94z" />
    <glyph glyph-name="at.ss01" horiz-adv-x="1020" 
d="M521 744q97 0 178 -30t139 -84t90 -129.5t32 -165.5q0 -68 -14.5 -121t-40.5 -89t-61 -54.5t-76 -18.5q-51 0 -84 25t-45 68q-8 -17 -21 -34t-32 -30t-44.5 -21t-58.5 -8q-51 0 -92 18t-69.5 50t-43.5 76t-15 97t15 97.5t43.5 77t69.5 50.5t92 18q60 0 95.5 -25t53.5 -56
v68h103v-312q0 -25 10.5 -43t37.5 -18q35 0 55.5 43.5t20.5 136.5q0 74 -25 133t-70 100t-106.5 63t-135.5 22q-81 0 -147 -26.5t-113 -73.5t-72.5 -113t-25.5 -144t26 -143t73 -112.5t112 -73.5t143 -26q64 0 112.5 13.5t93.5 40.5l42 -85q-54 -30 -113 -47.5t-137 -17.5
q-103 0 -187 33t-144 93t-92.5 143t-32.5 182t33 182.5t93.5 143.5t145.5 93.5t189 33.5zM500 148q63 0 96.5 39.5t35.5 102.5v3q-2 66 -37 106t-95 40t-97.5 -40.5t-37.5 -105.5t37.5 -105t97.5 -40z" />
    <glyph glyph-name="at.case.ss01" horiz-adv-x="1020" 
d="M293 272q0 55 40.5 94t127.5 53l166 27q-2 48 -30.5 72t-74.5 24q-48 0 -75 -21t-31 -54h-98q2 33 16 61.5t39.5 49.5t62.5 33.5t85 12.5q95 0 150 -51t55 -153v-121q0 -25 11.5 -43t34.5 -18q35 0 61 42t26 130q0 74 -25 133t-70 100t-106.5 63t-135.5 22
q-81 0 -147 -26.5t-113 -73.5t-72.5 -113t-25.5 -144t26 -143t73 -112.5t112 -73.5t143 -26q64 0 112.5 13.5t93.5 40.5l42 -85q-54 -30 -113 -47.5t-137 -17.5q-103 0 -187 33t-144 93t-92.5 143t-32.5 182t33 182.5t93.5 143.5t145.5 93.5t189 33.5q97 0 178 -30t139 -84
t90 -129.5t32 -165.5q0 -66 -15 -117t-41.5 -86.5t-62.5 -53.5t-78 -18q-55 0 -89 25t-43 68q-23 -39 -71 -66t-110 -27q-73 0 -115 35t-42 97zM476 336q-45 -8 -63 -20.5t-18 -35.5q0 -18 16 -30t44 -12q33 0 63 8.5t53.5 24.5t38.5 39t17 52z" />
    <glyph glyph-name="dotbelowcomb" horiz-adv-x="0" 
d="M-75 -219q-32 0 -53.5 22t-21.5 53t21.5 52.5t53.5 21.5q31 0 53 -21.5t22 -52.5t-22 -53t-53 -22z" />
    </font>
</defs>
</svg>
