<?xml version="1.0" standalone="no"?>
<!DOCTYPE svg PUBLIC "-//W3C//DTD SVG 1.1//EN" "http://www.w3.org/Graphics/SVG/1.1/DTD/svg11.dtd" >
<svg xmlns="http://www.w3.org/2000/svg" xmlns:xlink="http://www.w3.org/1999/xlink" version="1.1">
<metadata>
Created by FontForge 20170731 at Mon Nov 15 18:33:11 2021
 By Aleksey,,,
Copyright (c) 2020 by Naipe Foundry. All rights are reserved.	
</metadata>
<defs>
<font id="PacaembuBold" horiz-adv-x="397" >
  <font-face 
    font-family="Pacaembu Bold"
    font-weight="600"
    font-stretch="normal"
    units-per-em="1000"
    panose-1="0 0 0 0 0 0 0 0 0 0"
    ascent="800"
    descent="-200"
    x-height="559"
    cap-height="759"
    bbox="-410 -272 1260 1189"
    underline-thickness="50"
    underline-position="-175"
    unicode-range="U+0020-1F91E"
  />
<missing-glyph horiz-adv-x="999" 
d="M499 -244q-87 0 -159.5 27.5t-125.5 77.5t-82.5 120.5t-29.5 157.5v521q0 86 29.5 157t82.5 121t125.5 77.5t159.5 27.5t160 -27.5t126 -77.5t82.5 -121t29.5 -157v-521q0 -87 -29.5 -157.5t-82.5 -120.5t-126 -77.5t-160 -27.5zM213 790v-778h573v778h-573zM233 411v359
h119v-120h78q6 -24 25 -38.5t45 -14.5t44.5 14.5t24.5 38.5h78v120h119v-359h-175q-4 38 -28.5 60.5t-62.5 22.5t-63 -22.5t-29 -60.5h-175zM627 670h-255v100h40v-70h175v70h40v-100zM567 720h-135v50h135v-50zM499 616q-16 0 -28.5 9.5t-17.5 24.5h93q-6 -15 -18.5 -24.5
t-28.5 -9.5zM431 411q3 28 22 46t46 18q28 0 47 -18t22 -46h-137zM352 32h-119v359h175q4 -38 29 -60.5t63 -22.5t62.5 22.5t28.5 60.5h175v-359h-119v120h-78q-6 24 -24.5 38.5t-44.5 14.5t-45 -14.5t-25 -38.5h-78v-120zM499 327q-27 0 -46 18t-22 46h137q-3 -28 -22 -46
t-47 -18zM453 152q5 15 17.5 24.5t28.5 9.5q17 0 29 -9.5t18 -24.5h-93zM412 32h-40v100h255v-100h-40v70h-175v-70zM567 32h-135v50h135v-50z" />
    <glyph glyph-name="arrowleft" unicode="&#x3c;&#x2d;" horiz-adv-x="702" 
d="M311 446h363v-141h-362l152 -139l-100 -105l-336 307v16l336 306l100 -105z" />
    <glyph glyph-name="arrowright" unicode="&#x2d;&#x3e;" horiz-adv-x="702" 
d="M238 585l100 105l336 -306v-16l-336 -307l-100 105l152 139h-362v141h363z" />
    <glyph glyph-name="fi" unicode="fi" horiz-adv-x="729" 
d="M577 623q-44 0 -68.5 28t-24.5 66q0 39 24.5 66.5t68.5 27.5t69 -27.5t25 -66.5q0 -38 -25 -66t-69 -28zM120 559v67q0 82 46.5 129.5t133.5 47.5h109v-121h-77q-56 0 -56 -55v-68h117v-132h-117v-427h-156v427h-90v132h90zM500 0v572q15 -11 33.5 -17t44.5 -6t44.5 6
t33.5 17v-572h-156z" />
    <glyph glyph-name="fl" unicode="fl" horiz-adv-x="735" 
d="M120 559v67q0 82 46.5 129.5t133.5 47.5h109v-121h-77q-56 0 -56 -55v-68h117v-132h-117v-427h-156v427h-90v132h90zM502 0v795h156v-795h-156z" />
    <glyph glyph-name=".notdef" horiz-adv-x="999" 
d="M499 -244q-87 0 -159.5 27.5t-125.5 77.5t-82.5 120.5t-29.5 157.5v521q0 86 29.5 157t82.5 121t125.5 77.5t159.5 27.5t160 -27.5t126 -77.5t82.5 -121t29.5 -157v-521q0 -87 -29.5 -157.5t-82.5 -120.5t-126 -77.5t-160 -27.5zM213 790v-778h573v778h-573zM233 411v359
h119v-120h78q6 -24 25 -38.5t45 -14.5t44.5 14.5t24.5 38.5h78v120h119v-359h-175q-4 38 -28.5 60.5t-62.5 22.5t-63 -22.5t-29 -60.5h-175zM627 670h-255v100h40v-70h175v70h40v-100zM567 720h-135v50h135v-50zM499 616q-16 0 -28.5 9.5t-17.5 24.5h93q-6 -15 -18.5 -24.5
t-28.5 -9.5zM431 411q3 28 22 46t46 18q28 0 47 -18t22 -46h-137zM352 32h-119v359h175q4 -38 29 -60.5t63 -22.5t62.5 22.5t28.5 60.5h175v-359h-119v120h-78q-6 24 -24.5 38.5t-44.5 14.5t-45 -14.5t-25 -38.5h-78v-120zM499 327q-27 0 -46 18t-22 46h137q-3 -28 -22 -46
t-47 -18zM453 152q5 15 17.5 24.5t28.5 9.5q17 0 29 -9.5t18 -24.5h-93zM412 32h-40v100h255v-100h-40v70h-175v-70zM567 32h-135v50h135v-50z" />
    <glyph glyph-name=".null" horiz-adv-x="500" 
 />
    <glyph glyph-name="uni000D" horiz-adv-x="500" 
 />
    <glyph glyph-name="space" unicode=" " horiz-adv-x="336" 
 />
    <glyph glyph-name="exclam" unicode="!" horiz-adv-x="367" 
d="M103 759h161v-521q-29 23 -80 23q-24 0 -45.5 -6t-35.5 -17v521zM184 -11q-45 0 -73.5 30t-28.5 72q0 43 28.5 72.5t73.5 29.5t73 -29.5t28 -72.5q0 -21 -7.5 -39.5t-21 -32.5t-32 -22t-40.5 -8z" />
    <glyph glyph-name="quotedbl" unicode="&#x22;" horiz-adv-x="480" 
d="M205 514h-105l-51 118v190h156v-308zM431 514h-105l-51 118v190h156v-308z" />
    <glyph glyph-name="numbersign" unicode="#" horiz-adv-x="730" 
d="M705 574v-125h-115l-24 -160h101v-125h-119l-26 -181l-130 22l23 159h-157l-26 -180l-130 22l23 158h-100v125h118l23 160h-103v125h120l25 171l131 -23l-21 -148h156l24 170l131 -23l-21 -147h97zM276 289h157l23 160h-157z" />
    <glyph glyph-name="dollar" unicode="$" horiz-adv-x="702" 
d="M644 212q0 -86 -56.5 -145t-168.5 -73v-119h-128v119q-114 15 -173.5 78.5t-59.5 160.5h171q0 -49 34 -80.5t94 -31.5q58 0 87.5 25t29.5 63q0 33 -20.5 54.5t-74.5 32.5l-81 17q-63 13 -106.5 33t-70.5 48t-38.5 62.5t-11.5 75.5q0 84 55.5 140.5t164.5 70.5v119h128
v-121q104 -16 157.5 -76t53.5 -149h-171q0 45 -29.5 72.5t-83.5 27.5q-48 0 -75.5 -23.5t-27.5 -57.5q0 -32 20 -51t70 -32l84 -20q60 -14 103 -33.5t70.5 -46t40.5 -61t13 -79.5z" />
    <glyph glyph-name="percent" unicode="%" horiz-adv-x="863" 
d="M193 380q-41 0 -74.5 13.5t-57.5 37.5t-37.5 57.5t-13.5 72.5q0 41 13.5 74.5t37.5 57.5t57.5 37.5t74.5 13.5t74.5 -13.5t57 -37.5t36.5 -57.5t13 -74.5q0 -39 -13 -72.5t-36.5 -57.5t-57 -37.5t-74.5 -13.5zM218 0h-162l588 730h162zM192 488q29 0 51.5 21.5t22.5 53.5
q0 15 -6 28.5t-16.5 23.5t-23.5 16t-28 6q-32 0 -53 -21.5t-21 -52.5q0 -32 21 -53.5t53 -21.5zM678 -14q-41 0 -74.5 13.5t-57.5 37.5t-37.5 57.5t-13.5 73.5t13.5 73.5t37.5 57.5t57.5 37.5t74.5 13.5q42 0 75.5 -13.5t57 -37.5t36 -57.5t12.5 -73.5t-12.5 -73.5
t-36 -57.5t-57 -37.5t-75.5 -13.5zM678 94q29 0 51.5 21.5t22.5 53.5t-22.5 53t-51.5 21q-32 0 -53.5 -21t-21.5 -53t21.5 -53.5t53.5 -21.5z" />
    <glyph glyph-name="ampersand" unicode="&#x26;" horiz-adv-x="858" 
d="M845 92l-94 -125l-130 101q-52 -40 -119.5 -61t-148.5 -21q-72 0 -129 16.5t-96.5 46.5t-60.5 73t-21 97q0 58 35 111t107 88q-32 37 -45 70.5t-13 72.5q0 43 18 81.5t52 67t83.5 45.5t112.5 17q69 0 121.5 -19.5t88.5 -53t54 -78.5t18 -96h-174q0 51 -27 81.5t-78 30.5
q-47 0 -70.5 -24t-23.5 -58q0 -25 14.5 -47t50.5 -50l212 -163q14 53 14 117h175q0 -65 -13 -121t-37 -103zM371 123q73 0 128 41l-196 152q-5 4 -9.5 7.5t-9.5 7.5q-64 -29 -64 -95q0 -48 38 -80.5t113 -32.5z" />
    <glyph glyph-name="quotesingle" unicode="'" horiz-adv-x="254" 
d="M205 514h-105l-51 118v190h156v-308z" />
    <glyph glyph-name="parenleft" unicode="(" horiz-adv-x="400" 
d="M296 -232q-120 94 -183.5 229t-63.5 306t63.5 305.5t183.5 228.5l85 -103q-86 -78 -134.5 -184.5t-48.5 -246.5q0 -141 48.5 -247.5t134.5 -184.5z" />
    <glyph glyph-name="parenright" unicode=")" horiz-adv-x="400" 
d="M20 -129q85 78 133.5 184.5t48.5 247.5q0 140 -48.5 246.5t-133.5 184.5l85 103q119 -94 182.5 -228.5t63.5 -305.5t-63.5 -306t-182.5 -229z" />
    <glyph glyph-name="asterisk" unicode="*" horiz-adv-x="422" 
d="M211 499l-55 -95l-81 46l56 95h-109v91h108l-55 96l80 46l55 -97l58 97l79 -46l-55 -96h108v-91h-109l56 -95l-80 -46z" />
    <glyph glyph-name="plus" unicode="+" horiz-adv-x="702" 
d="M422 436h183v-134h-183v-186h-143v186h-182v134h182v186h143v-186z" />
    <glyph glyph-name="comma" unicode="," horiz-adv-x="252" 
d="M126 167q48 0 74.5 -33.5t26.5 -92.5q0 -71 -34.5 -117.5t-103.5 -66.5l-23 -7l-25 76l21 6q62 19 78 60q-5 -1 -9 -1.5t-9 -0.5q-42 0 -64.5 26t-22.5 62q0 38 24.5 63.5t66.5 25.5z" />
    <glyph glyph-name="hyphen" unicode="-" horiz-adv-x="446" 
d="M415 244h-384v127h384v-127z" />
    <glyph glyph-name="period" unicode="." horiz-adv-x="266" 
d="M133 -12q-45 0 -72.5 29.5t-27.5 71.5q0 43 27.5 72t72.5 29t72.5 -29t27.5 -72q0 -21 -7 -39t-20.5 -32t-31.5 -22t-41 -8z" />
    <glyph glyph-name="slash" unicode="/" horiz-adv-x="471" 
d="M176 0h-169l288 759h169z" />
    <glyph glyph-name="zero" unicode="0" horiz-adv-x="702" 
d="M351 -19q-135 0 -210.5 76.5t-75.5 218.5v178q0 142 75.5 218.5t210.5 76.5q134 0 210 -76.5t76 -218.5v-178q0 -142 -76 -218.5t-210 -76.5zM351 129q54 0 88.5 39.5t34.5 114.5v164q0 75 -34.5 114.5t-88.5 39.5t-88.5 -39.5t-34.5 -114.5v-164q0 -75 34.5 -114.5
t88.5 -39.5z" />
    <glyph glyph-name="one" unicode="1" horiz-adv-x="702" 
d="M457 730v-582h172v-148h-540v148h212v434h-199v148h355z" />
    <glyph glyph-name="two" unicode="2" horiz-adv-x="702" 
d="M332 148h296v-148h-539v137l290 234q42 35 58.5 64t16.5 62q0 41 -26 68t-74 27q-49 0 -78.5 -30.5t-29.5 -80.5h-162q0 57 18.5 104.5t54 82.5t86.5 54.5t115 19.5q62 0 110 -17.5t81 -49t50.5 -75.5t17.5 -96q0 -33 -8 -63t-25.5 -59.5t-46 -60t-69.5 -63.5z" />
    <glyph glyph-name="three" unicode="3" horiz-adv-x="702" 
d="M595 582l-159 -134q85 -16 135 -75.5t50 -145.5q0 -55 -20 -99t-56 -75.5t-87 -48.5t-113 -17q-56 0 -102 14t-82 39.5t-61 60t-40 75.5l149 51q35 -91 131 -91q54 0 85.5 28.5t31.5 76.5q0 45 -30 72.5t-81 27.5q-40 0 -69 -21l-77 92l206 170h-307v148h496v-148z" />
    <glyph glyph-name="four" unicode="4" horiz-adv-x="702" 
d="M563 260h105v-135h-105v-125h-153v125h-356v135l356 470h153v-470zM410 490l-173 -230h173v230z" />
    <glyph glyph-name="five" unicode="5" horiz-adv-x="702" 
d="M384 490q53 0 97.5 -17t77.5 -49.5t51.5 -78.5t18.5 -104q0 -55 -19.5 -102t-55.5 -80.5t-86 -52.5t-111 -19q-55 0 -101 14t-82 38.5t-61.5 59t-41.5 75.5l149 47q18 -42 51.5 -63.5t77.5 -21.5q52 0 84.5 30t32.5 80t-31.5 80.5t-84.5 30.5q-35 0 -63.5 -15.5
t-46.5 -39.5h-128v428h471v-148h-335v-126q58 34 136 34z" />
    <glyph glyph-name="six" unicode="6" horiz-adv-x="702" 
d="M403 476q54 0 99 -16.5t77.5 -47.5t51 -76.5t18.5 -104.5q0 -55 -20 -100.5t-56.5 -77t-88 -49t-114.5 -17.5q-68 0 -121.5 20t-91 57.5t-57.5 91.5t-20 123v108q0 79 21.5 142.5t62.5 108t102 68.5t139 24h173v-148h-177q-75 0 -117 -44.5t-42 -113.5v-4q26 26 65.5 41
t95.5 15zM366 128q55 0 88 29.5t33 80.5q0 48 -33 77t-88 29q-54 0 -87 -29t-33 -77q0 -51 33 -80.5t87 -29.5z" />
    <glyph glyph-name="seven" unicode="7" horiz-adv-x="702" 
d="M72 730h556v-150h-1l1 -1l-283 -579h-182l288 580h-379v150z" />
    <glyph glyph-name="eight" unicode="8" horiz-adv-x="702" 
d="M513 407q55 -27 89.5 -75.5t34.5 -119.5q0 -50 -20 -91.5t-57 -71t-90 -46t-119 -16.5q-67 0 -120 16.5t-90 46t-56.5 71t-19.5 91.5q0 70 35 119t89 76q-37 23 -59 60t-22 86q0 38 16 72.5t46.5 60.5t76 41.5t104.5 15.5t104.5 -15.5t76.5 -41.5t46.5 -60.5t15.5 -72.5
q0 -49 -22 -86t-59 -60zM351 605q-42 0 -68 -20t-26 -55q0 -34 26 -55t68 -21t67.5 21t25.5 55q0 35 -25.5 55t-67.5 20zM351 125q56 0 88 27t32 70t-32 72t-88 29q-57 0 -89 -29t-32 -72t32 -70t89 -27z" />
    <glyph glyph-name="nine" unicode="9" horiz-adv-x="702" 
d="M332 743q68 0 121.5 -20t91 -57.5t57.5 -91.5t20 -123v-108q0 -79 -21.5 -142.5t-63 -108t-102 -68.5t-138.5 -24h-173v148h177q37 0 66.5 12t49.5 33t31 50t11 63v3q-26 -26 -65.5 -40.5t-94.5 -14.5q-54 0 -99 16.5t-77.5 47.5t-51 77t-18.5 104q0 56 20 101t56.5 76.5
t88 49t114.5 17.5zM336 386q54 0 87 29t33 77q0 51 -33 80.5t-87 29.5q-55 0 -88 -29.5t-33 -80.5q0 -48 33 -77t88 -29z" />
    <glyph glyph-name="colon" unicode=":" horiz-adv-x="266" 
d="M133 373q-45 0 -72.5 29.5t-27.5 71.5t27.5 71.5t72.5 29.5t72.5 -29.5t27.5 -71.5q0 -21 -7 -39t-20.5 -32t-31.5 -22t-41 -8zM133 -9q-45 0 -72.5 29.5t-27.5 71.5t27.5 71.5t72.5 29.5t72.5 -29.5t27.5 -71.5q0 -21 -7 -39t-20.5 -32t-31.5 -22t-41 -8z" />
    <glyph glyph-name="semicolon" unicode=";" horiz-adv-x="264" 
d="M136 369q-44 0 -72 29.5t-28 71.5q0 21 7.5 39.5t21 32t31.5 21.5t40 8q45 0 73 -29.5t28 -71.5q0 -21 -7.5 -39t-20.5 -32t-31.5 -22t-41.5 -8zM126 167q48 0 74.5 -33.5t26.5 -92.5q0 -71 -34.5 -117.5t-103.5 -66.5l-23 -7l-25 76l21 6q62 19 78 60q-5 -1 -9 -1.5
t-9 -0.5q-42 0 -64.5 26t-22.5 62q0 38 24.5 63.5t66.5 25.5z" />
    <glyph glyph-name="less" unicode="&#x3c;" horiz-adv-x="702" 
d="M539 634l54 -137l-314 -128l314 -128l-54 -137l-431 184v162z" />
    <glyph glyph-name="equal" unicode="=" horiz-adv-x="702" 
d="M578 429h-454v128h454v-128zM578 181h-454v128h454v-128z" />
    <glyph glyph-name="greater" unicode="&#x3e;" horiz-adv-x="702" 
d="M109 497l54 137l431 -184v-162l-431 -184l-54 137l314 128z" />
    <glyph glyph-name="question" unicode="?" horiz-adv-x="543" 
d="M73 759h164q65 0 116.5 -17t87.5 -47.5t55 -74t19 -97.5q0 -95 -63 -154.5t-175 -68.5v-64q-17 12 -37.5 17.5t-43.5 5.5t-44 -5.5t-37 -17.5v190h118q46 0 76.5 24.5t30.5 72.5t-30.5 73t-76.5 25h-160v138zM201 193q22 0 40.5 -8t32 -22t21 -32.5t7.5 -39.5t-7.5 -39.5
t-21 -33t-32 -22.5t-40.5 -8q-45 0 -73.5 30.5t-28.5 72.5t28.5 72t73.5 30z" />
    <glyph glyph-name="at" unicode="@" horiz-adv-x="1045" 
d="M297 197q0 57 40.5 95.5t124.5 52.5l163 28q-1 40 -24.5 61.5t-65.5 21.5t-65 -18.5t-26 -47.5h-121q1 35 15 65.5t40.5 53.5t65.5 36t91 13q100 0 157.5 -54.5t57.5 -161.5v-113q0 -26 11.5 -42t31.5 -16q16 0 31 10.5t27 31.5t19 53.5t7 75.5q0 74 -25 132.5t-70 99.5
t-108 63t-139 22q-82 0 -149 -26.5t-114 -74.5t-73 -114t-26 -145t26.5 -144.5t74 -113t114 -74t146.5 -26.5q66 0 113 13t91 39l52 -100q-55 -30 -115 -48t-143 -18q-109 0 -198 34.5t-152.5 96.5t-98 149t-34.5 192t34.5 192t98 150t153 97.5t199.5 34.5
q104 0 189.5 -31.5t146 -88t93.5 -134t33 -170.5q0 -72 -16.5 -126t-46 -90.5t-69 -55t-84.5 -18.5q-57 0 -94.5 24t-51.5 63q-23 -36 -69 -61.5t-106 -25.5q-76 0 -119 36.5t-43 101.5zM496 259q-38 -7 -53.5 -18.5t-15.5 -31.5q0 -17 14.5 -28.5t40.5 -11.5q28 0 53 8
t44.5 22.5t31.5 35.5t14 47z" />
    <glyph glyph-name="A" unicode="A" horiz-adv-x="773" 
d="M767 0h-176l-48 135h-319l-48 -135h-170l289 759h184zM383 582l-107 -300h214z" />
    <glyph glyph-name="B" unicode="B" horiz-adv-x="741" 
d="M570 408q68 -25 99.5 -71.5t31.5 -114.5q0 -108 -74 -165t-209 -57h-332v759h318q121 0 186 -51.5t65 -144.5q0 -51 -21.5 -90t-63.5 -65zM255 622v-158h134q19 0 37.5 4t33.5 13.5t24 24t9 35.5q0 23 -9 38t-23 25t-32.5 14t-38.5 4h-135zM255 144h143q26 0 49.5 5
t41 16t27.5 28t10 40q0 25 -10.5 43t-28 29.5t-40.5 17t-49 5.5h-143v-184z" />
    <glyph glyph-name="C" unicode="C" horiz-adv-x="789" 
d="M404 -10q-80 0 -145.5 25.5t-112 75t-72 122t-25.5 166.5t25.5 167t72 122.5t111.5 75t144 25.5q80 0 143.5 -25t107.5 -66.5t68 -96t25 -114.5h-179q-3 29 -15 54.5t-33 45t-50.5 30.5t-66.5 11q-38 0 -70.5 -14.5t-56.5 -43t-37.5 -71.5t-13.5 -100t13.5 -99.5
t37.5 -71t56.5 -43t70.5 -14.5q37 0 66.5 11t50.5 30t33 45t15 55h179q-1 -60 -24.5 -114.5t-67.5 -96t-107 -66.5t-143 -25z" />
    <glyph glyph-name="D" unicode="D" horiz-adv-x="784" 
d="M336 759q94 0 168 -26t125.5 -75.5t78.5 -119.5t27 -159q0 -88 -27 -158.5t-78.5 -119.5t-125.5 -75t-168 -26h-250v759h250zM255 157h74q108 0 169.5 58.5t61.5 163.5q0 106 -61.5 164t-169.5 58h-74v-444z" />
    <glyph glyph-name="E" unicode="E" horiz-adv-x="688" 
d="M255 330v-176h381v-154h-550v759h544v-154h-375v-128h260v-147h-260z" />
    <glyph glyph-name="F" unicode="F" horiz-adv-x="659" 
d="M636 759v-162h-381v-142h266v-162h-266v-293h-169v759h550z" />
    <glyph glyph-name="G" unicode="G" horiz-adv-x="821" 
d="M410 287v135h362v-73q0 -82 -26 -148.5t-73 -113.5t-113.5 -72t-146.5 -25q-81 0 -148 27.5t-115 78t-74.5 122.5t-26.5 161q0 90 26.5 162t74.5 122.5t115 78t148 27.5q73 0 132 -19.5t102.5 -54t72.5 -81t42 -101.5h-186q-18 44 -59 72t-101 28q-43 0 -78 -15.5
t-60.5 -45t-39.5 -73t-14 -100.5t14.5 -100.5t40 -73t62 -45t79.5 -15.5q36 0 66 12t53.5 31.5t38.5 45t21 53.5h-189z" />
    <glyph glyph-name="H" unicode="H" horiz-adv-x="803" 
d="M549 506v253h169v-759h-169v345h-294v-345h-169v759h169v-253h294z" />
    <glyph glyph-name="I" unicode="I" horiz-adv-x="340" 
d="M255 0h-169v759h169v-759z" />
    <glyph glyph-name="J" unicode="J" horiz-adv-x="660" 
d="M306 -14q-67 0 -118.5 21t-86.5 59.5t-53 94t-18 124.5h169q0 -74 27 -113.5t80 -39.5t80.5 39t27.5 114v474h169v-472q0 -143 -71 -222t-206 -79z" />
    <glyph glyph-name="K" unicode="K" horiz-adv-x="753" 
d="M397 406l338 -407h-208l-272 327v-326h-169v759h169v-289l272 288h202z" />
    <glyph glyph-name="L" unicode="L" horiz-adv-x="629" 
d="M255 759v-598h348v-161h-517v759h169z" />
    <glyph glyph-name="M" unicode="M" horiz-adv-x="961" 
d="M480 431l217 328h178v-759h-169v497l-228 -338h-2l-228 340v-499h-162v759h177z" />
    <glyph glyph-name="N" unicode="N" horiz-adv-x="803" 
d="M549 393v366h169v-759h-169v133l-294 338v-471h-169v759h145z" />
    <glyph glyph-name="O" unicode="O" horiz-adv-x="822" 
d="M411 -10q-81 0 -147.5 26.5t-114.5 76.5t-74 122t-26 164t26 164.5t74 122.5t114.5 76.5t147.5 26.5t147.5 -26.5t114.5 -76.5t74 -122.5t26 -164.5t-26 -164t-74 -122t-114.5 -76.5t-147.5 -26.5zM411 150q39 0 73.5 15t59.5 44.5t39.5 72t14.5 97.5q0 56 -14.5 98.5
t-39.5 71.5t-59.5 44t-73.5 15q-40 0 -74 -15t-59 -44t-39.5 -71.5t-14.5 -98.5q0 -55 14.5 -97.5t39.5 -72t59 -44.5t74 -15z" />
    <glyph glyph-name="P" unicode="P" horiz-adv-x="700" 
d="M356 759q73 0 131.5 -20t99 -56.5t62.5 -88t22 -114.5q0 -62 -22 -112.5t-62.5 -86t-99 -55t-131.5 -19.5h-101v-207h-169v759h270zM255 339h97q31 0 57 9t45.5 26.5t30.5 44t11 61.5t-11 61t-30.5 44t-45.5 27t-57 9h-97v-282z" />
    <glyph glyph-name="Q" unicode="Q" horiz-adv-x="870" 
d="M821 85l-102 -114l-90 81q-44 -30 -97.5 -46t-116.5 -16q-82 0 -149.5 27t-115.5 77t-74.5 122.5t-26.5 162.5q0 91 26.5 163t74.5 122.5t115.5 77.5t149.5 27q81 0 148.5 -27t116 -77.5t75 -122.5t26.5 -163q0 -63 -13 -116t-37 -97zM415 137q50 0 93 23l-115 103
l103 114l108 -97q15 44 15 99q0 57 -15.5 100t-42.5 71.5t-63 43t-77 14.5q-42 0 -78.5 -15.5t-62.5 -45.5t-41 -73.5t-15 -100.5q0 -58 15 -102.5t40.5 -74t60.5 -44.5t75 -15z" />
    <glyph glyph-name="R" unicode="R" horiz-adv-x="742" 
d="M703 0h-198l-126 224h-124v-224h-169v759h296q66 0 120 -19t93 -54.5t60.5 -85t21.5 -110.5q0 -75 -32.5 -132t-91.5 -91zM255 614v-249h97q66 0 108 31t42 94q0 62 -42 93t-108 31h-97z" />
    <glyph glyph-name="S" unicode="S" horiz-adv-x="717" 
d="M363 -10q-74 0 -131 18t-96 51t-59 79t-20 101h175q0 -50 35 -82.5t97 -32.5q60 0 90 26t30 64q0 32 -21 52t-77 32l-83 17q-65 13 -109.5 35t-71.5 51.5t-39 66.5t-12 80q0 48 18.5 89t54.5 70t89.5 45.5t123.5 16.5t123.5 -17t90 -48.5t55 -74.5t18.5 -96h-175
q0 42 -30 68.5t-86 26.5q-49 0 -77.5 -22.5t-28.5 -54.5q0 -30 20.5 -49.5t72.5 -31.5l86 -20q124 -28 178.5 -83.5t54.5 -149.5q0 -49 -18.5 -91t-56 -72t-92.5 -47t-129 -17z" />
    <glyph glyph-name="T" unicode="T" horiz-adv-x="678" 
d="M30 759h618v-161h-225v-598h-169v598h-224v161z" />
    <glyph glyph-name="U" unicode="U" horiz-adv-x="748" 
d="M374 -10q-147 0 -222 80.5t-75 232.5v456h169v-448q0 -83 37.5 -122t93.5 -39t93.5 39t37.5 122v448h163v-456q0 -152 -75.5 -232.5t-221.5 -80.5z" />
    <glyph glyph-name="V" unicode="V" horiz-adv-x="767" 
d="M387 220l199 539h175l-282 -759h-191l-282 759h181z" />
    <glyph glyph-name="W" unicode="W" horiz-adv-x="1132" 
d="M798 272l146 487h175l-228 -759h-173l-159 521l-162 -521h-160l-223 759h182l141 -485l151 485h163z" />
    <glyph glyph-name="X" unicode="X" horiz-adv-x="764" 
d="M484 384l275 -384h-204l-183 255l-171 -255h-196l267 395l-261 364h204l169 -236l164 236h197z" />
    <glyph glyph-name="Y" unicode="Y" horiz-adv-x="711" 
d="M530 759h177l-267 -497v-262h-168v260l-267 499h182l172 -318z" />
    <glyph glyph-name="Z" unicode="Z" horiz-adv-x="749" 
d="M669 603l-391 -449h405v-154h-617v155l390 449h-375v155h588v-156z" />
    <glyph glyph-name="bracketleft" unicode="[" horiz-adv-x="412" 
d="M398 812v-127h-169v-771h169v-127h-312v1025h312z" />
    <glyph glyph-name="backslash" unicode="\" horiz-adv-x="471" 
d="M464 0h-169l-288 759h169z" />
    <glyph glyph-name="bracketright" unicode="]" horiz-adv-x="412" 
d="M326 812v-1025h-313v127h170v771h-170v127h313z" />
    <glyph glyph-name="asciicircum" unicode="^" horiz-adv-x="526" 
d="M289 479l168 -169l-102 -78l-92 96l-92 -96l-102 78l169 169h51z" />
    <glyph glyph-name="underscore" unicode="_" horiz-adv-x="770" 
d="M756 -137h-742v127h742v-127z" />
    <glyph glyph-name="grave" unicode="`" horiz-adv-x="289" 
d="M297 709l-41 -103l-256 90l48 127z" />
    <glyph glyph-name="a" unicode="a" horiz-adv-x="644" 
d="M324 569q121 0 187 -64.5t66 -185.5v-319h-156v61q-29 -34 -74.5 -52.5t-107.5 -18.5q-88 0 -139 41.5t-51 114.5q0 66 47 113.5t157 66.5l168 28q0 41 -24.5 63t-72.5 22q-46 0 -68.5 -18.5t-25.5 -50.5h-158q1 39 17.5 74.5t48 63.5t78 44.5t108.5 16.5zM278 116
q65 0 104 32.5t39 86.5v8l-128 -21q-50 -8 -67 -24.5t-17 -38.5q0 -19 17.5 -31t51.5 -12z" />
    <glyph glyph-name="b" unicode="b" horiz-adv-x="688" 
d="M407 572q54 0 99.5 -19t78.5 -56t51.5 -92t18.5 -126t-18.5 -125.5t-51.5 -92t-78.5 -56.5t-99.5 -19q-60 0 -103.5 21t-71.5 59v-66h-156v795h156v-302q28 37 71.5 58t103.5 21zM362 120q28 0 51.5 11.5t41 32t27 49.5t9.5 63q0 73 -36 114t-93 41q-58 0 -94 -40.5
t-36 -114.5q0 -70 36 -113t94 -43z" />
    <glyph glyph-name="c" unicode="c" horiz-adv-x="634" 
d="M321 -14q-67 0 -120.5 21t-91 59.5t-57 92.5t-19.5 120t19.5 120.5t57 92.5t91 59t120.5 21q60 0 110.5 -18t86.5 -49.5t57 -74.5t22 -92h-164q-5 43 -34.5 71t-77.5 28q-56 0 -90.5 -41t-34.5 -117q0 -75 34.5 -116t90.5 -41q48 0 77.5 28t34.5 70h164q-1 -49 -22 -91.5
t-57 -74t-86.5 -50t-110.5 -18.5z" />
    <glyph glyph-name="d" unicode="d" horiz-adv-x="685" 
d="M453 795h156v-795h-156v66q-28 -38 -71 -59t-102 -21q-54 0 -99.5 19t-78.5 56.5t-51 92t-18 125.5t18 126t51 92t78.5 56t99.5 19q59 0 102 -21t71 -58v302zM325 128q57 0 92.5 40t35.5 115t-35.5 115t-92.5 40t-93 -40.5t-36 -114.5q0 -73 36 -114t93 -41z" />
    <glyph glyph-name="e" unicode="e" horiz-adv-x="649" 
d="M611 233h-413q6 -51 38.5 -82t88.5 -31q82 0 109 50h166q-12 -39 -36.5 -72t-60 -57t-81 -37.5t-99.5 -13.5q-66 0 -119.5 20.5t-91.5 58.5t-58.5 91.5t-20.5 118.5t20.5 118.5t58 91.5t91 59t119.5 21t119.5 -20.5t91 -58t58 -91t20.5 -118.5v-48zM322 439
q-47 0 -79.5 -27.5t-42.5 -71.5h246q-8 48 -42 73.5t-82 25.5z" />
    <glyph glyph-name="f" unicode="f" horiz-adv-x="425" 
d="M409 682h-77q-56 0 -56 -55v-68h117v-132h-117v-427h-156v427h-90v132h90v67q0 82 46.5 129.5t133.5 47.5h109v-121z" />
    <glyph glyph-name="g" unicode="g" horiz-adv-x="678" 
d="M455 559h156v-593q0 -92 -52.5 -145t-144.5 -53h-266v132h241q66 0 66 66v115q-28 -36 -71 -57t-103 -21q-54 0 -99.5 18.5t-78.5 55t-51.5 90t-18.5 122.5t18.5 122t51.5 88.5t78.5 54t99.5 18.5q60 0 103 -20.5t71 -57.5v65zM326 144q58 0 93.5 40t35.5 109t-35.5 107
t-93.5 38q-57 0 -93.5 -38t-36.5 -107q0 -70 36.5 -109.5t93.5 -39.5z" />
    <glyph glyph-name="h" unicode="h" horiz-adv-x="679" 
d="M399 572q96 0 152.5 -65.5t56.5 -190.5v-316h-156v286q0 65 -28 99.5t-76 34.5t-77.5 -36t-29.5 -97l-1 7v-294h-156v795h156v-299q23 34 64 55t95 21z" />
    <glyph glyph-name="i" unicode="i" horiz-adv-x="303" 
d="M151 623q-44 0 -68.5 28t-24.5 66q0 39 24.5 66.5t68.5 27.5t69 -27.5t25 -66.5q0 -38 -25 -66t-69 -28zM230 0h-156v572q15 -11 33.5 -17t44.5 -6t45 6t33 17v-572z" />
    <glyph glyph-name="j" unicode="j" horiz-adv-x="313" 
d="M157 620q-42 0 -68.5 28.5t-26.5 68.5q0 41 26.5 68.5t68.5 27.5q43 0 69.5 -27.5t26.5 -68.5q0 -40 -26.5 -68.5t-69.5 -28.5zM-26 -232v138h54q53 0 53 52v614q15 -11 33 -17t44 -6t45 6t34 17l-1 -616q0 -88 -49.5 -138t-137.5 -50h-75z" />
    <glyph glyph-name="k" unicode="k" horiz-adv-x="626" 
d="M356 285l258 -285h-182l-200 218v-218h-156v795h156v-448l193 210h181z" />
    <glyph glyph-name="l" unicode="l" horiz-adv-x="309" 
d="M232 0h-156v795h156v-795z" />
    <glyph glyph-name="m" unicode="m" horiz-adv-x="998" 
d="M711 572q49 0 89 -18t68.5 -51t44 -80.5t15.5 -106.5v-316h-156v289q0 69 -25.5 104.5t-70.5 35.5q-43 0 -69.5 -36.5t-26.5 -102.5v-290h-156v289q0 69 -25.5 104.5t-70.5 35.5q-43 0 -69.5 -36.5t-26.5 -102.5v-290h-156v559h156v-61q22 33 58.5 53.5t86.5 20.5
q110 0 165 -88q26 39 69 63.5t100 24.5z" />
    <glyph glyph-name="n" unicode="n" horiz-adv-x="666" 
d="M391 572q96 0 152.5 -65.5t56.5 -190.5v-316h-156v286q0 65 -28 99.5t-76 34.5t-78 -36t-30 -97v-287h-156v559h156v-63q23 34 64 55t95 21z" />
    <glyph glyph-name="o" unicode="o" horiz-adv-x="655" 
d="M328 -14q-70 0 -125 22.5t-93 61.5t-57.5 92.5t-19.5 116.5t19.5 116.5t57.5 92.5t93 61.5t125 22.5t125 -22.5t92.5 -61.5t57 -92.5t19.5 -116.5t-19.5 -116.5t-57 -92.5t-92.5 -61.5t-125 -22.5zM328 128q61 0 96 41t35 110t-35 110t-96 41t-96.5 -41t-35.5 -110
t35.5 -110t96.5 -41z" />
    <glyph glyph-name="p" unicode="p" horiz-adv-x="685" 
d="M405 572q54 0 99.5 -19t78.5 -56t51 -92t18 -126t-18 -125.5t-51 -92t-78.5 -56.5t-99.5 -19q-59 0 -102 21t-71 59v-256h-156v749h156v-66q28 37 71 58t102 21zM360 120q57 0 93 41t36 115q0 73 -36 114t-93 41t-92.5 -40.5t-35.5 -114.5q0 -75 35.5 -115.5t92.5 -40.5z
" />
    <glyph glyph-name="q" unicode="q" horiz-adv-x="688" 
d="M455 559h156v-749h-156v255q-28 -37 -71 -58t-103 -21q-54 0 -99.5 19t-78.5 56.5t-51.5 92t-18.5 125.5t18.5 126t51.5 92t78.5 56t99.5 19q60 0 103 -20.5t71 -57.5v65zM326 128q58 0 93.5 40t35.5 115t-35.5 115t-93.5 40q-57 0 -93.5 -40.5t-36.5 -114.5
q0 -73 36.5 -114t93.5 -41z" />
    <glyph glyph-name="r" unicode="r" horiz-adv-x="466" 
d="M232 559v-76q26 42 75 65.5t122 23.5v-164h-63q-69 0 -101.5 -33.5t-32.5 -105.5v-269h-156v559h156z" />
    <glyph glyph-name="s" unicode="s" horiz-adv-x="579" 
d="M295 -12q-64 0 -111.5 14.5t-79.5 40t-48 61t-16 77.5h155q1 -31 26 -50t80 -19q42 0 62.5 13t20.5 34q0 23 -16 35.5t-65 20.5l-78 13q-49 8 -82.5 24t-53.5 37.5t-28.5 48.5t-8.5 57q0 37 15 69t45 55.5t74 37t102 13.5t103 -14.5t75.5 -39.5t46 -59t15.5 -74h-156
q-1 27 -23.5 45.5t-62.5 18.5q-38 0 -58 -12.5t-20 -32.5q0 -19 14 -30.5t61 -19.5l75 -12q54 -9 89 -25.5t56 -39t29 -50t8 -59.5q0 -82 -63 -130t-182 -48z" />
    <glyph glyph-name="t" unicode="t" horiz-adv-x="454" 
d="M297 559h121v-132h-121v-427h-156v427h-105v132h105v176h156v-176z" />
    <glyph glyph-name="u" unicode="u" horiz-adv-x="654" 
d="M422 559h156v-559h-156v60q-23 -33 -62.5 -53.5t-90.5 -20.5q-93 0 -148 66t-55 191v316h156v-287q0 -64 27 -98.5t72 -34.5t73 35.5t28 96.5v288z" />
    <glyph glyph-name="v" unicode="v" horiz-adv-x="619" 
d="M311 164l135 395h162l-204 -559h-188l-205 559h165z" />
    <glyph glyph-name="w" unicode="w" horiz-adv-x="881" 
d="M618 205l105 354h150l-164 -559h-157l-113 355l-114 -355h-153l-164 559h152l105 -356l110 356h134z" />
    <glyph glyph-name="x" unicode="x" horiz-adv-x="639" 
d="M440 559h178l-204 -281l202 -278h-184l-118 163l-115 -163h-178l203 286l-198 273h184l115 -158z" />
    <glyph glyph-name="y" unicode="y" horiz-adv-x="615" 
d="M308 211l145 348h151l-310 -743h-151l86 205l-218 538h157z" />
    <glyph glyph-name="z" unicode="z" horiz-adv-x="585" 
d="M522 427l-295 -295h301v-132h-471v132h1l289 295h-285v132h461v-132h-1z" />
    <glyph glyph-name="braceleft" unicode="{" horiz-adv-x="475" 
d="M333 420q0 -87 -72 -119q72 -33 72 -120v-204q0 -60 60 -60h58v-130h-83q-94 0 -136 44t-42 125v220q0 29 -15.5 44.5t-44.5 15.5h-66v129h66q29 0 44.5 15.5t15.5 44.5v224q0 81 42 125t136 44h83v-129h-58q-60 0 -60 -60v-209z" />
    <glyph glyph-name="bar" unicode="|" horiz-adv-x="236" 
d="M202 -190h-168v985h168v-985z" />
    <glyph glyph-name="braceright" unicode="}" horiz-adv-x="475" 
d="M411 365v-129h-67q-29 0 -44.5 -15.5t-15.5 -44.5v-220q0 -81 -42 -125t-136 -44h-83v130h58q60 0 60 60v204q0 86 72 120q-72 32 -72 119v209q0 60 -60 60h-58v129h83q94 0 136 -44t42 -125v-224q0 -29 15.5 -44.5t44.5 -15.5h67z" />
    <glyph glyph-name="asciitilde" unicode="~" horiz-adv-x="558" 
d="M384 256q-23 0 -45 6.5t-63 25.5q-19 9 -31 14t-20.5 7.5t-13.5 3.5t-11 1q-14 0 -26 -9.5t-16 -37.5l-108 28q7 78 38.5 112t85.5 34q11 0 21 -1.5t22 -5t27.5 -10t36.5 -15.5q19 -9 31 -14t20.5 -8t13.5 -4t11 -1q14 0 26.5 10t15.5 38l109 -29q-8 -78 -39.5 -111.5
t-84.5 -33.5z" />
    <glyph glyph-name="uni00A0" unicode="&#xa0;" horiz-adv-x="336" 
 />
    <glyph glyph-name="exclamdown" unicode="&#xa1;" horiz-adv-x="367" 
d="M184 368q-45 0 -73.5 29.5t-28.5 72.5q0 21 7.5 39.5t21 32.5t32.5 22t41 8t40.5 -8t32 -22t21 -32.5t7.5 -39.5q0 -43 -28 -72.5t-73 -29.5zM264 -198h-161v521q14 -11 35.5 -17t45.5 -6q51 0 80 23v-521z" />
    <glyph glyph-name="cent" unicode="&#xa2;" horiz-adv-x="702" 
d="M354 211q48 0 77.5 28t34.5 71h164q-1 -45 -19.5 -85.5t-50 -71.5t-75.5 -51t-98 -25l-24 -137l-156 26l24 131q-79 32 -122 102.5t-43 169.5q0 63 18 115t52 90t83 60.5t111 26.5l25 140l155 -25l-25 -140q66 -29 104.5 -84t40.5 -124h-164q-5 42 -34.5 70t-77.5 28
q-55 0 -90 -41t-35 -116t35 -116.5t90 -41.5z" />
    <glyph glyph-name="sterling" unicode="&#xa3;" horiz-adv-x="702" 
d="M307 275q0 -33 -10.5 -67t-29.5 -59h377v-149h-550v149q39 24 57.5 57t18.5 64v10h-111v126h62q-14 32 -20.5 57.5t-6.5 51.5q0 49 18.5 91.5t53.5 73.5t86 49t115 18q66 0 118 -20.5t88 -57t55 -86.5t19 -110h-162q0 62 -33 92t-83 30q-53 0 -82 -29.5t-29 -72.5
q0 -20 4 -40.5t13 -46.5h240v-126h-208v-5z" />
    <glyph glyph-name="currency" unicode="&#xa4;" horiz-adv-x="751" 
d="M639 369q0 -79 -33 -136l92 -97l-100 -99l-97 102q-54 -23 -123 -23q-70 0 -126 25l-99 -104l-100 99l93 98q-34 59 -34 135q0 78 36 137l-95 101l100 99l102 -108q54 24 123 24q66 0 119 -22l101 106l100 -99l-94 -100q35 -58 35 -138zM376 239q55 0 90 35t35 95
t-35 94.5t-90 34.5q-57 0 -91 -34.5t-34 -94.5t34 -95t91 -35z" />
    <glyph glyph-name="yen" unicode="&#xa5;" horiz-adv-x="702" 
d="M637 290h-207v-71h208v-113h-208v-106h-161v106h-206v113h206v71h-207v113h146l-185 327h183l144 -306l144 306h183l-186 -327h146v-113z" />
    <glyph glyph-name="brokenbar" unicode="&#xa6;" horiz-adv-x="236" 
d="M202 416h-168v379h168v-379zM202 -190h-168v400h168v-400z" />
    <glyph glyph-name="section" unicode="&#xa7;" horiz-adv-x="651" 
d="M596 600h-33q-38 0 -56 -18.5t-18 -48.5q0 -17 8 -45t35 -84q18 -38 29 -66.5t17 -50.5t8 -39.5t2 -35.5q0 -52 -21.5 -94.5t-64 -73t-106.5 -47.5t-150 -17h-191v129h47q38 0 56 19t18 48q0 9 -2 19t-7 24t-13.5 35t-20.5 52q-16 38 -26.5 66t-17 50t-9.5 39.5t-3 35.5
q0 52 21.5 94.5t64 73t107 47.5t149.5 17h177v-129zM329 117q55 12 80.5 42t25.5 72q0 12 -2 25t-8 31t-16 43.5t-26 61.5q-14 32 -23.5 55t-15 41t-7.5 32.5t-2 28.5q0 24 9 42q-57 -12 -83 -42t-26 -72q0 -12 2.5 -25.5t8 -31.5t15.5 -42.5t25 -59.5q15 -37 25 -63.5
t15.5 -45t7.5 -32t2 -24.5q0 -21 -7 -36z" />
    <glyph glyph-name="dieresis" unicode="&#xa8;" horiz-adv-x="459" 
d="M132 634q-35 0 -59 24.5t-24 58.5t24 57.5t59 23.5q33 0 57 -23.5t24 -57.5t-24 -58.5t-57 -24.5zM328 634q-35 0 -58.5 24.5t-23.5 58.5t23.5 57.5t58.5 23.5q33 0 57 -23.5t24 -57.5t-24 -58.5t-57 -24.5z" />
    <glyph glyph-name="copyright" unicode="&#xa9;" horiz-adv-x="1005" 
d="M502 -98q-101 0 -184.5 32.5t-143 91.5t-92.5 141.5t-33 182.5t33 182.5t92.5 141.5t143 91.5t184.5 32.5q102 0 185.5 -32.5t143 -91.5t92.5 -141.5t33 -182.5t-33 -182.5t-92.5 -141.5t-143 -91.5t-185.5 -32.5zM503 17q75 0 136.5 25t106 69t68.5 105t24 134t-24 134
t-68.5 105t-106 68.5t-136.5 24.5t-136.5 -24.5t-105.5 -68.5t-68.5 -105t-24.5 -134t24.5 -134t68.5 -105.5t105.5 -69t136.5 -24.5zM506 103q-58 0 -104 17.5t-78 50t-49 78t-17 100.5t17 100.5t49 77.5t78 50t104 18q52 0 95 -16t74.5 -43t49.5 -62.5t19 -74.5h-142
q-4 35 -30 57t-67 22q-48 0 -78 -33t-30 -96q0 -64 30 -96.5t78 -32.5q41 0 67 22t30 57h142q-1 -39 -19 -74.5t-49.5 -62.5t-74.5 -43t-95 -16z" />
    <glyph glyph-name="ordfeminine" unicode="&#xaa;" horiz-adv-x="413" 
d="M213 747q35 0 64 -9.5t51 -29t34 -49t12 -70.5v-199h-96v49q-18 -27 -50.5 -43t-71.5 -16q-54 0 -87.5 24t-33.5 75q0 47 32 72.5t97 36.5l114 20q-1 26 -18 41t-48 15q-28 0 -45 -12t-22 -32h-91q1 26 10.5 49t28.5 40t48.5 27.5t71.5 10.5zM176 457q33 0 62.5 23.5
t39.5 68.5l-88 -19q-32 -6 -44 -16.5t-12 -24.5t10 -23t32 -9zM362 236h-304v96h304v-96z" />
    <glyph glyph-name="guillemotleft" unicode="&#xab;" horiz-adv-x="631" 
d="M236 519l90 -85l-152 -154l152 -155l-90 -85l-228 234v10zM528 519l90 -85l-152 -154l152 -155l-90 -85l-228 234v10z" />
    <glyph glyph-name="logicalnot" unicode="&#xac;" horiz-adv-x="685" 
d="M72 407h536v-317h-136v185h-400v132z" />
    <glyph glyph-name="uni00AD" unicode="&#xad;" horiz-adv-x="446" 
d="M415 244h-384v127h384v-127z" />
    <glyph glyph-name="registered" unicode="&#xae;" horiz-adv-x="1005" 
d="M502 798q102 0 185.5 -32.5t143.5 -91.5t92.5 -141.5t32.5 -182.5t-32.5 -182.5t-92.5 -141.5t-143.5 -91.5t-185.5 -32.5q-101 0 -184.5 32.5t-143 91.5t-92.5 141.5t-33 182.5t33 182.5t92.5 141.5t143 91.5t184.5 32.5zM503 17q75 0 137 24.5t106 68.5t68 105.5
t24 134.5t-24 134t-68 105t-106 68.5t-137 24.5t-136.5 -24.5t-106 -68t-68.5 -104.5t-24 -135t24 -135t68.5 -105t106 -68.5t136.5 -24.5zM700 423q0 -47 -19 -83t-53 -59l87 -155h-132l-65 124h-75v-126h-110v471h184q41 0 74.5 -12.5t57.5 -35.5t37.5 -54.5t13.5 -69.5z
M443 501v-157h59q38 0 61 20.5t23 58.5t-23 58t-61 20h-59z" />
    <glyph glyph-name="macron" unicode="&#xaf;" horiz-adv-x="339" 
d="M339 646h-339v109h339v-109z" />
    <glyph glyph-name="degree" unicode="&#xb0;" horiz-adv-x="311" 
d="M157 512q-29 0 -53.5 10t-42 27.5t-27.5 41.5t-10 52q0 29 10 53t27.5 42t42 28t53.5 10q60 0 95.5 -38t35.5 -95q0 -28 -9 -52t-26.5 -41.5t-41.5 -27.5t-54 -10zM156 592q20 0 35.5 15t15.5 38q0 21 -15.5 36t-35.5 15q-22 0 -37 -15t-15 -36q0 -23 15 -38t37 -15z" />
    <glyph glyph-name="plusminus" unicode="&#xb1;" horiz-adv-x="702" 
d="M422 689v-166h182v-122h-182v-166h-143v166h-182v122h182v166h143zM604 69h-507v122h507v-122z" />
    <glyph glyph-name="twosuperior" unicode="&#xb2;" 
d="M213 477h151v-97h-319v89l155 111q26 19 36 31.5t10 26.5q0 17 -12 27t-33 10q-23 0 -37 -13.5t-14 -35.5h-112q0 33 11.5 60.5t32.5 47.5t52 31t70 11q74 0 114 -36t40 -92q0 -34 -18.5 -64t-66.5 -64z" />
    <glyph glyph-name="threesuperior" unicode="&#xb3;" 
d="M339 674l-81 -61q46 -10 72 -40.5t26 -74.5q0 -54 -42.5 -88.5t-114.5 -34.5q-69 0 -111 29t-59 75l104 29q16 -34 59 -34q23 0 37 12t14 29t-13 28t-36 11q-18 0 -35 -10l-38 51l110 79h-177v97h285v-97z" />
    <glyph glyph-name="acute" unicode="&#xb4;" horiz-adv-x="297" 
d="M297 696l-256 -90l-41 103l249 114z" />
    <glyph glyph-name="paragraph" unicode="&#xb6;" horiz-adv-x="782" 
d="M722 730v-737h-143v602h-94v-602h-144v197h-1q-148 0 -224 71t-76 199t76 199t224 71h382zM196 460q0 -66 38.5 -99.5t106.5 -35.5v270q-68 -2 -106.5 -35.5t-38.5 -99.5z" />
    <glyph glyph-name="periodcentered" unicode="&#xb7;" horiz-adv-x="266" 
d="M133 286q-45 0 -72.5 29.5t-27.5 71.5t27.5 71.5t72.5 29.5t72.5 -29.5t27.5 -71.5q0 -21 -7 -39t-20.5 -32t-31.5 -22t-41 -8z" />
    <glyph glyph-name="cedilla" unicode="&#xb8;" horiz-adv-x="243" 
d="M150 33l-23 -69q57 -2 89 -28.5t32 -73.5q0 -52 -42 -82t-114 -30h-87v74h57q33 0 48 11t15 30q0 18 -14.5 27.5t-46.5 9.5h-45l45 131h86z" />
    <glyph glyph-name="onesuperior" unicode="&#xb9;" 
d="M269 771v-294h93v-97h-320v97h116v197h-106v97h217z" />
    <glyph glyph-name="ordmasculine" unicode="&#xba;" horiz-adv-x="431" 
d="M216 382q-41 0 -74.5 13.5t-57 37.5t-36.5 57.5t-13 73.5t13 73.5t36.5 58t57 38t74.5 13.5q40 0 73 -13.5t57 -38t37 -58t13 -73.5t-13 -73.5t-37 -57.5t-57 -37.5t-73 -13.5zM216 478q34 0 57 24.5t23 61.5q0 38 -23 62t-57 24q-35 0 -58 -24t-23 -62q0 -37 23 -61.5
t58 -24.5zM369 236h-308v96h308v-96z" />
    <glyph glyph-name="guillemotright" unicode="&#xbb;" horiz-adv-x="631" 
d="M103 519l228 -235v-10l-228 -234l-89 85l151 155l-151 154zM305 434l90 85l228 -235v-10l-228 -234l-90 85l152 155z" />
    <glyph glyph-name="onequarter" unicode="&#xbc;" horiz-adv-x="923" 
d="M193 52l485 688l88 -62l-485 -688zM362 434v-97h-320v97h116v197h-106v97h217v-294h93zM830 152h58v-83h-58v-69h-106v69h-197v83l197 239h106v-239zM724 258l-85 -106h85v106z" />
    <glyph glyph-name="onehalf" unicode="&#xbd;" horiz-adv-x="961" 
d="M193 52l485 688l88 -62l-485 -688zM362 434v-97h-320v97h116v197h-106v97h217v-294h93zM775 97h151v-97h-319v89l155 112q26 19 36 31.5t10 25.5q0 17 -12 27t-33 10q-23 0 -37 -13t-14 -36h-112q0 33 11.5 60.5t32.5 47.5t52 31t70 11q74 0 114 -36t40 -92
q0 -33 -18.5 -63t-66.5 -65z" />
    <glyph glyph-name="threequarters" unicode="&#xbe;" horiz-adv-x="928" 
d="M192 52l486 688l88 -62l-485 -688zM356 456q0 -27 -11 -49.5t-31.5 -39t-49.5 -26t-65 -9.5q-69 0 -111 29.5t-59 74.5l104 29q16 -33 59 -33q23 0 37 11.5t14 28.5t-13 28t-36 11q-10 0 -18.5 -2.5t-16.5 -6.5l-38 51l109 78h-176v97h285v-97l-80 -61q45 -9 71 -40
t26 -74zM830 152h57v-83h-57v-69h-106v69h-197v83l197 239h106v-239zM724 258l-85 -106h85v106z" />
    <glyph glyph-name="questiondown" unicode="&#xbf;" horiz-adv-x="560" 
d="M361 413q-22 0 -41 8t-32.5 22t-21 32.5t-7.5 39.5t7.5 39.5t21 33t32.5 22.5t41 8t41 -8t32.5 -22.5t21 -33t7.5 -39.5t-7.5 -39.5t-21 -32.5t-32.5 -22t-41 -8zM489 -15v-138h-164q-65 0 -116.5 16.5t-87.5 47.5t-55.5 74t-19.5 97q0 47 16.5 86.5t47 68.5t75 47
t100.5 22v64q17 -12 37.5 -17.5t43.5 -5.5t44 5.5t37 17.5v-190h-119q-45 0 -76 -24.5t-31 -73.5q0 -48 31 -72.5t76 -24.5h161z" />
    <glyph glyph-name="Agrave" unicode="&#xc0;" horiz-adv-x="773" 
d="M269 1023l249 -114l-41 -103l-256 90zM767 0h-176l-48 135h-319l-48 -135h-170l289 759h184zM383 582l-107 -300h214z" />
    <glyph glyph-name="Aacute" unicode="&#xc1;" horiz-adv-x="773" 
d="M497 1023l49 -127l-257 -90l-40 103zM767 0h-176l-48 135h-319l-48 -135h-170l289 759h184zM383 582l-107 -300h214z" />
    <glyph glyph-name="Acircumflex" unicode="&#xc2;" horiz-adv-x="773" 
d="M502 805l-113 85l-113 -85l-81 79l176 132h36l176 -132zM767 0h-176l-48 135h-319l-48 -135h-170l289 759h184zM383 582l-107 -300h214z" />
    <glyph glyph-name="Atilde" unicode="&#xc3;" horiz-adv-x="773" 
d="M328 867q-32 0 -38 -42l-104 19q9 68 40.5 101t82.5 33q19 0 37 -5t47 -20q25 -12 36 -16t21 -4q30 0 36 42l104 -19q-9 -67 -41 -100.5t-80 -33.5q-20 0 -38.5 5t-47.5 19q-24 13 -34 17t-21 4zM767 0h-176l-48 135h-319l-48 -135h-170l289 759h184zM383 582l-107 -300
h214z" />
    <glyph glyph-name="Adieresis" unicode="&#xc4;" horiz-adv-x="773" 
d="M288 834q-34 0 -58 24.5t-24 58.5t24 57.5t58 23.5t58 -23.5t24 -57.5t-24 -58.5t-58 -24.5zM484 834q-34 0 -57.5 24.5t-23.5 58.5t23.5 57.5t57.5 23.5t58 -23.5t24 -57.5t-24 -58.5t-58 -24.5zM767 0h-176l-48 135h-319l-48 -135h-170l289 759h184zM383 582l-107 -300
h214z" />
    <glyph glyph-name="Aring" unicode="&#xc5;" horiz-adv-x="773" 
d="M387 800q-28 0 -52.5 10t-41.5 27.5t-27 41t-10 51.5t10 51.5t27 41t41.5 27.5t52.5 10q30 0 54 -10t41 -27.5t26 -41t9 -51.5t-9 -51.5t-26 -41t-41 -27.5t-54 -10zM387 975q-19 0 -32 -13t-13 -32t13 -32t32 -13q18 0 31 13t13 32t-13 32t-31 13zM767 0h-176l-48 135
h-319l-48 -135h-170l289 759h184zM383 582l-107 -300h214z" />
    <glyph glyph-name="AE" unicode="&#xc6;" horiz-adv-x="1112" 
d="M681 339l35 -182h360v-157h-512l-22 122h-293l-57 -122h-186l363 759h623v-157h-362l23 -122h252v-141h-224zM461 573l-146 -310h202z" />
    <glyph glyph-name="Ccedilla" unicode="&#xc7;" horiz-adv-x="789" 
d="M402 151q37 0 66.5 11t50.5 30t33 45t15 55h179q-1 -56 -22 -108t-60.5 -93t-95.5 -67.5t-128 -32.5l-9 -27q57 -2 89 -28.5t32 -73.5q0 -52 -42 -82t-114 -30h-87v74h57q33 0 48 11t15 30q0 18 -14.5 27.5t-46.5 9.5h-45l31 91q-69 8 -125.5 36.5t-96.5 77.5
t-61.5 117.5t-21.5 154.5q0 94 25.5 167t72 122.5t111.5 75t144 25.5q80 0 143.5 -25t107.5 -66.5t68 -96t25 -114.5h-179q-3 29 -15 54.5t-33 45t-50.5 30.5t-66.5 11q-38 0 -70.5 -14.5t-56.5 -43t-37.5 -71.5t-13.5 -100t13.5 -99.5t37.5 -71t56.5 -43t70.5 -14.5z" />
    <glyph glyph-name="Egrave" unicode="&#xc8;" horiz-adv-x="688" 
d="M245 1023l248 -114l-40 -103l-257 90zM255 330v-176h381v-154h-550v759h544v-154h-375v-128h260v-147h-260z" />
    <glyph glyph-name="Eacute" unicode="&#xc9;" horiz-adv-x="688" 
d="M473 1023l48 -127l-256 -90l-41 103zM255 330v-176h381v-154h-550v759h544v-154h-375v-128h260v-147h-260z" />
    <glyph glyph-name="Ecircumflex" unicode="&#xca;" horiz-adv-x="688" 
d="M477 805l-112 85l-113 -85l-82 79l177 132h35l177 -132zM255 330v-176h381v-154h-550v759h544v-154h-375v-128h260v-147h-260z" />
    <glyph glyph-name="Edieresis" unicode="&#xcb;" horiz-adv-x="688" 
d="M264 834q-34 0 -58 24.5t-24 58.5t24 57.5t58 23.5q33 0 57.5 -23.5t24.5 -57.5q0 -17 -6.5 -32t-18 -26.5t-26 -18t-31.5 -6.5zM460 834q-34 0 -58 24.5t-24 58.5t24 57.5t58 23.5t58 -23.5t24 -57.5t-24 -58.5t-58 -24.5zM255 330v-176h381v-154h-550v759h544v-154
h-375v-128h260v-147h-260z" />
    <glyph glyph-name="Igrave" unicode="&#xcc;" horiz-adv-x="340" 
d="M300 909l-40 -103l-256 90l48 127zM255 0h-169v759h169v-759z" />
    <glyph glyph-name="Iacute" unicode="&#xcd;" horiz-adv-x="340" 
d="M328 896l-256 -90l-41 103l249 114zM255 0h-169v759h169v-759z" />
    <glyph glyph-name="Icircumflex" unicode="&#xce;" horiz-adv-x="340" 
d="M154 1016h35l177 -132l-81 -79l-113 85l-113 -85l-82 79zM255 0h-169v759h169v-759z" />
    <glyph glyph-name="Idieresis" unicode="&#xcf;" horiz-adv-x="340" 
d="M71 834q-34 0 -58 24.5t-24 58.5t24 57.5t58 23.5t58 -23.5t24 -57.5t-24 -58.5t-58 -24.5zM267 834q-34 0 -57.5 24.5t-23.5 58.5t23.5 57.5t57.5 23.5t58 -23.5t24 -57.5t-24 -58.5t-58 -24.5zM255 0h-169v759h169v-759z" />
    <glyph glyph-name="Eth" unicode="&#xd0;" horiz-adv-x="784" 
d="M336 759q94 0 168 -26t125.5 -75.5t78.5 -119.5t27 -159q0 -88 -27 -158.5t-78.5 -119.5t-125.5 -75t-168 -26h-250v315h-89v138h89v306h250zM255 157h74q108 0 169.5 58.5t61.5 163.5q0 106 -61.5 164t-169.5 58h-74v-148h169v-138h-169v-158z" />
    <glyph glyph-name="Ntilde" unicode="&#xd1;" horiz-adv-x="803" 
d="M342 867q-32 0 -38 -42l-103 19q9 68 40.5 101t81.5 33q20 0 37.5 -5t46.5 -20q26 -12 36.5 -16t21.5 -4q29 0 36 42l104 -19q-9 -67 -41 -100.5t-80 -33.5q-20 0 -39 5t-47 19q-24 13 -34.5 17t-21.5 4zM549 393v366h169v-759h-169v133l-294 338v-471h-169v759h145z" />
    <glyph glyph-name="Ograve" unicode="&#xd2;" horiz-adv-x="822" 
d="M541 909l-40 -103l-257 90l49 127zM411 -10q-81 0 -147.5 26.5t-114.5 76.5t-74 122t-26 164t26 164.5t74 122.5t114.5 76.5t147.5 26.5t147.5 -26.5t114.5 -76.5t74 -122.5t26 -164.5t-26 -164t-74 -122t-114.5 -76.5t-147.5 -26.5zM411 150q39 0 73.5 15t59.5 44.5
t39.5 72t14.5 97.5q0 56 -14.5 98.5t-39.5 71.5t-59.5 44t-73.5 15q-40 0 -74 -15t-59 -44t-39.5 -71.5t-14.5 -98.5q0 -55 14.5 -97.5t39.5 -72t59 -44.5t74 -15z" />
    <glyph glyph-name="Oacute" unicode="&#xd3;" horiz-adv-x="822" 
d="M569 896l-256 -90l-41 103l249 114zM411 -10q-81 0 -147.5 26.5t-114.5 76.5t-74 122t-26 164t26 164.5t74 122.5t114.5 76.5t147.5 26.5t147.5 -26.5t114.5 -76.5t74 -122.5t26 -164.5t-26 -164t-74 -122t-114.5 -76.5t-147.5 -26.5zM411 150q39 0 73.5 15t59.5 44.5
t39.5 72t14.5 97.5q0 56 -14.5 98.5t-39.5 71.5t-59.5 44t-73.5 15q-40 0 -74 -15t-59 -44t-39.5 -71.5t-14.5 -98.5q0 -55 14.5 -97.5t39.5 -72t59 -44.5t74 -15z" />
    <glyph glyph-name="Ocircumflex" unicode="&#xd4;" horiz-adv-x="822" 
d="M525 805l-112 85l-113 -85l-82 79l177 132h35l177 -132zM411 769q81 0 147.5 -26.5t114.5 -76.5t74 -122.5t26 -164.5t-26 -164t-74 -122t-114.5 -76.5t-147.5 -26.5t-147.5 26.5t-114.5 76.5t-74 122t-26 164t26 164.5t74 122.5t114.5 76.5t147.5 26.5zM411 150
q39 0 73.5 15t59.5 44.5t39.5 72t14.5 97.5q0 56 -14.5 98.5t-39.5 71.5t-59.5 44t-73.5 15q-40 0 -74 -15t-59 -44t-39.5 -71.5t-14.5 -98.5q0 -55 14.5 -97.5t39.5 -72t59 -44.5t74 -15z" />
    <glyph glyph-name="Otilde" unicode="&#xd5;" horiz-adv-x="822" 
d="M493 822q-20 0 -39 5t-47 19q-24 13 -34.5 17t-21.5 4q-32 0 -38 -42l-103 19q9 68 40.5 101t81.5 33q20 0 37.5 -5t46.5 -20q26 -12 36.5 -16t21.5 -4q29 0 36 42l104 -19q-9 -67 -41 -100.5t-80 -33.5zM411 -10q-81 0 -147.5 26.5t-114.5 76.5t-74 122t-26 164
t26 164.5t74 122.5t114.5 76.5t147.5 26.5t147.5 -26.5t114.5 -76.5t74 -122.5t26 -164.5t-26 -164t-74 -122t-114.5 -76.5t-147.5 -26.5zM411 150q39 0 73.5 15t59.5 44.5t39.5 72t14.5 97.5q0 56 -14.5 98.5t-39.5 71.5t-59.5 44t-73.5 15q-40 0 -74 -15t-59 -44
t-39.5 -71.5t-14.5 -98.5q0 -55 14.5 -97.5t39.5 -72t59 -44.5t74 -15z" />
    <glyph glyph-name="Odieresis" unicode="&#xd6;" horiz-adv-x="822" 
d="M312 834q-34 0 -58 24.5t-24 58.5t24 57.5t58 23.5t58 -23.5t24 -57.5t-24 -58.5t-58 -24.5zM508 834q-34 0 -58 24.5t-24 58.5t24 57.5t58 23.5t58 -23.5t24 -57.5t-24 -58.5t-58 -24.5zM411 -10q-81 0 -147.5 26.5t-114.5 76.5t-74 122t-26 164t26 164.5t74 122.5
t114.5 76.5t147.5 26.5t147.5 -26.5t114.5 -76.5t74 -122.5t26 -164.5t-26 -164t-74 -122t-114.5 -76.5t-147.5 -26.5zM411 150q39 0 73.5 15t59.5 44.5t39.5 72t14.5 97.5q0 56 -14.5 98.5t-39.5 71.5t-59.5 44t-73.5 15q-40 0 -74 -15t-59 -44t-39.5 -71.5t-14.5 -98.5
q0 -55 14.5 -97.5t39.5 -72t59 -44.5t74 -15z" />
    <glyph glyph-name="multiply" unicode="&#xd7;" horiz-adv-x="702" 
d="M492 611l101 -100l-144 -144l142 -142l-96 -97l-142 143l-144 -144l-100 101l143 143l-142 142l96 97l143 -142z" />
    <glyph glyph-name="Oslash" unicode="&#xd8;" horiz-adv-x="809" 
d="M661 769l99 -94l-56 -63q27 -46 41.5 -104t14.5 -129q0 -94 -26 -166.5t-72.5 -122t-112 -75t-145.5 -25.5q-119 0 -204 56l-50 -56l-101 95l56 62q-27 46 -41.5 104t-14.5 128q0 95 26 167.5t72.5 122t112 75t144.5 25.5q122 0 206 -57zM209 379q0 -29 3.5 -53.5
t9.5 -46.5l284 317q-47 28 -102 28q-42 0 -77.5 -15.5t-61.5 -46.5t-41 -77t-15 -106zM601 379q0 55 -14 102l-283 -318q43 -28 100 -28q42 0 78 15.5t62.5 46t41.5 76.5t15 106z" />
    <glyph glyph-name="Ugrave" unicode="&#xd9;" horiz-adv-x="748" 
d="M513 909l-41 -103l-256 90l49 127zM374 -10q-147 0 -222 80.5t-75 232.5v456h169v-448q0 -83 37.5 -122t93.5 -39t93.5 39t37.5 122v448h163v-456q0 -152 -75.5 -232.5t-221.5 -80.5z" />
    <glyph glyph-name="Uacute" unicode="&#xda;" horiz-adv-x="748" 
d="M541 896l-256 -90l-41 103l249 114zM374 -10q-147 0 -222 80.5t-75 232.5v456h169v-448q0 -83 37.5 -122t93.5 -39t93.5 39t37.5 122v448h163v-456q0 -152 -75.5 -232.5t-221.5 -80.5z" />
    <glyph glyph-name="Ucircumflex" unicode="&#xdb;" horiz-adv-x="748" 
d="M497 805l-113 85l-113 -85l-81 79l177 132h35l177 -132zM508 759h163v-456q0 -152 -75.5 -232.5t-221.5 -80.5q-147 0 -222 80.5t-75 232.5v456h169v-448q0 -83 37.5 -122t93.5 -39t93.5 39t37.5 122v448z" />
    <glyph glyph-name="Udieresis" unicode="&#xdc;" horiz-adv-x="748" 
d="M284 834q-34 0 -58.5 24.5t-24.5 58.5t24.5 57.5t58.5 23.5q33 0 57 -23.5t24 -57.5t-24 -58.5t-57 -24.5zM480 834q-34 0 -58 24.5t-24 58.5t24 57.5t58 23.5q33 0 57.5 -23.5t24.5 -57.5q0 -17 -6.5 -32t-18 -26.5t-26 -18t-31.5 -6.5zM374 -10q-147 0 -222 80.5
t-75 232.5v456h169v-448q0 -83 37.5 -122t93.5 -39t93.5 39t37.5 122v448h163v-456q0 -152 -75.5 -232.5t-221.5 -80.5z" />
    <glyph glyph-name="Yacute" unicode="&#xdd;" horiz-adv-x="711" 
d="M466 1023l48 -127l-256 -90l-41 103zM530 759h177l-267 -497v-262h-168v260l-267 499h182l172 -318z" />
    <glyph glyph-name="Thorn" unicode="&#xde;" horiz-adv-x="706" 
d="M255 665h127q66 0 120 -19.5t93 -56t60.5 -88t21.5 -114.5q0 -64 -21.5 -115.5t-60.5 -88t-93 -56.5t-120 -20h-127v-107h-169v759h169v-94zM255 252h103q31 0 57 8.5t45.5 25.5t30.5 42.5t11 58.5t-11 58t-30.5 42t-45.5 25.5t-57 8.5h-103v-269z" />
    <glyph glyph-name="germandbls" unicode="&#xdf;" horiz-adv-x="770" 
d="M225 0h-156v452q0 85 23.5 150.5t68 110.5t108 68t143.5 23q65 0 114.5 -14t83.5 -38.5t51 -57t17 -69.5q0 -24 -5 -45.5t-17 -41t-32.5 -37.5t-52.5 -37q-19 -11 -30.5 -19t-18 -14t-8.5 -11.5t-2 -11.5q0 -14 12.5 -23t37.5 -19l57 -23q65 -26 94 -63t29 -96
q0 -40 -17.5 -74t-54 -58.5t-94 -38t-138.5 -13.5h-106v132h106q35 0 59 3.5t38.5 11t20.5 18t6 24.5q0 19 -16.5 34.5t-67.5 34.5l-45 18q-56 21 -78.5 48.5t-22.5 63.5q0 32 19.5 61t71.5 63q24 16 39.5 28t24.5 22.5t12 20t3 19.5q0 27 -23.5 47t-74.5 20q-85 0 -132 -59
t-47 -164v-446z" />
    <glyph glyph-name="agrave" unicode="&#xe0;" horiz-adv-x="644" 
d="M207 823l248 -114l-41 -103l-256 90zM324 569q121 0 187 -64.5t66 -185.5v-319h-156v61q-29 -34 -74.5 -52.5t-107.5 -18.5q-88 0 -139 41.5t-51 114.5q0 66 47 113.5t157 66.5l168 28q0 41 -24.5 63t-72.5 22q-46 0 -68.5 -18.5t-25.5 -50.5h-158q1 39 17.5 74.5
t48 63.5t78 44.5t108.5 16.5zM278 116q65 0 104 32.5t39 86.5v8l-128 -21q-50 -8 -67 -24.5t-17 -38.5q0 -19 17.5 -31t51.5 -12z" />
    <glyph glyph-name="aacute" unicode="&#xe1;" horiz-adv-x="644" 
d="M434 823l49 -127l-256 -90l-41 103zM324 569q121 0 187 -64.5t66 -185.5v-319h-156v61q-29 -34 -74.5 -52.5t-107.5 -18.5q-88 0 -139 41.5t-51 114.5q0 66 47 113.5t157 66.5l168 28q0 41 -24.5 63t-72.5 22q-46 0 -68.5 -18.5t-25.5 -50.5h-158q1 39 17.5 74.5t48 63.5
t78 44.5t108.5 16.5zM278 116q65 0 104 32.5t39 86.5v8l-128 -21q-50 -8 -67 -24.5t-17 -38.5q0 -19 17.5 -31t51.5 -12z" />
    <glyph glyph-name="acircumflex" unicode="&#xe2;" horiz-adv-x="644" 
d="M439 605l-113 85l-113 -85l-81 79l176 132h36l176 -132zM324 569q121 0 187 -64.5t66 -185.5v-319h-156v61q-29 -34 -74.5 -52.5t-107.5 -18.5q-88 0 -139 41.5t-51 114.5q0 66 47 113.5t157 66.5l168 28q0 41 -24.5 63t-72.5 22q-46 0 -68.5 -18.5t-25.5 -50.5h-158
q1 39 17.5 74.5t48 63.5t78 44.5t108.5 16.5zM278 116q65 0 104 32.5t39 86.5v8l-128 -21q-50 -8 -67 -24.5t-17 -38.5q0 -19 17.5 -31t51.5 -12z" />
    <glyph glyph-name="atilde" unicode="&#xe3;" horiz-adv-x="644" 
d="M265 667q-32 0 -38 -42l-104 19q9 68 40.5 101t82.5 33q20 0 37.5 -5t46.5 -20q25 -12 36 -16t21 -4q30 0 37 42l103 -19q-9 -67 -40.5 -100.5t-80.5 -33.5q-20 0 -38.5 5t-46.5 19q-25 13 -35 17t-21 4zM324 569q121 0 187 -64.5t66 -185.5v-319h-156v61
q-29 -34 -74.5 -52.5t-107.5 -18.5q-88 0 -139 41.5t-51 114.5q0 66 47 113.5t157 66.5l168 28q0 41 -24.5 63t-72.5 22q-46 0 -68.5 -18.5t-25.5 -50.5h-158q1 39 17.5 74.5t48 63.5t78 44.5t108.5 16.5zM278 116q65 0 104 32.5t39 86.5v8l-128 -21q-50 -8 -67 -24.5
t-17 -38.5q0 -19 17.5 -31t51.5 -12z" />
    <glyph glyph-name="adieresis" unicode="&#xe4;" horiz-adv-x="644" 
d="M226 634q-35 0 -59 24.5t-24 58.5t24 57.5t59 23.5q33 0 57 -23.5t24 -57.5t-24 -58.5t-57 -24.5zM422 634q-34 0 -58 24.5t-24 58.5t24 57.5t58 23.5q33 0 57 -23.5t24 -57.5t-24 -58.5t-57 -24.5zM324 569q121 0 187 -64.5t66 -185.5v-319h-156v61q-29 -34 -74.5 -52.5
t-107.5 -18.5q-88 0 -139 41.5t-51 114.5q0 66 47 113.5t157 66.5l168 28q0 41 -24.5 63t-72.5 22q-46 0 -68.5 -18.5t-25.5 -50.5h-158q1 39 17.5 74.5t48 63.5t78 44.5t108.5 16.5zM278 116q65 0 104 32.5t39 86.5v8l-128 -21q-50 -8 -67 -24.5t-17 -38.5q0 -19 17.5 -31
t51.5 -12z" />
    <glyph glyph-name="aring" unicode="&#xe5;" horiz-adv-x="644" 
d="M325 607q-29 0 -53 10t-41.5 27.5t-27.5 41.5t-10 52q0 27 10 51t27.5 41t41.5 27t53 10q60 0 94.5 -37t34.5 -92q0 -57 -34.5 -94t-94.5 -37zM324 782q-19 0 -32 -13t-13 -31q0 -20 13 -33t32 -13q18 0 31 13t13 33q0 18 -13 31t-31 13zM324 569q121 0 187 -64.5
t66 -185.5v-319h-156v61q-29 -34 -74.5 -52.5t-107.5 -18.5q-88 0 -139 41.5t-51 114.5q0 66 47 113.5t157 66.5l168 28q0 41 -24.5 63t-72.5 22q-46 0 -68.5 -18.5t-25.5 -50.5h-158q1 39 17.5 74.5t48 63.5t78 44.5t108.5 16.5zM278 116q65 0 104 32.5t39 86.5v8l-128 -21
q-50 -8 -67 -24.5t-17 -38.5q0 -19 17.5 -31t51.5 -12z" />
    <glyph glyph-name="ae" unicode="&#xe6;" horiz-adv-x="1037" 
d="M1000 229h-413q7 -49 40 -79t89 -30q83 0 108 50h164q-12 -39 -36 -72t-58.5 -57t-78 -37.5t-94.5 -13.5q-154 0 -226 104q-34 -48 -93.5 -76t-144.5 -28q-102 0 -155 44t-53 119q0 65 47.5 110.5t153.5 56.5l186 21v6q0 42 -29 67t-80 25q-48 0 -71.5 -20t-28.5 -49
h-157q2 41 18 77t47.5 63t77.5 43t107 16q136 0 201 -80q35 38 85 59t113 21q64 0 116 -20.5t88.5 -58t56.5 -91t20 -118.5v-52zM714 439q-49 0 -83.5 -28t-42.5 -74h246q-7 48 -39.5 75t-80.5 27zM280 116q60 0 103.5 29.5t51.5 83.5l-129 -13q-56 -6 -77 -19.5t-21 -36.5
q0 -18 16 -31t56 -13z" />
    <glyph glyph-name="ccedilla" unicode="&#xe7;" horiz-adv-x="634" 
d="M321 122q48 0 77.5 28t34.5 70h164q-1 -45 -19 -85t-49.5 -71t-75.5 -51t-97 -25l-8 -24q56 -2 88.5 -28.5t32.5 -73.5q0 -52 -42 -82t-114 -30h-87v74h57q33 0 48 11t15 30q0 18 -14.5 27.5t-46.5 9.5h-45l30 87q-112 16 -174.5 93t-62.5 197q0 66 19.5 120.5t57 92.5
t91 59t120.5 21q60 0 110.5 -18t86.5 -49.5t57 -74.5t22 -92h-164q-5 43 -34.5 71t-77.5 28q-56 0 -90.5 -41t-34.5 -117q0 -75 34.5 -116t90.5 -41z" />
    <glyph glyph-name="egrave" unicode="&#xe8;" horiz-adv-x="649" 
d="M204 823l249 -114l-41 -103l-256 90zM611 233h-413q6 -51 38.5 -82t88.5 -31q82 0 109 50h166q-12 -39 -36.5 -72t-60 -57t-81 -37.5t-99.5 -13.5q-66 0 -119.5 20.5t-91.5 58.5t-58.5 91.5t-20.5 118.5t20.5 118.5t58 91.5t91 59t119.5 21t119.5 -20.5t91 -58t58 -91
t20.5 -118.5v-48zM322 439q-47 0 -79.5 -27.5t-42.5 -71.5h246q-8 48 -42 73.5t-82 25.5z" />
    <glyph glyph-name="eacute" unicode="&#xe9;" horiz-adv-x="649" 
d="M432 823l49 -127l-257 -90l-40 103zM611 233h-413q6 -51 38.5 -82t88.5 -31q82 0 109 50h166q-12 -39 -36.5 -72t-60 -57t-81 -37.5t-99.5 -13.5q-66 0 -119.5 20.5t-91.5 58.5t-58.5 91.5t-20.5 118.5t20.5 118.5t58 91.5t91 59t119.5 21t119.5 -20.5t91 -58t58 -91
t20.5 -118.5v-48zM322 439q-47 0 -79.5 -27.5t-42.5 -71.5h246q-8 48 -42 73.5t-82 25.5z" />
    <glyph glyph-name="ecircumflex" unicode="&#xea;" horiz-adv-x="649" 
d="M437 605l-113 85l-113 -85l-81 79l176 132h36l176 -132zM611 233h-413q6 -51 38.5 -82t88.5 -31q82 0 109 50h166q-12 -39 -36.5 -72t-60 -57t-81 -37.5t-99.5 -13.5q-66 0 -119.5 20.5t-91.5 58.5t-58.5 91.5t-20.5 118.5t20.5 118.5t58 91.5t91 59t119.5 21
t119.5 -20.5t91 -58t58 -91t20.5 -118.5v-48zM322 439q-47 0 -79.5 -27.5t-42.5 -71.5h246q-8 48 -42 73.5t-82 25.5z" />
    <glyph glyph-name="edieresis" unicode="&#xeb;" horiz-adv-x="649" 
d="M223 634q-34 0 -58 24.5t-24 58.5t24 57.5t58 23.5t58 -23.5t24 -57.5t-24 -58.5t-58 -24.5zM419 634q-34 0 -57.5 24.5t-23.5 58.5t23.5 57.5t57.5 23.5t58 -23.5t24 -57.5t-24 -58.5t-58 -24.5zM611 233h-413q6 -51 38.5 -82t88.5 -31q82 0 109 50h166
q-12 -39 -36.5 -72t-60 -57t-81 -37.5t-99.5 -13.5q-66 0 -119.5 20.5t-91.5 58.5t-58.5 91.5t-20.5 118.5t20.5 118.5t58 91.5t91 59t119.5 21t119.5 -20.5t91 -58t58 -91t20.5 -118.5v-48zM322 439q-47 0 -79.5 -27.5t-42.5 -71.5h246q-8 48 -42 73.5t-82 25.5z" />
    <glyph glyph-name="igrave" unicode="&#xec;" horiz-adv-x="309" 
d="M285 709l-41 -103l-256 90l49 127zM232 0h-156v559h156v-559z" />
    <glyph glyph-name="iacute" unicode="&#xed;" horiz-adv-x="309" 
d="M313 696l-256 -90l-41 103l249 114zM232 0h-156v559h156v-559z" />
    <glyph glyph-name="icircumflex" unicode="&#xee;" horiz-adv-x="304" 
d="M130 816h35l147 -132l-81 -79l-83 79l-83 -79l-81 79zM226 0h-156v559h156v-559z" />
    <glyph glyph-name="idieresis" unicode="&#xef;" horiz-adv-x="309" 
d="M56 634q-35 0 -59 24.5t-24 58.5t24 57.5t59 23.5q33 0 57 -23.5t24 -57.5t-24 -58.5t-57 -24.5zM252 634q-34 0 -58 24.5t-24 58.5t24 57.5t58 23.5q33 0 57.5 -23.5t24.5 -57.5q0 -17 -6.5 -32t-18 -26.5t-26 -18t-31.5 -6.5zM232 0h-156v559h156v-559z" />
    <glyph glyph-name="eth" unicode="&#xf0;" horiz-adv-x="679" 
d="M600 750l-120 -60q80 -70 120.5 -163t40.5 -206q0 -74 -19.5 -136t-58.5 -106.5t-96.5 -69.5t-133.5 -25q-70 0 -126 21t-94.5 58.5t-59 90t-20.5 115.5q0 60 20 109.5t55.5 85.5t84.5 56t107 20q53 0 96.5 -14.5t75.5 -41.5q-40 84 -125 140l-151 -76l-37 75l98 49
q-49 21 -108 39l71 113q106 -30 184 -79l159 79zM337 136q63 0 102.5 35.5t39.5 98.5q0 31 -11 55.5t-30 41.5t-45 26t-56 9q-64 0 -103 -36t-39 -96q0 -63 39 -98.5t103 -35.5z" />
    <glyph glyph-name="ntilde" unicode="&#xf1;" horiz-adv-x="666" 
d="M279 667q-32 0 -38 -42l-104 19q9 68 40.5 101t82.5 33q19 0 37 -5t47 -20q25 -12 36 -16t21 -4q30 0 37 42l103 -19q-9 -67 -40.5 -100.5t-80.5 -33.5q-20 0 -38.5 5t-46.5 19q-25 13 -35 17t-21 4zM391 572q96 0 152.5 -65.5t56.5 -190.5v-316h-156v286q0 65 -28 99.5
t-76 34.5t-78 -36t-30 -97v-287h-156v559h156v-63q23 34 64 55t95 21z" />
    <glyph glyph-name="ograve" unicode="&#xf2;" horiz-adv-x="655" 
d="M459 709l-41 -103l-256 90l48 127zM328 -14q-70 0 -125 22.5t-93 61.5t-57.5 92.5t-19.5 116.5t19.5 116.5t57.5 92.5t93 61.5t125 22.5t125 -22.5t92.5 -61.5t57 -92.5t19.5 -116.5t-19.5 -116.5t-57 -92.5t-92.5 -61.5t-125 -22.5zM328 128q61 0 96 41t35 110t-35 110
t-96 41t-96.5 -41t-35.5 -110t35.5 -110t96.5 -41z" />
    <glyph glyph-name="oacute" unicode="&#xf3;" horiz-adv-x="655" 
d="M487 696l-257 -90l-40 103l248 114zM328 -14q-70 0 -125 22.5t-93 61.5t-57.5 92.5t-19.5 116.5t19.5 116.5t57.5 92.5t93 61.5t125 22.5t125 -22.5t92.5 -61.5t57 -92.5t19.5 -116.5t-19.5 -116.5t-57 -92.5t-92.5 -61.5t-125 -22.5zM328 128q61 0 96 41t35 110t-35 110
t-96 41t-96.5 -41t-35.5 -110t35.5 -110t96.5 -41z" />
    <glyph glyph-name="ocircumflex" unicode="&#xf4;" horiz-adv-x="655" 
d="M443 605l-113 85l-113 -85l-81 79l176 132h36l176 -132zM328 572q70 0 125 -22.5t92.5 -61.5t57 -92.5t19.5 -116.5t-19.5 -116.5t-57 -92.5t-92.5 -61.5t-125 -22.5t-125 22.5t-93 61.5t-57.5 92.5t-19.5 116.5t19.5 116.5t57.5 92.5t93 61.5t125 22.5zM328 128
q61 0 96 41t35 110t-35 110t-96 41t-96.5 -41t-35.5 -110t35.5 -110t96.5 -41z" />
    <glyph glyph-name="otilde" unicode="&#xf5;" horiz-adv-x="655" 
d="M410 622q-20 0 -38.5 5t-47.5 19q-24 13 -34 17t-21 4q-32 0 -38 -42l-104 19q9 68 40.5 101t82.5 33q19 0 37 -5t47 -20q25 -12 36 -16t21 -4q30 0 36 42l104 -19q-9 -67 -41 -100.5t-80 -33.5zM328 -14q-70 0 -125 22.5t-93 61.5t-57.5 92.5t-19.5 116.5t19.5 116.5
t57.5 92.5t93 61.5t125 22.5t125 -22.5t92.5 -61.5t57 -92.5t19.5 -116.5t-19.5 -116.5t-57 -92.5t-92.5 -61.5t-125 -22.5zM328 128q61 0 96 41t35 110t-35 110t-96 41t-96.5 -41t-35.5 -110t35.5 -110t96.5 -41z" />
    <glyph glyph-name="odieresis" unicode="&#xf6;" horiz-adv-x="655" 
d="M229 634q-34 0 -58 24.5t-24 58.5t24 57.5t58 23.5t58 -23.5t24 -57.5t-24 -58.5t-58 -24.5zM425 634q-34 0 -57.5 24.5t-23.5 58.5t23.5 57.5t57.5 23.5t58 -23.5t24 -57.5t-24 -58.5t-58 -24.5zM328 -14q-70 0 -125 22.5t-93 61.5t-57.5 92.5t-19.5 116.5t19.5 116.5
t57.5 92.5t93 61.5t125 22.5t125 -22.5t92.5 -61.5t57 -92.5t19.5 -116.5t-19.5 -116.5t-57 -92.5t-92.5 -61.5t-125 -22.5zM328 128q61 0 96 41t35 110t-35 110t-96 41t-96.5 -41t-35.5 -110t35.5 -110t96.5 -41z" />
    <glyph glyph-name="divide" unicode="&#xf7;" horiz-adv-x="702" 
d="M351 510q-17 0 -32.5 6.5t-27 18t-18 27t-6.5 33.5q0 35 24.5 58.5t59.5 23.5q34 0 58.5 -23.5t24.5 -58.5q0 -18 -6.5 -33.5t-18 -27t-26.5 -18t-32 -6.5zM604 302h-506v134h506v-134zM351 61q-17 0 -32.5 6.5t-27 18t-18 26.5t-6.5 33q0 35 24.5 59t59.5 24
q34 0 58.5 -24t24.5 -59q0 -18 -6.5 -33t-18 -26.5t-26.5 -18t-32 -6.5z" />
    <glyph glyph-name="oslash" unicode="&#xf8;" horiz-adv-x="661" 
d="M620 484l-37 -37q46 -72 46 -168q0 -62 -20 -115.5t-58.5 -93t-93.5 -62t-125 -22.5q-99 0 -170 45l-38 -37l-83 80l39 38q-47 71 -47 167q0 63 20.5 116.5t59.5 92.5t94.5 61.5t124.5 22.5q50 0 92 -11.5t76 -32.5l36 36zM176 279q0 -35 9 -62l215 212q-33 14 -69 14
q-71 0 -113 -44.5t-42 -119.5zM331 115q69 0 111.5 44.5t42.5 119.5q0 35 -9 62l-215 -212q31 -14 70 -14z" />
    <glyph glyph-name="ugrave" unicode="&#xf9;" horiz-adv-x="654" 
d="M204 823l249 -114l-41 -103l-256 90zM422 559h156v-559h-156v60q-23 -33 -62.5 -53.5t-90.5 -20.5q-93 0 -148 66t-55 191v316h156v-287q0 -64 27 -98.5t72 -34.5t73 35.5t28 96.5v288z" />
    <glyph glyph-name="uacute" unicode="&#xfa;" horiz-adv-x="654" 
d="M432 823l49 -127l-257 -90l-40 103zM422 559h156v-559h-156v60q-23 -33 -62.5 -53.5t-90.5 -20.5q-93 0 -148 66t-55 191v316h156v-287q0 -64 27 -98.5t72 -34.5t73 35.5t28 96.5v288z" />
    <glyph glyph-name="ucircumflex" unicode="&#xfb;" horiz-adv-x="654" 
d="M437 605l-113 85l-113 -85l-81 79l176 132h36l176 -132zM422 559h156v-559h-156v60q-23 -33 -62.5 -53.5t-90.5 -20.5q-93 0 -148 66t-55 191v316h156v-287q0 -64 27 -98.5t72 -34.5t73 35.5t28 96.5v288z" />
    <glyph glyph-name="udieresis" unicode="&#xfc;" horiz-adv-x="654" 
d="M223 634q-34 0 -58 24.5t-24 58.5t24 57.5t58 23.5t58 -23.5t24 -57.5t-24 -58.5t-58 -24.5zM419 634q-34 0 -57.5 24.5t-23.5 58.5t23.5 57.5t57.5 23.5t58 -23.5t24 -57.5t-24 -58.5t-58 -24.5zM422 559h156v-559h-156v60q-23 -33 -62.5 -53.5t-90.5 -20.5
q-93 0 -148 66t-55 191v316h156v-287q0 -64 27 -98.5t72 -34.5t73 35.5t28 96.5v288z" />
    <glyph glyph-name="yacute" unicode="&#xfd;" horiz-adv-x="615" 
d="M418 823l49 -127l-257 -90l-40 103zM308 211l145 348h151l-310 -743h-151l86 205l-218 538h157z" />
    <glyph glyph-name="thorn" unicode="&#xfe;" horiz-adv-x="698" 
d="M412 572q56 0 102.5 -19t80 -55.5t52 -91.5t18.5 -127t-18.5 -126.5t-52 -91.5t-80 -56t-102.5 -19q-62 0 -106.5 20.5t-73.5 56.5v-253h-156v985h156v-300q29 36 73.5 56.5t106.5 20.5zM367 120q60 0 97.5 40.5t37.5 115.5q0 74 -37.5 114.5t-97.5 40.5q-61 0 -98 -40.5
t-37 -114.5q0 -75 37 -115.5t98 -40.5z" />
    <glyph glyph-name="ydieresis" unicode="&#xff;" horiz-adv-x="615" 
d="M209 634q-34 0 -58 24.5t-24 58.5t24 57.5t58 23.5t58 -23.5t24 -57.5t-24 -58.5t-58 -24.5zM405 634q-34 0 -57.5 24.5t-23.5 58.5t23.5 57.5t57.5 23.5t58 -23.5t24 -57.5t-24 -58.5t-58 -24.5zM308 211l145 348h151l-310 -743h-151l86 205l-218 538h157z" />
    <glyph glyph-name="Amacron" unicode="&#x100;" horiz-adv-x="773" 
d="M217 955h339v-109h-339v109zM767 0h-176l-48 135h-319l-48 -135h-170l289 759h184zM383 582l-107 -300h214z" />
    <glyph glyph-name="amacron" unicode="&#x101;" horiz-adv-x="644" 
d="M154 755h340v-109h-340v109zM324 569q121 0 187 -64.5t66 -185.5v-319h-156v61q-29 -34 -74.5 -52.5t-107.5 -18.5q-88 0 -139 41.5t-51 114.5q0 66 47 113.5t157 66.5l168 28q0 41 -24.5 63t-72.5 22q-46 0 -68.5 -18.5t-25.5 -50.5h-158q1 39 17.5 74.5t48 63.5
t78 44.5t108.5 16.5zM278 116q65 0 104 32.5t39 86.5v8l-128 -21q-50 -8 -67 -24.5t-17 -38.5q0 -19 17.5 -31t51.5 -12z" />
    <glyph glyph-name="Abreve" unicode="&#x102;" horiz-adv-x="773" 
d="M387 820q-73 0 -116.5 42.5t-54.5 120.5l95 21q10 -37 28.5 -53.5t47.5 -16.5t47.5 16.5t28.5 53.5l95 -21q-11 -78 -54.5 -120.5t-116.5 -42.5zM767 0h-176l-48 135h-319l-48 -135h-170l289 759h184zM383 582l-107 -300h214z" />
    <glyph glyph-name="abreve" unicode="&#x103;" horiz-adv-x="644" 
d="M324 620q-73 0 -116.5 42.5t-54.5 120.5l95 21q11 -37 29 -53.5t47 -16.5t47.5 16.5t29.5 53.5l95 -21q-12 -78 -55 -120.5t-117 -42.5zM324 569q121 0 187 -64.5t66 -185.5v-319h-156v61q-29 -34 -74.5 -52.5t-107.5 -18.5q-88 0 -139 41.5t-51 114.5q0 66 47 113.5
t157 66.5l168 28q0 41 -24.5 63t-72.5 22q-46 0 -68.5 -18.5t-25.5 -50.5h-158q1 39 17.5 74.5t48 63.5t78 44.5t108.5 16.5zM278 116q65 0 104 32.5t39 86.5v8l-128 -21q-50 -8 -67 -24.5t-17 -38.5q0 -19 17.5 -31t51.5 -12z" />
    <glyph glyph-name="Aogonek" unicode="&#x104;" horiz-adv-x="773" 
d="M663 -69q0 -17 14.5 -26.5t44.5 -9.5h44v-111h-91q-63 0 -96 28t-33 79q0 32 17.5 59t61.5 50h-34l-48 135h-319l-48 -135h-170l289 759h184l288 -759q-62 -20 -83 -35.5t-21 -33.5zM383 582l-107 -300h214z" />
    <glyph glyph-name="aogonek" unicode="&#x105;" horiz-adv-x="644" 
d="M577 0q-62 -20 -83 -35.5t-21 -33.5q0 -17 15 -26.5t44 -9.5h45v-111h-91q-63 0 -96.5 28t-33.5 79q0 32 18 59t61 50h-14v61q-29 -34 -74.5 -52.5t-107.5 -18.5q-88 0 -139 41.5t-51 114.5q0 66 47 113.5t157 66.5l168 28q0 41 -24.5 63t-72.5 22q-46 0 -68.5 -18.5
t-25.5 -50.5h-158q1 39 17.5 74.5t48 63.5t78 44.5t108.5 16.5q121 0 187 -64.5t66 -185.5v-319zM278 116q65 0 104 32.5t39 86.5v8l-128 -21q-50 -8 -67 -24.5t-17 -38.5q0 -19 17.5 -31t51.5 -12z" />
    <glyph glyph-name="Cacute" unicode="&#x106;" horiz-adv-x="789" 
d="M566 896l-257 -90l-40 103l248 114zM404 -10q-80 0 -145.5 25.5t-112 75t-72 122t-25.5 166.5t25.5 167t72 122.5t111.5 75t144 25.5q80 0 143.5 -25t107.5 -66.5t68 -96t25 -114.5h-179q-3 29 -15 54.5t-33 45t-50.5 30.5t-66.5 11q-38 0 -70.5 -14.5t-56.5 -43
t-37.5 -71.5t-13.5 -100t13.5 -99.5t37.5 -71t56.5 -43t70.5 -14.5q37 0 66.5 11t50.5 30t33 45t15 55h179q-1 -60 -24.5 -114.5t-67.5 -96t-107 -66.5t-143 -25z" />
    <glyph glyph-name="cacute" unicode="&#x107;" horiz-adv-x="634" 
d="M480 696l-257 -90l-40 103l248 114zM321 -14q-67 0 -120.5 21t-91 59.5t-57 92.5t-19.5 120t19.5 120.5t57 92.5t91 59t120.5 21q60 0 110.5 -18t86.5 -49.5t57 -74.5t22 -92h-164q-5 43 -34.5 71t-77.5 28q-56 0 -90.5 -41t-34.5 -117q0 -75 34.5 -116t90.5 -41
q48 0 77.5 28t34.5 70h164q-1 -49 -22 -91.5t-57 -74t-86.5 -50t-110.5 -18.5z" />
    <glyph glyph-name="Ccircumflex" unicode="&#x108;" horiz-adv-x="789" 
d="M522 805l-113 85l-113 -85l-81 79l176 132h36l176 -132zM402 151q37 0 66.5 11t50.5 30t33 45t15 55h179q-1 -60 -24.5 -114.5t-67.5 -96t-107 -66.5t-143 -25t-145.5 25.5t-112 75t-72 122t-25.5 166.5t25.5 167t72 122.5t111.5 75t144 25.5q80 0 143.5 -25t107.5 -66.5
t68 -96t25 -114.5h-179q-3 29 -15 54.5t-33 45t-50.5 30.5t-66.5 11q-38 0 -70.5 -14.5t-56.5 -43t-37.5 -71.5t-13.5 -100t13.5 -99.5t37.5 -71t56.5 -43t70.5 -14.5z" />
    <glyph glyph-name="ccircumflex" unicode="&#x109;" horiz-adv-x="634" 
d="M436 605l-113 85l-113 -85l-81 79l176 132h36l176 -132zM321 122q48 0 77.5 28t34.5 70h164q-1 -49 -22 -91.5t-57 -74t-86.5 -50t-110.5 -18.5q-67 0 -120.5 21t-91 59.5t-57 92.5t-19.5 120t19.5 120.5t57 92.5t91 59t120.5 21q60 0 110.5 -18t86.5 -49.5t57 -74.5
t22 -92h-164q-5 43 -34.5 71t-77.5 28q-56 0 -90.5 -41t-34.5 -117q0 -75 34.5 -116t90.5 -41z" />
    <glyph glyph-name="Cdotaccent" unicode="&#x10a;" horiz-adv-x="789" 
d="M407 825q-19 0 -36 7t-29.5 19.5t-19.5 29.5t-7 36t7 35.5t19.5 28.5t29.5 19t36 7q38 0 65 -26t27 -64q0 -19 -7.5 -36t-20 -29.5t-29 -19.5t-35.5 -7zM404 -10q-80 0 -145.5 25.5t-112 75t-72 122t-25.5 166.5t25.5 167t72 122.5t111.5 75t144 25.5q80 0 143.5 -25
t107.5 -66.5t68 -96t25 -114.5h-179q-3 29 -15 54.5t-33 45t-50.5 30.5t-66.5 11q-38 0 -70.5 -14.5t-56.5 -43t-37.5 -71.5t-13.5 -100t13.5 -99.5t37.5 -71t56.5 -43t70.5 -14.5q37 0 66.5 11t50.5 30t33 45t15 55h179q-1 -60 -24.5 -114.5t-67.5 -96t-107 -66.5t-143 -25
z" />
    <glyph glyph-name="cdotaccent" unicode="&#x10b;" horiz-adv-x="634" 
d="M321 625q-19 0 -36 7t-29.5 19.5t-19.5 29.5t-7 36t7 35.5t19.5 28.5t29.5 19t36 7q38 0 65 -26t27 -64q0 -19 -7.5 -36t-20 -29.5t-29 -19.5t-35.5 -7zM321 -14q-67 0 -120.5 21t-91 59.5t-57 92.5t-19.5 120t19.5 120.5t57 92.5t91 59t120.5 21q60 0 110.5 -18
t86.5 -49.5t57 -74.5t22 -92h-164q-5 43 -34.5 71t-77.5 28q-56 0 -90.5 -41t-34.5 -117q0 -75 34.5 -116t90.5 -41q48 0 77.5 28t34.5 70h164q-1 -49 -22 -91.5t-57 -74t-86.5 -50t-110.5 -18.5z" />
    <glyph glyph-name="Ccaron" unicode="&#x10c;" horiz-adv-x="789" 
d="M604 938l-176 -131h-36l-176 131l81 79l113 -85l113 85zM402 151q37 0 66.5 11t50.5 30t33 45t15 55h179q-1 -60 -24.5 -114.5t-67.5 -96t-107 -66.5t-143 -25t-145.5 25.5t-112 75t-72 122t-25.5 166.5t25.5 167t72 122.5t111.5 75t144 25.5q80 0 143.5 -25t107.5 -66.5
t68 -96t25 -114.5h-179q-3 29 -15 54.5t-33 45t-50.5 30.5t-66.5 11q-38 0 -70.5 -14.5t-56.5 -43t-37.5 -71.5t-13.5 -100t13.5 -99.5t37.5 -71t56.5 -43t70.5 -14.5z" />
    <glyph glyph-name="ccaron" unicode="&#x10d;" horiz-adv-x="634" 
d="M518 738l-176 -131h-36l-176 131l81 79l113 -85l113 85zM321 122q48 0 77.5 28t34.5 70h164q-1 -49 -22 -91.5t-57 -74t-86.5 -50t-110.5 -18.5q-67 0 -120.5 21t-91 59.5t-57 92.5t-19.5 120t19.5 120.5t57 92.5t91 59t120.5 21q60 0 110.5 -18t86.5 -49.5t57 -74.5
t22 -92h-164q-5 43 -34.5 71t-77.5 28q-56 0 -90.5 -41t-34.5 -117q0 -75 34.5 -116t90.5 -41z" />
    <glyph glyph-name="Dcaron" unicode="&#x10e;" horiz-adv-x="784" 
d="M549 938l-176 -131h-36l-176 131l81 79l113 -85l113 85zM336 759q94 0 168 -26t125.5 -75.5t78.5 -119.5t27 -159q0 -88 -27 -158.5t-78.5 -119.5t-125.5 -75t-168 -26h-250v759h250zM255 157h74q108 0 169.5 58.5t61.5 163.5q0 106 -61.5 164t-169.5 58h-74v-444z" />
    <glyph glyph-name="dcaron" unicode="&#x10f;" horiz-adv-x="685" 
d="M453 795h156v-795h-156v66q-28 -38 -71 -59t-102 -21q-54 0 -99.5 19t-78.5 56.5t-51 92t-18 125.5t18 126t51 92t78.5 56t99.5 19q59 0 102 -21t71 -58v302zM675 596v188h120l-28 -188h-92zM325 128q57 0 92.5 40t35.5 115t-35.5 115t-92.5 40t-93 -40.5t-36 -114.5
q0 -73 36 -114t93 -41z" />
    <glyph glyph-name="Dcroat" unicode="&#x110;" horiz-adv-x="784" 
d="M336 759q94 0 168 -26t125.5 -75.5t78.5 -119.5t27 -159q0 -88 -27 -158.5t-78.5 -119.5t-125.5 -75t-168 -26h-250v314h-76v137h76v308h250zM255 157h74q108 0 169.5 58.5t61.5 163.5q0 106 -61.5 164t-169.5 58h-74v-150h169v-137h-169v-157z" />
    <glyph glyph-name="dcroat" unicode="&#x111;" horiz-adv-x="689" 
d="M609 721h72v-106h-72v-615h-156v66q-28 -38 -71 -59t-102 -21q-54 0 -99.5 19t-78.5 56.5t-51 92t-18 125.5t18 126t51 92t78.5 56t99.5 19q59 0 102 -21t71 -58v122h-142v106h142v74h156v-74zM325 128q57 0 92.5 40t35.5 115t-35.5 115t-92.5 40t-93 -40.5t-36 -114.5
q0 -73 36 -114t93 -41z" />
    <glyph glyph-name="Emacron" unicode="&#x112;" horiz-adv-x="688" 
d="M193 955h339v-109h-339v109zM255 330v-176h381v-154h-550v759h544v-154h-375v-128h260v-147h-260z" />
    <glyph glyph-name="emacron" unicode="&#x113;" horiz-adv-x="649" 
d="M152 755h339v-109h-339v109zM611 233h-413q6 -51 38.5 -82t88.5 -31q82 0 109 50h166q-12 -39 -36.5 -72t-60 -57t-81 -37.5t-99.5 -13.5q-66 0 -119.5 20.5t-91.5 58.5t-58.5 91.5t-20.5 118.5t20.5 118.5t58 91.5t91 59t119.5 21t119.5 -20.5t91 -58t58 -91
t20.5 -118.5v-48zM322 439q-47 0 -79.5 -27.5t-42.5 -71.5h246q-8 48 -42 73.5t-82 25.5z" />
    <glyph glyph-name="Edotaccent" unicode="&#x116;" horiz-adv-x="688" 
d="M363 825q-19 0 -36 7t-29.5 19.5t-19.5 29.5t-7 36t7 35.5t19.5 28.5t29.5 19t36 7q38 0 64.5 -26t26.5 -64q0 -19 -7 -36t-19.5 -29.5t-29 -19.5t-35.5 -7zM255 330v-176h381v-154h-550v759h544v-154h-375v-128h260v-147h-260z" />
    <glyph glyph-name="edotaccent" unicode="&#x117;" horiz-adv-x="649" 
d="M322 625q-19 0 -36 7t-29.5 19.5t-19.5 29.5t-7 36t7 35.5t19.5 28.5t29.5 19t36 7q38 0 65 -26t27 -64q0 -19 -7.5 -36t-20 -29.5t-29 -19.5t-35.5 -7zM611 233h-413q6 -51 38.5 -82t88.5 -31q82 0 109 50h166q-12 -39 -36.5 -72t-60 -57t-81 -37.5t-99.5 -13.5
q-66 0 -119.5 20.5t-91.5 58.5t-58.5 91.5t-20.5 118.5t20.5 118.5t58 91.5t91 59t119.5 21t119.5 -20.5t91 -58t58 -91t20.5 -118.5v-48zM322 439q-47 0 -79.5 -27.5t-42.5 -71.5h246q-8 48 -42 73.5t-82 25.5z" />
    <glyph glyph-name="Eogonek" unicode="&#x118;" horiz-adv-x="688" 
d="M636 154v-154q-62 -20 -83 -35.5t-21 -33.5q0 -17 14.5 -26.5t44.5 -9.5h44v-111h-91q-63 0 -96 28t-33 79q0 32 17.5 59t61.5 50h-408v759h544v-154h-375v-128h260v-147h-260v-176h381z" />
    <glyph glyph-name="eogonek" unicode="&#x119;" horiz-adv-x="649" 
d="M611 233h-413q6 -51 38.5 -82t88.5 -31q82 0 109 50h166q-19 -63 -68.5 -108t-123.5 -62q-61 -20 -82 -35.5t-21 -33.5q0 -17 15 -26.5t44 -9.5h44v-111h-91q-63 0 -96 28t-33 79q0 30 16 56.5t55 48.5q-105 19 -165.5 93.5t-60.5 189.5q0 65 20.5 118.5t58 91.5t91 59
t119.5 21t119.5 -20.5t91 -58t58 -91t20.5 -118.5v-48zM322 439q-47 0 -79.5 -27.5t-42.5 -71.5h246q-8 48 -42 73.5t-82 25.5z" />
    <glyph glyph-name="Ecaron" unicode="&#x11a;" horiz-adv-x="688" 
d="M560 938l-177 -131h-35l-177 131l82 79l113 -85l112 85zM255 330v-176h381v-154h-550v759h544v-154h-375v-128h260v-147h-260z" />
    <glyph glyph-name="ecaron" unicode="&#x11b;" horiz-adv-x="649" 
d="M519 738l-176 -131h-36l-176 131l81 79l113 -85l113 85zM611 233h-413q6 -51 38.5 -82t88.5 -31q82 0 109 50h166q-12 -39 -36.5 -72t-60 -57t-81 -37.5t-99.5 -13.5q-66 0 -119.5 20.5t-91.5 58.5t-58.5 91.5t-20.5 118.5t20.5 118.5t58 91.5t91 59t119.5 21
t119.5 -20.5t91 -58t58 -91t20.5 -118.5v-48zM322 439q-47 0 -79.5 -27.5t-42.5 -71.5h246q-8 48 -42 73.5t-82 25.5z" />
    <glyph glyph-name="Gcircumflex" unicode="&#x11c;" horiz-adv-x="821" 
d="M529 805l-113 85l-113 -85l-81 79l176 132h35l177 -132zM410 287v135h362v-73q0 -82 -26 -148.5t-73 -113.5t-113.5 -72t-146.5 -25q-81 0 -148 27.5t-115 78t-74.5 122.5t-26.5 161q0 90 26.5 162t74.5 122.5t115 78t148 27.5q73 0 132 -19.5t102.5 -54t72.5 -81
t42 -101.5h-186q-18 44 -59 72t-101 28q-43 0 -78 -15.5t-60.5 -45t-39.5 -73t-14 -100.5t14.5 -100.5t40 -73t62 -45t79.5 -15.5q36 0 66 12t53.5 31.5t38.5 45t21 53.5h-189z" />
    <glyph glyph-name="gcircumflex" unicode="&#x11d;" horiz-adv-x="678" 
d="M453 605l-113 85l-113 -85l-81 79l176 132h36l176 -132zM455 559h156v-593q0 -92 -52.5 -145t-144.5 -53h-266v132h241q66 0 66 66v115q-28 -36 -71 -57t-103 -21q-54 0 -99.5 18.5t-78.5 55t-51.5 90t-18.5 122.5t18.5 122t51.5 88.5t78.5 54t99.5 18.5q60 0 103 -20.5
t71 -57.5v65zM326 144q58 0 93.5 40t35.5 109t-35.5 107t-93.5 38q-57 0 -93.5 -38t-36.5 -107q0 -70 36.5 -109.5t93.5 -39.5z" />
    <glyph glyph-name="Gbreve" unicode="&#x11e;" horiz-adv-x="821" 
d="M414 820q-74 0 -117 42.5t-54 120.5l94 21q11 -37 29.5 -53.5t47.5 -16.5t47.5 16.5t28.5 53.5l95 -21q-11 -78 -54.5 -120.5t-116.5 -42.5zM410 287v135h362v-73q0 -82 -26 -148.5t-73 -113.5t-113.5 -72t-146.5 -25q-81 0 -148 27.5t-115 78t-74.5 122.5t-26.5 161
q0 90 26.5 162t74.5 122.5t115 78t148 27.5q73 0 132 -19.5t102.5 -54t72.5 -81t42 -101.5h-186q-18 44 -59 72t-101 28q-43 0 -78 -15.5t-60.5 -45t-39.5 -73t-14 -100.5t14.5 -100.5t40 -73t62 -45t79.5 -15.5q36 0 66 12t53.5 31.5t38.5 45t21 53.5h-189z" />
    <glyph glyph-name="gbreve" unicode="&#x11f;" horiz-adv-x="678" 
d="M338 620q-73 0 -116.5 42.5t-54.5 120.5l95 21q10 -37 28.5 -53.5t47.5 -16.5t47.5 16.5t29.5 53.5l94 -21q-11 -78 -54 -120.5t-117 -42.5zM455 559h156v-593q0 -92 -52.5 -145t-144.5 -53h-266v132h241q66 0 66 66v115q-28 -36 -71 -57t-103 -21q-54 0 -99.5 18.5
t-78.5 55t-51.5 90t-18.5 122.5t18.5 122t51.5 88.5t78.5 54t99.5 18.5q60 0 103 -20.5t71 -57.5v65zM326 144q58 0 93.5 40t35.5 109t-35.5 107t-93.5 38q-57 0 -93.5 -38t-36.5 -107q0 -70 36.5 -109.5t93.5 -39.5z" />
    <glyph glyph-name="Gdotaccent" unicode="&#x120;" horiz-adv-x="821" 
d="M414 825q-19 0 -36 7t-29.5 19.5t-19.5 29.5t-7 36t7 35.5t19.5 28.5t29.5 19t36 7q38 0 64.5 -26t26.5 -64q0 -19 -7 -36t-19.5 -29.5t-29 -19.5t-35.5 -7zM410 287v135h362v-73q0 -82 -26 -148.5t-73 -113.5t-113.5 -72t-146.5 -25q-81 0 -148 27.5t-115 78
t-74.5 122.5t-26.5 161q0 90 26.5 162t74.5 122.5t115 78t148 27.5q73 0 132 -19.5t102.5 -54t72.5 -81t42 -101.5h-186q-18 44 -59 72t-101 28q-43 0 -78 -15.5t-60.5 -45t-39.5 -73t-14 -100.5t14.5 -100.5t40 -73t62 -45t79.5 -15.5q36 0 66 12t53.5 31.5t38.5 45
t21 53.5h-189z" />
    <glyph glyph-name="gdotaccent" unicode="&#x121;" horiz-adv-x="678" 
d="M338 625q-19 0 -35.5 7t-29 19.5t-19.5 29.5t-7 36t7 35.5t19.5 28.5t29 19t35.5 7q38 0 65 -26t27 -64q0 -19 -7.5 -36t-20 -29.5t-29 -19.5t-35.5 -7zM455 559h156v-593q0 -92 -52.5 -145t-144.5 -53h-266v132h241q66 0 66 66v115q-28 -36 -71 -57t-103 -21
q-54 0 -99.5 18.5t-78.5 55t-51.5 90t-18.5 122.5t18.5 122t51.5 88.5t78.5 54t99.5 18.5q60 0 103 -20.5t71 -57.5v65zM326 144q58 0 93.5 40t35.5 109t-35.5 107t-93.5 38q-57 0 -93.5 -38t-36.5 -107q0 -70 36.5 -109.5t93.5 -39.5z" />
    <glyph glyph-name="uni0122" unicode="&#x122;" horiz-adv-x="821" 
d="M410 287v135h362v-73q0 -82 -26 -148.5t-73 -113.5t-113.5 -72t-146.5 -25q-81 0 -148 27.5t-115 78t-74.5 122.5t-26.5 161q0 90 26.5 162t74.5 122.5t115 78t148 27.5q73 0 132 -19.5t102.5 -54t72.5 -81t42 -101.5h-186q-18 44 -59 72t-101 28q-43 0 -78 -15.5
t-60.5 -45t-39.5 -73t-14 -100.5t14.5 -100.5t40 -73t62 -45t79.5 -15.5q36 0 66 12t53.5 31.5t38.5 45t21 53.5h-189zM415 -37q38 0 60 -25t22 -68q0 -48 -27 -79.5t-85 -50.5l-18 -6l-20 61l17 6q21 7 34.5 13t21.5 16h-8q-32 0 -51.5 19.5t-19.5 46.5q0 29 20 48t54 19z
" />
    <glyph glyph-name="uni0123" unicode="&#x123;" horiz-adv-x="678" 
d="M338 615q-38 0 -60.5 25t-22.5 68q0 47 27 79t86 51l17 6l21 -62l-18 -5q-21 -7 -34.5 -13t-21.5 -17h9q32 0 51 -19.5t19 -45.5q0 -29 -19.5 -48t-53.5 -19zM455 559h156v-593q0 -92 -52.5 -145t-144.5 -53h-266v132h241q66 0 66 66v115q-28 -36 -71 -57t-103 -21
q-54 0 -99.5 18.5t-78.5 55t-51.5 90t-18.5 122.5t18.5 122t51.5 88.5t78.5 54t99.5 18.5q60 0 103 -20.5t71 -57.5v65zM326 144q58 0 93.5 40t35.5 109t-35.5 107t-93.5 38q-57 0 -93.5 -38t-36.5 -107q0 -70 36.5 -109.5t93.5 -39.5z" />
    <glyph glyph-name="Hcircumflex" unicode="&#x124;" horiz-adv-x="803" 
d="M516 805l-112 85l-113 -85l-82 79l177 132h35l177 -132zM549 506v253h169v-759h-169v345h-294v-345h-169v759h169v-253h294z" />
    <glyph glyph-name="hcircumflex" unicode="&#x125;" horiz-adv-x="679" 
d="M358 920l-81 -79l-113 85l-113 -85l-81 79l176 132h36zM399 572q96 0 152.5 -65.5t56.5 -190.5v-316h-156v286q0 65 -28 99.5t-76 34.5t-77.5 -36t-29.5 -97l-1 7v-294h-156v795h156v-299q23 34 64 55t95 21z" />
    <glyph glyph-name="Hbar" unicode="&#x126;" horiz-adv-x="801" 
d="M715 682h60v-130h-60v-552h-169v299h-291v-299h-169v552h-60v130h60v77h169v-77h291v77h169v-77zM255 460h291v92h-291v-92z" />
    <glyph glyph-name="hbar" unicode="&#x127;" horiz-adv-x="679" 
d="M399 572q96 0 152.5 -65.5t56.5 -190.5v-316h-156v286q0 65 -28 99.5t-76 34.5t-77.5 -36t-29.5 -97l-1 7v-294h-156v615h-72v106h72v74h156v-74h147v-106h-147v-119q23 34 64 55t95 21z" />
    <glyph glyph-name="Itilde" unicode="&#x128;" horiz-adv-x="340" 
d="M239 822q-17 0 -33 5t-39 19q-20 13 -29 17t-17 4q-28 0 -32 -42l-86 19q7 68 33.5 101t68.5 33q16 0 31 -5t39 -20q21 -12 30 -16t18 -4q24 0 30 42l86 -19q-8 -67 -34 -100.5t-66 -33.5zM255 0h-169v759h169v-759z" />
    <glyph glyph-name="itilde" unicode="&#x129;" horiz-adv-x="316" 
d="M218 622q-15 0 -29 5t-35 19q-18 13 -25.5 17t-15.5 4q-23 0 -29 -42l-82 21q14 132 96 132q15 0 28 -5.5t35 -19.5q18 -12 26.5 -16t16.5 -4q21 0 27 42l82 -20q-6 -67 -31.5 -100t-63.5 -33zM232 0h-156v559h156v-559z" />
    <glyph glyph-name="Imacron" unicode="&#x12a;" horiz-adv-x="340" 
d="M299 846h-259v109h259v-109zM255 0h-169v759h169v-759z" />
    <glyph glyph-name="imacron" unicode="&#x12b;" horiz-adv-x="303" 
d="M268 646h-233v109h233v-109zM227 0h-156v559h156v-559z" />
    <glyph glyph-name="Ibreve" unicode="&#x12c;" horiz-adv-x="340" 
d="M170 820q-74 0 -117 42.5t-54 120.5l94 21q11 -37 29.5 -53.5t47.5 -16.5t47.5 16.5t28.5 53.5l95 -21q-11 -78 -54.5 -120.5t-116.5 -42.5zM255 0h-169v759h169v-759z" />
    <glyph glyph-name="ibreve" unicode="&#x12d;" horiz-adv-x="309" 
d="M154 620q-73 0 -116.5 42.5t-54.5 120.5l95 21q11 -37 29 -53.5t47 -16.5t47.5 16.5t29.5 53.5l95 -21q-11 -78 -54.5 -120.5t-117.5 -42.5zM232 0h-156v559h156v-559z" />
    <glyph glyph-name="Iogonek" unicode="&#x12e;" horiz-adv-x="340" 
d="M255 759v-759q-31 -10 -51.5 -18.5t-32 -17t-16 -16.5t-4.5 -17q0 -17 14.5 -26.5t44.5 -9.5h44v-111h-91q-63 0 -96.5 28t-33.5 79q0 32 18 59t61 50h-26v759h169z" />
    <glyph glyph-name="iogonek" unicode="&#x12f;" horiz-adv-x="303" 
d="M151 623q-44 0 -68.5 28t-24.5 66q0 39 24.5 66.5t68.5 27.5t69 -27.5t25 -66.5q0 -38 -25 -66t-69 -28zM230 0h2q-62 -20 -83 -35.5t-21 -33.5q0 -17 15 -26.5t44 -9.5h45v-111h-91q-63 0 -96.5 28t-33.5 79q0 32 18 59t61 50h-16v572q15 -11 33.5 -17t44.5 -6t45 6
t33 17v-572z" />
    <glyph glyph-name="Idotaccent" unicode="&#x130;" horiz-adv-x="340" 
d="M170 819q-44 0 -68.5 28t-24.5 66q0 39 24.5 66.5t68.5 27.5t68.5 -27.5t24.5 -66.5q0 -38 -24.5 -66t-68.5 -28zM255 0h-169v769q16 -11 36 -17t48 -6q29 0 49 6t36 17v-769z" />
    <glyph glyph-name="dotlessi" unicode="&#x131;" horiz-adv-x="309" 
d="M232 0h-156v559h156v-559z" />
    <glyph glyph-name="IJ" unicode="&#x132;" horiz-adv-x="986" 
d="M255 0h-169v759h169v-759zM632 -14q-67 0 -118.5 21t-86.5 59.5t-53 94t-18 124.5h169q0 -74 27.5 -113.5t79.5 -39.5q53 0 80.5 39t27.5 114v474h169v-472q0 -143 -71 -222t-206 -79z" />
    <glyph glyph-name="ij" unicode="&#x133;" horiz-adv-x="604" 
d="M447 620q-42 0 -68.5 28.5t-26.5 68.5q0 41 26.5 68.5t68.5 27.5q43 0 70 -27.5t27 -68.5q0 -40 -27 -68.5t-70 -28.5zM151 623q-44 0 -68.5 28t-24.5 66q0 39 24.5 66.5t68.5 27.5t69 -27.5t25 -66.5q0 -38 -25 -66t-69 -28zM230 0h-156v572q15 -11 33.5 -17t44.5 -6
t45 6t33 17v-572zM264 -232v138h54q53 0 53 52v614q15 -11 33 -17t44 -6t45 6t34 17l-1 -616q0 -88 -49.5 -138t-137.5 -50h-75z" />
    <glyph glyph-name="Jcircumflex" unicode="&#x134;" horiz-adv-x="660" 
d="M483 1016h35l177 -132l-82 -79l-113 85l-113 -85l-81 79zM414 759h169v-472q0 -143 -71 -222t-206 -79q-67 0 -118.5 21t-86.5 59.5t-53 94t-18 124.5h169q0 -74 27 -113.5t80 -39.5t80.5 39t27.5 114v474z" />
    <glyph glyph-name="jcircumflex" unicode="&#x135;" horiz-adv-x="312" 
d="M144 830h36l176 -132l-81 -79l-113 85l-113 -85l-81 79zM82 559h156v-603q0 -88 -50 -138t-137 -50h-77v151h56q52 0 52 52v588z" />
    <glyph glyph-name="uni0136" unicode="&#x136;" horiz-adv-x="753" 
d="M729 758l-332 -352l338 -407h-208l-272 327v-326h-169v759h169v-289l272 288h202zM380 -37q38 0 60.5 -25t22.5 -68q0 -93 -113 -130l-17 -6l-21 61l17 6q21 7 34.5 13t21.5 16h-8q-32 0 -51 19.5t-19 46.5q0 29 19.5 48t53.5 19z" />
    <glyph glyph-name="uni0137" unicode="&#x137;" horiz-adv-x="626" 
d="M606 557l-250 -272l258 -285h-182l-200 218v-218h-156v795h156v-448l193 210h181zM318 -37q38 0 60 -25t22 -68q0 -48 -27 -79.5t-85 -50.5l-18 -6l-20 61l17 6q21 7 34.5 13t21.5 16h-8q-32 0 -51.5 19.5t-19.5 46.5q0 29 20 48t54 19z" />
    <glyph glyph-name="kgreenlandic" unicode="&#x138;" horiz-adv-x="646" 
d="M375 285l259 -285h-183l-219 239v-239h-156v559h156v-233l212 231h181z" />
    <glyph glyph-name="Lacute" unicode="&#x139;" horiz-adv-x="629" 
d="M31 909l249 114l48 -127l-256 -90zM255 759v-598h348v-161h-517v759h169z" />
    <glyph glyph-name="lacute" unicode="&#x13a;" horiz-adv-x="309" 
d="M313 932l-256 -90l-41 103l249 114zM232 0h-156v795h156v-795z" />
    <glyph glyph-name="uni013B" unicode="&#x13b;" horiz-adv-x="629" 
d="M255 759v-598h348v-161h-517v759h169zM346 -37q38 0 60 -25t22 -68q0 -48 -27 -79.5t-86 -50.5l-17 -6l-20 61l17 6q20 7 34 13t22 16h-8q-33 0 -52 19.5t-19 46.5q0 29 19.5 48t54.5 19z" />
    <glyph glyph-name="uni013C" unicode="&#x13c;" horiz-adv-x="309" 
d="M76 795h156v-795h-156v795zM155 -37q38 0 60.5 -25t22.5 -68q0 -48 -27 -79.5t-86 -50.5l-17 -6l-21 61l18 6q20 7 33.5 13t21.5 16h-8q-32 0 -51 19.5t-19 46.5q0 29 19.5 48t53.5 19z" />
    <glyph glyph-name="Lcaron" unicode="&#x13d;" horiz-adv-x="629" 
d="M352 821h120l-27 -189h-93v189zM255 759v-598h348v-161h-517v759h169z" />
    <glyph glyph-name="lcaron" unicode="&#x13e;" horiz-adv-x="309" 
d="M232 0h-156v795h156v-795zM391 596h-93v188h120z" />
    <glyph glyph-name="Ldot" unicode="&#x13f;" horiz-adv-x="631" 
d="M255 759v-598h348v-161h-517v759h169zM487 327q-45 0 -73 29.5t-28 71.5q0 43 28 72t73 29t72.5 -29t27.5 -72q0 -42 -27.5 -71.5t-72.5 -29.5z" />
    <glyph glyph-name="ldot" unicode="&#x140;" horiz-adv-x="508" 
d="M232 0h-156v795h156v-795zM401 295q-45 0 -72.5 29.5t-27.5 71.5q0 43 27.5 72t72.5 29t72.5 -29t27.5 -72q0 -42 -27.5 -71.5t-72.5 -29.5z" />
    <glyph glyph-name="Lslash" unicode="&#x141;" horiz-adv-x="629" 
d="M255 356v-195h348v-161h-517v290l-66 -26v149l66 26v320h169v-254l220 86v-149z" />
    <glyph glyph-name="lslash" unicode="&#x142;" horiz-adv-x="324" 
d="M232 524l85 55v-153l-85 -55v-371h-156v269l-41 -27v153l41 27v373h156v-271z" />
    <glyph glyph-name="Nacute" unicode="&#x143;" horiz-adv-x="803" 
d="M512 1023l48 -127l-256 -90l-41 103zM549 393v366h169v-759h-169v133l-294 338v-471h-169v759h145z" />
    <glyph glyph-name="nacute" unicode="&#x144;" horiz-adv-x="666" 
d="M448 823l49 -127l-256 -90l-41 103zM391 572q96 0 152.5 -65.5t56.5 -190.5v-316h-156v286q0 65 -28 99.5t-76 34.5t-78 -36t-30 -97v-287h-156v559h156v-63q23 34 64 55t95 21z" />
    <glyph glyph-name="uni0145" unicode="&#x145;" horiz-adv-x="803" 
d="M549 393v366h169v-759h-169v133l-294 338v-471h-169v759h145zM403 -37q38 0 60 -25t22 -68q0 -48 -27 -79.5t-86 -50.5l-17 -6l-20 61l17 6q21 7 34.5 13t21.5 16h-8q-32 0 -51.5 19.5t-19.5 46.5q0 29 20 48t54 19z" />
    <glyph glyph-name="uni0146" unicode="&#x146;" horiz-adv-x="666" 
d="M391 572q96 0 152.5 -65.5t56.5 -190.5v-316h-156v286q0 65 -28 99.5t-76 34.5t-78 -36t-30 -97v-287h-156v559h156v-63q23 34 64 55t95 21zM339 -37q38 0 60.5 -25t22.5 -68q0 -93 -113 -130l-17 -6l-21 61l17 6q21 7 34.5 13t21.5 16h-8q-32 0 -51 19.5t-19 46.5
q0 29 19.5 48t53.5 19z" />
    <glyph glyph-name="Ncaron" unicode="&#x147;" horiz-adv-x="803" 
d="M599 938l-177 -131h-35l-176 131l81 79l113 -85l113 85zM549 393v366h169v-759h-169v133l-294 338v-471h-169v759h145z" />
    <glyph glyph-name="ncaron" unicode="&#x148;" horiz-adv-x="666" 
d="M535 738l-176 -131h-35l-177 131l81 79l113 -85l113 85zM391 572q96 0 152.5 -65.5t56.5 -190.5v-316h-156v286q0 65 -28 99.5t-76 34.5t-78 -36t-30 -97v-287h-156v559h156v-63q23 34 64 55t95 21z" />
    <glyph glyph-name="Eng" unicode="&#x14a;" horiz-adv-x="803" 
d="M549 759h169v-759h-1v-36q0 -88 -49.5 -138.5t-137.5 -50.5h-88v155h54q28 0 40 13t12 39v117h1v34l-294 338v-471h-169v759h145l318 -366v366z" />
    <glyph glyph-name="eng" unicode="&#x14b;" horiz-adv-x="666" 
d="M391 572q96 0 152.5 -65.5t56.5 -190.5v-347q0 -93 -44 -143.5t-137 -50.5h-81v151h54q52 0 52 53v307q0 65 -28 99.5t-76 34.5t-78 -36t-30 -97v-287h-156v559h156v-63q23 34 64 55t95 21z" />
    <glyph glyph-name="Omacron" unicode="&#x14c;" horiz-adv-x="822" 
d="M580 846h-339v109h339v-109zM411 -10q-81 0 -147.5 26.5t-114.5 76.5t-74 122t-26 164t26 164.5t74 122.5t114.5 76.5t147.5 26.5t147.5 -26.5t114.5 -76.5t74 -122.5t26 -164.5t-26 -164t-74 -122t-114.5 -76.5t-147.5 -26.5zM411 150q39 0 73.5 15t59.5 44.5t39.5 72
t14.5 97.5q0 56 -14.5 98.5t-39.5 71.5t-59.5 44t-73.5 15q-40 0 -74 -15t-59 -44t-39.5 -71.5t-14.5 -98.5q0 -55 14.5 -97.5t39.5 -72t59 -44.5t74 -15z" />
    <glyph glyph-name="omacron" unicode="&#x14d;" horiz-adv-x="655" 
d="M497 646h-339v109h339v-109zM328 -14q-70 0 -125 22.5t-93 61.5t-57.5 92.5t-19.5 116.5t19.5 116.5t57.5 92.5t93 61.5t125 22.5t125 -22.5t92.5 -61.5t57 -92.5t19.5 -116.5t-19.5 -116.5t-57 -92.5t-92.5 -61.5t-125 -22.5zM328 128q61 0 96 41t35 110t-35 110t-96 41
t-96.5 -41t-35.5 -110t35.5 -110t96.5 -41z" />
    <glyph glyph-name="Obreve" unicode="&#x14e;" horiz-adv-x="822" 
d="M411 820q-74 0 -117 42.5t-55 120.5l95 21q11 -37 29.5 -53.5t47.5 -16.5t47 16.5t29 53.5l95 -21q-11 -78 -54.5 -120.5t-116.5 -42.5zM411 -10q-81 0 -147.5 26.5t-114.5 76.5t-74 122t-26 164t26 164.5t74 122.5t114.5 76.5t147.5 26.5t147.5 -26.5t114.5 -76.5
t74 -122.5t26 -164.5t-26 -164t-74 -122t-114.5 -76.5t-147.5 -26.5zM411 150q39 0 73.5 15t59.5 44.5t39.5 72t14.5 97.5q0 56 -14.5 98.5t-39.5 71.5t-59.5 44t-73.5 15q-40 0 -74 -15t-59 -44t-39.5 -71.5t-14.5 -98.5q0 -55 14.5 -97.5t39.5 -72t59 -44.5t74 -15z" />
    <glyph glyph-name="obreve" unicode="&#x14f;" horiz-adv-x="655" 
d="M328 620q-74 0 -117 42.5t-54 120.5l94 21q11 -37 29.5 -53.5t47.5 -16.5t47.5 16.5t28.5 53.5l95 -21q-11 -78 -54.5 -120.5t-116.5 -42.5zM328 -14q-70 0 -125 22.5t-93 61.5t-57.5 92.5t-19.5 116.5t19.5 116.5t57.5 92.5t93 61.5t125 22.5t125 -22.5t92.5 -61.5
t57 -92.5t19.5 -116.5t-19.5 -116.5t-57 -92.5t-92.5 -61.5t-125 -22.5zM328 128q61 0 96 41t35 110t-35 110t-96 41t-96.5 -41t-35.5 -110t35.5 -110t96.5 -41z" />
    <glyph glyph-name="Ohungarumlaut" unicode="&#x150;" horiz-adv-x="822" 
d="M444 974l-120 -174l-80 47l101 182zM638 967l-128 -167l-79 52l111 177zM411 -10q-81 0 -147.5 26.5t-114.5 76.5t-74 122t-26 164t26 164.5t74 122.5t114.5 76.5t147.5 26.5t147.5 -26.5t114.5 -76.5t74 -122.5t26 -164.5t-26 -164t-74 -122t-114.5 -76.5t-147.5 -26.5z
M411 150q39 0 73.5 15t59.5 44.5t39.5 72t14.5 97.5q0 56 -14.5 98.5t-39.5 71.5t-59.5 44t-73.5 15q-40 0 -74 -15t-59 -44t-39.5 -71.5t-14.5 -98.5q0 -55 14.5 -97.5t39.5 -72t59 -44.5t74 -15z" />
    <glyph glyph-name="ohungarumlaut" unicode="&#x151;" horiz-adv-x="655" 
d="M361 774l-119 -174l-81 47l101 182zM555 767l-128 -167l-79 52l112 177zM328 -14q-70 0 -125 22.5t-93 61.5t-57.5 92.5t-19.5 116.5t19.5 116.5t57.5 92.5t93 61.5t125 22.5t125 -22.5t92.5 -61.5t57 -92.5t19.5 -116.5t-19.5 -116.5t-57 -92.5t-92.5 -61.5t-125 -22.5z
M328 128q61 0 96 41t35 110t-35 110t-96 41t-96.5 -41t-35.5 -110t35.5 -110t96.5 -41z" />
    <glyph glyph-name="OE" unicode="&#x152;" horiz-adv-x="1090" 
d="M656 330v-176h381v-154h-582q-94 0 -169.5 27t-128 76.5t-80.5 119.5t-28 156t28 156.5t80.5 120t128 76.5t169.5 27h576v-154h-375v-128h260v-147h-260zM487 157v444h-32q-107 0 -169 -58t-62 -164q0 -105 62 -163.5t169 -58.5h32z" />
    <glyph glyph-name="oe" unicode="&#x153;" horiz-adv-x="1093" 
d="M1055 233h-413q6 -51 38.5 -82t88.5 -31q82 0 109 50h166q-12 -39 -36.5 -72t-60 -57t-81 -37.5t-99.5 -13.5q-69 0 -124 22t-93 63q-38 -42 -93.5 -65.5t-128.5 -23.5q-70 0 -125 22.5t-93 61.5t-57.5 92.5t-19.5 116.5t19.5 116.5t57.5 92.5t93 61.5t125 22.5
q72 0 128 -23.5t94 -65.5q38 42 92.5 64t123.5 22q66 0 119.5 -20.5t91 -58t58 -91t20.5 -118.5v-48zM766 439q-47 0 -79.5 -27.5t-42.5 -71.5h246q-8 48 -42 73.5t-82 25.5zM328 128q61 0 96 41t35 110t-35 110t-96 41t-96.5 -41t-35.5 -110t35.5 -110t96.5 -41z" />
    <glyph glyph-name="Racute" unicode="&#x154;" horiz-adv-x="742" 
d="M438 1023l48 -127l-256 -90l-41 103zM703 0h-198l-126 224h-124v-224h-169v759h296q66 0 120 -19t93 -54.5t60.5 -85t21.5 -110.5q0 -75 -32.5 -132t-91.5 -91zM255 614v-249h97q66 0 108 31t42 94q0 62 -42 93t-108 31h-97z" />
    <glyph glyph-name="racute" unicode="&#x155;" horiz-adv-x="466" 
d="M352 823l48 -127l-256 -90l-41 103zM232 559v-76q26 42 75 65.5t122 23.5v-164h-63q-69 0 -101.5 -33.5t-32.5 -105.5v-269h-156v559h156z" />
    <glyph glyph-name="uni0156" unicode="&#x156;" horiz-adv-x="742" 
d="M703 0h-198l-126 224h-124v-224h-169v759h296q66 0 120 -19t93 -54.5t60.5 -85t21.5 -110.5q0 -75 -32.5 -132t-91.5 -91zM255 614v-249h97q66 0 108 31t42 94q0 62 -42 93t-108 31h-97zM361 -37q38 0 60 -25t22 -68q0 -48 -27 -79.5t-86 -50.5l-17 -6l-20 61l17 6
q21 7 34.5 13t21.5 16h-8q-33 0 -52 19.5t-19 46.5q0 29 19.5 48t54.5 19z" />
    <glyph glyph-name="uni0157" unicode="&#x157;" horiz-adv-x="466" 
d="M232 559v-76q26 42 75 65.5t122 23.5v-164h-63q-69 0 -101.5 -33.5t-32.5 -105.5v-269h-156v559h156zM155 -37q38 0 60.5 -25t22.5 -68q0 -48 -27 -79.5t-86 -50.5l-17 -6l-21 61l18 6q20 7 33.5 13t21.5 16h-8q-32 0 -51 19.5t-19 46.5q0 29 19.5 48t53.5 19z" />
    <glyph glyph-name="Rcaron" unicode="&#x158;" horiz-adv-x="742" 
d="M525 938l-177 -131h-35l-177 131l82 79l113 -85l112 85zM703 0h-198l-126 224h-124v-224h-169v759h296q66 0 120 -19t93 -54.5t60.5 -85t21.5 -110.5q0 -75 -32.5 -132t-91.5 -91zM255 614v-249h97q66 0 108 31t42 94q0 62 -42 93t-108 31h-97z" />
    <glyph glyph-name="rcaron" unicode="&#x159;" horiz-adv-x="466" 
d="M439 738l-177 -131h-35l-177 131l82 79l113 -85l112 85zM232 559v-76q26 42 75 65.5t122 23.5v-164h-63q-69 0 -101.5 -33.5t-32.5 -105.5v-269h-156v559h156z" />
    <glyph glyph-name="Sacute" unicode="&#x15a;" horiz-adv-x="717" 
d="M515 896l-256 -90l-41 103l249 114zM363 -10q-74 0 -131 18t-96 51t-59 79t-20 101h175q0 -50 35 -82.5t97 -32.5q60 0 90 26t30 64q0 32 -21 52t-77 32l-83 17q-65 13 -109.5 35t-71.5 51.5t-39 66.5t-12 80q0 48 18.5 89t54.5 70t89.5 45.5t123.5 16.5t123.5 -17
t90 -48.5t55 -74.5t18.5 -96h-175q0 42 -30 68.5t-86 26.5q-49 0 -77.5 -22.5t-28.5 -54.5q0 -30 20.5 -49.5t72.5 -31.5l86 -20q124 -28 178.5 -83.5t54.5 -149.5q0 -49 -18.5 -91t-56 -72t-92.5 -47t-129 -17z" />
    <glyph glyph-name="sacute" unicode="&#x15b;" horiz-adv-x="579" 
d="M442 696l-257 -90l-40 103l248 114zM295 -12q-64 0 -111.5 14.5t-79.5 40t-48 61t-16 77.5h155q1 -31 26 -50t80 -19q42 0 62.5 13t20.5 34q0 23 -16 35.5t-65 20.5l-78 13q-49 8 -82.5 24t-53.5 37.5t-28.5 48.5t-8.5 57q0 37 15 69t45 55.5t74 37t102 13.5t103 -14.5
t75.5 -39.5t46 -59t15.5 -74h-156q-1 27 -23.5 45.5t-62.5 18.5q-38 0 -58 -12.5t-20 -32.5q0 -19 14 -30.5t61 -19.5l75 -12q54 -9 89 -25.5t56 -39t29 -50t8 -59.5q0 -82 -63 -130t-182 -48z" />
    <glyph glyph-name="Scircumflex" unicode="&#x15c;" horiz-adv-x="717" 
d="M471 805l-112 85l-113 -85l-82 79l177 132h35l177 -132zM426 450q124 -28 178.5 -83.5t54.5 -149.5q0 -49 -18.5 -91t-56 -72t-92.5 -47t-129 -17t-131 18t-96 51t-59 79t-20 101h175q0 -50 35 -82.5t97 -32.5q60 0 90 26t30 64q0 32 -21 52t-77 32l-83 17
q-65 13 -109.5 35t-71.5 51.5t-39 66.5t-12 80q0 48 18.5 89t54.5 70t89.5 45.5t123.5 16.5t123.5 -17t90 -48.5t55 -74.5t18.5 -96h-175q0 42 -30 68.5t-86 26.5q-49 0 -77.5 -22.5t-28.5 -54.5q0 -30 20.5 -49.5t72.5 -31.5z" />
    <glyph glyph-name="scircumflex" unicode="&#x15d;" horiz-adv-x="579" 
d="M398 605l-113 85l-113 -85l-81 79l176 132h36l176 -132zM358 340q54 -9 89 -25.5t56 -39t29 -50t8 -59.5q0 -82 -63 -130t-182 -48q-64 0 -111.5 14.5t-79.5 40t-48 61t-16 77.5h155q1 -31 26 -50t80 -19q42 0 62.5 13t20.5 34q0 23 -16 35.5t-65 20.5l-78 13
q-49 8 -82.5 24t-53.5 37.5t-28.5 48.5t-8.5 57q0 37 15 69t45 55.5t74 37t102 13.5t103 -14.5t75.5 -39.5t46 -59t15.5 -74h-156q-1 27 -23.5 45.5t-62.5 18.5q-38 0 -58 -12.5t-20 -32.5q0 -19 14 -30.5t61 -19.5z" />
    <glyph glyph-name="Scedilla" unicode="&#x15e;" horiz-adv-x="717" 
d="M659 217q0 -46 -16.5 -86t-49 -69.5t-81 -48t-113.5 -22.5l-9 -27q57 -2 89 -28.5t32 -73.5q0 -52 -42 -82t-114 -30h-87v74h57q33 0 48 11t15 30q0 18 -14.5 27.5t-46.5 9.5h-45l31 90q-62 6 -110 26.5t-80.5 52.5t-49 74.5t-16.5 93.5h175q0 -50 35 -82.5t97 -32.5
q60 0 90 26t30 64q0 32 -21 52t-77 32l-83 17q-65 13 -109.5 35t-71.5 51.5t-39 66.5t-12 80q0 48 18.5 89t54.5 70t89.5 45.5t123.5 16.5t123.5 -17t90 -48.5t55 -74.5t18.5 -96h-175q0 42 -30 68.5t-86 26.5q-49 0 -77.5 -22.5t-28.5 -54.5q0 -30 20.5 -49.5t72.5 -31.5
l86 -20q124 -28 178.5 -83.5t54.5 -149.5z" />
    <glyph glyph-name="scedilla" unicode="&#x15f;" horiz-adv-x="579" 
d="M540 166q0 -76 -53.5 -122.5t-156.5 -54.5l-8 -25q56 -2 88.5 -28.5t32.5 -73.5q0 -52 -42 -82t-115 -30h-86v74h56q33 0 48.5 11t15.5 30q0 18 -14.5 27.5t-46.5 9.5h-45l30 89q-103 11 -153.5 63t-50.5 127h155q1 -31 26 -50t80 -19q42 0 62.5 13t20.5 34
q0 23 -16 35.5t-65 20.5l-78 13q-49 8 -82.5 24t-53.5 37.5t-28.5 48.5t-8.5 57q0 37 15 69t45 55.5t74 37t102 13.5t103 -14.5t75.5 -39.5t46 -59t15.5 -74h-156q-1 27 -23.5 45.5t-62.5 18.5q-38 0 -58 -12.5t-20 -32.5q0 -19 14 -30.5t61 -19.5l75 -12q54 -9 89 -25.5
t56 -39t29 -50t8 -59.5z" />
    <glyph glyph-name="Scaron" unicode="&#x160;" horiz-adv-x="717" 
d="M554 938l-177 -131h-35l-177 131l82 79l113 -85l112 85zM426 450q124 -28 178.5 -83.5t54.5 -149.5q0 -49 -18.5 -91t-56 -72t-92.5 -47t-129 -17t-131 18t-96 51t-59 79t-20 101h175q0 -50 35 -82.5t97 -32.5q60 0 90 26t30 64q0 32 -21 52t-77 32l-83 17
q-65 13 -109.5 35t-71.5 51.5t-39 66.5t-12 80q0 48 18.5 89t54.5 70t89.5 45.5t123.5 16.5t123.5 -17t90 -48.5t55 -74.5t18.5 -96h-175q0 42 -30 68.5t-86 26.5q-49 0 -77.5 -22.5t-28.5 -54.5q0 -30 20.5 -49.5t72.5 -31.5z" />
    <glyph glyph-name="scaron" unicode="&#x161;" horiz-adv-x="579" 
d="M480 738l-176 -131h-36l-176 131l81 79l113 -85l113 85zM358 340q54 -9 89 -25.5t56 -39t29 -50t8 -59.5q0 -82 -63 -130t-182 -48q-64 0 -111.5 14.5t-79.5 40t-48 61t-16 77.5h155q1 -31 26 -50t80 -19q42 0 62.5 13t20.5 34q0 23 -16 35.5t-65 20.5l-78 13
q-49 8 -82.5 24t-53.5 37.5t-28.5 48.5t-8.5 57q0 37 15 69t45 55.5t74 37t102 13.5t103 -14.5t75.5 -39.5t46 -59t15.5 -74h-156q-1 27 -23.5 45.5t-62.5 18.5q-38 0 -58 -12.5t-20 -32.5q0 -19 14 -30.5t61 -19.5z" />
    <glyph glyph-name="uni0162" unicode="&#x162;" horiz-adv-x="678" 
d="M423 598v-598h-45l-12 -36q56 -2 88.5 -28.5t32.5 -73.5q0 -52 -42 -82t-114 -30h-87v74h57q33 0 48 11t15 30q0 18 -14.5 27.5t-46.5 9.5h-45l34 98h-38v598h-224v161h618v-161h-225z" />
    <glyph glyph-name="uni0163" unicode="&#x163;" horiz-adv-x="454" 
d="M297 427v-427h-37l-12 -36q57 -2 89 -28.5t32 -73.5q0 -52 -42 -82t-114 -30h-87v74h57q33 0 48 11t15 30q0 18 -14.5 27.5t-46.5 9.5h-45l34 98h-33v427h-105v132h105v176h156v-176h121v-132h-121z" />
    <glyph glyph-name="Tcaron" unicode="&#x164;" horiz-adv-x="678" 
d="M536 938l-177 -131h-35l-177 131l82 79l113 -85l112 85zM30 759h618v-161h-225v-598h-169v598h-224v161z" />
    <glyph glyph-name="tcaron" unicode="&#x165;" horiz-adv-x="454" 
d="M362 596v188h120l-28 -188h-92zM141 735h156v-176h121v-132h-121v-427h-156v427h-105v132h105v176z" />
    <glyph glyph-name="Tbar" unicode="&#x166;" horiz-adv-x="678" 
d="M648 759v-161h-225v-159h137v-135h-137v-304h-169v304h-137v135h137v159h-224v161h618z" />
    <glyph glyph-name="tbar" unicode="&#x167;" horiz-adv-x="454" 
d="M418 559v-132h-121v-101h112v-117h-112v-209h-156v209h-93v117h93v101h-105v132h105v176h156v-176h121z" />
    <glyph glyph-name="Utilde" unicode="&#x168;" horiz-adv-x="748" 
d="M465 822q-20 0 -39 5t-47 19q-24 13 -34.5 17t-21.5 4q-32 0 -38 -42l-103 19q8 68 39.5 101t82.5 33q20 0 37.5 -5t46.5 -20q26 -12 36.5 -16t21.5 -4q29 0 36 42l103 -19q-8 -67 -40 -100.5t-80 -33.5zM374 -10q-147 0 -222 80.5t-75 232.5v456h169v-448
q0 -83 37.5 -122t93.5 -39t93.5 39t37.5 122v448h163v-456q0 -152 -75.5 -232.5t-221.5 -80.5z" />
    <glyph glyph-name="utilde" unicode="&#x169;" horiz-adv-x="654" 
d="M263 667q-32 0 -38 -42l-104 19q9 68 40.5 101t82.5 33q19 0 37 -5t47 -20q25 -12 36 -16t21 -4q30 0 36 42l104 -19q-9 -67 -41 -100.5t-80 -33.5q-20 0 -38.5 5t-47.5 19q-24 13 -34 17t-21 4zM422 559h156v-559h-156v60q-23 -33 -62.5 -53.5t-90.5 -20.5
q-93 0 -148 66t-55 191v316h156v-287q0 -64 27 -98.5t72 -34.5t73 35.5t28 96.5v288z" />
    <glyph glyph-name="Umacron" unicode="&#x16a;" horiz-adv-x="748" 
d="M552 846h-340v109h340v-109zM374 -10q-147 0 -222 80.5t-75 232.5v456h169v-448q0 -83 37.5 -122t93.5 -39t93.5 39t37.5 122v448h163v-456q0 -152 -75.5 -232.5t-221.5 -80.5z" />
    <glyph glyph-name="umacron" unicode="&#x16b;" horiz-adv-x="654" 
d="M152 755h339v-109h-339v109zM422 559h156v-559h-156v60q-23 -33 -62.5 -53.5t-90.5 -20.5q-93 0 -148 66t-55 191v316h156v-287q0 -64 27 -98.5t72 -34.5t73 35.5t28 96.5v288z" />
    <glyph glyph-name="Ubreve" unicode="&#x16c;" horiz-adv-x="748" 
d="M382 820q-73 0 -116.5 42.5t-54.5 120.5l95 21q11 -37 29 -53.5t47 -16.5t47.5 16.5t29.5 53.5l95 -21q-11 -78 -54.5 -120.5t-117.5 -42.5zM374 -10q-147 0 -222 80.5t-75 232.5v456h169v-448q0 -83 37.5 -122t93.5 -39t93.5 39t37.5 122v448h163v-456
q0 -152 -75.5 -232.5t-221.5 -80.5z" />
    <glyph glyph-name="ubreve" unicode="&#x16d;" horiz-adv-x="654" 
d="M322 620q-73 0 -116.5 42.5t-54.5 120.5l95 21q10 -37 28.5 -53.5t47.5 -16.5t47.5 16.5t29.5 53.5l94 -21q-11 -78 -54 -120.5t-117 -42.5zM422 559h156v-559h-156v60q-23 -33 -62.5 -53.5t-90.5 -20.5q-93 0 -148 66t-55 191v316h156v-287q0 -64 27 -98.5t72 -34.5
t73 35.5t28 96.5v288z" />
    <glyph glyph-name="Uring" unicode="&#x16e;" horiz-adv-x="748" 
d="M383 807q-29 0 -53 10t-41.5 27.5t-27.5 41.5t-10 52q0 27 10 51t27.5 41t41.5 27t53 10q60 0 94.5 -37t34.5 -92q0 -57 -34.5 -94t-94.5 -37zM382 892q18 0 31.5 13t13.5 33q0 18 -13.5 31t-31.5 13q-19 0 -32 -13t-13 -31q0 -20 13 -33t32 -13zM374 -10
q-147 0 -222 80.5t-75 232.5v456h169v-448q0 -83 37.5 -122t93.5 -39t93.5 39t37.5 122v448h163v-456q0 -152 -75.5 -232.5t-221.5 -80.5z" />
    <glyph glyph-name="uring" unicode="&#x16f;" horiz-adv-x="654" 
d="M322 607q-28 0 -52.5 10t-41.5 27.5t-27 41.5t-10 52q0 27 10 51t27 41t41.5 27t52.5 10q30 0 54 -10t41 -27t26 -41t9 -51q0 -28 -9 -52t-26 -41.5t-41 -27.5t-54 -10zM322 782q-19 0 -32 -13t-13 -31q0 -20 13 -33t32 -13q18 0 31 13t13 33q0 18 -13 31t-31 13z
M422 559h156v-559h-156v60q-23 -33 -62.5 -53.5t-90.5 -20.5q-93 0 -148 66t-55 191v316h156v-287q0 -64 27 -98.5t72 -34.5t73 35.5t28 96.5v288z" />
    <glyph glyph-name="Uhungarumlaut" unicode="&#x170;" horiz-adv-x="748" 
d="M416 974l-120 -174l-81 47l102 182zM609 967l-127 -167l-79 52l111 177zM374 -10q-147 0 -222 80.5t-75 232.5v456h169v-448q0 -83 37.5 -122t93.5 -39t93.5 39t37.5 122v448h163v-456q0 -152 -75.5 -232.5t-221.5 -80.5z" />
    <glyph glyph-name="uhungarumlaut" unicode="&#x171;" horiz-adv-x="654" 
d="M256 829l99 -55l-119 -174l-81 47zM549 767l-128 -167l-79 52l112 177zM422 559h156v-559h-156v60q-23 -33 -62.5 -53.5t-90.5 -20.5q-93 0 -148 66t-55 191v316h156v-287q0 -64 27 -98.5t72 -34.5t73 35.5t28 96.5v288z" />
    <glyph glyph-name="Uogonek" unicode="&#x172;" horiz-adv-x="748" 
d="M508 759h163v-456q0 -126 -51.5 -203t-152.5 -100q-62 -20 -83 -35.5t-21 -33.5q0 -17 14.5 -26.5t44.5 -9.5h44v-111h-91q-63 0 -96 28t-33 79q0 29 15 55t53 48q-118 16 -177.5 94.5t-59.5 214.5v456h169v-448q0 -83 37.5 -122t93.5 -39t93.5 39t37.5 122v448z" />
    <glyph glyph-name="uogonek" unicode="&#x173;" horiz-adv-x="654" 
d="M578 559v-559q-62 -20 -83 -35.5t-21 -33.5q0 -17 14.5 -26.5t44.5 -9.5h44v-111h-91q-63 0 -96 28t-33 79q0 32 17.5 59t61.5 50h-14v60q-23 -33 -62.5 -53.5t-90.5 -20.5q-93 0 -148 66t-55 191v316h156v-287q0 -64 27 -98.5t72 -34.5t73 35.5t28 96.5v288h156z" />
    <glyph glyph-name="Wcircumflex" unicode="&#x174;" horiz-adv-x="1132" 
d="M684 805l-113 85l-113 -85l-81 79l176 132h36l176 -132zM798 272l146 487h175l-228 -759h-173l-159 521l-162 -521h-160l-223 759h182l141 -485l151 485h163z" />
    <glyph glyph-name="wcircumflex" unicode="&#x175;" horiz-adv-x="881" 
d="M558 605l-113 85l-113 -85l-81 79l176 132h36l176 -132zM618 205l105 354h150l-164 -559h-157l-113 355l-114 -355h-153l-164 559h152l105 -356l110 356h134z" />
    <glyph glyph-name="Ycircumflex" unicode="&#x176;" horiz-adv-x="711" 
d="M470 805l-112 85l-113 -85l-82 79l177 132h35l177 -132zM530 759h177l-267 -497v-262h-168v260l-267 499h182l172 -318z" />
    <glyph glyph-name="ycircumflex" unicode="&#x177;" horiz-adv-x="615" 
d="M423 605l-113 85l-113 -85l-81 79l176 132h36l176 -132zM308 211l145 348h151l-310 -743h-151l86 205l-218 538h157z" />
    <glyph glyph-name="Ydieresis" unicode="&#x178;" horiz-adv-x="711" 
d="M257 834q-34 0 -58 24.5t-24 58.5t24 57.5t58 23.5t58 -23.5t24 -57.5t-24 -58.5t-58 -24.5zM453 834q-34 0 -58 24.5t-24 58.5t24 57.5t58 23.5t58 -23.5t24 -57.5t-24 -58.5t-58 -24.5zM530 759h177l-267 -497v-262h-168v260l-267 499h182l172 -318z" />
    <glyph glyph-name="Zacute" unicode="&#x179;" horiz-adv-x="749" 
d="M483 1023l49 -127l-257 -90l-40 103zM669 603l-391 -449h405v-154h-617v155l390 449h-375v155h588v-156z" />
    <glyph glyph-name="zacute" unicode="&#x17a;" horiz-adv-x="585" 
d="M403 823l48 -127l-256 -90l-41 103zM522 427l-295 -295h301v-132h-471v132h1l289 295h-285v132h461v-132h-1z" />
    <glyph glyph-name="Zdotaccent" unicode="&#x17b;" horiz-adv-x="749" 
d="M373 825q-19 0 -35.5 7t-29 19.5t-19.5 29.5t-7 36t7 35.5t19.5 28.5t29 19t35.5 7q38 0 65 -26t27 -64q0 -19 -7.5 -36t-20 -29.5t-29 -19.5t-35.5 -7zM669 603l-391 -449h405v-154h-617v155l390 449h-375v155h588v-156z" />
    <glyph glyph-name="zdotaccent" unicode="&#x17c;" horiz-adv-x="585" 
d="M293 625q-19 0 -36 7t-29.5 19.5t-19.5 29.5t-7 36t7 35.5t19.5 28.5t29.5 19t36 7q38 0 64.5 -26t26.5 -64q0 -19 -7 -36t-19.5 -29.5t-29 -19.5t-35.5 -7zM522 427l-295 -295h301v-132h-471v132h1l289 295h-285v132h461v-132h-1z" />
    <glyph glyph-name="Zcaron" unicode="&#x17d;" horiz-adv-x="749" 
d="M570 938l-176 -131h-36l-176 131l81 79l113 -85l113 85zM669 603l-391 -449h405v-154h-617v155l390 449h-375v155h588v-156z" />
    <glyph glyph-name="zcaron" unicode="&#x17e;" horiz-adv-x="585" 
d="M490 738l-177 -131h-35l-177 131l82 79l113 -85l113 85zM522 427l-295 -295h301v-132h-471v132h1l289 295h-285v132h461v-132h-1z" />
    <glyph glyph-name="uni018F" unicode="&#x18f;" horiz-adv-x="850" 
d="M426 785q84 0 153.5 -29t118.5 -82t76 -127.5t27 -166.5t-26.5 -167t-76 -128t-119 -82t-156.5 -29q-86 0 -155 28.5t-118 81t-75 127t-26 166.5v53h565q-1 96 -50.5 150t-140.5 54q-63 0 -105.5 -26.5t-60.5 -71.5h-191q17 54 49 99.5t78 78.5t104.5 52t128.5 19z
M427 129q38 0 70.5 12t57 34t40 53t18.5 70h-372q8 -81 59 -125t127 -44z" />
    <glyph glyph-name="uni019D" unicode="&#x19d;" horiz-adv-x="803" 
d="M549 393v366h169v-759h-169v133l-294 338v-507q0 -88 -50 -138.5t-137 -50.5h-87v155h52q53 0 53 52v777h145z" />
    <glyph glyph-name="Gcaron" unicode="&#x1e6;" horiz-adv-x="821" 
d="M611 938l-176 -131h-36l-176 131l81 79l113 -85l113 85zM410 287v135h362v-73q0 -82 -26 -148.5t-73 -113.5t-113.5 -72t-146.5 -25q-81 0 -148 27.5t-115 78t-74.5 122.5t-26.5 161q0 90 26.5 162t74.5 122.5t115 78t148 27.5q73 0 132 -19.5t102.5 -54t72.5 -81
t42 -101.5h-186q-18 44 -59 72t-101 28q-43 0 -78 -15.5t-60.5 -45t-39.5 -73t-14 -100.5t14.5 -100.5t40 -73t62 -45t79.5 -15.5q36 0 66 12t53.5 31.5t38.5 45t21 53.5h-189z" />
    <glyph glyph-name="gcaron" unicode="&#x1e7;" horiz-adv-x="678" 
d="M535 738l-176 -131h-36l-176 131l81 79l113 -85l113 85zM455 559h156v-593q0 -92 -52.5 -145t-144.5 -53h-266v132h241q66 0 66 66v115q-28 -36 -71 -57t-103 -21q-54 0 -99.5 18.5t-78.5 55t-51.5 90t-18.5 122.5t18.5 122t51.5 88.5t78.5 54t99.5 18.5q60 0 103 -20.5
t71 -57.5v65zM326 144q58 0 93.5 40t35.5 109t-35.5 107t-93.5 38q-57 0 -93.5 -38t-36.5 -107q0 -70 36.5 -109.5t93.5 -39.5z" />
    <glyph glyph-name="uni01EA" unicode="&#x1ea;" horiz-adv-x="822" 
d="M524 5q-30 -10 -49.5 -18.5t-30.5 -16.5t-15.5 -16t-4.5 -17q0 -17 15 -26.5t44 -9.5h44v-111h-90q-64 0 -97 28t-33 79q0 27 12.5 51t43.5 45q-71 8 -129 37t-99 78.5t-63.5 117.5t-22.5 153q0 92 26 164.5t74 122.5t114.5 76.5t147.5 26.5t147.5 -26.5t114.5 -76.5
t74 -122.5t26 -164.5q0 -75 -17.5 -136.5t-50 -109t-78.5 -80t-103 -48.5zM224 379q0 -55 14.5 -97.5t39.5 -72t59 -44.5t74 -15q39 0 73.5 15t59.5 44.5t39.5 72t14.5 97.5q0 56 -14.5 98.5t-39.5 71.5t-59.5 44t-73.5 15q-40 0 -74 -15t-59 -44t-39.5 -71.5t-14.5 -98.5z
" />
    <glyph glyph-name="uni01EB" unicode="&#x1eb;" horiz-adv-x="655" 
d="M622 279q0 -101 -49.5 -176t-143.5 -103q-62 -20 -83 -35.5t-21 -33.5q0 -17 15 -26.5t44 -9.5h45v-111h-91q-63 0 -96.5 28t-33.5 79q0 29 14 53.5t48 45.5q-57 9 -101 34.5t-74.5 63.5t-46 86.5t-15.5 104.5q0 63 19.5 116.5t57.5 92.5t93 61.5t125 22.5t125 -22.5
t92.5 -61.5t57 -92.5t19.5 -116.5zM328 128q61 0 96 41t35 110t-35 110t-96 41t-96.5 -41t-35.5 -110t35.5 -110t96.5 -41z" />
    <glyph glyph-name="Aringacute" unicode="&#x1fa;" horiz-adv-x="773" 
d="M477 1189l49 -127l-257 -89l-40 103zM767 0h-176l-48 135h-319l-48 -135h-170l286 751q-36 36 -36 92q0 28 10 51.5t27 41t41.5 27t52.5 9.5q60 0 95 -36.5t35 -92.5q0 -58 -35 -93zM387 888q-19 0 -32 -13t-13 -32t13 -32.5t32 -13.5q18 0 31 13.5t13 32.5t-13 32
t-31 13zM383 582l-107 -300h214z" />
    <glyph glyph-name="aringacute" unicode="&#x1fb;" horiz-adv-x="644" 
d="M414 1091l49 -127l-256 -90l-41 103zM193 738q0 27 10 51t27.5 41t41.5 27t53 10q60 0 94.5 -37t34.5 -92q0 -57 -34.5 -94t-94.5 -37q-29 0 -53 10t-41.5 27.5t-27.5 41.5t-10 52zM368 738q0 18 -13 31t-31 13q-19 0 -32 -13t-13 -31q0 -20 13 -33t32 -13q18 0 31 13
t13 33zM324 569q121 0 187 -64.5t66 -185.5v-319h-156v61q-29 -34 -74.5 -52.5t-107.5 -18.5q-88 0 -139 41.5t-51 114.5q0 66 47 113.5t157 66.5l168 28q0 41 -24.5 63t-72.5 22q-46 0 -68.5 -18.5t-25.5 -50.5h-158q1 39 17.5 74.5t48 63.5t78 44.5t108.5 16.5zM278 116
q65 0 104 32.5t39 86.5v8l-128 -21q-50 -8 -67 -24.5t-17 -38.5q0 -19 17.5 -31t51.5 -12z" />
    <glyph glyph-name="AEacute" unicode="&#x1fc;" horiz-adv-x="1112" 
d="M686 1023l49 -127l-256 -90l-41 103zM681 339l35 -182h360v-157h-512l-22 122h-293l-57 -122h-186l363 759h623v-157h-362l23 -122h252v-141h-224zM461 573l-146 -310h202z" />
    <glyph glyph-name="aeacute" unicode="&#x1fd;" horiz-adv-x="1037" 
d="M632 823l48 -127l-256 -90l-41 103zM1000 229h-413q7 -49 40 -79t89 -30q83 0 108 50h164q-12 -39 -36 -72t-58.5 -57t-78 -37.5t-94.5 -13.5q-154 0 -226 104q-34 -48 -93.5 -76t-144.5 -28q-102 0 -155 44t-53 119q0 65 47.5 110.5t153.5 56.5l186 21v6q0 42 -29 67
t-80 25q-48 0 -71.5 -20t-28.5 -49h-157q2 41 18 77t47.5 63t77.5 43t107 16q136 0 201 -80q35 38 85 59t113 21q64 0 116 -20.5t88.5 -58t56.5 -91t20 -118.5v-52zM714 439q-49 0 -83.5 -28t-42.5 -74h246q-7 48 -39.5 75t-80.5 27zM280 116q60 0 103.5 29.5t51.5 83.5
l-129 -13q-56 -6 -77 -19.5t-21 -36.5q0 -18 16 -31t56 -13z" />
    <glyph glyph-name="Oslashacute" unicode="&#x1fe;" horiz-adv-x="809" 
d="M514 1023l49 -127l-256 -90l-41 103zM661 769l99 -94l-56 -63q27 -46 41.5 -104t14.5 -129q0 -94 -26 -166.5t-72.5 -122t-112 -75t-145.5 -25.5q-119 0 -204 56l-50 -56l-101 95l56 62q-27 46 -41.5 104t-14.5 128q0 95 26 167.5t72.5 122t112 75t144.5 25.5
q122 0 206 -57zM209 379q0 -29 3.5 -53.5t9.5 -46.5l284 317q-47 28 -102 28q-42 0 -77.5 -15.5t-61.5 -46.5t-41 -77t-15 -106zM601 379q0 55 -14 102l-283 -318q43 -28 100 -28q42 0 78 15.5t62.5 46t41.5 76.5t15 106z" />
    <glyph glyph-name="oslashacute" unicode="&#x1ff;" horiz-adv-x="661" 
d="M439 823l48 -127l-256 -90l-41 103zM620 484l-37 -37q46 -72 46 -168q0 -62 -20 -115.5t-58.5 -93t-93.5 -62t-125 -22.5q-99 0 -170 45l-38 -37l-83 80l39 38q-47 71 -47 167q0 63 20.5 116.5t59.5 92.5t94.5 61.5t124.5 22.5q50 0 92 -11.5t76 -32.5l36 36zM176 279
q0 -35 9 -62l215 212q-33 14 -69 14q-71 0 -113 -44.5t-42 -119.5zM331 115q69 0 111.5 44.5t42.5 119.5q0 35 -9 62l-215 -212q31 -14 70 -14z" />
    <glyph glyph-name="uni0218" unicode="&#x218;" horiz-adv-x="717" 
d="M426 450q124 -28 178.5 -83.5t54.5 -149.5q0 -49 -18.5 -91t-56 -72t-92.5 -47t-129 -17t-131 18t-96 51t-59 79t-20 101h175q0 -50 35 -82.5t97 -32.5q60 0 90 26t30 64q0 32 -21 52t-77 32l-83 17q-65 13 -109.5 35t-71.5 51.5t-39 66.5t-12 80q0 48 18.5 89t54.5 70
t89.5 45.5t123.5 16.5t123.5 -17t90 -48.5t55 -74.5t18.5 -96h-175q0 42 -30 68.5t-86 26.5q-49 0 -77.5 -22.5t-28.5 -54.5q0 -30 20.5 -49.5t72.5 -31.5zM364 -37q38 0 60.5 -25t22.5 -68q0 -93 -113 -130l-17 -6l-21 61l17 6q21 7 34.5 13t21.5 16h-8q-32 0 -51 19.5
t-19 46.5q0 29 19.5 48t53.5 19z" />
    <glyph glyph-name="uni0219" unicode="&#x219;" horiz-adv-x="579" 
d="M358 340q54 -9 89 -25.5t56 -39t29 -50t8 -59.5q0 -82 -63 -130t-182 -48q-64 0 -111.5 14.5t-79.5 40t-48 61t-16 77.5h155q1 -31 26 -50t80 -19q42 0 62.5 13t20.5 34q0 23 -16 35.5t-65 20.5l-78 13q-49 8 -82.5 24t-53.5 37.5t-28.5 48.5t-8.5 57q0 37 15 69t45 55.5
t74 37t102 13.5t103 -14.5t75.5 -39.5t46 -59t15.5 -74h-156q-1 27 -23.5 45.5t-62.5 18.5q-38 0 -58 -12.5t-20 -32.5q0 -19 14 -30.5t61 -19.5zM296 -37q38 0 60 -25t22 -68q0 -48 -27 -79.5t-85 -50.5l-17 -6l-21 61l17 6q21 7 34.5 13t21.5 16h-8q-32 0 -51.5 19.5
t-19.5 46.5q0 29 20 48t54 19z" />
    <glyph glyph-name="uni021A" unicode="&#x21a;" horiz-adv-x="678" 
d="M30 759h618v-161h-225v-598h-169v598h-224v161zM340 -37q38 0 60.5 -25t22.5 -68q0 -93 -113 -130l-17 -6l-21 61l17 6q21 7 34.5 13t21.5 16h-8q-32 0 -51.5 19.5t-19.5 46.5q0 29 20 48t54 19z" />
    <glyph glyph-name="uni021B" unicode="&#x21b;" horiz-adv-x="454" 
d="M297 735v-176h121v-132h-121v-427h-156v427h-105v132h105v176h156zM223 -37q38 0 60 -25t22 -68q0 -48 -27 -79.5t-86 -50.5l-17 -6l-20 61l17 6q20 7 34 13t22 16h-8q-33 0 -52 19.5t-19 46.5q0 29 19.5 48t54.5 19z" />
    <glyph glyph-name="uni0232" unicode="&#x232;" horiz-adv-x="711" 
d="M186 955h339v-109h-339v109zM530 759h177l-267 -497v-262h-168v260l-267 499h182l172 -318z" />
    <glyph glyph-name="uni0233" unicode="&#x233;" horiz-adv-x="615" 
d="M138 755h339v-109h-339v109zM308 211l145 348h151l-310 -743h-151l86 205l-218 538h157z" />
    <glyph glyph-name="uni0237" unicode="&#x237;" horiz-adv-x="312" 
d="M-26 -232v151h56q52 0 52 52v588h156v-603q0 -88 -50 -138t-137 -50h-77z" />
    <glyph glyph-name="uni0259" unicode="&#x259;" horiz-adv-x="649" 
d="M326 569q66 0 119.5 -20.5t91.5 -58.5t58.5 -91.5t20.5 -118.5t-20.5 -118.5t-58 -91.5t-91 -59t-119.5 -21t-119.5 20.5t-91 58t-58 91t-20.5 118.5v48h413q-6 51 -38.5 82t-88.5 31q-42 0 -69 -13.5t-40 -36.5h-166q12 39 36.5 72t60 57t81 37.5t99.5 13.5zM327 120
q48 0 80.5 28t41.5 71h-246q8 -48 42 -73.5t82 -25.5z" />
    <glyph glyph-name="uni0272" unicode="&#x272;" horiz-adv-x="666" 
d="M391 572q96 0 152.5 -65.5t56.5 -190.5v-316h-156v286q0 65 -28 99.5t-76 34.5t-78 -36t-30 -97v-318q0 -93 -44 -143.5t-136 -50.5h-47v151h19q52 0 52 53v580h156v-63q23 34 64 55t95 21z" />
    <glyph glyph-name="circumflex" unicode="&#x2c6;" horiz-adv-x="388" 
d="M212 816l176 -132l-81 -79l-113 85l-113 -85l-81 79l176 132h36z" />
    <glyph glyph-name="caron" unicode="&#x2c7;" horiz-adv-x="388" 
d="M194 732l113 85l81 -79l-176 -131h-36l-176 131l81 79z" />
    <glyph glyph-name="breve" unicode="&#x2d8;" horiz-adv-x="342" 
d="M171 620q-73 0 -116.5 42.5t-54.5 120.5l95 21q10 -37 28.5 -53.5t47.5 -16.5t47.5 16.5t29.5 53.5l94 -21q-11 -78 -54 -120.5t-117 -42.5z" />
    <glyph glyph-name="dotaccent" unicode="&#x2d9;" horiz-adv-x="183" 
d="M92 625q-19 0 -36 7t-29.5 19.5t-19.5 29.5t-7 36t7 35.5t19.5 28.5t29.5 19t36 7q38 0 64.5 -26t26.5 -64q0 -19 -7 -36t-19.5 -29.5t-29 -19.5t-35.5 -7z" />
    <glyph glyph-name="ring" unicode="&#x2da;" horiz-adv-x="261" 
d="M131 607q-28 0 -52.5 10t-41.5 27.5t-27 41.5t-10 52q0 27 10 51t27 41t41.5 27t52.5 10q30 0 54 -10t41 -27t26 -41t9 -51q0 -28 -9 -52t-26 -41.5t-41 -27.5t-54 -10zM131 692q18 0 31 13t13 33q0 18 -13 31t-31 13q-19 0 -32 -13t-13 -31q0 -20 13 -33t32 -13z" />
    <glyph glyph-name="ogonek" unicode="&#x2db;" horiz-adv-x="221" 
d="M220 -216h-90q-64 0 -97 28t-33 79q0 38 26.5 70.5t94.5 56.5l100 -18q-62 -20 -83 -35.5t-21 -33.5q0 -17 15 -26.5t44 -9.5h44v-111z" />
    <glyph glyph-name="tilde" unicode="&#x2dc;" horiz-adv-x="404" 
d="M283 622q-20 0 -38.5 5t-47.5 19q-24 13 -34 17t-21 4q-32 0 -38 -42l-104 19q9 68 40.5 101t82.5 33q19 0 36.5 -5t46.5 -20q26 -12 37 -16t21 -4q30 0 36 42l104 -19q-9 -67 -41 -100.5t-80 -33.5z" />
    <glyph glyph-name="hungarumlaut" unicode="&#x2dd;" horiz-adv-x="392" 
d="M198 774l-120 -174l-81 47l102 182zM392 767l-128 -167l-79 52l111 177z" />
    <glyph glyph-name="gravecomb" unicode="&#x300;" horiz-adv-x="0" 
d="M0 709l-41 -103l-256 90l48 127z" />
    <glyph glyph-name="acutecomb" unicode="&#x301;" horiz-adv-x="0" 
d="M0 696l-256 -90l-41 103l249 114z" />
    <glyph glyph-name="uni0302" unicode="&#x302;" horiz-adv-x="0" 
d="M-176 816l176 -132l-81 -79l-113 85l-113 -85l-81 79l176 132h36z" />
    <glyph glyph-name="tildecomb" unicode="&#x303;" horiz-adv-x="0" 
d="M-121 622q-20 0 -38.5 5t-47.5 19q-24 13 -34 17t-21 4q-32 0 -38 -42l-104 19q9 68 40.5 101t82.5 33q19 0 36.5 -5t46.5 -20q26 -12 37 -16t21 -4q30 0 36 42l104 -19q-9 -67 -41 -100.5t-80 -33.5z" />
    <glyph glyph-name="uni0304" unicode="&#x304;" horiz-adv-x="0" 
d="M0 646h-339v109h339v-109z" />
    <glyph glyph-name="uni0306" unicode="&#x306;" horiz-adv-x="0" 
d="M-171 620q-73 0 -116.5 42.5t-54.5 120.5l95 21q10 -37 28.5 -53.5t47.5 -16.5t47.5 16.5t29.5 53.5l94 -21q-11 -78 -54 -120.5t-117 -42.5z" />
    <glyph glyph-name="uni0307" unicode="&#x307;" horiz-adv-x="0" 
d="M-91 625q-19 0 -36 7t-29.5 19.5t-19.5 29.5t-7 36t7 35.5t19.5 28.5t29.5 19t36 7q38 0 64.5 -26t26.5 -64q0 -19 -7 -36t-19.5 -29.5t-29 -19.5t-35.5 -7z" />
    <glyph glyph-name="uni0308" unicode="&#x308;" horiz-adv-x="0" 
d="M-327 634q-35 0 -59 24.5t-24 58.5t24 57.5t59 23.5q33 0 57 -23.5t24 -57.5t-24 -58.5t-57 -24.5zM-131 634q-35 0 -58.5 24.5t-23.5 58.5t23.5 57.5t58.5 23.5q33 0 57 -23.5t24 -57.5t-24 -58.5t-57 -24.5z" />
    <glyph glyph-name="uni030A" unicode="&#x30a;" horiz-adv-x="0" 
d="M-130 607q-29 0 -53 10t-41 27.5t-27 41.5t-10 52q0 27 10 51t27 41t41 27t53 10q30 0 54 -10t41 -27t26 -41t9 -51q0 -28 -9 -52t-26 -41.5t-41 -27.5t-54 -10zM-130 692q18 0 31 13t13 33q0 18 -13 31t-31 13q-19 0 -32 -13t-13 -31q0 -20 13 -33t32 -13z" />
    <glyph glyph-name="uni030B" unicode="&#x30b;" horiz-adv-x="0" 
d="M-194 774l-120 -174l-81 47l102 182zM0 767l-128 -167l-79 52l111 177z" />
    <glyph glyph-name="uni030C" unicode="&#x30c;" horiz-adv-x="0" 
d="M-194 732l113 85l81 -79l-176 -131h-36l-176 131l81 79z" />
    <glyph glyph-name="uni0312" unicode="&#x312;" horiz-adv-x="0" 
d="M-108 747q32 0 51.5 -19.5t19.5 -45.5q0 -29 -20 -48t-54 -19q-38 0 -60.5 25t-22.5 68q0 93 113 130l17 6l21 -62l-17 -5q-22 -7 -35.5 -13t-21.5 -17h9z" />
    <glyph glyph-name="uni0315" unicode="&#x315;" horiz-adv-x="0" 
d="M-28 596h-92v188h120z" />
    <glyph glyph-name="uni0326" unicode="&#x326;" horiz-adv-x="0" 
d="M-114 -43q38 0 60 -25t22 -68q0 -47 -27 -79t-86 -51l-17 -6l-20 61l17 6q21 7 34.5 13t21.5 16h-8q-33 0 -52 19.5t-19 46.5q0 29 20 48t54 19z" />
    <glyph glyph-name="uni0327" unicode="&#x327;" horiz-adv-x="0" 
d="M-93 33l-23 -69q57 -2 89 -28.5t32 -73.5q0 -52 -42 -82t-114 -30h-87v74h57q33 0 48 11t15 30q0 18 -14.5 27.5t-46.5 9.5h-45l45 131h86z" />
    <glyph glyph-name="uni0328" unicode="&#x328;" horiz-adv-x="0" 
d="M-1 -216h-90q-64 0 -97 28t-33 79q0 38 26.5 70.5t94.5 56.5l100 -18q-62 -20 -83 -35.5t-21 -33.5q0 -17 15 -26.5t44 -9.5h44v-111z" />
    <glyph glyph-name="uni0394" unicode="&#x394;" horiz-adv-x="734" 
d="M285 730h164l260 -589v-141h-684v141zM525 155l-158 383l-157 -383h315z" />
    <glyph glyph-name="uni03A9" unicode="&#x3a9;" horiz-adv-x="808" 
d="M771 415q0 -85 -33 -151.5t-95 -112.5h116v-151h-311v170q126 95 126 223q0 42 -11 77.5t-33 62t-53.5 41t-72.5 14.5t-72.5 -14.5t-53.5 -41t-33 -62t-11 -77.5q0 -130 126 -223v-170h-311v151h116q-63 46 -96 112.5t-33 151.5q0 74 26.5 134t74.5 103.5t116 67
t151 23.5t150.5 -23.5t115.5 -67t74.5 -103.5t26.5 -134z" />
    <glyph glyph-name="uni03BC" unicode="&#x3bc;" horiz-adv-x="674" 
d="M451 559h156v-559h-156v78q-10 -17 -25.5 -33.5t-36 -29.5t-46 -21t-55.5 -8q-31 0 -56 7v-183h-156v749h156v-275q0 -73 28.5 -109t79.5 -36t81 37t30 107v276z" />
    <glyph glyph-name="pi" unicode="&#x3c0;" horiz-adv-x="726" 
d="M694 559v-151h-113v-201q0 -56 56 -56h57v-151h-102q-77 0 -122 45.5t-45 123.5v239h-131l-30 -408h-156l30 408h-123v151h679z" />
    <glyph glyph-name="Wgrave" unicode="&#x1e80;" horiz-adv-x="1132" 
d="M452 1023l248 -114l-41 -103l-256 90zM798 272l146 487h175l-228 -759h-173l-159 521l-162 -521h-160l-223 759h182l141 -485l151 485h163z" />
    <glyph glyph-name="wgrave" unicode="&#x1e81;" horiz-adv-x="881" 
d="M325 823l249 -114l-41 -103l-256 90zM618 205l105 354h150l-164 -559h-157l-113 355l-114 -355h-153l-164 559h152l105 -356l110 356h134z" />
    <glyph glyph-name="Wacute" unicode="&#x1e82;" horiz-adv-x="1132" 
d="M679 1023l49 -127l-256 -90l-41 103zM798 272l146 487h175l-228 -759h-173l-159 521l-162 -521h-160l-223 759h182l141 -485l151 485h163z" />
    <glyph glyph-name="wacute" unicode="&#x1e83;" horiz-adv-x="881" 
d="M553 823l49 -127l-257 -90l-40 103zM618 205l105 354h150l-164 -559h-157l-113 355l-114 -355h-153l-164 559h152l105 -356l110 356h134z" />
    <glyph glyph-name="Wdieresis" unicode="&#x1e84;" horiz-adv-x="1132" 
d="M471 834q-35 0 -59 24.5t-24 58.5t24 57.5t59 23.5q33 0 57 -23.5t24 -57.5t-24 -58.5t-57 -24.5zM667 834q-34 0 -58 24.5t-24 58.5t24 57.5t58 23.5q33 0 57 -23.5t24 -57.5t-24 -58.5t-57 -24.5zM798 272l146 487h175l-228 -759h-173l-159 521l-162 -521h-160
l-223 759h182l141 -485l151 485h163z" />
    <glyph glyph-name="wdieresis" unicode="&#x1e85;" horiz-adv-x="881" 
d="M344 634q-34 0 -58 24.5t-24 58.5t24 57.5t58 23.5t58 -23.5t24 -57.5t-24 -58.5t-58 -24.5zM541 634q-35 0 -58.5 24.5t-23.5 58.5t23.5 57.5t58.5 23.5q33 0 57 -23.5t24 -57.5t-24 -58.5t-57 -24.5zM618 205l105 354h150l-164 -559h-157l-113 355l-114 -355h-153
l-164 559h152l105 -356l110 356h134z" />
    <glyph glyph-name="Germandbls" unicode="&#x1e9e;" horiz-adv-x="824" 
d="M746 711l-124 -259q83 -26 129 -83t46 -134q0 -54 -17.5 -97t-54 -74t-92.5 -47.5t-133 -16.5h-102v148h92q66 0 98.5 27.5t32.5 70.5q0 39 -36 66.5t-106 27.5h-66v10l120 251q-30 6 -72 6q-111 0 -163 -54.5t-52 -152.5v-400h-169v418q0 171 107 261t310 90
q33 0 67.5 -3.5t67.5 -9.5t63 -15t54 -20v-10z" />
    <glyph glyph-name="uni1EA0" unicode="&#x1ea0;" horiz-adv-x="773" 
d="M479 759l288 -759h-176l-48 135h-319l-48 -135h-170l289 759h184zM383 582l-107 -300h214zM385 -63q38 0 65 -26t27 -64q0 -19 -7.5 -36t-20 -29.5t-29 -19.5t-35.5 -7t-35.5 7t-29 19.5t-19.5 29.5t-7 36t7 35.5t19.5 28.5t29 19t35.5 7z" />
    <glyph glyph-name="uni1EA1" unicode="&#x1ea1;" horiz-adv-x="644" 
d="M324 569q121 0 187 -64.5t66 -185.5v-319h-156v61q-29 -34 -74.5 -52.5t-107.5 -18.5q-88 0 -139 41.5t-51 114.5q0 66 47 113.5t157 66.5l168 28q0 41 -24.5 63t-72.5 22q-46 0 -68.5 -18.5t-25.5 -50.5h-158q1 39 17.5 74.5t48 63.5t78 44.5t108.5 16.5zM278 116
q65 0 104 32.5t39 86.5v8l-128 -21q-50 -8 -67 -24.5t-17 -38.5q0 -19 17.5 -31t51.5 -12zM337 -63q38 0 65 -26t27 -64q0 -19 -7.5 -36t-20 -29.5t-29 -19.5t-35.5 -7t-35.5 7t-29 19.5t-19.5 29.5t-7 36t7 35.5t19.5 28.5t29 19t35.5 7z" />
    <glyph glyph-name="uni1EB8" unicode="&#x1eb8;" horiz-adv-x="688" 
d="M255 330v-176h381v-154h-550v759h544v-154h-375v-128h260v-147h-260zM361 -63q38 0 64.5 -26t26.5 -64q0 -19 -7 -36t-19.5 -29.5t-29 -19.5t-35.5 -7t-36 7t-29.5 19.5t-19.5 29.5t-7 36t7 35.5t19.5 28.5t29.5 19t36 7z" />
    <glyph glyph-name="uni1EB9" unicode="&#x1eb9;" horiz-adv-x="649" 
d="M611 233h-413q6 -51 38.5 -82t88.5 -31q82 0 109 50h166q-12 -39 -36.5 -72t-60 -57t-81 -37.5t-99.5 -13.5q-66 0 -119.5 20.5t-91.5 58.5t-58.5 91.5t-20.5 118.5t20.5 118.5t58 91.5t91 59t119.5 21t119.5 -20.5t91 -58t58 -91t20.5 -118.5v-48zM322 439
q-47 0 -79.5 -27.5t-42.5 -71.5h246q-8 48 -42 73.5t-82 25.5zM322 -63q38 0 64.5 -26t26.5 -64q0 -19 -7 -36t-19.5 -29.5t-29 -19.5t-35.5 -7t-36 7t-29.5 19.5t-19.5 29.5t-7 36t7 35.5t19.5 28.5t29.5 19t36 7z" />
    <glyph glyph-name="uni1EBC" unicode="&#x1ebc;" horiz-adv-x="688" 
d="M303 867q-32 0 -38 -42l-103 19q8 68 39.5 101t82.5 33q20 0 37.5 -5t46.5 -20q26 -12 36.5 -16t21.5 -4q29 0 36 42l103 -19q-8 -67 -40 -100.5t-80 -33.5q-20 0 -39 5t-47 19q-24 13 -34.5 17t-21.5 4zM255 330v-176h381v-154h-550v759h544v-154h-375v-128h260v-147
h-260z" />
    <glyph glyph-name="uni1EBD" unicode="&#x1ebd;" horiz-adv-x="649" 
d="M263 667q-32 0 -38 -42l-104 19q9 68 40.5 101t82.5 33q19 0 37 -5t47 -20q25 -12 36 -16t21 -4q30 0 36 42l104 -19q-9 -67 -41 -100.5t-80 -33.5q-20 0 -38.5 5t-47.5 19q-24 13 -34 17t-21 4zM611 233h-413q6 -51 38.5 -82t88.5 -31q82 0 109 50h166
q-12 -39 -36.5 -72t-60 -57t-81 -37.5t-99.5 -13.5q-66 0 -119.5 20.5t-91.5 58.5t-58.5 91.5t-20.5 118.5t20.5 118.5t58 91.5t91 59t119.5 21t119.5 -20.5t91 -58t58 -91t20.5 -118.5v-48zM322 439q-47 0 -79.5 -27.5t-42.5 -71.5h246q-8 48 -42 73.5t-82 25.5z" />
    <glyph glyph-name="uni1ECA" unicode="&#x1eca;" horiz-adv-x="340" 
d="M255 0h-169v759h169v-759zM170 -245q-19 0 -36 7t-29.5 19.5t-19.5 29.5t-7 36t7 35.5t19.5 28.5t29.5 19t36 7q38 0 64.5 -26t26.5 -64q0 -19 -7 -36t-19.5 -29.5t-29 -19.5t-35.5 -7z" />
    <glyph glyph-name="uni1ECB" unicode="&#x1ecb;" horiz-adv-x="303" 
d="M151 623q-44 0 -68.5 28t-24.5 66q0 39 24.5 66.5t68.5 27.5t69 -27.5t25 -66.5q0 -38 -25 -66t-69 -28zM230 0h-156v572q15 -11 33.5 -17t44.5 -6t45 6t33 17v-572zM154 -245q-19 0 -35.5 7t-29 19.5t-19.5 29.5t-7 36t7 35.5t19.5 28.5t29 19t35.5 7t36 -7t29.5 -19
t19.5 -28.5t7 -35.5t-7 -36t-19.5 -29.5t-29.5 -19.5t-36 -7z" />
    <glyph glyph-name="uni1ECC" unicode="&#x1ecc;" horiz-adv-x="822" 
d="M411 -10q-81 0 -147.5 26.5t-114.5 76.5t-74 122t-26 164t26 164.5t74 122.5t114.5 76.5t147.5 26.5t147.5 -26.5t114.5 -76.5t74 -122.5t26 -164.5t-26 -164t-74 -122t-114.5 -76.5t-147.5 -26.5zM411 150q39 0 73.5 15t59.5 44.5t39.5 72t14.5 97.5q0 56 -14.5 98.5
t-39.5 71.5t-59.5 44t-73.5 15q-40 0 -74 -15t-59 -44t-39.5 -71.5t-14.5 -98.5q0 -55 14.5 -97.5t39.5 -72t59 -44.5t74 -15zM411 -245q-19 0 -36 7t-29.5 19.5t-19.5 29.5t-7 36t7 35.5t19.5 28.5t29.5 19t36 7q38 0 64.5 -26t26.5 -64q0 -19 -7 -36t-19.5 -29.5
t-29 -19.5t-35.5 -7z" />
    <glyph glyph-name="uni1ECD" unicode="&#x1ecd;" horiz-adv-x="655" 
d="M328 -14q-70 0 -125 22.5t-93 61.5t-57.5 92.5t-19.5 116.5t19.5 116.5t57.5 92.5t93 61.5t125 22.5t125 -22.5t92.5 -61.5t57 -92.5t19.5 -116.5t-19.5 -116.5t-57 -92.5t-92.5 -61.5t-125 -22.5zM328 128q61 0 96 41t35 110t-35 110t-96 41t-96.5 -41t-35.5 -110
t35.5 -110t96.5 -41zM328 -245q-19 0 -36 7t-29.5 19.5t-19.5 29.5t-7 36t7 35.5t19.5 28.5t29.5 19t36 7q38 0 65 -26t27 -64q0 -19 -7.5 -36t-20 -29.5t-29 -19.5t-35.5 -7z" />
    <glyph glyph-name="uni1EE4" unicode="&#x1ee4;" horiz-adv-x="748" 
d="M374 -10q-147 0 -222 80.5t-75 232.5v456h169v-448q0 -83 37.5 -122t93.5 -39t93.5 39t37.5 122v448h163v-456q0 -152 -75.5 -232.5t-221.5 -80.5zM374 -245q-19 0 -36 7t-29.5 19.5t-19.5 29.5t-7 36t7 35.5t19.5 28.5t29.5 19t36 7q38 0 65 -26t27 -64q0 -19 -7.5 -36
t-20 -29.5t-29 -19.5t-35.5 -7z" />
    <glyph glyph-name="uni1EE5" unicode="&#x1ee5;" horiz-adv-x="654" 
d="M422 559h156v-559h-156v60q-23 -33 -62.5 -53.5t-90.5 -20.5q-93 0 -148 66t-55 191v316h156v-287q0 -64 27 -98.5t72 -34.5t73 35.5t28 96.5v288zM329 -63q19 0 36 -7t29.5 -19t19.5 -28.5t7 -35.5t-7 -36t-19.5 -29.5t-29.5 -19.5t-36 -7t-35.5 7t-29 19.5t-19.5 29.5
t-7 36t7 35.5t19.5 28.5t29 19t35.5 7z" />
    <glyph glyph-name="Ygrave" unicode="&#x1ef2;" horiz-adv-x="711" 
d="M238 1023l248 -114l-40 -103l-257 90zM530 759h177l-267 -497v-262h-168v260l-267 499h182l172 -318z" />
    <glyph glyph-name="ygrave" unicode="&#x1ef3;" horiz-adv-x="615" 
d="M190 823l249 -114l-41 -103l-256 90zM308 211l145 348h151l-310 -743h-151l86 205l-218 538h157z" />
    <glyph glyph-name="uni1EF8" unicode="&#x1ef8;" horiz-adv-x="711" 
d="M297 867q-33 0 -39 -42l-103 19q9 68 40.5 101t81.5 33q20 0 37.5 -5t46.5 -20q26 -12 36.5 -16t21.5 -4q29 0 36 42l104 -19q-9 -67 -41 -100.5t-80 -33.5q-20 0 -38.5 5t-47.5 19q-24 13 -34 17t-21 4zM530 759h177l-267 -497v-262h-168v260l-267 499h182l172 -318z
" />
    <glyph glyph-name="uni1EF9" unicode="&#x1ef9;" horiz-adv-x="615" 
d="M249 667q-32 0 -38 -42l-104 19q9 68 40.5 101t82.5 33q19 0 37 -5t47 -20q25 -12 36 -16t21 -4q30 0 36 42l104 -19q-9 -67 -41 -100.5t-80 -33.5q-20 0 -38.5 5t-47.5 19q-24 13 -34 17t-21 4zM308 211l145 348h151l-310 -743h-151l86 205l-218 538h157z" />
    <glyph glyph-name="uni2009" unicode="&#x2009;" horiz-adv-x="44" 
 />
    <glyph glyph-name="endash" unicode="&#x2013;" horiz-adv-x="500" 
d="M500 244h-500v127h500v-127z" />
    <glyph glyph-name="emdash" unicode="&#x2014;" horiz-adv-x="1000" 
d="M1000 244h-1000v127h1000v-127z" />
    <glyph glyph-name="quoteleft" unicode="&#x2018;" horiz-adv-x="227" 
d="M122 666q39 0 62 -24t23 -56q0 -36 -24 -59.5t-64 -23.5q-47 0 -73 33.5t-26 90.5q0 61 32 104.5t103 66.5l21 7l24 -74l-21 -6q-33 -10 -51 -24.5t-25 -36.5q5 1 9.5 1.5t9.5 0.5z" />
    <glyph glyph-name="quoteright" unicode="&#x2019;" horiz-adv-x="227" 
d="M108 805q47 0 73 -33.5t26 -90.5q0 -61 -32 -104.5t-103 -66.5l-21 -7l-24 74l21 6q33 10 51 24.5t25 36.5q-5 -1 -9.5 -1.5t-9.5 -0.5q-39 0 -62 24t-23 56q0 36 24 59.5t64 23.5z" />
    <glyph glyph-name="quotesinglbase" unicode="&#x201a;" horiz-adv-x="227" 
d="M108 157q47 0 73 -33.5t26 -90.5q0 -61 -32 -104.5t-103 -66.5l-21 -7l-24 73l21 7q33 10 51 24.5t25 36.5q-5 -1 -9.5 -1.5t-9.5 -0.5q-39 0 -62 24t-23 56q0 36 24 59.5t64 23.5z" />
    <glyph glyph-name="quotedblleft" unicode="&#x201c;" horiz-adv-x="452" 
d="M122 666q39 0 62 -24t23 -56q0 -36 -24 -59.5t-64 -23.5q-47 0 -73 33.5t-26 90.5q0 61 32 104.5t103 66.5l21 7l24 -74l-21 -6q-33 -10 -51 -24.5t-25 -36.5q5 1 9.5 1.5t9.5 0.5zM347 666q39 0 62 -24t23 -56q0 -36 -24 -59.5t-64 -23.5q-46 0 -72.5 33.5t-26.5 90.5
q0 61 32 104.5t103 66.5l21 7l24 -74l-21 -6q-33 -10 -51 -24.5t-25 -36.5q5 1 9.5 1.5t9.5 0.5z" />
    <glyph glyph-name="quotedblright" unicode="&#x201d;" horiz-adv-x="452" 
d="M108 805q47 0 73 -33.5t26 -90.5q0 -61 -32 -104.5t-103 -66.5l-21 -7l-24 74l21 6q33 10 51 24.5t25 36.5q-5 -1 -9.5 -1.5t-9.5 -0.5q-39 0 -62 24t-23 56q0 36 24 59.5t64 23.5zM333 805q47 0 73 -33.5t26 -90.5q0 -61 -32 -104.5t-103 -66.5l-20 -7l-25 74l21 6
q33 10 51 24.5t25 36.5q-5 -1 -9.5 -1.5t-9.5 -0.5q-39 0 -62 24t-23 56q0 36 24 59.5t64 23.5z" />
    <glyph glyph-name="quotedblbase" unicode="&#x201e;" horiz-adv-x="452" 
d="M108 157q47 0 73 -33.5t26 -90.5q0 -61 -32 -104.5t-103 -66.5l-21 -7l-24 73l21 7q33 10 51 24.5t25 36.5q-5 -1 -9.5 -1.5t-9.5 -0.5q-39 0 -62 24t-23 56q0 36 24 59.5t64 23.5zM333 157q47 0 73 -33.5t26 -90.5q0 -61 -32 -104.5t-103 -66.5l-20 -7l-25 73l21 7
q33 10 51 24.5t25 36.5q-5 -1 -9.5 -1.5t-9.5 -0.5q-39 0 -62 24t-23 56q0 36 24 59.5t64 23.5z" />
    <glyph glyph-name="dagger" unicode="&#x2020;" horiz-adv-x="648" 
d="M408 559h217v-156h-217v-593h-169v593h-216v156h216v236h169v-236z" />
    <glyph glyph-name="daggerdbl" unicode="&#x2021;" horiz-adv-x="648" 
d="M625 559v-153h-217v-218h217v-153h-217v-225h-169v225h-216v153h216v218h-216v153h216v236h169v-236h217z" />
    <glyph glyph-name="bullet" unicode="&#x2022;" horiz-adv-x="357" 
d="M171 241q-29 0 -53.5 10.5t-42 29t-27.5 43t-10 51.5q0 28 10 52t27.5 42t42 28.5t53.5 10.5t53.5 -10.5t42 -28.5t27 -42t9.5 -52q0 -27 -9.5 -51.5t-27 -43t-42 -29t-53.5 -10.5z" />
    <glyph glyph-name="ellipsis" unicode="&#x2026;" horiz-adv-x="883" 
d="M133 -12q-45 0 -72.5 29.5t-27.5 71.5q0 43 27.5 72t72.5 29t72.5 -29t27.5 -72q0 -21 -7 -39t-20.5 -32t-31.5 -22t-41 -8zM441 -12q-45 0 -72.5 29.5t-27.5 71.5q0 43 27.5 72t72.5 29t72.5 -29t27.5 -72q0 -21 -7 -39t-20.5 -32t-31.5 -22t-41 -8zM750 -12
q-45 0 -73 29.5t-28 71.5q0 43 28 72t73 29t72.5 -29t27.5 -72q0 -42 -27.5 -71.5t-72.5 -29.5z" />
    <glyph glyph-name="perthousand" unicode="&#x2030;" horiz-adv-x="1264" 
d="M193 380q-41 0 -74.5 13.5t-57.5 37.5t-37.5 57.5t-13.5 72.5q0 41 13.5 74.5t37.5 57.5t57.5 37.5t74.5 13.5t74.5 -13.5t57 -37.5t36.5 -57.5t13 -74.5q0 -39 -13 -72.5t-36.5 -57.5t-57 -37.5t-74.5 -13.5zM218 0h-162l588 730h162zM192 488q29 0 51.5 21.5t22.5 53.5
q0 15 -6 28.5t-16.5 23.5t-23.5 16t-28 6q-32 0 -53 -21.5t-21 -52.5q0 -32 21 -53.5t53 -21.5zM678 -14q-41 0 -74.5 13.5t-57.5 37.5t-37.5 57.5t-13.5 73.5t13.5 73.5t37.5 57.5t57.5 37.5t74.5 13.5q42 0 75.5 -13.5t57 -37.5t36 -57.5t12.5 -73.5t-12.5 -73.5
t-36 -57.5t-57 -37.5t-75.5 -13.5zM1079 -14q-41 0 -74.5 13.5t-57.5 37.5t-37.5 57.5t-13.5 73.5t13.5 73.5t37.5 57.5t57.5 37.5t74.5 13.5q42 0 75.5 -13.5t57 -37.5t36 -57.5t12.5 -73.5t-12.5 -73.5t-36 -57.5t-57 -37.5t-75.5 -13.5zM678 94q29 0 51.5 21.5t22.5 53.5
t-22.5 53t-51.5 21q-32 0 -53.5 -21t-21.5 -53t21.5 -53.5t53.5 -21.5zM1079 94q29 0 51.5 21.5t22.5 53.5t-22.5 53t-51.5 21q-32 0 -53.5 -21t-21.5 -53t21.5 -53.5t53.5 -21.5z" />
    <glyph glyph-name="guilsinglleft" unicode="&#x2039;" horiz-adv-x="340" 
d="M236 519l90 -85l-152 -154l152 -155l-90 -85l-228 234v10z" />
    <glyph glyph-name="guilsinglright" unicode="&#x203a;" horiz-adv-x="340" 
d="M14 434l89 85l228 -235v-10l-228 -234l-89 85l151 155z" />
    <glyph glyph-name="fraction" unicode="&#x2044;" horiz-adv-x="165" 
d="M369 678l-485 -688l-88 62l485 688z" />
    <glyph glyph-name="uni2070" unicode="&#x2070;" 
d="M199 374q-83 0 -128 43.5t-45 127.5v66q0 83 45 127t128 44q81 0 126.5 -44t45.5 -127v-66q0 -84 -45.5 -127.5t-126.5 -43.5zM199 478q24 0 39.5 18t15.5 53v58q0 35 -15.5 52t-39.5 17q-25 0 -40.5 -17t-15.5 -52v-58q0 -35 15.5 -53t40.5 -18z" />
    <glyph glyph-name="uni2074" unicode="&#x2074;" horiz-adv-x="396" 
d="M328 531h57v-82h-57v-69h-106v69h-197v82l197 240h106v-240zM222 638l-86 -107h86v107z" />
    <glyph glyph-name="uni2075" unicode="&#x2075;" 
d="M218 631q63 0 101.5 -33.5t38.5 -90.5q0 -28 -11 -52t-31 -42t-49 -28t-65 -10q-64 0 -106.5 29t-60.5 74l104 28q8 -16 24 -24t33 -8q22 0 37 11.5t15 29.5t-14.5 30t-35.5 12q-16 0 -28.5 -6t-20.5 -16h-91v236h275v-97h-179v-55q30 12 64 12z" />
    <glyph glyph-name="uni2076" unicode="&#x2076;" 
d="M238 627q57 0 96 -31.5t39 -91.5t-44.5 -94.5t-119.5 -34.5q-83 0 -127.5 42.5t-44.5 120.5v46q0 85 49 136t138 51h109v-97h-110q-34 0 -52 -17t-18 -43v-13q29 26 85 26zM206 461q23 0 37.5 12t14.5 32t-14.5 32.5t-37.5 12.5t-37.5 -12.5t-14.5 -32.5t14.5 -32
t37.5 -12z" />
    <glyph glyph-name="uni2077" unicode="&#x2077;" 
d="M35 672v99h327v-99l-152 -292h-130l156 292h-201z" />
    <glyph glyph-name="uni2078" unicode="&#x2078;" 
d="M306 593q26 -14 43 -38.5t17 -61.5q0 -54 -44 -86t-123 -32q-80 0 -124 32t-44 86q0 36 17 61t44 39q-17 13 -27.5 32t-10.5 45q0 42 36.5 73.5t108.5 31.5q71 0 107 -31.5t36 -73.5q0 -26 -9.5 -45t-26.5 -32zM199 689q-21 0 -33.5 -10t-12.5 -26t13 -25.5t33 -9.5
t32.5 9.5t12.5 25.5t-12.5 26t-32.5 10zM199 460q25 0 38.5 12t13.5 30t-13.5 30t-38.5 12q-26 0 -39.5 -12t-13.5 -30q0 -19 13.5 -30.5t39.5 -11.5z" />
    <glyph glyph-name="uni2079" unicode="&#x2079;" 
d="M188 776q84 0 128 -43t44 -121v-46q0 -85 -49 -135.5t-137 -50.5h-110v97h110q34 0 52 16.5t18 43.5v11q-14 -11 -34.5 -18t-49.5 -7q-57 0 -96 31.5t-39 91.5t44 95t119 35zM191 601q23 0 37.5 11.5t14.5 31.5q0 21 -14.5 33t-37.5 12t-37.5 -12t-14.5 -33
q0 -20 14.5 -31.5t37.5 -11.5z" />
    <glyph glyph-name="uni2080" unicode="&#x2080;" 
d="M199 -128q-83 0 -128 43.5t-45 126.5v67q0 83 45 126.5t128 43.5q81 0 126.5 -43.5t45.5 -126.5v-67q0 -83 -45.5 -126.5t-126.5 -43.5zM199 -24q24 0 39.5 17.5t15.5 52.5v59q0 35 -15.5 52t-39.5 17q-25 0 -40.5 -17t-15.5 -52v-59q0 -35 15.5 -52.5t40.5 -17.5z" />
    <glyph glyph-name="uni2081" unicode="&#x2081;" 
d="M269 271v-294h93v-97h-320v97h116v197h-106v97h217z" />
    <glyph glyph-name="uni2082" unicode="&#x2082;" 
d="M213 -23h151v-97h-319v89l155 112q26 19 36 31.5t10 25.5q0 17 -12 27t-33 10q-23 0 -37 -13t-14 -36h-112q0 33 11.5 60.5t32.5 47.5t52 31t70 11q74 0 114 -36t40 -92q0 -33 -18.5 -63t-66.5 -65z" />
    <glyph glyph-name="uni2083" unicode="&#x2083;" 
d="M339 174l-80 -61q45 -9 71 -40t26 -74q0 -27 -11 -50t-31.5 -39.5t-49.5 -25.5t-65 -9q-69 0 -111 29.5t-59 74.5l104 29q16 -33 59 -33q23 0 37 11.5t14 28.5t-13 28t-36 11q-10 0 -18.5 -2.5t-16.5 -6.5l-38 51l109 78h-176v97h285v-97z" />
    <glyph glyph-name="uni2084" unicode="&#x2084;" horiz-adv-x="396" 
d="M328 32h57v-83h-57v-69h-106v69h-197v83l197 239h106v-239zM222 138l-85 -106h85v106z" />
    <glyph glyph-name="uni2085" unicode="&#x2085;" 
d="M218 131q63 0 101.5 -33.5t38.5 -90.5q0 -28 -11 -52t-31 -42t-49 -28t-65 -10q-64 0 -106.5 29t-60.5 74l104 29q8 -16 24 -24t33 -8q22 0 37 11t15 30q0 18 -14.5 29.5t-35.5 11.5q-31 0 -49 -21h-91v235h275v-97h-179v-55q30 12 64 12z" />
    <glyph glyph-name="uni2086" unicode="&#x2086;" 
d="M238 127q57 0 96 -31.5t39 -91.5t-44.5 -94.5t-119.5 -34.5q-83 0 -127.5 43t-44.5 121v46q0 85 49 135.5t138 50.5h109v-97h-110q-34 0 -52 -17t-18 -43v-12q14 11 35 18t50 7zM206 -39q23 0 37.5 12.5t14.5 32.5t-14.5 32t-37.5 12t-37.5 -12t-14.5 -32t14.5 -32.5
t37.5 -12.5z" />
    <glyph glyph-name="uni2087" unicode="&#x2087;" 
d="M35 271h327v-98h-1l1 -1l-152 -292h-130l157 293h-202v98z" />
    <glyph glyph-name="uni2088" unicode="&#x2088;" 
d="M305 94q27 -14 44 -39t17 -61q0 -54 -44 -86.5t-123 -32.5q-80 0 -124 32.5t-44 86.5q0 36 17.5 60.5t43.5 39.5q-17 12 -27.5 31.5t-10.5 45.5q0 21 9 40t27.5 33.5t45.5 23t63 8.5q71 0 107 -31.5t36 -73.5q0 -26 -10 -45t-27 -32zM199 189q-21 0 -33.5 -9.5
t-12.5 -25.5t13 -25.5t33 -9.5t32.5 9.5t12.5 25.5t-12.5 25.5t-32.5 9.5zM199 -39q25 0 38.5 11.5t13.5 30.5q0 17 -13.5 29t-38.5 12q-26 0 -39.5 -12t-13.5 -29q0 -19 13.5 -30.5t39.5 -11.5z" />
    <glyph glyph-name="uni2089" unicode="&#x2089;" 
d="M188 276q84 0 128 -42.5t44 -120.5v-47q0 -85 -49 -135.5t-137 -50.5h-110v97h110q34 0 52 17t18 43v11q-14 -11 -34.5 -17.5t-49.5 -6.5q-57 0 -96 31.5t-39 91.5t44 94.5t119 34.5zM191 101q23 0 37.5 12t14.5 32t-14.5 32t-37.5 12t-37.5 -12t-14.5 -32t14.5 -32
t37.5 -12z" />
    <glyph glyph-name="Euro" unicode="&#x20ac;" horiz-adv-x="702" 
d="M378 125q51 0 81.5 30.5t35.5 79.5h164q0 -53 -18.5 -99t-53.5 -79.5t-86 -53t-117 -19.5q-121 0 -195.5 65.5t-87.5 180.5h-68v106h65v49h-65v99h66q4 61 25 109.5t57 82.5t85.5 52.5t110.5 18.5q68 0 120.5 -19.5t88.5 -53.5t54.5 -80t18.5 -99h-164q-5 49 -35.5 79.5
t-81.5 30.5q-48 0 -79.5 -29.5t-37.5 -91.5h178v-99h-179v-49h137v-106h-133q9 -51 39 -78t75 -27z" />
    <glyph glyph-name="uni2113" unicode="&#x2113;" horiz-adv-x="537" 
d="M276 202q10 -30 26.5 -40.5t41.5 -10.5h128v-151h-153q-65 0 -111 28.5t-72 98.5l-65 -35l-64 118l102 55q-2 21 -3 44t-1 48q0 196 61.5 293t173.5 97q44 0 77 -14.5t55 -40t33.5 -60.5t11.5 -75q0 -54 -16 -104t-45 -94.5t-69.5 -81.5t-90.5 -64zM333 616
q-15 0 -28 -12.5t-22.5 -42t-15.5 -79.5t-6 -125v-8q50 35 79.5 87t29.5 115q0 35 -10.5 50t-26.5 15z" />
    <glyph glyph-name="uni2116" unicode="&#x2116;" horiz-adv-x="1201" 
d="M985 385q-40 0 -73.5 13.5t-57 37.5t-36.5 57.5t-13 73.5t13 73.5t36.5 58t57 38t73.5 13.5q41 0 74 -13.5t57 -38t37 -58t13 -73.5t-13 -73.5t-37 -57.5t-57 -37.5t-74 -13.5zM231 746l318 -374v374h169v-746h-169v125l-295 341v-466h-168v746h145zM985 653
q-34 0 -57 -24t-23 -62q0 -37 23 -61.5t57 -24.5q35 0 58 24t23 62t-23 62t-58 24zM1139 239h-308v96h308v-96z" />
    <glyph glyph-name="trademark" unicode="&#x2122;" horiz-adv-x="690" 
d="M109 665h-83v81h261v-81h-82v-214h-96v214zM502 621l89 125h73v-295h-90v144l-71 -96h-2l-72 98v-146h-90v295h73z" />
    <glyph glyph-name="estimated" unicode="&#x212e;" horiz-adv-x="818" 
d="M206 325v-209q48 -45 96.5 -64t106.5 -19q94 0 167.5 46t113.5 123l44 -27q-46 -90 -131 -142.5t-194 -52.5q-76 0 -142 29t-114.5 80.5t-76 121.5t-27.5 152t27.5 152.5t76 122t114.5 80.5t142 29q77 0 142.5 -30t114 -83.5t76 -126t27.5 -157.5v-11t-1 -14h-562z
M612 377v232q-47 45 -96 65t-107 20t-107 -19.5t-96 -64.5v-233h406z" />
    <glyph glyph-name="oneeighth" unicode="&#x215b;" horiz-adv-x="953" 
d="M193 52l485 688l88 -62l-485 -688zM362 434v-97h-320v97h116v197h-106v97h217v-294h93zM858 214q26 -14 43.5 -39t17.5 -61q0 -54 -44 -86.5t-124 -32.5t-123.5 32.5t-43.5 86.5q0 36 17 60.5t44 39.5q-17 12 -27.5 31.5t-10.5 45.5q0 21 9 40t27 33.5t45 23t63 8.5
q72 0 108 -31.5t36 -73.5q0 -26 -10 -45t-27 -32zM751 309q-20 0 -32.5 -9.5t-12.5 -25.5t12.5 -25.5t32.5 -9.5t32.5 9.5t12.5 25.5t-12.5 25.5t-32.5 9.5zM751 81q26 0 39 11.5t13 30.5q0 17 -13.5 29t-38.5 12q-26 0 -39 -12t-13 -29q0 -19 13.5 -30.5t38.5 -11.5z" />
    <glyph glyph-name="threeeighths" unicode="&#x215c;" horiz-adv-x="959" 
d="M192 52l486 688l88 -62l-485 -688zM356 456q0 -27 -11 -49.5t-31.5 -39t-49.5 -26t-65 -9.5q-69 0 -111 29.5t-59 74.5l104 29q16 -33 59 -33q23 0 37 11.5t14 28.5t-13 28t-36 11q-10 0 -18.5 -2.5t-16.5 -6.5l-38 51l109 78h-176v97h285v-97l-80 -61q45 -9 71 -40
t26 -74zM858 214q26 -14 43 -39t17 -61q0 -54 -44 -86.5t-123 -32.5q-80 0 -124 32.5t-44 86.5q0 36 17.5 60.5t43.5 38.5q-17 13 -27.5 32.5t-10.5 45.5q0 21 9 40t27.5 33.5t45.5 23t63 8.5q71 0 107.5 -31.5t36.5 -73.5q0 -26 -10 -45.5t-27 -31.5zM751 309
q-20 0 -33 -9.5t-13 -25.5t13 -25.5t33 -9.5t32.5 9.5t12.5 25.5t-12.5 25.5t-32.5 9.5zM751 81q25 0 38.5 11.5t13.5 30.5q0 17 -13.5 29t-38.5 12q-26 0 -39.5 -12t-13.5 -29q0 -19 14 -30.5t39 -11.5z" />
    <glyph glyph-name="fiveeighths" unicode="&#x215d;" horiz-adv-x="957" 
d="M192 52l486 688l88 -62l-485 -688zM358 464q0 -28 -11 -52t-31 -42t-49 -28t-65 -10q-64 0 -106.5 29t-60.5 74l104 29q8 -16 24 -24t33 -8q22 0 37 11t15 30q0 18 -14.5 29.5t-35.5 11.5q-31 0 -49 -21h-91v235h275v-97h-179v-55q30 12 64 12q63 0 101.5 -33.5
t38.5 -90.5zM858 214q26 -14 43 -39t17 -61q0 -54 -44 -86.5t-123 -32.5q-80 0 -124 32.5t-44 86.5q0 36 17.5 60.5t43.5 38.5q-17 13 -27.5 32.5t-10.5 45.5q0 21 9 40t27.5 33.5t45.5 23t63 8.5q71 0 107.5 -31.5t36.5 -73.5q0 -26 -10 -45.5t-27 -31.5zM751 309
q-20 0 -33 -9.5t-13 -25.5t13 -25.5t33 -9.5t32.5 9.5t12.5 25.5t-12.5 25.5t-32.5 9.5zM751 81q25 0 38.5 11.5t13.5 30.5q0 17 -13.5 29t-38.5 12q-26 0 -39.5 -12t-13.5 -29q0 -19 14 -30.5t39 -11.5z" />
    <glyph glyph-name="seveneighths" unicode="&#x215e;" horiz-adv-x="883" 
d="M123 52l485 688l88 -62l-485 -688zM362 629l-152 -292h-130l157 293h-202v98h327v-98h-1zM788 214q26 -14 43.5 -39t17.5 -61q0 -54 -44 -86.5t-124 -32.5t-123.5 32.5t-43.5 86.5q0 36 17 60.5t44 39.5q-17 12 -27.5 31.5t-10.5 45.5q0 21 9 40t27 33.5t45 23t63 8.5
q72 0 108 -31.5t36 -73.5q0 -26 -10 -45t-27 -32zM681 309q-20 0 -32.5 -9.5t-12.5 -25.5t12.5 -25.5t32.5 -9.5t32.5 9.5t12.5 25.5t-12.5 25.5t-32.5 9.5zM681 81q26 0 39 11.5t13 30.5q0 17 -13.5 29t-38.5 12q-26 0 -39 -12t-13 -29q0 -19 13.5 -30.5t38.5 -11.5z" />
    <glyph glyph-name="arrowup" unicode="&#x2191;" horiz-adv-x="702" 
d="M359 702l306 -336l-105 -100l-138 152v-365h-142v365l-138 -152l-106 100l307 336h16z" />
    <glyph glyph-name="arrowdown" unicode="&#x2193;" horiz-adv-x="702" 
d="M422 337l138 152l105 -100l-306 -336h-16l-307 336l106 100l138 -152v365h142v-365z" />
    <glyph glyph-name="arrowboth" unicode="&#x2194;" horiz-adv-x="1002" 
d="M549 578l107 112l318 -306v-16l-318 -307l-107 116l141 128h-378l141 -128l-107 -116l-318 307v16l318 306l107 -112l-143 -132h382z" />
    <glyph glyph-name="arrowupdn" unicode="&#x2195;" horiz-adv-x="702" 
d="M422 189l131 142l112 -107l-306 -318h-16l-307 318l116 107l128 -141v378l-128 -141l-116 107l307 318h16l306 -318l-112 -107l-131 142v-380z" />
    <glyph glyph-name="uni2196" unicode="&#x2196;" horiz-adv-x="673" 
d="M338 495l283 -283l-109 -110l-284 284v-241l-156 -1v496l11 12h496v-157h-241z" />
    <glyph glyph-name="uni2197" unicode="&#x2197;" horiz-adv-x="673" 
d="M94 652h496l11 -12v-496l-156 1v241l-284 -284l-109 110l283 283h-241v157z" />
    <glyph glyph-name="uni2198" unicode="&#x2198;" horiz-adv-x="673" 
d="M445 382v242h156v-495l-11 -12h-496v157h240l-282 283l109 109z" />
    <glyph glyph-name="uni2199" unicode="&#x2199;" horiz-adv-x="673" 
d="M512 666l109 -109l-282 -283h240v-157h-496l-11 12v495h156v-242z" />
    <glyph glyph-name="partialdiff" unicode="&#x2202;" horiz-adv-x="609" 
d="M142 730h182q124 0 196 -73.5t72 -215.5q0 -106 -26.5 -190.5t-73.5 -144t-111.5 -91t-141.5 -31.5q-47 0 -87 14.5t-69.5 42t-46 67t-16.5 90.5q0 57 20.5 107.5t57.5 88.5t89.5 60t115.5 22q75 0 121 -32q5 65 -28 100t-100 35h-154v151zM254 123q29 0 55.5 13t47 34
t33 48.5t12.5 56.5q0 39 -23.5 60.5t-64.5 21.5q-31 0 -57 -12.5t-45.5 -33t-30.5 -47t-11 -54.5q0 -42 23 -64.5t61 -22.5z" />
    <glyph glyph-name="product" unicode="&#x220f;" horiz-adv-x="738" 
d="M31 730h677v-151h-99v-579h-156v579h-168v-579h-156v579h-98v151z" />
    <glyph glyph-name="summation" unicode="&#x2211;" horiz-adv-x="630" 
d="M20 730h559v-151h-337l171 -194v-7l-188 -227h354v-151h-559v132l196 239l-196 227v132z" />
    <glyph glyph-name="minus" unicode="&#x2212;" horiz-adv-x="702" 
d="M604 302h-506v134h506v-134z" />
    <glyph glyph-name="uni2215" unicode="&#x2215;" horiz-adv-x="186" 
d="M380 678l-485 -688l-89 62l486 688z" />
    <glyph glyph-name="uni2219" unicode="&#x2219;" horiz-adv-x="296" 
d="M133 286q-44 0 -72 29.5t-28 71.5q0 21 7.5 39.5t21 32t31.5 21.5t40 8q45 0 73 -29.5t28 -71.5q0 -21 -7.5 -39t-20.5 -32t-31.5 -22t-41.5 -8z" />
    <glyph glyph-name="radical" unicode="&#x221a;" horiz-adv-x="750" 
d="M374 208l193 522h178l-274 -730h-187l-145 392h-121v151h241z" />
    <glyph glyph-name="infinity" unicode="&#x221e;" horiz-adv-x="876" 
d="M626 585q44 0 80 -15t62.5 -42.5t41 -65.5t14.5 -84t-14.5 -84.5t-41 -66t-62.5 -42.5t-80 -15q-54 0 -100 26.5t-88 79.5q-42 -53 -87.5 -79.5t-100.5 -26.5q-43 0 -79.5 15t-62.5 42.5t-41 66t-15 84.5t15 84t41 65.5t62.5 42.5t79.5 15q55 0 101 -27t88 -80
q42 53 87.5 80t99.5 27zM265 296q25 0 50 17.5t57 63.5q-31 47 -56.5 64.5t-50.5 17.5q-36 0 -58 -21.5t-22 -59.5t22 -60t58 -22zM612 296q36 0 57.5 22t21.5 60t-21.5 59.5t-57.5 21.5q-26 0 -50.5 -17.5t-56.5 -64.5q32 -47 56.5 -64t50.5 -17z" />
    <glyph glyph-name="integral" unicode="&#x222b;" horiz-adv-x="548" 
d="M-20 -190v151h82q25 0 37 12t18 37l128 567q9 41 22.5 70t34.5 47.5t50.5 27t70.5 8.5h125v-151h-100q-24 0 -36.5 -12t-17.5 -37l-128 -567q-17 -81 -57 -117t-121 -36h-108z" />
    <glyph glyph-name="approxequal" unicode="&#x2248;" horiz-adv-x="702" 
d="M468 406q-34 0 -62.5 8t-54.5 18t-52.5 18t-57.5 8q-32 0 -59 -8t-58 -28v130q29 19 56.5 28t59.5 9t59 -8.5t52.5 -18t52 -18t57.5 -8.5t58 8t59 28v-130q-58 -36 -110 -36zM468 163q-34 0 -62.5 8.5t-54.5 18t-52.5 18t-57.5 8.5q-32 0 -59 -8.5t-58 -28.5v130
q29 19 56.5 28t59.5 9t59 -8.5t52.5 -18t52 -18t57.5 -8.5t58 8t59 28v-130q-58 -36 -110 -36z" />
    <glyph glyph-name="notequal" unicode="&#x2260;" horiz-adv-x="702" 
d="M578 557v-128h-151l-32 -120h183v-128h-217l-37 -138l-117 29l29 109h-112v128h146l32 120h-178v128h212l37 138l117 -30l-29 -108h117z" />
    <glyph glyph-name="lessequal" unicode="&#x2264;" horiz-adv-x="702" 
d="M264 448l335 -109l-35 -118l-431 145v162l431 145l35 -117zM128 40v116h475v-116h-475z" />
    <glyph glyph-name="greaterequal" unicode="&#x2265;" horiz-adv-x="702" 
d="M569 366l-431 -145l-36 118l336 109l-336 108l36 117l431 -145v-162zM99 40v116h475v-116h-475z" />
    <glyph glyph-name="lozenge" unicode="&#x25ca;" horiz-adv-x="637" 
d="M265 730h103l241 -358v-10l-241 -362h-103l-240 362v10zM317 185l121 181l-121 179l-121 -179z" />
    <glyph glyph-name="uni261D" unicode="&#x261d;" horiz-adv-x="547" 
d="M473 244l1 -1v-44l15 -10v-134l-12 -20l-48 -22l-27 16v-19l-15 -21q-14 -5 -46 -11.5t-73 -6.5q-29 0 -52 6.5t-40 15.5t-27.5 18.5t-15.5 15.5l-3 14v133l15 5v38l-119 166l-3 23l39 79l-32 379l21 23l111 11l23 -20l17 -203l93 6l207 -106l12 -23zM148 794l-5 59
l-67 -6l5 -60zM151 751l-66 -7l15 -182l26 53l33 8l2 -1zM275 452l-7 185l-63 -6l3 -37l48 -29l8 -28l-41 -86zM318 449l51 -4l13 142l-69 36zM196 496l20 42l-60 36l-20 -41zM412 441l42 -4l15 106l-44 23zM116 494l-51 -104l2 -2l43 31l29 -4l95 -128l-5 -30l-36 -26
q17 -12 39 -16t42 -4q57 0 94.5 14.5t60.5 29.5l19 136l-93 -93l-199 113l22 46zM186 279l-68 92l-25 -18l69 -91zM439 62l15 7v83l-15 -8v-82zM174 44q16 -13 42 -20.5t52 -7.5h12.5t13.5 1v91q-6 -1 -12 -1h-12q-32 0 -55.5 6.5t-40.5 15.5v-23q20 -12 43.5 -17.5
t48.5 -5.5v-45q-24 0 -48 6t-44 17v-17zM357 26v89l-19 -3v-89z" />
    <glyph glyph-name="uni261F" unicode="&#x261f;" horiz-adv-x="547" 
d="M522 378l2 -23l-38 -77l31 -382l-20 -23l-111 -11l-23 20l-17 203l-93 -6l-207 106l-13 23l41 309v44l-16 10v134l13 20l48 23l26 -17v19l15 21q15 5 46.5 11.5t72.5 6.5q29 0 52.5 -6.5t40.5 -15.5t27.5 -18.5t14.5 -15.5l4 -13v-134l-15 -5v-38zM373 716
q-15 14 -41.5 21.5t-52.5 7.5q-6 0 -12.5 -0.5t-13.5 -0.5v-92q6 1 12 1h12q32 0 55.5 -6.5t40.5 -15.5v24q-39 23 -92 23v44q51 0 92 -22v16zM190 734v-89l19 3v89zM109 699l-16 -8v-83l16 8v83zM99 369l93 93l199 -112l-22 -47l63 -37l51 104l-2 3l-43 -32l-30 5l-94 127
l4 30l37 26q-18 12 -40 16t-42 4q-58 0 -95.5 -14.5t-59.5 -30.5zM454 408l-69 91l-23 -17l68 -93zM135 319l-42 4l-14 -105l44 -23zM229 312l-51 3l-13 -141l69 -36zM272 309l7 -185l64 6l-3 36l-49 29l-8 28l41 86h-52zM351 264l-20 -42l61 -36l20 41zM396 10l68 6
l-16 185l-27 -55l-32 -9l-2 1zM399 -33l5 -60l68 7l-5 59z" />
    <glyph glyph-name="uni26BD" unicode="&#x26bd;" horiz-adv-x="938" 
d="M469 830q87 0 163.5 -33t133.5 -90t90 -133.5t33 -163.5t-33 -163.5t-90 -133.5t-133.5 -90t-163.5 -33t-163.5 33t-133.5 90t-90 133.5t-33 163.5t33 163.5t90 133.5t133.5 90t163.5 33zM117 301q11 2 15 11.5t8 41.5q4 33 17 54q-11 8 -18 21t-7 30q0 38 15 69.5
t35 57.5q15 22 32.5 32.5t34.5 11.5h1q0 17 8.5 32.5t27.5 29.5q13 11 28.5 21t32 18t33 13t30.5 5q20 0 35.5 -5t26.5 -20q8 4 21 8t33 7q26 4 38.5 8.5t14.5 15.5q-26 8 -56 12.5t-53 4.5q-72 0 -139 -27.5t-118.5 -76.5t-82 -116.5t-30.5 -148.5q0 -26 4.5 -54.5
t12.5 -55.5zM625 745q-8 -24 -26.5 -36.5t-56.5 -17.5t-54 -15t-16 -25q0 -11 10.5 -20t35.5 -20q22 -11 39.5 -21t33.5 -22l120 121q-17 16 -38.5 30.5t-47.5 25.5zM664 251q9 -9 22 -9q14 0 24.5 12.5t25.5 38.5q10 17 16 36t6 29q0 14 -10 14q-6 0 -13 -4.5t-27 -4.5
q-31 0 -50 23t-34 53q-13 26 -25 45.5t-27 33.5t-40 27t-49.5 27.5t-42.5 32t-18 41.5q0 18 5.5 28.5t5.5 15.5q0 3 -4 6t-14 3q-14 0 -34 -7.5t-38 -18.5t-30.5 -23.5t-12.5 -21.5q0 -7 2 -11.5t8 -12.5q9 -11 28.5 -33.5t43.5 -49.5t50.5 -55.5t49.5 -51.5
q27 -27 56 -53.5t54.5 -48.5t44.5 -38t27 -23zM804 566q-12 27 -26.5 48t-29.5 39l-121 -121q11 -16 21 -33t21 -40q12 -25 20.5 -35.5t19.5 -10.5q16 0 26 16t15 54t17.5 57t36.5 26zM366 303q15 -14 40.5 -27t49.5 -27.5t42 -32.5t18 -43q0 -17 -5.5 -27t-5.5 -15
q0 -9 18 -9q14 0 32.5 7t38.5 19q17 11 31 23t14 23q0 12 -8 19q-5 4 -25 21t-48 41t-59 52.5t-58 55.5q-29 29 -56.5 59t-50 55.5t-38.5 45t-23 27.5q-6 6 -10 8t-11 2q-14 0 -24.5 -13t-25.5 -39q-10 -17 -16 -36t-6 -29q0 -15 10 -15q6 0 13.5 5t26.5 5q31 0 50.5 -23
t34.5 -54q13 -26 24.5 -45t26.5 -33zM469 41q72 0 138.5 27.5t118 76.5t82 116.5t30.5 148.5q0 26 -4 54t-12 56q-11 -2 -15 -12t-9 -42q-4 -33 -17 -53q11 -8 18 -21t7 -30q0 -39 -15 -70.5t-35 -57.5q-31 -43 -67 -43h-1q0 -35 -35 -63q-13 -10 -29 -20t-32.5 -18t-33 -13
t-30.5 -5q-20 0 -35 5t-27 20q-8 -5 -21 -9t-33 -7q-25 -3 -37.5 -7.5t-14.5 -16.5q26 -8 55.5 -12t53.5 -4zM134 255q12 -27 26.5 -48t29.5 -39l121 121q-21 28 -42 73q-12 24 -20.5 34.5t-19.5 10.5q-16 0 -26 -16t-15 -53q-5 -39 -17.5 -57.5t-36.5 -25.5zM313 75
q8 24 26.5 36.5t57.5 17.5q37 5 53 15t16 25q0 11 -10.5 20t-34.5 20q-23 11 -40.5 21t-33.5 22l-120 -121q18 -16 39 -30.5t47 -25.5z" />
    <glyph glyph-name="uni270A" unicode="&#x270a;" horiz-adv-x="543" 
d="M473 243h1v-44l15 -10v-134l-12 -20l-48 -22l-27 16v-19l-15 -21q-14 -5 -46 -11.5t-73 -6.5q-29 0 -52 6.5t-40 15.5t-27.5 18.5t-15.5 15.5l-3 14v133l15 5v37l-119 166l-3 23l73 150l-5 61l15 22l110 33l108 -4l101 -41l75 -48l10 -21zM256 565l8 -28l-39 -84l48 -6
l22 177l-55 3l-4 -50zM174 614l20 -12l1 18zM386 594l-49 20l-21 -171l47 -3zM216 538l-60 36l-21 -41l61 -37zM407 441l49 3l14 101l-42 27zM178 457l-62 37l-48 -97l4 -6l38 28l29 -5l95 -127l-5 -30l-36 -26q17 -12 39.5 -16t41.5 -4q58 0 95.5 14.5t60.5 30.5l17 122
l-172 -80l-119 112zM98 356l66 -92l22 15l-68 91zM439 62l15 7v83l-15 -8v-82zM174 44q16 -13 42 -20.5t52 -7.5h12.5t13.5 1v91q-6 -1 -12 -1h-12q-32 0 -55.5 6.5t-40.5 15.5v-23q20 -12 43.5 -17.5t48.5 -5.5v-45q-24 0 -48 6t-44 17v-17zM357 26v89l-19 -3v-89z" />
    <glyph glyph-name="uni270B" unicode="&#x270b;" horiz-adv-x="812" 
d="M799 428l-9 -29l-188 -95l-69 -60l1 -1v-44l15 -10v-134l-12 -20l-48 -22l-26 16v-19l-15 -21q-15 -5 -46.5 -11.5t-72.5 -6.5q-30 0 -53 6.5t-40 15.5t-27.5 18.5t-14.5 15.5l-4 14v133l15 5v42l-82 271l-110 222l10 29l92 47l29 -9l29 -56l-31 118l17 27l108 28l27 -17
l25 -117l2 139l22 21l112 -5l21 -22l-3 -119l19 79l25 16l110 -24l17 -27l-84 -326l24 -23l140 66l29 -10zM430 818l2 59l-68 3l-1 -61zM269 791l-13 59l-66 -17l15 -58zM584 765l12 46l-67 14l-10 -43zM361 591l63 1l5 183l-66 1zM216 733l42 -161l56 13l-36 164zM140 693
l-25 48l-54 -27l24 -49zM573 723l-64 17l-39 -162l53 -49zM160 654l-55 -28l58 -116l83 -273q17 -16 42 -21t46 -5q32 0 57 4.5t45 12.5l-26 30l1 31l128 109l30 -1l41 -41l62 32l-30 65l-53 -25v-1l-253 -70l-114 179zM711 408l40 20l-29 63l-41 -20zM457 270l18 -20l95 85
l-17 17zM499 62l15 7v83l-15 -8v-82zM235 44q15 -13 41.5 -20.5t52.5 -7.5h12t13 1v91q-6 -1 -12 -1h-12q-32 0 -55 6.5t-40 15.5v-23q20 -12 43.5 -17.5t48.5 -5.5v-45q-52 0 -92 23v-17zM418 26v89l-19 -3v-89z" />
    <glyph glyph-name="uni270C" unicode="&#x270c;" horiz-adv-x="568" 
d="M493 244l1 -1v-44l15 -10v-134l-12 -20l-48 -22l-27 16v-19l-15 -21q-14 -5 -46 -11.5t-73 -6.5q-29 0 -52 6.5t-40 15.5t-27.5 18.5t-15.5 15.5l-3 14v133l15 5v38l-119 166l-3 23l47 95l-67 339l17 26l108 24l27 -18l34 -159l7 181l23 21l116 -6l22 -23l-10 -225
l157 -87l11 -23zM328 805l3 62l-71 3l-3 -62zM149 783l-12 59l-68 -14l12 -60zM248 582l28 -17h31l15 82l5 115l-71 3zM158 740l-68 -16l31 -159l25 50l33 8l4 -3zM406 590l-46 25l-28 -158l50 -10zM156 533l60 -37l20 42l-60 36zM425 441l50 -5l15 107l-44 24zM198 457
l-62 37l-51 -104l2 -3l42 32l30 -4l95 -128l-5 -30l-36 -26q17 -12 39 -16t42 -4q57 0 94.5 14.5t60.5 29.5l19 135l-93 -92l-199 113zM113 353l69 -91l24 17l-68 92zM459 62l15 7v83l-15 -8v-82zM194 44q16 -13 42 -20.5t52 -7.5h12.5t13.5 1v91q-6 -1 -12 -1h-12
q-32 0 -55.5 6.5t-40.5 15.5v-23q20 -12 43.5 -17.5t48.5 -5.5v-45q-24 0 -48 6t-44 17v-17zM377 26v89l-19 -3v-89z" />
    <glyph glyph-name="uni270D" unicode="&#x270d;" horiz-adv-x="889" 
d="M770 347l106 -211l-9 -28l-49 -25l15 -15l16 -72l-71 19l-15 17l-25 -13l-13 4l-2 -7l-21 -17h-86l-70 1l-1 -1l-17 -4l-52 23l-15 -7l-176 21l-8 -17h-29l-5 -10h-151l-18 10q-11 17 -26 58.5t-15 104.5q0 35 5 64.5t12 51t14 35.5t10 18l18 9h144l7 -12h33l142 51
l-117 124q5 17 21.5 33t33.5 19l141 -148l14 5h13l233 -70zM777 238l-41 80l-196 60l67 -71l45 -10l17 -16l13 -59l38 -13zM370 331q2 -7 4 -11t4 -10l59 12q-1 8 -2 14t-3 17zM522 124l105 -29l28 89l-118 41l-92 -33l-14 43l53 18l32 39l-35 37q1 -5 1 -11t1 -12l-17 -23
l-100 -20l-26 16q-2 9 -4 17.5t-6 19.5l-42 -15q-5 -7 -9.5 -20t-8 -28t-5.5 -31t-2 -30q0 -40 3 -65t11 -45zM78 179q0 -44 9 -78t18 -51h23q-11 26 -18 58.5t-7 68.5q0 43 7.5 76.5t16.5 57.5h-22q-6 -10 -11 -26t-8.5 -34t-5.5 -36.5t-2 -35.5zM202 50q-10 21 -19 54.5
t-9 74.5q0 39 8.5 74t18.5 58h-28q-11 -27 -17.5 -59t-6.5 -73q0 -39 6.5 -71t16.5 -58h30zM805 156l-12 -38l35 18l-32 63l-18 -10l13 -4zM670 84l60 -17l27 82l-60 21zM506 52l18 -8l22 28l-21 6zM592 59l-11 -14h28l6 8z" />
    <glyph glyph-name="u1F3C6" unicode="&#x1f3c6;" horiz-adv-x="757" 
d="M530 310q-12 -9 -20 -16.5t-13 -15.5t-8.5 -19t-7.5 -27l-12 -48q49 -15 78 -51.5t29 -87.5v-39l-16 -22q-1 0 -11.5 -2.5t-32 -5t-56 -4.5t-82.5 -2q-96 0 -137.5 6.5t-43.5 7.5l-17 22v39q0 51 29 87.5t79 51.5l-12 48q-4 17 -8.5 28t-9.5 19.5t-12.5 15t-19.5 15.5
q-96 75 -148 157.5t-52 193.5q0 35 7 71.5t20 70.5t32.5 62t43.5 45l34 -10l22 -53l92 53l11 3h181l11 -3l92 -53l21 53l34 10q24 -17 43.5 -45t32.5 -62t20 -70.5t7 -71.5q0 -111 -52 -193.5t-148 -157.5zM396 716l42 142h-120l42 -142h36zM134 854q-6 -6 -11.5 -14
t-10.5 -16q9 -35 29 -63.5t49 -48.5zM567 712q28 20 48.5 48.5t28.5 63.5q-5 8 -10.5 16t-10.5 14zM290 796l-16 51l-73 -43l21 -51l3 43h65zM555 804l-73 43l-15 -51h65l3 -43zM87 765q-4 -14 -7 -27.5t-5 -27.5q14 -21 34 -38t46 -32l24 25q-28 17 -52.5 44t-39.5 56z
M669 765q-15 -29 -39.5 -56t-52.5 -44l25 -25q26 15 45.5 32t33.5 38q-3 29 -12 55zM435 462l21 39l107 115l-67 67l-4 69h-23l-10 -73l55 -62l-87 -81l-26 26l38 39l-20 60l-14 10h-53l-14 -10l-21 -62l40 -38l-26 -26l-89 82l56 62l-11 73h-22l-4 -69l-67 -67l106 -115
l22 -39l56 15zM71 646q1 -15 2.5 -28.5t4.5 -27.5q24 -15 57.5 -26t60.5 -15l-39 41q-51 24 -86 56zM678 590q3 14 4.5 27.5t2.5 28.5q-33 -31 -85 -56l-39 -41q27 4 60 15t57 26zM96 532q8 -21 19 -40q9 -2 18.5 -3t19.5 -1q24 0 50 2t46 9l-11 11q-3 -1 -6.5 -1h-6.5
q-26 0 -61 5.5t-68 17.5zM641 492q6 11 10.5 20.5t9.5 19.5q-34 -12 -68.5 -17.5t-60.5 -5.5q-10 0 -14 1l-10 -11q20 -7 45.5 -9t50.5 -2q9 0 18.5 1t18.5 3zM179 412q30 8 57 19.5t44 21.5l-7 13q-28 -11 -61 -16.5t-62 -5.5l14 -16t15 -16zM477 453q17 -10 44 -21.5
t57 -19.5q16 16 29 32q-30 0 -63 5.5t-61 16.5zM335 416l-42 -63l43 -181l7 -56h70l7 56l43 181l-42 63l-43 14zM251 370l27 36q-12 -6 -31 -14.5t-33 -13.5q8 -7 17 -14.5t18 -13.5zM542 378q-14 5 -32.5 13.5t-31.5 14.5l28 -36l2 -20q8 6 17 13.5t17 14.5zM531 51
q-6 33 -24.5 56.5t-44.5 34.5l-8 -52l-20 -14h-111l-20 14l-9 52q-26 -10 -44 -34t-25 -57v-27q17 -3 54.5 -6t98.5 -3q62 0 99 3t54 6v27z" />
    <glyph glyph-name="u1F446" unicode="&#x1f446;" horiz-adv-x="547" 
d="M524 406l-2 -23l-119 -166v-38l15 -5v-133l-4 -14q-4 -6 -14.5 -15.5t-27.5 -18.5t-40.5 -15.5t-52.5 -6.5q-41 0 -72.5 6.5t-46.5 11.5l-15 21v19l-26 -16l-48 22l-13 20v134l16 10v44l-41 309l13 23l207 106l93 -6l17 203l23 20l111 -11l20 -23l-31 -381zM467 787l5 60
l-68 6l-4 -59zM389 623l32 -8l27 -55l15 184l-67 7l-9 -129zM340 594l3 37l-64 6l-7 -185l52 -1l-41 86l8 28zM165 587l13 -142l51 4l5 174zM412 533l-20 41l-61 -36l20 -42zM135 441l-12 125l-44 -23l14 -106zM391 411l-199 -113l-92 92l18 -134q22 -16 59.5 -30.5
t95.5 -14.5q20 0 42 4t40 16l-37 26l-4 30l94 128l30 4l43 -31l2 2l-51 104l-63 -37zM362 279l23 -17l70 91l-25 18zM93 69l16 -7v82l-16 8v-83zM279 16q26 0 52.5 7.5t41.5 20.5v17q-40 -23 -92 -23v45q53 0 92 23v23q-17 -9 -40.5 -15.5t-55.5 -6.5h-12t-12 1v-91
q7 -1 13.5 -1h12.5zM190 115v-89l19 -3v89z" />
    <glyph glyph-name="u1F448" unicode="&#x1f448;" horiz-adv-x="947" 
d="M844 498l14 -3q6 -4 15.5 -15t18.5 -28t15.5 -40t6.5 -52q0 -41 -6.5 -73t-11.5 -46l-22 -15h-18l16 -27l-22 -48l-21 -12h-133l-10 15h-45l-315 -40l-21 11l-87 169l-6 73l-155 -13l-24 21l-10 114l20 24l306 26l122 46l20 -1l176 -101h39l5 15h133zM493 182l139 19
q15 23 28.5 60t13.5 93q0 21 -5 45.5t-20 41.5l-22 -37l-29 -9l-138 79l-8 31l21 34l-96 -35l28 -68l74 27l108 -191zM612 465l-99 56l-11 -19l98 -59zM862 290h25v44h-19q1 7 1 13.5v12.5q0 26 -7.5 52.5t-20.5 41.5h-17q-7 13 -15.5 23.5t-19.5 17.5l-27 -19q5 -5 9 -10.5
t8 -11.5h-23q8 -17 15 -40.5t7 -55.5v-12t-1 -12h-22v-44h18l-3 -19h89zM336 488l-46 -17l31 -65l44 16zM180 409l88 8l-27 58l5 11l-72 -6zM130 476l-61 -5l7 -71l61 5zM802 362q0 26 -5.5 49t-17.5 43h45q11 -20 17 -44t6 -48h-45zM290 370l-2 4l-34 -3l4 -48l174 33
l-4 43l-112 -41zM868 334l-6 -44h-89q2 9 3 20.5t1 23.5h91zM297 234l143 27l-5 51l-163 -30zM441 218l-123 -24l18 -35l106 15zM733 174h82l8 15h-82z" />
    <glyph glyph-name="u1F449" unicode="&#x1f449;" horiz-adv-x="947" 
d="M598 539l306 -26l20 -24l-10 -114l-25 -21l-154 13l-6 -73l-87 -169l-21 -11l-316 40h-44l-10 -15h-134l-20 12l-22 48l16 27h-19l-21 15q-5 14 -11.5 46t-6.5 73q0 29 6.5 52t15.5 40t18.5 28t15.5 15l14 3h133l5 -15h39l176 101l20 1zM320 404l-22 37
q-15 -17 -20 -41.5t-5 -45.5q0 -56 13.5 -93t28.5 -60l139 -19l-94 90l108 191l74 -27l28 68l-96 35l21 -34l-8 -31l-138 -79zM347 443l98 59l-11 19l-99 -56zM657 471l-46 17l-29 -66l44 -16zM773 480l-72 6l5 -11l-27 -58l88 -8zM810 405l61 -5l7 71l-61 5zM106 454
q-14 -15 -21 -41.5t-7 -52.5v-12.5t1 -13.5h91q-1 6 -1 12v12q0 32 6.5 55.5t15.5 40.5h-23q-24 -39 -24 -92h-44q0 24 6 48t17 44h-17zM515 356l174 -33l4 48l-34 3l-2 -4l-26 -12l-112 41zM675 282l-163 30l-5 -52l143 -26zM174 290h-89l3 -19h89zM504 174l107 -15l18 35
l-124 24zM124 189l7 -15h83l-8 15h-82z" />
    <glyph glyph-name="u1F44B" unicode="&#x1f44b;" horiz-adv-x="921" 
d="M673 745q-13 24 -28.5 44t-36.5 36t-50 29t-69 23l10 42q79 -19 128.5 -53.5t84.5 -100.5zM806 209l56 -57l5 -25q-7 -14 -25 -41t-47 -56q-21 -21 -41.5 -32.5t-39 -17t-32.5 -6.5t-22 0l-12 7l-94 95l7 13l-30 30l-250 134l-235 79l-13 28l32 97l27 14l59 -18l-104 61
l-7 31l56 97l31 6l101 -64l-97 100l1 30l83 76l29 -1l83 -86l-42 69l6 28l94 62l31 -7l173 -291l31 2l53 145l27 14l105 -40l13 -27l-70 -211l-41 13l36 108l-67 24l-20 -55v-1l-128 -229l-209 47l-126 40l-19 -59l123 -42l250 -134q23 2 45 15.5t38 29.5q41 41 58 80l-2 1
l-11 19l14 126l26 14l77 -35l15 -22l-3 -31l27 -20l13 -24l-15 -93zM617 712q-23 42 -55 65.5t-90 37.5l11 42q32 -8 58 -18.5t47 -25.5t38 -34.5t31 -46.5zM415 772l-25 42l-57 -39l23 -38zM270 701l-41 43l-51 -46l43 -44zM379 700l86 -141l74 3l-102 172zM771 652l-65 23
l-16 -43l66 -24zM380 491l43 46l-123 132l-49 -46zM173 568l-50 32l-35 -58l52 -31zM320 405l30 48l-140 91l-33 -55zM151 407l-51 16l-20 -56l52 -18zM728 389l10 4l-9 5zM794 256l6 53l-1 1l-5 -50l-3 -2zM128 282q24 -44 56.5 -66.5t87.5 -36.5l-10 -42
q-63 15 -103.5 43.5t-69.5 80.5zM72 248q13 -24 28.5 -43.5t36.5 -36t50 -29t69 -22.5l-10 -42q-38 9 -69.5 22t-57.5 31t-47 42.5t-39 57.5zM795 67l31 31l-18 18q4 5 6.5 9t4.5 7l-63 63q-2 -3 -4.5 -7t-6.5 -9l-12 13l-32 -32l16 -15l-17 -18q-22 -22 -43.5 -34.5
t-39.5 -17.5l16 -16q-12 -4 -27 -4l6 -33q24 -5 53 5l12 -12q20 2 44 15t43 31q5 5 9 9.5t8 9.5zM808 116q-10 -16 -27 -36l-64 65q18 19 28 34zM746 76q-35 -36 -81 -49l-32 32q23 5 43.5 17.5t38.5 30.5z" />
    <glyph glyph-name="u1F44C" unicode="&#x1f44c;" horiz-adv-x="687" 
d="M603 543l18 -82l1 -11l-75 -235h1v-29l10 -5v-151l-9 -18q-18 -11 -59.5 -26t-104.5 -15q-35 0 -64 5t-50.5 12t-35 14t-18.5 10l-10 18v144l13 8v21l-100 54l-9 9l-78 159l9 29l97 48l-29 95l14 27l139 41l-99 111l1 29l83 88h31l93 -98l-1 113l22 22l102 -1l22 -22
v-203l41 108l30 13l84 -38l12 -27zM473 830v57h-58v-50zM299 809l-35 37l-55 -56l34 -38zM473 786l-58 7v-43l58 -61v97zM330 777l-57 -58l36 -41l12 4l19 -3l141 -106l-26 -35l-132 99l-78 -23l23 -73l35 10l20 -3l79 -63l3 -30l-92 -121l-23 -8l-75 22l-13 10l-16 30
l-69 -35l16 -33l15 20l29 7l121 -68l8 -29l-19 -35q19 -6 41.5 -10t42.5 -4q26 0 46 1t35.5 4t28 8.5t24.5 14.5l7 22q-15 7 -29.5 12t-31.5 9l-17 26l27 141l23 17q23 -2 45.5 -5.5t43.5 -10.5l5 17l-19 79zM635 756l-44 19l-13 -33l42 -26zM562 700l-29 -75l38 -40l33 90z
M227 528l-24 74l-46 -13l24 -74zM257 381l43 124l-110 -33l46 -85zM166 426l-17 32l-68 -33l16 -33zM559 398q-14 4 -27 7.5t-32 5.5l-19 -101q13 -5 22 -8t23 -8zM162 284l88 -47l8 14l-86 47zM514 140q-22 -10 -55 -18.5t-75 -8.5q-39 0 -74 8t-58 18v-28
q27 -11 59.5 -17.5t72.5 -6.5t72 6.5t58 17.5v29zM384 16q44 0 78.5 9t51.5 18v23q-26 -10 -59 -17.5t-69 -7.5q-43 0 -76.5 7.5t-57.5 16.5v-22q22 -11 60 -19t72 -8z" />
    <glyph glyph-name="u1F44D" unicode="&#x1f44d;" horiz-adv-x="727" 
d="M649 525l22 -16l33 -103l-5 -107l-41 -101l-47 -75l-21 -10l-286 37h-43l-10 -15h-134l-20 12l-22 48l16 27h-19l-21 15q-5 14 -11.5 46t-6.5 73q0 29 6.5 52t15.5 40t18.5 28t15.5 15l14 3h133l5 -15h41l45 65l-15 181l20 23l111 11l23 -20l26 -217zM430 667l-5 46
l-69 -6l4 -46zM273 350q0 -58 14.5 -96t30.5 -61l123 -19l-80 170l91 144l-17 137l-71 -6l6 -72l41 -30l4 -29l-82 -127l-30 -6l-29 19q-1 -6 -1 -12v-12zM368 495l-15 11l-61 -90l17 -12zM498 437l154 -8l-18 52l-121 -4zM106 450q-14 -16 -21 -42t-7 -52v-12.5t1 -13.5h91
q-1 6 -1 12v12q0 32 6.5 55.5t15.5 40.5h-23q-12 -20 -18 -43.5t-6 -48.5h-44q0 24 6 48t17 44h-17zM483 395l-9 -44l183 -23l3 55zM466 307l4 -47l158 -23l19 48zM174 286h-89l3 -19h89zM478 168l105 -16l23 40l-132 23zM124 185l7 -15h83l-8 15h-82z" />
    <glyph glyph-name="u1F44E" unicode="&#x1f44e;" horiz-adv-x="727" 
d="M658 453l41 -101l5 -107l-33 -103l-22 -16l-157 3l-26 -217l-23 -20l-111 11l-20 23l15 181l-45 65h-41l-5 -15h-133l-14 3q-6 5 -15.5 15.5t-18.5 27.5t-15.5 40t-6.5 52q0 41 6.5 73t11.5 46l21 15h19l-16 27l22 48l20 12h134l10 -15h43l286 37l21 -10zM474 436l132 23
l-23 40l-105 -16zM214 481h-83l-7 -15h82zM441 477l-123 -19q-16 -23 -30.5 -61t-14.5 -96v-12t1 -12l29 19l30 -6l82 -127l-4 -29l-41 -30l-6 -72l71 -6l17 137l-91 144zM647 366l-19 48l-158 -23l-4 -47zM177 384h-89l-3 -19h89zM474 300l9 -44l177 12l-3 55zM191 201
q-9 17 -15.5 40.5t-6.5 55.5v12t1 12h-91q-1 -7 -1 -13.5v-12.5q0 -26 7 -52t21 -42h17q-11 20 -17 44t-6 48h44q0 -25 6 -48.5t18 -43.5h23zM309 247l-17 -12l61 -90l15 11zM513 174l121 -4l18 52l-154 -8zM360 -10l-4 -46l69 -6l5 46z" />
    <glyph glyph-name="u1F45F" unicode="&#x1f45f;" horiz-adv-x="960" 
d="M846 327l-19 -11l113 -211l-3 -27l-47 -50l-17 -8q-28 0 -54.5 1.5t-51.5 3.5l-35 -45l-61 13l-13 53q-7 1 -16 5l-34 -30l-53 23l-1 35l-42 -27l-61 36l6 61q-31 24 -61.5 52.5t-62.5 61.5q-8 5 -39.5 28.5t-71.5 54.5l-35 -15l-44 38l9 33l-52 -18l-50 50l19 53
q-7 8 -12.5 15.5t-10.5 15.5l-3 18q0 1 3 11t8.5 26t15 37t22.5 45q31 56 76 101q55 57 125 90l11 3h38l8 -2l144 -47h61l20 -12l28 -52l25 14l23 -42l-26 -14l29 -53l23 13l23 -41l-24 -14l28 -53l21 12l24 -40l-23 -13l28 -53l19 11l24 -41l-20 -12l28 -53l17 10zM338 801
h-29q-11 -5 -22 -11.5t-22 -13.5l238 -84l13 -11l250 -457l50 12l-29 56l-19 -11l-25 40l21 12l-28 54l-20 -12l-24 41l22 13l-29 53l-20 -12l-24 41l22 12l-28 54l-21 -12l-24 41l22 12l-28 53l-22 -12l-23 41l23 13l-21 39h-51l-7 2zM509 597l-213 -249q22 -17 38 -29
t24 -17l189 225zM613 408l-41 74l-178 -213q15 -15 29 -28.5t28 -24.5zM677 291l-40 73l-150 -178q34 -26 65 -44zM890 98l-51 95l-74 -18l-68 -90q37 -8 77.5 -12t87.5 -5z" />
    <glyph glyph-name="u1F4AA" unicode="&#x1f4aa;" horiz-adv-x="796" 
d="M791 175q0 -25 -8.5 -50t-18.5 -45t-18.5 -32.5t-9.5 -13.5l-14 -9q-22 -4 -58.5 -8.5t-80 -8t-89.5 -6t-87 -2.5q-101 0 -185 9.5t-144 28.5l-15 17q-11 51 -17 111.5t-6 117.5q0 72 7 141.5t23 127.5l5 10l109 109l22 6l175 -45l17 -22v-48l-7 -15l-75 -72l-22 -6
l-49 15q6 -24 12 -52.5t12 -59.5t11 -61.5t9 -59.5q35 59 89 92.5t126 33.5q102 0 176 -50t109 -146zM104 77q29 -8 65 -14.5t75.5 -10.5t81 -6t81.5 -1q77 2 145 7.5t110 10.5q-6 57 -20.5 101.5t-35.5 77.5t-47 55.5t-54 35.5q-80 0 -131 -46.5t-75 -126.5h-54
q-6 42 -19.5 89.5t-30 89.5t-33 74t-28.5 45l77 83h108l34 32v20l-146 38l-96 -96q-10 -41 -18 -106.5t-8 -145.5q0 -50 4.5 -102t14.5 -104z" />
    <glyph glyph-name="u1F595" unicode="&#x1f595;" horiz-adv-x="568" 
d="M545 557l-70 -344v-27l11 -5v-151l-10 -18q-18 -11 -59 -26t-105 -15q-35 0 -64 5t-50.5 12t-35 14t-18.5 10l-9 18v144l12 7v29l-114 209l3 25l50 63l-15 57l15 26l126 43l-8 251l21 23l116 3l22 -21l10 -247l158 -60zM323 813l-2 53l-73 -2l2 -54zM109 418l-10 37
l-21 -27l22 -41l36 25l32 -8l68 -120l-6 -29l-41 -29q8 -5 20.5 -9.5t27.5 -8t31.5 -5.5t30.5 -2q26 0 46 1t35.5 4t28 8.5t24.5 14.5l65 319l-153 58l-15 19l-5 144l-74 -4l5 -147l-15 -21l-123 -41l32 -128zM198 394l-33 113l12 25q35 17 65.5 23.5t68.5 6.5q23 0 45.5 -3
t40.5 -7t31 -8t17 -6l12 -26l-29 -115l-26 -15q-4 1 -29.5 4.5t-58.5 3.5q-18 0 -41 -2t-49 -10zM314 518q-26 -1 -51 -4t-51 -14l22 -74q20 4 39.5 6t37.5 2q28 0 48 -2t32 -4l19 76q-20 6 -46.5 10t-49.5 4zM121 348l46 -84l21 16l-46 83zM441 140q-21 -10 -54.5 -18.5
t-74.5 -8.5q-39 0 -74.5 8t-58.5 18v-28q27 -11 59.5 -17.5t73.5 -6.5q39 0 71 6.5t58 17.5v29zM312 16q43 0 77.5 9t51.5 18v23q-26 -11 -59 -18t-68 -7q-44 0 -77.5 7.5t-57.5 16.5v-22q22 -11 60 -19t73 -8z" />
    <glyph glyph-name="u1F596" unicode="&#x1f596;" horiz-adv-x="780" 
d="M767 416l-10 -29l-166 -76l-76 -68v-44l15 -10v-134l-12 -20l-48 -22l-26 16v-19l-15 -21q-15 -5 -46.5 -11.5t-72.5 -6.5q-30 0 -53 6.5t-40 15.5t-27.5 18.5t-14.5 15.5l-4 14v133l15 5v37l-83 307l-90 233l13 29l77 27l-13 37l12 28l104 42l28 -14l78 -224l50 232
l27 16l109 -25l17 -26l-5 -17l89 -16l19 -27l-77 -321l24 -21l130 53l27 -12zM467 866l-67 16l-12 -56l67 -16zM223 806l-22 64l-63 -25l24 -62zM569 805l-68 14l-10 -45l67 -16zM342 613l67 -13l37 167l-67 16zM138 723l-19 49l-58 -21l20 -51zM178 741l57 -145l54 17
l-52 151zM548 715l-66 16l-33 -149l55 -51zM154 682l-57 -23l48 -121l79 -299q17 -17 43 -22.5t48 -5.5q32 0 57.5 4.5t45.5 12.5l-27 30l2 31l128 109l30 -1l39 -39l48 22l-29 66l-39 -17l-271 -79l-96 208zM678 399l41 19l-28 62l-42 -17zM439 270l17 -20l96 85l-18 17z
M480 62l15 7v83l-15 -8v-82zM216 44q15 -13 41.5 -20.5t52.5 -7.5h12t13 1v91q-6 -1 -12 -1h-12q-32 0 -55 6.5t-40 15.5v-23q20 -12 43.5 -17.5t48.5 -5.5v-45q-52 0 -92 23v-17zM399 26v89l-19 -3v-89z" />
    <glyph glyph-name="u1F6E1" unicode="&#x1f6e1;" horiz-adv-x="774" 
d="M725 733q0 -168 -24.5 -297t-68.5 -223t-106 -154t-137 -89q-74 29 -136.5 89t-107.5 154t-70.5 223t-25.5 297l22 10q42 -36 75.5 -55.5t76.5 -19.5q26 0 51.5 12t46.5 32t35 45.5t17 52.5h28q3 -27 17 -52.5t35 -45.5t46.5 -32t51.5 -12q22 0 40.5 5t36.5 14.5t36 23.5
t39 32zM387 -1q77 27 135 93.5t97.5 160.5t59.5 209t20 241q-35 -28 -70.5 -44.5t-79.5 -16.5q-25 0 -50 9.5t-46 25.5t-38 38t-28 47q-10 -25 -27.5 -47t-38.5 -38t-45.5 -25.5t-50.5 -9.5q-44 0 -79.5 16.5t-70.5 44.5q0 -126 20 -241t59.5 -209t98 -160.5t134.5 -93.5z
M387 713q12 -20 29.5 -37.5t38.5 -30.5t44.5 -20.5t47.5 -7.5q32 0 65.5 9.5t58.5 26.5q-4 -103 -21 -201.5t-51 -182t-86 -147t-126 -96.5q-73 33 -125.5 96.5t-86.5 147t-51 182t-21 201.5q25 -17 58.5 -26.5t65.5 -9.5q24 0 47.5 7.5t44.5 20.5t38.5 30.5t29.5 37.5z
M387 54q64 30 109 85.5t75.5 129t47.5 161t25 181.5q-44 -19 -97 -19q-47 0 -86 21.5t-74 58.5q-35 -37 -74 -58.5t-86 -21.5q-53 0 -97 19q8 -94 25 -181.5t47.5 -161t75.5 -129t109 -85.5zM395 404l-189 117q3 -32 12.5 -81t25 -100.5t38 -98.5t50.5 -74h-29
q-30 35 -52.5 86t-38 106t-24 106.5t-10.5 87.5h27l120 -75l-14 91h206v-28h-176l9 -54q21 9 49 9q33 0 60.5 -15t45.5 -41l-24 -13q-8 13 -27.5 29t-54.5 16q-14 0 -24.5 -3t-21.5 -8l92 -57h68v-26h-148l17 -109q4 0 8 -0.5t9 -0.5q35 0 54.5 15.5t27.5 27.5l24 -11
q-18 -28 -45.5 -43t-60.5 -15q-55 0 -90.5 35.5t-35.5 90.5q0 25 7 45t19 37l23 -13q-11 -14 -17.5 -32.5t-6.5 -36.5q0 -27 14 -52.5t43 -38.5l-23 154l29 -18l1 -9h33zM458 366h49l25 -16q11 35 18 67.5t11 60t6 47t2 28.5h26q0 -12 -3 -39t-10 -61.5t-17 -74.5t-24 -78.5
t-31.5 -73.5t-39.5 -59h-29q28 31 48.5 72t35.5 86zM375 131l-14 104q6 -1 13 -2t14 -1l15 -101h-28z" />
    <glyph glyph-name="u1F918" unicode="&#x1f918;" horiz-adv-x="624" 
d="M586 859l15 -26l-56 -267l-34 -322l1 -1v-44l15 -10v-134l-12 -20l-48 -22l-27 16v-19l-15 -21q-14 -5 -46 -11.5t-73 -6.5q-29 0 -52 6.5t-40 15.5t-27.5 18.5t-15.5 15.5l-3 14v133l15 5v37l-147 166l-3 23l67 138l-59 297l17 26l109 24l26 -18l41 -198l96 8l85 -16
l44 200l27 17zM167 783l-12 59l-67 -14l12 -60zM555 821l-58 14l-12 -53l59 -15zM191 465l-63 34l-50 -100l6 -7l29 28l31 -1l109 -115l-2 -31l-33 -32l1 -1h1q17 -17 43 -23t49 -6q58 0 95.5 14.5t60.5 30.5l36 322l31 146l-59 15l-27 -124l-1 -57l19 -147l-108 -93
l-193 93zM176 739l-67 -14l23 -116l3 6l31 9l37 -22zM308 452l-1 184l-58 -4l5 -60l12 -7l8 -28l-15 -28l5 -53zM353 455l55 10v158l-58 10zM147 538l63 -34l16 34l-61 36zM113 359l76 -85l17 15l-79 83zM477 62l15 7v83l-15 -8v-82zM212 44q16 -13 42 -20.5t52 -7.5h12.5
t13.5 1v91q-6 -1 -12 -1h-12q-32 0 -55.5 6.5t-40.5 15.5v-23q20 -12 43.5 -17.5t48.5 -5.5v-45q-24 0 -48 6t-44 17v-17zM395 26v89l-19 -3v-89z" />
    <glyph glyph-name="u1F919" unicode="&#x1f919;" horiz-adv-x="807" 
d="M669 228l109 -28l16 -27l-33 -107l-25 -14l-436 100h-39l-10 -15h-134l-20 12l-22 48l16 26h-19l-21 16q-5 14 -11.5 46t-6.5 72q0 30 6.5 53t15.5 40t18.5 27.5t15.5 14.5l14 4h133l5 -15h47l75 85l68 190l28 14l105 -35l14 -28l-57 -178l120 15l23 -14l34 -86l-1 -126z
M530 700l-64 22l-15 -43l65 -22zM314 382l-32 28q-5 -14 -7 -29t-2 -29q0 -59 15 -97t31 -61l324 -76l18 66l-228 59l-63 124l99 141l34 106l-67 24l-27 -77l32 -32l2 -30l-98 -115zM327 429l69 83l-12 13l-72 -82zM487 442l160 9l-17 47l-135 -18zM106 451
q-14 -15 -21 -41.5t-7 -52.5v-12t1 -13h91q-1 6 -1 12v12q0 32 6.5 55t15.5 40h-24q-23 -40 -23 -92h-44q0 52 23 92h-17zM478 396l-3 -37l179 -14l1 62zM472 315l-1 -37l158 -40l20 64zM174 287h-89l3 -19h89zM124 187l7 -15h83l-8 15h-82zM685 109l41 -10l18 64l-42 11z
" />
    <glyph glyph-name="u1F91A" unicode="&#x1f91a;" horiz-adv-x="812" 
d="M799 714l-110 -222l-82 -271v-42l15 -5v-133l-3 -14q-4 -6 -15 -15.5t-28 -18.5t-40 -15.5t-52 -6.5q-41 0 -73 6.5t-46 11.5l-15 21v19l-27 -16l-48 22l-12 20v134l15 10v44l2 1l-69 60l-188 95l-10 29l46 101l30 10l140 -66l12 11l11 11l-83 327l16 27l110 24l25 -16
l19 -79l-2 119l20 22l112 5l22 -21l2 -139l26 117l26 17l108 -28l17 -27l-31 -118l29 56l30 9l91 -47zM449 819l-1 61l-68 -3l2 -59zM622 833l-65 17l-13 -59l63 -16zM294 782l-10 43l-67 -14l12 -45zM449 776l-66 -1l5 -183l64 -1zM498 585l57 -13l41 161l-61 16zM727 666
l24 48l-53 27l-25 -48zM304 740l-65 -17l50 -195l54 50zM649 510l58 116l-54 28l-62 -118l-114 -179l-253 70v1h-1l-53 25l-30 -65l62 -32l41 41l30 1l128 -109l2 -31l-27 -30q20 -8 45 -12.5t57 -4.5q22 0 47.5 5.5t42.5 21.5zM131 471l-41 20l-29 -63l40 -20zM356 270
l-96 82l-18 -17l95 -85zM298 69l15 -7v82l-15 8v-83zM484 16q26 0 52.5 7.5t41.5 20.5v17q-20 -11 -44 -17t-48 -6v45q26 0 49 5.5t43 17.5v23q-17 -9 -40.5 -15.5t-55.5 -6.5h-12t-12 1v-91q7 -1 13.5 -1h12.5zM395 115v-89l19 -3v89z" />
    <glyph glyph-name="u1F91E" unicode="&#x1f91e;" horiz-adv-x="548" 
d="M473 244l1 -1v-44l15 -10v-134l-12 -20l-48 -22l-27 16v-19l-15 -21q-14 -5 -46 -11.5t-73 -6.5q-29 0 -52 6.5t-40 15.5t-27.5 18.5t-15.5 15.5l-3 14v133l15 5v38l-119 165l-3 24l21 43l-16 47v14l91 234l-52 130l12 29l109 42l27 -11l4 -9l101 -39l13 -30l-36 -97
l44 -95l163 -90l11 -23zM153 831l24 63l-62 -23l19 -47zM197 822l66 -26l21 56l-66 25zM248 754l-67 28l-103 -264l48 97l33 8l33 -19zM286 566l15 81l-26 55l-46 -121l25 -15h32zM362 448l24 142l-45 25l-30 -158zM196 496l20 42l-60 36l-20 -41zM405 442l50 -6l15 107
l-44 24zM116 494l-51 -104l2 -3l43 32l29 -4l95 -128l-5 -30l-36 -26q17 -12 39 -16t42 -4q57 0 94.5 14.5t60.5 29.5l19 135l-93 -92l-199 113l22 46zM186 279l-68 91l-25 -17l69 -91zM439 62l15 7v83l-15 -8v-82zM174 44q16 -13 42 -20.5t52 -7.5h12.5t13.5 1v91
q-6 -1 -12 -1h-12q-32 0 -55.5 6.5t-40.5 15.5v-23q20 -12 43.5 -17.5t48.5 -5.5v-45q-24 0 -48 6t-44 17v-17zM357 26v89l-19 -3v-89z" />
    <glyph glyph-name="J.short" horiz-adv-x="443" 
d="M56 -12v159h25q57 0 86.5 39t29.5 114v459h168v-467q0 -144 -72.5 -224t-211.5 -80h-25z" />
    <glyph glyph-name="Jcircumflex.short" horiz-adv-x="443" 
d="M265 1016h36l176 -132l-81 -79l-113 85l-113 -85l-81 79zM197 759h168v-467q0 -144 -72.5 -224t-211.5 -80h-25v159h25q57 0 86.5 39t29.5 114v459z" />
    <glyph glyph-name="i.loclTRK" horiz-adv-x="309" 
d="M154 625q-19 0 -35.5 7t-29 19.5t-19.5 29.5t-7 36t7 35.5t19.5 28.5t29 19t35.5 7t36 -7t29.5 -19t19.5 -28.5t7 -35.5t-7 -36t-19.5 -29.5t-29.5 -19.5t-36 -7zM232 0h-156v559h156v-559z" />
    <glyph glyph-name="a.ss01" horiz-adv-x="719" 
d="M486 559h156v-559h-156v74q-21 -34 -62.5 -61t-109.5 -27q-66 0 -118 21.5t-88 60.5t-55.5 93t-19.5 118t19.5 118t55.5 93t88 60.5t118 21.5q68 0 109.5 -27t62.5 -62v76zM343 128q66 0 103.5 41t39.5 110q-2 69 -39.5 109.5t-103.5 40.5q-32 0 -59 -11t-46.5 -30.5
t-30.5 -47.5t-11 -61q0 -34 11 -62t30.5 -47.5t46.5 -30.5t59 -11z" />
    <glyph glyph-name="aacute.ss01" horiz-adv-x="719" 
d="M477 878l48 -127l-256 -90l-41 103zM486 559h156v-559h-156v74q-21 -34 -62.5 -61t-109.5 -27q-66 0 -118 21.5t-88 60.5t-55.5 93t-19.5 118t19.5 118t55.5 93t88 60.5t118 21.5q68 0 109.5 -27t62.5 -62v76zM343 128q66 0 103.5 41t39.5 110q-2 69 -39.5 109.5
t-103.5 40.5q-32 0 -59 -11t-46.5 -30.5t-30.5 -47.5t-11 -61q0 -34 11 -62t30.5 -47.5t46.5 -30.5t59 -11z" />
    <glyph glyph-name="abreve.ss01" horiz-adv-x="719" 
d="M366 675q-73 0 -116.5 42.5t-54.5 120.5l95 21q11 -37 29 -53.5t47 -16.5t47.5 16.5t29.5 53.5l95 -21q-11 -78 -54.5 -120.5t-117.5 -42.5zM486 559h156v-559h-156v74q-21 -34 -62.5 -61t-109.5 -27q-66 0 -118 21.5t-88 60.5t-55.5 93t-19.5 118t19.5 118t55.5 93
t88 60.5t118 21.5q68 0 109.5 -27t62.5 -62v76zM343 128q66 0 103.5 41t39.5 110q-2 69 -39.5 109.5t-103.5 40.5q-32 0 -59 -11t-46.5 -30.5t-30.5 -47.5t-11 -61q0 -34 11 -62t30.5 -47.5t46.5 -30.5t59 -11z" />
    <glyph glyph-name="acircumflex.ss01" horiz-adv-x="719" 
d="M481 660l-113 84l-113 -84l-81 79l177 132h35l176 -132zM486 559h156v-559h-156v74q-21 -34 -62.5 -61t-109.5 -27q-66 0 -118 21.5t-88 60.5t-55.5 93t-19.5 118t19.5 118t55.5 93t88 60.5t118 21.5q68 0 109.5 -27t62.5 -62v76zM343 128q66 0 103.5 41t39.5 110
q-2 69 -39.5 109.5t-103.5 40.5q-32 0 -59 -11t-46.5 -30.5t-30.5 -47.5t-11 -61q0 -34 11 -62t30.5 -47.5t46.5 -30.5t59 -11z" />
    <glyph glyph-name="adieresis.ss01" horiz-adv-x="719" 
d="M268 690q-34 0 -58.5 24t-24.5 58t24.5 57.5t58.5 23.5q33 0 57 -23.5t24 -57.5t-24 -58t-57 -24zM464 690q-34 0 -58 24t-24 58t24 57.5t58 23.5q33 0 57.5 -23.5t24.5 -57.5t-24.5 -58t-57.5 -24zM486 559h156v-559h-156v74q-21 -34 -62.5 -61t-109.5 -27
q-66 0 -118 21.5t-88 60.5t-55.5 93t-19.5 118t19.5 118t55.5 93t88 60.5t118 21.5q68 0 109.5 -27t62.5 -62v76zM343 128q66 0 103.5 41t39.5 110q-2 69 -39.5 109.5t-103.5 40.5q-32 0 -59 -11t-46.5 -30.5t-30.5 -47.5t-11 -61q0 -34 11 -62t30.5 -47.5t46.5 -30.5
t59 -11z" />
    <glyph glyph-name="uni1EA1.ss01" horiz-adv-x="719" 
d="M486 559h156v-559h-156v74q-21 -34 -62.5 -61t-109.5 -27q-66 0 -118 21.5t-88 60.5t-55.5 93t-19.5 118t19.5 118t55.5 93t88 60.5t118 21.5q68 0 109.5 -27t62.5 -62v76zM343 128q66 0 103.5 41t39.5 110q-2 69 -39.5 109.5t-103.5 40.5q-32 0 -59 -11t-46.5 -30.5
t-30.5 -47.5t-11 -61q0 -34 11 -62t30.5 -47.5t46.5 -30.5t59 -11zM389 -63q38 0 65 -26t27 -64q0 -19 -7.5 -36t-20 -29.5t-29 -19.5t-35.5 -7t-36 7t-29.5 19.5t-19.5 29.5t-7 36t7 35.5t19.5 28.5t29.5 19t36 7z" />
    <glyph glyph-name="agrave.ss01" horiz-adv-x="719" 
d="M249 878l248 -114l-41 -103l-256 90zM486 559h156v-559h-156v74q-21 -34 -62.5 -61t-109.5 -27q-66 0 -118 21.5t-88 60.5t-55.5 93t-19.5 118t19.5 118t55.5 93t88 60.5t118 21.5q68 0 109.5 -27t62.5 -62v76zM343 128q66 0 103.5 41t39.5 110q-2 69 -39.5 109.5
t-103.5 40.5q-32 0 -59 -11t-46.5 -30.5t-30.5 -47.5t-11 -61q0 -34 11 -62t30.5 -47.5t46.5 -30.5t59 -11z" />
    <glyph glyph-name="amacron.ss01" horiz-adv-x="719" 
d="M196 810h340v-109h-340v109zM486 559h156v-559h-156v74q-21 -34 -62.5 -61t-109.5 -27q-66 0 -118 21.5t-88 60.5t-55.5 93t-19.5 118t19.5 118t55.5 93t88 60.5t118 21.5q68 0 109.5 -27t62.5 -62v76zM343 128q66 0 103.5 41t39.5 110q-2 69 -39.5 109.5t-103.5 40.5
q-32 0 -59 -11t-46.5 -30.5t-30.5 -47.5t-11 -61q0 -34 11 -62t30.5 -47.5t46.5 -30.5t59 -11z" />
    <glyph glyph-name="aogonek.ss01" horiz-adv-x="719" 
d="M642 559v-559q-62 -20 -83 -35.5t-21 -33.5q0 -17 15 -26.5t44 -9.5h45v-111h-91q-63 0 -96.5 28t-33.5 79q0 32 18 59t61 50h-14v74q-21 -34 -62.5 -61t-109.5 -27q-66 0 -118 21.5t-88 60.5t-55.5 93t-19.5 118t19.5 118t55.5 93t88 60.5t118 21.5q68 0 109.5 -27
t62.5 -62v76h156zM343 128q66 0 103.5 41t39.5 110q-2 69 -39.5 109.5t-103.5 40.5q-32 0 -59 -11t-46.5 -30.5t-30.5 -47.5t-11 -61q0 -34 11 -62t30.5 -47.5t46.5 -30.5t59 -11z" />
    <glyph glyph-name="aring.ss01" horiz-adv-x="719" 
d="M367 662q-29 0 -53 10t-41.5 27.5t-27.5 41.5t-10 52q0 27 10 51t27.5 41t41.5 27t53 10q60 0 94.5 -37t34.5 -92q0 -57 -34.5 -94t-94.5 -37zM366 837q-19 0 -32 -13t-13 -31q0 -19 13 -32.5t32 -13.5q18 0 31.5 13.5t13.5 32.5q0 18 -13.5 31t-31.5 13zM486 559h156
v-559h-156v74q-21 -34 -62.5 -61t-109.5 -27q-66 0 -118 21.5t-88 60.5t-55.5 93t-19.5 118t19.5 118t55.5 93t88 60.5t118 21.5q68 0 109.5 -27t62.5 -62v76zM343 128q66 0 103.5 41t39.5 110q-2 69 -39.5 109.5t-103.5 40.5q-32 0 -59 -11t-46.5 -30.5t-30.5 -47.5
t-11 -61q0 -34 11 -62t30.5 -47.5t46.5 -30.5t59 -11z" />
    <glyph glyph-name="aringacute.ss01" horiz-adv-x="719" 
d="M457 1146l48 -127l-256 -89l-41 103zM235 793q0 27 10 51t27.5 41t41.5 27t53 10q60 0 94.5 -37t34.5 -92q0 -57 -34.5 -94t-94.5 -37q-29 0 -53 10t-41.5 27.5t-27.5 41.5t-10 52zM411 793q0 18 -13.5 31t-31.5 13q-19 0 -32 -13t-13 -31q0 -19 13 -32.5t32 -13.5
q18 0 31.5 13.5t13.5 32.5zM486 559h156v-559h-156v74q-21 -34 -62.5 -61t-109.5 -27q-66 0 -118 21.5t-88 60.5t-55.5 93t-19.5 118t19.5 118t55.5 93t88 60.5t118 21.5q68 0 109.5 -27t62.5 -62v76zM343 128q66 0 103.5 41t39.5 110q-2 69 -39.5 109.5t-103.5 40.5
q-32 0 -59 -11t-46.5 -30.5t-30.5 -47.5t-11 -61q0 -34 11 -62t30.5 -47.5t46.5 -30.5t59 -11z" />
    <glyph glyph-name="atilde.ss01" horiz-adv-x="719" 
d="M307 723q-32 0 -38 -43l-103 20q8 67 39.5 100t82.5 33q20 0 37.5 -5t46.5 -19q26 -13 36.5 -17t21.5 -4q29 0 36 42l103 -19q-8 -67 -40 -100.5t-80 -33.5q-20 0 -39 5.5t-47 19.5q-24 13 -34.5 17t-21.5 4zM486 559h156v-559h-156v74q-21 -34 -62.5 -61t-109.5 -27
q-66 0 -118 21.5t-88 60.5t-55.5 93t-19.5 118t19.5 118t55.5 93t88 60.5t118 21.5q68 0 109.5 -27t62.5 -62v76zM343 128q66 0 103.5 41t39.5 110q-2 69 -39.5 109.5t-103.5 40.5q-32 0 -59 -11t-46.5 -30.5t-30.5 -47.5t-11 -61q0 -34 11 -62t30.5 -47.5t46.5 -30.5
t59 -11z" />
    <glyph glyph-name="ordfeminine.ss01" horiz-adv-x="431" 
d="M188 382q-31 0 -59 11.5t-49 34t-33 57t-12 79.5t12 79.5t33 57.5t49 34.5t59 11.5q35 0 62.5 -12.5t45.5 -38.5v46h93v-356h-93v47q-18 -26 -45.5 -38.5t-62.5 -12.5zM216 650q-35 0 -58 -22.5t-23 -63.5q0 -40 23 -63t58 -23q34 0 57 22.5t23 63.5t-23 63.5t-57 22.5z
M61 236v96h330v-96h-330z" />
    <glyph glyph-name="one.lf" horiz-adv-x="431" 
d="M345 730v-730h-156v582h-159v148h315z" />
    <glyph glyph-name="zero.slash" horiz-adv-x="702" 
d="M351 747q134 0 210 -76.5t76 -216.5v-178q0 -140 -76 -216t-210 -76q-135 0 -210.5 76t-75.5 216v178q0 140 75.5 216.5t210.5 76.5zM351 605q-57 0 -93 -38.5t-36 -110.5v-142l229 244q-36 47 -100 47zM351 125q57 0 93 38.5t36 110.5v149l-232 -245q35 -53 103 -53z
" />
    <glyph glyph-name="zero.dnom" 
d="M199 -8q-83 0 -128 43.5t-45 126.5v67q0 83 45 126.5t128 43.5q81 0 126.5 -43.5t45.5 -126.5v-67q0 -83 -45.5 -126.5t-126.5 -43.5zM199 96q24 0 39.5 17.5t15.5 52.5v59q0 35 -15.5 52t-39.5 17q-25 0 -40.5 -17t-15.5 -52v-59q0 -35 15.5 -52.5t40.5 -17.5z" />
    <glyph glyph-name="one.dnom" 
d="M269 391v-294h93v-97h-320v97h116v197h-106v97h217z" />
    <glyph glyph-name="two.dnom" 
d="M213 97h151v-97h-319v89l155 112q26 19 36 31.5t10 25.5q0 17 -12 27t-33 10q-23 0 -37 -13t-14 -36h-112q0 33 11.5 60.5t32.5 47.5t52 31t70 11q74 0 114 -36t40 -92q0 -33 -18.5 -63t-66.5 -65z" />
    <glyph glyph-name="three.dnom" 
d="M339 294l-80 -61q45 -9 71 -40t26 -74q0 -27 -11 -49.5t-31.5 -39t-49.5 -26t-65 -9.5q-69 0 -111 29.5t-59 74.5l104 29q16 -33 59 -33q23 0 37 11.5t14 28.5t-13 28t-36 11q-10 0 -18.5 -2.5t-16.5 -6.5l-38 51l109 78h-176v97h285v-97z" />
    <glyph glyph-name="four.dnom" horiz-adv-x="396" 
d="M328 152h57v-83h-57v-69h-106v69h-197v83l197 239h106v-239zM222 258l-85 -106h85v106z" />
    <glyph glyph-name="five.dnom" 
d="M218 251q63 0 101.5 -33.5t38.5 -90.5q0 -28 -11 -52t-31 -42t-49 -28t-65 -10q-64 0 -106.5 29t-60.5 74l104 29q8 -16 24 -24t33 -8q22 0 37 11t15 30q0 18 -14.5 29.5t-35.5 11.5q-31 0 -49 -21h-91v235h275v-97h-179v-55q30 12 64 12z" />
    <glyph glyph-name="six.dnom" 
d="M238 247q57 0 96 -31.5t39 -91.5t-44.5 -94.5t-119.5 -34.5q-83 0 -127.5 43t-44.5 121v46q0 85 49 135.5t138 50.5h109v-97h-110q-34 0 -52 -17t-18 -43v-12q14 11 35 18t50 7zM206 81q23 0 37.5 12.5t14.5 32.5t-14.5 32t-37.5 12t-37.5 -12t-14.5 -32t14.5 -32.5
t37.5 -12.5z" />
    <glyph glyph-name="seven.dnom" 
d="M35 391h327v-98h-1l1 -1l-152 -292h-130l157 293h-202v98z" />
    <glyph glyph-name="eight.dnom" 
d="M305 214q27 -14 44 -39t17 -61q0 -54 -44 -86.5t-123 -32.5q-80 0 -124 32.5t-44 86.5q0 36 17.5 60.5t43.5 39.5q-17 12 -27.5 31.5t-10.5 45.5q0 21 9 40t27.5 33.5t45.5 23t63 8.5q71 0 107 -31.5t36 -73.5q0 -26 -10 -45t-27 -32zM199 309q-21 0 -33.5 -9.5
t-12.5 -25.5t13 -25.5t33 -9.5t32.5 9.5t12.5 25.5t-12.5 25.5t-32.5 9.5zM199 81q25 0 38.5 11.5t13.5 30.5q0 17 -13.5 29t-38.5 12q-26 0 -39.5 -12t-13.5 -29q0 -19 13.5 -30.5t39.5 -11.5z" />
    <glyph glyph-name="nine.dnom" 
d="M188 396q84 0 128 -42.5t44 -120.5v-47q0 -85 -49 -135.5t-137 -50.5h-110v97h110q34 0 52 17t18 43v11q-14 -11 -34.5 -17.5t-49.5 -6.5q-57 0 -96 31.5t-39 91.5t44 94.5t119 34.5zM191 221q23 0 37.5 12t14.5 32t-14.5 32t-37.5 12t-37.5 -12t-14.5 -32t14.5 -32
t37.5 -12z" />
    <glyph glyph-name="zero.numr" 
d="M199 329q-83 0 -128 43.5t-45 126.5v67q0 83 45 126.5t128 43.5q81 0 126.5 -43.5t45.5 -126.5v-67q0 -83 -45.5 -126.5t-126.5 -43.5zM199 433q24 0 39.5 17.5t15.5 52.5v59q0 35 -15.5 52t-39.5 17q-25 0 -40.5 -17t-15.5 -52v-59q0 -35 15.5 -52.5t40.5 -17.5z" />
    <glyph glyph-name="one.numr" 
d="M269 728v-294h93v-97h-320v97h116v197h-106v97h217z" />
    <glyph glyph-name="two.numr" 
d="M213 434h151v-97h-319v89l155 112q26 19 36 31.5t10 25.5q0 17 -12 27t-33 10q-23 0 -37 -13t-14 -36h-112q0 33 11.5 60.5t32.5 47.5t52 31t70 11q74 0 114 -36t40 -92q0 -33 -18.5 -63t-66.5 -65z" />
    <glyph glyph-name="three.numr" 
d="M339 631l-80 -61q45 -9 71 -40t26 -74q0 -27 -11 -49.5t-31.5 -39t-49.5 -26t-65 -9.5q-69 0 -111 29.5t-59 74.5l104 29q16 -33 59 -33q23 0 37 11.5t14 28.5t-13 28t-36 11q-10 0 -18.5 -2.5t-16.5 -6.5l-38 51l109 78h-176v97h285v-97z" />
    <glyph glyph-name="four.numr" horiz-adv-x="396" 
d="M328 489h57v-83h-57v-69h-106v69h-197v83l197 239h106v-239zM222 595l-85 -106h85v106z" />
    <glyph glyph-name="five.numr" 
d="M218 588q63 0 101.5 -33.5t38.5 -90.5q0 -28 -11 -52t-31 -42t-49 -28t-65 -10q-64 0 -106.5 29t-60.5 74l104 29q8 -16 24 -24t33 -8q22 0 37 11t15 30q0 18 -14.5 29.5t-35.5 11.5q-31 0 -49 -21h-91v235h275v-97h-179v-55q30 12 64 12z" />
    <glyph glyph-name="six.numr" 
d="M238 584q57 0 96 -31.5t39 -91.5t-44.5 -94.5t-119.5 -34.5q-83 0 -127.5 43t-44.5 121v46q0 85 49 135.5t138 50.5h109v-97h-110q-34 0 -52 -17t-18 -43v-12q14 11 35 18t50 7zM206 418q23 0 37.5 12.5t14.5 32.5t-14.5 32t-37.5 12t-37.5 -12t-14.5 -32t14.5 -32.5
t37.5 -12.5z" />
    <glyph glyph-name="seven.numr" 
d="M35 728h327v-98h-1l1 -1l-152 -292h-130l157 293h-202v98z" />
    <glyph glyph-name="eight.numr" 
d="M305 551q27 -14 44 -39t17 -61q0 -54 -44 -86.5t-123 -32.5q-80 0 -124 32.5t-44 86.5q0 36 17.5 60.5t43.5 39.5q-17 12 -27.5 31.5t-10.5 45.5q0 21 9 40t27.5 33.5t45.5 23t63 8.5q71 0 107 -31.5t36 -73.5q0 -26 -10 -45t-27 -32zM199 646q-21 0 -33.5 -9.5
t-12.5 -25.5t13 -25.5t33 -9.5t32.5 9.5t12.5 25.5t-12.5 25.5t-32.5 9.5zM199 418q25 0 38.5 11.5t13.5 30.5q0 17 -13.5 29t-38.5 12q-26 0 -39.5 -12t-13.5 -29q0 -19 13.5 -30.5t39.5 -11.5z" />
    <glyph glyph-name="nine.numr" 
d="M188 733q84 0 128 -42.5t44 -120.5v-47q0 -85 -49 -135.5t-137 -50.5h-110v97h110q34 0 52 17t18 43v11q-14 -11 -34.5 -17.5t-49.5 -6.5q-57 0 -96 31.5t-39 91.5t44 94.5t119 34.5zM191 558q23 0 37.5 12t14.5 32t-14.5 32t-37.5 12t-37.5 -12t-14.5 -32t14.5 -32
t37.5 -12z" />
    <glyph glyph-name="colon.case" horiz-adv-x="266" 
d="M133 419q-45 0 -72.5 29.5t-27.5 71.5t27.5 71.5t72.5 29.5t72.5 -29.5t27.5 -71.5q0 -21 -7 -39t-20.5 -32t-31.5 -22t-41 -8zM133 88q-45 0 -72.5 29.5t-27.5 71.5q0 43 27.5 72t72.5 29t72.5 -29t27.5 -72q0 -21 -7 -39t-20.5 -32t-31.5 -22t-41 -8z" />
    <glyph glyph-name="question.ss02" horiz-adv-x="593" 
d="M201 322q0 40 11.5 64.5t50.5 46.5l75 42q56 35 56 79q0 34 -25 57.5t-71 23.5q-45 0 -73.5 -25.5t-28.5 -65.5v-10h-176q0 51 18.5 95t54.5 77t89 51.5t121 18.5q63 0 113 -16.5t84 -45t52 -66t18 -80.5q0 -55 -23 -95.5t-74 -70.5l-71 -42q-23 -13 -31.5 -25.5
t-8.5 -32.5v-57q-29 23 -79 23q-25 0 -46.5 -6t-35.5 -17v77zM286 -12q-22 0 -40.5 8t-32 22.5t-21 33t-7.5 39.5t7.5 39.5t21 32.5t32 22t40.5 8q45 0 73.5 -30t28.5 -72t-28.5 -72.5t-73.5 -30.5z" />
    <glyph glyph-name="questiondown.ss02" horiz-adv-x="596" 
d="M312 413q-22 0 -41 8t-32.5 22t-21 32.5t-7.5 39.5t7.5 39.5t21 33t32.5 22.5t41 8t41 -8t32.5 -22.5t21 -33t7.5 -39.5t-7.5 -39.5t-21 -32.5t-32.5 -22t-41 -8zM295 -170q-63 0 -113 16.5t-84 44.5t-52 66t-18 80q0 56 23 96.5t74 70.5l72 42q22 13 30.5 25.5t8.5 32.5
v57q29 -23 80 -23q24 0 45.5 6t36.5 17v-77q0 -40 -12 -64.5t-50 -46.5l-75 -43q-57 -33 -57 -78q0 -34 25 -57.5t72 -23.5q45 0 73.5 25.5t28.5 64.5v10h175q0 -51 -18.5 -95t-54.5 -76.5t-89 -51t-121 -18.5z" />
    <glyph glyph-name="parenleft.case" horiz-adv-x="379" 
d="M273 -79q-108 81 -166 196.5t-58 261.5t58 262t166 196l86 -103q-75 -64 -117 -151.5t-42 -203.5q0 -115 42 -202.5t117 -151.5z" />
    <glyph glyph-name="parenright.case" horiz-adv-x="379" 
d="M20 25q75 64 117 151.5t42 202.5q0 116 -42 203.5t-117 151.5l86 103q108 -80 166 -196t58 -262t-58 -261.5t-166 -196.5z" />
    <glyph glyph-name="braceleft.case" horiz-adv-x="475" 
d="M333 497q0 -87 -73 -119q73 -33 73 -120v-128q0 -60 60 -60h58v-129h-83q-94 0 -136 43.5t-42 124.5v144q0 29 -15.5 44.5t-44.5 15.5h-66v129h66q29 0 44.5 15.5t15.5 44.5v147q0 81 42 125t136 44h83v-129h-58q-60 0 -60 -60v-132z" />
    <glyph glyph-name="braceright.case" horiz-adv-x="475" 
d="M411 442v-129h-67q-29 0 -44.5 -15.5t-15.5 -44.5v-144q0 -81 -42 -124.5t-136 -43.5h-83v129h58q60 0 60 60v128q0 87 73 120q-73 32 -73 119v132q0 60 -60 60h-58v129h83q94 0 136 -44t42 -125v-147q0 -29 15.5 -44.5t44.5 -15.5h67z" />
    <glyph glyph-name="bracketleft.case" horiz-adv-x="412" 
d="M398 812v-127h-169v-618h169v-126h-312v871h312z" />
    <glyph glyph-name="bracketright.case" horiz-adv-x="412" 
d="M326 812v-871h-313v126h170v618h-170v127h313z" />
    <glyph glyph-name="hyphen.case" horiz-adv-x="446" 
d="M415 306h-384v128h384v-128z" />
    <glyph glyph-name="endash.case" horiz-adv-x="500" 
d="M500 306h-500v128h500v-128z" />
    <glyph glyph-name="emdash.case" horiz-adv-x="1000" 
d="M1000 306h-1000v128h1000v-128z" />
    <glyph glyph-name="guillemotleft.case" horiz-adv-x="632" 
d="M236 602l90 -84l-152 -155l152 -155l-90 -84l-228 234v10zM529 602l90 -84l-152 -155l152 -155l-90 -84l-228 234v10z" />
    <glyph glyph-name="guillemotright.case" horiz-adv-x="632" 
d="M103 602l228 -234v-10l-228 -234l-89 84l151 155l-151 155zM306 518l90 84l228 -234v-10l-228 -234l-90 84l152 155z" />
    <glyph glyph-name="guilsinglleft.case" horiz-adv-x="340" 
d="M236 602l90 -84l-152 -155l152 -155l-90 -84l-228 234v10z" />
    <glyph glyph-name="guilsinglright.case" horiz-adv-x="340" 
d="M14 518l89 84l228 -234v-10l-228 -234l-89 84l151 155z" />
    <glyph glyph-name="florin" horiz-adv-x="702" 
d="M603 579h-100q-48 0 -54 -49l-9 -81h130v-106h-142l-43 -380q-9 -81 -53 -117t-125 -36h-108v151h82q49 0 55 49l38 333h-116v106h128l14 128q9 82 52.5 117.5t125.5 35.5h125v-151z" />
    <glyph glyph-name="at.case" horiz-adv-x="1045" 
d="M297 275q0 57 40.5 96t124.5 53l163 27q-1 39 -24.5 61t-65.5 22t-65 -18t-26 -47h-121q1 35 15 65.5t40.5 53t65.5 36t91 13.5q100 0 157.5 -54.5t57.5 -161.5v-114q0 -26 11.5 -42t31.5 -16q16 0 31 10.5t27 31.5t19 53.5t7 75.5q0 74 -25 132.5t-70 99.5t-108 63
t-139 22q-82 0 -149 -26.5t-114 -74t-73 -113.5t-26 -146q0 -79 26.5 -144.5t74 -112.5t114 -73.5t146.5 -26.5q66 0 113 13t91 38l52 -100q-55 -29 -115 -47t-143 -18q-109 0 -198 34.5t-152.5 96.5t-98 148.5t-34.5 191.5t34.5 192.5t98 150t153 97.5t199.5 35
q104 0 189.5 -31.5t146 -88t93.5 -134t33 -170.5q0 -72 -16.5 -126.5t-46 -90.5t-69 -54.5t-84.5 -18.5q-57 0 -94.5 23.5t-51.5 62.5q-23 -36 -69 -61t-106 -25q-76 0 -119 36.5t-43 100.5zM496 337q-38 -7 -53.5 -18t-15.5 -32q0 -17 14.5 -28t40.5 -11q28 0 53 8
t44.5 22.5t31.5 35.5t14 47z" />
    <glyph glyph-name="u1F91E.locl" horiz-adv-x="579" 
d="M495 243h1v-44l15 -10v-134l-12 -20l-48 -22l-27 16v-19l-15 -21q-14 -5 -46 -11.5t-73 -6.5q-29 0 -52 6.5t-40 15.5t-27.5 18.5t-15.5 15.5l-3 14v133l15 5v38l-119 166l-3 23l25 98l-47 152l14 27l84 30l13 51l27 17l114 -28l17 -27l-4 -18l68 -21l8 -14l84 -25l6 -11
l78 -27l14 -26l-27 -105zM231 663l13 53l-72 16l-10 -43l2 -9zM171 506l-48 161l-53 -19l51 -159zM275 465l9 35l39 151l-46 14l-50 -186zM179 632l23 -79l18 67zM414 612l-50 16l-7 -26l-45 -169l50 -13l8 27zM410 427l48 -11l41 159l-45 14zM102 446l-11 -45l5 -8l36 26
l30 -4l95 -128l-5 -30l-37 -26q17 -12 39.5 -16t41.5 -4q57 0 94.5 14.5t60.5 29.5l11 113l-174 -58l-94 134l-11 20l-69 -24zM208 279l-67 92l-19 -14l65 -93zM461 62l15 7v83l-15 -8v-82zM196 44q16 -13 42 -20.5t52 -7.5h12.5t13.5 1v91q-6 -1 -12 -1h-12
q-32 0 -55.5 6.5t-40.5 15.5v-23q20 -12 43.5 -17.5t48.5 -5.5v-45q-24 0 -48 6t-44 17v-17zM379 26v89l-19 -3v-89z" />
    <glyph glyph-name="at.ss01" horiz-adv-x="1045" 
d="M534 773q104 0 189.5 -31.5t146 -88t93.5 -134t33 -170.5q0 -73 -16 -129t-43.5 -93.5t-65 -56.5t-81.5 -19q-55 0 -91.5 25.5t-53.5 68.5q-7 -16 -19.5 -33t-31.5 -30.5t-45.5 -22t-62.5 -8.5q-52 0 -93.5 18.5t-70.5 51.5t-44.5 78.5t-15.5 99.5t15.5 100t44.5 79.5
t70.5 52.5t93.5 19q60 0 95 -22.5t53 -50.5v59h129v-312q0 -29 10.5 -45.5t35.5 -16.5q32 0 50 44.5t18 135.5q0 74 -25 132.5t-70 99.5t-108 63t-139 22q-82 0 -149 -26.5t-114 -74.5t-73 -114t-26 -145t26.5 -144.5t74 -113t114 -74t146.5 -26.5q66 0 113 13t91 39
l52 -100q-55 -30 -115 -48t-143 -18q-109 0 -198 34.5t-152.5 96.5t-98 149t-34.5 192t34.5 192t98 150t153 97.5t199.5 34.5zM515 170q56 0 86.5 35t32.5 89v9q-2 55 -33.5 91t-85.5 36t-88 -36.5t-34 -94.5t34 -93.5t88 -35.5z" />
    <glyph glyph-name="at.case.ss01" horiz-adv-x="1045" 
d="M297 275q0 57 40.5 96t124.5 53l163 27q-1 39 -24.5 61t-65.5 22t-65 -18t-26 -47h-121q1 35 15 65.5t40.5 53t65.5 36t91 13.5q100 0 157.5 -54.5t57.5 -161.5v-114q0 -26 11.5 -42t31.5 -16q16 0 31 10.5t27 31.5t19 53.5t7 75.5q0 74 -25 132.5t-70 99.5t-108 63
t-139 22q-82 0 -149 -26.5t-114 -74t-73 -113.5t-26 -146q0 -79 26.5 -144.5t74 -112.5t114 -73.5t146.5 -26.5q66 0 113 13t91 38l52 -100q-55 -29 -115 -47t-143 -18q-109 0 -198 34.5t-152.5 96.5t-98 148.5t-34.5 191.5t34.5 192.5t98 150t153 97.5t199.5 35
q104 0 189.5 -31.5t146 -88t93.5 -134t33 -170.5q0 -72 -16.5 -126.5t-46 -90.5t-69 -54.5t-84.5 -18.5q-57 0 -94.5 23.5t-51.5 62.5q-23 -36 -69 -61t-106 -25q-76 0 -119 36.5t-43 100.5zM496 337q-38 -7 -53.5 -18t-15.5 -32q0 -17 14.5 -28t40.5 -11q28 0 53 8
t44.5 22.5t31.5 35.5t14 47z" />
    <glyph glyph-name="dotbelowcomb" horiz-adv-x="0" 
d="M-91 -245q-19 0 -36 7t-29.5 19.5t-19.5 29.5t-7 36t7 35.5t19.5 28.5t29.5 19t36 7q38 0 64.5 -26t26.5 -64q0 -19 -7 -36t-19.5 -29.5t-29 -19.5t-35.5 -7z" />
    </font>
</defs>
</svg>
